<?xml version="1.0" encoding="UTF-8" standalone="no"?>
<!DOCTYPE svg PUBLIC "-//W3C//DTD SVG 1.1//EN" "http://www.w3.org/Graphics/SVG/1.1/DTD/svg11.dtd">
<svg width="100%" height="100%" viewBox="0 0 120 380" version="1.1" xmlns="http://www.w3.org/2000/svg" xmlns:xlink="http://www.w3.org/1999/xlink" xml:space="preserve" xmlns:serif="http://www.serif.com/" style="fill-rule:evenodd;clip-rule:evenodd;stroke-linecap:round;stroke-linejoin:round;">
    <g id="Ebene_1">
        <rect x="0" y="0" width="120" height="380" style="fill:#e6e6e6;fill-rule:nonzero;"/>
        <path d="M4.451,269.602L115.974,269.602C117.645,269.602 119,270.945 119,272.602L119,308.31C119,309.966 117.645,311.31 115.974,311.31L4.451,311.31C2.78,311.31 1.425,309.966 1.425,308.31L1.425,272.602C1.425,270.945 2.78,269.602 4.451,269.602Z" style="fill:#bcbdba;fill-rule:nonzero;"/>
        <path d="M4.731,201.401L57.452,201.401C59.093,201.401 60.425,202.484 60.425,203.82L60.425,238.981C60.425,240.318 59.093,241.401 57.452,241.401L4.731,241.401C3.089,241.401 1.758,240.318 1.758,238.981L1.758,203.82C1.758,202.484 3.089,201.401 4.731,201.401Z" style="fill:#fff;fill-rule:nonzero;"/>
        <path d="M64.889,223.401L116.111,223.401C117.707,223.401 119,224.484 119,225.82L119,260.981C119,262.318 117.707,263.401 116.111,263.401L64.889,263.401C63.293,263.401 62,262.318 62,260.981L62,225.82C62,224.484 63.293,223.401 64.889,223.401Z" style="fill:#bcbdba;fill-rule:nonzero;"/>
        <path d="M31.807,70.102L31.807,125.305" style="fill:none;fill-rule:nonzero;stroke:#00799a;stroke-width:4px;"/>
        <path d="M89.807,93.102L89.807,148.305" style="fill:none;fill-rule:nonzero;stroke:#00799a;stroke-width:4px;"/>
        <path d="M31.807,70.102L89.807,93.102" style="fill:none;fill-rule:nonzero;stroke:#00799a;stroke-width:4px;"/>
        <path d="M31.807,125.305L89.807,148.305" style="fill:none;fill-rule:nonzero;stroke:#00799a;stroke-width:4px;"/>
        <path d="M12.775,296.5L108.901,296.5" style="fill:none;fill-rule:nonzero;stroke:#00799a;stroke-width:2px;"/>
        <path d="M74.108,248.546L110.734,248.454" style="fill:none;fill-rule:nonzero;stroke:#00799a;stroke-width:2px;"/>
        <path d="M14.343,226.546L50.969,226.454" style="fill:none;fill-rule:nonzero;stroke:#00799a;stroke-width:2px;"/>
        <path d="M103.3,272L99.765,277.602L98.675,277.602L102.214,272L103.3,272Z" style="fill-rule:nonzero;"/>
        <path d="M105.832,277.602L104.812,277.602L104.812,273.016L103.894,273.016L103.894,272L105.832,272L105.832,277.602Z" style="fill-rule:nonzero;"/>
        <path d="M107.945,274.289L110.648,274.289C110.791,274.289 110.946,274.314 111.111,274.365C111.276,274.416 111.431,274.498 111.574,274.611C111.717,274.724 111.836,274.872 111.931,275.055C112.026,275.237 112.074,275.46 112.074,275.723L112.074,276.176C112.074,276.272 112.063,276.373 112.041,276.48C112.018,276.587 111.983,276.694 111.935,276.799C111.887,276.904 111.826,277.005 111.752,277.102C111.677,277.198 111.587,277.283 111.482,277.357C111.377,277.432 111.255,277.491 111.117,277.535C110.979,277.58 110.823,277.602 110.648,277.602L108.808,277.602C108.683,277.602 108.55,277.588 108.408,277.559C108.266,277.53 108.126,277.484 107.988,277.42C107.85,277.356 107.717,277.275 107.588,277.178C107.459,277.08 107.346,276.961 107.25,276.822C107.153,276.683 107.076,276.522 107.017,276.34C106.958,276.157 106.929,275.952 106.929,275.723L106.929,273.883C106.929,273.654 106.958,273.448 107.017,273.266C107.076,273.083 107.153,272.922 107.25,272.783C107.346,272.644 107.459,272.525 107.588,272.426C107.717,272.327 107.85,272.245 107.988,272.182C108.126,272.118 108.266,272.072 108.408,272.043C108.55,272.014 108.683,272 108.808,272L111.355,272L111.355,273.016L108.808,273.016C108.678,273.026 108.56,273.053 108.455,273.098C108.349,273.142 108.258,273.2 108.183,273.273C108.108,273.346 108.049,273.434 108.007,273.537C107.966,273.64 107.945,273.755 107.945,273.883L107.945,274.289ZM107.945,275.312L107.945,275.723C107.945,275.856 107.968,275.975 108.013,276.08C108.059,276.185 108.121,276.276 108.199,276.352C108.277,276.427 108.369,276.485 108.474,276.525C108.579,276.566 108.693,276.586 108.816,276.586L110.648,276.586C110.778,276.586 110.878,276.547 110.947,276.469C111.016,276.391 111.05,276.293 111.05,276.176L111.05,275.723C111.05,275.59 111.016,275.488 110.949,275.418C110.881,275.347 110.778,275.312 110.64,275.312L107.945,275.312Z" style="fill-rule:nonzero;"/>
        <path d="M74.896,272L71.361,277.602L70.271,277.602L73.811,272L74.896,272Z" style="fill-rule:nonzero;"/>
        <path d="M80.6,276.176C80.6,276.272 80.589,276.373 80.566,276.48C80.544,276.587 80.509,276.694 80.461,276.799C80.413,276.904 80.351,277.005 80.275,277.102C80.2,277.198 80.109,277.283 80.004,277.357C79.899,277.432 79.777,277.491 79.639,277.535C79.501,277.58 79.346,277.602 79.174,277.602L76.877,277.602C76.736,277.602 76.583,277.577 76.416,277.527C76.249,277.478 76.095,277.396 75.953,277.283C75.811,277.17 75.693,277.023 75.598,276.842C75.503,276.661 75.455,276.439 75.455,276.176L75.455,275.723C75.455,275.624 75.466,275.519 75.488,275.41C75.51,275.301 75.545,275.193 75.594,275.086C75.642,274.979 75.704,274.878 75.779,274.781C75.855,274.685 75.946,274.602 76.053,274.531C76.006,274.422 75.97,274.311 75.947,274.199C75.924,274.087 75.912,273.982 75.912,273.883L75.912,273.426C75.912,273.165 75.96,272.944 76.055,272.762C76.15,272.579 76.268,272.432 76.41,272.32C76.552,272.208 76.706,272.127 76.873,272.076C77.04,272.025 77.193,272 77.334,272L78.709,272C78.884,272 79.041,272.022 79.18,272.066C79.319,272.111 79.442,272.17 79.547,272.244C79.652,272.318 79.742,272.403 79.816,272.5C79.891,272.597 79.951,272.698 79.998,272.803C80.045,272.908 80.079,273.015 80.102,273.123C80.124,273.231 80.135,273.332 80.135,273.426L80.135,273.883C80.135,274.138 80.089,274.36 79.998,274.547C80.081,274.602 80.159,274.666 80.232,274.74C80.305,274.815 80.369,274.9 80.424,274.996C80.479,275.093 80.522,275.201 80.553,275.322C80.584,275.443 80.6,275.577 80.6,275.723L80.6,276.176ZM79.119,273.434C79.119,273.296 79.084,273.192 79.014,273.121C78.943,273.051 78.842,273.016 78.709,273.016L77.342,273.016C77.204,273.016 77.102,273.051 77.035,273.121C76.969,273.192 76.936,273.293 76.936,273.426L76.936,273.883C76.936,274.018 76.97,274.12 77.039,274.188C77.108,274.255 77.207,274.289 77.334,274.289L78.709,274.289C78.847,274.289 78.95,274.255 79.018,274.186C79.085,274.117 79.119,274.016 79.119,273.883L79.119,273.434ZM79.572,275.723C79.572,275.592 79.536,275.491 79.465,275.42C79.393,275.348 79.296,275.312 79.174,275.312L76.877,275.312C76.752,275.312 76.653,275.351 76.58,275.43C76.507,275.508 76.471,275.606 76.471,275.723L76.471,276.176C76.471,276.301 76.509,276.4 76.586,276.475C76.663,276.549 76.76,276.586 76.877,276.586L79.174,276.586C79.304,276.586 79.403,276.547 79.471,276.469C79.538,276.391 79.572,276.293 79.572,276.176L79.572,275.723Z" style="fill-rule:nonzero;"/>
        <path d="M45.164,272L41.629,277.602L40.539,277.602L44.078,272L45.164,272Z" style="fill-rule:nonzero;"/>
        <path d="M51.047,277.602L50.024,277.602L50.024,275.312L46.414,275.312C46.341,275.312 46.274,275.298 46.211,275.271C46.148,275.244 46.094,275.207 46.049,275.162C46.004,275.117 45.968,275.063 45.942,275C45.915,274.937 45.902,274.871 45.902,274.801L45.902,272L46.918,272L46.918,274.289L50.024,274.289L50.024,272L51.047,272L51.047,277.602Z" style="fill-rule:nonzero;"/>
        <path d="M15.622,272L12.087,277.602L10.997,277.602L14.536,272L15.622,272Z" style="fill-rule:nonzero;"/>
        <path d="M21.423,277.602L16.279,277.602L16.279,275.723C16.279,275.626 16.29,275.524 16.312,275.416C16.334,275.308 16.368,275.201 16.415,275.094C16.462,274.987 16.523,274.886 16.597,274.789C16.671,274.693 16.761,274.608 16.866,274.533C16.972,274.459 17.094,274.4 17.232,274.355C17.37,274.311 17.526,274.289 17.7,274.289L19.989,274.289C20.127,274.289 20.229,274.255 20.296,274.186C20.363,274.117 20.396,274.016 20.396,273.883L20.396,273.434C20.396,273.296 20.362,273.192 20.294,273.121C20.227,273.051 20.128,273.016 19.997,273.016L16.736,273.016L16.736,272L19.997,272C20.169,272 20.324,272.022 20.462,272.066C20.6,272.111 20.722,272.17 20.827,272.244C20.933,272.318 21.024,272.403 21.099,272.5C21.174,272.597 21.236,272.698 21.284,272.803C21.333,272.908 21.368,273.015 21.39,273.123C21.412,273.231 21.423,273.332 21.423,273.426L21.423,273.883C21.423,274.146 21.375,274.368 21.28,274.549C21.185,274.73 21.066,274.877 20.923,274.99C20.78,275.103 20.625,275.185 20.46,275.236C20.295,275.287 20.14,275.312 19.997,275.312L17.7,275.312C17.617,275.312 17.55,275.324 17.501,275.348C17.452,275.371 17.413,275.402 17.386,275.441C17.359,275.48 17.338,275.525 17.325,275.574C17.312,275.623 17.302,275.673 17.294,275.723L17.294,276.586L21.423,276.586L21.423,277.602Z" style="fill-rule:nonzero;"/>
        <path d="M102.677,231.176C102.677,231.351 102.655,231.507 102.611,231.646C102.567,231.785 102.508,231.908 102.435,232.014C102.362,232.119 102.278,232.209 102.181,232.283C102.085,232.358 101.984,232.418 101.879,232.465C101.773,232.512 101.666,232.546 101.558,232.568C101.45,232.591 101.348,232.602 101.252,232.602L99.42,232.602C99.279,232.602 99.126,232.577 98.959,232.527C98.792,232.478 98.638,232.396 98.496,232.283C98.354,232.17 98.235,232.023 98.14,231.842C98.045,231.661 97.998,231.439 97.998,231.176L97.998,229.801C97.998,229.54 98.045,229.32 98.14,229.139C98.235,228.958 98.354,228.81 98.496,228.697C98.638,228.584 98.792,228.502 98.959,228.453C99.126,228.404 99.279,228.379 99.42,228.379L101.252,228.379C101.512,228.379 101.733,228.426 101.916,228.52C102.098,228.613 102.245,228.731 102.357,228.873C102.469,229.015 102.55,229.169 102.601,229.336C102.652,229.503 102.677,229.658 102.677,229.801L102.677,231.176ZM101.662,229.809C101.662,229.668 101.627,229.564 101.556,229.496C101.486,229.429 101.385,229.395 101.252,229.395L99.427,229.395C99.292,229.395 99.189,229.429 99.119,229.498C99.048,229.567 99.013,229.668 99.013,229.801L99.013,231.176C99.013,231.309 99.048,231.41 99.119,231.48C99.189,231.551 99.292,231.586 99.427,231.586L101.252,231.586C101.39,231.586 101.493,231.551 101.56,231.48C101.628,231.41 101.662,231.309 101.662,231.176L101.662,229.809Z" style="fill-rule:nonzero;"/>
        <path d="M108.158,232.09C108.158,232.163 108.145,232.23 108.119,232.293C108.093,232.356 108.057,232.41 108.011,232.455C107.966,232.5 107.912,232.536 107.851,232.562C107.79,232.589 107.724,232.602 107.654,232.602L105.357,232.602C105.232,232.602 105.099,232.588 104.957,232.559C104.815,232.53 104.675,232.484 104.537,232.42C104.399,232.356 104.265,232.275 104.136,232.178C104.007,232.08 103.895,231.961 103.798,231.822C103.702,231.683 103.625,231.522 103.566,231.34C103.507,231.157 103.478,230.952 103.478,230.723L103.478,228.379L104.494,228.379L104.494,230.723C104.494,230.856 104.517,230.975 104.562,231.08C104.607,231.185 104.669,231.276 104.748,231.352C104.826,231.427 104.918,231.485 105.023,231.525C105.128,231.566 105.242,231.586 105.365,231.586L107.142,231.586L107.142,228.379L108.158,228.379L108.158,232.09Z" style="fill-rule:nonzero;"/>
        <path d="M112.951,229.395L111.177,229.395L111.177,232.602L110.15,232.602L110.15,229.395L108.83,229.395L108.83,228.379L110.15,228.379L110.15,227L111.177,227L111.177,228.379L112.951,228.379L112.951,229.395Z" style="fill-rule:nonzero;"/>
        <path d="M70.629,231.176C70.629,231.351 70.607,231.507 70.562,231.646C70.518,231.785 70.46,231.908 70.387,232.014C70.314,232.119 70.229,232.209 70.133,232.283C70.036,232.358 69.935,232.418 69.83,232.465C69.725,232.512 69.618,232.546 69.51,232.568C69.402,232.591 69.3,232.602 69.203,232.602L67.371,232.602C67.23,232.602 67.077,232.577 66.91,232.527C66.743,232.478 66.589,232.396 66.447,232.283C66.305,232.17 66.187,232.023 66.092,231.842C65.997,231.661 65.949,231.439 65.949,231.176L65.949,229.801C65.949,229.54 65.997,229.32 66.092,229.139C66.187,228.958 66.305,228.81 66.447,228.697C66.589,228.584 66.743,228.502 66.91,228.453C67.077,228.404 67.23,228.379 67.371,228.379L69.203,228.379C69.464,228.379 69.685,228.426 69.867,228.52C70.05,228.613 70.197,228.731 70.309,228.873C70.421,229.015 70.502,229.169 70.553,229.336C70.604,229.503 70.629,229.658 70.629,229.801L70.629,231.176ZM69.613,229.809C69.613,229.668 69.578,229.564 69.508,229.496C69.437,229.429 69.336,229.395 69.203,229.395L67.379,229.395C67.244,229.395 67.141,229.429 67.07,229.498C67,229.567 66.965,229.668 66.965,229.801L66.965,231.176C66.965,231.309 67,231.41 67.07,231.48C67.141,231.551 67.244,231.586 67.379,231.586L69.203,231.586C69.341,231.586 69.444,231.551 69.512,231.48C69.579,231.41 69.613,231.309 69.613,231.176L69.613,229.809Z" style="fill-rule:nonzero;"/>
        <path d="M76.109,232.09C76.109,232.163 76.096,232.23 76.07,232.293C76.044,232.356 76.008,232.41 75.963,232.455C75.918,232.5 75.864,232.536 75.803,232.562C75.742,232.589 75.676,232.602 75.605,232.602L73.309,232.602C73.184,232.602 73.05,232.588 72.908,232.559C72.766,232.53 72.626,232.484 72.488,232.42C72.35,232.356 72.217,232.275 72.088,232.178C71.959,232.08 71.847,231.961 71.75,231.822C71.653,231.683 71.576,231.522 71.518,231.34C71.459,231.157 71.43,230.952 71.43,230.723L71.43,228.379L72.445,228.379L72.445,230.723C72.445,230.856 72.468,230.975 72.514,231.08C72.559,231.185 72.621,231.276 72.699,231.352C72.777,231.427 72.869,231.485 72.975,231.525C73.08,231.566 73.194,231.586 73.316,231.586L75.094,231.586L75.094,228.379L76.109,228.379L76.109,232.09Z" style="fill-rule:nonzero;"/>
        <path d="M80.902,229.395L79.129,229.395L79.129,232.602L78.102,232.602L78.102,229.395L76.781,229.395L76.781,228.379L78.102,228.379L78.102,227L79.129,227L79.129,228.379L80.902,228.379L80.902,229.395Z" style="fill-rule:nonzero;"/>
        <path d="M84.242,229L85.953,227L87.34,227L84.93,229.809L87.324,232.602L85.945,232.602L84.242,230.617L82.547,232.602L81.164,232.602L83.555,229.809L81.156,227L82.531,227L84.242,229Z" style="fill-rule:nonzero;"/>
        <path d="M42.922,210.09C42.922,210.163 42.909,210.23 42.883,210.293C42.857,210.356 42.821,210.41 42.775,210.455C42.73,210.5 42.676,210.536 42.615,210.562C42.554,210.589 42.489,210.602 42.418,210.602L40.121,210.602C39.996,210.602 39.863,210.588 39.721,210.559C39.579,210.53 39.439,210.484 39.301,210.42C39.163,210.356 39.029,210.275 38.9,210.178C38.771,210.08 38.659,209.961 38.563,209.822C38.466,209.683 38.389,209.522 38.33,209.34C38.271,209.157 38.242,208.952 38.242,208.723L38.242,206.379L39.258,206.379L39.258,208.723C39.258,208.856 39.281,208.975 39.326,209.08C39.372,209.185 39.434,209.276 39.512,209.352C39.59,209.427 39.682,209.485 39.787,209.525C39.892,209.566 40.006,209.586 40.129,209.586L41.906,209.586L41.906,206.379L42.922,206.379L42.922,210.09Z" style="fill-rule:nonzero;"/>
        <path d="M48.356,205L44.82,210.602L43.731,210.602L47.27,205L48.356,205Z" style="fill-rule:nonzero;"/>
        <path d="M53.555,209.176C53.555,209.351 53.533,209.507 53.488,209.646C53.444,209.785 53.386,209.908 53.313,210.014C53.24,210.119 53.155,210.209 53.059,210.283C52.962,210.358 52.861,210.418 52.756,210.465C52.651,210.512 52.544,210.546 52.436,210.568C52.328,210.591 52.226,210.602 52.129,210.602L50.297,210.602C50.122,210.602 49.966,210.58 49.828,210.535C49.69,210.491 49.568,210.432 49.463,210.357C49.358,210.283 49.268,210.198 49.193,210.102C49.119,210.005 49.059,209.904 49.012,209.799C48.965,209.694 48.931,209.587 48.908,209.479C48.886,209.37 48.875,209.269 48.875,209.176L48.875,207.801C48.875,207.54 48.923,207.32 49.018,207.139C49.113,206.958 49.231,206.81 49.373,206.697C49.515,206.584 49.669,206.502 49.836,206.453C50.003,206.404 50.156,206.379 50.297,206.379L52.129,206.379L52.129,207.395L50.305,207.395C50.17,207.395 50.067,207.429 49.996,207.498C49.926,207.567 49.891,207.668 49.891,207.801L49.891,209.168C49.891,209.306 49.925,209.41 49.994,209.48C50.063,209.551 50.164,209.586 50.297,209.586L52.129,209.586C52.267,209.586 52.37,209.551 52.438,209.48C52.505,209.41 52.539,209.309 52.539,209.176L52.539,204.594L53.555,204.594L53.555,209.176Z" style="fill-rule:nonzero;"/>
        <path d="M9.163,210.602L6.409,210.602C6.268,210.602 6.115,210.577 5.948,210.527C5.781,210.478 5.627,210.396 5.486,210.283C5.344,210.17 5.225,210.023 5.13,209.842C5.035,209.661 4.988,209.439 4.988,209.176L4.988,207.801C4.988,207.704 4.999,207.603 5.021,207.496C5.043,207.389 5.077,207.283 5.124,207.178C5.171,207.073 5.232,206.972 5.306,206.875C5.38,206.778 5.47,206.694 5.575,206.621C5.681,206.548 5.803,206.49 5.941,206.445C6.079,206.401 6.235,206.379 6.409,206.379L9.163,206.379L9.163,207.395L6.409,207.395C6.276,207.395 6.176,207.429 6.107,207.496C6.038,207.564 6.003,207.668 6.003,207.809L6.003,209.176C6.003,209.309 6.038,209.41 6.109,209.48C6.179,209.551 6.282,209.586 6.417,209.586L9.163,209.586L9.163,210.602Z" style="fill-rule:nonzero;"/>
        <path d="M11.859,210.602L11.405,210.602C11.26,210.602 11.104,210.577 10.939,210.527C10.774,210.478 10.619,210.396 10.476,210.283C10.333,210.17 10.214,210.023 10.12,209.842C10.027,209.661 9.98,209.439 9.98,209.176L9.98,204.594L10.995,204.594L10.995,209.176C10.995,209.301 11.034,209.4 11.113,209.475C11.191,209.549 11.288,209.586 11.405,209.586L11.859,209.586L11.859,210.602Z" style="fill-rule:nonzero;"/>
        <path d="M17.105,209.176C17.105,209.351 17.083,209.507 17.038,209.646C16.994,209.785 16.936,209.908 16.863,210.014C16.79,210.119 16.705,210.209 16.609,210.283C16.512,210.358 16.411,210.418 16.306,210.465C16.201,210.512 16.094,210.546 15.986,210.568C15.877,210.591 15.775,210.602 15.679,210.602L13.847,210.602C13.706,210.602 13.553,210.577 13.386,210.527C13.219,210.478 13.065,210.396 12.923,210.283C12.781,210.17 12.663,210.023 12.568,209.842C12.473,209.661 12.425,209.439 12.425,209.176L12.425,207.801C12.425,207.54 12.473,207.32 12.568,207.139C12.663,206.958 12.781,206.81 12.923,206.697C13.065,206.584 13.219,206.502 13.386,206.453C13.553,206.404 13.706,206.379 13.847,206.379L15.679,206.379C15.94,206.379 16.161,206.426 16.343,206.52C16.525,206.613 16.672,206.731 16.784,206.873C16.896,207.015 16.978,207.169 17.029,207.336C17.08,207.503 17.105,207.658 17.105,207.801L17.105,209.176ZM16.089,207.809C16.089,207.668 16.054,207.564 15.984,207.496C15.913,207.429 15.812,207.395 15.679,207.395L13.855,207.395C13.72,207.395 13.617,207.429 13.546,207.498C13.476,207.567 13.441,207.668 13.441,207.801L13.441,209.176C13.441,209.309 13.476,209.41 13.546,209.48C13.617,209.551 13.72,209.586 13.855,209.586L15.679,209.586C15.817,209.586 15.92,209.551 15.988,209.48C16.055,209.41 16.089,209.309 16.089,209.176L16.089,207.809Z" style="fill-rule:nonzero;"/>
        <path d="M22.058,210.602L19.304,210.602C19.163,210.602 19.01,210.577 18.843,210.527C18.676,210.478 18.522,210.396 18.38,210.283C18.238,210.17 18.12,210.023 18.025,209.842C17.93,209.661 17.882,209.439 17.882,209.176L17.882,207.801C17.882,207.704 17.893,207.603 17.915,207.496C17.937,207.389 17.972,207.283 18.019,207.178C18.066,207.073 18.126,206.972 18.2,206.875C18.275,206.778 18.365,206.694 18.47,206.621C18.575,206.548 18.697,206.49 18.835,206.445C18.973,206.401 19.129,206.379 19.304,206.379L22.058,206.379L22.058,207.395L19.304,207.395C19.171,207.395 19.07,207.429 19.001,207.496C18.932,207.564 18.898,207.668 18.898,207.809L18.898,209.176C18.898,209.309 18.933,209.41 19.003,209.48C19.074,209.551 19.177,209.586 19.312,209.586L22.058,209.586L22.058,210.602Z" style="fill-rule:nonzero;"/>
        <path d="M27.859,210.602L26.394,210.602L24.347,208.625C24.232,208.521 24.179,208.391 24.187,208.234C24.192,208.161 24.211,208.093 24.243,208.029C24.276,207.966 24.321,207.912 24.378,207.867L26.234,206.371L27.859,206.371L25.468,208.297L27.859,210.602ZM23.929,210.602L22.913,210.602L22.913,204.594L23.929,204.594L23.929,210.602Z" style="fill-rule:nonzero;"/>
        <path d="M80.213,171.777L78.389,173.77L80.444,176L79.045,176L77.694,174.527L76.342,176L74.94,176L76.991,173.762L75.174,171.777L76.565,171.777L77.686,173L78.815,171.777L80.213,171.777Z" style="fill-rule:nonzero;"/>
        <path d="M85.682,174.574C85.682,174.837 85.634,175.059 85.539,175.24C85.444,175.421 85.326,175.569 85.184,175.682C85.042,175.795 84.888,175.877 84.721,175.926C84.554,175.975 84.399,176 84.256,176L80.998,176L80.998,174.984L84.256,174.984C84.394,174.984 84.496,174.949 84.563,174.879C84.629,174.808 84.662,174.707 84.662,174.574L84.662,173.711L80.998,173.711L80.998,172.688L84.662,172.688L84.662,171.832C84.662,171.553 84.527,171.414 84.256,171.414L80.998,171.414L80.998,170.398L84.256,170.398C84.431,170.398 84.587,170.42 84.725,170.465C84.863,170.509 84.985,170.568 85.09,170.643C85.195,170.717 85.286,170.802 85.362,170.898C85.437,170.995 85.498,171.096 85.545,171.201C85.592,171.306 85.627,171.413 85.649,171.521C85.671,171.63 85.682,171.731 85.682,171.824L85.682,174.574Z" style="fill-rule:nonzero;"/>
        <path d="M91.1,170.398L87.565,176L86.475,176L90.014,170.398L91.1,170.398Z" style="fill-rule:nonzero;"/>
        <path d="M96.397,176.406C96.397,176.581 96.375,176.738 96.33,176.877C96.286,177.016 96.228,177.139 96.155,177.244C96.082,177.349 95.997,177.439 95.901,177.514C95.804,177.588 95.703,177.648 95.598,177.695C95.493,177.742 95.387,177.777 95.28,177.799C95.173,177.821 95.071,177.832 94.975,177.832L93.143,177.832L93.143,176.816L94.975,176.816C95.11,176.816 95.212,176.781 95.28,176.711C95.347,176.64 95.381,176.539 95.381,176.406L95.381,171.777L96.397,171.777L96.397,176.406ZM94.975,176L93.143,176C92.997,176 92.841,175.975 92.676,175.926C92.511,175.877 92.356,175.795 92.213,175.682C92.07,175.569 91.951,175.421 91.858,175.24C91.764,175.059 91.717,174.837 91.717,174.574L91.717,171.777L92.733,171.777L92.733,174.574C92.733,174.707 92.768,174.808 92.838,174.879C92.909,174.949 93.013,174.984 93.151,174.984L94.975,174.984L94.975,176Z" style="fill-rule:nonzero;"/>
        <path d="M103.854,173.656C103.854,173.885 103.825,174.102 103.766,174.307C103.707,174.511 103.625,174.7 103.518,174.875C103.411,175.05 103.285,175.206 103.139,175.344C102.993,175.482 102.833,175.6 102.66,175.697C102.487,175.795 102.303,175.87 102.108,175.922C101.913,175.974 101.713,176 101.51,176L99.678,176C99.472,176 99.271,175.974 99.076,175.922C98.881,175.87 98.697,175.795 98.524,175.697C98.351,175.6 98.191,175.482 98.045,175.344C97.899,175.206 97.773,175.05 97.668,174.875C97.563,174.7 97.481,174.511 97.422,174.307C97.363,174.102 97.334,173.885 97.334,173.656L97.334,172.742C97.334,172.399 97.399,172.084 97.528,171.797C97.657,171.51 97.829,171.264 98.045,171.057C98.261,170.85 98.51,170.688 98.793,170.572C99.076,170.456 99.371,170.398 99.678,170.398L101.51,170.398C101.713,170.398 101.913,170.424 102.108,170.477C102.303,170.529 102.487,170.604 102.66,170.701C102.833,170.799 102.993,170.917 103.139,171.055C103.285,171.193 103.411,171.349 103.518,171.523C103.625,171.698 103.707,171.887 103.766,172.092C103.825,172.296 103.854,172.513 103.854,172.742L103.854,173.656ZM102.83,172.742C102.83,172.541 102.794,172.359 102.721,172.195C102.648,172.031 102.551,171.89 102.43,171.773C102.309,171.656 102.169,171.567 102.01,171.504C101.851,171.441 101.685,171.411 101.51,171.414L99.678,171.414C99.509,171.411 99.344,171.441 99.184,171.502C99.024,171.563 98.882,171.652 98.758,171.768C98.635,171.883 98.536,172.024 98.461,172.189C98.387,172.355 98.35,172.539 98.35,172.742L98.35,173.656C98.35,173.859 98.386,174.043 98.459,174.207C98.532,174.371 98.63,174.511 98.752,174.627C98.875,174.743 99.016,174.832 99.176,174.895C99.336,174.957 99.503,174.987 99.678,174.984L101.51,174.984C101.711,174.984 101.892,174.951 102.055,174.885C102.218,174.818 102.356,174.726 102.471,174.609C102.586,174.492 102.674,174.352 102.737,174.189C102.799,174.026 102.83,173.849 102.83,173.656L102.83,172.742ZM102.389,172C102.428,172.057 102.454,172.119 102.467,172.186C102.48,172.252 102.48,172.317 102.467,172.381C102.454,172.445 102.429,172.505 102.391,172.561C102.353,172.617 102.304,172.664 102.244,172.703L99.502,174.535C99.458,174.569 99.413,174.592 99.366,174.605C99.319,174.618 99.27,174.625 99.221,174.625C99.138,174.625 99.058,174.605 98.983,174.566C98.907,174.527 98.846,174.471 98.799,174.398C98.76,174.341 98.734,174.279 98.721,174.213C98.708,174.146 98.707,174.081 98.719,174.018C98.731,173.954 98.755,173.894 98.791,173.838C98.828,173.782 98.876,173.734 98.936,173.695L101.686,171.863C101.743,171.824 101.805,171.798 101.871,171.785C101.938,171.772 102.003,171.772 102.067,171.785C102.13,171.798 102.19,171.823 102.246,171.859C102.302,171.896 102.35,171.943 102.389,172Z" style="fill-rule:nonzero;"/>
        <path d="M24.369,148.777L22.545,150.77L24.6,153L23.201,153L21.85,151.527L20.498,153L19.096,153L21.146,150.762L19.33,148.777L20.721,148.777L21.842,150L22.971,148.777L24.369,148.777Z" style="fill-rule:nonzero;"/>
        <path d="M30.189,153L25.045,153L25.045,151.121C25.045,151.025 25.056,150.923 25.078,150.814C25.1,150.706 25.135,150.599 25.182,150.492C25.229,150.385 25.289,150.284 25.363,150.188C25.438,150.091 25.528,150.006 25.633,149.932C25.738,149.857 25.86,149.798 25.998,149.754C26.136,149.71 26.292,149.688 26.467,149.688L28.756,149.688C28.894,149.688 28.996,149.653 29.062,149.584C29.129,149.515 29.162,149.414 29.162,149.281L29.162,148.832C29.162,148.694 29.128,148.59 29.061,148.52C28.993,148.449 28.894,148.414 28.764,148.414L25.502,148.414L25.502,147.398L28.764,147.398C28.935,147.398 29.09,147.42 29.229,147.465C29.367,147.509 29.489,147.568 29.594,147.643C29.699,147.717 29.79,147.802 29.865,147.898C29.941,147.995 30.003,148.096 30.051,148.201C30.099,148.306 30.134,148.413 30.156,148.521C30.178,148.63 30.189,148.731 30.189,148.824L30.189,149.281C30.189,149.544 30.142,149.766 30.047,149.947C29.952,150.128 29.832,150.276 29.689,150.389C29.546,150.502 29.392,150.584 29.227,150.635C29.062,150.686 28.907,150.711 28.764,150.711L26.467,150.711C26.384,150.711 26.317,150.723 26.268,150.746C26.218,150.769 26.179,150.801 26.152,150.84C26.125,150.879 26.105,150.923 26.092,150.973C26.079,151.022 26.068,151.072 26.061,151.121L26.061,151.984L30.189,151.984L30.189,153Z" style="fill-rule:nonzero;"/>
        <path d="M35.607,147.398L32.072,153L30.982,153L34.521,147.398L35.607,147.398Z" style="fill-rule:nonzero;"/>
        <path d="M40.904,153.406C40.904,153.581 40.882,153.738 40.838,153.877C40.793,154.016 40.735,154.139 40.662,154.244C40.589,154.349 40.505,154.439 40.408,154.514C40.312,154.588 40.211,154.648 40.105,154.695C40,154.742 39.894,154.777 39.787,154.799C39.68,154.821 39.579,154.832 39.482,154.832L37.65,154.832L37.65,153.816L39.482,153.816C39.618,153.816 39.72,153.781 39.787,153.711C39.855,153.64 39.889,153.539 39.889,153.406L39.889,148.777L40.904,148.777L40.904,153.406ZM39.482,153L37.65,153C37.505,153 37.349,152.975 37.184,152.926C37.019,152.877 36.864,152.795 36.721,152.682C36.578,152.569 36.459,152.421 36.365,152.24C36.272,152.059 36.225,151.837 36.225,151.574L36.225,148.777L37.24,148.777L37.24,151.574C37.24,151.707 37.275,151.808 37.346,151.879C37.416,151.949 37.52,151.984 37.658,151.984L39.482,151.984L39.482,153Z" style="fill-rule:nonzero;"/>
        <path d="M43.611,153L42.592,153L42.592,148.414L41.674,148.414L41.674,147.398L43.611,147.398L43.611,153Z" style="fill-rule:nonzero;"/>
        <path d="M82.869,63.277L81.045,65.27L83.1,67.5L81.701,67.5L80.35,66.027L78.998,67.5L77.596,67.5L79.646,65.262L77.83,63.277L79.221,63.277L80.342,64.5L81.471,63.277L82.869,63.277Z" style="fill-rule:nonzero;"/>
        <path d="M85.346,67.5L84.326,67.5L84.326,62.914L83.408,62.914L83.408,61.898L85.346,61.898L85.346,67.5Z" style="fill-rule:nonzero;"/>
        <path d="M90.924,61.898L87.389,67.5L86.299,67.5L89.838,61.898L90.924,61.898Z" style="fill-rule:nonzero;"/>
        <path d="M96.221,67.906C96.221,68.081 96.199,68.238 96.154,68.377C96.11,68.516 96.052,68.639 95.979,68.744C95.906,68.849 95.821,68.939 95.725,69.014C95.628,69.088 95.527,69.148 95.422,69.195C95.317,69.242 95.211,69.277 95.104,69.299C94.997,69.321 94.895,69.332 94.799,69.332L92.967,69.332L92.967,68.316L94.799,68.316C94.934,68.316 95.036,68.281 95.104,68.211C95.171,68.14 95.205,68.039 95.205,67.906L95.205,63.277L96.221,63.277L96.221,67.906ZM94.799,67.5L92.967,67.5C92.821,67.5 92.665,67.475 92.5,67.426C92.335,67.377 92.18,67.295 92.037,67.182C91.894,67.069 91.775,66.921 91.682,66.74C91.588,66.559 91.541,66.337 91.541,66.074L91.541,63.277L92.557,63.277L92.557,66.074C92.557,66.207 92.592,66.308 92.662,66.379C92.733,66.449 92.837,66.484 92.975,66.484L94.799,66.484L94.799,67.5Z" style="fill-rule:nonzero;"/>
        <path d="M102.271,67.5L97.127,67.5L97.127,65.621C97.127,65.525 97.138,65.423 97.16,65.314C97.182,65.206 97.217,65.099 97.264,64.992C97.311,64.885 97.371,64.784 97.445,64.688C97.52,64.591 97.61,64.506 97.715,64.432C97.82,64.357 97.942,64.298 98.08,64.254C98.218,64.21 98.374,64.188 98.549,64.188L100.838,64.188C100.976,64.188 101.078,64.153 101.145,64.084C101.211,64.015 101.244,63.914 101.244,63.781L101.244,63.332C101.244,63.194 101.21,63.09 101.143,63.02C101.075,62.949 100.976,62.914 100.846,62.914L97.584,62.914L97.584,61.898L100.846,61.898C101.018,61.898 101.173,61.92 101.311,61.965C101.449,62.009 101.571,62.068 101.676,62.143C101.781,62.217 101.872,62.302 101.947,62.398C102.023,62.495 102.085,62.596 102.133,62.701C102.181,62.806 102.216,62.913 102.238,63.021C102.26,63.13 102.271,63.231 102.271,63.324L102.271,63.781C102.271,64.044 102.224,64.266 102.129,64.447C102.034,64.628 101.914,64.776 101.771,64.889C101.628,65.002 101.474,65.084 101.309,65.135C101.144,65.186 100.989,65.211 100.846,65.211L98.549,65.211C98.466,65.211 98.399,65.223 98.35,65.246C98.3,65.269 98.261,65.301 98.234,65.34C98.207,65.379 98.187,65.423 98.174,65.473C98.161,65.522 98.15,65.572 98.143,65.621L98.143,66.484L102.271,66.484L102.271,67.5Z" style="fill-rule:nonzero;"/>
        <path d="M22.801,40.777L20.977,42.77L23.031,45L21.633,45L20.281,43.527L18.93,45L17.527,45L19.578,42.762L17.762,40.777L19.152,40.777L20.273,42L21.402,40.777L22.801,40.777Z" style="fill-rule:nonzero;"/>
        <path d="M30.027,42.656C30.027,42.885 29.998,43.102 29.939,43.307C29.881,43.511 29.798,43.7 29.691,43.875C29.584,44.05 29.458,44.206 29.312,44.344C29.167,44.482 29.007,44.6 28.834,44.697C28.661,44.795 28.476,44.87 28.281,44.922C28.086,44.974 27.887,45 27.684,45L25.852,45C25.646,45 25.445,44.974 25.25,44.922C25.055,44.87 24.87,44.795 24.697,44.697C24.524,44.6 24.365,44.482 24.219,44.344C24.073,44.206 23.947,44.05 23.842,43.875C23.737,43.7 23.655,43.511 23.596,43.307C23.537,43.102 23.508,42.885 23.508,42.656L23.508,41.742C23.508,41.399 23.572,41.084 23.701,40.797C23.83,40.51 24.003,40.264 24.219,40.057C24.435,39.85 24.684,39.688 24.967,39.572C25.25,39.456 25.545,39.398 25.852,39.398L27.684,39.398C27.887,39.398 28.086,39.424 28.281,39.477C28.476,39.529 28.661,39.604 28.834,39.701C29.007,39.799 29.167,39.917 29.312,40.055C29.458,40.193 29.584,40.349 29.691,40.523C29.798,40.698 29.881,40.887 29.939,41.092C29.998,41.296 30.027,41.513 30.027,41.742L30.027,42.656ZM29.004,41.742C29.004,41.541 28.968,41.359 28.895,41.195C28.822,41.031 28.725,40.89 28.604,40.773C28.483,40.656 28.343,40.567 28.184,40.504C28.025,40.441 27.858,40.411 27.684,40.414L25.852,40.414C25.683,40.411 25.518,40.441 25.357,40.502C25.197,40.563 25.055,40.652 24.932,40.768C24.808,40.883 24.709,41.024 24.635,41.189C24.56,41.355 24.523,41.539 24.523,41.742L24.523,42.656C24.523,42.859 24.56,43.043 24.633,43.207C24.706,43.371 24.803,43.511 24.926,43.627C25.048,43.743 25.189,43.832 25.35,43.895C25.51,43.957 25.677,43.987 25.852,43.984L27.684,43.984C27.884,43.984 28.066,43.951 28.229,43.885C28.392,43.818 28.53,43.726 28.645,43.609C28.759,43.492 28.847,43.352 28.91,43.189C28.973,43.026 29.004,42.849 29.004,42.656L29.004,41.742ZM28.562,41C28.601,41.057 28.628,41.119 28.641,41.186C28.654,41.252 28.654,41.317 28.641,41.381C28.628,41.445 28.602,41.505 28.564,41.561C28.527,41.617 28.478,41.664 28.418,41.703L25.676,43.535C25.631,43.569 25.586,43.592 25.539,43.605C25.492,43.618 25.444,43.625 25.395,43.625C25.312,43.625 25.232,43.605 25.156,43.566C25.081,43.527 25.02,43.471 24.973,43.398C24.934,43.341 24.908,43.279 24.895,43.213C24.882,43.146 24.881,43.081 24.893,43.018C24.904,42.954 24.928,42.894 24.965,42.838C25.002,42.782 25.05,42.734 25.109,42.695L27.859,40.863C27.916,40.824 27.978,40.798 28.045,40.785C28.112,40.772 28.177,40.772 28.24,40.785C28.304,40.798 28.364,40.823 28.42,40.859C28.476,40.896 28.523,40.943 28.562,41Z" style="fill-rule:nonzero;"/>
        <path d="M35.258,39.398L31.723,45L30.633,45L34.172,39.398L35.258,39.398Z" style="fill-rule:nonzero;"/>
        <path d="M40.555,45.406C40.555,45.581 40.533,45.738 40.488,45.877C40.444,46.016 40.385,46.139 40.312,46.244C40.239,46.349 40.155,46.439 40.059,46.514C39.962,46.588 39.861,46.648 39.756,46.695C39.651,46.742 39.545,46.777 39.438,46.799C39.331,46.821 39.229,46.832 39.133,46.832L37.301,46.832L37.301,45.816L39.133,45.816C39.268,45.816 39.37,45.781 39.438,45.711C39.505,45.64 39.539,45.539 39.539,45.406L39.539,40.777L40.555,40.777L40.555,45.406ZM39.133,45L37.301,45C37.155,45 36.999,44.975 36.834,44.926C36.669,44.877 36.514,44.795 36.371,44.682C36.228,44.569 36.109,44.421 36.016,44.24C35.922,44.059 35.875,43.837 35.875,43.574L35.875,40.777L36.891,40.777L36.891,43.574C36.891,43.707 36.926,43.808 36.996,43.879C37.067,43.949 37.171,43.984 37.309,43.984L39.133,43.984L39.133,45Z" style="fill-rule:nonzero;"/>
        <path d="M46.254,43.574C46.254,43.837 46.206,44.059 46.111,44.24C46.016,44.421 45.898,44.569 45.756,44.682C45.614,44.795 45.46,44.877 45.293,44.926C45.126,44.975 44.971,45 44.828,45L41.57,45L41.57,43.984L44.828,43.984C44.966,43.984 45.068,43.949 45.135,43.879C45.201,43.808 45.234,43.707 45.234,43.574L45.234,42.711L41.57,42.711L41.57,41.688L45.234,41.688L45.234,40.832C45.234,40.553 45.099,40.414 44.828,40.414L41.57,40.414L41.57,39.398L44.828,39.398C45.003,39.398 45.159,39.42 45.297,39.465C45.435,39.509 45.557,39.568 45.662,39.643C45.767,39.717 45.858,39.802 45.934,39.898C46.009,39.995 46.07,40.096 46.117,40.201C46.164,40.306 46.199,40.413 46.221,40.521C46.243,40.63 46.254,40.731 46.254,40.824L46.254,43.574Z" style="fill-rule:nonzero;"/>
        <path d="M24.811,30.602L23.787,30.602L23.787,28.313L20.178,28.313C20.105,28.313 20.037,28.299 19.975,28.272C19.912,28.245 19.858,28.208 19.812,28.163C19.767,28.117 19.731,28.063 19.705,28C19.679,27.938 19.666,27.872 19.666,27.801L19.666,25L20.682,25L20.682,27.29L23.787,27.29L23.787,25L24.811,25L24.811,30.602Z" style="fill-rule:nonzero;"/>
        <path d="M34.006,28.954C34.006,29.154 33.981,29.334 33.93,29.495C33.879,29.655 33.812,29.796 33.729,29.918C33.646,30.041 33.548,30.145 33.436,30.231C33.324,30.317 33.208,30.387 33.088,30.442C32.968,30.497 32.846,30.537 32.723,30.563C32.599,30.589 32.482,30.602 32.373,30.602L28.455,30.602L28.455,29.586L32.373,29.586C32.568,29.586 32.72,29.529 32.828,29.414C32.936,29.3 32.99,29.147 32.99,28.954C32.99,28.86 32.976,28.774 32.947,28.696C32.918,28.618 32.877,28.55 32.824,28.493C32.771,28.436 32.706,28.391 32.629,28.36C32.552,28.329 32.467,28.313 32.373,28.313L30.037,28.313C29.873,28.313 29.696,28.284 29.506,28.225C29.316,28.166 29.14,28.072 28.977,27.942C28.814,27.812 28.678,27.641 28.57,27.43C28.462,27.219 28.408,26.962 28.408,26.657C28.408,26.352 28.462,26.095 28.57,25.885C28.678,25.676 28.814,25.505 28.977,25.373C29.14,25.242 29.316,25.147 29.506,25.088C29.696,25.029 29.873,25 30.037,25L33.494,25L33.494,26.016L30.037,26.016C29.844,26.016 29.694,26.075 29.586,26.192C29.478,26.309 29.424,26.464 29.424,26.657C29.424,26.852 29.478,27.007 29.586,27.12C29.694,27.233 29.844,27.29 30.037,27.29L32.381,27.29C32.49,27.292 32.606,27.307 32.729,27.334C32.851,27.361 32.973,27.404 33.094,27.461C33.215,27.518 33.33,27.591 33.439,27.678C33.549,27.765 33.646,27.87 33.73,27.993C33.815,28.115 33.882,28.255 33.932,28.414C33.981,28.573 34.006,28.753 34.006,28.954Z" style="fill-rule:nonzero;"/>
        <path d="M38.242,27.395L36.469,27.395L36.469,30.602L35.442,30.602L35.442,27.395L34.121,27.395L34.121,26.379L35.442,26.379L35.442,25L36.469,25L36.469,26.379L38.242,26.379L38.242,27.395Z" style="fill-rule:nonzero;"/>
        <path d="M43.592,27.778C43.592,27.919 43.567,28.07 43.518,28.233C43.468,28.396 43.388,28.547 43.277,28.686C43.166,28.825 43.022,28.942 42.844,29.036C42.665,29.129 42.448,29.176 42.193,29.176L40.361,29.176L40.361,28.211L42.193,28.211C42.331,28.211 42.438,28.169 42.514,28.084C42.589,27.999 42.627,27.895 42.627,27.77C42.627,27.637 42.585,27.533 42.5,27.457C42.415,27.382 42.313,27.344 42.193,27.344L40.361,27.344C40.223,27.344 40.116,27.386 40.041,27.471C39.966,27.556 39.928,27.661 39.928,27.786L39.928,29.204C39.928,29.339 39.97,29.445 40.055,29.52C40.14,29.595 40.244,29.633 40.369,29.633L42.193,29.633L42.193,30.602L40.361,30.602C40.22,30.602 40.069,30.577 39.906,30.528C39.743,30.479 39.592,30.399 39.453,30.288C39.314,30.177 39.197,30.033 39.104,29.854C39.01,29.675 38.963,29.459 38.963,29.204L38.963,27.778C38.963,27.637 38.988,27.486 39.037,27.323C39.086,27.16 39.166,27.009 39.277,26.87C39.388,26.731 39.532,26.614 39.711,26.52C39.89,26.426 40.106,26.379 40.361,26.379L42.193,26.379C42.334,26.379 42.485,26.404 42.648,26.454C42.811,26.503 42.963,26.583 43.102,26.694C43.241,26.805 43.358,26.949 43.451,27.127C43.545,27.306 43.592,27.523 43.592,27.778Z" style="fill-rule:nonzero;"/>
        <path d="M48.932,29.176C48.932,29.351 48.91,29.508 48.865,29.647C48.821,29.786 48.762,29.909 48.689,30.014C48.616,30.119 48.532,30.209 48.436,30.284C48.339,30.358 48.238,30.418 48.133,30.465C48.028,30.512 47.921,30.547 47.814,30.569C47.707,30.591 47.606,30.602 47.51,30.602L45.678,30.602L45.678,29.586L47.51,29.586C47.645,29.586 47.747,29.551 47.814,29.481C47.882,29.41 47.916,29.309 47.916,29.176L47.916,27.809C47.916,27.668 47.881,27.564 47.812,27.497C47.743,27.429 47.643,27.395 47.51,27.395L45.686,27.395C45.548,27.395 45.444,27.429 45.373,27.498C45.303,27.567 45.268,27.668 45.268,27.801L45.268,31.922L44.252,31.922L44.252,27.801C44.252,27.627 44.274,27.471 44.318,27.332C44.363,27.194 44.422,27.072 44.496,26.967C44.57,26.862 44.655,26.772 44.752,26.698C44.848,26.623 44.949,26.563 45.055,26.516C45.16,26.469 45.267,26.435 45.375,26.413C45.483,26.39 45.584,26.379 45.678,26.379L47.51,26.379C47.684,26.379 47.84,26.401 47.979,26.446C48.117,26.49 48.239,26.549 48.344,26.622C48.449,26.695 48.539,26.779 48.613,26.875C48.688,26.972 48.748,27.073 48.795,27.178C48.842,27.283 48.876,27.39 48.898,27.497C48.921,27.604 48.932,27.705 48.932,27.801L48.932,29.176Z" style="fill-rule:nonzero;"/>
        <path d="M57.896,28.954C57.896,29.154 57.871,29.334 57.82,29.495C57.769,29.655 57.702,29.796 57.619,29.918C57.536,30.041 57.438,30.145 57.326,30.231C57.214,30.317 57.098,30.387 56.979,30.442C56.859,30.497 56.737,30.537 56.613,30.563C56.49,30.589 56.373,30.602 56.264,30.602L52.346,30.602L52.346,29.586L56.264,29.586C56.459,29.586 56.611,29.529 56.719,29.414C56.827,29.3 56.881,29.147 56.881,28.954C56.881,28.86 56.867,28.774 56.838,28.696C56.809,28.618 56.768,28.55 56.715,28.493C56.662,28.436 56.597,28.391 56.52,28.36C56.443,28.329 56.357,28.313 56.264,28.313L53.928,28.313C53.764,28.313 53.587,28.284 53.396,28.225C53.206,28.166 53.03,28.072 52.867,27.942C52.704,27.812 52.569,27.641 52.461,27.43C52.353,27.219 52.299,26.962 52.299,26.657C52.299,26.352 52.353,26.095 52.461,25.885C52.569,25.676 52.704,25.505 52.867,25.373C53.03,25.242 53.206,25.147 53.396,25.088C53.587,25.029 53.764,25 53.928,25L57.385,25L57.385,26.016L53.928,26.016C53.735,26.016 53.585,26.075 53.477,26.192C53.368,26.309 53.314,26.464 53.314,26.657C53.314,26.852 53.368,27.007 53.477,27.12C53.585,27.233 53.735,27.29 53.928,27.29L56.271,27.29C56.381,27.292 56.497,27.307 56.619,27.334C56.742,27.361 56.863,27.404 56.984,27.461C57.105,27.518 57.221,27.591 57.33,27.678C57.439,27.765 57.536,27.87 57.621,27.993C57.706,28.115 57.773,28.255 57.822,28.414C57.871,28.573 57.896,28.753 57.896,28.954Z" style="fill-rule:nonzero;"/>
        <path d="M63.17,27.778C63.17,27.919 63.145,28.07 63.096,28.233C63.046,28.396 62.966,28.547 62.855,28.686C62.744,28.825 62.6,28.942 62.422,29.036C62.243,29.129 62.026,29.176 61.771,29.176L59.939,29.176L59.939,28.211L61.771,28.211C61.91,28.211 62.017,28.169 62.092,28.084C62.167,27.999 62.205,27.895 62.205,27.77C62.205,27.637 62.163,27.533 62.078,27.457C61.993,27.382 61.891,27.344 61.771,27.344L59.939,27.344C59.801,27.344 59.694,27.386 59.619,27.471C59.544,27.556 59.506,27.661 59.506,27.786L59.506,29.204C59.506,29.339 59.548,29.445 59.633,29.52C59.718,29.595 59.822,29.633 59.947,29.633L61.771,29.633L61.771,30.602L59.939,30.602C59.799,30.602 59.647,30.577 59.484,30.528C59.321,30.479 59.17,30.399 59.031,30.288C58.892,30.177 58.775,30.033 58.682,29.854C58.588,29.675 58.541,29.459 58.541,29.204L58.541,27.778C58.541,27.637 58.566,27.486 58.615,27.323C58.664,27.16 58.744,27.009 58.855,26.87C58.966,26.731 59.11,26.614 59.289,26.52C59.468,26.426 59.684,26.379 59.939,26.379L61.771,26.379C61.912,26.379 62.064,26.404 62.227,26.454C62.39,26.503 62.541,26.583 62.68,26.694C62.819,26.805 62.936,26.949 63.029,27.127C63.123,27.306 63.17,27.523 63.17,27.778Z" style="fill-rule:nonzero;"/>
        <path d="M68.447,31.922L67.432,31.922L67.432,27.801C67.432,27.668 67.398,27.567 67.33,27.498C67.263,27.429 67.16,27.395 67.021,27.395L65.189,27.395C65.064,27.395 64.966,27.433 64.893,27.51C64.82,27.587 64.783,27.684 64.783,27.801L64.783,29.176C64.783,29.309 64.818,29.41 64.889,29.481C64.959,29.551 65.062,29.586 65.197,29.586L67.021,29.586L67.021,30.602L65.189,30.602C65.049,30.602 64.896,30.577 64.729,30.528C64.562,30.479 64.408,30.397 64.266,30.284C64.124,30.171 64.005,30.023 63.91,29.842C63.815,29.661 63.768,29.439 63.768,29.176L63.768,27.801C63.768,27.705 63.779,27.604 63.801,27.497C63.823,27.39 63.857,27.283 63.904,27.178C63.951,27.073 64.012,26.972 64.086,26.875C64.16,26.779 64.25,26.695 64.355,26.622C64.461,26.549 64.583,26.49 64.721,26.446C64.859,26.401 65.015,26.379 65.189,26.379L67.021,26.379C67.118,26.379 67.22,26.39 67.328,26.413C67.436,26.435 67.543,26.469 67.648,26.516C67.754,26.563 67.855,26.623 67.951,26.698C68.048,26.772 68.132,26.862 68.205,26.967C68.278,27.072 68.336,27.194 68.381,27.332C68.425,27.471 68.447,27.627 68.447,27.801L68.447,31.922Z" style="fill-rule:nonzero;"/>
        <path d="M73.994,30.09C73.994,30.163 73.981,30.231 73.955,30.293C73.929,30.356 73.893,30.41 73.848,30.456C73.802,30.501 73.748,30.537 73.687,30.563C73.626,30.589 73.561,30.602 73.49,30.602L71.193,30.602C71.068,30.602 70.935,30.588 70.793,30.559C70.651,30.53 70.511,30.484 70.373,30.42C70.235,30.357 70.102,30.276 69.973,30.178C69.844,30.081 69.731,29.962 69.635,29.823C69.538,29.684 69.461,29.523 69.402,29.34C69.343,29.158 69.314,28.952 69.314,28.723L69.314,26.379L70.33,26.379L70.33,28.723C70.33,28.856 70.353,28.975 70.398,29.081C70.444,29.186 70.506,29.277 70.584,29.352C70.662,29.427 70.754,29.485 70.859,29.526C70.965,29.566 71.079,29.586 71.201,29.586L72.979,29.586L72.979,26.379L73.994,26.379L73.994,30.09Z" style="fill-rule:nonzero;"/>
        <path d="M79.49,27.778C79.49,27.919 79.465,28.07 79.416,28.233C79.367,28.396 79.287,28.547 79.176,28.686C79.065,28.825 78.921,28.942 78.742,29.036C78.564,29.129 78.347,29.176 78.092,29.176L76.26,29.176L76.26,28.211L78.092,28.211C78.23,28.211 78.337,28.169 78.412,28.084C78.487,27.999 78.525,27.895 78.525,27.77C78.525,27.637 78.483,27.533 78.398,27.457C78.313,27.382 78.211,27.344 78.092,27.344L76.26,27.344C76.122,27.344 76.015,27.386 75.939,27.471C75.864,27.556 75.826,27.661 75.826,27.786L75.826,29.204C75.826,29.339 75.868,29.445 75.953,29.52C76.038,29.595 76.143,29.633 76.268,29.633L78.092,29.633L78.092,30.602L76.26,30.602C76.119,30.602 75.968,30.577 75.805,30.528C75.642,30.479 75.491,30.399 75.352,30.288C75.213,30.177 75.096,30.033 75.002,29.854C74.908,29.675 74.861,29.459 74.861,29.204L74.861,27.778C74.861,27.637 74.886,27.486 74.936,27.323C74.985,27.16 75.065,27.009 75.176,26.87C75.287,26.731 75.431,26.614 75.609,26.52C75.788,26.426 76.005,26.379 76.26,26.379L78.092,26.379C78.233,26.379 78.384,26.404 78.547,26.454C78.71,26.503 78.861,26.583 79,26.694C79.139,26.805 79.256,26.949 79.35,27.127C79.443,27.306 79.49,27.523 79.49,27.778Z" style="fill-rule:nonzero;"/>
        <path d="M84.854,30.602L83.838,30.602L83.838,28.258C83.838,28.125 83.815,28.006 83.77,27.901C83.724,27.796 83.662,27.705 83.584,27.629C83.506,27.554 83.414,27.496 83.309,27.456C83.203,27.415 83.089,27.395 82.967,27.395L81.189,27.395L81.189,30.602L80.174,30.602L80.174,26.883C80.174,26.813 80.187,26.747 80.213,26.686C80.239,26.625 80.275,26.571 80.322,26.526C80.369,26.48 80.424,26.444 80.486,26.418C80.549,26.392 80.615,26.379 80.686,26.379L82.975,26.379C83.102,26.379 83.237,26.393 83.379,26.422C83.521,26.451 83.662,26.497 83.801,26.561C83.94,26.625 84.073,26.706 84.199,26.803C84.326,26.901 84.438,27.02 84.535,27.159C84.633,27.298 84.711,27.459 84.768,27.641C84.825,27.823 84.854,28.029 84.854,28.258L84.854,30.602Z" style="fill-rule:nonzero;"/>
        <path d="M89.834,30.602L87.08,30.602C86.939,30.602 86.786,30.577 86.619,30.528C86.452,30.479 86.298,30.397 86.156,30.284C86.014,30.171 85.896,30.023 85.801,29.842C85.706,29.661 85.658,29.439 85.658,29.176L85.658,27.801C85.658,27.705 85.669,27.604 85.691,27.497C85.714,27.39 85.748,27.283 85.795,27.178C85.842,27.073 85.902,26.972 85.977,26.875C86.051,26.779 86.141,26.695 86.246,26.622C86.351,26.549 86.473,26.49 86.611,26.446C86.749,26.401 86.905,26.379 87.08,26.379L89.834,26.379L89.834,27.395L87.08,27.395C86.947,27.395 86.846,27.429 86.777,27.497C86.708,27.564 86.674,27.668 86.674,27.809L86.674,29.176C86.674,29.309 86.709,29.41 86.779,29.481C86.85,29.551 86.953,29.586 87.088,29.586L89.834,29.586L89.834,30.602Z" style="fill-rule:nonzero;"/>
        <path d="M95.186,27.778C95.186,27.919 95.161,28.07 95.111,28.233C95.062,28.396 94.982,28.547 94.871,28.686C94.76,28.825 94.616,28.942 94.437,29.036C94.259,29.129 94.042,29.176 93.787,29.176L91.955,29.176L91.955,28.211L93.787,28.211C93.925,28.211 94.032,28.169 94.107,28.084C94.183,27.999 94.221,27.895 94.221,27.77C94.221,27.637 94.179,27.533 94.094,27.457C94.009,27.382 93.907,27.344 93.787,27.344L91.955,27.344C91.817,27.344 91.71,27.386 91.635,27.471C91.559,27.556 91.521,27.661 91.521,27.786L91.521,29.204C91.521,29.339 91.563,29.445 91.648,29.52C91.733,29.595 91.838,29.633 91.963,29.633L93.787,29.633L93.787,30.602L91.955,30.602C91.814,30.602 91.663,30.577 91.5,30.528C91.337,30.479 91.186,30.399 91.047,30.288C90.908,30.177 90.791,30.033 90.697,29.854C90.604,29.675 90.557,29.459 90.557,29.204L90.557,27.778C90.557,27.637 90.582,27.486 90.631,27.323C90.68,27.16 90.76,27.009 90.871,26.87C90.982,26.731 91.126,26.614 91.305,26.52C91.483,26.426 91.7,26.379 91.955,26.379L93.787,26.379C93.928,26.379 94.079,26.404 94.242,26.454C94.405,26.503 94.556,26.583 94.695,26.694C94.834,26.805 94.951,26.949 95.045,27.127C95.139,27.306 95.186,27.523 95.186,27.778Z" style="fill-rule:nonzero;"/>
        <path d="M99.564,27.395L97.279,27.395C97.141,27.395 97.037,27.429 96.967,27.498C96.896,27.567 96.861,27.668 96.861,27.801L96.861,30.602L95.846,30.602L95.846,27.801C95.846,27.627 95.868,27.471 95.912,27.332C95.957,27.194 96.016,27.072 96.09,26.967C96.164,26.862 96.249,26.772 96.346,26.698C96.442,26.623 96.543,26.563 96.648,26.516C96.754,26.469 96.861,26.435 96.969,26.413C97.077,26.39 97.178,26.379 97.271,26.379L99.564,26.379L99.564,27.395Z" style="fill-rule:nonzero;"/>
        <path d="M55.298,366.35C55.298,366.459 55.277,366.561 55.236,366.654C55.195,366.748 55.141,366.829 55.072,366.897C55.004,366.966 54.923,367.02 54.829,367.059C54.735,367.098 54.635,367.117 54.53,367.117C54.437,367.117 54.342,367.099 54.246,367.064C54.151,367.029 54.066,366.973 53.991,366.895L48.425,361.082L48.425,367L46.901,367L46.901,359.248C46.901,359.092 46.945,358.95 47.033,358.823C47.121,358.696 47.233,358.602 47.37,358.539C47.515,358.48 47.663,358.466 47.815,358.495C47.968,358.524 48.099,358.596 48.208,358.709L53.774,364.516L53.774,358.598L55.298,358.598L55.298,366.35Z" style="fill-rule:nonzero;"/>
        <path d="M64.784,367L57.835,367C57.726,367 57.624,366.98 57.53,366.941C57.437,366.902 57.356,366.849 57.287,366.78C57.219,366.712 57.165,366.631 57.126,366.537C57.087,366.443 57.067,366.341 57.067,366.232L57.067,358.598L58.591,358.598L58.591,365.477L64.784,365.477L64.784,367Z" style="fill-rule:nonzero;"/>
        <path d="M73.427,367L67.931,367C67.79,367 67.639,366.983 67.477,366.95C67.314,366.917 67.154,366.865 66.996,366.795C66.838,366.724 66.687,366.633 66.542,366.522C66.397,366.411 66.269,366.276 66.158,366.118C66.047,365.96 65.958,365.776 65.892,365.567C65.825,365.358 65.792,365.123 65.792,364.861L65.792,360.736C65.792,360.595 65.809,360.444 65.842,360.282C65.875,360.12 65.927,359.96 65.997,359.802C66.068,359.643 66.159,359.492 66.272,359.348C66.385,359.203 66.521,359.075 66.68,358.964C66.838,358.853 67.021,358.764 67.228,358.697C67.435,358.631 67.669,358.598 67.931,358.598L73.427,358.598L73.427,360.121L67.931,360.121C67.732,360.121 67.579,360.174 67.474,360.279C67.368,360.385 67.315,360.541 67.315,360.748L67.315,364.861C67.315,365.056 67.369,365.208 67.477,365.315C67.584,365.423 67.736,365.477 67.931,365.477L73.427,365.477L73.427,367Z" style="fill-rule:nonzero;"/>
        <path d="M77,359L114,359" style="fill:none;fill-rule:nonzero;stroke:#007ba9;stroke-width:1px;stroke-linejoin:miter;"/>
        <path d="M6,359L43,359" style="fill:none;fill-rule:nonzero;stroke:#00799a;stroke-width:1px;stroke-linejoin:miter;"/>
        <path d="M82,21L114,21" style="fill:none;fill-rule:nonzero;stroke:#00799a;stroke-width:1px;stroke-linejoin:miter;"/>
        <path d="M6,21L37,21" style="fill:none;fill-rule:nonzero;stroke:#00799a;stroke-width:1px;stroke-linejoin:miter;"/>
        <path d="M49.392,21L47.856,21L47.856,17.566L42.442,17.566C42.333,17.566 42.231,17.546 42.138,17.505C42.044,17.464 41.963,17.409 41.895,17.341C41.826,17.272 41.772,17.191 41.733,17.098C41.694,17.004 41.675,16.904 41.675,16.799L41.675,12.598L43.198,12.598L43.198,16.031L47.856,16.031L47.856,12.598L49.392,12.598L49.392,21Z" style="fill-rule:nonzero;"/>
        <path d="M59.282,18.527C59.282,18.828 59.244,19.099 59.168,19.339C59.092,19.579 58.991,19.791 58.866,19.975C58.741,20.158 58.595,20.314 58.427,20.443C58.259,20.572 58.085,20.678 57.905,20.76C57.726,20.842 57.543,20.902 57.357,20.941C57.172,20.98 56.997,21 56.833,21L50.956,21L50.956,19.477L56.833,19.477C57.126,19.477 57.353,19.391 57.516,19.219C57.678,19.047 57.759,18.816 57.759,18.527C57.759,18.386 57.737,18.258 57.694,18.141C57.651,18.024 57.59,17.922 57.51,17.836C57.43,17.75 57.332,17.684 57.217,17.637C57.102,17.59 56.974,17.566 56.833,17.566L53.329,17.566C53.083,17.566 52.817,17.522 52.532,17.435C52.247,17.347 51.982,17.205 51.738,17.01C51.494,16.815 51.291,16.559 51.129,16.242C50.967,15.926 50.886,15.539 50.886,15.082C50.886,14.625 50.967,14.239 51.129,13.925C51.291,13.61 51.494,13.354 51.738,13.157C51.982,12.96 52.247,12.817 52.532,12.729C52.817,12.642 53.083,12.598 53.329,12.598L58.515,12.598L58.515,14.121L53.329,14.121C53.04,14.121 52.815,14.209 52.652,14.385C52.49,14.56 52.409,14.793 52.409,15.082C52.409,15.375 52.49,15.606 52.652,15.776C52.815,15.946 53.04,16.031 53.329,16.031L56.845,16.031C57.009,16.035 57.183,16.058 57.366,16.099C57.55,16.14 57.733,16.203 57.914,16.289C58.096,16.375 58.269,16.483 58.433,16.614C58.597,16.745 58.742,16.903 58.869,17.086C58.996,17.269 59.097,17.48 59.171,17.719C59.245,17.957 59.282,18.226 59.282,18.527Z" style="fill-rule:nonzero;"/>
        <path d="M67.456,17.566L62.646,17.566L62.646,16.031L67.456,16.031L67.456,17.566ZM68.142,21L62.646,21C62.435,21 62.204,20.963 61.954,20.889C61.704,20.814 61.473,20.692 61.26,20.522C61.047,20.353 60.869,20.132 60.727,19.86C60.584,19.589 60.513,19.256 60.513,18.861L60.513,13.365C60.513,13.26 60.532,13.16 60.571,13.066C60.61,12.973 60.664,12.891 60.732,12.82C60.801,12.75 60.882,12.695 60.976,12.656C61.069,12.617 61.171,12.598 61.28,12.598L68.142,12.598L68.142,14.121L62.036,14.121L62.036,18.861C62.036,19.06 62.089,19.213 62.194,19.318C62.3,19.424 62.454,19.477 62.657,19.477L68.142,19.477L68.142,21Z" style="fill-rule:nonzero;"/>
        <path d="M78.337,17.602C78.337,17.993 78.285,18.361 78.182,18.706C78.078,19.052 77.931,19.365 77.742,19.646C77.553,19.927 77.324,20.174 77.057,20.385C76.789,20.596 76.491,20.762 76.163,20.883L77.944,22.295L75.735,22.295L74.271,21.117L72.771,21.117C72.267,21.117 71.8,21.03 71.37,20.856C70.941,20.683 70.57,20.44 70.257,20.127C69.944,19.814 69.699,19.443 69.521,19.014C69.344,18.584 69.255,18.113 69.255,17.602L69.255,15.996C69.255,15.488 69.344,15.018 69.521,14.587C69.699,14.155 69.944,13.784 70.257,13.474C70.57,13.163 70.941,12.92 71.37,12.744C71.8,12.568 72.267,12.48 72.771,12.48L74.833,12.48C75.337,12.48 75.803,12.568 76.23,12.744C76.658,12.92 77.028,13.163 77.341,13.474C77.654,13.784 77.898,14.155 78.073,14.587C78.249,15.018 78.337,15.488 78.337,15.996L78.337,17.602ZM76.813,15.996C76.813,15.695 76.765,15.423 76.67,15.179C76.574,14.934 76.439,14.725 76.266,14.552C76.092,14.378 75.883,14.243 75.639,14.147C75.394,14.052 75.126,14.004 74.833,14.004L72.771,14.004C72.474,14.004 72.203,14.052 71.959,14.147C71.715,14.243 71.505,14.378 71.329,14.552C71.153,14.725 71.017,14.934 70.922,15.179C70.826,15.423 70.778,15.695 70.778,15.996L70.778,17.602C70.778,17.903 70.826,18.175 70.922,18.419C71.017,18.663 71.153,18.872 71.329,19.046C71.505,19.22 71.715,19.355 71.959,19.45C72.203,19.546 72.474,19.594 72.771,19.594L74.821,19.594C75.118,19.594 75.389,19.546 75.633,19.45C75.877,19.355 76.087,19.22 76.263,19.046C76.438,18.872 76.574,18.663 76.67,18.419C76.765,18.175 76.813,17.903 76.813,17.602L76.813,15.996Z" style="fill-rule:nonzero;"/>
    </g>
</svg>
