<?xml version="1.0" encoding="utf-8"?>
<!-- Generator: Adobe Illustrator 24.0.0, SVG Export Plug-In . SVG Version: 6.00 Build 0)  -->
<svg xmlns="http://www.w3.org/2000/svg" xmlns:xlink="http://www.w3.org/1999/xlink" version="1.1" id="Layer_2" x="0px" y="0px" viewBox="0 0 115.2 364.25" style="enable-background:new 0 0 115.2 364.25;" xml:space="preserve">
<style type="text/css">
	.st0{fill:#E6E5E5;}
	.st1{fill:none;stroke:#2C7896;stroke-width:0.75;stroke-linecap:round;stroke-miterlimit:10;}
	.st2{fill:#1B1B19;}
	.st3{fill:none;}
	.st4{fill:none;stroke:#2394B0;stroke-width:0.75;stroke-linecap:round;stroke-miterlimit:10;}
	.st5{fill:#2394B0;}
	.st6{fill:#AE076A;}
	.st7{fill:none;stroke:#AE076A;stroke-width:0.75;stroke-linecap:round;stroke-miterlimit:10;}
</style>
<rect y="0" class="st0" width="115.2" height="364.25"/>
<g>
	<path class="st1" d="M45.26,79.88c5.71,2.39,7.4,29.69,12.34,49.62"/>
	<path class="st1" d="M42.61,83.15c2.03,4.75,7.65,5.94,8.81,13.42"/>
	<path class="st1" d="M47.79,74.1c3.82,4.86,0.59,10.49,2.05,15.09"/>
	<path class="st1" d="M48.48,68.99c6.32,0,3.02,26.58,4.15,34.38"/>
</g>
<g>
	<path class="st1" d="M69.34,79.88c-5.71,2.39-6.8,29.69-11.74,49.62c0,0,10.12,56.11,43.34,104.58"/>
	<path class="st1" d="M71.99,83.15c-2.03,4.75-7.65,7.57-8.81,15.05"/>
	<path class="st1" d="M66.81,74.1c-3.82,4.86-0.25,9.69-1.71,14.29"/>
	<path class="st1" d="M66.12,68.99c-6.32,0-2.84,27.91-3.98,35.71"/>
</g>
<g>
	<path class="st2" d="M72.86,15.22c0.05-0.49-0.13-0.95-0.47-1.3l-2.88-2.95c-0.56-0.56-0.83-1.33-0.76-2.11   c0.05-0.79,0.45-1.49,1.08-1.98c0.63-0.49,1.42-0.67,2.2-0.5S73.44,7,73.85,7.7c0.16,0.27,0.07,0.63-0.22,0.79   C73.36,8.65,73,8.54,72.86,8.27c-0.23-0.41-0.59-0.67-1.06-0.76c-0.47-0.09-0.9,0-1.28,0.29c-0.38,0.27-0.58,0.65-0.61,1.13   c-0.04,0.47,0.11,0.88,0.43,1.22l2.88,2.97c0.56,0.58,0.85,1.37,0.79,2.18c-0.07,0.81-0.47,1.55-1.12,2.03   c-0.65,0.49-1.48,0.68-2.27,0.52s-1.48-0.65-1.89-1.35c-0.14-0.29-0.05-0.63,0.22-0.79c0.27-0.16,0.63-0.07,0.79,0.22   c0.23,0.41,0.63,0.7,1.12,0.79c0.49,0.09,0.94,0,1.33-0.31C72.61,16.12,72.82,15.73,72.86,15.22z"/>
	<path class="st2" d="M75.79,15.48v-3.46c0-1.3,1.04-2.34,2.34-2.34h1.8c0.29,0,0.54,0.23,0.54,0.54v10.73   c0,0.31-0.25,0.54-0.54,0.54c-0.31,0-0.54-0.23-0.54-0.54v-3.13h-1.26C76.84,17.82,75.79,16.77,75.79,15.48z M76.87,12.02v3.46   c0,0.7,0.56,1.26,1.26,1.26h1.26v-5.98h-1.26C77.43,10.76,76.87,11.32,76.87,12.02z"/>
	<path class="st2" d="M82.85,15.48v-5.33c0-0.31,0.23-0.54,0.54-0.54c0.31,0,0.54,0.23,0.54,0.54v5.33c0,0.7,0.56,1.26,1.26,1.26   h1.26v-6.59c0-0.31,0.23-0.54,0.54-0.54c0.31,0,0.54,0.23,0.54,0.54v7.13c0,0.31-0.23,0.54-0.54,0.54h-1.8   C83.89,17.82,82.85,16.77,82.85,15.48z"/>
	<path class="st2" d="M89.87,7.45c0-0.41,0.31-0.72,0.72-0.72s0.72,0.31,0.72,0.72S91,8.17,90.59,8.17S89.87,7.86,89.87,7.45z    M90.59,17.89c-0.29,0-0.54-0.23-0.54-0.54v-7.2c0-0.31,0.25-0.54,0.54-0.54c0.31,0,0.54,0.23,0.54,0.54v7.2   C91.13,17.65,90.89,17.89,90.59,17.89z"/>
	<path class="st2" d="M93.43,15.48v-3.46c0-1.3,1.04-2.34,2.34-2.34h1.26V6.55c0-0.31,0.23-0.54,0.54-0.54   c0.29,0,0.54,0.23,0.54,0.54v10.73c0,0.31-0.25,0.54-0.54,0.54h-1.8C94.48,17.82,93.43,16.77,93.43,15.48z M94.51,12.02v3.46   c0,0.7,0.56,1.26,1.26,1.26h1.26v-5.98h-1.26C95.07,10.76,94.51,11.32,94.51,12.02z"/>
	<path class="st2" d="M76.5,31.91c-0.31,0.09-0.61-0.09-0.7-0.4c-0.05-0.18-0.11-0.38-0.16-0.59c-0.13-0.38-0.25-0.88-0.41-1.51   h-3.49c-0.2,0.63-0.29,1.13-0.41,1.51c-0.05,0.22-0.11,0.41-0.16,0.59c-0.09,0.31-0.38,0.49-0.72,0.4c-0.31-0.09-0.49-0.4-0.4-0.7   l2.88-10.44c0.07-0.27,0.29-0.43,0.56-0.43c0.27,0,0.49,0.16,0.56,0.43l2.88,10.44C77,31.51,76.84,31.82,76.5,31.91z M73.47,23.07   c-0.38,1.3-0.94,3.4-1.42,5.19h2.84C74.41,26.47,73.81,24.36,73.47,23.07z"/>
	<path class="st2" d="M78.11,31.1l1.87-3.42l-1.8-3.26c-0.14-0.27-0.05-0.59,0.22-0.74c0.27-0.14,0.59-0.05,0.74,0.22l1.46,2.67   l1.48-2.67c0.14-0.27,0.47-0.36,0.74-0.22c0.27,0.14,0.36,0.47,0.22,0.74l-1.8,3.26l1.87,3.42c0.14,0.27,0.05,0.58-0.22,0.72   c-0.27,0.14-0.59,0.07-0.74-0.2l-1.55-2.81l-1.53,2.81c-0.14,0.27-0.47,0.34-0.74,0.2C78.06,31.67,77.97,31.37,78.11,31.1z"/>
	<path class="st2" d="M84.88,29.55v-3.6c0-1.3,1.04-2.34,2.34-2.34c1.28,0,2.34,1.04,2.34,2.34v3.6c0,1.3-1.06,2.34-2.34,2.34   C85.93,31.89,84.88,30.84,84.88,29.55z M85.96,25.95v3.6c0,0.7,0.56,1.26,1.26,1.26s1.26-0.56,1.26-1.26v-3.6   c0-0.7-0.56-1.26-1.26-1.26S85.96,25.24,85.96,25.95z"/>
	<path class="st2" d="M91.87,31.35v-7.13c0-0.31,0.23-0.54,0.54-0.54h1.8c1.28,0,2.34,1.04,2.34,2.34v10.33   c0,0.31-0.25,0.54-0.54,0.54c-0.31,0-0.54-0.23-0.54-0.54V26.02c0-0.7-0.56-1.26-1.26-1.26h-1.26v6.59c0,0.31-0.25,0.54-0.54,0.54   C92.1,31.89,91.87,31.65,91.87,31.35z"/>
</g>
<g>
	<g>
		<path class="st3" d="M54.4,68.99c0,14.34-11.62,25.96-25.96,25.96S2.47,83.33,2.47,68.99S14.1,43.03,28.44,43.03    S54.4,54.65,54.4,68.99z"/>
		<path class="st4" d="M38.44,51.62c6,3.46,10.04,9.95,10.04,17.37c0,7.32-3.92,13.72-9.77,17.22"/>
		<path class="st4" d="M18.41,86.35c-5.99-3.47-10.02-9.94-10.02-17.36c0-7.33,3.93-13.73,9.8-17.23"/>
	</g>
	<circle class="st5" cx="8.39" cy="68.99" r="1.09"/>
	<path class="st5" d="M49.57,68.99c0,0.6-0.49,1.09-1.09,1.09c-0.6,0-1.09-0.49-1.09-1.09c0-0.6,0.49-1.09,1.09-1.09   C49.09,67.9,49.57,68.39,49.57,68.99z"/>
</g>
<g>
	<g>
		<path class="st3" d="M112.2,68.99c0,14.34-11.62,25.96-25.96,25.96S60.27,83.33,60.27,68.99S71.9,43.03,86.24,43.03    S112.2,54.65,112.2,68.99z"/>
		<path class="st4" d="M96.24,51.62c6,3.46,10.04,9.95,10.04,17.37c0,7.32-3.92,13.72-9.77,17.22"/>
		<path class="st4" d="M76.21,86.35c-5.99-3.47-10.02-9.94-10.02-17.36c0-7.33,3.93-13.73,9.8-17.23"/>
	</g>
	<circle class="st5" cx="66.19" cy="68.99" r="1.09"/>
	<path class="st5" d="M107.37,68.99c0,0.6-0.49,1.09-1.09,1.09c-0.6,0-1.09-0.49-1.09-1.09c0-0.6,0.49-1.09,1.09-1.09   C106.89,67.9,107.37,68.39,107.37,68.99z"/>
</g>
<path class="st6" d="M91.88,7.43c0,0.67-0.54,1.21-1.21,1.21c-0.67,0-1.21-0.54-1.21-1.21S90,6.22,90.67,6.22  C91.34,6.22,91.88,6.76,91.88,7.43z"/>
<path class="st6" d="M97.18,36.65c0,0.67-0.54,1.21-1.21,1.21c-0.67,0-1.21-0.54-1.21-1.21c0-0.67,0.54-1.21,1.21-1.21  C96.64,35.44,97.18,35.99,97.18,36.65z"/>
<path class="st6" d="M69.81,15.33c0,0.67-0.54,1.21-1.21,1.21c-0.67,0-1.21-0.54-1.21-1.21c0-0.67,0.54-1.21,1.21-1.21  C69.26,14.11,69.81,14.66,69.81,15.33z"/>
<g>
	<path class="st2" d="M25.99,46.12c-0.2-0.4-0.38-0.8-0.57-1.18c-0.32-0.65-0.7-1.46-0.96-2v3.08c0,0.13-0.09,0.22-0.22,0.22   s-0.22-0.09-0.22-0.22v-4.06c0-0.1,0.07-0.2,0.17-0.22s0.2,0.03,0.25,0.12c0.19,0.4,0.38,0.8,0.57,1.18c0.32,0.65,0.71,1.46,0.97,2   v-3.08c0-0.13,0.09-0.22,0.22-0.22c0.13,0,0.22,0.09,0.22,0.22v4.06c0,0.11-0.07,0.2-0.17,0.22   C26.14,46.27,26.04,46.21,25.99,46.12z"/>
	<path class="st2" d="M27.29,45.18V42.8c0-0.59,0.48-1.06,1.06-1.06c0.59,0,1.06,0.48,1.06,1.06v2.38c0,0.59-0.48,1.06-1.06,1.06   C27.77,46.25,27.29,45.77,27.29,45.18z M27.74,42.8v2.38c0,0.34,0.27,0.62,0.62,0.62c0.34,0,0.62-0.27,0.62-0.62V42.8   c0-0.34-0.28-0.62-0.62-0.62C28.01,42.19,27.74,42.47,27.74,42.8z"/>
	<path class="st2" d="M32.27,46.12c-0.2-0.4-0.38-0.8-0.57-1.18c-0.31-0.65-0.7-1.46-0.96-2v3.08c0,0.13-0.09,0.22-0.22,0.22   s-0.22-0.09-0.22-0.22v-4.06c0-0.1,0.07-0.2,0.17-0.22s0.2,0.03,0.25,0.12c0.19,0.4,0.38,0.8,0.57,1.18c0.32,0.65,0.71,1.46,0.97,2   v-3.08c0-0.13,0.09-0.22,0.22-0.22c0.13,0,0.22,0.09,0.22,0.22v4.06c0,0.11-0.07,0.2-0.17,0.22   C32.41,46.27,32.32,46.21,32.27,46.12z"/>
	<path class="st2" d="M20.98,53v-4.03c0-0.13,0.09-0.22,0.22-0.22c0.12,0,0.22,0.09,0.22,0.22v3.81h1.18c0.12,0,0.22,0.09,0.22,0.22   s-0.11,0.22-0.22,0.22h-1.4C21.07,53.22,20.98,53.13,20.98,53z"/>
	<path class="st2" d="M23.41,53.02v-4.06c0-0.13,0.1-0.22,0.22-0.22c0.13,0,0.22,0.09,0.22,0.22v4.06c0,0.13-0.09,0.22-0.22,0.22   C23.52,53.25,23.41,53.16,23.41,53.02z"/>
	<path class="st2" d="M26.79,53.12c-0.2-0.4-0.38-0.8-0.57-1.18c-0.32-0.65-0.7-1.46-0.96-2v3.08c0,0.13-0.09,0.22-0.22,0.22   s-0.22-0.09-0.22-0.22v-4.06c0-0.1,0.07-0.2,0.17-0.22s0.2,0.03,0.25,0.12c0.19,0.4,0.38,0.8,0.57,1.18c0.32,0.65,0.71,1.46,0.97,2   v-3.08c0-0.13,0.09-0.22,0.22-0.22c0.13,0,0.22,0.09,0.22,0.22v4.06c0,0.11-0.07,0.2-0.17,0.22   C26.94,53.27,26.84,53.21,26.79,53.12z"/>
	<path class="st2" d="M28.4,48.77h1.4c0.13,0,0.22,0.09,0.22,0.22c0,0.13-0.09,0.22-0.22,0.22h-1.18v1.48h1.04   c0.13,0,0.22,0.09,0.22,0.22c0,0.13-0.09,0.22-0.22,0.22h-1.04v1.62h1.18c0.13,0,0.22,0.09,0.22,0.22s-0.09,0.22-0.22,0.22h-1.4   c-0.13,0-0.22-0.09-0.22-0.22v-4.01C28.17,48.86,28.26,48.77,28.4,48.77z"/>
	<path class="st2" d="M32.96,53.24c-0.12,0.04-0.24-0.04-0.27-0.15c-0.02-0.07-0.04-0.15-0.06-0.23c-0.05-0.15-0.1-0.34-0.16-0.59   h-1.36c-0.08,0.25-0.11,0.44-0.16,0.59c-0.02,0.08-0.04,0.16-0.06,0.23c-0.04,0.12-0.15,0.19-0.28,0.15   c-0.12-0.04-0.19-0.15-0.15-0.27l1.12-4.06c0.03-0.1,0.11-0.17,0.22-0.17c0.11,0,0.19,0.06,0.22,0.17l1.12,4.06   C33.16,53.09,33.09,53.21,32.96,53.24z M31.79,49.8c-0.15,0.5-0.36,1.32-0.55,2.02h1.11C32.15,51.13,31.92,50.31,31.79,49.8z"/>
	<path class="st2" d="M35.24,51.21l0.64,1.74c0.05,0.11-0.01,0.24-0.13,0.29c-0.11,0.05-0.24-0.01-0.29-0.13l-0.67-1.81h-0.57v1.74   c0,0.13-0.09,0.22-0.22,0.22c-0.12,0-0.22-0.09-0.22-0.22v-4.03c0-0.13,0.1-0.22,0.22-0.22h0.84c0.59,0,1.06,0.48,1.06,1.06v0.39   C35.9,50.67,35.64,51.05,35.24,51.21z M35.45,50.22v-0.39c0-0.34-0.27-0.62-0.62-0.62h-0.62v1.62h0.62   C35.18,50.84,35.45,50.57,35.45,50.22z"/>
</g>
<g>
	<path class="st2" d="M82.88,53.02v-4.06c0-0.13,0.1-0.22,0.22-0.22c0.13,0,0.22,0.09,0.22,0.22v4.06c0,0.13-0.09,0.22-0.22,0.22   C82.98,53.25,82.88,53.16,82.88,53.02z"/>
	<path class="st2" d="M86.26,53.12c-0.2-0.4-0.38-0.8-0.57-1.18c-0.32-0.65-0.7-1.46-0.96-2v3.08c0,0.13-0.09,0.22-0.22,0.22   s-0.22-0.09-0.22-0.22v-4.06c0-0.1,0.07-0.2,0.17-0.22s0.2,0.03,0.25,0.12c0.19,0.4,0.38,0.8,0.57,1.18c0.32,0.65,0.71,1.46,0.97,2   v-3.08c0-0.13,0.09-0.22,0.22-0.22c0.13,0,0.22,0.09,0.22,0.22v4.06c0,0.11-0.07,0.2-0.17,0.22   C86.41,53.27,86.31,53.21,86.26,53.12z"/>
	<path class="st2" d="M89.05,52.18v-0.42c0-0.34-0.28-0.62-0.62-0.62c-0.13,0-0.22-0.09-0.22-0.22c0-0.13,0.09-0.22,0.22-0.22   c0.34,0,0.62-0.27,0.62-0.62V49.8c0-0.28-0.18-0.52-0.46-0.6c-0.27-0.08-0.55,0.04-0.69,0.29c-0.06,0.1-0.2,0.15-0.31,0.08   c-0.11-0.06-0.15-0.2-0.08-0.31c0.25-0.41,0.73-0.63,1.2-0.5c0.48,0.13,0.79,0.55,0.79,1.03v0.28c0,0.34-0.16,0.64-0.41,0.84   c0.25,0.2,0.41,0.5,0.41,0.84v0.42c0,0.48-0.31,0.9-0.79,1.03c-0.46,0.13-0.96-0.08-1.2-0.5c-0.06-0.1-0.02-0.25,0.08-0.31   c0.1-0.06,0.25-0.02,0.31,0.08c0.14,0.25,0.42,0.36,0.69,0.29C88.87,52.7,89.05,52.46,89.05,52.18z"/>
</g>
<g>
	<path class="st2" d="M23.1,88.96v-4.01c0-0.13,0.1-0.22,0.22-0.22h1.4c0.13,0,0.22,0.09,0.22,0.22c0,0.13-0.09,0.22-0.22,0.22   h-1.18v1.48h1.04c0.13,0,0.22,0.09,0.22,0.22c0,0.13-0.09,0.22-0.22,0.22h-1.04v1.85c0,0.13-0.09,0.22-0.22,0.22   C23.2,89.19,23.1,89.1,23.1,88.96z"/>
	<path class="st2" d="M27.75,85.8v2.33c0,0.59-0.48,1.06-1.06,1.06h-0.84c-0.13,0-0.22-0.09-0.22-0.22v-4.01   c0-0.13,0.09-0.22,0.22-0.22h0.84C27.27,84.73,27.75,85.21,27.75,85.8z M26.68,85.18h-0.62v3.56h0.62c0.34,0,0.62-0.27,0.62-0.62   V85.8C27.3,85.46,27.03,85.18,26.68,85.18z"/>
	<path class="st2" d="M28.84,84.73h0.84c0.59,0,1.06,0.48,1.06,1.06v0.25c0,0.34-0.16,0.64-0.41,0.84c0.25,0.2,0.41,0.5,0.41,0.84   v0.39c0,0.59-0.48,1.06-1.06,1.06h-0.84c-0.13,0-0.22-0.09-0.22-0.22v-4.01C28.62,84.82,28.71,84.73,28.84,84.73z M29.68,85.18   h-0.62v1.48h0.62c0.34,0,0.62-0.27,0.62-0.62V85.8C30.3,85.46,30.02,85.18,29.68,85.18z M29.68,87.11h-0.62v1.62h0.62   c0.34,0,0.62-0.27,0.62-0.62v-0.39C30.3,87.4,30.02,87.11,29.68,87.11z"/>
	<path class="st2" d="M33.75,89.19c-0.11,0.06-0.25,0.01-0.29-0.1l-1.01-2.08l-0.39,0.55v1.44c0,0.13-0.09,0.22-0.22,0.22   c-0.12,0-0.22-0.09-0.22-0.22v-4.06c0-0.13,0.1-0.22,0.22-0.22c0.13,0,0.22,0.09,0.22,0.22v1.86l1.41-1.99   c0.08-0.1,0.21-0.13,0.32-0.05c0.11,0.08,0.13,0.21,0.05,0.32l-1.08,1.53l1.11,2.3C33.92,89.01,33.87,89.14,33.75,89.19z"/>
</g>
<g>
	<path class="st2" d="M80.98,88.96v-4.01c0-0.13,0.1-0.22,0.22-0.22h1.4c0.13,0,0.22,0.09,0.22,0.22c0,0.13-0.09,0.22-0.22,0.22   h-1.18v1.48h1.04c0.13,0,0.22,0.09,0.22,0.22c0,0.13-0.09,0.22-0.22,0.22h-1.04v1.85c0,0.13-0.09,0.22-0.22,0.22   C81.09,89.19,80.98,89.1,80.98,88.96z"/>
	<path class="st2" d="M85.63,85.8v2.33c0,0.59-0.48,1.06-1.06,1.06h-0.84c-0.13,0-0.22-0.09-0.22-0.22v-4.01   c0-0.13,0.09-0.22,0.22-0.22h0.84C85.16,84.73,85.63,85.21,85.63,85.8z M84.57,85.18h-0.62v3.56h0.62c0.34,0,0.62-0.27,0.62-0.62   V85.8C85.18,85.46,84.91,85.18,84.57,85.18z"/>
	<path class="st2" d="M86.72,84.73h0.84c0.59,0,1.06,0.48,1.06,1.06v0.25c0,0.34-0.16,0.64-0.41,0.84c0.25,0.2,0.41,0.5,0.41,0.84   v0.39c0,0.59-0.48,1.06-1.06,1.06h-0.84c-0.13,0-0.22-0.09-0.22-0.22v-4.01C86.5,84.82,86.59,84.73,86.72,84.73z M87.56,85.18   h-0.62v1.48h0.62c0.34,0,0.62-0.27,0.62-0.62V85.8C88.18,85.46,87.9,85.18,87.56,85.18z M87.56,87.11h-0.62v1.62h0.62   c0.34,0,0.62-0.27,0.62-0.62v-0.39C88.18,87.4,87.9,87.11,87.56,87.11z"/>
	<path class="st2" d="M91.64,89.19c-0.11,0.06-0.25,0.01-0.29-0.1l-1.01-2.08l-0.39,0.55v1.44c0,0.13-0.09,0.22-0.22,0.22   c-0.12,0-0.22-0.09-0.22-0.22v-4.06c0-0.13,0.1-0.22,0.22-0.22c0.13,0,0.22,0.09,0.22,0.22v1.86l1.41-1.99   c0.08-0.1,0.21-0.13,0.32-0.05c0.11,0.08,0.13,0.21,0.05,0.32l-1.08,1.53l1.11,2.3C91.8,89.01,91.75,89.14,91.64,89.19z"/>
</g>
<g>
	<path class="st1" d="M20.87,289.21c3.35-2.03,5.6-5.7,5.6-9.91c0-6.4-5.19-11.59-11.59-11.59s-11.59,5.19-11.59,11.59   c0,4.21,2.25,7.88,5.6,9.91"/>
</g>
<g>
	<path class="st1" d="M49.43,289.31c3.35-2.03,5.6-5.7,5.6-9.91c0-6.4-5.19-11.59-11.59-11.59S31.85,273,31.85,279.4   c0,4.21,2.25,7.88,5.6,9.91"/>
	<circle class="st3" cx="43.44" cy="279.4" r="14"/>
</g>
<g>
	<path class="st1" d="M78.11,289.31c3.35-2.03,5.6-5.7,5.6-9.91c0-6.4-5.19-11.59-11.59-11.59c-6.4,0-11.59,5.19-11.59,11.59   c0,4.21,2.25,7.88,5.6,9.91"/>
	<circle class="st3" cx="72.12" cy="279.4" r="14"/>
</g>
<g>
	<path class="st1" d="M106.55,289.31c3.35-2.03,5.6-5.7,5.6-9.91c0-6.4-5.19-11.59-11.59-11.59c-6.4,0-11.59,5.19-11.59,11.59   c0,4.21,2.25,7.88,5.6,9.91"/>
	<circle class="st3" cx="100.56" cy="279.4" r="14"/>
</g>
<g>
	<path class="st7" d="M31.85,278.1"/>
	<path class="st7" d="M26.47,280.72"/>
	<path class="st1" d="M26.47,278.08"/>
	<path class="st1" d="M31.85,280.7c-0.81,0.1-1.65-0.16-2.27-0.78l-1.05-1.05c-0.56-0.56-1.31-0.83-2.05-0.8"/>
	<path class="st1" d="M31.85,280.7"/>
	<path class="st7" d="M26.47,280.72c0.74,0.03,1.49-0.23,2.05-0.8l1.05-1.05c0.62-0.62,1.47-0.88,2.27-0.78"/>
</g>
<g>
	<path class="st7" d="M60.39,278.1"/>
	<path class="st7" d="M55.01,280.72"/>
	<path class="st1" d="M55.01,278.08"/>
	<path class="st1" d="M60.39,280.7c-0.81,0.1-1.65-0.16-2.27-0.78l-1.05-1.05c-0.56-0.56-1.31-0.83-2.05-0.8"/>
	<path class="st1" d="M60.39,280.7"/>
	<path class="st7" d="M55.01,280.72c0.74,0.03,1.49-0.23,2.05-0.8l1.05-1.05c0.62-0.62,1.47-0.88,2.27-0.78"/>
</g>
<g>
	<path class="st7" d="M89.02,278.1"/>
	<path class="st7" d="M83.64,280.72"/>
	<path class="st1" d="M83.64,278.08"/>
	<path class="st1" d="M89.02,280.7c-0.81,0.1-1.65-0.16-2.27-0.78l-1.05-1.05c-0.56-0.56-1.31-0.83-2.05-0.8"/>
	<path class="st1" d="M89.02,280.7"/>
	<path class="st7" d="M83.64,280.72c0.74,0.03,1.49-0.23,2.05-0.8l1.05-1.05c0.62-0.62,1.47-0.88,2.27-0.78"/>
</g>
<g>
	<path class="st2" d="M66.35,346.96c-0.22-0.46-0.44-0.91-0.66-1.35c-0.36-0.74-0.8-1.66-1.09-2.28v3.52c0,0.15-0.1,0.26-0.26,0.26   c-0.15,0-0.26-0.1-0.26-0.26v-4.64c0-0.12,0.08-0.22,0.2-0.25c0.12-0.02,0.23,0.03,0.29,0.14c0.22,0.46,0.43,0.91,0.65,1.35   c0.36,0.74,0.81,1.66,1.1,2.28v-3.52c0-0.15,0.1-0.26,0.26-0.26c0.15,0,0.26,0.1,0.26,0.26v4.64c0,0.12-0.08,0.22-0.2,0.25   C66.52,347.13,66.41,347.06,66.35,346.96z"/>
	<path class="st2" d="M67.85,346.05v-1.6c0-0.58,0.46-1.04,1.04-1.04c0.57,0,1.04,0.46,1.04,1.04v1.6c0,0.58-0.47,1.04-1.04,1.04   C68.31,347.09,67.85,346.62,67.85,346.05z M68.33,344.45v1.6c0,0.31,0.25,0.56,0.56,0.56c0.31,0,0.56-0.25,0.56-0.56v-1.6   c0-0.31-0.25-0.56-0.56-0.56C68.58,343.89,68.33,344.13,68.33,344.45z"/>
	<path class="st2" d="M70.95,346.85v-3.17c0-0.14,0.1-0.24,0.24-0.24h0.8c0.57,0,1.04,0.46,1.04,1.04v2.37   c0,0.14-0.11,0.24-0.24,0.24c-0.14,0-0.24-0.1-0.24-0.24v-2.37c0-0.31-0.25-0.56-0.56-0.56h-0.56v2.93c0,0.14-0.11,0.24-0.24,0.24   C71.06,347.09,70.95,346.98,70.95,346.85z"/>
	<path class="st2" d="M74.06,346.29v-4.25c0-0.14,0.11-0.24,0.24-0.24c0.14,0,0.24,0.1,0.24,0.24v4.25c0,0.15,0.08,0.27,0.2,0.34   c0.12,0.06,0.16,0.21,0.09,0.33c-0.06,0.12-0.21,0.15-0.33,0.09C74.24,346.89,74.06,346.61,74.06,346.29z"/>
	<path class="st2" d="M75.61,342.45c0-0.18,0.14-0.32,0.32-0.32c0.18,0,0.32,0.14,0.32,0.32c0,0.18-0.14,0.32-0.32,0.32   C75.74,342.77,75.61,342.63,75.61,342.45z M75.93,347.09c-0.13,0-0.24-0.1-0.24-0.24v-3.2c0-0.14,0.11-0.24,0.24-0.24   c0.14,0,0.24,0.1,0.24,0.24v3.2C76.17,346.98,76.06,347.09,75.93,347.09z"/>
	<path class="st2" d="M77.29,346.85v-3.17c0-0.14,0.1-0.24,0.24-0.24h0.8c0.57,0,1.04,0.46,1.04,1.04v2.37   c0,0.14-0.11,0.24-0.24,0.24c-0.14,0-0.24-0.1-0.24-0.24v-2.37c0-0.31-0.25-0.56-0.56-0.56h-0.56v2.93c0,0.14-0.11,0.24-0.24,0.24   C77.39,347.09,77.29,346.98,77.29,346.85z"/>
	<path class="st2" d="M80.33,346.05v-1.6c0-0.58,0.46-1.04,1.04-1.04c0.58,0,1.04,0.46,1.04,1.04v0.8c0,0.14-0.1,0.24-0.24,0.24   h-1.36v0.56c0,0.22,0.13,0.43,0.34,0.52s0.45,0.04,0.61-0.12c0.05-0.05,0.1-0.07,0.17-0.07c0.07,0,0.13,0.02,0.18,0.07   c0.05,0.04,0.07,0.1,0.07,0.17c0,0.06-0.02,0.12-0.07,0.17c-0.3,0.3-0.74,0.38-1.14,0.22C80.58,346.85,80.33,346.47,80.33,346.05z    M80.81,344.45v0.56h1.12v-0.56c0-0.31-0.25-0.56-0.56-0.56C81.05,343.89,80.81,344.13,80.81,344.45z"/>
	<path class="st2" d="M84.65,344.43c0-0.22-0.14-0.42-0.34-0.5c-0.22-0.09-0.44-0.04-0.59,0.12c-0.05,0.05-0.1,0.07-0.18,0.07   c-0.06,0-0.12-0.02-0.17-0.07s-0.07-0.1-0.07-0.17c0-0.07,0.02-0.13,0.07-0.17c0.3-0.3,0.74-0.38,1.12-0.22s0.63,0.53,0.63,0.94   v2.38c0,0.14-0.11,0.24-0.24,0.24h-0.8c-0.58,0-1.04-0.46-1.04-1.04c0-0.58,0.46-1.04,1.04-1.04h0.56V344.43z M84.09,346.57h0.56   v-1.12h-0.56c-0.31,0-0.56,0.25-0.56,0.56C83.53,346.33,83.78,346.57,84.09,346.57z"/>
	<path class="st2" d="M86.18,346.85v-3.17c0-0.14,0.1-0.24,0.24-0.24h0.8c0.18,0,0.35,0.05,0.52,0.14c0.12,0.07,0.15,0.21,0.09,0.33   c-0.06,0.12-0.21,0.16-0.33,0.09c-0.09-0.05-0.18-0.07-0.28-0.07h-0.56v2.93c0,0.14-0.1,0.24-0.24,0.24S86.18,346.98,86.18,346.85z   "/>
	<path class="st2" d="M88.4,346.05v-1.6c0-0.42,0.25-0.8,0.64-0.96s0.82-0.07,1.14,0.22c0.04,0.05,0.06,0.1,0.06,0.18   c0,0.06-0.02,0.12-0.06,0.17c-0.05,0.04-0.1,0.06-0.18,0.06c-0.06,0-0.12-0.02-0.17-0.06c-0.16-0.17-0.39-0.22-0.61-0.13   s-0.34,0.3-0.34,0.52v1.6c0,0.22,0.13,0.43,0.34,0.52s0.45,0.04,0.61-0.12c0.05-0.05,0.1-0.07,0.17-0.07   c0.07,0,0.13,0.02,0.18,0.07c0.04,0.04,0.06,0.1,0.06,0.17c0,0.06-0.02,0.12-0.06,0.17c-0.31,0.3-0.74,0.38-1.14,0.22   C88.65,346.85,88.4,346.47,88.4,346.05z"/>
	<path class="st2" d="M91.04,342.45c0-0.18,0.14-0.32,0.32-0.32c0.18,0,0.32,0.14,0.32,0.32c0,0.18-0.14,0.32-0.32,0.32   C91.17,342.77,91.04,342.63,91.04,342.45z M91.36,347.09c-0.13,0-0.24-0.1-0.24-0.24v-3.2c0-0.14,0.11-0.24,0.24-0.24   c0.14,0,0.24,0.1,0.24,0.24v3.2C91.6,346.98,91.49,347.09,91.36,347.09z"/>
	<path class="st2" d="M92.72,346.85v-3.17c0-0.14,0.1-0.24,0.24-0.24h0.8c0.18,0,0.35,0.05,0.52,0.14c0.12,0.07,0.15,0.21,0.09,0.33   c-0.06,0.12-0.21,0.16-0.33,0.09c-0.09-0.05-0.18-0.07-0.28-0.07H93.2v2.93c0,0.14-0.1,0.24-0.24,0.24S92.72,346.98,92.72,346.85z"/>
	<path class="st2" d="M94.93,346.05v-1.6c0-0.42,0.25-0.8,0.64-0.96s0.82-0.07,1.14,0.22c0.04,0.05,0.06,0.1,0.06,0.18   c0,0.06-0.02,0.12-0.06,0.17c-0.05,0.04-0.1,0.06-0.18,0.06c-0.06,0-0.12-0.02-0.17-0.06c-0.16-0.17-0.39-0.22-0.61-0.13   s-0.34,0.3-0.34,0.52v1.6c0,0.22,0.13,0.43,0.34,0.52s0.45,0.04,0.61-0.12c0.05-0.05,0.1-0.07,0.17-0.07   c0.07,0,0.13,0.02,0.18,0.07c0.04,0.04,0.06,0.1,0.06,0.17c0,0.06-0.02,0.12-0.06,0.17c-0.31,0.3-0.74,0.38-1.14,0.22   C95.18,346.85,94.93,346.47,94.93,346.05z"/>
	<path class="st2" d="M97.59,346.01v-2.37c0-0.14,0.1-0.24,0.24-0.24s0.24,0.1,0.24,0.24v2.37c0,0.31,0.25,0.56,0.56,0.56h0.56   v-2.93c0-0.14,0.1-0.24,0.24-0.24s0.24,0.1,0.24,0.24v3.17c0,0.14-0.1,0.24-0.24,0.24h-0.8C98.05,347.05,97.59,346.59,97.59,346.01   z"/>
	<path class="st2" d="M100.71,342.45c0-0.18,0.14-0.32,0.32-0.32c0.18,0,0.32,0.14,0.32,0.32c0,0.18-0.14,0.32-0.32,0.32   C100.85,342.77,100.71,342.63,100.71,342.45z M101.03,347.09c-0.13,0-0.24-0.1-0.24-0.24v-3.2c0-0.14,0.11-0.24,0.24-0.24   c0.14,0,0.24,0.1,0.24,0.24v3.2C101.27,346.98,101.17,347.09,101.03,347.09z"/>
	<path class="st2" d="M102.04,343.68c0-0.14,0.1-0.24,0.24-0.24h0.4v-1.39c0-0.14,0.1-0.24,0.24-0.24c0.14,0,0.24,0.1,0.24,0.24   v1.39h0.56c0.14,0,0.24,0.1,0.24,0.24c0,0.14-0.1,0.24-0.24,0.24h-0.56v2.13c0,0.31,0.25,0.56,0.56,0.56c0.14,0,0.24,0.1,0.24,0.24   s-0.1,0.24-0.24,0.24c-0.58,0-1.04-0.46-1.04-1.04v-2.13h-0.4C102.14,343.92,102.04,343.82,102.04,343.68z"/>
	<path class="st2" d="M105.97,346.06c-0.01-0.16-0.08-0.29-0.22-0.38l-0.74-0.53c-0.25-0.17-0.38-0.43-0.41-0.72   c-0.02-0.3,0.1-0.58,0.31-0.77c0.22-0.2,0.5-0.29,0.79-0.25c0.29,0.06,0.54,0.22,0.69,0.47c0.06,0.12,0.03,0.26-0.09,0.33   c-0.12,0.06-0.26,0.03-0.33-0.09c-0.07-0.13-0.19-0.21-0.34-0.23c-0.15-0.02-0.29,0.02-0.4,0.12c-0.11,0.1-0.16,0.23-0.15,0.38   c0.01,0.15,0.08,0.27,0.21,0.36l0.74,0.52c0.25,0.18,0.39,0.44,0.42,0.75c0.02,0.31-0.1,0.59-0.32,0.79   c-0.22,0.22-0.52,0.3-0.82,0.26c-0.31-0.06-0.56-0.22-0.71-0.49c-0.06-0.12-0.03-0.26,0.09-0.33c0.12-0.06,0.26-0.03,0.33,0.09   c0.09,0.14,0.21,0.22,0.37,0.25c0.15,0.02,0.3-0.02,0.42-0.13C105.93,346.36,105.99,346.22,105.97,346.06z"/>
</g>
<g>
	<path class="st7" d="M35.28,234.09c0.58,0,1.16,0.27,1.6,0.8l0.87,1.05c0.44,0.53,1.02,0.8,1.61,0.8"/>
	<path class="st7" d="M27.4,234.11c0.49,0.07,0.95,0.33,1.32,0.78l0.88,1.05c0.49,0.6,1.16,0.86,1.81,0.79"/>
	<path class="st7" d="M18.87,234.09c0.61-0.03,1.23,0.24,1.69,0.8l0.87,1.05c0.42,0.5,0.95,0.77,1.5,0.8"/>
	<path class="st1" d="M14.88,234.09"/>
	<path class="st1" d="M43.44,236.74c-0.58,0-1.16-0.27-1.6-0.8l-0.87-1.05c-0.88-1.07-2.32-1.07-3.21,0l-0.87,1.05   c-0.88,1.07-2.33,1.07-3.21,0l-0.87-1.05c-0.88-1.07-2.33-1.07-3.21,0l-0.88,1.05c-0.89,1.07-2.33,1.07-3.21,0l-0.87-1.05   c-0.88-1.07-2.33-1.07-3.21,0l-0.87,1.05c-0.88,1.07-2.32,1.07-3.21,0l-0.87-1.05c-0.44-0.53-1.02-0.8-1.6-0.8"/>
	<path class="st7" d="M39.36,236.74c0.58,0,1.16-0.27,1.6-0.8l0.87-1.05c0.44-0.53,1.02-0.8,1.6-0.8"/>
	<path class="st7" d="M31.41,236.73c0.51-0.06,1.01-0.32,1.4-0.79l0.87-1.05c0.44-0.53,1.02-0.8,1.6-0.8"/>
	<path class="st7" d="M22.94,236.74c0.62,0.03,1.24-0.23,1.7-0.8l0.87-1.05c0.51-0.62,1.22-0.88,1.89-0.78"/>
	<path class="st7" d="M14.88,236.74c0.58,0,1.16-0.27,1.6-0.8l0.87-1.05c0.42-0.5,0.96-0.77,1.51-0.8"/>
</g>
<g>
	<path class="st7" d="M64.12,236.68c0.58,0,1.16-0.27,1.6-0.8l0.87-1.05c0.44-0.53,1.02-0.8,1.61-0.8"/>
	<path class="st7" d="M56.24,236.66c0.49-0.07,0.95-0.33,1.32-0.78l0.88-1.05c0.49-0.6,1.16-0.86,1.81-0.79"/>
	<path class="st7" d="M47.7,236.68c0.61,0.03,1.23-0.24,1.69-0.8l0.87-1.05c0.42-0.5,0.95-0.77,1.5-0.8"/>
	<path class="st1" d="M43.72,236.68"/>
	<path class="st1" d="M72.27,234.03c-0.58,0-1.16,0.27-1.6,0.8l-0.87,1.05c-0.88,1.07-2.32,1.07-3.21,0l-0.87-1.05   c-0.88-1.07-2.33-1.07-3.21,0l-0.87,1.05c-0.88,1.07-2.33,1.07-3.21,0l-0.88-1.05c-0.89-1.07-2.33-1.07-3.21,0l-0.87,1.05   c-0.88,1.07-2.33,1.07-3.21,0l-0.87-1.05c-0.88-1.07-2.32-1.07-3.21,0l-0.87,1.05c-0.44,0.53-1.02,0.8-1.6,0.8"/>
	<path class="st7" d="M68.2,234.03c0.58,0,1.16,0.27,1.6,0.8l0.87,1.05c0.44,0.53,1.02,0.8,1.6,0.8"/>
	<path class="st7" d="M60.25,234.04c0.51,0.06,1.01,0.32,1.4,0.79l0.87,1.05c0.44,0.53,1.02,0.8,1.6,0.8"/>
	<path class="st7" d="M51.77,234.03c0.62-0.03,1.24,0.23,1.7,0.8l0.87,1.05c0.51,0.62,1.22,0.88,1.89,0.78"/>
	<path class="st7" d="M43.72,234.03c0.58,0,1.16,0.27,1.6,0.8l0.87,1.05c0.42,0.5,0.96,0.77,1.51,0.8"/>
</g>
<g>
	<path class="st7" d="M92.78,234.09c0.58,0,1.16,0.27,1.6,0.8l0.87,1.05c0.44,0.53,1.02,0.8,1.61,0.8"/>
	<path class="st7" d="M84.9,234.11c0.49,0.07,0.95,0.33,1.32,0.78l0.88,1.05c0.49,0.6,1.16,0.86,1.81,0.79"/>
	<path class="st7" d="M76.37,234.09c0.61-0.03,1.23,0.24,1.69,0.8l0.87,1.05c0.42,0.5,0.95,0.77,1.5,0.8"/>
	<path class="st1" d="M72.38,234.09"/>
	<path class="st1" d="M100.94,236.74c-0.58,0-1.16-0.27-1.6-0.8l-0.87-1.05c-0.88-1.07-2.32-1.07-3.21,0l-0.87,1.05   c-0.88,1.07-2.33,1.07-3.21,0l-0.87-1.05c-0.88-1.07-2.33-1.07-3.21,0l-0.88,1.05c-0.89,1.07-2.33,1.07-3.21,0l-0.87-1.05   c-0.88-1.07-2.33-1.07-3.21,0l-0.87,1.05c-0.88,1.07-2.32,1.07-3.21,0l-0.87-1.05c-0.44-0.53-1.02-0.8-1.6-0.8"/>
	<path class="st7" d="M96.86,236.74c0.58,0,1.16-0.27,1.6-0.8l0.87-1.05c0.44-0.53,1.02-0.8,1.6-0.8"/>
	<path class="st7" d="M88.91,236.73c0.51-0.06,1.01-0.32,1.4-0.79l0.87-1.05c0.44-0.53,1.02-0.8,1.6-0.8"/>
	<path class="st7" d="M80.44,236.74c0.62,0.03,1.24-0.23,1.7-0.8l0.87-1.05c0.51-0.62,1.22-0.88,1.89-0.78"/>
	<path class="st7" d="M72.38,236.74c0.58,0,1.16-0.27,1.6-0.8l0.87-1.05c0.42-0.5,0.96-0.77,1.51-0.8"/>
</g>
<g>
	<path class="st2" d="M8.37,219.99v-2.38c0-0.48,0.31-0.9,0.79-1.03c0.47-0.13,0.95,0.08,1.2,0.5c0.06,0.1,0.02,0.25-0.08,0.31   c-0.1,0.06-0.25,0.02-0.31-0.08c-0.14-0.25-0.42-0.36-0.69-0.29s-0.46,0.31-0.46,0.6v2.38c0,0.28,0.18,0.52,0.46,0.6   c0.27,0.08,0.55-0.04,0.69-0.29c0.06-0.1,0.2-0.14,0.31-0.08c0.11,0.06,0.14,0.2,0.08,0.31c-0.24,0.42-0.74,0.62-1.2,0.5   C8.69,220.89,8.37,220.48,8.37,219.99z"/>
	<path class="st2" d="M11.15,220.81v-4.03c0-0.13,0.09-0.22,0.22-0.22c0.12,0,0.22,0.09,0.22,0.22v3.81h1.18   c0.12,0,0.22,0.09,0.22,0.22s-0.11,0.22-0.22,0.22h-1.4C11.24,221.03,11.15,220.94,11.15,220.81z"/>
	<path class="st2" d="M13.5,219.99v-2.38c0-0.59,0.48-1.06,1.06-1.06c0.59,0,1.06,0.48,1.06,1.06v2.38c0,0.59-0.48,1.06-1.06,1.06   C13.98,221.06,13.5,220.58,13.5,219.99z M13.95,217.61v2.38c0,0.34,0.27,0.62,0.62,0.62c0.34,0,0.62-0.27,0.62-0.62v-2.38   c0-0.34-0.28-0.62-0.62-0.62C14.22,217,13.95,217.28,13.95,217.61z"/>
	<path class="st2" d="M16.42,219.99v-2.38c0-0.48,0.31-0.9,0.79-1.03c0.47-0.13,0.95,0.08,1.2,0.5c0.06,0.1,0.02,0.25-0.08,0.31   c-0.1,0.06-0.25,0.02-0.31-0.08c-0.14-0.25-0.42-0.36-0.69-0.29s-0.46,0.31-0.46,0.6v2.38c0,0.28,0.18,0.52,0.46,0.6   c0.27,0.08,0.55-0.04,0.69-0.29c0.06-0.1,0.2-0.14,0.31-0.08c0.11,0.06,0.14,0.2,0.08,0.31c-0.24,0.42-0.74,0.62-1.2,0.5   C16.73,220.89,16.42,220.48,16.42,219.99z"/>
	<path class="st2" d="M21.34,221.04c-0.11,0.06-0.25,0.01-0.29-0.1l-1.01-2.08l-0.39,0.55v1.44c0,0.13-0.09,0.22-0.22,0.22   c-0.12,0-0.22-0.09-0.22-0.22v-4.06c0-0.13,0.1-0.22,0.22-0.22c0.13,0,0.22,0.09,0.22,0.22v1.86l1.41-1.99   c0.08-0.1,0.21-0.13,0.32-0.05c0.11,0.08,0.13,0.21,0.05,0.32l-1.08,1.53l1.11,2.3C21.5,220.85,21.45,220.98,21.34,221.04z"/>
</g>
<g>
	<path class="st2" d="M40.08,220.83v-4.06c0-0.13,0.1-0.22,0.22-0.22c0.13,0,0.22,0.09,0.22,0.22v4.06c0,0.13-0.09,0.22-0.22,0.22   C40.19,221.06,40.08,220.97,40.08,220.83z"/>
	<path class="st2" d="M43.46,220.93c-0.2-0.4-0.38-0.8-0.57-1.18c-0.32-0.65-0.7-1.46-0.96-2v3.08c0,0.13-0.09,0.22-0.22,0.22   s-0.22-0.09-0.22-0.22v-4.06c0-0.1,0.07-0.2,0.17-0.22s0.2,0.03,0.25,0.12c0.19,0.4,0.38,0.8,0.57,1.18c0.32,0.65,0.71,1.46,0.97,2   v-3.08c0-0.13,0.09-0.22,0.22-0.22c0.13,0,0.22,0.09,0.22,0.22v4.06c0,0.11-0.07,0.2-0.17,0.22   C43.61,221.08,43.51,221.02,43.46,220.93z"/>
	<path class="st2" d="M45.15,217.84c-0.06,0-0.11-0.02-0.16-0.06c-0.04-0.05-0.06-0.1-0.06-0.16s0.02-0.11,0.06-0.16l0.84-0.84   c0.06-0.06,0.16-0.08,0.25-0.05c0.09,0.03,0.14,0.1,0.14,0.21v4.06c0,0.13-0.1,0.22-0.22,0.22c-0.13,0-0.22-0.09-0.22-0.22v-3.52   l-0.46,0.46C45.26,217.82,45.21,217.84,45.15,217.84z"/>
</g>
<g>
	<path class="st2" d="M68.76,220.83v-4.06c0-0.13,0.1-0.22,0.22-0.22c0.13,0,0.22,0.09,0.22,0.22v4.06c0,0.13-0.09,0.22-0.22,0.22   C68.87,221.06,68.76,220.97,68.76,220.83z"/>
	<path class="st2" d="M72.14,220.93c-0.2-0.4-0.38-0.8-0.57-1.18c-0.32-0.65-0.7-1.46-0.96-2v3.08c0,0.13-0.09,0.22-0.22,0.22   s-0.22-0.09-0.22-0.22v-4.06c0-0.1,0.07-0.2,0.17-0.22s0.2,0.03,0.25,0.12c0.19,0.4,0.38,0.8,0.57,1.18c0.32,0.65,0.71,1.46,0.97,2   v-3.08c0-0.13,0.09-0.22,0.22-0.22c0.13,0,0.22,0.09,0.22,0.22v4.06c0,0.11-0.07,0.2-0.17,0.22   C72.29,221.08,72.19,221.02,72.14,220.93z"/>
	<path class="st2" d="M73.49,217.08c0.15-0.26,0.36-0.42,0.64-0.49c0.27-0.08,0.55-0.04,0.8,0.09c0.25,0.13,0.43,0.35,0.5,0.62   c0.08,0.27,0.06,0.55-0.08,0.81c-0.2,0.37-0.38,0.71-0.55,1.04c-0.29,0.56-0.62,1.18-0.75,1.43h1.2c0.12,0,0.22,0.09,0.22,0.22   s-0.11,0.22-0.22,0.22h-1.57c-0.09,0-0.15-0.04-0.19-0.1c-0.05-0.08-0.05-0.15-0.01-0.22l1.47-2.8c0.08-0.15,0.09-0.3,0.04-0.46   s-0.15-0.29-0.29-0.36s-0.3-0.1-0.46-0.06c-0.16,0.05-0.29,0.15-0.36,0.29c-0.06,0.1-0.2,0.15-0.31,0.08S73.43,217.19,73.49,217.08   z"/>
</g>
<g>
	<path class="st2" d="M97.68,220.83v-4.06c0-0.13,0.1-0.22,0.22-0.22c0.13,0,0.22,0.09,0.22,0.22v4.06c0,0.13-0.09,0.22-0.22,0.22   C97.79,221.06,97.68,220.97,97.68,220.83z"/>
	<path class="st2" d="M101.06,220.93c-0.2-0.4-0.38-0.8-0.57-1.18c-0.32-0.65-0.7-1.46-0.96-2v3.08c0,0.13-0.09,0.22-0.22,0.22   s-0.22-0.09-0.22-0.22v-4.06c0-0.1,0.07-0.2,0.17-0.22s0.2,0.03,0.25,0.12c0.19,0.4,0.38,0.8,0.57,1.18c0.32,0.65,0.71,1.46,0.97,2   v-3.08c0-0.13,0.09-0.22,0.22-0.22c0.13,0,0.22,0.09,0.22,0.22v4.06c0,0.11-0.07,0.2-0.17,0.22   C101.21,221.08,101.11,221.02,101.06,220.93z"/>
	<path class="st2" d="M103.86,219.99v-0.42c0-0.34-0.28-0.62-0.62-0.62c-0.13,0-0.22-0.09-0.22-0.22c0-0.13,0.09-0.22,0.22-0.22   c0.34,0,0.62-0.27,0.62-0.62v-0.28c0-0.28-0.18-0.52-0.46-0.6c-0.27-0.08-0.55,0.04-0.69,0.29c-0.06,0.1-0.2,0.15-0.31,0.08   c-0.11-0.06-0.15-0.2-0.08-0.31c0.25-0.41,0.73-0.63,1.2-0.5c0.48,0.13,0.79,0.55,0.79,1.03v0.28c0,0.34-0.16,0.64-0.41,0.84   c0.25,0.2,0.41,0.5,0.41,0.84v0.42c0,0.48-0.31,0.9-0.79,1.03c-0.46,0.13-0.96-0.08-1.2-0.5c-0.06-0.1-0.02-0.25,0.08-0.31   c0.1-0.06,0.25-0.02,0.31,0.08c0.14,0.25,0.42,0.36,0.69,0.29C103.68,220.51,103.86,220.27,103.86,219.99z"/>
</g>
<g>
	<path class="st2" d="M9.49,262.74v-2.38c0-0.59,0.48-1.06,1.06-1.06c0.59,0,1.06,0.48,1.06,1.06v2.38c0,0.59-0.48,1.06-1.06,1.06   C9.97,263.8,9.49,263.33,9.49,262.74z M9.94,260.36v2.38c0,0.34,0.27,0.62,0.62,0.62c0.34,0,0.62-0.27,0.62-0.62v-2.38   c0-0.34-0.28-0.62-0.62-0.62C10.21,259.74,9.94,260.02,9.94,260.36z"/>
	<path class="st2" d="M13.49,263.35c0.34,0,0.62-0.27,0.62-0.62v-3.22c0-0.13,0.09-0.22,0.22-0.22c0.12,0,0.22,0.09,0.22,0.22v3.22   c0,0.59-0.48,1.06-1.07,1.06c-0.59,0-1.06-0.48-1.06-1.06v-3.22c0-0.13,0.09-0.22,0.22-0.22c0.12,0,0.22,0.09,0.22,0.22v3.22   C12.88,263.08,13.15,263.35,13.49,263.35z"/>
	<path class="st2" d="M17.44,259.54c0,0.13-0.09,0.22-0.22,0.22h-0.69v3.81c0,0.13-0.09,0.22-0.22,0.22c-0.12,0-0.22-0.09-0.22-0.22   v-3.81H15.4c-0.12,0-0.22-0.09-0.22-0.22c0-0.13,0.1-0.22,0.22-0.22h1.82C17.35,259.32,17.44,259.41,17.44,259.54z"/>
	<path class="st2" d="M18.42,260.58c-0.06,0-0.11-0.02-0.16-0.06c-0.04-0.05-0.06-0.1-0.06-0.16s0.02-0.11,0.06-0.16l0.84-0.84   c0.06-0.06,0.16-0.08,0.25-0.05c0.09,0.03,0.14,0.1,0.14,0.21v4.06c0,0.13-0.1,0.22-0.22,0.22c-0.13,0-0.22-0.09-0.22-0.22v-3.52   l-0.46,0.46C18.53,260.56,18.49,260.58,18.42,260.58z"/>
</g>
<g>
	<path class="st2" d="M38.11,262.74v-2.38c0-0.59,0.48-1.06,1.06-1.06c0.59,0,1.06,0.48,1.06,1.06v2.38c0,0.59-0.48,1.06-1.06,1.06   C38.58,263.8,38.11,263.33,38.11,262.74z M38.56,260.36v2.38c0,0.34,0.27,0.62,0.62,0.62c0.34,0,0.62-0.27,0.62-0.62v-2.38   c0-0.34-0.28-0.62-0.62-0.62C38.83,259.74,38.56,260.02,38.56,260.36z"/>
	<path class="st2" d="M42.11,263.35c0.34,0,0.62-0.27,0.62-0.62v-3.22c0-0.13,0.09-0.22,0.22-0.22c0.12,0,0.22,0.09,0.22,0.22v3.22   c0,0.59-0.48,1.06-1.07,1.06c-0.59,0-1.06-0.48-1.06-1.06v-3.22c0-0.13,0.09-0.22,0.22-0.22c0.12,0,0.22,0.09,0.22,0.22v3.22   C41.5,263.08,41.77,263.35,42.11,263.35z"/>
	<path class="st2" d="M46.06,259.54c0,0.13-0.09,0.22-0.22,0.22h-0.69v3.81c0,0.13-0.09,0.22-0.22,0.22c-0.12,0-0.22-0.09-0.22-0.22   v-3.81h-0.69c-0.12,0-0.22-0.09-0.22-0.22c0-0.13,0.1-0.22,0.22-0.22h1.82C45.97,259.32,46.06,259.41,46.06,259.54z"/>
	<path class="st2" d="M46.7,259.82c0.15-0.26,0.36-0.42,0.64-0.49c0.27-0.08,0.55-0.04,0.8,0.09c0.25,0.13,0.43,0.35,0.5,0.62   c0.08,0.27,0.06,0.55-0.08,0.81c-0.2,0.37-0.38,0.71-0.55,1.04c-0.29,0.56-0.62,1.18-0.75,1.43h1.2c0.12,0,0.22,0.09,0.22,0.22   s-0.11,0.22-0.22,0.22H46.9c-0.09,0-0.15-0.04-0.19-0.1c-0.05-0.08-0.05-0.15-0.01-0.22l1.47-2.8c0.08-0.15,0.09-0.3,0.04-0.46   s-0.15-0.29-0.29-0.36s-0.3-0.1-0.46-0.06c-0.16,0.05-0.29,0.15-0.36,0.29c-0.06,0.1-0.2,0.15-0.31,0.08S46.64,259.93,46.7,259.82z   "/>
</g>
<g>
	<path class="st2" d="M66.79,262.74v-2.38c0-0.59,0.48-1.06,1.06-1.06c0.59,0,1.06,0.48,1.06,1.06v2.38c0,0.59-0.48,1.06-1.06,1.06   C67.26,263.8,66.79,263.33,66.79,262.74z M67.24,260.36v2.38c0,0.34,0.27,0.62,0.62,0.62c0.34,0,0.62-0.27,0.62-0.62v-2.38   c0-0.34-0.28-0.62-0.62-0.62C67.51,259.74,67.24,260.02,67.24,260.36z"/>
	<path class="st2" d="M70.79,263.35c0.34,0,0.62-0.27,0.62-0.62v-3.22c0-0.13,0.09-0.22,0.22-0.22c0.12,0,0.22,0.09,0.22,0.22v3.22   c0,0.59-0.48,1.06-1.07,1.06c-0.59,0-1.06-0.48-1.06-1.06v-3.22c0-0.13,0.09-0.22,0.22-0.22c0.12,0,0.22,0.09,0.22,0.22v3.22   C70.18,263.08,70.45,263.35,70.79,263.35z"/>
	<path class="st2" d="M74.74,259.54c0,0.13-0.09,0.22-0.22,0.22h-0.69v3.81c0,0.13-0.09,0.22-0.22,0.22c-0.12,0-0.22-0.09-0.22-0.22   v-3.81H72.7c-0.12,0-0.22-0.09-0.22-0.22c0-0.13,0.1-0.22,0.22-0.22h1.82C74.65,259.32,74.74,259.41,74.74,259.54z"/>
	<path class="st2" d="M76.83,262.74v-0.42c0-0.34-0.28-0.62-0.62-0.62c-0.13,0-0.22-0.09-0.22-0.22c0-0.13,0.09-0.22,0.22-0.22   c0.34,0,0.62-0.27,0.62-0.62v-0.28c0-0.28-0.18-0.52-0.46-0.6c-0.27-0.08-0.55,0.04-0.69,0.29c-0.06,0.1-0.2,0.15-0.31,0.08   c-0.11-0.06-0.15-0.2-0.08-0.31c0.25-0.41,0.73-0.63,1.2-0.5c0.48,0.13,0.79,0.55,0.79,1.03v0.28c0,0.34-0.16,0.64-0.41,0.84   c0.25,0.2,0.41,0.5,0.41,0.84v0.42c0,0.48-0.31,0.9-0.79,1.03c-0.46,0.13-0.96-0.08-1.2-0.5c-0.06-0.1-0.02-0.25,0.08-0.31   c0.1-0.06,0.25-0.02,0.31,0.08c0.14,0.25,0.42,0.36,0.69,0.29C76.64,263.26,76.83,263.02,76.83,262.74z"/>
</g>
<g>
	<path class="st2" d="M95.71,262.74v-2.38c0-0.59,0.48-1.06,1.06-1.06c0.59,0,1.06,0.48,1.06,1.06v2.38c0,0.59-0.48,1.06-1.06,1.06   C96.18,263.8,95.71,263.33,95.71,262.74z M96.16,260.36v2.38c0,0.34,0.27,0.62,0.62,0.62c0.34,0,0.62-0.27,0.62-0.62v-2.38   c0-0.34-0.28-0.62-0.62-0.62C96.43,259.74,96.16,260.02,96.16,260.36z"/>
	<path class="st2" d="M99.71,263.35c0.34,0,0.62-0.27,0.62-0.62v-3.22c0-0.13,0.09-0.22,0.22-0.22c0.12,0,0.22,0.09,0.22,0.22v3.22   c0,0.59-0.48,1.06-1.07,1.06c-0.59,0-1.06-0.48-1.06-1.06v-3.22c0-0.13,0.09-0.22,0.22-0.22c0.12,0,0.22,0.09,0.22,0.22v3.22   C99.1,263.08,99.37,263.35,99.71,263.35z"/>
	<path class="st2" d="M103.66,259.54c0,0.13-0.09,0.22-0.22,0.22h-0.69v3.81c0,0.13-0.09,0.22-0.22,0.22   c-0.12,0-0.22-0.09-0.22-0.22v-3.81h-0.69c-0.12,0-0.22-0.09-0.22-0.22c0-0.13,0.1-0.22,0.22-0.22h1.82   C103.57,259.32,103.66,259.41,103.66,259.54z"/>
	<path class="st2" d="M104.19,262.73c-0.05-0.06-0.06-0.13-0.04-0.2l0.98-3.08c0.05-0.11,0.17-0.19,0.29-0.14   c0.11,0.03,0.15,0.1,0.15,0.21c0,0.04-0.01,0.06-0.01,0.07c-0.13,0.44-0.27,0.85-0.39,1.22c-0.2,0.64-0.43,1.33-0.5,1.57h0.87   v-0.76c0-0.13,0.09-0.22,0.22-0.22s0.22,0.09,0.22,0.22v0.76h0.34c0.13,0,0.22,0.09,0.22,0.22c0,0.13-0.09,0.22-0.22,0.22H106v0.76   c0,0.13-0.09,0.22-0.22,0.22s-0.22-0.09-0.22-0.22v-0.76h-1.18C104.3,262.82,104.24,262.79,104.19,262.73z"/>
</g>
</svg>
