<?xml version="1.0" encoding="UTF-8" standalone="no"?>
<!DOCTYPE svg PUBLIC "-//W3C//DTD SVG 1.1//EN" "http://www.w3.org/Graphics/SVG/1.1/DTD/svg11.dtd">
<svg width="100%" height="100%" viewBox="0 0 116 365" version="1.1" xmlns="http://www.w3.org/2000/svg" xmlns:xlink="http://www.w3.org/1999/xlink" xml:space="preserve" xmlns:serif="http://www.serif.com/" style="fill-rule:evenodd;clip-rule:evenodd;stroke-linecap:round;stroke-linejoin:round;stroke-miterlimit:10;">
    <g id="g246">
        <rect id="rect10" x="0.242" y="0.243" width="114.715" height="363.766" style="fill:#fff;"/>
        <ellipse id="ellipse12" cx="21.572" cy="8.752" rx="5.786" ry="5.752" style="fill:#d4d626;"/>
        <ellipse id="ellipse14" cx="21.572" cy="355.62" rx="5.786" ry="5.752" style="fill:#d4d626;"/>
        <path id="path16" d="M90.501,279.272C90.501,284.784 94.962,289.219 100.379,289.219C105.926,289.219 110.377,284.784 110.377,279.272C110.377,273.759 105.916,269.325 100.379,269.325C94.952,269.325 90.501,273.759 90.501,279.272Z" style="fill:#d4d626;"/>
        <path id="path18" d="M90.501,235.28C90.501,240.793 94.962,245.227 100.379,245.227C105.926,245.227 110.377,240.793 110.377,235.28C110.377,229.887 105.916,225.453 100.379,225.453C94.952,225.453 90.501,229.887 90.501,235.28Z" style="fill:#d4d626;"/>
        <ellipse id="ellipse20" cx="43.5" cy="279.272" rx="9.998" ry="9.947" style="fill:#d4d626;"/>
        <path id="path22" d="M33.502,235.28C33.502,240.793 37.963,245.227 43.5,245.227C49.046,245.227 53.497,240.793 53.497,235.28C53.497,229.887 49.036,225.453 43.5,225.453C37.963,225.453 33.502,229.887 33.502,235.28Z" style="fill:#d4d626;"/>
        <path id="path24" d="M62.061,279.272C62.061,284.784 66.522,289.219 72.059,289.219C77.486,289.219 81.937,284.784 81.937,279.272C81.937,273.759 77.476,269.325 72.059,269.325C66.512,269.325 62.061,273.759 62.061,279.272Z" style="fill:#d4d626;"/>
        <path id="path26" d="M62.061,235.28C62.061,240.793 66.522,245.227 72.059,245.227C77.486,245.227 81.937,240.793 81.937,235.28C81.937,229.887 77.476,225.453 72.059,225.453C66.512,225.453 62.061,229.887 62.061,235.28Z" style="fill:#d4d626;"/>
        <ellipse id="ellipse28" cx="15.06" cy="279.272" rx="9.998" ry="9.947" style="fill:#d4d626;"/>
        <path id="path30" d="M5.062,235.28C5.062,240.793 9.523,245.227 15.06,245.227C20.487,245.227 25.058,240.793 25.058,235.28C25.058,229.887 20.477,225.453 15.06,225.453C9.523,225.453 5.062,229.887 5.062,235.28Z" style="fill:#d4d626;"/>
        <path id="path32" d="M49.524,100.44L52.292,103.196M48.558,97.683L51.327,97.683C51.934,97.683 52.292,98.163 52.292,98.642L52.292,99.601C52.292,100.08 51.934,100.44 51.327,100.44L48.558,100.44M48.558,97.683L48.558,103.196M43.022,100.44L46.756,100.44M43.022,103.196L43.022,98.642C43.022,98.163 43.5,97.683 43.988,97.683L45.8,97.683C46.407,97.683 46.766,98.163 46.766,98.642L46.766,103.196M37.595,100.44L40.363,100.44M41.209,97.683L37.595,97.683L37.595,103.196L41.209,103.196M32.058,103.196L32.058,97.683L35.673,103.196L35.673,97.683M27.358,103.196L29.29,103.196M28.314,97.683L28.314,103.196M27.358,97.683L29.29,97.683M20.965,97.683L20.965,103.196L24.58,103.196M15.428,103.196L15.428,97.683L19.162,103.196L19.162,97.683M9.882,102.357L9.882,98.642C9.882,98.163 10.36,97.683 10.848,97.683L12.66,97.683C13.138,97.683 13.626,98.163 13.626,98.642L13.626,102.357C13.626,102.837 13.148,103.196 12.66,103.196L10.848,103.196C10.36,103.196 9.882,102.837 9.882,102.357M4.335,103.196L4.335,97.683L8.069,103.196L8.069,97.683" style="fill:none;fill-rule:nonzero;stroke:#d4d626;stroke-width:0.72px;"/>
        <path id="path34" d="M45.79,110.397L49.524,113.273M49.524,107.76L45.79,110.636M45.79,107.76L45.79,113.273M43.988,112.913C43.988,113.033 43.38,113.273 42.663,113.273C41.339,113.273 40.373,111.954 40.373,110.516C40.373,108.958 41.339,107.76 42.663,107.76C43.39,107.76 43.988,107.88 43.988,108.12M35.424,111.355L37.834,111.355M34.826,113.273L36.639,107.76L38.451,113.273M32.058,110.516C32.536,110.516 32.904,111.116 32.904,111.835C32.904,112.674 32.546,113.273 32.058,113.273L29.29,113.273M29.28,113.273L29.28,107.76L32.048,107.76C32.526,107.76 32.894,108.359 32.894,109.078C32.894,109.917 32.536,110.516 32.048,110.516L29.28,110.516M23.743,107.76L25.068,107.76C26.392,107.76 27.358,108.958 27.358,110.516C27.358,111.954 26.392,113.273 25.068,113.273L23.743,113.273L23.743,107.76M18.197,110.516L20.965,110.516M21.931,107.76L18.197,107.76L18.197,113.273L21.931,113.273M12.65,110.516L15.418,110.516M16.394,107.76L12.66,107.76L12.66,113.273L16.394,113.273M7.113,110.516L9.882,110.516M10.848,107.76L7.113,107.76L7.113,113.273" style="fill:none;fill-rule:nonzero;stroke:#d4d626;stroke-width:0.72px;"/>
        <path id="path36" d="M92.662,103.196L96.276,97.683M89.893,100.44C90.371,100.44 90.74,100.919 90.74,101.399L90.74,102.357C90.74,102.837 90.381,103.196 89.893,103.196L87.962,103.196C87.484,103.196 87.115,102.837 87.115,102.357M87.125,98.642C87.125,98.163 87.484,97.683 87.972,97.683L89.903,97.683C90.381,97.683 90.75,98.163 90.75,98.642L90.75,99.601C90.75,100.08 90.391,100.44 89.903,100.44L88.938,100.44M81.579,103.196L81.579,97.683L85.193,103.196L85.193,97.683M76.998,103.196L78.81,103.196M77.844,97.683L77.844,103.196M76.998,97.683L78.81,97.683" style="fill:none;fill-rule:nonzero;stroke:#d4d626;stroke-width:0.72px;"/>
        <path id="path38" d="M103.635,110.397L107.37,113.273M107.37,107.76L103.635,110.636M103.635,107.76L103.635,113.273M101.823,112.913C101.823,113.033 101.216,113.273 100.499,113.273C99.174,113.273 98.208,111.954 98.208,110.516C98.208,108.958 99.174,107.76 100.499,107.76C101.226,107.76 101.823,107.88 101.823,108.12M93.269,111.355L95.679,111.355M92.662,113.273L94.474,107.76L96.286,113.273M89.893,110.516C90.371,110.516 90.74,111.116 90.74,111.835C90.74,112.674 90.381,113.273 89.893,113.273L87.125,113.273M87.125,113.273L87.125,107.76L89.893,107.76C90.371,107.76 90.74,108.359 90.74,109.078C90.74,109.917 90.381,110.516 89.893,110.516L87.125,110.516M81.579,107.76L82.903,107.76C84.227,107.76 85.193,108.958 85.193,110.516C85.193,111.954 84.227,113.273 82.903,113.273L81.579,113.273L81.579,107.76M76.032,110.516L78.8,110.516M79.776,107.76L76.042,107.76L76.042,113.273L79.776,113.273M70.495,110.516L73.264,110.516M74.23,107.76L70.495,107.76L70.495,113.273L74.23,113.273M64.949,110.516L67.717,110.516M68.683,107.76L64.949,107.76L64.949,113.273" style="fill:none;fill-rule:nonzero;stroke:#d4d626;stroke-width:0.72px;"/>
        <path id="path40" d="M25.426,213.23L26.392,213.23M29.16,210.473L26.392,213.23L29.16,215.986M25.426,210.473L25.426,215.986M23.624,215.027C23.624,215.507 23.146,215.986 22.658,215.986L20.845,215.986C20.367,215.986 19.879,215.507 19.879,215.027L19.879,211.432C19.879,210.833 20.357,210.473 20.845,210.473L22.658,210.473C23.136,210.473 23.624,210.833 23.624,211.432M14.343,215.027L14.343,211.432C14.343,210.833 14.821,210.473 15.309,210.473L17.121,210.473C17.729,210.473 18.087,210.833 18.087,211.432L18.087,215.027C18.087,215.507 17.729,215.986 17.121,215.986L15.309,215.986C14.821,215.986 14.343,215.507 14.343,215.027M8.916,210.473L8.916,215.986L12.531,215.986M6.994,215.027C6.994,215.507 6.635,215.986 6.148,215.986L4.216,215.986C3.738,215.986 3.369,215.507 3.369,215.027L3.369,211.432C3.369,210.833 3.728,210.473 4.216,210.473L6.148,210.473C6.625,210.473 6.994,210.833 6.994,211.432" style="fill:none;fill-rule:nonzero;stroke:#d4d626;stroke-width:0.72px;"/>
        <path id="path42" d="M48.08,215.986L50.012,215.986M48.08,211.432L49.046,210.473L49.046,215.986M41.697,215.986L41.697,210.473L45.312,215.986L45.312,210.473M37.117,215.986L38.929,215.986M37.963,210.473L37.963,215.986M37.117,210.473L38.929,210.473" style="fill:none;fill-rule:nonzero;stroke:#d4d626;stroke-width:0.72px;"/>
        <path id="path44" d="M75.674,214.069L75.674,215.986L79.408,215.986M75.674,214.069C75.674,213.589 76.152,213.23 76.64,213.23M75.674,211.432C75.674,210.833 76.152,210.473 76.64,210.473L78.452,210.473C78.93,210.473 79.418,210.833 79.418,211.432L79.418,212.271C79.418,212.75 78.94,213.23 78.452,213.23L76.64,213.23M70.127,215.986L70.127,210.473L73.861,215.986L73.861,210.473M65.556,215.986L67.369,215.986M66.512,210.473L66.512,215.986M65.556,210.473L67.369,210.473" style="fill:none;fill-rule:nonzero;stroke:#d4d626;stroke-width:0.72px;"/>
        <path id="path46" d="M106.882,213.23C107.36,213.23 107.848,213.589 107.848,214.069L107.848,215.027C107.848,215.507 107.37,215.986 106.882,215.986L105.069,215.986C104.462,215.986 104.103,215.507 104.103,215.027M104.113,211.432C104.113,210.833 104.472,210.473 105.079,210.473L106.892,210.473C107.37,210.473 107.858,210.833 107.858,211.432L107.858,212.271C107.858,212.75 107.38,213.23 106.892,213.23L105.926,213.23M98.567,215.986L98.567,210.473L102.301,215.986L102.301,210.473M93.986,215.986L95.799,215.986M94.833,210.473L94.833,215.986M93.986,210.473L95.799,210.473" style="fill:none;fill-rule:nonzero;stroke:#d4d626;stroke-width:0.72px;"/>
        <path id="path48" d="M22.419,261.895L24.231,261.895M22.419,257.221L23.385,256.382L23.385,261.895M17.838,256.382L17.838,261.895M15.906,256.382L19.64,256.382M14.104,256.382L14.104,260.936C14.104,261.416 13.745,261.895 13.138,261.895L11.326,261.895C10.848,261.895 10.479,261.416 10.479,260.936L10.479,256.382M4.943,260.936L4.943,257.221C4.943,256.742 5.301,256.382 5.789,256.382L7.711,256.382C8.189,256.382 8.557,256.742 8.557,257.221L8.557,260.936C8.557,261.416 8.199,261.895 7.711,261.895L5.789,261.895C5.301,261.895 4.943,261.416 4.943,260.936" style="fill:none;fill-rule:nonzero;stroke:#d4d626;stroke-width:0.72px;"/>
        <path id="path50" d="M50.012,259.977L50.012,261.895L53.627,261.895M50.012,259.977C50.012,259.498 50.371,259.139 50.858,259.139M50.012,257.221C50.012,256.742 50.371,256.382 50.858,256.382L52.79,256.382C53.268,256.382 53.637,256.742 53.637,257.221L53.637,258.18C53.637,258.659 53.278,259.139 52.79,259.139L50.858,259.139M46.278,256.382L46.278,261.895M44.466,256.382L48.08,256.382M42.653,256.382L42.653,260.936C42.653,261.416 42.175,261.895 41.687,261.895L39.875,261.895C39.267,261.895 38.909,261.416 38.909,260.936L38.909,256.382M33.382,260.936L33.382,257.221C33.382,256.742 33.741,256.382 34.348,256.382L36.161,256.382C36.639,256.382 37.127,256.742 37.127,257.221L37.127,260.936C37.127,261.416 36.649,261.895 36.161,261.895L34.348,261.895C33.741,261.895 33.382,261.416 33.382,260.936" style="fill:none;fill-rule:nonzero;stroke:#d4d626;stroke-width:0.72px;"/>
        <path id="path52" d="M81.22,259.139C81.698,259.139 82.186,259.498 82.186,259.977L82.186,260.936C82.186,261.416 81.708,261.895 81.22,261.895L79.408,261.895C78.93,261.895 78.442,261.416 78.442,260.936M78.442,257.221C78.442,256.742 78.92,256.382 79.408,256.382L81.22,256.382C81.698,256.382 82.186,256.742 82.186,257.221L82.186,258.18C82.186,258.659 81.708,259.139 81.22,259.139L80.254,259.139M74.827,256.382L74.827,261.895M72.905,256.382L76.64,256.382M71.093,256.382L71.093,260.936C71.093,261.416 70.615,261.895 70.127,261.895L68.315,261.895C67.837,261.895 67.349,261.416 67.349,260.936L67.349,256.382M61.822,260.936L61.822,257.221C61.822,256.742 62.3,256.382 62.788,256.382L64.6,256.382C65.208,256.382 65.566,256.742 65.566,257.221L65.566,260.936C65.566,261.416 65.208,261.895 64.6,261.895L62.778,261.895C62.3,261.895 61.822,261.416 61.822,260.936" style="fill:none;fill-rule:nonzero;stroke:#d4d626;stroke-width:0.72px;"/>
        <path id="path54" d="M106.882,256.382L106.882,259.139L110.616,259.139M110.616,261.895L110.616,256.382M103.147,256.382L103.147,261.895M101.345,256.382L105.079,256.382M99.533,256.382L99.533,260.936C99.533,261.416 99.055,261.895 98.567,261.895L96.754,261.895C96.276,261.895 95.789,261.416 95.789,260.936L95.789,256.382M90.252,260.936L90.252,257.221C90.252,256.742 90.73,256.382 91.218,256.382L93.03,256.382C93.508,256.382 93.996,256.742 93.996,257.221L93.996,260.936C93.996,261.416 93.518,261.895 93.03,261.895L91.218,261.895C90.74,261.895 90.252,261.416 90.252,260.936" style="fill:none;fill-rule:nonzero;stroke:#d4d626;stroke-width:0.72px;"/>
        <path id="path56" d="M86.886,350.827L86.886,339.322L94.594,350.827L94.594,339.322" style="fill:none;fill-rule:nonzero;stroke:#d4d626;stroke-width:1.56px;"/>
        <path id="path58" d="M94.594,339.322L94.594,350.827L102.301,350.827" style="fill:none;fill-rule:nonzero;stroke:#d4d626;stroke-width:1.56px;"/>
        <path id="path60" d="M108.575,348.909C108.575,349.868 107.728,350.827 106.643,350.827L102.789,350.827C101.704,350.827 100.857,349.868 100.857,348.909L100.857,341.239C100.857,340.161 101.704,339.322 102.789,339.322L106.643,339.322C107.728,339.322 108.575,340.161 108.575,341.239" style="fill:none;fill-rule:nonzero;stroke:#d4d626;stroke-width:1.56px;"/>
        <path id="path62" d="M52.302,355.98C58.566,355.98 63.754,350.827 63.754,344.595C63.754,338.363 58.576,333.33 52.302,333.33C46.039,333.33 40.98,338.363 40.98,344.595C40.98,350.827 46.029,355.98 52.302,355.98" style="fill:none;fill-rule:nonzero;stroke:#d4d626;stroke-width:1.08px;"/>
        <path id="path64" d="M63.864,344.595L81.101,344.595" style="fill:none;fill-rule:nonzero;stroke:#d4d626;stroke-width:1.44px;"/>
        <path id="path66" d="M55.31,333.809L48.558,342.078" style="fill:none;fill-rule:nonzero;stroke:#d4d626;stroke-width:1.08px;"/>
        <path id="path68" d="M56.634,347.471L49.893,355.5" style="fill:none;fill-rule:nonzero;stroke:#d4d626;stroke-width:1.08px;"/>
        <path id="path70" d="M48.558,342.078L56.634,347.471" style="fill:none;fill-rule:nonzero;stroke:#d4d626;stroke-width:1.08px;"/>
        <path id="path72" d="M56.993,347.231L57.242,354.781L53.746,355.62L50.251,355.5L56.993,347.231Z" style="fill:#d4d626;"/>
        <path id="path74" d="M54.832,333.689L57.361,334.888L57.242,347.351L48.2,341.719L54.832,333.689Z" style="fill:#d4d626;"/>
        <path id="path76" d="M56.754,349.029L62.181,349.269L61.942,350.587L60.368,352.025L56.634,355.021L56.754,349.029Z" style="fill:#d4d626;"/>
        <path id="path78" d="M56.634,341.479L63.147,341.359L63.505,344.954L63.266,347.471L62.3,349.748L56.395,349.508L56.634,341.479Z" style="fill:#d4d626;"/>
        <path id="path80" d="M56.993,334.408L59.412,335.966L61.822,338.723L63.027,341.838L56.276,341.719L56.993,334.408Z" style="fill:#d4d626;"/>
        <path id="path82" d="M97.73,7.673L102.311,7.673C103.157,7.673 103.874,8.392 103.874,9.231L103.874,15.343C103.874,16.182 103.147,16.901 102.311,16.901L97.73,16.901L97.73,7.673M90.013,16.901L93.15,16.901M91.576,7.673L91.576,16.901M90.013,7.673L93.15,7.673M85.432,7.673L85.432,15.343C85.432,16.182 84.705,16.901 83.869,16.901L80.852,16.901C80.005,16.901 79.288,16.182 79.288,15.343L79.288,7.673M73.144,13.785L76.281,16.901M70.127,15.343L70.127,9.231C70.127,8.392 70.734,7.673 71.571,7.673L74.708,7.673C75.554,7.673 76.271,8.392 76.271,9.231L76.271,15.343C76.271,16.182 75.544,16.901 74.708,16.901L71.571,16.901C70.734,16.901 70.127,16.182 70.127,15.343M65.437,12.347L62.42,12.347C61.573,12.347 60.856,11.628 60.856,10.789L60.856,9.231C60.856,8.392 61.583,7.673 62.42,7.673L65.437,7.673C66.283,7.673 67,8.392 67,9.231M65.437,12.347C66.283,12.347 67,12.946 67,13.785L67,15.343C67,16.182 66.273,16.901 65.437,16.901L62.42,16.901C61.573,16.901 60.856,16.182 60.856,15.343" style="fill:none;fill-rule:nonzero;stroke:#d4d626;stroke-width:1.2px;"/>
        <path id="path84" d="M93.15,30.922L93.15,21.814L99.294,30.922L99.294,21.814M90.013,27.926C90.013,29.604 88.689,30.922 86.996,30.922C85.313,30.922 83.859,29.604 83.859,27.926L83.859,24.81C83.859,23.133 85.303,21.814 86.996,21.814C88.679,21.814 90.013,23.133 90.013,24.81L90.013,27.926M74.708,30.922L80.852,21.814M74.708,21.814L80.852,30.922M66.642,27.926L70.495,27.926M65.437,30.922L68.574,21.814L71.591,30.922" style="fill:none;fill-rule:nonzero;stroke:#d4d626;stroke-width:1.2px;"/>
        <path id="path86" d="M15.06,235.28L43.5,235.28" style="fill:none;fill-rule:nonzero;stroke:#d4d626;stroke-width:8.62px;"/>
        <path id="path88" d="M43.5,235.28L72.059,235.28" style="fill:none;fill-rule:nonzero;stroke:#d4d626;stroke-width:8.62px;"/>
        <path id="path90" d="M72.059,235.28L100.379,235.28" style="fill:none;fill-rule:nonzero;stroke:#d4d626;stroke-width:8.62px;"/>
        <path id="path92" d="M15.06,279.272L43.5,279.272" style="fill:none;fill-rule:nonzero;stroke:#d4d626;stroke-width:8.62px;"/>
        <path id="path94" d="M43.5,279.272L72.059,279.272" style="fill:none;fill-rule:nonzero;stroke:#d4d626;stroke-width:8.62px;"/>
        <path id="path96" d="M72.059,279.272L100.379,279.272" style="fill:none;fill-rule:nonzero;stroke:#d4d626;stroke-width:8.62px;"/>
        <path id="path98" d="M17.111,8.752C17.111,11.149 19.162,13.186 21.572,13.186C24.102,13.186 26.153,11.149 26.153,8.752C26.153,6.235 24.102,4.198 21.572,4.198C19.162,4.198 17.111,6.235 17.111,8.752Z"/>
        <path id="path100" d="M17.111,355.62C17.111,358.017 19.162,360.054 21.572,360.054C24.102,360.054 26.153,358.017 26.153,355.62C26.153,353.103 24.102,351.066 21.572,351.066C19.162,351.066 17.111,353.103 17.111,355.62Z"/>
        <path id="path102" d="M91.337,279.272C91.337,284.305 95.43,288.26 100.379,288.26C105.438,288.26 109.54,284.305 109.54,279.272C109.54,274.238 105.448,270.284 100.379,270.284C95.44,270.284 91.337,274.238 91.337,279.272Z"/>
        <path id="path104" d="M91.337,235.28C91.337,240.314 95.43,244.388 100.379,244.388C105.438,244.388 109.54,240.314 109.54,235.28C109.54,230.367 105.448,226.292 100.379,226.292C95.44,226.292 91.337,230.367 91.337,235.28Z"/>
        <ellipse id="ellipse106" cx="43.5" cy="279.272" rx="9.042" ry="8.988"/>
        <path id="path108" d="M34.468,235.28C34.468,240.314 38.56,244.388 43.51,244.388C48.568,244.388 52.551,240.314 52.551,235.28C52.551,230.367 48.578,226.292 43.51,226.292C38.56,226.292 34.468,230.367 34.468,235.28Z"/>
        <path id="path110" d="M62.898,279.272C62.898,284.305 66.99,288.26 72.059,288.26C76.998,288.26 81.101,284.305 81.101,279.272C81.101,274.238 77.008,270.284 72.059,270.284C67,270.284 62.898,274.238 62.898,279.272Z"/>
        <path id="path112" d="M62.898,235.28C62.898,240.314 66.99,244.388 72.059,244.388C76.998,244.388 81.101,240.314 81.101,235.28C81.101,230.367 77.008,226.292 72.059,226.292C67,226.292 62.898,230.367 62.898,235.28Z"/>
        <path id="path114" d="M5.909,279.272C5.909,284.305 10.001,288.26 15.07,288.26C20.009,288.26 24.112,284.305 24.112,279.272C24.112,274.238 20.019,270.284 15.07,270.284C10.001,270.284 5.909,274.238 5.909,279.272Z"/>
        <path id="path116" d="M5.909,235.28C5.909,240.314 10.001,244.388 15.07,244.388C20.009,244.388 24.112,240.314 24.112,235.28C24.112,230.367 20.019,226.292 15.07,226.292C10.001,226.292 5.909,230.367 5.909,235.28Z"/>
        <path id="path118" d="M114.958,0.243L0.242,0.243" style="fill:none;fill-rule:nonzero;stroke:#231f20;stroke-width:0.48px;"/>
        <path id="path120" d="M0.242,0.243L0.242,364.009" style="fill:none;fill-rule:nonzero;stroke:#231f20;stroke-width:0.48px;"/>
        <path id="path122" d="M0.242,364.009L114.958,364.009" style="fill:none;fill-rule:nonzero;stroke:#231f20;stroke-width:0.48px;"/>
        <path id="path124" d="M114.958,364.009L114.958,0.243" style="fill:none;fill-rule:nonzero;stroke:#231f20;stroke-width:0.48px;"/>
        <path id="path126" d="M86.159,79.468L88.45,79.228" style="fill:none;fill-rule:nonzero;stroke:#231f20;stroke-width:0.48px;"/>
        <path id="path128" d="M88.45,79.228L90.62,78.509" style="fill:none;fill-rule:nonzero;stroke:#231f20;stroke-width:0.48px;"/>
        <path id="path130" d="M90.62,78.509L92.542,77.43" style="fill:none;fill-rule:nonzero;stroke:#231f20;stroke-width:0.48px;"/>
        <path id="path132" d="M92.542,77.43L94.235,75.873" style="fill:none;fill-rule:nonzero;stroke:#231f20;stroke-width:0.48px;"/>
        <path id="path134" d="M94.235,75.873L95.44,73.955" style="fill:none;fill-rule:nonzero;stroke:#231f20;stroke-width:0.48px;"/>
        <path id="path136" d="M95.44,73.955L96.276,71.918" style="fill:none;fill-rule:nonzero;stroke:#231f20;stroke-width:0.48px;"/>
        <path id="path138" d="M96.276,71.918L96.764,69.641" style="fill:none;fill-rule:nonzero;stroke:#231f20;stroke-width:0.48px;"/>
        <path id="path140" d="M96.764,69.641L96.645,67.364" style="fill:none;fill-rule:nonzero;stroke:#231f20;stroke-width:0.48px;"/>
        <path id="path142" d="M96.645,67.364L96.038,65.207" style="fill:none;fill-rule:nonzero;stroke:#231f20;stroke-width:0.48px;"/>
        <path id="path144" d="M96.038,65.207L94.952,63.169" style="fill:none;fill-rule:nonzero;stroke:#231f20;stroke-width:0.48px;"/>
        <path id="path146" d="M94.952,63.169L93.508,61.492" style="fill:none;fill-rule:nonzero;stroke:#231f20;stroke-width:0.48px;"/>
        <path id="path148" d="M93.508,61.492L91.825,60.054" style="fill:none;fill-rule:nonzero;stroke:#231f20;stroke-width:0.48px;"/>
        <path id="path150" d="M91.825,60.054L89.774,59.095" style="fill:none;fill-rule:nonzero;stroke:#231f20;stroke-width:0.48px;"/>
        <path id="path152" d="M89.774,59.095L87.484,58.615" style="fill:none;fill-rule:nonzero;stroke:#231f20;stroke-width:0.48px;"/>
        <path id="path154" d="M87.484,58.615L85.313,58.496" style="fill:none;fill-rule:nonzero;stroke:#231f20;stroke-width:0.48px;"/>
        <path id="path156" d="M85.313,58.496L83.023,58.975" style="fill:none;fill-rule:nonzero;stroke:#231f20;stroke-width:0.48px;"/>
        <path id="path158" d="M83.023,58.975L80.981,59.814" style="fill:none;fill-rule:nonzero;stroke:#231f20;stroke-width:0.48px;"/>
        <path id="path160" d="M80.981,59.814L79.169,61.132" style="fill:none;fill-rule:nonzero;stroke:#231f20;stroke-width:0.48px;"/>
        <path id="path162" d="M79.169,61.132L77.605,62.81" style="fill:none;fill-rule:nonzero;stroke:#231f20;stroke-width:0.48px;"/>
        <path id="path164" d="M77.605,62.81L76.52,64.847" style="fill:none;fill-rule:nonzero;stroke:#231f20;stroke-width:0.48px;"/>
        <path id="path166" d="M76.52,64.847L75.793,67.004" style="fill:none;fill-rule:nonzero;stroke:#231f20;stroke-width:0.48px;"/>
        <path id="path168" d="M75.793,67.004L75.674,69.161" style="fill:none;fill-rule:nonzero;stroke:#231f20;stroke-width:0.48px;"/>
        <path id="path170" d="M75.674,69.161L75.913,71.438" style="fill:none;fill-rule:nonzero;stroke:#231f20;stroke-width:0.48px;"/>
        <path id="path172" d="M75.913,71.438L76.64,73.596" style="fill:none;fill-rule:nonzero;stroke:#231f20;stroke-width:0.48px;"/>
        <path id="path174" d="M76.64,73.596L77.844,75.513" style="fill:none;fill-rule:nonzero;stroke:#231f20;stroke-width:0.48px;"/>
        <path id="path176" d="M77.844,75.513L79.527,77.071" style="fill:none;fill-rule:nonzero;stroke:#231f20;stroke-width:0.48px;"/>
        <path id="path178" d="M79.527,77.071L81.34,78.389" style="fill:none;fill-rule:nonzero;stroke:#231f20;stroke-width:0.48px;"/>
        <path id="path180" d="M81.34,78.389L83.51,79.108" style="fill:none;fill-rule:nonzero;stroke:#231f20;stroke-width:0.48px;"/>
        <path id="path182" d="M83.51,79.108L85.671,79.468" style="fill:none;fill-rule:nonzero;stroke:#231f20;stroke-width:0.48px;"/>
        <path id="path184" d="M85.671,79.468L86.159,79.468" style="fill:none;fill-rule:nonzero;stroke:#231f20;stroke-width:0.48px;"/>
        <path id="path186" d="M28.314,79.468L30.604,79.228" style="fill:none;fill-rule:nonzero;stroke:#231f20;stroke-width:0.48px;"/>
        <path id="path188" d="M30.604,79.228L32.775,78.509" style="fill:none;fill-rule:nonzero;stroke:#231f20;stroke-width:0.48px;"/>
        <path id="path190" d="M32.775,78.509L34.707,77.43" style="fill:none;fill-rule:nonzero;stroke:#231f20;stroke-width:0.48px;"/>
        <path id="path192" d="M34.707,77.43L36.39,75.873" style="fill:none;fill-rule:nonzero;stroke:#231f20;stroke-width:0.48px;"/>
        <path id="path194" d="M36.39,75.873L37.595,73.955" style="fill:none;fill-rule:nonzero;stroke:#231f20;stroke-width:0.48px;"/>
        <path id="path196" d="M37.595,73.955L38.441,71.918" style="fill:none;fill-rule:nonzero;stroke:#231f20;stroke-width:0.48px;"/>
        <path id="path198" d="M38.441,71.918L38.919,69.641" style="fill:none;fill-rule:nonzero;stroke:#231f20;stroke-width:0.48px;"/>
        <path id="path200" d="M38.919,69.641L38.799,67.364" style="fill:none;fill-rule:nonzero;stroke:#231f20;stroke-width:0.48px;"/>
        <path id="path202" d="M38.799,67.364L38.202,65.207" style="fill:none;fill-rule:nonzero;stroke:#231f20;stroke-width:0.48px;"/>
        <path id="path204" d="M38.202,65.207L37.117,63.169" style="fill:none;fill-rule:nonzero;stroke:#231f20;stroke-width:0.48px;"/>
        <path id="path206" d="M37.117,63.169L35.673,61.492" style="fill:none;fill-rule:nonzero;stroke:#231f20;stroke-width:0.48px;"/>
        <path id="path208" d="M35.673,61.492L33.98,60.054" style="fill:none;fill-rule:nonzero;stroke:#231f20;stroke-width:0.48px;"/>
        <path id="path210" d="M33.98,60.054L31.938,59.095" style="fill:none;fill-rule:nonzero;stroke:#231f20;stroke-width:0.48px;"/>
        <path id="path212" d="M31.938,59.095L29.648,58.615" style="fill:none;fill-rule:nonzero;stroke:#231f20;stroke-width:0.48px;"/>
        <path id="path214" d="M29.648,58.615L27.477,58.496" style="fill:none;fill-rule:nonzero;stroke:#231f20;stroke-width:0.48px;"/>
        <path id="path216" d="M27.477,58.496L25.187,58.975" style="fill:none;fill-rule:nonzero;stroke:#231f20;stroke-width:0.48px;"/>
        <path id="path218" d="M25.187,58.975L23.136,59.814" style="fill:none;fill-rule:nonzero;stroke:#231f20;stroke-width:0.48px;"/>
        <path id="path220" d="M23.136,59.814L21.333,61.132" style="fill:none;fill-rule:nonzero;stroke:#231f20;stroke-width:0.48px;"/>
        <path id="path222" d="M21.333,61.132L19.76,62.81" style="fill:none;fill-rule:nonzero;stroke:#231f20;stroke-width:0.48px;"/>
        <path id="path224" d="M19.76,62.81L18.675,64.847" style="fill:none;fill-rule:nonzero;stroke:#231f20;stroke-width:0.48px;"/>
        <path id="path226" d="M18.675,64.847L17.958,67.004" style="fill:none;fill-rule:nonzero;stroke:#231f20;stroke-width:0.48px;"/>
        <path id="path228" d="M17.958,67.004L17.838,69.161" style="fill:none;fill-rule:nonzero;stroke:#231f20;stroke-width:0.48px;"/>
        <path id="path230" d="M17.838,69.161L18.077,71.438" style="fill:none;fill-rule:nonzero;stroke:#231f20;stroke-width:0.48px;"/>
        <path id="path232" d="M18.077,71.438L18.804,73.596" style="fill:none;fill-rule:nonzero;stroke:#231f20;stroke-width:0.48px;"/>
        <path id="path234" d="M18.804,73.596L20.009,75.513" style="fill:none;fill-rule:nonzero;stroke:#231f20;stroke-width:0.48px;"/>
        <path id="path236" d="M20.009,75.513L21.692,77.071" style="fill:none;fill-rule:nonzero;stroke:#231f20;stroke-width:0.48px;"/>
        <path id="path238" d="M21.692,77.071L23.494,78.389" style="fill:none;fill-rule:nonzero;stroke:#231f20;stroke-width:0.48px;"/>
        <path id="path240" d="M23.494,78.389L25.665,79.108" style="fill:none;fill-rule:nonzero;stroke:#231f20;stroke-width:0.48px;"/>
        <path id="path242" d="M25.665,79.108L27.836,79.468" style="fill:none;fill-rule:nonzero;stroke:#231f20;stroke-width:0.48px;"/>
        <path id="path244" d="M27.836,79.468L28.314,79.468" style="fill:none;fill-rule:nonzero;stroke:#231f20;stroke-width:0.48px;"/>
    </g>
</svg>
