<?xml version="1.0" encoding="UTF-8" standalone="no"?>
<!DOCTYPE svg PUBLIC "-//W3C//DTD SVG 1.1//EN" "http://www.w3.org/Graphics/SVG/1.1/DTD/svg11.dtd">
<svg width="100%" height="100%" viewBox="0 0 120 380" version="1.1" xmlns="http://www.w3.org/2000/svg" xmlns:xlink="http://www.w3.org/1999/xlink" xml:space="preserve" xmlns:serif="http://www.serif.com/" style="fill-rule:evenodd;clip-rule:evenodd;stroke-linecap:round;stroke-linejoin:round;stroke-miterlimit:10;">
    <g transform="matrix(0.784519,0,0,-0.781507,-76.0669,454.775)">
        <rect x="97.28" y="96" width="152.32" height="485.6"/>
    </g>
    <g transform="matrix(0.784519,0,0,-0.781507,-76.0669,791.51)">
        <path d="M209.92,546.56L209.92,561.92L220,546.56L220,561.92" style="fill:none;fill-rule:nonzero;stroke:rgb(193,163,119);stroke-width:2.08px;"/>
    </g>
    <g transform="matrix(0.784519,0,0,-0.781507,-76.0669,791.51)">
        <path d="M220,561.92L220,546.56L230.24,546.56" style="fill:none;fill-rule:nonzero;stroke:rgb(193,163,119);stroke-width:2.08px;"/>
    </g>
    <g transform="matrix(0.784519,0,0,-0.781507,111.088,354.367)">
        <path d="M0,-10.24C0,-11.68 -1.12,-12.8 -2.56,-12.8L-7.68,-12.8C-8.96,-12.8 -10.24,-11.68 -10.24,-10.24L-10.24,-0C-10.24,1.28 -8.96,2.56 -7.68,2.56L-2.56,2.56C-1.12,2.56 0,1.28 0,-0" style="fill:none;fill-rule:nonzero;stroke:rgb(193,163,119);stroke-width:2.08px;"/>
    </g>
    <g transform="matrix(-0.784519,0,0,-0.781507,52.5941,346.114)">
        <path d="M0.16,-30.24C-8.32,-30.24 -15.04,-23.52 -15.04,-15.2C-15.04,-6.72 -8.32,0 0.16,0C8.48,0 15.2,-6.72 15.2,-15.2C15.2,-23.52 8.48,-30.24 0.16,-30.24" style="fill:none;fill-rule:nonzero;stroke:rgb(193,163,119);stroke-width:1.44px;"/>
    </g>
    <g transform="matrix(0.784519,0,0,-0.781507,-76.0669,790.76)">
        <path d="M179.2,553.76L202.24,553.76" style="fill:none;fill-rule:nonzero;stroke:rgb(193,163,119);stroke-width:1.92px;"/>
    </g>
    <g transform="matrix(-0.498724,0.603269,-0.605594,-0.496809,463.491,523.102)">
        <path d="M156.313,544.8L170.407,544.8" style="fill:none;fill-rule:nonzero;stroke:rgb(193,163,119);stroke-width:1.44px;"/>
    </g>
    <g transform="matrix(-0.498724,0.603269,-0.605594,-0.49681,476.699,545.153)">
        <path d="M158.073,562.88L172.167,562.88" style="fill:none;fill-rule:nonzero;stroke:rgb(193,163,119);stroke-width:1.44px;"/>
    </g>
    <g transform="matrix(0.651259,0.435735,-0.437414,0.648759,188.077,-72.8186)">
        <path d="M157.783,553.84L170.697,553.84" style="fill:none;fill-rule:nonzero;stroke:rgb(193,163,119);stroke-width:1.44px;"/>
    </g>
    <g transform="matrix(0.0248923,0.781114,-0.784124,0.0247967,491.216,221.685)">
        <path d="M160.3,558.384L170.385,558.384L171.357,563.058L170.89,567.685L160.3,558.384Z" style="fill:rgb(193,163,119);"/>
    </g>
    <g transform="matrix(0.687407,0.376625,-0.378076,0.684768,147.183,-83.6856)">
        <path d="M162.57,538.791L166.222,538.791L174.101,553.448L159.885,552.502L162.57,538.791Z" style="fill:rgb(193,163,119);"/>
    </g>
    <g transform="matrix(0.784519,0,0,-0.781507,-76.0669,806.265)">
        <path d="M169.76,567.68L176.96,567.52L176.64,565.6L174.56,563.68L169.6,559.68L169.76,567.68Z" style="fill:rgb(193,163,119);"/>
    </g>
    <g transform="matrix(0.784519,0,0,-0.781507,-76.0669,792.761)">
        <path d="M169.76,560.48L178.24,560.64L178.72,555.84L178.4,552.64L177.12,549.44L169.44,549.92L169.76,560.48Z" style="fill:rgb(193,163,119);"/>
    </g>
    <g transform="matrix(0.784519,0,0,-0.781507,-76.0669,777.256)">
        <path d="M170.08,550.08L173.28,548.16L176.64,544.48L177.92,541.44L178.08,540.16L169.12,540.48L170.08,550.08Z" style="fill:rgb(193,163,119);"/>
    </g>
    <g transform="matrix(0.784519,0,0,-0.781507,65.272,17.1306)">
        <path d="M0,15.2L7.52,15.2C8.96,15.2 10.08,14.08 10.08,12.64L10.08,10.08C10.08,8.64 8.96,7.52 7.52,7.52L0,7.52M7.52,7.52C8.96,7.52 10.08,6.4 10.08,4.96L10.08,2.4C10.08,1.12 8.96,0 7.52,0L0,0L0,15.2M25.44,15.2L15.2,15.2L15.2,0L25.44,0M15.2,7.52L22.88,7.52M30.56,0L30.56,12.64C30.56,14.08 31.68,15.2 33.12,15.2L38.24,15.2C39.52,15.2 40.8,14.08 40.8,12.64L40.8,0M30.56,7.52L40.8,7.52M45.76,15.2L56,15.2M50.88,15.2L50.88,0" style="fill:none;fill-rule:nonzero;stroke:rgb(193,163,119);stroke-width:2.08px;"/>
    </g>
    <g transform="matrix(0.784519,0,0,-0.781507,29.4979,295.472)">
        <path d="M0,7.36L2.56,7.36M1.28,7.36L1.28,0M0,0L2.56,0M6.24,0L6.24,7.36L11.04,0L11.04,7.36M14.72,6.08L16,7.36L16,0M14.72,0L17.28,0" style="fill:none;fill-rule:nonzero;stroke:rgb(193,163,119);stroke-width:0.96px;"/>
    </g>
    <g transform="matrix(0.784519,0,0,-0.781507,76.9456,295.472)">
        <path d="M0,7.36L2.56,7.36M1.28,7.36L1.28,0M0,0L2.56,0M6.24,0L6.24,7.36L11.04,0L11.04,7.36M13.6,6.08C13.6,6.88 14.08,7.36 14.72,7.36L17.28,7.36C17.92,7.36 18.4,6.88 18.4,6.08L18.4,4.96C18.4,4.32 17.92,3.68 17.28,3.68L14.72,3.68M13.6,2.4C13.6,3.2 14.08,3.68 14.72,3.68M13.6,2.4L13.6,0L18.4,0" style="fill:none;fill-rule:nonzero;stroke:rgb(193,163,119);stroke-width:0.96px;"/>
    </g>
    <g transform="matrix(0,-0.781507,0.784519,0,22.4686,15.13)">
        <circle cx="7.68" cy="0" r="7.68" style="fill:rgb(193,163,119);"/>
    </g>
    <g transform="matrix(0,-0.781507,0.784519,0,83.6611,320.543)">
        <path d="M13.04,-12.88C5.84,-12.88 0.08,-7.12 0.08,0.08C0.08,7.12 5.84,13.04 13.04,13.04C20.08,13.04 25.84,7.12 25.84,0.08C25.84,-7.12 20.08,-12.88 13.04,-12.88Z" style="fill:rgb(193,163,119);"/>
    </g>
    <g transform="matrix(0,-0.781507,0.784519,0,22.4686,376.999)">
        <circle cx="7.68" cy="0" r="7.68" style="fill:rgb(193,163,119);"/>
    </g>
    <g transform="matrix(0,-0.781507,0.784519,0,36.2134,320.543)">
        <ellipse cx="12.96" cy="0.08" rx="12.88" ry="12.96" style="fill:rgb(193,163,119);"/>
    </g>
    <g transform="matrix(0.784519,0,0,-0.781507,-76.0669,193.439)">
        <rect x="108.16" y="158.72" width="25.76" height="25.76" style="fill:rgb(193,163,119);"/>
    </g>
    <g transform="matrix(0.784519,0,0,-0.781507,67.2803,36.0118)">
        <path d="M0,15.36L-10.24,15.36L-10.24,0M-10.24,7.68L-2.56,7.68M4.96,15.36L4.96,0M4.96,15.36L12.64,15.36C14.08,15.36 15.2,14.08 15.2,12.8L15.2,10.24C15.2,8.8 14.08,7.68 12.64,7.68L4.96,7.68M7.52,7.68L15.2,0M30.56,15.36L20.32,15.36L20.32,0L30.56,0M20.32,7.68L28,7.68M35.68,2.56L35.68,12.8C35.68,14.08 36.8,15.36 38.24,15.36L43.2,15.36C44.64,15.36 45.76,14.08 45.76,12.8L45.76,2.56C45.76,1.12 44.64,0 43.2,0L38.24,0C36.8,0 35.68,1.12 35.68,2.56M40.8,5.12L45.76,0M58.56,7.68C60,7.68 61.12,6.56 61.12,5.12L61.12,2.56C61.12,1.12 60,0 58.56,0L53.44,0C52,0 50.88,1.12 50.88,2.56M58.56,7.68L53.44,7.68C52,7.68 50.88,8.8 50.88,10.24L50.88,12.8C50.88,14.08 52,15.36 53.44,15.36L58.56,15.36C60,15.36 61.12,14.08 61.12,12.8" style="fill:none;fill-rule:nonzero;stroke:rgb(193,163,119);stroke-width:2.08px;"/>
    </g>
    <g transform="matrix(0.784519,0,0,-0.781507,-76.0669,695.479)">
        <path d="M143.2,492.8L203.68,492.8" style="fill:none;fill-rule:nonzero;stroke:rgb(193,163,119);stroke-width:7.68px;"/>
    </g>
    <g transform="matrix(0,-0.781507,0.784519,0,44.9372,63.6459)">
        <path d="M5.6,-5.44C2.56,-5.44 -0,-2.88 -0,0.16C-0,3.2 2.56,5.6 5.6,5.6C8.64,5.6 11.04,3.2 11.04,0.16C11.04,-2.88 8.64,-5.44 5.6,-5.44Z" style="fill:rgb(193,163,119);"/>
    </g>
    <g transform="matrix(0,-0.781507,0.784519,0,74.6862,63.6459)">
        <path d="M5.6,-5.44C2.56,-5.44 -0,-3.04 -0,0C-0,3.04 2.56,5.6 5.6,5.6C8.64,5.6 11.04,3.04 11.04,0C11.04,-3.04 8.64,-5.44 5.6,-5.44Z" style="fill:rgb(193,163,119);"/>
    </g>
    <g transform="matrix(0,-0.781507,0.784519,0,74.8117,93.1556)">
        <path d="M5.44,-5.6C2.4,-5.6 -0,-3.2 -0,-0.16C-0,2.88 2.4,5.44 5.44,5.44C8.48,5.44 11.04,2.88 11.04,-0.16C11.04,-3.2 8.48,-5.6 5.44,-5.6Z" style="fill:rgb(193,163,119);"/>
    </g>
    <g transform="matrix(0,-0.781507,0.784519,0,45.0628,93.1556)">
        <path d="M5.44,-5.6C2.4,-5.6 -0,-3.04 -0,0C-0,3.04 2.4,5.44 5.44,5.44C8.48,5.44 11.04,3.04 11.04,0C11.04,-3.04 8.48,-5.6 5.44,-5.6Z" style="fill:rgb(193,163,119);"/>
    </g>
    <g transform="matrix(0.553565,-0.553776,0.55591,0.55144,-141.937,65.007)">
        <path d="M146.523,190.48L200.037,190.48" style="fill:none;fill-rule:nonzero;stroke:rgb(193,163,119);stroke-width:3.83px;"/>
    </g>
    <g transform="matrix(0.553565,0.553776,-0.55591,0.55144,69.8425,-126.91)">
        <path d="M146.523,190.48L200.037,190.48" style="fill:none;fill-rule:nonzero;stroke:rgb(193,163,119);stroke-width:3.85px;"/>
    </g>
    <g transform="matrix(0,-0.781507,0.784519,0,60,96.0316)">
        <path d="M28.32,-28.32C12.64,-28.32 -0,-15.68 -0,0C-0,15.68 12.64,28.32 28.32,28.32C44,28.32 56.64,15.68 56.64,0C56.64,-15.68 44,-28.32 28.32,-28.32" style="fill:none;fill-rule:nonzero;stroke:rgb(193,163,119);stroke-width:1.92px;"/>
    </g>
    <g transform="matrix(0,-0.781507,0.784519,0,45.0628,122.665)">
        <path d="M5.44,-5.6C2.4,-5.6 -0,-3.04 -0,0C-0,3.04 2.4,5.44 5.44,5.44C8.48,5.44 11.04,3.04 11.04,0C11.04,-3.04 8.48,-5.6 5.44,-5.6Z" style="fill:rgb(193,163,119);"/>
    </g>
    <g transform="matrix(0,-0.781507,0.784519,0,74.8117,122.665)">
        <path d="M5.44,-5.6C2.4,-5.6 -0,-3.2 -0,-0.16C-0,2.88 2.4,5.44 5.44,5.44C8.48,5.44 11.04,2.88 11.04,-0.16C11.04,-3.2 8.48,-5.6 5.44,-5.6Z" style="fill:rgb(193,163,119);"/>
    </g>
    <g transform="matrix(0,-0.781507,0.784519,0,74.6862,152.3)">
        <path d="M5.6,-5.44C2.56,-5.44 -0,-3.04 -0,0C-0,3.04 2.56,5.6 5.6,5.6C8.64,5.6 11.04,3.04 11.04,0C11.04,-3.04 8.64,-5.44 5.6,-5.44Z" style="fill:rgb(193,163,119);"/>
    </g>
    <g transform="matrix(0,-0.781507,0.784519,0,44.9372,152.3)">
        <path d="M5.6,-5.44C2.56,-5.44 -0,-2.88 -0,0.16C-0,3.2 2.56,5.6 5.6,5.6C8.64,5.6 11.04,3.2 11.04,0.16C11.04,-2.88 8.64,-5.44 5.6,-5.44Z" style="fill:rgb(193,163,119);"/>
    </g>
    <g transform="matrix(0.554739,-0.552609,0.554738,0.552609,-183.855,81.8866)">
        <path d="M146.58,266.08L199.98,266.08" style="fill:none;fill-rule:nonzero;stroke:rgb(193,163,119);stroke-width:3.83px;"/>
    </g>
    <g transform="matrix(0.554739,0.552609,-0.554738,0.552609,111.354,-109.625)">
        <path d="M146.58,266.08L199.98,266.08" style="fill:none;fill-rule:nonzero;stroke:rgb(193,163,119);stroke-width:3.85px;"/>
    </g>
    <g transform="matrix(0,-0.781507,0.784519,0,60,155.176)">
        <path d="M28.32,-28.32C12.64,-28.32 -0,-15.68 -0,0C-0,15.68 12.64,28.32 28.32,28.32C44,28.32 56.64,15.68 56.64,0C56.64,-15.68 44,-28.32 28.32,-28.32" style="fill:none;fill-rule:nonzero;stroke:rgb(193,163,119);stroke-width:1.92px;"/>
    </g>
    <g transform="matrix(0,-0.781507,0.784519,0,44.9372,181.81)">
        <path d="M5.6,-5.44C2.56,-5.44 -0,-2.88 -0,0.16C-0,3.2 2.56,5.6 5.6,5.6C8.64,5.6 11.04,3.2 11.04,0.16C11.04,-2.88 8.64,-5.44 5.6,-5.44Z" style="fill:rgb(193,163,119);"/>
    </g>
    <g transform="matrix(0,-0.781507,0.784519,0,74.6862,181.81)">
        <path d="M5.6,-5.44C2.56,-5.44 -0,-3.04 -0,0C-0,3.04 2.56,5.6 5.6,5.6C8.64,5.6 11.04,3.04 11.04,0C11.04,-3.04 8.64,-5.44 5.6,-5.44Z" style="fill:rgb(193,163,119);"/>
    </g>
    <g transform="matrix(0,-0.781507,0.784519,0,74.8117,211.32)">
        <path d="M5.44,-5.6C2.4,-5.6 -0,-3.2 -0,-0.16C-0,2.88 2.4,5.44 5.44,5.44C8.64,5.44 11.04,2.88 11.04,-0.16C11.04,-3.2 8.64,-5.6 5.44,-5.6Z" style="fill:rgb(193,163,119);"/>
    </g>
    <g transform="matrix(0,-0.781507,0.784519,0,45.0628,211.32)">
        <path d="M5.44,-5.6C2.4,-5.6 -0,-3.04 -0,0C-0,3.04 2.4,5.44 5.44,5.44C8.64,5.44 11.04,3.04 11.04,0C11.04,-3.04 8.64,-5.6 5.44,-5.6Z" style="fill:rgb(193,163,119);"/>
    </g>
    <g transform="matrix(0.553564,-0.553776,0.55591,0.551439,-225.991,99.7933)">
        <path d="M146.523,341.68L200.037,341.68" style="fill:none;fill-rule:nonzero;stroke:rgb(193,163,119);stroke-width:3.83px;"/>
    </g>
    <g transform="matrix(0.553564,0.553776,-0.55591,0.551439,153.896,-92.1234)">
        <path d="M146.523,341.68L200.037,341.68" style="fill:none;fill-rule:nonzero;stroke:rgb(193,163,119);stroke-width:3.85px;"/>
    </g>
    <g transform="matrix(0,-0.781507,0.784519,0,60,214.195)">
        <path d="M28.32,-28.32C12.64,-28.32 -0,-15.68 -0,0C-0,15.68 12.64,28.32 28.32,28.32C44,28.32 56.64,15.68 56.64,0C56.64,-15.68 44,-28.32 28.32,-28.32" style="fill:none;fill-rule:nonzero;stroke:rgb(193,163,119);stroke-width:1.92px;"/>
    </g>
    <g transform="matrix(0,-0.781507,0.784519,0,45.0628,240.829)">
        <path d="M5.44,-5.6C2.4,-5.6 -0,-3.04 -0,0C-0,3.04 2.4,5.44 5.44,5.44C8.48,5.44 11.04,3.04 11.04,0C11.04,-3.04 8.48,-5.6 5.44,-5.6Z" style="fill:rgb(193,163,119);"/>
    </g>
    <g transform="matrix(0,-0.781507,0.784519,0,74.8117,240.829)">
        <path d="M5.44,-5.6C2.4,-5.6 -0,-3.2 -0,-0.16C-0,2.88 2.4,5.44 5.44,5.44C8.48,5.44 11.04,2.88 11.04,-0.16C11.04,-3.2 8.48,-5.6 5.44,-5.6Z" style="fill:rgb(193,163,119);"/>
    </g>
    <g transform="matrix(0,-0.781507,0.784519,0,74.8117,270.339)">
        <path d="M5.44,-5.6C2.4,-5.6 -0,-3.2 -0,-0.16C-0,2.88 2.4,5.44 5.44,5.44C8.48,5.44 11.04,2.88 11.04,-0.16C11.04,-3.2 8.48,-5.6 5.44,-5.6Z" style="fill:rgb(193,163,119);"/>
    </g>
    <g transform="matrix(0,-0.781507,0.784519,0,45.0628,270.339)">
        <path d="M5.44,-5.6C2.4,-5.6 -0,-3.04 -0,0C-0,3.04 2.4,5.44 5.44,5.44C8.48,5.44 11.04,3.04 11.04,0C11.04,-3.04 8.48,-5.6 5.44,-5.6Z" style="fill:rgb(193,163,119);"/>
    </g>
    <g transform="matrix(0.554739,-0.552609,0.554739,0.552609,-267.732,116.496)">
        <path d="M146.58,417.28L199.98,417.28" style="fill:none;fill-rule:nonzero;stroke:rgb(193,163,119);stroke-width:3.83px;"/>
    </g>
    <g transform="matrix(0.554739,0.552609,-0.554739,0.552609,195.231,-75.0161)">
        <path d="M146.58,417.28L199.98,417.28" style="fill:none;fill-rule:nonzero;stroke:rgb(193,163,119);stroke-width:3.85px;"/>
    </g>
    <g transform="matrix(0,-0.781507,0.784519,0,60.0628,273.277)">
        <path d="M28.24,-28.4C12.72,-28.4 -0.08,-15.76 -0.08,-0.08C-0.08,15.6 12.72,28.24 28.24,28.24C43.92,28.24 56.72,15.6 56.72,-0.08C56.72,-15.76 43.92,-28.4 28.24,-28.4" style="fill:none;fill-rule:nonzero;stroke:rgb(193,163,119);stroke-width:1.92px;"/>
    </g>
    <g transform="matrix(0.784519,0,0,-0.781507,-76.0669,400.257)">
        <path d="M108.16,411.36L133.92,411.36L133.92,385.6L108.16,385.6L108.16,411.36ZM108.16,373.6L133.92,373.6L133.92,347.84L108.16,347.84L108.16,373.6ZM108.16,335.84L133.92,335.84L133.92,309.92L108.16,309.92L108.16,335.84ZM108.16,297.92L133.92,297.92L133.92,272.16L108.16,272.16L108.16,297.92ZM108.16,260.16L133.92,260.16L133.92,234.4L108.16,234.4L108.16,260.16ZM108.16,222.4L133.92,222.4L133.92,196.64L108.16,196.64L108.16,222.4ZM108.16,184.64L133.92,184.64L133.92,158.72L108.16,158.72L108.16,184.64ZM212.96,449.12L238.72,449.12L238.72,423.36L212.96,423.36L212.96,449.12ZM212.96,411.36L238.72,411.36L238.72,385.6L212.96,385.6L212.96,411.36ZM212.96,373.6L238.72,373.6L238.72,347.84L212.96,347.84L212.96,373.6ZM212.96,335.84L238.72,335.84L238.72,309.92L212.96,309.92L212.96,335.84ZM212.96,297.92L238.72,297.92L238.72,272.16L212.96,272.16L212.96,297.92ZM212.96,260.16L238.72,260.16L238.72,234.4L212.96,234.4L212.96,260.16ZM212.96,222.4L238.72,222.4L238.72,196.64L212.96,196.64L212.96,222.4ZM212.96,184.64L238.72,184.64L238.72,158.72L212.96,158.72L212.96,184.64Z" style="fill:rgb(193,163,119);"/>
    </g>
    <g transform="matrix(0,0.781507,-0.784519,0,168.389,-20.5693)">
        <path d="M102.16,190.48L140.08,190.48" style="fill:none;fill-rule:nonzero;stroke:rgb(193,163,119);stroke-width:7.68px;"/>
    </g>
    <g transform="matrix(0,0.781507,-0.784519,0,227.699,38.5127)">
        <path d="M102.24,266.08L140,266.08" style="fill:none;fill-rule:nonzero;stroke:rgb(193,163,119);stroke-width:7.68px;"/>
    </g>
    <g transform="matrix(0,0.781507,-0.784519,0,287.008,97.5946)">
        <path d="M102.16,341.68L140.08,341.68" style="fill:none;fill-rule:nonzero;stroke:rgb(193,163,119);stroke-width:7.68px;"/>
    </g>
    <g transform="matrix(0,0.781507,-0.784519,0,346.318,156.677)">
        <path d="M102.24,417.28L140,417.28" style="fill:none;fill-rule:nonzero;stroke:rgb(193,163,119);stroke-width:7.68px;"/>
    </g>
    <g transform="matrix(0,0.781507,-0.784519,0,250.481,-102.346)">
        <path d="M206.8,190.48L244.72,190.48" style="fill:none;fill-rule:nonzero;stroke:rgb(193,163,119);stroke-width:7.68px;"/>
    </g>
    <g transform="matrix(0,0.781507,-0.784519,0,309.791,-43.2642)">
        <path d="M206.88,266.08L244.64,266.08" style="fill:none;fill-rule:nonzero;stroke:rgb(193,163,119);stroke-width:7.68px;"/>
    </g>
    <g transform="matrix(0,0.781507,-0.784519,0,369.1,15.8177)">
        <path d="M206.8,341.68L244.72,341.68" style="fill:none;fill-rule:nonzero;stroke:rgb(193,163,119);stroke-width:7.68px;"/>
    </g>
    <g transform="matrix(0,0.781507,-0.784519,0,428.41,74.8996)">
        <path d="M206.88,417.28L244.64,417.28" style="fill:none;fill-rule:nonzero;stroke:rgb(193,163,119);stroke-width:7.68px;"/>
    </g>
    <g transform="matrix(0,-0.781507,0.784519,0,22.5941,13.7545)">
        <circle cx="6" cy="-0.08" r="6"/>
    </g>
    <g transform="matrix(0,-0.781507,0.784519,0,83.6611,319.793)">
        <path d="M12.08,-11.92C5.36,-11.92 -0.08,-6.64 -0.08,0.08C-0.08,6.8 5.36,12.08 12.08,12.08C18.64,12.08 24.08,6.8 24.08,0.08C24.08,-6.64 18.64,-11.92 12.08,-11.92Z"/>
    </g>
    <g transform="matrix(0,-0.781507,0.784519,0,22.5941,375.624)">
        <circle cx="6" cy="-0.08" r="6"/>
    </g>
    <g transform="matrix(0,-0.781507,0.784519,0,36.2134,319.793)">
        <path d="M12.08,-11.92C5.36,-11.92 -0.08,-6.64 -0.08,0.08C-0.08,6.8 5.36,12.08 12.08,12.08C18.64,12.08 24.08,6.8 24.08,0.08C24.08,-6.64 18.64,-11.92 12.08,-11.92Z"/>
    </g>
    <g transform="matrix(0,-0.781507,0.784519,0,18.8912,68.7101)">
        <path d="M12.08,-11.92C5.36,-11.92 -0.08,-6.64 -0.08,0.08C-0.08,6.64 5.36,12.08 12.08,12.08C18.64,12.08 24.08,6.64 24.08,0.08C24.08,-6.64 18.64,-11.92 12.08,-11.92Z"/>
    </g>
    <g transform="matrix(0,-0.781507,0.784519,0,19.0167,98.2198)">
        <path d="M11.92,-12.08C5.36,-12.08 -0.08,-6.8 -0.08,-0.08C-0.08,6.48 5.36,11.92 11.92,11.92C18.64,11.92 24.08,6.48 24.08,-0.08C24.08,-6.8 18.64,-12.08 11.92,-12.08Z"/>
    </g>
    <g transform="matrix(0,-0.781507,0.784519,0,18.954,127.792)">
        <path d="M12,-12C5.44,-12 0,-6.72 0,0C0,6.56 5.44,12 12,12C18.72,12 24,6.56 24,0C24,-6.72 18.72,-12 12,-12Z"/>
    </g>
    <g transform="matrix(0,-0.781507,0.784519,0,18.954,157.302)">
        <path d="M12,-12C5.28,-12 0,-6.72 0,0C0,6.56 5.28,12 12,12C18.72,12 24,6.56 24,0C24,-6.72 18.72,-12 12,-12Z"/>
    </g>
    <g transform="matrix(0,-0.781507,0.784519,0,18.8912,186.874)">
        <path d="M12.08,-11.92C5.36,-11.92 -0.08,-6.64 -0.08,0.08C-0.08,6.64 5.36,12.08 12.08,12.08C18.64,12.08 24.08,6.64 24.08,0.08C24.08,-6.64 18.64,-11.92 12.08,-11.92Z"/>
    </g>
    <g transform="matrix(0,-0.781507,0.784519,0,19.0167,216.384)">
        <path d="M11.92,-12.08C5.36,-12.08 -0.08,-6.8 -0.08,-0.08C-0.08,6.48 5.36,11.92 11.92,11.92C18.64,11.92 24.08,6.48 24.08,-0.08C24.08,-6.8 18.64,-12.08 11.92,-12.08Z"/>
    </g>
    <g transform="matrix(0,-0.781507,0.784519,0,19.0167,245.893)">
        <path d="M11.92,-12.08C5.36,-12.08 -0.08,-6.8 -0.08,-0.08C-0.08,6.48 5.36,11.92 11.92,11.92C18.64,11.92 24.08,6.48 24.08,-0.08C24.08,-6.8 18.64,-12.08 11.92,-12.08Z"/>
    </g>
    <g transform="matrix(0,-0.781507,0.784519,0,18.954,275.466)">
        <path d="M12,-12C5.28,-12 0,-6.72 0,0C0,6.56 5.28,12 12,12C18.72,12 24,6.56 24,0C24,-6.72 18.72,-12 12,-12Z"/>
    </g>
    <g transform="matrix(0,-0.781507,0.784519,0,100.983,68.7101)">
        <path d="M12.08,-11.92C5.36,-11.92 -0.08,-6.48 -0.08,0.08C-0.08,6.8 5.36,12.08 12.08,12.08C18.64,12.08 24.08,6.8 24.08,0.08C24.08,-6.48 18.64,-11.92 12.08,-11.92Z"/>
    </g>
    <g transform="matrix(0,-0.781507,0.784519,0,101.109,98.2198)">
        <path d="M11.92,-12.08C5.36,-12.08 -0.08,-6.64 -0.08,-0.08C-0.08,6.64 5.36,11.92 11.92,11.92C18.64,11.92 24.08,6.64 24.08,-0.08C24.08,-6.64 18.64,-12.08 11.92,-12.08Z"/>
    </g>
    <g transform="matrix(0,-0.781507,0.784519,0,101.046,127.792)">
        <path d="M12,-12C5.44,-12 0,-6.56 0,0C0,6.72 5.44,12 12,12C18.72,12 24,6.72 24,0C24,-6.56 18.72,-12 12,-12Z"/>
    </g>
    <g transform="matrix(0,-0.781507,0.784519,0,101.046,157.302)">
        <path d="M12,-12C5.28,-12 0,-6.56 0,0C0,6.72 5.28,12 12,12C18.72,12 24,6.72 24,0C24,-6.56 18.72,-12 12,-12Z"/>
    </g>
    <g transform="matrix(0,-0.781507,0.784519,0,100.983,186.874)">
        <path d="M12.08,-11.92C5.36,-11.92 -0.08,-6.48 -0.08,0.08C-0.08,6.8 5.36,12.08 12.08,12.08C18.64,12.08 24.08,6.8 24.08,0.08C24.08,-6.48 18.64,-11.92 12.08,-11.92Z"/>
    </g>
    <g transform="matrix(0,-0.781507,0.784519,0,101.109,216.384)">
        <path d="M11.92,-12.08C5.36,-12.08 -0.08,-6.64 -0.08,-0.08C-0.08,6.64 5.36,11.92 11.92,11.92C18.64,11.92 24.08,6.64 24.08,-0.08C24.08,-6.64 18.64,-12.08 11.92,-12.08Z"/>
    </g>
    <g transform="matrix(0,-0.781507,0.784519,0,101.109,245.893)">
        <path d="M11.92,-12.08C5.36,-12.08 -0.08,-6.64 -0.08,-0.08C-0.08,6.64 5.36,11.92 11.92,11.92C18.64,11.92 24.08,6.64 24.08,-0.08C24.08,-6.64 18.64,-12.08 11.92,-12.08Z"/>
    </g>
    <g transform="matrix(0,-0.781507,0.784519,0,101.046,275.466)">
        <path d="M12,-12C5.28,-12 0,-6.56 0,0C0,6.72 5.28,12 12,12C18.72,12 24,6.72 24,0C24,-6.56 18.72,-12 12,-12Z"/>
    </g>
    <g transform="matrix(-0.784519,0,0,-0.781507,196.067,75.2748)">
        <path d="M97.28,96L249.6,96" style="fill:none;fill-rule:nonzero;stroke:black;stroke-width:0.64px;"/>
    </g>
    <g transform="matrix(0,0.781507,-0.784519,0,266.046,113.975)">
        <path d="M-145.52,338.8L340.08,338.8" style="fill:none;fill-rule:nonzero;stroke:black;stroke-width:0.64px;"/>
    </g>
    <g transform="matrix(0.784519,0,0,-0.781507,-76.0669,834.274)">
        <path d="M97.28,581.6L249.6,581.6" style="fill:none;fill-rule:nonzero;stroke:black;stroke-width:0.64px;"/>
    </g>
    <g transform="matrix(0,-0.781507,0.784519,0,-146.046,385.064)">
        <path d="M6.8,338.8L492.4,338.8" style="fill:none;fill-rule:nonzero;stroke:black;stroke-width:0.64px;"/>
    </g>
</svg>
