<svg xmlns="http://www.w3.org/2000/svg" width="30mm" height="128.5mm" viewBox="0 0 85.04 364.25">
  <title>BOOLs-export</title>
  <g id="bright">
    <rect width="85.04" height="364.25" style="fill: #e6e5e5"/>
  </g>
  <g id="graphics">
    <g>
      <path d="M8.52,157.81A3.79,3.79,0,1,1,12.31,154,3.79,3.79,0,0,1,8.52,157.81Zm0-6.87A3.08,3.08,0,1,0,11.6,154,3.08,3.08,0,0,0,8.52,150.94Z" style="fill: #ae076a"/>
      <path d="M8.52,156.08a.35.35,0,0,1-.35-.35v-3.41a.36.36,0,1,1,.71,0v3.41A.36.36,0,0,1,8.52,156.08Z" style="fill: #ae076a"/>
    </g>
    <g>
      <path d="M8.52,229.81A3.79,3.79,0,1,1,12.31,226,3.79,3.79,0,0,1,8.52,229.81Zm0-6.87A3.08,3.08,0,1,0,11.6,226,3.08,3.08,0,0,0,8.52,222.94Z" style="fill: #ae076a"/>
      <g>
        <path d="M8.52,228.08a.35.35,0,0,1-.35-.35v-3.41a.36.36,0,1,1,.71,0v3.41A.36.36,0,0,1,8.52,228.08Z" style="fill: #ae076a"/>
        <path d="M7.11,228.08a.36.36,0,0,1-.36-.35v-3.41a.36.36,0,1,1,.71,0v3.41A.35.35,0,0,1,7.11,228.08Z" style="fill: #ae076a"/>
        <path d="M9.94,228.08a.36.36,0,0,1-.36-.35v-3.41a.36.36,0,1,1,.71,0v3.41A.35.35,0,0,1,9.94,228.08Z" style="fill: #ae076a"/>
      </g>
    </g>
    <g>
      <path d="M8.52,265.81A3.79,3.79,0,1,1,12.31,262,3.79,3.79,0,0,1,8.52,265.81Zm0-6.87A3.08,3.08,0,1,0,11.6,262,3.08,3.08,0,0,0,8.52,258.94Z" style="fill: #2c7896"/>
      <path d="M7.11,264.08a.36.36,0,0,1-.36-.35v-3.41a.36.36,0,1,1,.71,0v3.41A.35.35,0,0,1,7.11,264.08Z" style="fill: #2c7896"/>
      <path d="M9.18,264.12h0a.39.39,0,0,1-.36-.31l-.66-3.33a.38.38,0,0,1,.74-.14L9.22,262l.42-1.7a.38.38,0,0,1,.46-.27.37.37,0,0,1,.27.45l-.83,3.33A.37.37,0,0,1,9.18,264.12Z" style="fill: #2c7896"/>
    </g>
    <g>
      <path d="M8.52,193.81A3.79,3.79,0,1,1,12.31,190,3.79,3.79,0,0,1,8.52,193.81Zm0-6.87A3.08,3.08,0,1,0,11.6,190,3.08,3.08,0,0,0,8.52,186.94Z" style="fill: #2c7896"/>
      <path d="M7.67,192.08a.35.35,0,0,1-.35-.35v-3.41a.36.36,0,1,1,.71,0v3.41A.36.36,0,0,1,7.67,192.08Z" style="fill: #2c7896"/>
      <path d="M9.37,192.08a.35.35,0,0,1-.35-.35v-3.41a.36.36,0,1,1,.71,0v3.41A.36.36,0,0,1,9.37,192.08Z" style="fill: #2c7896"/>
    </g>
    <g>
      <path d="M33.54,18.47h0a3.17,3.17,0,0,1-3.28-3.18V8A3,3,0,0,1,33.49,5.1,2.89,2.89,0,0,1,36.64,8v7.34a3,3,0,0,1-3.1,3.18Zm0-12.66A2.27,2.27,0,0,0,31,8v7.34a2.44,2.44,0,0,0,2.57,2.47h0a2.41,2.41,0,0,0,1.65-.6,2.45,2.45,0,0,0,.74-1.87V8A2.2,2.2,0,0,0,33.49,5.81Z" style="fill: #211e1f"/>
      <path d="M41.69,18.47h0a3.17,3.17,0,0,1-3.28-3.18V8A3,3,0,0,1,41.64,5.1,2.9,2.9,0,0,1,44.79,8v7.34a3,3,0,0,1-3.1,3.18Zm0-12.66A2.27,2.27,0,0,0,39.12,8v7.34a2.44,2.44,0,0,0,2.57,2.47h0a2.41,2.41,0,0,0,1.65-.6,2.45,2.45,0,0,0,.74-1.87V8A2.2,2.2,0,0,0,41.64,5.81Z" style="fill: #211e1f"/>
      <path d="M49.84,18.47h0a3.17,3.17,0,0,1-3.28-3.18V8A3,3,0,0,1,49.79,5.1,2.9,2.9,0,0,1,52.94,8v7.34a3,3,0,0,1-3.1,3.18ZM49.79,5.81A2.27,2.27,0,0,0,47.27,8v7.34a2.44,2.44,0,0,0,2.57,2.47h0a2.41,2.41,0,0,0,1.65-.6,2.45,2.45,0,0,0,.74-1.87V8A2.2,2.2,0,0,0,49.79,5.81Z" style="fill: #211e1f"/>
      <path d="M25.37,18.12H22v-11a.38.38,0,1,1,.75,0V17.37h2.61A2.41,2.41,0,0,0,27.78,15v-.9a2.41,2.41,0,0,0-2.41-2.42H23.46v-.75h1.91a2.42,2.42,0,0,0,0-4.83H20.13a.38.38,0,1,1,0-.75h5.24a3.17,3.17,0,0,1,1.49,6,3.16,3.16,0,0,1,1.67,2.79V15A3.17,3.17,0,0,1,25.37,18.12Z" style="fill: #211e1f"/>
      <path d="M64.63,18.12H58.05a3.54,3.54,0,0,1-3.54-3.53V5.83a.38.38,0,0,1,.38-.38.37.37,0,0,1,.37.38v8.76a2.79,2.79,0,0,0,2.79,2.78h6.58a.38.38,0,1,1,0,.75Z" style="fill: #211e1f"/>
      <path d="M60.55,14.87H58.19a.38.38,0,1,1,0-.75h2.36a1.73,1.73,0,1,0,0-3.45h-.48a2.48,2.48,0,0,1-2.48-2.48V7.93a2.48,2.48,0,0,1,2.48-2.48h1.82a.38.38,0,1,1,0,.75H60.07a1.74,1.74,0,0,0-1.73,1.73v.26a1.74,1.74,0,0,0,1.73,1.73h.48a2.48,2.48,0,1,1,0,4.95Z" style="fill: #211e1f"/>
      <path d="M20.49,5.68a1.22,1.22,0,1,1-1.22-1.21A1.22,1.22,0,0,1,20.49,5.68Z" style="fill: #ae076a"/>
      <path d="M65.84,17.76a1.21,1.21,0,1,1-1.21-1.21A1.21,1.21,0,0,1,65.84,17.76Z" style="fill: #ae076a"/>
    </g>
    <g>
      <path d="M23.6,356.88c-.23-.46-.44-.91-.66-1.35-.36-.75-.8-1.66-1.09-2.28v3.52a.24.24,0,0,1-.26.25.24.24,0,0,1-.25-.25v-4.64a.26.26,0,0,1,.19-.25.26.26,0,0,1,.29.14c.22.45.43.91.65,1.35.36.74.81,1.66,1.1,2.28v-3.52a.26.26,0,1,1,.52,0v4.64a.26.26,0,0,1-.2.25A.26.26,0,0,1,23.6,356.88Z" style="fill: #211e1f"/>
      <path d="M25.1,356v-1.6a1,1,0,1,1,2.07,0V356a1,1,0,1,1-2.07,0Zm.47-1.6V356a.56.56,0,0,0,.56.56.55.55,0,0,0,.56-.56v-1.6a.55.55,0,0,0-.56-.56A.56.56,0,0,0,25.57,354.37Z" style="fill: #211e1f"/>
      <path d="M28.2,356.77V353.6a.24.24,0,0,1,.24-.24h.8a1,1,0,0,1,1,1v2.37A.24.24,0,0,1,30,357a.24.24,0,0,1-.24-.24V354.4a.56.56,0,0,0-.56-.56h-.56v2.93a.24.24,0,0,1-.24.24A.24.24,0,0,1,28.2,356.77Z" style="fill: #211e1f"/>
      <path d="M31.31,356.22V352a.24.24,0,0,1,.24-.24.23.23,0,0,1,.24.24v4.25a.39.39,0,0,0,.2.34.23.23,0,0,1,.09.33.24.24,0,0,1-.33.09A.91.91,0,0,1,31.31,356.22Z" style="fill: #211e1f"/>
      <path d="M32.86,352.37a.32.32,0,1,1,.32.32A.31.31,0,0,1,32.86,352.37Zm.32,4.64a.24.24,0,0,1-.24-.24v-3.2a.24.24,0,0,1,.24-.24.23.23,0,0,1,.23.24v3.2A.23.23,0,0,1,33.18,357Z" style="fill: #211e1f"/>
      <path d="M34.53,356.77V353.6a.25.25,0,0,1,.25-.24h.79a1,1,0,0,1,1,1v2.37a.24.24,0,0,1-.48,0V354.4a.55.55,0,0,0-.56-.56H35v2.93a.24.24,0,0,1-.23.24A.25.25,0,0,1,34.53,356.77Z" style="fill: #211e1f"/>
      <path d="M37.57,356v-1.6a1,1,0,0,1,2.08,0v.8a.24.24,0,0,1-.24.24H38.05V356a.56.56,0,0,0,.35.52.55.55,0,0,0,.61-.12.2.2,0,0,1,.16-.07.23.23,0,0,1,.18.07.19.19,0,0,1,.07.17.2.2,0,0,1-.07.16,1,1,0,0,1-1.14.23A1,1,0,0,1,37.57,356Zm.48-1.6v.56h1.12v-.56a.55.55,0,0,0-.56-.56A.56.56,0,0,0,38.05,354.37Z" style="fill: #211e1f"/>
      <path d="M41.89,354.35a.55.55,0,0,0-.33-.5A.51.51,0,0,0,41,354a.24.24,0,0,1-.18.07.23.23,0,0,1-.17-.07.22.22,0,0,1-.07-.17.21.21,0,0,1,.07-.17,1,1,0,0,1,1.12-.22,1,1,0,0,1,.63.94v2.39a.24.24,0,0,1-.24.24h-.8a1,1,0,1,1,0-2.08h.56Zm-.56,2.15h.56v-1.12h-.56a.54.54,0,0,0-.55.56A.55.55,0,0,0,41.33,356.5Z" style="fill: #211e1f"/>
      <path d="M43.43,356.77V353.6a.24.24,0,0,1,.24-.24h.8a1.1,1.1,0,0,1,.52.14.24.24,0,0,1,.09.33.23.23,0,0,1-.33.08.68.68,0,0,0-.28-.07h-.56v2.93a.24.24,0,1,1-.48,0Z" style="fill: #211e1f"/>
      <path d="M45.65,356v-1.6a1,1,0,0,1,.64-1,1.05,1.05,0,0,1,1.13.22.29.29,0,0,1,.07.18.28.28,0,0,1-.07.17.27.27,0,0,1-.34,0,.54.54,0,0,0-.61-.13.54.54,0,0,0-.34.52V356a.56.56,0,0,0,.95.4.24.24,0,0,1,.34,0,.22.22,0,0,1,.07.17.24.24,0,0,1-.07.16,1,1,0,0,1-1.13.23A1,1,0,0,1,45.65,356Z" style="fill: #211e1f"/>
      <path d="M48.29,352.37a.31.31,0,0,1,.32-.32.32.32,0,1,1,0,.64A.31.31,0,0,1,48.29,352.37Zm.32,4.64a.24.24,0,0,1-.24-.24v-3.2a.24.24,0,0,1,.48,0v3.2A.24.24,0,0,1,48.61,357Z" style="fill: #211e1f"/>
      <path d="M50,356.77V353.6a.24.24,0,0,1,.24-.24H51a1.1,1.1,0,0,1,.52.14.23.23,0,0,1,.08.33.22.22,0,0,1-.33.08.64.64,0,0,0-.27-.07h-.57v2.93a.24.24,0,1,1-.47,0Z" style="fill: #211e1f"/>
      <path d="M52.18,356v-1.6a1,1,0,0,1,.64-1,1.07,1.07,0,0,1,1.14.22.28.28,0,0,1,.06.18A.27.27,0,0,1,54,354a.28.28,0,0,1-.18.06.27.27,0,0,1-.17-.06.52.52,0,0,0-.6-.13.55.55,0,0,0-.35.52V356a.56.56,0,0,0,.35.52.54.54,0,0,0,.6-.12.23.23,0,0,1,.17-.07.24.24,0,0,1,.18.07.22.22,0,0,1,.06.17.23.23,0,0,1-.06.16,1.05,1.05,0,0,1-1.14.23A1,1,0,0,1,52.18,356Z" style="fill: #211e1f"/>
      <path d="M54.84,355.94v-2.37a.23.23,0,0,1,.24-.24.24.24,0,0,1,.24.24v2.37a.56.56,0,0,0,.56.56h.56v-2.93a.23.23,0,0,1,.24-.24.24.24,0,0,1,.24.24v3.17a.24.24,0,0,1-.24.24h-.8A1,1,0,0,1,54.84,355.94Z" style="fill: #211e1f"/>
      <path d="M58,352.37a.31.31,0,0,1,.32-.32.32.32,0,1,1,0,.64A.31.31,0,0,1,58,352.37Zm.32,4.64a.24.24,0,0,1-.24-.24v-3.2a.24.24,0,0,1,.48,0v3.2A.24.24,0,0,1,58.28,357Z" style="fill: #211e1f"/>
      <path d="M59.29,353.6a.24.24,0,0,1,.24-.24h.4V352a.23.23,0,0,1,.24-.24.24.24,0,0,1,.24.24v1.39H61a.24.24,0,0,1,.24.24.23.23,0,0,1-.24.24h-.55V356a.55.55,0,0,0,.55.56.23.23,0,0,1,.24.24A.24.24,0,0,1,61,357a1,1,0,0,1-1-1v-2.13h-.4A.23.23,0,0,1,59.29,353.6Z" style="fill: #211e1f"/>
      <path d="M63.22,356a.49.49,0,0,0-.21-.38l-.75-.53a.92.92,0,0,1-.4-.72.88.88,0,0,1,.31-.76,1,1,0,0,1,.79-.25,1,1,0,0,1,.69.47.24.24,0,0,1-.09.33.24.24,0,0,1-.33-.09.44.44,0,0,0-.34-.23.42.42,0,0,0-.4.12.46.46,0,0,0,0,.74l.74.52a1,1,0,0,1,.42.75A1,1,0,0,1,62.57,357a1,1,0,0,1-.71-.49.23.23,0,0,1,.08-.33.24.24,0,0,1,.33.09.51.51,0,0,0,.37.25.52.52,0,0,0,.42-.13A.46.46,0,0,0,63.22,356Z" style="fill: #211e1f"/>
    </g>
    <g>
      <path d="M36.93,91.44a.82.82,0,0,0-.23-.65l-1.44-1.48a1.37,1.37,0,0,1,.16-2,1.31,1.31,0,0,1,1.1-.25,1.38,1.38,0,0,1,.91.65.29.29,0,0,1-.11.4.28.28,0,0,1-.39-.11.8.8,0,0,0-.53-.38.81.81,0,0,0-.64.15.74.74,0,0,0-.3.56.81.81,0,0,0,.21.62l1.44,1.48a1.47,1.47,0,0,1,.4,1.09,1.42,1.42,0,0,1-1.7,1.28,1.41,1.41,0,0,1-.94-.68.29.29,0,0,1,.11-.39.28.28,0,0,1,.39.11A.85.85,0,0,0,36.6,92,.81.81,0,0,0,36.93,91.44Z"/>
      <path d="M38.49,92.46V87.28a.28.28,0,0,1,.29-.29.28.28,0,0,1,.28.29v4.89h1.52a.29.29,0,0,1,0,.58h-1.8A.28.28,0,0,1,38.49,92.46Z"/>
      <path d="M41.62,87.31a.29.29,0,0,1,.29-.29h1.8a.29.29,0,1,1,0,.58H42.2v1.91h1.33a.29.29,0,0,1,0,.58H42.2v2.08h1.51a.29.29,0,0,1,0,.58h-1.8a.29.29,0,0,1-.29-.29Z"/>
      <path d="M44.87,87a.29.29,0,0,1,.35.21l1,4.06c.33-1.4,1-4.06,1-4.06a.29.29,0,0,1,.56,0l1,4.06c.33-1.4,1-4.06,1-4.06A.28.28,0,0,1,50,87a.28.28,0,0,1,.22.35L49,92.57a.29.29,0,0,1-.56,0s-.65-2.66-1-4.07l-1,4.07a.29.29,0,0,1-.28.22.28.28,0,0,1-.28-.22l-1.26-5.22A.28.28,0,0,1,44.87,87Z"/>
    </g>
    <g>
      <path d="M34.93,137.83a.73.73,0,0,0-.2-.58l-1.28-1.31a1.2,1.2,0,0,1-.34-.93,1.19,1.19,0,0,1,.48-.88,1.22,1.22,0,0,1,1-.23,1.2,1.2,0,0,1,.8.59.24.24,0,0,1-.09.35.26.26,0,0,1-.35-.1.7.7,0,0,0-.47-.33.69.69,0,0,0-.56.12.73.73,0,0,0-.28.51.71.71,0,0,0,.2.54l1.27,1.32a1.23,1.23,0,0,1-.14,1.87,1.26,1.26,0,0,1-1.85-.37.27.27,0,0,1,.1-.35.25.25,0,0,1,.35.1.75.75,0,0,0,.5.35.74.74,0,0,0,.59-.14A.7.7,0,0,0,34.93,137.83Z"/>
      <path d="M39,138.71a.25.25,0,0,1-.18.31.26.26,0,0,1-.32-.18s-.1-.39-.25-.93H36.73l-.26.93a.25.25,0,1,1-.49-.13l1.27-4.64a.28.28,0,0,1,.25-.19.27.27,0,0,1,.25.19Zm-.9-1.31c-.21-.8-.47-1.72-.63-2.31l-.63,2.31Z"/>
      <path d="M39.78,138.77v-4.64a.24.24,0,0,1,.19-.24.26.26,0,0,1,.29.13l1.05,2.23,1-2.23a.26.26,0,0,1,.29-.13.25.25,0,0,1,.2.24v4.64a.26.26,0,0,1-.52,0v-3.49L41.54,137a.26.26,0,0,1-.23.15.25.25,0,0,1-.23-.15s-.43-.89-.79-1.68v3.49A.26.26,0,0,1,40,139,.26.26,0,0,1,39.78,138.77Z"/>
      <path d="M44.19,133.91h1a1.22,1.22,0,0,1,1.22,1.22v.44a1.22,1.22,0,0,1-1.22,1.22h-.7v2a.26.26,0,1,1-.51,0v-4.6A.25.25,0,0,1,44.19,133.91Zm1,.51h-.7v1.86h.7a.71.71,0,0,0,.7-.71v-.44A.71.71,0,0,0,45.15,134.42Z"/>
      <path d="M47.14,138.74v-4.61a.25.25,0,0,1,.25-.25.26.26,0,0,1,.26.25v4.35H49a.26.26,0,1,1,0,.51h-1.6A.25.25,0,0,1,47.14,138.74Z"/>
      <path d="M49.92,134.17a.25.25,0,0,1,.26-.26h1.59a.26.26,0,1,1,0,.51H50.43v1.7h1.18a.26.26,0,1,1,0,.51H50.43v1.85h1.34a.26.26,0,1,1,0,.51H50.18a.25.25,0,0,1-.26-.25Z"/>
    </g>
    <path d="M32,328.74a.35.35,0,0,1-.3-.17.36.36,0,0,1,.12-.49,14.83,14.83,0,1,0-15.32,0,.37.37,0,0,1,.12.49.36.36,0,0,1-.49.12,15.54,15.54,0,1,1,16.06,0A.41.41,0,0,1,32,328.74Z" style="fill: #ae076a"/>
    <g>
      <path d="M19.16,334.16a.75.75,0,0,0-.21-.57l-1.28-1.32a1.15,1.15,0,0,1-.33-.93,1.19,1.19,0,0,1,.48-.88,1.16,1.16,0,0,1,1-.22,1.23,1.23,0,0,1,.81.58.25.25,0,0,1-.1.35.24.24,0,0,1-.34-.09.71.71,0,0,0-.47-.34.72.72,0,0,0-.57.13.67.67,0,0,0-.27.5.69.69,0,0,0,.19.55l1.28,1.31a1.25,1.25,0,0,1,.35,1,1.28,1.28,0,0,1-1.5,1.14,1.3,1.3,0,0,1-.84-.6.26.26,0,0,1,.45-.26.68.68,0,0,0,.49.35.74.74,0,0,0,.89-.67Z"/>
      <path d="M20.54,335.07v-4.6a.26.26,0,1,1,.52,0v4.35H22.4a.26.26,0,0,1,0,.51H20.8A.26.26,0,0,1,20.54,335.07Z"/>
      <path d="M23.33,330.5a.26.26,0,0,1,.25-.26h1.6a.26.26,0,0,1,0,.52H23.84v1.69H25a.26.26,0,1,1,0,.51H23.84v1.86h1.34a.26.26,0,1,1,0,.51h-1.6a.25.25,0,0,1-.25-.26Z"/>
      <path d="M26.22,330.22a.26.26,0,0,1,.31.19L27.4,334l.87-3.61a.26.26,0,0,1,.25-.2.26.26,0,0,1,.25.2l.87,3.61c.29-1.25.87-3.61.87-3.61a.25.25,0,0,1,.3-.19.26.26,0,0,1,.2.31l-1.12,4.64a.27.27,0,0,1-.25.19.25.25,0,0,1-.25-.19s-.58-2.37-.87-3.62c-.31,1.25-.87,3.62-.87,3.62a.26.26,0,0,1-.5,0L26,330.53A.26.26,0,0,1,26.22,330.22Z"/>
    </g>
    <g>
      <path d="M57,334.16a.75.75,0,0,0-.21-.57l-1.28-1.32a1.19,1.19,0,0,1-.34-.93,1.22,1.22,0,0,1,.48-.88,1.18,1.18,0,0,1,1-.22,1.26,1.26,0,0,1,.81.58.25.25,0,0,1-.1.35.24.24,0,0,1-.34-.09.72.72,0,0,0-.48-.34.7.7,0,0,0-.56.13.71.71,0,0,0-.28.5.74.74,0,0,0,.2.55l1.28,1.31a1.32,1.32,0,0,1,.35,1,1.23,1.23,0,0,1-.5.9,1.26,1.26,0,0,1-1,.24,1.32,1.32,0,0,1-.84-.6.27.27,0,0,1,.1-.35.24.24,0,0,1,.35.09.75.75,0,0,0,1.39-.32Z"/>
      <path d="M60.41,330.24a.26.26,0,0,1,0,.52h-.79v4.34a.25.25,0,0,1-.25.26.26.26,0,0,1-.26-.26v-4.34h-.78a.26.26,0,0,1,0-.52Z"/>
      <path d="M61.43,330.5a.26.26,0,0,1,.26-.26h1.6a.26.26,0,0,1,0,.52H61.94v1.69h1.19a.26.26,0,0,1,0,.51H61.94v1.86h1.35a.26.26,0,0,1,0,.51h-1.6a.25.25,0,0,1-.26-.26Z"/>
      <path d="M64.63,330.24h1a1.22,1.22,0,0,1,1.22,1.22v.45a1.22,1.22,0,0,1-1.22,1.21h-.7v2a.26.26,0,0,1-.26.26.25.25,0,0,1-.25-.26v-4.6A.26.26,0,0,1,64.63,330.24Zm1,.52h-.7v1.85h.7a.7.7,0,0,0,.7-.7v-.45A.71.71,0,0,0,65.59,330.76Z"/>
    </g>
    <path d="M68.75,328.74a.36.36,0,0,1-.3-.17.36.36,0,0,1,.12-.49,14.83,14.83,0,1,0-15.32,0,.36.36,0,0,1-.37.61,15.54,15.54,0,1,1,16.06,0A.41.41,0,0,1,68.75,328.74Z" style="fill: #ae076a"/>
    <rect x="30.5" y="162.8" width="14.88" height="0.75" style="fill: #ae076a"/>
    <rect x="30.5" y="199.1" width="14.88" height="0.75" style="fill: #2c7896"/>
    <rect x="30.5" y="234.56" width="14.88" height="0.75" style="fill: #ae076a"/>
    <rect x="34.94" y="270.8" width="10.44" height="0.75" style="fill: #2c7896"/>
    <path d="M24.26,199.52l-.26-.7c12.67-4.71,13.82-11.06,14.94-17.2.85-4.71,1.66-9.15,7.76-12.14l.33.68c-5.76,2.81-6.5,6.88-7.35,11.59C38.58,187.8,37.33,194.66,24.26,199.52Z" style="fill: #2c7896"/>
    <path d="M24.26,235.52l-.26-.7c12.67-4.71,13.82-11.06,14.94-17.2.85-4.71,1.66-9.15,7.76-12.14l.33.68c-5.76,2.81-6.5,6.88-7.35,11.59C38.58,223.8,37.33,230.66,24.26,235.52Z" style="fill: #ae076a"/>
    <path d="M24.26,271.52l-.26-.7c12.67-4.71,13.82-11.06,14.94-17.2.85-4.71,1.66-9.15,7.76-12.14l.33.68c-5.76,2.81-6.5,6.88-7.35,11.59C38.58,259.8,37.33,266.66,24.26,271.52Z" style="fill: #2c7896"/>
    <path d="M23.42,289.7l-.14-.74a27.28,27.28,0,0,0,14.53-7.13c2.46-2.11,4.78-4.11,9-5l.15.73c-4,.84-6.15,2.68-8.64,4.82A27.94,27.94,0,0,1,23.42,289.7Z" style="fill: #ae076a"/>
    <g>
      <path d="M19.63,293.82A3.79,3.79,0,1,1,23.42,290,3.79,3.79,0,0,1,19.63,293.82Zm0-6.87A3.08,3.08,0,1,0,22.71,290,3.08,3.08,0,0,0,19.63,287Z" style="fill: #ae076a"/>
      <path d="M19.63,292.09a.36.36,0,0,1-.35-.36v-3.41a.36.36,0,0,1,.71,0v3.41A.36.36,0,0,1,19.63,292.09Z" style="fill: #ae076a"/>
    </g>
    <g>
      <path d="M68.82,176.54a.37.37,0,0,1-.32-.18.39.39,0,0,1,.13-.52,14.73,14.73,0,0,0,7.12-12.67,15,15,0,0,0-.55-4,.37.37,0,0,1,.26-.46.37.37,0,0,1,.46.26,15.67,15.67,0,0,1,.58,4.21A15.51,15.51,0,0,1,69,176.49.46.46,0,0,1,68.82,176.54Z" style="fill: #ae076a"/>
      <path d="M53,176.54a.46.46,0,0,1-.2,0,15.59,15.59,0,1,1,20.13-23.24.38.38,0,1,1-.58.48,14.84,14.84,0,1,0-19.16,22.11.39.39,0,0,1,.13.52A.37.37,0,0,1,53,176.54Z" style="fill: #ae076a"/>
    </g>
    <path d="M60.91,163.55a.37.37,0,0,1-.33-.21.36.36,0,0,1,.16-.5l17.52-9.15a.36.36,0,0,1,.5.16.36.36,0,0,1-.15.5L61.08,163.5A.34.34,0,0,1,60.91,163.55Z" style="fill: #ae076a"/>
    <g>
      <path d="M68.82,212.54a.37.37,0,0,1-.32-.18.39.39,0,0,1,.13-.52,14.73,14.73,0,0,0,7.12-12.67,15,15,0,0,0-.55-4,.37.37,0,0,1,.26-.46.37.37,0,0,1,.46.26,15.67,15.67,0,0,1,.58,4.21A15.51,15.51,0,0,1,69,212.49.46.46,0,0,1,68.82,212.54Z" style="fill: #ae076a"/>
      <path d="M53,212.54a.46.46,0,0,1-.2,0,15.59,15.59,0,1,1,20.13-23.24.38.38,0,1,1-.58.48,14.84,14.84,0,1,0-19.16,22.11.39.39,0,0,1,.13.52A.37.37,0,0,1,53,212.54Z" style="fill: #ae076a"/>
    </g>
    <path d="M60.91,199.55a.37.37,0,0,1-.33-.21.36.36,0,0,1,.16-.5l17.52-9.15a.36.36,0,0,1,.5.16.36.36,0,0,1-.15.5L61.08,199.5A.34.34,0,0,1,60.91,199.55Z" style="fill: #ae076a"/>
    <g>
      <path d="M68.82,248.54a.37.37,0,0,1-.32-.18.39.39,0,0,1,.13-.52,14.73,14.73,0,0,0,7.12-12.67,15,15,0,0,0-.55-4,.37.37,0,0,1,.26-.46.38.38,0,0,1,.46.26,15.67,15.67,0,0,1,.58,4.21A15.51,15.51,0,0,1,69,248.49.46.46,0,0,1,68.82,248.54Z" style="fill: #ae076a"/>
      <path d="M53,248.54a.46.46,0,0,1-.2,0,15.59,15.59,0,1,1,20.13-23.24.38.38,0,1,1-.58.48,14.84,14.84,0,1,0-19.16,22.11.39.39,0,0,1,.13.52A.37.37,0,0,1,53,248.54Z" style="fill: #ae076a"/>
    </g>
    <path d="M60.91,235.55a.37.37,0,0,1-.33-.21.36.36,0,0,1,.16-.5l17.52-9.15a.36.36,0,0,1,.5.16.36.36,0,0,1-.15.5L61.08,235.5A.34.34,0,0,1,60.91,235.55Z" style="fill: #ae076a"/>
    <g>
      <path d="M68.82,284.54a.37.37,0,0,1-.32-.18.39.39,0,0,1,.13-.52,14.73,14.73,0,0,0,7.12-12.67,15,15,0,0,0-.55-4,.37.37,0,0,1,.26-.46.37.37,0,0,1,.46.26,15.67,15.67,0,0,1,.58,4.21A15.51,15.51,0,0,1,69,284.49.46.46,0,0,1,68.82,284.54Z" style="fill: #ae076a"/>
      <path d="M53,284.54a.46.46,0,0,1-.2-.05,15.59,15.59,0,1,1,20.13-23.24.38.38,0,1,1-.58.48,14.84,14.84,0,1,0-19.16,22.11.39.39,0,0,1,.13.52A.37.37,0,0,1,53,284.54Z" style="fill: #ae076a"/>
    </g>
    <path d="M60.91,271.55a.37.37,0,0,1-.33-.21.36.36,0,0,1,.16-.5l17.52-9.15a.36.36,0,0,1,.5.16.36.36,0,0,1-.15.5L61.08,271.5A.34.34,0,0,1,60.91,271.55Z" style="fill: #ae076a"/>
    <path d="M29.54,83.86a.41.41,0,0,1-.18,0A26.31,26.31,0,1,1,56,83.62a.35.35,0,1,1-.36-.61,25.6,25.6,0,1,0-25.92.19.35.35,0,0,1-.18.66Z" style="fill: #2c7896"/>
  </g>
</svg>
