<?xml version="1.0" encoding="UTF-8" standalone="no"?>
<!DOCTYPE svg PUBLIC "-//W3C//DTD SVG 1.1//EN" "http://www.w3.org/Graphics/SVG/1.1/DTD/svg11.dtd">
<svg width="100%" height="100%" viewBox="0 0 90 380" version="1.1" xmlns="http://www.w3.org/2000/svg" xmlns:xlink="http://www.w3.org/1999/xlink" xml:space="preserve" xmlns:serif="http://www.serif.com/" style="fill-rule:evenodd;clip-rule:evenodd;stroke-linejoin:round;stroke-miterlimit:2;">
    <g id="bright" transform="matrix(1.05885,0,0,1.04323,0,0)">
        <rect x="0" y="0.002" width="85.039" height="364.247" style="fill:#e6e5e5;"/>
    </g>
    <g id="graphics" transform="matrix(1.04323,0,0,1.04323,0,0)">
        <g>
            <path d="M8.52,157.811C6.441,157.811 4.73,156.1 4.73,154.021C4.73,151.942 6.441,150.231 8.52,150.231C10.592,150.231 12.299,151.93 12.31,154.001C12.31,154.008 12.31,154.015 12.31,154.021C12.31,156.1 10.599,157.811 8.52,157.811C8.52,157.811 8.52,157.811 8.52,157.811ZM8.52,150.941C6.83,150.941 5.44,152.332 5.44,154.021C5.44,155.711 6.83,157.101 8.52,157.101C10.21,157.101 11.6,155.711 11.6,154.021C11.6,154.015 11.6,154.008 11.6,154.001C11.589,152.319 10.202,150.941 8.52,150.941Z" style="fill:#ae076a;fill-rule:nonzero;"/>
            <path d="M8.52,156.081C8.328,156.081 8.17,155.923 8.17,155.731L8.17,152.321C8.167,152.301 8.165,152.281 8.165,152.261C8.165,152.064 8.327,151.901 8.525,151.901C8.722,151.901 8.885,152.064 8.885,152.261C8.885,152.281 8.883,152.301 8.88,152.321L8.88,155.731C8.875,155.925 8.714,156.081 8.52,156.081Z" style="fill:#ae076a;fill-rule:nonzero;"/>
        </g>
        <g>
            <path d="M8.52,229.811C6.441,229.811 4.73,228.1 4.73,226.021C4.73,223.942 6.441,222.231 8.52,222.231C10.592,222.231 12.299,223.929 12.31,226.001C12.31,226.007 12.31,226.014 12.31,226.021C12.31,228.1 10.599,229.811 8.52,229.811C8.52,229.811 8.52,229.811 8.52,229.811ZM8.52,222.941C6.83,222.941 5.44,224.331 5.44,226.021C5.44,227.71 6.83,229.101 8.52,229.101C10.21,229.101 11.6,227.71 11.6,226.021C11.6,226.014 11.6,226.007 11.6,226.001C11.589,224.319 10.202,222.941 8.52,222.941Z" style="fill:#ae076a;fill-rule:nonzero;"/>
            <g>
                <path d="M8.52,228.081C8.328,228.081 8.17,227.923 8.17,227.731L8.17,224.321C8.167,224.301 8.165,224.281 8.165,224.261C8.165,224.063 8.327,223.901 8.525,223.901C8.722,223.901 8.885,224.063 8.885,224.261C8.885,224.281 8.883,224.301 8.88,224.321L8.88,227.731C8.875,227.924 8.714,228.081 8.52,228.081Z" style="fill:#ae076a;fill-rule:nonzero;"/>
                <path d="M7.11,228.081C6.916,228.081 6.755,227.924 6.75,227.731L6.75,224.321C6.747,224.301 6.745,224.281 6.745,224.261C6.745,224.063 6.907,223.901 7.105,223.901C7.302,223.901 7.465,224.063 7.465,224.261C7.465,224.281 7.463,224.301 7.46,224.321L7.46,227.731C7.46,227.923 7.302,228.081 7.11,228.081Z" style="fill:#ae076a;fill-rule:nonzero;"/>
                <path d="M9.94,228.081C9.746,228.081 9.585,227.924 9.58,227.731L9.58,224.321C9.577,224.301 9.575,224.281 9.575,224.261C9.575,224.063 9.737,223.901 9.935,223.901C10.132,223.901 10.295,224.063 10.295,224.261C10.295,224.281 10.293,224.301 10.29,224.321L10.29,227.731C10.29,227.923 10.132,228.081 9.94,228.081Z" style="fill:#ae076a;fill-rule:nonzero;"/>
            </g>
        </g>
        <g>
            <path d="M8.52,265.81C6.441,265.81 4.73,264.099 4.73,262.02C4.73,259.941 6.441,258.23 8.52,258.23C10.592,258.23 12.299,259.929 12.31,262C12.31,262.007 12.31,262.014 12.31,262.02C12.31,264.1 10.599,265.81 8.52,265.81C8.52,265.81 8.52,265.81 8.52,265.81ZM8.52,258.94C6.83,258.94 5.44,260.331 5.44,262.02C5.44,263.71 6.83,265.1 8.52,265.1C10.21,265.1 11.6,263.71 11.6,262.02C11.6,262.014 11.6,262.007 11.6,262C11.589,260.318 10.202,258.94 8.52,258.94Z" style="fill:#2c7896;fill-rule:nonzero;"/>
            <path d="M7.11,264.08C6.916,264.08 6.755,263.924 6.75,263.73L6.75,260.32C6.747,260.301 6.745,260.281 6.745,260.261C6.745,260.063 6.907,259.901 7.105,259.901C7.302,259.901 7.465,260.063 7.465,260.261C7.465,260.281 7.463,260.301 7.46,260.32L7.46,263.73C7.46,263.922 7.302,264.08 7.11,264.08Z" style="fill:#2c7896;fill-rule:nonzero;"/>
            <path d="M9.18,264.12C9.004,264.111 8.856,263.983 8.82,263.81L8.16,260.48C8.16,260.474 8.159,260.467 8.159,260.461C8.159,260.252 8.331,260.081 8.539,260.081C8.703,260.081 8.848,260.186 8.9,260.34L9.22,262L9.64,260.3C9.693,260.101 9.9,259.98 10.1,260.03C10.265,260.071 10.381,260.22 10.381,260.39C10.381,260.42 10.377,260.451 10.37,260.48L9.54,263.81C9.511,263.987 9.358,264.118 9.18,264.12Z" style="fill:#2c7896;fill-rule:nonzero;"/>
        </g>
        <g>
            <path d="M8.52,193.811C6.441,193.811 4.73,192.1 4.73,190.021C4.73,187.942 6.441,186.231 8.52,186.231C10.592,186.231 12.299,187.929 12.31,190.001C12.31,190.008 12.31,190.014 12.31,190.021C12.31,192.1 10.599,193.811 8.52,193.811C8.52,193.811 8.52,193.811 8.52,193.811ZM8.52,186.941C6.83,186.941 5.44,188.331 5.44,190.021C5.44,191.711 6.83,193.101 8.52,193.101C10.21,193.101 11.6,191.711 11.6,190.021C11.6,190.014 11.6,190.008 11.6,190.001C11.589,188.319 10.202,186.941 8.52,186.941Z" style="fill:#2c7896;fill-rule:nonzero;"/>
            <path d="M7.67,192.081C7.478,192.081 7.32,191.923 7.32,191.731L7.32,188.321C7.317,188.301 7.315,188.281 7.315,188.261C7.315,188.064 7.477,187.901 7.675,187.901C7.872,187.901 8.035,188.064 8.035,188.261C8.035,188.281 8.033,188.301 8.03,188.321L8.03,191.731C8.025,191.925 7.864,192.081 7.67,192.081Z" style="fill:#2c7896;fill-rule:nonzero;"/>
            <path d="M9.37,192.081C9.178,192.081 9.02,191.923 9.02,191.731L9.02,188.321C9.017,188.301 9.015,188.281 9.015,188.261C9.015,188.064 9.177,187.901 9.375,187.901C9.572,187.901 9.735,188.064 9.735,188.261C9.735,188.281 9.733,188.301 9.73,188.321L9.73,191.731C9.725,191.925 9.564,192.081 9.37,192.081Z" style="fill:#2c7896;fill-rule:nonzero;"/>
        </g>
        <g transform="matrix(1,0,0,1,12,0)">
            <path d="M33.54,18.472C33.503,18.473 33.466,18.474 33.43,18.474C31.691,18.474 30.26,17.043 30.26,15.304C30.26,15.3 30.26,15.296 30.26,15.292L30.26,8.002C30.309,6.392 31.647,5.093 33.258,5.093C33.336,5.093 33.413,5.096 33.49,5.102C33.576,5.094 33.663,5.091 33.75,5.091C35.335,5.091 36.64,6.395 36.64,7.981C36.64,7.988 36.64,7.995 36.64,8.002L36.64,15.342C36.643,15.403 36.645,15.463 36.645,15.524C36.645,17.17 35.291,18.524 33.645,18.524C33.61,18.524 33.575,18.523 33.54,18.522L33.54,18.472ZM33.54,5.812C33.45,5.801 33.359,5.796 33.269,5.796C32.048,5.796 31.034,6.782 31,8.002L31,15.342C31,15.353 31,15.365 31,15.376C31,16.714 32.101,17.816 33.44,17.816C33.483,17.816 33.526,17.815 33.57,17.812C34.175,17.827 34.765,17.612 35.22,17.212C35.722,16.724 35.992,16.042 35.96,15.342L35.96,8.002C35.96,8 35.96,7.998 35.96,7.996C35.96,6.789 34.967,5.796 33.76,5.796C33.67,5.796 33.579,5.801 33.49,5.812L33.54,5.812Z" style="fill:#211e1f;fill-rule:nonzero;"/>
            <path d="M41.69,18.472C41.653,18.473 41.616,18.474 41.58,18.474C39.841,18.474 38.41,17.043 38.41,15.304C38.41,15.3 38.41,15.296 38.41,15.292L38.41,8.002C38.459,6.392 39.797,5.093 41.408,5.093C41.486,5.093 41.563,5.096 41.64,5.102C41.723,5.095 41.806,5.091 41.89,5.091C43.481,5.091 44.79,6.401 44.79,7.991C44.79,7.995 44.79,7.999 44.79,8.002L44.79,15.342C44.793,15.403 44.795,15.463 44.795,15.524C44.795,17.17 43.441,18.524 41.795,18.524C41.76,18.524 41.725,18.523 41.69,18.522L41.69,18.472ZM41.69,5.812C41.59,5.799 41.489,5.792 41.389,5.792C40.166,5.792 39.152,6.78 39.12,8.002L39.12,15.342C39.12,15.353 39.119,15.365 39.119,15.376C39.119,16.714 40.221,17.816 41.559,17.816C41.603,17.816 41.646,17.815 41.69,17.812C42.295,17.827 42.885,17.612 43.34,17.212C43.842,16.724 44.112,16.042 44.08,15.342L44.08,8.002C44.08,8.001 44.08,8 44.08,7.999C44.08,6.792 43.087,5.799 41.88,5.799C41.8,5.799 41.719,5.804 41.64,5.812L41.69,5.812Z" style="fill:#211e1f;fill-rule:nonzero;"/>
            <path d="M49.84,18.472C49.803,18.473 49.766,18.474 49.73,18.474C47.991,18.474 46.56,17.043 46.56,15.304C46.56,15.3 46.56,15.296 46.56,15.292L46.56,8.002C46.609,6.392 47.947,5.093 49.558,5.093C49.635,5.093 49.713,5.096 49.79,5.102C49.873,5.095 49.956,5.091 50.04,5.091C51.631,5.091 52.94,6.401 52.94,7.991C52.94,7.995 52.94,7.999 52.94,8.002L52.94,15.342C52.943,15.403 52.945,15.463 52.945,15.524C52.945,17.17 51.591,18.524 49.945,18.524C49.91,18.524 49.875,18.523 49.84,18.522L49.84,18.472ZM49.79,5.812C49.706,5.803 49.623,5.798 49.539,5.798C48.318,5.798 47.305,6.782 47.27,8.002L47.27,15.342C47.269,15.353 47.269,15.365 47.269,15.376C47.269,16.714 48.371,17.816 49.709,17.816C49.753,17.816 49.796,17.815 49.84,17.812C50.445,17.827 51.035,17.612 51.49,17.212C51.992,16.724 52.262,16.042 52.23,15.342L52.23,8.002C52.23,8.001 52.23,8 52.23,7.999C52.23,6.792 51.237,5.799 50.03,5.799C49.949,5.799 49.869,5.804 49.79,5.812Z" style="fill:#211e1f;fill-rule:nonzero;"/>
            <path d="M25.37,18.122L22,18.122L22,7.122C21.997,7.102 21.995,7.081 21.995,7.061C21.995,6.852 22.166,6.681 22.375,6.681C22.583,6.681 22.755,6.852 22.755,7.061C22.755,7.081 22.753,7.102 22.75,7.122L22.75,17.372L25.36,17.372C26.671,17.378 27.758,16.313 27.78,15.002L27.78,14.102C27.78,14.099 27.78,14.096 27.78,14.092C27.78,12.77 26.692,11.682 25.37,11.682C25.37,11.682 25.37,11.682 25.37,11.682L23.46,11.682L23.46,10.932L25.37,10.932C26.636,10.851 27.634,9.786 27.634,8.517C27.634,7.248 26.636,6.184 25.37,6.102L20.13,6.102C20.11,6.106 20.089,6.107 20.068,6.107C19.86,6.107 19.688,5.936 19.688,5.727C19.688,5.519 19.86,5.347 20.068,5.347C20.089,5.347 20.11,5.349 20.13,5.352L25.37,5.352C25.391,5.352 25.412,5.352 25.433,5.352C27.172,5.352 28.603,6.783 28.603,8.522C28.603,9.717 27.927,10.814 26.86,11.352C27.887,11.902 28.531,12.977 28.53,14.142L28.53,15.002C28.503,16.719 27.086,18.117 25.37,18.122Z" style="fill:#211e1f;fill-rule:nonzero;"/>
            <path d="M64.63,18.122L58.05,18.122C56.111,18.122 54.515,16.53 54.51,14.592L54.51,5.832C54.51,5.624 54.681,5.452 54.89,5.452C54.89,5.452 54.89,5.452 54.89,5.452C55.093,5.452 55.26,5.619 55.26,5.822C55.26,5.826 55.26,5.829 55.26,5.832L55.26,14.592C55.265,16.119 56.523,17.372 58.05,17.372L64.63,17.372C64.65,17.369 64.67,17.367 64.691,17.367C64.899,17.367 65.071,17.539 65.071,17.747C65.071,17.956 64.899,18.127 64.691,18.127C64.67,18.127 64.65,18.126 64.63,18.122Z" style="fill:#211e1f;fill-rule:nonzero;"/>
            <path d="M60.55,14.872L58.19,14.872C58.169,14.876 58.149,14.877 58.128,14.877C57.92,14.877 57.748,14.706 57.748,14.497C57.748,14.289 57.92,14.117 58.128,14.117C58.149,14.117 58.169,14.119 58.19,14.122L60.55,14.122C60.593,14.126 60.637,14.127 60.681,14.127C61.63,14.127 62.411,13.346 62.411,12.397C62.411,11.448 61.63,10.667 60.681,10.667C60.637,10.667 60.593,10.669 60.55,10.672L60.07,10.672C58.709,10.672 57.59,9.553 57.59,8.192L57.59,7.932C57.59,6.572 58.709,5.452 60.07,5.452L61.89,5.452C61.91,5.449 61.93,5.447 61.951,5.447C62.159,5.447 62.331,5.619 62.331,5.827C62.331,6.036 62.159,6.207 61.951,6.207C61.93,6.207 61.91,6.206 61.89,6.202L60.07,6.202C59.123,6.208 58.345,6.985 58.34,7.932L58.34,8.192C58.345,9.139 59.123,9.917 60.07,9.922L60.55,9.922C60.602,9.919 60.654,9.917 60.707,9.917C62.067,9.917 63.187,11.037 63.187,12.397C63.187,13.758 62.067,14.877 60.707,14.877C60.654,14.877 60.602,14.876 60.55,14.872Z" style="fill:#211e1f;fill-rule:nonzero;"/>
            <path d="M20.49,5.682C20.49,5.686 20.49,5.689 20.49,5.692C20.49,6.362 19.939,6.912 19.27,6.912C18.601,6.912 18.05,6.362 18.05,5.692C18.05,5.023 18.601,4.472 19.27,4.472C19.935,4.472 20.484,5.017 20.49,5.682Z" style="fill:#ae076a;fill-rule:nonzero;"/>
            <path d="M65.84,17.762C65.84,18.426 65.293,18.972 64.63,18.972C63.966,18.972 63.42,18.426 63.42,17.762C63.42,17.098 63.966,16.552 64.63,16.552C65.293,16.552 65.84,17.098 65.84,17.762Z" style="fill:#ae076a;fill-rule:nonzero;"/>
        </g>
        <g transform="matrix(1,0,0,1,14,0)">
            <path d="M23.6,356.88C23.37,356.42 23.16,355.97 22.94,355.53C22.58,354.78 22.14,353.87 21.85,353.25L21.85,356.77C21.85,356.773 21.85,356.777 21.85,356.781C21.85,356.912 21.742,357.021 21.61,357.021C21.603,357.021 21.597,357.02 21.59,357.02C21.586,357.02 21.583,357.02 21.58,357.02C21.448,357.02 21.34,356.912 21.34,356.78C21.34,356.777 21.34,356.773 21.34,356.77L21.34,352.13C21.34,352.014 21.418,351.911 21.53,351.88C21.647,351.854 21.767,351.912 21.82,352.02C22.04,352.47 22.25,352.93 22.47,353.37C22.83,354.11 23.28,355.03 23.57,355.65L23.57,352.13C23.57,351.987 23.687,351.87 23.83,351.87C23.972,351.87 24.09,351.987 24.09,352.13L24.09,356.77C24.088,356.889 24.006,356.992 23.89,357.02C23.773,357.046 23.652,356.987 23.6,356.88Z" style="fill:#211e1f;fill-rule:nonzero;"/>
            <path d="M25.1,356L25.1,354.4C25.1,353.832 25.567,353.365 26.135,353.365C26.703,353.365 27.17,353.832 27.17,354.4L27.17,356C27.17,356.567 26.703,357.035 26.135,357.035C25.567,357.035 25.1,356.567 25.1,356ZM25.57,354.4L25.57,356C25.57,356.307 25.823,356.56 26.13,356.56C26.133,356.56 26.137,356.56 26.14,356.56C26.442,356.56 26.69,356.312 26.69,356.01C26.69,356.006 26.69,356.003 26.69,356L26.69,354.4C26.69,354.396 26.69,354.393 26.69,354.39C26.69,354.088 26.442,353.84 26.14,353.84C26.137,353.84 26.133,353.84 26.13,353.84C25.834,353.839 25.586,354.074 25.57,354.37L25.57,354.4Z" style="fill:#211e1f;fill-rule:nonzero;"/>
            <path d="M28.2,356.77L28.2,353.6C28.2,353.468 28.308,353.36 28.44,353.36L29.24,353.36C29.788,353.36 30.24,353.811 30.24,354.36L30.24,356.73C30.241,356.74 30.242,356.75 30.242,356.76C30.242,356.891 30.133,357 30.002,357C30.001,357 30,357 30,357C29.868,357 29.76,356.891 29.76,356.76L29.76,354.4C29.76,354.093 29.507,353.84 29.2,353.84L28.64,353.84L28.64,356.77C28.64,356.901 28.531,357.01 28.4,357.01C28.284,356.99 28.198,356.888 28.2,356.77Z" style="fill:#211e1f;fill-rule:nonzero;"/>
            <path d="M31.31,356.22L31.31,352C31.31,351.868 31.418,351.76 31.55,351.76C31.553,351.76 31.557,351.76 31.56,351.76C31.686,351.76 31.79,351.863 31.79,351.989C31.79,351.993 31.79,351.996 31.79,352L31.79,356.25C31.79,356.391 31.867,356.521 31.99,356.59C32.067,356.629 32.116,356.708 32.116,356.795C32.116,356.839 32.104,356.883 32.08,356.92C32.037,356.995 31.957,357.042 31.87,357.042C31.828,357.042 31.786,357.031 31.75,357.01C31.474,356.843 31.306,356.542 31.31,356.22Z" style="fill:#211e1f;fill-rule:nonzero;"/>
            <path d="M32.86,352.37C32.86,352.194 33.004,352.05 33.18,352.05C33.355,352.05 33.5,352.194 33.5,352.37C33.5,352.545 33.355,352.69 33.18,352.69C33.176,352.69 33.173,352.69 33.17,352.69C33,352.69 32.86,352.55 32.86,352.38C32.86,352.377 32.86,352.373 32.86,352.37ZM33.18,357.01C33.048,357.01 32.94,356.901 32.94,356.77L32.94,353.57C32.94,353.438 33.048,353.33 33.18,353.33C33.18,353.33 33.18,353.33 33.18,353.33C33.306,353.33 33.41,353.434 33.41,353.56C33.41,353.563 33.41,353.566 33.41,353.57L33.41,356.77C33.41,356.896 33.306,357 33.18,357L33.18,357.01Z" style="fill:#211e1f;fill-rule:nonzero;"/>
            <path d="M34.53,356.77L34.53,353.6C34.535,353.466 34.646,353.36 34.78,353.36L35.57,353.36C36.118,353.36 36.57,353.811 36.57,354.36L36.57,356.73C36.57,356.861 36.461,356.97 36.33,356.97C36.198,356.97 36.09,356.861 36.09,356.73L36.09,354.4C36.09,354.396 36.09,354.393 36.09,354.39C36.09,354.088 35.842,353.84 35.54,353.84C35.536,353.84 35.533,353.84 35.53,353.84L35,353.84L35,356.77C35,356.898 34.898,357.004 34.77,357.01C34.64,357.005 34.535,356.899 34.53,356.77Z" style="fill:#211e1f;fill-rule:nonzero;"/>
            <path d="M37.57,356L37.57,354.4C37.57,353.829 38.039,353.36 38.61,353.36C39.18,353.36 39.65,353.829 39.65,354.4L39.65,355.2C39.65,355.331 39.541,355.44 39.41,355.44L38.05,355.44L38.05,356C38.049,356.228 38.188,356.434 38.4,356.52C38.608,356.609 38.851,356.561 39.01,356.4C39.049,356.353 39.109,356.327 39.17,356.33C39.237,356.325 39.303,356.351 39.35,356.4C39.401,356.441 39.427,356.505 39.42,356.57C39.422,356.631 39.396,356.69 39.35,356.73C39.059,357.041 38.599,357.134 38.21,356.96C37.816,356.808 37.558,356.422 37.57,356ZM38.05,354.4L38.05,354.96L39.17,354.96L39.17,354.4C39.17,354.396 39.17,354.393 39.17,354.39C39.17,354.088 38.922,353.84 38.62,353.84C38.616,353.84 38.613,353.84 38.61,353.84C38.314,353.839 38.066,354.074 38.05,354.37L38.05,354.4Z" style="fill:#211e1f;fill-rule:nonzero;"/>
            <path d="M41.89,354.35C41.888,354.133 41.758,353.936 41.56,353.85C41.36,353.779 41.137,353.839 41,354C40.952,354.047 40.887,354.073 40.82,354.07C40.756,354.071 40.694,354.046 40.65,354C40.603,353.956 40.577,353.894 40.58,353.83C40.576,353.765 40.602,353.703 40.65,353.66C40.94,353.36 41.388,353.272 41.77,353.44C42.153,353.592 42.404,353.967 42.4,354.38L42.4,356.77C42.4,356.901 42.291,357.01 42.16,357.01L41.36,357.01C40.789,357.01 40.32,356.54 40.32,355.97C40.32,355.399 40.789,354.93 41.36,354.93L41.92,354.93L41.89,354.35ZM41.33,356.5L41.89,356.5L41.89,355.38L41.33,355.38C41.326,355.38 41.323,355.38 41.319,355.38C41.023,355.38 40.779,355.623 40.779,355.92C40.779,355.926 40.779,355.933 40.78,355.94C40.78,355.943 40.78,355.946 40.78,355.95C40.78,356.251 41.028,356.5 41.33,356.5C41.33,356.5 41.33,356.5 41.33,356.5Z" style="fill:#211e1f;fill-rule:nonzero;"/>
            <path d="M43.43,356.77L43.43,353.6C43.43,353.468 43.538,353.36 43.67,353.36L44.47,353.36C44.652,353.363 44.831,353.411 44.99,353.5C45.065,353.542 45.112,353.622 45.112,353.709C45.112,353.751 45.101,353.793 45.08,353.83C45.039,353.903 44.962,353.949 44.878,353.949C44.832,353.949 44.788,353.935 44.75,353.91C44.662,353.867 44.567,353.843 44.47,353.84L43.91,353.84L43.91,356.77C43.91,356.901 43.801,357.01 43.67,357.01C43.538,357.01 43.43,356.901 43.43,356.77L43.43,356.77Z" style="fill:#211e1f;fill-rule:nonzero;"/>
            <path d="M45.65,356L45.65,354.4C45.621,353.963 45.881,353.556 46.29,353.4C46.676,353.242 47.121,353.329 47.42,353.62C47.463,353.67 47.488,353.733 47.49,353.8C47.486,353.863 47.461,353.923 47.42,353.97C47.321,354.05 47.178,354.05 47.08,353.97C46.925,353.802 46.679,353.75 46.47,353.84C46.258,353.924 46.122,354.133 46.13,354.36L46.13,356C46.131,356.306 46.383,356.558 46.69,356.558C46.835,356.558 46.975,356.501 47.08,356.4C47.125,356.355 47.186,356.329 47.25,356.329C47.313,356.329 47.375,356.355 47.42,356.4C47.467,356.443 47.492,356.506 47.49,356.57C47.487,356.63 47.462,356.687 47.42,356.73C47.13,357.037 46.676,357.129 46.29,356.96C45.896,356.808 45.638,356.422 45.65,356Z" style="fill:#211e1f;fill-rule:nonzero;"/>
            <path d="M48.29,352.37C48.29,352.366 48.289,352.363 48.289,352.36C48.289,352.189 48.429,352.05 48.599,352.05C48.603,352.05 48.606,352.05 48.61,352.05C48.785,352.05 48.93,352.194 48.93,352.37C48.93,352.545 48.785,352.69 48.61,352.69C48.606,352.69 48.603,352.69 48.599,352.69C48.429,352.69 48.289,352.55 48.289,352.38C48.289,352.377 48.29,352.373 48.29,352.37ZM48.61,357.01C48.478,357.01 48.37,356.901 48.37,356.77L48.37,353.57C48.37,353.438 48.478,353.33 48.61,353.33C48.741,353.33 48.85,353.438 48.85,353.57L48.85,356.77C48.844,356.898 48.738,357 48.61,357L48.61,357.01Z" style="fill:#211e1f;fill-rule:nonzero;"/>
            <path d="M50,356.77L50,353.6C50,353.468 50.108,353.36 50.24,353.36L51,353.36C51.182,353.363 51.361,353.411 51.52,353.5C51.593,353.54 51.639,353.617 51.639,353.701C51.639,353.747 51.625,353.792 51.6,353.83C51.563,353.905 51.486,353.954 51.402,353.954C51.354,353.954 51.308,353.938 51.27,353.91C51.186,353.867 51.094,353.843 51,353.84L50.43,353.84L50.43,356.77C50.433,356.786 50.435,356.802 50.435,356.818C50.435,356.95 50.326,357.058 50.195,357.058C50.063,357.058 49.955,356.95 49.955,356.818C49.955,356.802 49.956,356.786 49.96,356.77L50,356.77Z" style="fill:#211e1f;fill-rule:nonzero;"/>
            <path d="M52.18,356L52.18,354.4C52.151,353.963 52.411,353.556 52.82,353.4C53.209,353.243 53.656,353.329 53.96,353.62C54,353.671 54.021,353.735 54.02,353.8C54.039,353.866 54.032,353.938 54,354C53.948,354.04 53.885,354.061 53.82,354.06C53.758,354.06 53.698,354.039 53.65,354C53.5,353.831 53.256,353.778 53.05,353.87C52.836,353.953 52.696,354.161 52.7,354.39L52.7,356C52.699,356.228 52.838,356.434 53.05,356.52C53.255,356.608 53.494,356.56 53.65,356.4C53.694,356.354 53.756,356.328 53.82,356.33C53.887,356.327 53.952,356.352 54,356.4C54.043,356.445 54.065,356.507 54.06,356.57C54.061,356.629 54.039,356.686 54,356.73C53.701,357.028 53.25,357.119 52.86,356.96C52.45,356.821 52.174,356.432 52.18,356Z" style="fill:#211e1f;fill-rule:nonzero;"/>
            <path d="M54.84,355.94L54.84,353.57C54.839,353.566 54.839,353.563 54.839,353.559C54.839,353.433 54.943,353.329 55.069,353.329C55.073,353.329 55.076,353.33 55.08,353.33C55.211,353.33 55.32,353.438 55.32,353.57L55.32,355.94C55.32,356.247 55.572,356.5 55.88,356.5L56.44,356.5L56.44,353.57C56.439,353.566 56.439,353.563 56.439,353.559C56.439,353.433 56.543,353.329 56.669,353.329C56.673,353.329 56.676,353.33 56.68,353.33C56.811,353.33 56.92,353.438 56.92,353.57L56.92,356.74C56.92,356.871 56.811,356.98 56.68,356.98L55.88,356.98C55.866,356.98 55.852,356.981 55.839,356.981C55.29,356.981 54.839,356.529 54.839,355.981C54.839,355.967 54.839,355.953 54.84,355.94Z" style="fill:#211e1f;fill-rule:nonzero;"/>
            <path d="M58,352.37C57.999,352.366 57.999,352.363 57.999,352.36C57.999,352.189 58.139,352.05 58.309,352.05C58.313,352.05 58.316,352.05 58.32,352.05C58.495,352.05 58.64,352.194 58.64,352.37C58.64,352.545 58.495,352.69 58.32,352.69C58.316,352.69 58.313,352.69 58.309,352.69C58.139,352.69 57.999,352.55 57.999,352.38C57.999,352.377 57.999,352.373 58,352.37ZM58.32,357.01C58.188,357.01 58.08,356.901 58.08,356.77L58.08,353.57C58.08,353.438 58.188,353.33 58.32,353.33C58.451,353.33 58.56,353.438 58.56,353.57L58.56,356.77C58.556,356.899 58.449,357.003 58.32,357.003C58.306,357.003 58.293,357.002 58.28,357L58.32,357.01Z" style="fill:#211e1f;fill-rule:nonzero;"/>
            <path d="M59.29,353.6C59.29,353.468 59.398,353.36 59.53,353.36L59.93,353.36L59.93,352C59.929,351.996 59.929,351.993 59.929,351.989C59.929,351.863 60.033,351.76 60.159,351.76C60.163,351.76 60.166,351.76 60.17,351.76C60.301,351.76 60.41,351.868 60.41,352L60.41,353.39L61,353.39C61.131,353.39 61.24,353.498 61.24,353.63C61.24,353.633 61.24,353.637 61.24,353.64C61.24,353.766 61.136,353.87 61.01,353.87C61.006,353.87 61.003,353.87 61,353.87L60.45,353.87L60.45,356C60.449,356.003 60.449,356.006 60.449,356.01C60.449,356.311 60.698,356.56 60.999,356.56C60.999,356.56 61,356.56 61,356.56C61.003,356.56 61.006,356.559 61.01,356.559C61.136,356.559 61.24,356.663 61.24,356.789C61.24,356.793 61.24,356.796 61.24,356.8C61.22,356.916 61.117,357.001 61,357C60.451,357 60,356.548 60,356L60,353.87L59.6,353.87C59.572,353.881 59.542,353.887 59.512,353.887C59.386,353.887 59.282,353.783 59.282,353.657C59.282,353.638 59.285,353.618 59.29,353.6Z" style="fill:#211e1f;fill-rule:nonzero;"/>
            <path d="M63.22,356C63.213,355.847 63.135,355.707 63.01,355.62L62.26,355.09C62.02,354.926 61.872,354.659 61.86,354.37C61.831,354.081 61.947,353.796 62.17,353.61C62.384,353.416 62.673,353.325 62.96,353.36C63.247,353.408 63.499,353.58 63.65,353.83C63.671,353.866 63.682,353.908 63.682,353.95C63.682,354.037 63.635,354.117 63.56,354.16C63.523,354.181 63.481,354.192 63.439,354.192C63.352,354.192 63.272,354.145 63.23,354.07C63.161,353.942 63.034,353.856 62.89,353.84C62.745,353.806 62.592,353.852 62.49,353.96C62.372,354.046 62.303,354.184 62.303,354.33C62.303,354.476 62.372,354.613 62.49,354.7L63.23,355.22C63.475,355.394 63.63,355.669 63.65,355.97C63.65,355.981 63.65,355.992 63.65,356.003C63.65,356.552 63.199,357.003 62.65,357.003C62.623,357.003 62.596,357.002 62.57,357C62.271,356.952 62.01,356.772 61.86,356.51C61.834,356.472 61.82,356.427 61.82,356.381C61.82,356.297 61.866,356.22 61.94,356.18C61.976,356.158 62.018,356.147 62.06,356.147C62.147,356.147 62.227,356.194 62.27,356.27C62.348,356.405 62.484,356.498 62.64,356.52C62.792,356.541 62.946,356.493 63.06,356.39C63.173,356.293 63.232,356.148 63.22,356Z" style="fill:#211e1f;fill-rule:nonzero;"/>
        </g>
        <g>
            <path d="M36.93,91.442C36.952,91.202 36.868,90.964 36.7,90.792L35.26,89.312C35.028,89.059 34.9,88.729 34.9,88.386C34.9,87.968 35.092,87.571 35.42,87.312C35.73,87.067 36.134,86.975 36.52,87.062C36.901,87.14 37.232,87.376 37.43,87.712C37.456,87.756 37.469,87.807 37.469,87.858C37.469,87.963 37.412,88.061 37.32,88.112C37.277,88.137 37.227,88.151 37.177,88.151C37.074,88.151 36.978,88.093 36.93,88.002C36.815,87.806 36.622,87.667 36.4,87.622C36.175,87.579 35.942,87.634 35.76,87.772C35.581,87.904 35.47,88.11 35.46,88.332C35.439,88.559 35.516,88.784 35.67,88.952L37.11,90.432C37.387,90.725 37.532,91.119 37.51,91.522C37.452,92.256 36.831,92.83 36.094,92.83C35.999,92.83 35.903,92.821 35.81,92.802C35.414,92.72 35.071,92.473 34.87,92.122C34.795,91.984 34.844,91.81 34.98,91.732C35.023,91.706 35.072,91.693 35.122,91.693C35.226,91.693 35.321,91.75 35.37,91.842C35.529,92.063 35.786,92.195 36.06,92.195C36.257,92.195 36.448,92.127 36.6,92.002C36.783,91.869 36.903,91.666 36.93,91.442Z" style="fill-rule:nonzero;"/>
            <path d="M38.49,92.462L38.49,87.282C38.49,87.278 38.49,87.275 38.49,87.272C38.49,87.118 38.616,86.992 38.77,86.992L38.78,86.992C38.933,86.992 39.06,87.118 39.06,87.272C39.06,87.275 39.06,87.278 39.06,87.282L39.06,92.172L40.58,92.172C40.739,92.172 40.87,92.303 40.87,92.462C40.87,92.621 40.739,92.752 40.58,92.752L38.78,92.752C38.776,92.752 38.773,92.752 38.77,92.752C38.616,92.752 38.49,92.625 38.49,92.472C38.49,92.468 38.49,92.465 38.49,92.462Z" style="fill-rule:nonzero;"/>
            <path d="M41.62,87.312C41.62,87.153 41.751,87.022 41.91,87.022L43.71,87.022C43.869,87.022 44,87.153 44,87.312C44,87.471 43.869,87.602 43.71,87.602L42.2,87.602L42.2,89.512L43.53,89.512C43.689,89.512 43.82,89.643 43.82,89.802C43.82,89.961 43.689,90.092 43.53,90.092L42.2,90.092L42.2,92.172L43.71,92.172C43.869,92.172 44,92.303 44,92.462C44,92.621 43.869,92.752 43.71,92.752L41.91,92.752C41.751,92.752 41.62,92.621 41.62,92.462L41.62,87.312Z" style="fill-rule:nonzero;"/>
            <path d="M44.87,87.002C45.023,86.964 45.181,87.059 45.22,87.212L46.22,91.272C46.55,89.872 47.22,87.212 47.22,87.212C47.254,87.086 47.369,86.997 47.5,86.997C47.63,86.997 47.746,87.086 47.78,87.212L48.78,91.272C49.11,89.872 49.78,87.212 49.78,87.212C49.805,87.105 49.892,87.022 50,87.002C50.132,87.026 50.23,87.142 50.23,87.277C50.23,87.302 50.226,87.327 50.22,87.352L49,92.572C48.966,92.698 48.85,92.786 48.72,92.786C48.589,92.786 48.474,92.698 48.44,92.572C48.406,92.445 47.79,89.912 47.44,88.502L46.44,92.572C46.408,92.7 46.292,92.791 46.16,92.792C46.026,92.795 45.908,92.702 45.88,92.572L44.62,87.352C44.614,87.329 44.611,87.305 44.611,87.281C44.611,87.135 44.724,87.013 44.87,87.002Z" style="fill-rule:nonzero;"/>
        </g>
        <g>
            <path d="M34.93,137.831C34.951,137.618 34.878,137.406 34.73,137.251L33.45,135.941C33.208,135.695 33.084,135.356 33.11,135.011C33.132,134.662 33.308,134.34 33.59,134.131C33.873,133.912 34.239,133.827 34.59,133.901C34.929,133.973 35.221,134.188 35.39,134.491C35.417,134.531 35.432,134.579 35.432,134.627C35.432,134.718 35.381,134.801 35.3,134.841C35.176,134.908 35.019,134.864 34.95,134.741C34.848,134.569 34.676,134.449 34.48,134.411C34.285,134.368 34.08,134.412 33.92,134.531C33.76,134.655 33.658,134.84 33.64,135.041C33.627,135.241 33.7,135.438 33.84,135.581L35.11,136.901C35.344,137.132 35.476,137.448 35.476,137.777C35.476,138.17 35.287,138.54 34.97,138.771C34.751,138.937 34.483,139.027 34.209,139.027C33.761,139.027 33.345,138.788 33.12,138.401C33.058,138.277 33.102,138.124 33.22,138.051C33.258,138.028 33.303,138.016 33.348,138.016C33.441,138.016 33.527,138.068 33.57,138.151C33.679,138.333 33.861,138.461 34.07,138.501C34.277,138.541 34.492,138.49 34.66,138.361C34.824,138.234 34.923,138.039 34.93,137.831Z" style="fill-rule:nonzero;"/>
            <path d="M39,138.711C39.006,138.733 39.009,138.756 39.009,138.779C39.009,138.893 38.931,138.994 38.82,139.021C38.683,139.059 38.538,138.978 38.5,138.841C38.461,138.704 38.4,138.451 38.25,137.911L36.73,137.911L36.47,138.841C36.44,138.952 36.339,139.03 36.225,139.03C36.086,139.03 35.971,138.915 35.971,138.776C35.971,138.754 35.974,138.733 35.98,138.711L37.25,134.071C37.286,133.963 37.386,133.888 37.5,133.881C37.615,133.885 37.716,133.961 37.75,134.071L39,138.711ZM38.1,137.401C37.89,136.601 37.63,135.681 37.47,135.091L36.84,137.401L38.1,137.401Z" style="fill-rule:nonzero;"/>
            <path d="M39.78,138.771L39.78,134.131C39.777,134.017 39.857,133.915 39.97,133.891C40.084,133.864 40.204,133.917 40.26,134.021L41.31,136.251L42.31,134.021C42.365,133.917 42.485,133.864 42.6,133.891C42.714,133.915 42.797,134.015 42.8,134.131L42.8,138.771C42.8,138.914 42.682,139.031 42.54,139.031C42.397,139.031 42.28,138.914 42.28,138.771L42.28,135.281L41.54,137.001C41.498,137.091 41.409,137.149 41.31,137.151C41.21,137.152 41.12,137.093 41.08,137.001C41.04,136.91 40.65,136.111 40.29,135.321L40.29,138.811C40.256,138.939 40.13,139.021 40,139.001C39.883,138.984 39.792,138.889 39.78,138.771Z" style="fill-rule:nonzero;"/>
            <path d="M44.19,133.911L45.19,133.911C45.859,133.911 46.41,134.462 46.41,135.131L46.41,135.571C46.41,136.241 45.859,136.791 45.19,136.791L44.49,136.791L44.49,138.791C44.493,138.808 44.495,138.825 44.495,138.842C44.495,138.985 44.377,139.102 44.235,139.102C44.092,139.102 43.975,138.985 43.975,138.842C43.975,138.825 43.976,138.808 43.98,138.791L43.98,134.191C43.962,134.057 44.056,133.932 44.19,133.911ZM45.19,134.421L44.49,134.421L44.49,136.281L45.19,136.281C45.575,136.276 45.89,135.957 45.89,135.571L45.89,135.131C45.89,135.131 45.89,135.131 45.89,135.131C45.89,134.741 45.569,134.421 45.18,134.421C45.17,134.421 45.16,134.421 45.15,134.421L45.19,134.421Z" style="fill-rule:nonzero;"/>
            <path d="M47.14,138.741L47.14,134.131C47.14,133.994 47.253,133.881 47.39,133.881C47.529,133.881 47.644,133.993 47.65,134.131L47.65,138.481L49,138.481C49.016,138.478 49.033,138.476 49.05,138.476C49.193,138.476 49.31,138.594 49.31,138.736C49.31,138.879 49.193,138.996 49.05,138.996C49.033,138.996 49.016,138.995 49,138.991L47.4,138.991C47.396,138.991 47.393,138.992 47.39,138.992C47.253,138.992 47.14,138.879 47.14,138.742C47.14,138.741 47.14,138.741 47.14,138.741Z" style="fill-rule:nonzero;"/>
            <path d="M49.92,134.171C49.919,134.168 49.919,134.165 49.919,134.161C49.919,134.024 50.032,133.911 50.169,133.911C50.173,133.911 50.176,133.911 50.18,133.911L51.77,133.911C51.786,133.908 51.803,133.906 51.82,133.906C51.963,133.906 52.08,134.024 52.08,134.166C52.08,134.309 51.963,134.426 51.82,134.426C51.803,134.426 51.786,134.425 51.77,134.421L50.43,134.421L50.43,136.121L51.61,136.121C51.626,136.118 51.643,136.116 51.66,136.116C51.803,136.116 51.92,136.234 51.92,136.376C51.92,136.519 51.803,136.636 51.66,136.636C51.643,136.636 51.626,136.635 51.61,136.631L50.43,136.631L50.43,138.481L51.77,138.481C51.786,138.478 51.803,138.476 51.82,138.476C51.963,138.476 52.08,138.594 52.08,138.736C52.08,138.879 51.963,138.996 51.82,138.996C51.803,138.996 51.786,138.995 51.77,138.991L50.18,138.991C50.176,138.991 50.173,138.992 50.17,138.992C50.032,138.992 49.92,138.879 49.92,138.742C49.92,138.741 49.92,138.741 49.92,138.741L49.92,134.171Z" style="fill-rule:nonzero;"/>
        </g>
        <path d="M32,328.74C31.877,328.74 31.763,328.675 31.7,328.57C31.6,328.402 31.654,328.183 31.82,328.08C36.264,325.399 38.99,320.572 38.99,315.381C38.99,307.246 32.295,300.552 24.16,300.552C16.024,300.552 9.33,307.246 9.33,315.381C9.33,320.572 12.055,325.399 16.5,328.08C16.661,328.186 16.714,328.401 16.62,328.57C16.517,328.736 16.298,328.79 16.13,328.69C11.474,325.88 8.62,320.823 8.62,315.385C8.62,306.861 15.635,299.846 24.16,299.846C32.685,299.846 39.7,306.861 39.7,315.385C39.7,320.823 36.845,325.88 32.19,328.69C32.131,328.722 32.066,328.739 32,328.74Z" style="fill:#ae076a;fill-rule:nonzero;"/>
        <g>
            <path d="M19.16,334.16C19.173,333.949 19.097,333.742 18.95,333.59L17.67,332.27C17.426,332.025 17.305,331.684 17.34,331.34C17.362,330.99 17.538,330.668 17.82,330.46C18.101,330.236 18.471,330.154 18.82,330.24C19.159,330.31 19.454,330.521 19.63,330.82C19.653,330.859 19.665,330.903 19.665,330.948C19.665,331.041 19.613,331.127 19.53,331.17C19.491,331.194 19.447,331.207 19.402,331.207C19.313,331.207 19.231,331.158 19.19,331.08C19.089,330.905 18.918,330.781 18.72,330.74C18.52,330.701 18.313,330.748 18.15,330.87C17.99,330.988 17.891,331.172 17.88,331.37C17.859,331.572 17.929,331.774 18.07,331.92L19.35,333.23C19.609,333.495 19.737,333.861 19.7,334.23C19.638,334.884 19.083,335.39 18.425,335.39C18.35,335.39 18.274,335.383 18.2,335.37C17.849,335.294 17.545,335.077 17.36,334.77C17.34,334.732 17.329,334.69 17.329,334.647C17.329,334.505 17.447,334.387 17.589,334.387C17.679,334.387 17.762,334.434 17.81,334.51C17.91,334.696 18.091,334.826 18.3,334.86C18.35,334.87 18.401,334.876 18.452,334.876C18.837,334.876 19.162,334.574 19.19,334.19L19.16,334.16Z" style="fill-rule:nonzero;"/>
            <path d="M20.54,335.07L20.54,330.47C20.54,330.327 20.657,330.21 20.8,330.21C20.942,330.21 21.06,330.327 21.06,330.47L21.06,334.82L22.4,334.82C22.521,334.844 22.609,334.951 22.609,335.075C22.609,335.198 22.521,335.306 22.4,335.33L20.8,335.33C20.657,335.33 20.54,335.212 20.54,335.07Z" style="fill-rule:nonzero;"/>
            <path d="M23.33,330.5C23.33,330.361 23.441,330.245 23.58,330.24L25.18,330.24C25.322,330.24 25.44,330.357 25.44,330.5C25.44,330.643 25.322,330.76 25.18,330.76L23.84,330.76L23.84,332.45L25,332.45C25.017,332.447 25.034,332.445 25.051,332.445C25.193,332.445 25.311,332.562 25.311,332.705C25.311,332.847 25.193,332.965 25.051,332.965C25.034,332.965 25.017,332.963 25,332.96L23.84,332.96L23.84,334.82L25.18,334.82C25.197,334.817 25.214,334.815 25.231,334.815C25.373,334.815 25.491,334.932 25.491,335.075C25.491,335.217 25.373,335.335 25.231,335.335C25.214,335.335 25.197,335.333 25.18,335.33L23.58,335.33C23.58,335.33 23.58,335.33 23.58,335.33C23.442,335.33 23.33,335.217 23.33,335.08C23.33,335.077 23.33,335.073 23.33,335.07L23.33,330.5Z" style="fill-rule:nonzero;"/>
            <path d="M26.22,330.22C26.357,330.189 26.496,330.274 26.53,330.41L27.4,334L28.27,330.39C28.297,330.274 28.401,330.191 28.52,330.19C28.639,330.191 28.742,330.274 28.77,330.39L29.64,334C29.93,332.75 30.51,330.39 30.51,330.39C30.535,330.276 30.637,330.194 30.754,330.194C30.773,330.194 30.791,330.196 30.81,330.2C30.929,330.225 31.016,330.332 31.016,330.454C31.016,330.473 31.014,330.492 31.01,330.51L29.89,335.15C29.856,335.26 29.755,335.336 29.64,335.34C29.523,335.343 29.418,335.264 29.39,335.15C29.362,335.036 28.81,332.78 28.52,331.53C28.21,332.78 27.65,335.15 27.65,335.15C27.618,335.261 27.516,335.338 27.4,335.338C27.284,335.338 27.182,335.261 27.15,335.15L26,330.53C25.996,330.513 25.994,330.495 25.994,330.478C25.994,330.348 26.091,330.237 26.22,330.22Z" style="fill-rule:nonzero;"/>
        </g>
        <g>
            <path d="M57,334.16C57.013,333.949 56.937,333.742 56.79,333.59L55.51,332.27C55.267,332.024 55.142,331.684 55.17,331.34C55.196,330.992 55.371,330.671 55.65,330.46C55.932,330.238 56.3,330.157 56.65,330.24C56.988,330.314 57.281,330.524 57.46,330.82C57.483,330.859 57.495,330.903 57.495,330.948C57.495,331.041 57.442,331.127 57.36,331.17C57.321,331.194 57.277,331.207 57.231,331.207C57.143,331.207 57.061,331.158 57.02,331.08C56.915,330.903 56.741,330.78 56.54,330.74C56.343,330.701 56.139,330.748 55.98,330.87C55.82,330.99 55.719,331.171 55.7,331.37C55.688,331.573 55.76,331.772 55.9,331.92L57.18,333.23C57.431,333.5 57.558,333.862 57.53,334.23C57.503,334.588 57.32,334.918 57.03,335.13C56.746,335.348 56.382,335.436 56.03,335.37C55.68,335.292 55.376,335.075 55.19,334.77C55.128,334.646 55.171,334.493 55.29,334.42C55.33,334.392 55.377,334.378 55.425,334.378C55.516,334.378 55.599,334.429 55.64,334.51C55.775,334.735 56.02,334.874 56.283,334.874C56.669,334.874 56.995,334.575 57.03,334.19L57,334.16Z" style="fill-rule:nonzero;"/>
            <path d="M60.41,330.24C60.552,330.24 60.67,330.357 60.67,330.5C60.67,330.643 60.552,330.76 60.41,330.76L59.62,330.76L59.62,335.1C59.62,335.103 59.62,335.107 59.62,335.11C59.62,335.247 59.507,335.36 59.37,335.36C59.37,335.36 59.37,335.36 59.37,335.36C59.227,335.36 59.11,335.242 59.11,335.1L59.11,330.76L58.33,330.76C58.187,330.76 58.07,330.643 58.07,330.5C58.07,330.357 58.187,330.24 58.33,330.24L60.41,330.24Z" style="fill-rule:nonzero;"/>
            <path d="M61.43,330.5C61.43,330.357 61.547,330.24 61.69,330.24L63.29,330.24C63.432,330.24 63.55,330.357 63.55,330.5C63.55,330.643 63.432,330.76 63.29,330.76L61.94,330.76L61.94,332.45L63.13,332.45C63.251,332.474 63.339,332.581 63.339,332.705C63.339,332.828 63.251,332.936 63.13,332.96L61.94,332.96L61.94,334.82L63.29,334.82C63.411,334.844 63.499,334.951 63.499,335.075C63.499,335.198 63.411,335.306 63.29,335.33L61.69,335.33C61.686,335.33 61.683,335.33 61.679,335.33C61.542,335.33 61.429,335.217 61.429,335.08C61.429,335.077 61.429,335.073 61.43,335.07L61.43,330.5Z" style="fill-rule:nonzero;"/>
            <path d="M64.63,330.24L65.63,330.24C66.299,330.24 66.85,330.791 66.85,331.46L66.85,331.91C66.844,332.575 66.295,333.12 65.63,333.12L64.93,333.12L64.93,335.12C64.93,335.262 64.812,335.38 64.67,335.38C64.669,335.38 64.669,335.38 64.669,335.38C64.532,335.38 64.419,335.267 64.419,335.13C64.419,335.127 64.419,335.123 64.42,335.12L64.42,330.52C64.407,330.387 64.498,330.265 64.63,330.24ZM65.63,330.76L64.93,330.76L64.93,332.61L65.63,332.61C66.014,332.61 66.33,332.294 66.33,331.91L66.33,331.46C66.324,331.074 66.006,330.759 65.62,330.759C65.61,330.759 65.6,330.759 65.59,330.76L65.63,330.76Z" style="fill-rule:nonzero;"/>
        </g>
        <path d="M68.749,328.74C68.627,328.738 68.514,328.674 68.449,328.57C68.35,328.402 68.404,328.183 68.569,328.08C73.014,325.399 75.739,320.572 75.739,315.381C75.739,307.246 69.045,300.552 60.91,300.552C52.774,300.552 46.08,307.246 46.08,315.381C46.08,320.572 48.805,325.399 53.25,328.08C53.334,328.148 53.383,328.251 53.383,328.36C53.383,328.557 53.221,328.72 53.023,328.72C52.974,328.72 52.925,328.71 52.88,328.69C48.224,325.88 45.37,320.823 45.37,315.385C45.37,306.861 52.385,299.846 60.91,299.846C69.434,299.846 76.449,306.861 76.449,315.385C76.449,320.823 73.595,325.88 68.939,328.69C68.881,328.722 68.816,328.739 68.749,328.74Z" style="fill:#ae076a;fill-rule:nonzero;"/>
        <rect x="30.5" y="162.801" width="14.88" height="0.75" style="fill:#ae076a;"/>
        <rect x="30.5" y="199.101" width="14.88" height="0.75" style="fill:#2c7896;"/>
        <rect x="30.5" y="234.561" width="14.88" height="0.75" style="fill:#ae076a;"/>
        <rect x="34.94" y="270.8" width="10.44" height="0.75" style="fill:#2c7896;"/>
        <path d="M24.26,199.521L24,198.821C36.67,194.111 37.82,187.761 38.94,181.621C39.79,176.911 40.6,172.471 46.7,169.481L47.03,170.161C41.27,172.971 40.53,177.041 39.68,181.751C38.58,187.801 37.33,194.661 24.26,199.521Z" style="fill:#2c7896;fill-rule:nonzero;"/>
        <path d="M24.26,235.521L24,234.821C36.67,230.111 37.82,223.761 38.94,217.621C39.79,212.911 40.6,208.471 46.7,205.481L47.03,206.161C41.27,208.971 40.53,213.041 39.68,217.751C38.58,223.801 37.33,230.661 24.26,235.521Z" style="fill:#ae076a;fill-rule:nonzero;"/>
        <path d="M24.26,271.52L24,270.82C36.67,266.11 37.82,259.76 38.94,253.62C39.79,248.91 40.6,244.471 46.7,241.481L47.03,242.161C41.27,244.971 40.53,249.04 39.68,253.75C38.58,259.8 37.33,266.66 24.26,271.52Z" style="fill:#2c7896;fill-rule:nonzero;"/>
        <path d="M23.42,289.7L23.28,288.96C28.732,288.108 33.8,285.622 37.81,281.83C40.27,279.72 42.59,277.72 46.81,276.83L46.96,277.56C42.96,278.4 40.81,280.24 38.32,282.38C34.21,286.273 29.013,288.826 23.42,289.7Z" style="fill:#ae076a;fill-rule:nonzero;"/>
        <g>
            <path d="M19.63,293.82C17.551,293.82 15.84,292.109 15.84,290.03C15.84,287.951 17.551,286.24 19.63,286.24C21.698,286.24 23.403,287.932 23.42,290C23.42,290.01 23.42,290.02 23.42,290.03C23.42,292.109 21.709,293.82 19.63,293.82C19.63,293.82 19.63,293.82 19.63,293.82ZM19.63,286.95C17.94,286.95 16.55,288.341 16.55,290.03C16.55,291.72 17.94,293.11 19.63,293.11C21.32,293.11 22.71,291.72 22.71,290.03C22.71,290.02 22.71,290.01 22.71,290C22.667,288.341 21.29,287 19.63,287L19.63,286.95Z" style="fill:#ae076a;fill-rule:nonzero;"/>
            <path d="M19.63,292.09C19.436,292.085 19.28,291.924 19.28,291.73L19.28,288.32C19.309,288.148 19.46,288.02 19.635,288.02C19.81,288.02 19.961,288.148 19.99,288.32L19.99,291.73C19.99,291.928 19.827,292.09 19.63,292.09Z" style="fill:#ae076a;fill-rule:nonzero;"/>
        </g>
        <g>
            <path d="M68.819,176.541C68.689,176.542 68.567,176.473 68.499,176.361C68.399,176.182 68.456,175.952 68.629,175.841C73.061,173.167 75.77,168.347 75.749,163.171C75.747,161.819 75.562,160.474 75.199,159.171C75.19,159.138 75.185,159.103 75.185,159.069C75.185,158.902 75.298,158.754 75.459,158.711C75.493,158.702 75.527,158.697 75.562,158.697C75.729,158.697 75.876,158.81 75.919,158.971C76.303,160.342 76.498,161.758 76.499,163.181C76.509,168.62 73.657,173.682 68.999,176.491C68.944,176.52 68.882,176.537 68.819,176.541Z" style="fill:#ae076a;fill-rule:nonzero;"/>
            <path d="M53,176.541C52.934,176.556 52.865,176.556 52.8,176.541C48.157,173.715 45.315,168.659 45.315,163.224C45.315,154.672 52.353,147.634 60.905,147.634C65.555,147.634 69.97,149.715 72.929,153.301C73.008,153.373 73.053,153.475 73.053,153.581C73.053,153.79 72.881,153.961 72.673,153.961C72.541,153.961 72.419,153.893 72.349,153.781C69.532,150.352 65.32,148.361 60.882,148.361C52.741,148.361 46.042,155.06 46.042,163.201C46.042,168.383 48.758,173.204 53.19,175.891C53.363,176.002 53.421,176.232 53.32,176.411C53.241,176.504 53.121,176.553 53,176.541Z" style="fill:#ae076a;fill-rule:nonzero;"/>
        </g>
        <path d="M60.91,163.551C60.769,163.55 60.64,163.468 60.58,163.341C60.55,163.288 60.534,163.227 60.534,163.166C60.534,163.028 60.614,162.901 60.74,162.841L78.259,153.691C78.313,153.661 78.373,153.646 78.434,153.646C78.573,153.646 78.7,153.726 78.759,153.851C78.791,153.906 78.807,153.967 78.807,154.03C78.807,154.165 78.73,154.29 78.609,154.351L61.08,163.501C61.028,163.533 60.97,163.55 60.91,163.551Z" style="fill:#ae076a;fill-rule:nonzero;"/>
        <g>
            <path d="M68.819,212.541C68.689,212.542 68.567,212.473 68.499,212.361C68.399,212.181 68.456,211.951 68.629,211.841C73.061,209.167 75.77,204.346 75.749,199.171C75.747,197.819 75.562,196.473 75.199,195.171C75.19,195.138 75.185,195.103 75.185,195.068C75.185,194.901 75.298,194.754 75.459,194.711C75.493,194.701 75.527,194.696 75.562,194.696C75.729,194.696 75.876,194.81 75.919,194.971C76.303,196.341 76.498,197.758 76.499,199.181C76.509,204.62 73.657,209.682 68.999,212.491C68.944,212.52 68.882,212.537 68.819,212.541Z" style="fill:#ae076a;fill-rule:nonzero;"/>
            <path d="M53,212.541C52.934,212.555 52.865,212.555 52.8,212.541C48.157,209.715 45.315,204.658 45.315,199.224C45.315,190.671 52.353,183.634 60.905,183.634C65.555,183.634 69.97,185.714 72.929,189.301C73.008,189.373 73.053,189.475 73.053,189.581C73.053,189.789 72.881,189.961 72.673,189.961C72.541,189.961 72.419,189.893 72.349,189.781C69.532,186.351 65.32,184.361 60.882,184.361C52.741,184.361 46.042,191.06 46.042,199.2C46.042,204.383 48.758,209.204 53.19,211.891C53.363,212.001 53.421,212.231 53.32,212.411C53.241,212.504 53.121,212.553 53,212.541Z" style="fill:#ae076a;fill-rule:nonzero;"/>
        </g>
        <path d="M60.91,199.551C60.769,199.549 60.64,199.468 60.58,199.341C60.55,199.287 60.534,199.227 60.534,199.166C60.534,199.027 60.614,198.9 60.74,198.841L78.259,189.691C78.313,189.661 78.373,189.646 78.434,189.646C78.573,189.646 78.7,189.726 78.759,189.851C78.791,189.905 78.807,189.967 78.807,190.03C78.807,190.165 78.73,190.29 78.609,190.351L61.08,199.501C61.028,199.532 60.97,199.55 60.91,199.551Z" style="fill:#ae076a;fill-rule:nonzero;"/>
        <g>
            <path d="M68.819,248.54C68.689,248.541 68.567,248.473 68.499,248.36C68.399,248.181 68.456,247.951 68.629,247.84C73.061,245.167 75.77,240.346 75.749,235.171C75.747,233.819 75.562,232.473 75.199,231.171C75.19,231.137 75.185,231.103 75.185,231.068C75.185,230.901 75.298,230.754 75.459,230.711C75.657,230.659 75.862,230.775 75.919,230.971C76.303,232.341 76.498,233.757 76.499,235.181C76.509,240.62 73.657,245.681 68.999,248.49C68.944,248.519 68.882,248.536 68.819,248.54Z" style="fill:#ae076a;fill-rule:nonzero;"/>
            <path d="M53,248.54C52.934,248.555 52.865,248.555 52.8,248.54C48.157,245.715 45.315,240.658 45.315,235.223C45.315,226.671 52.353,219.634 60.905,219.634C65.555,219.634 69.97,221.714 72.929,225.301C73.008,225.373 73.053,225.474 73.053,225.581C73.053,225.789 72.881,225.961 72.673,225.961C72.541,225.961 72.419,225.892 72.349,225.781C69.532,222.351 65.32,220.36 60.882,220.36C52.741,220.36 46.042,227.059 46.042,235.2C46.042,240.383 48.758,245.204 53.19,247.89C53.363,248.001 53.421,248.231 53.32,248.41C53.241,248.504 53.121,248.553 53,248.54Z" style="fill:#ae076a;fill-rule:nonzero;"/>
        </g>
        <path d="M60.91,235.551C60.769,235.549 60.64,235.468 60.58,235.341C60.55,235.287 60.534,235.227 60.534,235.166C60.534,235.027 60.614,234.9 60.74,234.841L78.259,225.691C78.313,225.661 78.373,225.645 78.434,225.645C78.573,225.645 78.7,225.725 78.759,225.851C78.791,225.905 78.807,225.967 78.807,226.029C78.807,226.165 78.73,226.289 78.609,226.351L61.08,235.501C61.028,235.532 60.97,235.549 60.91,235.551Z" style="fill:#ae076a;fill-rule:nonzero;"/>
        <g>
            <path d="M68.819,284.54C68.689,284.541 68.567,284.473 68.499,284.36C68.399,284.181 68.456,283.951 68.629,283.84C73.061,281.166 75.77,276.346 75.749,271.17C75.747,269.818 75.562,268.473 75.199,267.17C75.19,267.137 75.185,267.103 75.185,267.068C75.185,266.901 75.298,266.753 75.459,266.71C75.493,266.701 75.527,266.696 75.562,266.696C75.729,266.696 75.876,266.809 75.919,266.97C76.303,268.341 76.498,269.757 76.499,271.18C76.509,276.62 73.657,281.681 68.999,284.49C68.944,284.519 68.882,284.536 68.819,284.54Z" style="fill:#ae076a;fill-rule:nonzero;"/>
            <path d="M53,284.54C52.93,284.539 52.862,284.522 52.8,284.49C48.157,281.665 45.315,276.608 45.315,271.173C45.315,262.621 52.353,255.583 60.905,255.583C65.555,255.583 69.97,257.664 72.929,261.25C73.008,261.322 73.053,261.424 73.053,261.53C73.053,261.739 72.881,261.91 72.673,261.91C72.541,261.91 72.419,261.842 72.349,261.73C69.532,258.301 65.32,256.31 60.882,256.31C52.741,256.31 46.042,263.009 46.042,271.15C46.042,276.333 48.758,281.154 53.19,283.84C53.363,283.951 53.421,284.181 53.32,284.36C53.252,284.473 53.13,284.541 53,284.54Z" style="fill:#ae076a;fill-rule:nonzero;"/>
        </g>
        <path d="M60.91,271.55C60.769,271.549 60.64,271.467 60.58,271.34C60.55,271.287 60.534,271.227 60.534,271.165C60.534,271.027 60.614,270.9 60.74,270.84L78.259,261.69C78.313,261.661 78.373,261.645 78.434,261.645C78.573,261.645 78.7,261.725 78.759,261.85C78.791,261.905 78.807,261.966 78.807,262.029C78.807,262.165 78.73,262.289 78.609,262.35L61.08,271.5C61.028,271.532 60.97,271.549 60.91,271.55Z" style="fill:#ae076a;fill-rule:nonzero;"/>
        <path d="M29.54,83.862C29.481,83.875 29.419,83.875 29.36,83.862C21.208,79.174 16.165,70.458 16.165,61.054C16.165,46.621 28.042,34.744 42.475,34.744C56.908,34.744 68.785,46.621 68.785,61.054C68.785,70.29 63.922,78.874 56,83.622C55.945,83.654 55.883,83.671 55.82,83.671C55.625,83.671 55.465,83.511 55.465,83.317C55.465,83.192 55.532,83.075 55.64,83.012C63.369,78.397 68.118,70.033 68.118,61.031C68.118,46.987 56.562,35.431 42.518,35.431C28.474,35.431 16.918,46.987 16.918,61.031C16.918,70.166 21.808,78.635 29.72,83.202C29.835,83.262 29.908,83.382 29.908,83.512C29.908,83.704 29.75,83.862 29.558,83.862C29.552,83.862 29.546,83.862 29.54,83.862Z" style="fill:#2c7896;fill-rule:nonzero;"/>
    </g>
</svg>
