<?xml version="1.0" encoding="UTF-8" standalone="no"?>
<!DOCTYPE svg PUBLIC "-//W3C//DTD SVG 1.1//EN" "http://www.w3.org/Graphics/SVG/1.1/DTD/svg11.dtd">
<svg width="100%" height="100%" viewBox="0 0 120 380" version="1.1" xmlns="http://www.w3.org/2000/svg" xmlns:xlink="http://www.w3.org/1999/xlink" xml:space="preserve" xmlns:serif="http://www.serif.com/" style="fill-rule:evenodd;clip-rule:evenodd;stroke-linecap:round;stroke-linejoin:round;stroke-miterlimit:10;">
    <g transform="matrix(0.784519,0,0,-0.781507,-76.0669,454.775)">
        <rect x="97.28" y="96" width="152.32" height="485.6"/>
    </g>
    <g transform="matrix(0.784519,0,0,-0.781507,-76.0669,794.761)">
        <path d="M212.32,548.64L212.32,564L222.56,548.64L222.56,564" style="fill:none;fill-rule:nonzero;stroke:rgb(193,163,119);stroke-width:2.08px;"/>
    </g>
    <g transform="matrix(0.784519,0,0,-0.781507,-76.0669,794.761)">
        <path d="M222.56,564L222.56,548.64L232.8,548.64" style="fill:none;fill-rule:nonzero;stroke:rgb(193,163,119);stroke-width:2.08px;"/>
    </g>
    <g transform="matrix(0.784519,0,0,-0.781507,113.096,355.992)">
        <path d="M0,-10.24C0,-11.52 -1.12,-12.8 -2.56,-12.8L-7.68,-12.8C-9.12,-12.8 -10.24,-11.52 -10.24,-10.24L-10.24,-0C-10.24,1.44 -9.12,2.56 -7.68,2.56L-2.56,2.56C-1.12,2.56 0,1.44 0,-0" style="fill:none;fill-rule:nonzero;stroke:rgb(193,163,119);stroke-width:2.08px;"/>
    </g>
    <g transform="matrix(-0.784519,0,0,-0.781507,54.6025,347.739)">
        <path d="M0.16,-30.24C-8.16,-30.24 -15.04,-23.36 -15.04,-15.04C-15.04,-6.72 -8.16,0 0.16,0C8.48,0 15.2,-6.72 15.2,-15.04C15.2,-23.36 8.48,-30.24 0.16,-30.24" style="fill:none;fill-rule:nonzero;stroke:rgb(193,163,119);stroke-width:1.44px;"/>
    </g>
    <g transform="matrix(0.784519,0,0,-0.781507,-76.0669,793.761)">
        <path d="M181.76,555.68L204.64,555.68" style="fill:none;fill-rule:nonzero;stroke:rgb(193,163,119);stroke-width:1.92px;"/>
    </g>
    <g transform="matrix(-0.49438,0.606807,-0.609146,-0.492482,469.209,521.161)">
        <path d="M158.811,546.8L173.029,546.8" style="fill:none;fill-rule:nonzero;stroke:rgb(193,163,119);stroke-width:1.44px;"/>
    </g>
    <g transform="matrix(-0.503121,0.599635,-0.601946,-0.501189,479.872,549.248)">
        <path d="M160.694,564.88L174.666,564.88" style="fill:none;fill-rule:nonzero;stroke:rgb(193,163,119);stroke-width:1.44px;"/>
    </g>
    <g transform="matrix(0.651259,0.435735,-0.437414,0.648759,189.328,-73.658)">
        <path d="M160.343,555.92L173.257,555.92" style="fill:none;fill-rule:nonzero;stroke:rgb(193,163,119);stroke-width:1.44px;"/>
    </g>
    <g transform="matrix(0.0248934,0.781114,-0.784124,0.0247978,494.666,221.138)">
        <path d="M162.86,560.305L172.945,560.305L173.917,564.978L173.61,569.61L162.86,560.305Z" style="fill:rgb(193,163,119);"/>
    </g>
    <g transform="matrix(0.708313,0.335992,-0.337287,0.705594,122.251,-89.1282)">
        <path d="M165.575,540.836L169.296,540.836L176.306,555.929L162.239,554.299L165.575,540.836Z" style="fill:rgb(193,163,119);"/>
    </g>
    <g transform="matrix(0.784519,0,0,-0.781507,-76.0669,809.266)">
        <path d="M172.32,569.6L179.52,569.28L179.2,567.52L177.12,565.6L172.16,561.6L172.32,569.6Z" style="fill:rgb(193,163,119);"/>
    </g>
    <g transform="matrix(0.784519,0,0,-0.781507,-76.0669,795.762)">
        <path d="M172.16,562.4L180.8,562.56L181.28,557.76L180.96,554.4L179.68,551.36L171.84,551.68L172.16,562.4Z" style="fill:rgb(193,163,119);"/>
    </g>
    <g transform="matrix(0.784519,0,0,-0.781507,-76.0669,780.257)">
        <path d="M172.64,552L175.84,549.92L179.04,546.24L180.32,543.2L180.64,542.08L171.68,542.24L172.64,552Z" style="fill:rgb(193,163,119);"/>
    </g>
    <g transform="matrix(0,-0.781507,0.784519,0,22.4686,15.13)">
        <circle cx="7.68" cy="0" r="7.68" style="fill:rgb(193,163,119);"/>
    </g>
    <g transform="matrix(0,-0.781507,0.784519,0,22.4686,376.999)">
        <circle cx="7.68" cy="0" r="7.68" style="fill:rgb(193,163,119);"/>
    </g>
    <g transform="matrix(0.784519,0,0,-0.781507,-76.0669,183.31)">
        <path d="M143.2,168.16L144.64,169.76L144.64,160.48M143.2,160.48L146.24,160.48" style="fill:none;fill-rule:nonzero;stroke:rgb(193,163,119);stroke-width:1.28px;"/>
    </g>
    <g transform="matrix(0.784519,0,0,-0.781507,35.0209,101.033)">
        <path d="M0,6.24C0,7.04 0.64,7.68 1.6,7.68L4.64,7.68C5.44,7.68 6.08,7.04 6.08,6.24L6.08,4.64C6.08,3.84 5.44,3.04 4.64,3.04L1.6,3.04M0,1.6C0,2.4 0.64,3.04 1.6,3.04M0,1.6L0,-1.44L6.08,-1.44" style="fill:none;fill-rule:nonzero;stroke:rgb(193,163,119);stroke-width:1.28px;"/>
    </g>
    <g transform="matrix(0.784519,0,0,-0.781507,35.0209,145.298)">
        <path d="M0,6.08C0,7.04 0.64,7.68 1.6,7.68L4.64,7.68C5.44,7.68 6.08,7.04 6.08,6.08L6.08,4.64C6.08,3.68 5.44,3.04 4.64,3.04L3.04,3.04M4.64,3.04C5.44,3.04 6.08,2.4 6.08,1.6L6.08,-0C6.08,-0.8 5.44,-1.6 4.64,-1.6L1.6,-1.6C0.64,-1.6 0,-0.8 0,-0" style="fill:none;fill-rule:nonzero;stroke:rgb(193,163,119);stroke-width:1.28px;"/>
    </g>
    <g transform="matrix(0.784519,0,0,-0.781507,-76.0669,449.148)">
        <path d="M147.68,330.56L147.68,339.84M141.6,339.84L141.6,335.2L147.68,335.2" style="fill:none;fill-rule:nonzero;stroke:rgb(193,163,119);stroke-width:1.28px;"/>
    </g>
    <g transform="matrix(0.784519,0,0,-0.781507,39.7908,235.077)">
        <path d="M0,9.12L-6.08,9.12L-6.08,4.64M-6.08,4.64L-1.44,4.64C-0.64,4.64 0,3.84 0,3.04L0,1.44C0,0.64 -0.64,0 -1.44,0L-4.48,0C-5.44,0 -6.08,0.64 -6.08,1.44" style="fill:none;fill-rule:nonzero;stroke:rgb(193,163,119);stroke-width:1.28px;"/>
    </g>
    <g transform="matrix(0.784519,0,0,-0.781507,35.0209,274.715)">
        <path d="M0,-2.88C0,-2.08 0.64,-1.44 1.6,-1.44L4.64,-1.44C5.44,-1.44 6.08,-2.08 6.08,-2.88L6.08,-4.48C6.08,-5.28 5.44,-6.08 4.64,-6.08L1.6,-6.08C0.64,-6.08 0,-5.28 0,-4.48L0,1.6C0,2.56 0.64,3.2 1.6,3.2L4.64,3.2C5.44,3.2 6.08,2.56 6.08,1.6" style="fill:none;fill-rule:nonzero;stroke:rgb(193,163,119);stroke-width:1.28px;"/>
    </g>
    <g transform="matrix(0.784519,0,0,-0.781507,8.78661,31.2603)">
        <path d="M0,12.16L6.08,12.16C7.2,12.16 8.16,11.2 8.16,10.08L8.16,1.92C8.16,0.8 7.2,0 6.08,0L0,0L0,12.16M20.32,12.16L12.16,12.16L12.16,0L20.32,0M12.16,6.08L18.4,6.08M24.48,6.08L32.64,6.08M44.8,12.16L36.64,12.16L36.64,0L44.8,0M36.64,6.08L42.88,6.08M55.04,6.08C56.16,6.08 57.12,5.12 57.12,4L57.12,1.92C57.12,0.8 56.16,0 55.04,0L51.04,0C49.92,0 48.96,0.8 48.96,1.92M55.04,6.08L51.04,6.08C49.92,6.08 48.96,7.04 48.96,8.16L48.96,10.08C48.96,11.2 49.92,12.16 51.04,12.16L55.04,12.16C56.16,12.16 57.12,11.2 57.12,10.08M69.28,1.92C69.28,0.8 68.48,0 67.36,0L63.2,0C62.08,0 61.12,0.8 61.12,1.92L61.12,10.08C61.12,11.2 62.08,12.16 63.2,12.16L67.36,12.16C68.48,12.16 69.28,11.2 69.28,10.08M73.44,0L73.44,10.08C73.44,11.2 74.4,12.16 75.52,12.16L79.52,12.16C80.64,12.16 81.6,11.2 81.6,10.08L81.6,0M73.44,6.08L81.6,6.08M85.6,12.16L85.6,0L93.76,0M97.92,0L97.92,10.08C97.92,11.2 98.88,12.16 100,12.16L104,12.16C105.12,12.16 106.08,11.2 106.08,10.08L106.08,0M97.92,6.08L106.08,6.08M110.08,12.16L118.24,12.16M114.24,12.16L114.24,0M130.56,12.16L122.4,12.16L122.4,0L130.56,0M122.4,6.08L128.48,6.08" style="fill:none;fill-rule:nonzero;stroke:rgb(193,163,119);stroke-width:1.6px;"/>
    </g>
    <g transform="matrix(0.784519,0,0,-0.781507,-76.0669,717.361)">
        <rect x="214.08" y="493.92" width="25.76" height="25.76" style="fill:rgb(193,163,119);"/>
    </g>
    <g transform="matrix(0,-0.781507,0.784519,0,18.0753,65.5216)">
        <circle cx="12.88" cy="-0.08" r="12.88" style="fill:rgb(193,163,119);"/>
    </g>
    <g transform="matrix(0,-0.781507,0.784519,0,18.0126,109.849)">
        <path d="M12.88,-12.88C5.68,-12.88 -0.08,-7.12 -0.08,-0.08C-0.08,7.12 5.68,12.88 12.88,12.88C19.92,12.88 25.84,7.12 25.84,-0.08C25.84,-7.12 19.92,-12.88 12.88,-12.88Z" style="fill:rgb(193,163,119);"/>
    </g>
    <g transform="matrix(0,-0.781507,0.784519,0,17.9498,154.176)">
        <circle cx="12.88" cy="0.08" r="12.88" style="fill:rgb(193,163,119);"/>
    </g>
    <g transform="matrix(0,-0.781507,0.784519,0,18.0753,198.44)">
        <circle cx="12.88" cy="-0.08" r="12.88" style="fill:rgb(193,163,119);"/>
    </g>
    <g transform="matrix(0,-0.781507,0.784519,0,18.0126,242.767)">
        <path d="M12.88,-12.88C5.68,-12.88 -0.08,-7.12 -0.08,-0.08C-0.08,7.12 5.68,12.88 12.88,12.88C19.92,12.88 25.84,7.12 25.84,-0.08C25.84,-7.12 19.92,-12.88 12.88,-12.88Z" style="fill:rgb(193,163,119);"/>
    </g>
    <g transform="matrix(0,-0.781507,0.784519,0,17.9498,287.094)">
        <circle cx="12.88" cy="0.08" r="12.88" style="fill:rgb(193,163,119);"/>
    </g>
    <g transform="matrix(0.784519,0,0,-0.781507,-76.0669,407.259)">
        <path d="M214.08,463.04L239.84,463.04L239.84,437.28L214.08,437.28L214.08,463.04ZM214.08,406.4L239.84,406.4L239.84,380.48L214.08,380.48L214.08,406.4ZM214.08,349.6L239.84,349.6L239.84,323.84L214.08,323.84L214.08,349.6ZM214.08,292.96L239.84,292.96L239.84,267.2L214.08,267.2L214.08,292.96ZM214.08,236.32L239.84,236.32L239.84,210.4L214.08,210.4L214.08,236.32ZM214.08,179.52L239.84,179.52L239.84,153.76L214.08,153.76L214.08,179.52Z" style="fill:rgb(193,163,119);"/>
    </g>
    <g transform="matrix(0,-0.781507,0.784519,0,18.0753,331.359)">
        <circle cx="12.88" cy="-0.08" r="12.88" style="fill:rgb(193,163,119);"/>
    </g>
    <g transform="matrix(0.784519,0,0,-0.781507,-76.0669,714.985)">
        <path d="M141.6,509.92L147.68,509.92L143.2,500.64" style="fill:none;fill-rule:nonzero;stroke:rgb(193,163,119);stroke-width:1.28px;"/>
    </g>
    <g transform="matrix(0,-0.781507,0.784519,0,22.5941,13.7545)">
        <circle cx="6" cy="-0.08" r="6"/>
    </g>
    <g transform="matrix(0,-0.781507,0.784519,0,22.5941,375.624)">
        <circle cx="6" cy="-0.08" r="6"/>
    </g>
    <g transform="matrix(0,-0.781507,0.784519,0,102.05,330.734)">
        <circle cx="12.08" cy="-0.08" r="12.08"/>
    </g>
    <g transform="matrix(0,-0.781507,0.784519,0,18.0753,64.8964)">
        <circle cx="12.08" cy="-0.08" r="12.08"/>
    </g>
    <g transform="matrix(0,-0.781507,0.784519,0,18.0125,109.223)">
        <path d="M12.08,-12.08C5.36,-12.08 0.08,-6.64 0.08,-0.08C0.08,6.64 5.36,12.08 12.08,12.08C18.8,12.08 24.08,6.64 24.08,-0.08C24.08,-6.64 18.8,-12.08 12.08,-12.08Z"/>
    </g>
    <g transform="matrix(0,-0.781507,0.784519,0,17.9498,153.551)">
        <circle cx="12.08" cy="0.08" r="12.08"/>
    </g>
    <g transform="matrix(0,-0.781507,0.784519,0,18.0753,197.815)">
        <circle cx="12.08" cy="-0.08" r="12.08"/>
    </g>
    <g transform="matrix(0,-0.781507,0.784519,0,18.0125,242.142)">
        <path d="M12.08,-12.08C5.36,-12.08 0.08,-6.64 0.08,-0.08C0.08,6.64 5.36,12.08 12.08,12.08C18.8,12.08 24.08,6.64 24.08,-0.08C24.08,-6.64 18.8,-12.08 12.08,-12.08Z"/>
    </g>
    <g transform="matrix(0,-0.781507,0.784519,0,17.9498,286.469)">
        <circle cx="12.08" cy="0.08" r="12.08"/>
    </g>
    <g transform="matrix(0,-0.781507,0.784519,0,102.05,64.8964)">
        <circle cx="12.08" cy="-0.08" r="12.08"/>
    </g>
    <g transform="matrix(0,-0.781507,0.784519,0,101.987,109.223)">
        <path d="M12.08,-12.08C5.36,-12.08 0.08,-6.64 0.08,-0.08C0.08,6.64 5.36,12.08 12.08,12.08C18.8,12.08 24.08,6.64 24.08,-0.08C24.08,-6.64 18.8,-12.08 12.08,-12.08Z"/>
    </g>
    <g transform="matrix(0,-0.781507,0.784519,0,101.925,153.551)">
        <circle cx="12.08" cy="0.08" r="12.08"/>
    </g>
    <g transform="matrix(0,-0.781507,0.784519,0,102.05,197.815)">
        <circle cx="12.08" cy="-0.08" r="12.08"/>
    </g>
    <g transform="matrix(0,-0.781507,0.784519,0,101.987,242.142)">
        <path d="M12.08,-12.08C5.36,-12.08 0.08,-6.64 0.08,-0.08C0.08,6.64 5.36,12.08 12.08,12.08C18.8,12.08 24.08,6.64 24.08,-0.08C24.08,-6.64 18.8,-12.08 12.08,-12.08Z"/>
    </g>
    <g transform="matrix(0,-0.781507,0.784519,0,101.925,286.469)">
        <circle cx="12.08" cy="0.08" r="12.08"/>
    </g>
    <g transform="matrix(0,-0.781507,0.784519,0,18.0753,330.734)">
        <circle cx="12.08" cy="-0.08" r="12.08"/>
    </g>
    <g transform="matrix(-0.784519,0,0,-0.781507,196.067,75.2748)">
        <path d="M97.28,96L249.6,96" style="fill:none;fill-rule:nonzero;stroke:black;stroke-width:0.64px;"/>
    </g>
    <g transform="matrix(0,0.781507,-0.784519,0,266.046,113.975)">
        <path d="M-145.52,338.8L340.08,338.8" style="fill:none;fill-rule:nonzero;stroke:black;stroke-width:0.64px;"/>
    </g>
    <g transform="matrix(0.784519,0,0,-0.781507,-76.0669,834.274)">
        <path d="M97.28,581.6L249.6,581.6" style="fill:none;fill-rule:nonzero;stroke:black;stroke-width:0.64px;"/>
    </g>
    <g transform="matrix(0,-0.781507,0.784519,0,-146.046,385.064)">
        <path d="M6.8,338.8L492.4,338.8" style="fill:none;fill-rule:nonzero;stroke:black;stroke-width:0.64px;"/>
    </g>
</svg>
