<?xml version="1.0" encoding="UTF-8" standalone="no"?>
<svg
   xmlns:dc="http://purl.org/dc/elements/1.1/"
   xmlns:cc="http://creativecommons.org/ns#"
   xmlns:rdf="http://www.w3.org/1999/02/22-rdf-syntax-ns#"
   xmlns:svg="http://www.w3.org/2000/svg"
   xmlns="http://www.w3.org/2000/svg"
   xmlns:sodipodi="http://sodipodi.sourceforge.net/DTD/sodipodi-0.dtd"
   xmlns:inkscape="http://www.inkscape.org/namespaces/inkscape"
   width="60.959999mm"
   height="128.5mm"
   viewBox="0 0 650.07874 1379.5275"
   version="1.1"
   xml:space="preserve"
   style="clip-rule:evenodd;fill-rule:evenodd;stroke-miterlimit:10"
   id="svg470"
   sodipodi:docname="DoubleNeuronRef.svg"
   inkscape:version="0.92.4 (5da689c313, 2019-01-14)"><metadata
   id="metadata476"><rdf:RDF><cc:Work
       rdf:about=""><dc:format>image/svg+xml</dc:format><dc:type
         rdf:resource="http://purl.org/dc/dcmitype/StillImage" /><dc:title></dc:title></cc:Work></rdf:RDF></metadata><defs
   id="defs474" /><sodipodi:namedview
   pagecolor="#ffffff"
   bordercolor="#666666"
   borderopacity="1"
   objecttolerance="10"
   gridtolerance="10"
   guidetolerance="10"
   inkscape:pageopacity="0"
   inkscape:pageshadow="2"
   inkscape:window-width="1920"
   inkscape:window-height="1001"
   id="namedview472"
   showgrid="false"
   inkscape:zoom="1.2931507"
   inkscape:cx="146.34134"
   inkscape:cy="216.01879"
   inkscape:window-x="-9"
   inkscape:window-y="-9"
   inkscape:window-maximized="1"
   inkscape:current-layer="layer1"
   inkscape:document-units="mm"
   units="mm" />
    
    
    
    
<rect
   id="bright"
   x="-2.1824043"
   y="6.3529449e-05"
   width="654.44354"
   height="1379.5275"
   style="clip-rule:evenodd;fill:#e6e5e5;fill-rule:evenodd;stroke-width:3.798527;stroke-miterlimit:10" /><g
   style="clip-rule:evenodd;display:inline;fill-rule:evenodd;stroke-miterlimit:10"
   id="graphics"
   transform="matrix(3.8097776,0,0,3.7873098,-2.1824051,6.8480618e-5)"><g
     id="g11"><path
       d="m 18.32,332.74 v -3.06 c 0,-0.76 0.61,-1.37 1.37,-1.37 0.76,0 1.37,0.61 1.37,1.37 v 3.06 c 0,0.76 -0.61,1.37 -1.37,1.37 -0.76,0 -1.37,-0.61 -1.37,-1.37 z m 0.57,-3.06 v 3.06 c 0,0.44 0.35,0.79 0.79,0.79 0.43,0 0.79,-0.35 0.79,-0.79 v -3.06 c 0,-0.43 -0.36,-0.79 -0.79,-0.79 -0.43,0 -0.79,0.36 -0.79,0.79 z"
       style="fill:#211e1f;fill-rule:nonzero"
       id="path3"
       inkscape:connector-curvature="0" /><path
       d="m 23.47,333.54 c 0.43,0 0.79,-0.35 0.79,-0.79 v -4.14 c 0,-0.17 0.12,-0.29 0.29,-0.29 0.15,0 0.29,0.12 0.29,0.29 v 4.14 c 0,0.76 -0.62,1.37 -1.37,1.37 -0.76,0 -1.37,-0.61 -1.37,-1.37 v -4.14 c 0,-0.17 0.12,-0.29 0.29,-0.29 0.15,0 0.29,0.12 0.29,0.29 v 4.14 c -0.01,0.43 0.35,0.79 0.79,0.79 z"
       style="fill:#211e1f;fill-rule:nonzero"
       id="path5"
       inkscape:connector-curvature="0" /><path
       d="m 28.54,328.64 c 0,0.17 -0.12,0.29 -0.29,0.29 h -0.88 v 4.9 c 0,0.17 -0.12,0.29 -0.29,0.29 -0.15,0 -0.29,-0.12 -0.29,-0.29 v -4.9 h -0.88 c -0.15,0 -0.29,-0.12 -0.29,-0.29 0,-0.17 0.13,-0.29 0.29,-0.29 h 2.34 c 0.18,0 0.29,0.12 0.29,0.29 z"
       style="fill:#211e1f;fill-rule:nonzero"
       id="path7"
       inkscape:connector-curvature="0" /><path
       d="m 31.03,331.77 h -2.16 c -0.17,0 -0.29,-0.12 -0.29,-0.29 0,-0.17 0.12,-0.29 0.29,-0.29 h 2.16 c 0.15,0 0.29,0.12 0.29,0.29 0,0.17 -0.14,0.29 -0.29,0.29 z"
       style="fill:#211e1f;fill-rule:nonzero"
       id="path9"
       inkscape:connector-curvature="0" /></g><g
     id="g21"><path
       d="m 54.68,332.74 v -3.06 c 0,-0.76 0.61,-1.37 1.37,-1.37 0.76,0 1.37,0.61 1.37,1.37 v 3.06 c 0,0.76 -0.61,1.37 -1.37,1.37 -0.76,0 -1.37,-0.61 -1.37,-1.37 z m 0.58,-3.06 v 3.06 c 0,0.44 0.35,0.79 0.79,0.79 0.43,0 0.79,-0.35 0.79,-0.79 v -3.06 c 0,-0.43 -0.36,-0.79 -0.79,-0.79 -0.44,0 -0.79,0.36 -0.79,0.79 z"
       style="fill:#211e1f;fill-rule:nonzero"
       id="path13"
       inkscape:connector-curvature="0" /><path
       d="m 59.83,333.54 c 0.43,0 0.79,-0.35 0.79,-0.79 v -4.14 c 0,-0.17 0.12,-0.29 0.29,-0.29 0.15,0 0.29,0.12 0.29,0.29 v 4.14 c 0,0.76 -0.62,1.37 -1.37,1.37 -0.76,0 -1.37,-0.61 -1.37,-1.37 v -4.14 c 0,-0.17 0.12,-0.29 0.29,-0.29 0.15,0 0.29,0.12 0.29,0.29 v 4.14 c 0,0.43 0.35,0.79 0.79,0.79 z"
       style="fill:#211e1f;fill-rule:nonzero"
       id="path15"
       inkscape:connector-curvature="0" /><path
       d="m 64.9,328.64 c 0,0.17 -0.12,0.29 -0.29,0.29 h -0.88 v 4.9 c 0,0.17 -0.12,0.29 -0.29,0.29 -0.15,0 -0.29,-0.12 -0.29,-0.29 v -4.9 h -0.88 c -0.15,0 -0.29,-0.12 -0.29,-0.29 0,-0.17 0.13,-0.29 0.29,-0.29 h 2.34 c 0.18,0 0.29,0.12 0.29,0.29 z"
       style="fill:#211e1f;fill-rule:nonzero"
       id="path17"
       inkscape:connector-curvature="0" /><path
       d="m 68.4,331.48 c 0,0.17 -0.13,0.29 -0.29,0.29 h -0.79 v 0.79 c 0,0.17 -0.13,0.29 -0.29,0.29 -0.17,0 -0.29,-0.12 -0.29,-0.29 v -0.79 h -0.79 c -0.17,0 -0.29,-0.12 -0.29,-0.29 0,-0.17 0.12,-0.29 0.29,-0.29 h 0.79 v -0.79 c 0,-0.17 0.12,-0.29 0.29,-0.29 0.15,0 0.29,0.12 0.29,0.29 v 0.79 h 0.79 c 0.15,0 0.29,0.12 0.29,0.29 z"
       style="fill:#211e1f;fill-rule:nonzero"
       id="path19"
       inkscape:connector-curvature="0" /></g><g
     id="g29"><path
       d="m 56.55,221.52 v -3.06 c 0,-0.76 0.61,-1.37 1.37,-1.37 0.76,0 1.37,0.61 1.37,1.37 v 3.06 c 0,0.76 -0.61,1.37 -1.37,1.37 -0.76,-0.01 -1.37,-0.62 -1.37,-1.37 z m 0.58,-3.07 v 3.06 c 0,0.44 0.35,0.79 0.79,0.79 0.43,0 0.79,-0.35 0.79,-0.79 v -3.06 c 0,-0.43 -0.36,-0.79 -0.79,-0.79 -0.44,0 -0.79,0.36 -0.79,0.79 z"
       style="fill:#211e1f;fill-rule:nonzero"
       id="path23"
       inkscape:connector-curvature="0" /><path
       d="m 61.7,222.31 c 0.43,0 0.79,-0.35 0.79,-0.79 v -4.14 c 0,-0.17 0.12,-0.29 0.29,-0.29 0.15,0 0.29,0.12 0.29,0.29 v 4.14 c 0,0.76 -0.62,1.37 -1.37,1.37 -0.76,0 -1.37,-0.61 -1.37,-1.37 v -4.14 c 0,-0.17 0.12,-0.29 0.29,-0.29 0.15,0 0.29,0.12 0.29,0.29 v 4.14 c 0,0.44 0.35,0.79 0.79,0.79 z"
       style="fill:#211e1f;fill-rule:nonzero"
       id="path25"
       inkscape:connector-curvature="0" /><path
       d="m 66.78,217.41 c 0,0.17 -0.12,0.29 -0.29,0.29 h -0.88 v 4.9 c 0,0.17 -0.12,0.29 -0.29,0.29 -0.15,0 -0.29,-0.12 -0.29,-0.29 v -4.9 h -0.88 c -0.15,0 -0.29,-0.12 -0.29,-0.29 0,-0.17 0.13,-0.29 0.29,-0.29 h 2.34 c 0.17,0 0.29,0.12 0.29,0.29 z"
       style="fill:#211e1f;fill-rule:nonzero"
       id="path27"
       inkscape:connector-curvature="0" /></g><path
     d="m 13.04,261.58 c -2.09,0 -3.79,-1.7 -3.79,-3.79 0,-2.09 1.7,-3.79 3.79,-3.79 2.09,0 3.79,1.7 3.79,3.79 0,2.09 -1.7,3.79 -3.79,3.79 z m 0,-6.87 c -1.7,0 -3.08,1.38 -3.08,3.08 0,1.7 1.38,3.08 3.08,3.08 1.7,0 3.08,-1.38 3.08,-3.08 0,-1.7 -1.38,-3.08 -3.08,-3.08 z"
     style="fill:#2c7896;fill-rule:nonzero"
     id="path31"
     inkscape:connector-curvature="0" /><path
     d="m 13.04,161.43 c -2.09,0 -3.79,-1.7 -3.79,-3.79 0,-2.09 1.7,-3.79 3.79,-3.79 2.09,0 3.79,1.7 3.79,3.79 0,2.09 -1.7,3.79 -3.79,3.79 z m 0,-6.87 c -1.7,0 -3.08,1.38 -3.08,3.08 0,1.7 1.38,3.08 3.08,3.08 1.7,0 3.08,-1.38 3.08,-3.08 0,-1.7 -1.38,-3.08 -3.08,-3.08 z"
     style="fill:#ae076a;fill-rule:nonzero"
     id="path33"
     inkscape:connector-curvature="0" /><path
     d="m 13.04,197.24 c -2.09,0 -3.79,-1.7 -3.79,-3.79 0,-2.09 1.7,-3.79 3.79,-3.79 2.09,0 3.79,1.7 3.79,3.79 0,2.09 -1.7,3.79 -3.79,3.79 z m 0,-6.87 c -1.7,0 -3.08,1.38 -3.08,3.08 0,1.7 1.38,3.08 3.08,3.08 1.7,0 3.08,-1.38 3.08,-3.08 0,-1.7 -1.38,-3.08 -3.08,-3.08 z"
     style="fill:#ae076a;fill-rule:nonzero"
     id="path35"
     inkscape:connector-curvature="0" /><path
     d="m 73.02,161.43 c -2.09,0 -3.79,-1.7 -3.79,-3.79 0,-2.09 1.7,-3.79 3.79,-3.79 2.09,0 3.79,1.7 3.79,3.79 0,2.09 -1.7,3.79 -3.79,3.79 z m 0,-6.87 c -1.7,0 -3.08,1.38 -3.08,3.08 0,1.7 1.38,3.08 3.08,3.08 1.7,0 3.08,-1.38 3.08,-3.08 0,-1.7 -1.38,-3.08 -3.08,-3.08 z"
     style="fill:#ae076a;fill-rule:nonzero"
     id="path37"
     inkscape:connector-curvature="0" /><path
     d="m 73.02,261.58 c -2.09,0 -3.79,-1.7 -3.79,-3.79 0,-2.09 1.7,-3.79 3.79,-3.79 2.09,0 3.79,1.7 3.79,3.79 0,2.09 -1.7,3.79 -3.79,3.79 z m 0,-6.87 c -1.7,0 -3.08,1.38 -3.08,3.08 0,1.7 1.38,3.08 3.08,3.08 1.7,0 3.08,-1.38 3.08,-3.08 0,-1.7 -1.38,-3.08 -3.08,-3.08 z"
     style="fill:#2c7896;fill-rule:nonzero"
     id="path39"
     inkscape:connector-curvature="0" /><path
     d="m 13.04,296.36 c -2.09,0 -3.79,-1.7 -3.79,-3.79 0,-2.09 1.7,-3.79 3.79,-3.79 2.09,0 3.79,1.7 3.79,3.79 0,2.09 -1.7,3.79 -3.79,3.79 z m 0,-6.87 c -1.7,0 -3.08,1.38 -3.08,3.08 0,1.7 1.38,3.08 3.08,3.08 1.7,0 3.08,-1.38 3.08,-3.08 0,-1.69 -1.38,-3.08 -3.08,-3.08 z"
     style="fill:#ae076a;fill-rule:nonzero"
     id="path41"
     inkscape:connector-curvature="0" /><path
     d="m 73.02,296.36 c -2.09,0 -3.79,-1.7 -3.79,-3.79 0,-2.09 1.7,-3.79 3.79,-3.79 2.09,0 3.79,1.7 3.79,3.79 0,2.09 -1.7,3.79 -3.79,3.79 z m 0,-6.87 c -1.7,0 -3.08,1.38 -3.08,3.08 0,1.7 1.38,3.08 3.08,3.08 1.7,0 3.08,-1.38 3.08,-3.08 0,-1.69 -1.38,-3.08 -3.08,-3.08 z"
     style="fill:#ae076a;fill-rule:nonzero"
     id="path43"
     inkscape:connector-curvature="0" /><path
     d="m 14.75,258.14 h -3.41 c -0.2,0 -0.35,-0.16 -0.35,-0.35 0,-0.2 0.16,-0.35 0.35,-0.35 h 3.41 c 0.2,0 0.35,0.16 0.35,0.35 0,0.19 -0.16,0.35 -0.35,0.35 z"
     style="fill:#2c7896;fill-rule:nonzero"
     id="path45"
     inkscape:connector-curvature="0" /><path
     d="m 13.04,159.7 c -0.2,0 -0.35,-0.16 -0.35,-0.35 v -3.41 c 0,-0.2 0.16,-0.35 0.35,-0.35 0.19,0 0.35,0.16 0.35,0.35 v 3.41 c 0.01,0.19 -0.15,0.35 -0.35,0.35 z"
     style="fill:#ae076a;fill-rule:nonzero"
     id="path47"
     inkscape:connector-curvature="0" /><g
     id="g55"><path
       d="m 13.04,195.51 c -0.2,0 -0.35,-0.16 -0.35,-0.35 v -3.41 c 0,-0.2 0.16,-0.35 0.35,-0.35 0.19,0 0.35,0.16 0.35,0.35 v 3.41 c 0.01,0.19 -0.15,0.35 -0.35,0.35 z"
       style="fill:#ae076a;fill-rule:nonzero"
       id="path49"
       inkscape:connector-curvature="0" /><path
       d="m 11.63,195.51 c -0.2,0 -0.35,-0.16 -0.35,-0.35 v -3.41 c 0,-0.2 0.16,-0.35 0.35,-0.35 0.19,0 0.35,0.16 0.35,0.35 v 3.41 c 0,0.19 -0.16,0.35 -0.35,0.35 z"
       style="fill:#ae076a;fill-rule:nonzero"
       id="path51"
       inkscape:connector-curvature="0" /><path
       d="m 14.46,195.51 c -0.2,0 -0.35,-0.16 -0.35,-0.35 v -3.41 c 0,-0.2 0.16,-0.35 0.35,-0.35 0.2,0 0.35,0.16 0.35,0.35 v 3.41 c 0,0.19 -0.16,0.35 -0.35,0.35 z"
       style="fill:#ae076a;fill-rule:nonzero"
       id="path53"
       inkscape:connector-curvature="0" /></g><g
     id="g63"><path
       d="m 158.99,195.51 c -0.2,0 -0.35,-0.16 -0.35,-0.35 v -3.41 c 0,-0.2 0.16,-0.35 0.35,-0.35 0.19,0 0.35,0.16 0.35,0.35 v 3.41 c 0,0.19 -0.16,0.35 -0.35,0.35 z"
       style="fill:#ae076a;fill-rule:nonzero"
       id="path57"
       inkscape:connector-curvature="0" /><path
       d="m 157.57,195.51 c -0.2,0 -0.35,-0.16 -0.35,-0.35 v -3.41 c 0,-0.2 0.16,-0.35 0.35,-0.35 0.19,0 0.35,0.16 0.35,0.35 v 3.41 c 0.01,0.19 -0.15,0.35 -0.35,0.35 z"
       style="fill:#ae076a;fill-rule:nonzero"
       id="path59"
       inkscape:connector-curvature="0" /><path
       d="m 160.41,195.51 c -0.2,0 -0.35,-0.16 -0.35,-0.35 v -3.41 c 0,-0.2 0.16,-0.35 0.35,-0.35 0.19,0 0.35,0.16 0.35,0.35 v 3.41 c 0,0.19 -0.16,0.35 -0.35,0.35 z"
       style="fill:#ae076a;fill-rule:nonzero"
       id="path61"
       inkscape:connector-curvature="0" /></g><path
     d="m 72.17,159.7 c -0.2,0 -0.35,-0.16 -0.35,-0.35 v -3.41 c 0,-0.2 0.16,-0.35 0.35,-0.35 0.2,0 0.35,0.16 0.35,0.35 v 3.41 c 0.01,0.19 -0.15,0.35 -0.35,0.35 z"
     style="fill:#ae076a;fill-rule:nonzero"
     id="path65"
     inkscape:connector-curvature="0" /><path
     d="m 73.87,159.7 c -0.2,0 -0.35,-0.16 -0.35,-0.35 v -3.41 c 0,-0.2 0.16,-0.35 0.35,-0.35 0.2,0 0.35,0.16 0.35,0.35 v 3.41 c 0.01,0.19 -0.15,0.35 -0.35,0.35 z"
     style="fill:#ae076a;fill-rule:nonzero"
     id="path67"
     inkscape:connector-curvature="0" /><path
     d="m 74.73,258.14 h -3.41 c -0.2,0 -0.35,-0.16 -0.35,-0.35 0,-0.2 0.16,-0.35 0.35,-0.35 h 3.41 c 0.2,0 0.35,0.16 0.35,0.35 0,0.19 -0.16,0.35 -0.35,0.35 z"
     style="fill:#2c7896;fill-rule:nonzero"
     id="path69"
     inkscape:connector-curvature="0" /><path
     d="m 14.75,292.93 h -3.41 c -0.2,0 -0.35,-0.16 -0.35,-0.35 0,-0.2 0.16,-0.35 0.35,-0.35 h 3.41 c 0.2,0 0.35,0.16 0.35,0.35 0,0.19 -0.16,0.35 -0.35,0.35 z"
     style="fill:#ae076a;fill-rule:nonzero"
     id="path71"
     inkscape:connector-curvature="0" /><path
     d="m 13.04,294.64 c -0.2,0 -0.35,-0.16 -0.35,-0.35 v -3.41 c 0,-0.2 0.16,-0.35 0.35,-0.35 0.19,0 0.35,0.16 0.35,0.35 v 3.41 c 0.01,0.19 -0.15,0.35 -0.35,0.35 z"
     style="fill:#ae076a;fill-rule:nonzero"
     id="path73"
     inkscape:connector-curvature="0" /><path
     d="m 74.73,292.93 h -3.41 c -0.2,0 -0.35,-0.16 -0.35,-0.35 0,-0.2 0.16,-0.35 0.35,-0.35 h 3.41 c 0.2,0 0.35,0.16 0.35,0.35 0,0.19 -0.16,0.35 -0.35,0.35 z"
     style="fill:#ae076a;fill-rule:nonzero"
     id="path75"
     inkscape:connector-curvature="0" /><path
     d="m 73.02,294.63 c -0.2,0 -0.35,-0.16 -0.35,-0.35 v -3.41 c 0,-0.2 0.16,-0.35 0.35,-0.35 0.2,0 0.35,0.16 0.35,0.35 v 3.41 c 0.01,0.19 -0.15,0.35 -0.35,0.35 z"
     style="fill:#ae076a;fill-rule:nonzero"
     id="path77"
     inkscape:connector-curvature="0" /><g
     id="g87"><path
       d="m 103.44,332.74 v -3.06 c 0,-0.76 0.61,-1.37 1.37,-1.37 0.76,0 1.37,0.61 1.37,1.37 v 3.06 c 0,0.76 -0.61,1.37 -1.37,1.37 -0.75,0 -1.37,-0.61 -1.37,-1.37 z m 0.58,-3.06 v 3.06 c 0,0.44 0.35,0.79 0.79,0.79 0.43,0 0.79,-0.35 0.79,-0.79 v -3.06 c 0,-0.43 -0.36,-0.79 -0.79,-0.79 -0.44,0 -0.79,0.36 -0.79,0.79 z"
       style="fill:#211e1f;fill-rule:nonzero"
       id="path79"
       inkscape:connector-curvature="0" /><path
       d="m 108.59,333.54 c 0.43,0 0.79,-0.35 0.79,-0.79 v -4.14 c 0,-0.17 0.12,-0.29 0.29,-0.29 0.15,0 0.29,0.12 0.29,0.29 v 4.14 c 0,0.76 -0.62,1.37 -1.37,1.37 -0.76,0 -1.37,-0.61 -1.37,-1.37 v -4.14 c 0,-0.17 0.12,-0.29 0.29,-0.29 0.15,0 0.29,0.12 0.29,0.29 v 4.14 c 0,0.43 0.35,0.79 0.79,0.79 z"
       style="fill:#211e1f;fill-rule:nonzero"
       id="path81"
       inkscape:connector-curvature="0" /><path
       d="m 113.67,328.64 c 0,0.17 -0.12,0.29 -0.29,0.29 h -0.88 v 4.9 c 0,0.17 -0.12,0.29 -0.29,0.29 -0.15,0 -0.29,-0.12 -0.29,-0.29 v -4.9 h -0.88 c -0.15,0 -0.29,-0.12 -0.29,-0.29 0,-0.17 0.13,-0.29 0.29,-0.29 h 2.34 c 0.17,0 0.29,0.12 0.29,0.29 z"
       style="fill:#211e1f;fill-rule:nonzero"
       id="path83"
       inkscape:connector-curvature="0" /><path
       d="m 117.16,331.48 c 0,0.17 -0.14,0.29 -0.29,0.29 h -0.79 v 0.79 c 0,0.17 -0.13,0.29 -0.29,0.29 -0.17,0 -0.29,-0.12 -0.29,-0.29 v -0.79 h -0.79 c -0.17,0 -0.29,-0.12 -0.29,-0.29 0,-0.17 0.12,-0.29 0.29,-0.29 h 0.79 v -0.79 c 0,-0.17 0.12,-0.29 0.29,-0.29 0.15,0 0.29,0.12 0.29,0.29 v 0.79 h 0.79 c 0.16,0 0.29,0.12 0.29,0.29 z"
       style="fill:#211e1f;fill-rule:nonzero"
       id="path85"
       inkscape:connector-curvature="0" /></g><g
     id="g97"><path
       d="m 140.53,332.74 v -3.06 c 0,-0.76 0.61,-1.37 1.37,-1.37 0.76,0 1.37,0.61 1.37,1.37 v 3.06 c 0,0.76 -0.61,1.37 -1.37,1.37 -0.76,0 -1.37,-0.61 -1.37,-1.37 z m 0.57,-3.06 v 3.06 c 0,0.44 0.35,0.79 0.79,0.79 0.43,0 0.79,-0.35 0.79,-0.79 v -3.06 c 0,-0.43 -0.36,-0.79 -0.79,-0.79 -0.44,0 -0.79,0.36 -0.79,0.79 z"
       style="fill:#211e1f;fill-rule:nonzero"
       id="path89"
       inkscape:connector-curvature="0" /><path
       d="m 145.67,333.54 c 0.43,0 0.79,-0.35 0.79,-0.79 v -4.14 c 0,-0.17 0.12,-0.29 0.29,-0.29 0.15,0 0.29,0.12 0.29,0.29 v 4.14 c 0,0.76 -0.62,1.37 -1.37,1.37 -0.76,0 -1.37,-0.61 -1.37,-1.37 v -4.14 c 0,-0.17 0.12,-0.29 0.29,-0.29 0.15,0 0.29,0.12 0.29,0.29 v 4.14 c 0,0.43 0.35,0.79 0.79,0.79 z"
       style="fill:#211e1f;fill-rule:nonzero"
       id="path91"
       inkscape:connector-curvature="0" /><path
       d="m 150.75,328.64 c 0,0.17 -0.12,0.29 -0.29,0.29 h -0.88 v 4.9 c 0,0.17 -0.12,0.29 -0.29,0.29 -0.15,0 -0.29,-0.12 -0.29,-0.29 v -4.9 h -0.88 c -0.15,0 -0.29,-0.12 -0.29,-0.29 0,-0.17 0.13,-0.29 0.29,-0.29 h 2.34 c 0.17,0 0.29,0.12 0.29,0.29 z"
       style="fill:#211e1f;fill-rule:nonzero"
       id="path93"
       inkscape:connector-curvature="0" /><path
       d="m 153.23,331.77 h -2.16 c -0.17,0 -0.29,-0.12 -0.29,-0.29 0,-0.17 0.12,-0.29 0.29,-0.29 h 2.16 c 0.15,0 0.29,0.12 0.29,0.29 0,0.17 -0.13,0.29 -0.29,0.29 z"
       style="fill:#211e1f;fill-rule:nonzero"
       id="path95"
       inkscape:connector-curvature="0" /></g><g
     id="g105"><path
       d="m 105.04,221.52 v -3.06 c 0,-0.76 0.61,-1.37 1.37,-1.37 0.76,0 1.37,0.61 1.37,1.37 v 3.06 c 0,0.76 -0.61,1.37 -1.37,1.37 -0.76,-0.01 -1.37,-0.62 -1.37,-1.37 z m 0.58,-3.07 v 3.06 c 0,0.44 0.35,0.79 0.79,0.79 0.43,0 0.79,-0.35 0.79,-0.79 v -3.06 c 0,-0.43 -0.36,-0.79 -0.79,-0.79 -0.44,0 -0.79,0.36 -0.79,0.79 z"
       style="fill:#211e1f;fill-rule:nonzero"
       id="path99"
       inkscape:connector-curvature="0" /><path
       d="m 110.19,222.31 c 0.43,0 0.79,-0.35 0.79,-0.79 v -4.14 c 0,-0.17 0.12,-0.29 0.29,-0.29 0.15,0 0.29,0.12 0.29,0.29 v 4.14 c 0,0.76 -0.62,1.37 -1.37,1.37 -0.76,0 -1.37,-0.61 -1.37,-1.37 v -4.14 c 0,-0.17 0.12,-0.29 0.29,-0.29 0.15,0 0.29,0.12 0.29,0.29 v 4.14 c 0,0.44 0.35,0.79 0.79,0.79 z"
       style="fill:#211e1f;fill-rule:nonzero"
       id="path101"
       inkscape:connector-curvature="0" /><path
       d="m 115.27,217.41 c 0,0.17 -0.12,0.29 -0.29,0.29 h -0.88 v 4.9 c 0,0.17 -0.12,0.29 -0.29,0.29 -0.15,0 -0.29,-0.12 -0.29,-0.29 v -4.9 h -0.88 c -0.15,0 -0.29,-0.12 -0.29,-0.29 0,-0.17 0.13,-0.29 0.29,-0.29 h 2.34 c 0.17,0 0.29,0.12 0.29,0.29 z"
       style="fill:#211e1f;fill-rule:nonzero"
       id="path103"
       inkscape:connector-curvature="0" /></g><path
     d="m 158.76,261.58 c -2.09,0 -3.79,-1.7 -3.79,-3.79 0,-2.09 1.7,-3.79 3.79,-3.79 2.09,0 3.79,1.7 3.79,3.79 0,2.09 -1.7,3.79 -3.79,3.79 z m 0,-6.87 c -1.7,0 -3.08,1.38 -3.08,3.08 0,1.7 1.38,3.08 3.08,3.08 1.7,0 3.08,-1.38 3.08,-3.08 0,-1.7 -1.38,-3.08 -3.08,-3.08 z"
     style="fill:#2c7896;fill-rule:nonzero"
     id="path107"
     inkscape:connector-curvature="0" /><path
     d="m 158.99,161.43 c -2.09,0 -3.79,-1.7 -3.79,-3.79 0,-2.09 1.7,-3.79 3.79,-3.79 2.09,0 3.79,1.7 3.79,3.79 0,2.09 -1.7,3.79 -3.79,3.79 z m 0,-6.87 c -1.7,0 -3.08,1.38 -3.08,3.08 0,1.7 1.38,3.08 3.08,3.08 1.7,0 3.08,-1.38 3.08,-3.08 0,-1.7 -1.38,-3.08 -3.08,-3.08 z"
     style="fill:#ae076a;fill-rule:nonzero"
     id="path109"
     inkscape:connector-curvature="0" /><path
     d="m 158.99,197.24 c -2.09,0 -3.79,-1.7 -3.79,-3.79 0,-2.09 1.7,-3.79 3.79,-3.79 2.09,0 3.79,1.7 3.79,3.79 0,2.09 -1.7,3.79 -3.79,3.79 z m 0,-6.87 c -1.7,0 -3.08,1.38 -3.08,3.08 0,1.7 1.38,3.08 3.08,3.08 1.7,0 3.08,-1.38 3.08,-3.08 0,-1.7 -1.38,-3.08 -3.08,-3.08 z"
     style="fill:#ae076a;fill-rule:nonzero"
     id="path111"
     inkscape:connector-curvature="0" /><path
     d="m 99.01,161.43 c -2.09,0 -3.79,-1.7 -3.79,-3.79 0,-2.09 1.7,-3.79 3.79,-3.79 2.09,0 3.79,1.7 3.79,3.79 0,2.09 -1.7,3.79 -3.79,3.79 z m 0,-6.87 c -1.7,0 -3.08,1.38 -3.08,3.08 0,1.7 1.38,3.08 3.08,3.08 1.7,0 3.08,-1.38 3.08,-3.08 0,-1.7 -1.38,-3.08 -3.08,-3.08 z"
     style="fill:#ae076a;fill-rule:nonzero"
     id="path113"
     inkscape:connector-curvature="0" /><path
     d="m 98.79,261.58 c -2.09,0 -3.79,-1.7 -3.79,-3.79 0,-2.09 1.7,-3.79 3.79,-3.79 2.09,0 3.79,1.7 3.79,3.79 0,2.09 -1.7,3.79 -3.79,3.79 z m 0,-6.87 c -1.7,0 -3.08,1.38 -3.08,3.08 0,1.7 1.38,3.08 3.08,3.08 1.7,0 3.08,-1.38 3.08,-3.08 0,-1.7 -1.39,-3.08 -3.08,-3.08 z"
     style="fill:#2c7896;fill-rule:nonzero"
     id="path115"
     inkscape:connector-curvature="0" /><path
     d="m 158.76,296.36 c -2.09,0 -3.79,-1.7 -3.79,-3.79 0,-2.09 1.7,-3.79 3.79,-3.79 2.09,0 3.79,1.7 3.79,3.79 0,2.09 -1.7,3.79 -3.79,3.79 z m 0,-6.87 c -1.7,0 -3.08,1.38 -3.08,3.08 0,1.7 1.38,3.08 3.08,3.08 1.7,0 3.08,-1.38 3.08,-3.08 0,-1.69 -1.38,-3.08 -3.08,-3.08 z"
     style="fill:#ae076a;fill-rule:nonzero"
     id="path117"
     inkscape:connector-curvature="0" /><path
     d="m 98.79,296.36 c -2.09,0 -3.79,-1.7 -3.79,-3.79 0,-2.09 1.7,-3.79 3.79,-3.79 2.09,0 3.79,1.7 3.79,3.79 -0.01,2.09 -1.7,3.79 -3.79,3.79 z m 0,-6.87 c -1.7,0 -3.08,1.38 -3.08,3.08 0,1.7 1.38,3.08 3.08,3.08 1.7,0 3.08,-1.38 3.08,-3.08 0,-1.69 -1.39,-3.08 -3.08,-3.08 z"
     style="fill:#ae076a;fill-rule:nonzero"
     id="path119"
     inkscape:connector-curvature="0" /><path
     d="m 100.49,258.14 h -3.41 c -0.2,0 -0.35,-0.16 -0.35,-0.35 0,-0.2 0.16,-0.35 0.35,-0.35 h 3.41 c 0.2,0 0.35,0.16 0.35,0.35 0.01,0.19 -0.15,0.35 -0.35,0.35 z"
     style="fill:#2c7896;fill-rule:nonzero"
     id="path121"
     inkscape:connector-curvature="0" /><path
     d="m 158.99,159.7 c -0.2,0 -0.35,-0.16 -0.35,-0.35 v -3.41 c 0,-0.2 0.16,-0.35 0.35,-0.35 0.19,0 0.35,0.16 0.35,0.35 v 3.41 c 0,0.19 -0.16,0.35 -0.35,0.35 z"
     style="fill:#ae076a;fill-rule:nonzero"
     id="path123"
     inkscape:connector-curvature="0" /><path
     d="m 99.86,159.7 c -0.2,0 -0.35,-0.16 -0.35,-0.35 v -3.41 c 0,-0.2 0.16,-0.35 0.35,-0.35 0.2,0 0.35,0.16 0.35,0.35 v 3.41 c 0,0.19 -0.15,0.35 -0.35,0.35 z"
     style="fill:#ae076a;fill-rule:nonzero"
     id="path125"
     inkscape:connector-curvature="0" /><path
     d="m 98.16,159.7 c -0.2,0 -0.35,-0.16 -0.35,-0.35 v -3.41 c 0,-0.2 0.16,-0.35 0.35,-0.35 0.2,0 0.35,0.16 0.35,0.35 v 3.41 c 0.01,0.19 -0.15,0.35 -0.35,0.35 z"
     style="fill:#ae076a;fill-rule:nonzero"
     id="path127"
     inkscape:connector-curvature="0" /><path
     d="m 160.47,258.14 h -3.41 c -0.2,0 -0.35,-0.16 -0.35,-0.35 0,-0.2 0.16,-0.35 0.35,-0.35 h 3.41 c 0.2,0 0.35,0.16 0.35,0.35 0,0.19 -0.16,0.35 -0.35,0.35 z"
     style="fill:#2c7896;fill-rule:nonzero"
     id="path129"
     inkscape:connector-curvature="0" /><path
     d="m 160.47,292.93 h -3.41 c -0.2,0 -0.35,-0.16 -0.35,-0.35 0,-0.2 0.16,-0.35 0.35,-0.35 h 3.41 c 0.2,0 0.35,0.16 0.35,0.35 0,0.19 -0.16,0.35 -0.35,0.35 z"
     style="fill:#ae076a;fill-rule:nonzero"
     id="path131"
     inkscape:connector-curvature="0" /><path
     d="m 158.76,294.64 c -0.2,0 -0.35,-0.16 -0.35,-0.35 v -3.41 c 0,-0.2 0.16,-0.35 0.35,-0.35 0.19,0 0.35,0.16 0.35,0.35 v 3.41 c 0.01,0.19 -0.15,0.35 -0.35,0.35 z"
     style="fill:#ae076a;fill-rule:nonzero"
     id="path133"
     inkscape:connector-curvature="0" /><path
     d="m 100.49,292.93 h -3.41 c -0.2,0 -0.35,-0.16 -0.35,-0.35 0,-0.2 0.16,-0.35 0.35,-0.35 h 3.41 c 0.2,0 0.35,0.16 0.35,0.35 0.01,0.19 -0.15,0.35 -0.35,0.35 z"
     style="fill:#ae076a;fill-rule:nonzero"
     id="path135"
     inkscape:connector-curvature="0" /><path
     d="m 98.79,294.63 c -0.2,0 -0.35,-0.16 -0.35,-0.35 v -3.41 c 0,-0.2 0.16,-0.35 0.35,-0.35 0.2,0 0.35,0.16 0.35,0.35 v 3.41 c 0,0.19 -0.16,0.35 -0.35,0.35 z"
     style="fill:#ae076a;fill-rule:nonzero"
     id="path137"
     inkscape:connector-curvature="0" /><g
     id="g145"><path
       d="m 39.24,255.29 v -1.73 c 0,-0.65 0.52,-1.17 1.17,-1.17 h 0.63 v -1.57 c 0,-0.15 0.12,-0.27 0.27,-0.27 0.14,0 0.27,0.12 0.27,0.27 v 5.37 c 0,0.15 -0.13,0.27 -0.27,0.27 h -0.9 c -0.65,0 -1.17,-0.52 -1.17,-1.17 z m 0.54,-1.73 v 1.73 c 0,0.35 0.28,0.63 0.63,0.63 h 0.63 v -2.99 h -0.63 c -0.35,0 -0.63,0.28 -0.63,0.63 z"
       style="fill:#211e1f;fill-rule:nonzero"
       id="path139"
       inkscape:connector-curvature="0" /><path
       d="m 42.84,256.23 v -3.56 c 0,-0.15 0.12,-0.27 0.27,-0.27 h 0.9 c 0.21,0 0.4,0.05 0.59,0.15 0.13,0.08 0.17,0.23 0.1,0.37 -0.07,0.13 -0.23,0.18 -0.37,0.1 -0.1,-0.05 -0.21,-0.08 -0.31,-0.08 h -0.63 v 3.29 c 0,0.15 -0.12,0.27 -0.27,0.27 -0.16,0 -0.28,-0.12 -0.28,-0.27 z"
       style="fill:#211e1f;fill-rule:nonzero"
       id="path141"
       inkscape:connector-curvature="0" /><path
       d="m 45.91,252.37 c -0.08,0 -0.14,-0.03 -0.21,-0.08 -0.05,-0.06 -0.08,-0.13 -0.08,-0.21 0,-0.08 0.03,-0.14 0.08,-0.21 l 1.08,-1.08 c 0.08,-0.08 0.21,-0.1 0.31,-0.06 0.12,0.04 0.18,0.13 0.18,0.27 v 5.22 c 0,0.17 -0.14,0.29 -0.29,0.29 -0.17,0 -0.29,-0.12 -0.29,-0.29 v -4.53 l -0.6,0.59 c -0.04,0.07 -0.1,0.09 -0.18,0.09 z"
       style="fill:#211e1f;fill-rule:nonzero"
       id="path143"
       inkscape:connector-curvature="0" /></g><g
     id="g153"><path
       d="m 124.73,255.29 v -1.73 c 0,-0.65 0.52,-1.17 1.17,-1.17 h 0.63 v -1.57 c 0,-0.15 0.12,-0.27 0.27,-0.27 0.14,0 0.27,0.12 0.27,0.27 v 5.37 c 0,0.15 -0.13,0.27 -0.27,0.27 h -0.9 c -0.65,0 -1.17,-0.52 -1.17,-1.17 z m 0.54,-1.73 v 1.73 c 0,0.35 0.28,0.63 0.63,0.63 h 0.63 v -2.99 h -0.63 c -0.35,0 -0.63,0.28 -0.63,0.63 z"
       style="fill:#211e1f;fill-rule:nonzero"
       id="path147"
       inkscape:connector-curvature="0" /><path
       d="m 128.33,256.23 v -3.56 c 0,-0.15 0.12,-0.27 0.27,-0.27 h 0.9 c 0.21,0 0.4,0.05 0.59,0.15 0.13,0.08 0.17,0.23 0.1,0.37 -0.07,0.13 -0.23,0.18 -0.37,0.1 -0.1,-0.05 -0.21,-0.08 -0.31,-0.08 h -0.63 v 3.29 c 0,0.15 -0.12,0.27 -0.27,0.27 -0.17,0 -0.28,-0.12 -0.28,-0.27 z"
       style="fill:#211e1f;fill-rule:nonzero"
       id="path149"
       inkscape:connector-curvature="0" /><path
       d="m 130.96,251.4 c 0.19,-0.33 0.46,-0.54 0.82,-0.63 0.35,-0.1 0.71,-0.05 1.03,0.12 0.32,0.17 0.55,0.45 0.65,0.8 0.11,0.35 0.07,0.7 -0.1,1.04 -0.25,0.48 -0.49,0.92 -0.7,1.34 -0.38,0.72 -0.79,1.51 -0.96,1.84 h 1.54 c 0.15,0 0.29,0.12 0.29,0.29 0,0.17 -0.13,0.29 -0.29,0.29 h -2.02 c -0.12,0 -0.2,-0.04 -0.24,-0.13 -0.06,-0.1 -0.06,-0.2 -0.01,-0.29 l 1.89,-3.6 c 0.1,-0.19 0.12,-0.39 0.05,-0.59 -0.06,-0.21 -0.19,-0.37 -0.38,-0.47 -0.19,-0.1 -0.39,-0.13 -0.59,-0.07 -0.21,0.06 -0.37,0.19 -0.47,0.37 -0.08,0.13 -0.26,0.19 -0.4,0.11 -0.13,-0.1 -0.19,-0.28 -0.11,-0.42 z"
       style="fill:#211e1f;fill-rule:nonzero"
       id="path151"
       inkscape:connector-curvature="0" /></g><g
     id="g173"><path
       d="m 77.94,26.69 c -2.87,0 -5.07,-0.82 -6.56,-2.45 -2.3,-2.52 -2.02,-6.01 -2.01,-6.16 V 11.61 C 69.37,9.05 68.48,7.24 66.71,6.23 65.8,5.71 64.89,5.54 64.41,5.49 v 12.63 c 0,0.2 -0.16,0.35 -0.35,0.35 -0.2,0 -0.35,-0.16 -0.35,-0.35 V 4.76 h 0.35 c 0.06,0 1.53,0.01 3.01,0.86 1.38,0.79 3.01,2.47 3.01,6 v 6.5 c 0,0.06 -0.26,3.37 1.83,5.65 1.35,1.47 3.38,2.21 6.03,2.21 0.2,0 0.35,0.16 0.35,0.35 0,0.21 -0.16,0.36 -0.35,0.36 z"
       style="fill:#211e1f;fill-rule:nonzero"
       id="path155"
       inkscape:connector-curvature="0" /><path
       d="m 77.87,18.48 c -0.97,0 -3.63,-0.12 -4.93,-1.36 -0.5,-0.48 -0.75,-1.06 -0.75,-1.74 V 4.76 h 0.35 c 0.25,0 6.02,0.04 6.02,3.61 v 3.61 h -5.67 v 3.4 c 0,0.49 0.17,0.89 0.53,1.23 1.36,1.3 4.74,1.16 4.77,1.16 0.19,0.01 0.36,0.14 0.37,0.34 0.01,0.2 -0.14,0.36 -0.34,0.37 z m -4.96,-7.21 h 4.96 v -2.9 c 0,-2.42 -3.77,-2.82 -4.96,-2.88 z"
       style="fill:#211e1f;fill-rule:nonzero"
       id="path157"
       inkscape:connector-curvature="0" /><path
       d="m 84.01,19.16 c -1.6,0 -3.31,-0.91 -3.31,-2.61 v -8.6 c 0,-0.2 0.16,-0.35 0.35,-0.35 0.2,0 0.35,0.16 0.35,0.35 v 8.6 c 0,1.23 1.34,1.9 2.6,1.9 0.65,0 1.24,-0.17 1.67,-0.48 0.46,-0.34 0.7,-0.81 0.7,-1.42 v -8.6 c 0,-0.2 0.16,-0.35 0.35,-0.35 0.2,0 0.35,0.16 0.35,0.35 v 8.6 c 0,0.83 -0.34,1.52 -0.99,1.99 -0.53,0.4 -1.27,0.62 -2.07,0.62 z"
       style="fill:#211e1f;fill-rule:nonzero"
       id="path159"
       inkscape:connector-curvature="0" /><path
       d="m 89.56,23.58 c -0.2,0 -0.35,-0.16 -0.35,-0.35 V 4.76 h 0.35 c 0.06,0 1.48,0 2.93,0.42 2.02,0.58 3.09,1.68 3.09,3.19 v 3.61 h -2.65 l 2.62,6.01 c 0.08,0.18 0,0.39 -0.18,0.47 -0.17,0.08 -0.39,0 -0.47,-0.18 l -3.05,-7 h 3.02 V 8.38 C 94.87,5.96 91.1,5.56 89.91,5.5 v 17.74 c 0.01,0.18 -0.15,0.34 -0.35,0.34 z"
       style="fill:#211e1f;fill-rule:nonzero"
       id="path161"
       inkscape:connector-curvature="0" /><path
       d="m 101,18.47 c -1.59,0 -3.29,-1.12 -3.29,-3.18 V 7.95 c 0,-1.87 1.62,-2.85 3.23,-2.85 1.52,0 3.15,0.89 3.15,2.85 v 7.34 c 0,0.99 -0.33,1.82 -0.97,2.4 -0.55,0.5 -1.31,0.78 -2.12,0.78 z M 100.94,5.81 c -1.21,0 -2.52,0.67 -2.52,2.15 v 7.34 c 0,1.62 1.3,2.47 2.58,2.47 0.64,0 1.23,-0.21 1.65,-0.6 0.48,-0.44 0.73,-1.09 0.73,-1.87 V 7.95 c 0,-1.48 -1.22,-2.14 -2.44,-2.14 z"
       style="fill:#211e1f;fill-rule:nonzero"
       id="path163"
       inkscape:connector-curvature="0" /><path
       d="m 106.57,18.48 c -0.2,0 -0.35,-0.16 -0.35,-0.35 V 4.76 h 0.35 c 0.06,0 1.53,0.01 3.01,0.86 1.38,0.79 3.01,2.47 3.01,6 v 4.54 c 0,0.2 -0.16,0.35 -0.35,0.35 -0.2,0 -0.35,-0.16 -0.35,-0.35 v -4.54 c 0,-2.56 -0.89,-4.37 -2.66,-5.38 -0.91,-0.52 -1.82,-0.69 -2.3,-0.74 v 12.63 c -0.01,0.19 -0.17,0.35 -0.36,0.35 z"
       style="fill:#211e1f;fill-rule:nonzero"
       id="path165"
       inkscape:connector-curvature="0" /><path
       d="m 79.15,26.34 c 0,0.67 -0.54,1.21 -1.21,1.21 -0.67,0 -1.21,-0.54 -1.21,-1.21 0,-0.67 0.54,-1.21 1.21,-1.21 0.67,0 1.21,0.54 1.21,1.21 z"
       style="fill:#ae076a;fill-rule:nonzero"
       id="path167"
       inkscape:connector-curvature="0" /><path
       d="m 113.45,16.29 c 0,0.67 -0.54,1.21 -1.21,1.21 -0.67,0 -1.21,-0.54 -1.21,-1.21 0,-0.67 0.54,-1.21 1.21,-1.21 0.67,-0.01 1.21,0.54 1.21,1.21 z"
       style="fill:#ae076a;fill-rule:nonzero"
       id="path169"
       inkscape:connector-curvature="0" /><path
       d="m 85.1,5.12 c 0,0.67 -0.54,1.21 -1.21,1.21 -0.67,0 -1.21,-0.54 -1.21,-1.21 0,-0.67 0.54,-1.21 1.21,-1.21 0.67,0 1.21,0.54 1.21,1.21 z"
       style="fill:#ae076a;fill-rule:nonzero"
       id="path171"
       inkscape:connector-curvature="0" /></g><g
     id="g179"><path
       d="m 43.81,24.08 c -0.2,0 -0.35,-0.16 -0.35,-0.35 v -6.27 c 0,-3.32 2.7,-6.02 6.02,-6.02 h 9.65 c 0.2,0 0.35,0.16 0.35,0.35 0,0.19 -0.16,0.35 -0.35,0.35 h -9.65 c -2.93,0 -5.31,2.38 -5.31,5.31 v 6.27 c 0,0.2 -0.16,0.36 -0.36,0.36 z"
       style="fill:#2c7896;fill-rule:nonzero"
       id="path175"
       inkscape:connector-curvature="0" /><path
       d="m 58.72,13.2 2.45,-1.42 -2.45,-1.41 z"
       style="fill:#2c7896;fill-rule:nonzero"
       id="path177"
       inkscape:connector-curvature="0" /></g><path
     d="m 128.22,24.08 c -0.2,0 -0.35,-0.16 -0.35,-0.35 v -6.27 c 0,-2.93 -2.38,-5.31 -5.31,-5.31 H 115 c -0.2,0 -0.35,-0.16 -0.35,-0.35 0,-0.19 0.16,-0.35 0.35,-0.35 h 7.55 c 3.32,0 6.02,2.7 6.02,6.02 v 6.27 c 0.01,0.18 -0.15,0.34 -0.35,0.34 z"
     style="fill:#2c7896;fill-rule:nonzero"
     id="path181"
     inkscape:connector-curvature="0" /><path
     d="m 24.67,283.7 c -0.2,0 -0.35,-0.16 -0.35,-0.35 v -12.71 c 0,-1.76 1.43,-3.19 3.19,-3.19 h 15.64 c 0.2,0 0.35,0.16 0.35,0.35 0,0.2 -0.16,0.35 -0.35,0.35 H 27.5 c -1.37,0 -2.48,1.11 -2.48,2.48 v 12.71 c 0,0.21 -0.16,0.36 -0.35,0.36 z"
     style="fill:#ae076a;fill-rule:nonzero"
     id="path183"
     inkscape:connector-curvature="0" /><path
     d="m 61.54,283.7 c -0.2,0 -0.35,-0.16 -0.35,-0.35 v -12.71 c 0,-1.37 -1.11,-2.48 -2.48,-2.48 H 43.14 c -0.2,0 -0.35,-0.16 -0.35,-0.35 0,-0.2 0.16,-0.35 0.35,-0.35 H 58.7 c 1.76,0 3.19,1.43 3.19,3.19 v 12.71 c 0,0.19 -0.16,0.34 -0.35,0.34 z"
     style="fill:#ae076a;fill-rule:nonzero"
     id="path185"
     inkscape:connector-curvature="0" /><path
     d="m 147.1,283.7 c -0.2,0 -0.35,-0.16 -0.35,-0.35 v -12.71 c 0,-1.37 -1.11,-2.48 -2.48,-2.48 h -15.64 c -0.2,0 -0.35,-0.16 -0.35,-0.35 0,-0.2 0.16,-0.35 0.35,-0.35 h 15.64 c 1.76,0 3.19,1.43 3.19,3.19 v 12.71 c -0.01,0.19 -0.17,0.34 -0.36,0.34 z"
     style="fill:#ae076a;fill-rule:nonzero"
     id="path187"
     inkscape:connector-curvature="0" /><path
     d="m 110.23,283.7 c -0.2,0 -0.35,-0.16 -0.35,-0.35 v -12.71 c 0,-1.76 1.43,-3.19 3.19,-3.19 h 15.56 c 0.2,0 0.35,0.16 0.35,0.35 0,0.2 -0.16,0.35 -0.35,0.35 h -15.56 c -1.37,0 -2.48,1.11 -2.48,2.48 v 12.71 c -0.01,0.21 -0.17,0.36 -0.36,0.36 z"
     style="fill:#ae076a;fill-rule:nonzero"
     id="path189"
     inkscape:connector-curvature="0" /><path
     d="m 41.85,294.22 c -0.2,0 -0.35,-0.16 -0.35,-0.35 0,-0.69 0.33,-1.33 0.93,-1.81 l 1.05,-0.83 c 0.43,-0.34 0.66,-0.78 0.66,-1.25 0,-0.2 0.16,-0.35 0.35,-0.35 0.2,0 0.35,0.16 0.35,0.35 0,0.69 -0.33,1.33 -0.93,1.81 l -1.05,0.83 c -0.43,0.34 -0.66,0.78 -0.66,1.25 0.01,0.19 -0.15,0.35 -0.35,0.35 z"
     style="fill:#ae076a;fill-rule:nonzero"
     id="path191"
     inkscape:connector-curvature="0" /><path
     d="m 41.86,286.63 c -0.18,0 -0.33,-0.13 -0.35,-0.31 -0.09,-0.77 0.25,-1.52 0.92,-2.05 l 1.05,-0.83 c 0.36,-0.29 0.59,-0.65 0.65,-1.04 0.03,-0.19 0.2,-0.33 0.41,-0.29 0.19,0.03 0.33,0.21 0.29,0.41 -0.09,0.56 -0.41,1.09 -0.91,1.48 l -1.05,0.84 c -0.48,0.38 -0.72,0.89 -0.66,1.41 0.02,0.2 -0.12,0.37 -0.31,0.39 -0.01,-0.01 -0.03,-0.01 -0.04,-0.01 z"
     style="fill:#ae076a;fill-rule:nonzero"
     id="path193"
     inkscape:connector-curvature="0" /><path
     d="m 41.85,278.55 h -0.02 c -0.2,-0.01 -0.34,-0.18 -0.33,-0.37 0.04,-0.65 0.37,-1.25 0.93,-1.69 l 1.05,-0.83 c 0.45,-0.36 0.69,-0.83 0.66,-1.32 -0.01,-0.2 0.14,-0.36 0.34,-0.37 0.17,-0.03 0.36,0.14 0.37,0.34 0.04,0.72 -0.3,1.42 -0.93,1.91 l -1.05,0.83 c -0.4,0.32 -0.64,0.73 -0.66,1.17 -0.01,0.18 -0.17,0.33 -0.36,0.33 z"
     style="fill:#ae076a;fill-rule:nonzero"
     id="path195"
     inkscape:connector-curvature="0" /><path
     d="m 30.83,72.52 c -0.06,0 -0.12,-0.02 -0.18,-0.05 C 22.54,67.78 17.5,59.05 17.5,49.68 c 0,-14.51 11.8,-26.31 26.31,-26.31 14.51,0 26.31,11.8 26.31,26.31 0,9.21 -4.92,17.87 -12.83,22.6 -0.17,0.1 -0.38,0.05 -0.49,-0.12 -0.1,-0.17 -0.05,-0.39 0.12,-0.49 7.7,-4.6 12.49,-13.03 12.49,-21.99 0,-14.12 -11.49,-25.6 -25.6,-25.6 -14.11,0 -25.6,11.49 -25.6,25.6 0,9.11 4.9,17.61 12.8,22.18 0.17,0.1 0.23,0.31 0.13,0.48 -0.07,0.12 -0.19,0.18 -0.31,0.18 z"
     style="fill:#2c7896;fill-rule:nonzero"
     id="path197"
     inkscape:connector-curvature="0" /><path
     d="m 41.85,270.86 c -0.2,0 -0.35,-0.16 -0.35,-0.35 0,-0.69 0.33,-1.33 0.93,-1.81 l 1.05,-0.83 c 0.43,-0.34 0.66,-0.78 0.66,-1.25 0,-0.2 0.16,-0.35 0.35,-0.35 0.2,0 0.35,0.16 0.35,0.35 0,0.69 -0.33,1.33 -0.93,1.81 l -1.05,0.83 c -0.43,0.34 -0.66,0.79 -0.66,1.25 0.01,0.19 -0.15,0.35 -0.35,0.35 z"
     style="fill:#ae076a;fill-rule:nonzero"
     id="path199"
     inkscape:connector-curvature="0" /><path
     d="m 30.83,139.56 c -0.06,0 -0.12,-0.02 -0.18,-0.05 -8.11,-4.69 -13.15,-13.43 -13.15,-22.79 0,-14.51 11.8,-26.31 26.31,-26.31 14.51,0 26.31,11.8 26.31,26.31 0,9.21 -4.92,17.87 -12.83,22.6 -0.17,0.1 -0.38,0.05 -0.49,-0.12 -0.1,-0.17 -0.05,-0.39 0.12,-0.49 7.7,-4.6 12.49,-13.03 12.49,-21.99 0,-14.12 -11.49,-25.6 -25.6,-25.6 -14.11,0 -25.6,11.49 -25.6,25.6 0,9.11 4.9,17.61 12.8,22.18 0.17,0.1 0.23,0.31 0.13,0.48 -0.07,0.12 -0.19,0.18 -0.31,0.18 z"
     style="fill:#2c7896;fill-rule:nonzero"
     id="path201"
     inkscape:connector-curvature="0" /><path
     d="m 32.56,328.74 c -0.12,0 -0.24,-0.06 -0.3,-0.17 -0.1,-0.17 -0.05,-0.39 0.12,-0.49 4.49,-2.72 7.17,-7.46 7.17,-12.68 0,-8.18 -6.65,-14.83 -14.83,-14.83 -8.18,0 -14.83,6.65 -14.83,14.83 0,5.22 2.68,9.96 7.17,12.68 0.17,0.1 0.22,0.32 0.12,0.49 -0.1,0.17 -0.32,0.22 -0.49,0.12 -4.7,-2.85 -7.51,-7.81 -7.51,-13.28 0,-8.57 6.97,-15.54 15.54,-15.54 8.57,0 15.54,6.97 15.54,15.54 0,5.47 -2.81,10.43 -7.51,13.28 -0.06,0.03 -0.12,0.05 -0.19,0.05 z"
     style="fill:#2c7896;fill-rule:nonzero"
     id="path203"
     inkscape:connector-curvature="0" /><path
     d="m 69.42,328.74 c -0.12,0 -0.24,-0.06 -0.3,-0.17 -0.1,-0.17 -0.05,-0.39 0.12,-0.49 4.49,-2.72 7.17,-7.46 7.17,-12.68 0,-8.18 -6.65,-14.83 -14.83,-14.83 -8.18,0 -14.83,6.65 -14.83,14.83 0,5.22 2.68,9.96 7.17,12.68 0.17,0.1 0.22,0.32 0.12,0.49 -0.1,0.17 -0.32,0.22 -0.49,0.12 -4.7,-2.85 -7.51,-7.81 -7.51,-13.28 0,-8.57 6.97,-15.54 15.54,-15.54 8.57,0 15.54,6.97 15.54,15.54 0,5.47 -2.81,10.43 -7.51,13.28 -0.06,0.03 -0.12,0.05 -0.19,0.05 z"
     style="fill:#ae076a;fill-rule:nonzero"
     id="path205"
     inkscape:connector-curvature="0" /><path
     d="m 69.42,217.71 c -0.12,0 -0.24,-0.06 -0.3,-0.17 -0.1,-0.17 -0.05,-0.39 0.12,-0.49 4.49,-2.72 7.17,-7.46 7.17,-12.68 0,-8.18 -6.65,-14.83 -14.83,-14.83 -8.18,0 -14.83,6.65 -14.83,14.83 0,5.22 2.68,9.96 7.17,12.68 0.17,0.1 0.22,0.32 0.12,0.49 -0.1,0.17 -0.32,0.22 -0.49,0.12 -4.7,-2.85 -7.51,-7.81 -7.51,-13.28 0,-8.57 6.97,-15.54 15.54,-15.54 8.57,0 15.54,6.97 15.54,15.54 0,5.47 -2.81,10.43 -7.51,13.28 -0.06,0.03 -0.12,0.05 -0.19,0.05 z"
     style="fill:#2c7896;fill-rule:nonzero"
     id="path207"
     inkscape:connector-curvature="0" /><path
     d="m 44.5,266.96 c -0.2,0 -0.35,-0.16 -0.35,-0.35 0,-0.37 -0.67,-1.21 -1.22,-1.64 -0.15,-0.12 -0.18,-0.34 -0.06,-0.5 0.12,-0.15 0.35,-0.18 0.5,-0.06 0.47,0.37 1.49,1.43 1.49,2.2 -0.01,0.2 -0.16,0.35 -0.36,0.35 z"
     style="fill:#ae076a;fill-rule:nonzero"
     id="path209"
     inkscape:connector-curvature="0" /><path
     d="m 38.22,308.24 c -0.15,0 -0.3,-0.1 -0.34,-0.26 -0.05,-0.19 0.06,-0.38 0.24,-0.44 0.03,-0.01 3.38,-0.99 3.38,-3.58 v -6.21 c 0,-0.69 0.33,-1.33 0.93,-1.81 l 1.05,-0.83 c 0.43,-0.34 0.66,-0.78 0.66,-1.25 0,-0.47 -0.24,-0.92 -0.66,-1.26 l -1.05,-0.83 c -0.6,-0.48 -0.93,-1.12 -0.93,-1.81 0,-0.69 0.33,-1.33 0.93,-1.8 l 1.05,-0.83 c 0.43,-0.34 0.67,-0.79 0.66,-1.26 0,-0.47 -0.24,-0.91 -0.66,-1.25 l -1.05,-0.84 c -0.6,-0.48 -0.93,-1.12 -0.93,-1.81 0,-0.69 0.33,-1.33 0.93,-1.81 l 1.05,-0.83 c 0.43,-0.34 0.66,-0.78 0.66,-1.25 0,-0.47 -0.24,-0.91 -0.66,-1.25 l -1.05,-0.83 c -0.6,-0.47 -0.93,-1.11 -0.93,-1.8 0,-0.69 0.33,-1.33 0.93,-1.81 l 1.05,-0.83 c 0.43,-0.34 0.66,-0.78 0.66,-1.25 0,-0.47 -0.24,-0.92 -0.66,-1.26 l -1.05,-0.83 c -0.6,-0.48 -0.93,-1.12 -0.93,-1.81 0,-0.69 0.33,-1.33 0.93,-1.8 l 1.05,-0.83 c 0.43,-0.34 0.67,-0.78 0.66,-1.25 0,-0.47 -0.24,-0.91 -0.66,-1.25 -0.15,-0.12 -0.18,-0.34 -0.06,-0.5 0.12,-0.15 0.34,-0.18 0.5,-0.06 0.6,0.48 0.93,1.12 0.93,1.81 0,0.69 -0.33,1.33 -0.93,1.81 l -1.05,0.83 c -0.43,0.34 -0.66,0.78 -0.66,1.25 0,0.47 0.24,0.92 0.66,1.26 l 1.05,0.83 c 0.6,0.48 0.93,1.12 0.93,1.81 0,0.69 -0.33,1.33 -0.93,1.81 l -1.05,0.83 c -0.43,0.34 -0.66,0.79 -0.66,1.25 0,0.47 0.24,0.91 0.66,1.25 l 1.05,0.83 c 0.6,0.47 0.93,1.12 0.93,1.81 0,0.69 -0.33,1.33 -0.93,1.81 l -1.05,0.83 c -0.43,0.34 -0.66,0.78 -0.66,1.25 0,0.47 0.24,0.91 0.66,1.25 l 1.05,0.84 c 0.6,0.47 0.93,1.11 0.93,1.8 0,0.69 -0.33,1.34 -0.93,1.81 l -1.05,0.83 c -0.43,0.34 -0.66,0.78 -0.66,1.25 0,0.47 0.24,0.92 0.66,1.26 l 1.05,0.83 c 0.6,0.48 0.93,1.12 0.93,1.81 0,0.69 -0.33,1.33 -0.93,1.81 l -1.05,0.83 c -0.43,0.34 -0.66,0.78 -0.66,1.25 v 6.21 c 0,3.13 -3.73,4.21 -3.89,4.26 -0.04,0 -0.07,0.01 -0.1,0.01 z"
     style="fill:#2c7896;fill-rule:nonzero"
     id="path211"
     inkscape:connector-curvature="0" /><path
     d="m 47.69,308.68 c -0.06,0 -0.12,-0.01 -0.17,-0.05 -0.14,-0.08 -3.37,-1.95 -3.37,-6.11 v -4.77 c 0,-0.47 -0.24,-0.91 -0.66,-1.25 l -1.05,-0.83 c -0.6,-0.48 -0.93,-1.12 -0.93,-1.81 0,-0.2 0.16,-0.35 0.35,-0.35 0.2,0 0.35,0.16 0.35,0.35 0,0.47 0.24,0.91 0.66,1.25 l 1.05,0.83 c 0.6,0.48 0.93,1.12 0.93,1.81 v 4.77 c 0,3.74 2.89,5.43 3.01,5.5 0.17,0.1 0.23,0.31 0.13,0.48 -0.06,0.12 -0.18,0.18 -0.3,0.18 z"
     style="fill:#ae076a;fill-rule:nonzero"
     id="path213"
     inkscape:connector-curvature="0" /><path
     d="m 44.5,290.32 c -0.2,0 -0.35,-0.16 -0.35,-0.35 0,-0.47 -0.24,-0.91 -0.66,-1.25 l -1.05,-0.83 c -0.52,-0.42 -0.85,-0.97 -0.92,-1.57 -0.02,-0.19 0.12,-0.37 0.31,-0.39 0.19,-0.02 0.37,0.12 0.39,0.31 0.05,0.41 0.28,0.8 0.66,1.1 l 1.05,0.83 c 0.6,0.47 0.93,1.12 0.93,1.81 -0.01,0.18 -0.16,0.34 -0.36,0.34 z"
     style="fill:#ae076a;fill-rule:nonzero"
     id="path215"
     inkscape:connector-curvature="0" /><path
     d="m 44.48,282.81 h -0.05 c -0.19,-0.03 -0.33,-0.21 -0.3,-0.4 0.08,-0.54 -0.15,-1.08 -0.65,-1.47 l -1.05,-0.84 c -0.63,-0.5 -0.97,-1.2 -0.93,-1.92 0.01,-0.19 0.16,-0.35 0.37,-0.33 0.2,0.01 0.34,0.18 0.33,0.37 -0.03,0.5 0.21,0.97 0.66,1.33 l 1.05,0.83 c 0.69,0.55 1.03,1.34 0.91,2.13 -0.02,0.17 -0.17,0.3 -0.34,0.3 z"
     style="fill:#ae076a;fill-rule:nonzero"
     id="path217"
     inkscape:connector-curvature="0" /><path
     d="m 44.5,274.66 c -0.19,0 -0.34,-0.15 -0.35,-0.34 -0.02,-0.44 -0.26,-0.86 -0.66,-1.18 l -1.05,-0.83 c -0.6,-0.48 -0.93,-1.12 -0.93,-1.81 0,-0.2 0.16,-0.35 0.35,-0.35 0.2,0 0.35,0.16 0.35,0.35 0,0.47 0.24,0.91 0.66,1.25 l 1.05,0.83 c 0.57,0.45 0.9,1.05 0.93,1.7 0.01,0.2 -0.14,0.36 -0.33,0.37 -0.01,0.01 -0.02,0.01 -0.02,0.01 z"
     style="fill:#ae076a;fill-rule:nonzero"
     id="path219"
     inkscape:connector-curvature="0" /><path
     d="M 44.45,261.48 H 27.5 c -1.76,0 -3.19,-1.43 -3.19,-3.19 v -12.57 c 0,-0.2 0.16,-0.35 0.35,-0.35 0.19,0 0.35,0.16 0.35,0.35 v 12.57 c 0,1.37 1.11,2.48 2.48,2.48 h 16.95 c 0.2,0 0.35,0.16 0.35,0.35 0.02,0.2 -0.14,0.36 -0.34,0.36 z"
     style="fill:#2c7896;fill-rule:nonzero"
     id="path221"
     inkscape:connector-curvature="0" /><path
     d="M 58.7,261.48 H 44.45 c -0.2,0 -0.35,-0.16 -0.35,-0.35 0,-0.2 0.16,-0.35 0.35,-0.35 H 58.7 c 1.37,0 2.48,-1.11 2.48,-2.48 v -12.18 c 0,-0.2 0.16,-0.35 0.35,-0.35 0.2,0 0.35,0.16 0.35,0.35 v 12.18 c 0.01,1.75 -1.42,3.18 -3.18,3.18 z"
     style="fill:#2c7896;fill-rule:nonzero"
     id="path223"
     inkscape:connector-curvature="0" /><circle
     cx="81.459999"
     cy="143.27"
     r="1.21"
     style="fill:#2c7896"
     id="circle225" /><path
     d="m 70.98,116.72 c 0,0.67 -0.54,1.21 -1.21,1.21 -0.67,0 -1.21,-0.54 -1.21,-1.21 0,-0.67 0.54,-1.21 1.21,-1.21 0.67,0 1.21,0.54 1.21,1.21 z"
     style="fill:#2c7896;fill-rule:nonzero"
     id="path227"
     inkscape:connector-curvature="0" /><path
     d="m 70.98,49.7 c 0,0.67 -0.54,1.21 -1.21,1.21 -0.67,0 -1.21,-0.54 -1.21,-1.21 0,-0.67 0.54,-1.21 1.21,-1.21 0.67,0 1.21,0.54 1.21,1.21 z"
     style="fill:#2c7896;fill-rule:nonzero"
     id="path229"
     inkscape:connector-curvature="0" /><path
     d="m 129.96,294.22 c -0.2,0 -0.35,-0.16 -0.35,-0.35 0,-0.47 -0.24,-0.91 -0.66,-1.25 l -1.05,-0.83 c -0.6,-0.48 -0.93,-1.12 -0.93,-1.81 0,-0.2 0.16,-0.35 0.35,-0.35 0.2,0 0.35,0.16 0.35,0.35 0,0.47 0.24,0.91 0.66,1.25 l 1.05,0.83 c 0.6,0.48 0.93,1.12 0.93,1.81 0,0.19 -0.16,0.35 -0.35,0.35 z"
     style="fill:#ae076a;fill-rule:nonzero"
     id="path231"
     inkscape:connector-curvature="0" /><path
     d="m 129.95,286.63 h -0.04 c -0.19,-0.02 -0.33,-0.2 -0.31,-0.39 0.06,-0.52 -0.18,-1.03 -0.66,-1.41 l -1.05,-0.84 c -0.5,-0.39 -0.82,-0.92 -0.91,-1.48 -0.03,-0.19 0.1,-0.38 0.29,-0.41 0.2,-0.03 0.38,0.1 0.41,0.29 0.06,0.39 0.29,0.75 0.65,1.04 l 1.05,0.84 c 0.67,0.53 1.01,1.27 0.92,2.04 -0.02,0.19 -0.18,0.32 -0.35,0.32 z"
     style="fill:#ae076a;fill-rule:nonzero"
     id="path233"
     inkscape:connector-curvature="0" /><path
     d="m 129.96,278.55 c -0.19,0 -0.34,-0.15 -0.35,-0.33 -0.03,-0.44 -0.26,-0.86 -0.66,-1.17 l -1.05,-0.83 c -0.63,-0.5 -0.97,-1.19 -0.93,-1.91 0.01,-0.2 0.2,-0.35 0.37,-0.34 0.2,0.01 0.35,0.18 0.34,0.37 -0.02,0.5 0.21,0.96 0.66,1.32 l 1.05,0.83 c 0.56,0.44 0.89,1.04 0.93,1.69 0.01,0.2 -0.14,0.36 -0.33,0.37 z"
     style="fill:#ae076a;fill-rule:nonzero"
     id="path235"
     inkscape:connector-curvature="0" /><path
     d="m 141.2,72.52 c -0.12,0 -0.24,-0.06 -0.31,-0.18 -0.1,-0.17 -0.04,-0.39 0.13,-0.48 7.9,-4.57 12.8,-13.07 12.8,-22.18 0,-14.12 -11.49,-25.6 -25.6,-25.6 -14.11,0 -25.6,11.49 -25.6,25.6 0,8.96 4.78,17.39 12.49,21.99 0.17,0.1 0.22,0.32 0.12,0.49 -0.1,0.17 -0.32,0.22 -0.49,0.12 -7.91,-4.73 -12.83,-13.39 -12.83,-22.6 0,-14.51 11.8,-26.31 26.31,-26.31 14.51,0 26.31,11.8 26.31,26.31 0,9.36 -5.04,18.1 -13.15,22.79 -0.06,0.04 -0.12,0.05 -0.18,0.05 z"
     style="fill:#2c7896;fill-rule:nonzero"
     id="path237"
     inkscape:connector-curvature="0" /><path
     d="m 129.96,270.86 c -0.2,0 -0.35,-0.16 -0.35,-0.35 0,-0.47 -0.24,-0.92 -0.66,-1.26 l -1.05,-0.83 c -0.6,-0.48 -0.93,-1.12 -0.93,-1.81 0,-0.2 0.16,-0.35 0.35,-0.35 0.2,0 0.35,0.16 0.35,0.35 0,0.47 0.24,0.91 0.66,1.25 l 1.05,0.83 c 0.6,0.48 0.93,1.12 0.93,1.81 0,0.2 -0.16,0.36 -0.35,0.36 z"
     style="fill:#ae076a;fill-rule:nonzero"
     id="path239"
     inkscape:connector-curvature="0" /><path
     d="m 141.2,139.56 c -0.12,0 -0.24,-0.06 -0.31,-0.18 -0.1,-0.17 -0.04,-0.39 0.13,-0.48 7.9,-4.57 12.8,-13.07 12.8,-22.18 0,-14.12 -11.49,-25.6 -25.6,-25.6 -14.11,0 -25.6,11.49 -25.6,25.6 0,8.96 4.78,17.39 12.49,21.99 0.17,0.1 0.22,0.32 0.12,0.49 -0.1,0.17 -0.32,0.22 -0.49,0.12 -7.91,-4.73 -12.83,-13.39 -12.83,-22.6 0,-14.51 11.8,-26.31 26.31,-26.31 14.51,0 26.31,11.8 26.31,26.31 0,9.36 -5.04,18.1 -13.15,22.79 -0.06,0.03 -0.12,0.05 -0.18,0.05 z"
     style="fill:#2c7896;fill-rule:nonzero"
     id="path241"
     inkscape:connector-curvature="0" /><path
     d="m 154.91,328.74 c -0.12,0 -0.24,-0.06 -0.3,-0.17 -0.1,-0.17 -0.05,-0.39 0.12,-0.49 4.49,-2.72 7.17,-7.46 7.17,-12.68 0,-8.18 -6.65,-14.83 -14.83,-14.83 -8.18,0 -14.83,6.65 -14.83,14.83 0,5.22 2.68,9.96 7.17,12.68 0.17,0.1 0.22,0.32 0.12,0.49 -0.1,0.17 -0.32,0.22 -0.49,0.12 -4.7,-2.85 -7.51,-7.81 -7.51,-13.28 0,-8.57 6.97,-15.54 15.54,-15.54 8.57,0 15.54,6.97 15.54,15.54 0,5.47 -2.81,10.43 -7.51,13.28 -0.07,0.03 -0.13,0.05 -0.19,0.05 z"
     style="fill:#2c7896;fill-rule:nonzero"
     id="path243"
     inkscape:connector-curvature="0" /><path
     d="m 118.04,328.74 c -0.12,0 -0.24,-0.06 -0.3,-0.17 -0.1,-0.17 -0.05,-0.39 0.12,-0.49 4.49,-2.72 7.17,-7.46 7.17,-12.68 0,-8.18 -6.65,-14.83 -14.83,-14.83 -8.18,0 -14.83,6.65 -14.83,14.83 0,5.22 2.68,9.96 7.17,12.68 0.17,0.1 0.22,0.32 0.12,0.49 -0.1,0.17 -0.32,0.22 -0.49,0.12 -4.7,-2.85 -7.51,-7.81 -7.51,-13.28 0,-8.57 6.97,-15.54 15.54,-15.54 8.57,0 15.54,6.97 15.54,15.54 0,5.47 -2.81,10.43 -7.51,13.28 -0.06,0.03 -0.13,0.05 -0.19,0.05 z"
     style="fill:#ae076a;fill-rule:nonzero"
     id="path245"
     inkscape:connector-curvature="0" /><path
     d="m 118.04,217.71 c -0.12,0 -0.24,-0.06 -0.3,-0.17 -0.1,-0.17 -0.05,-0.39 0.12,-0.49 4.49,-2.72 7.17,-7.46 7.17,-12.68 0,-8.18 -6.65,-14.83 -14.83,-14.83 -8.18,0 -14.83,6.65 -14.83,14.83 0,5.22 2.68,9.96 7.17,12.68 0.17,0.1 0.22,0.32 0.12,0.49 -0.1,0.17 -0.32,0.22 -0.49,0.12 -4.7,-2.85 -7.51,-7.81 -7.51,-13.28 0,-8.57 6.97,-15.54 15.54,-15.54 8.57,0 15.54,6.97 15.54,15.54 0,5.47 -2.81,10.43 -7.51,13.28 -0.06,0.03 -0.13,0.05 -0.19,0.05 z"
     style="fill:#2c7896;fill-rule:nonzero"
     id="path247"
     inkscape:connector-curvature="0" /><path
     d="m 127.31,266.96 c -0.2,0 -0.35,-0.16 -0.35,-0.35 0,-0.77 1.02,-1.83 1.49,-2.2 0.15,-0.12 0.38,-0.09 0.5,0.06 0.12,0.15 0.09,0.38 -0.06,0.5 -0.55,0.43 -1.22,1.28 -1.22,1.64 -0.01,0.2 -0.17,0.35 -0.36,0.35 z"
     style="fill:#ae076a;fill-rule:nonzero"
     id="path249"
     inkscape:connector-curvature="0" /><path
     d="m 133.59,308.24 c -0.03,0 -0.06,0 -0.1,-0.01 -0.16,-0.04 -3.89,-1.13 -3.89,-4.26 v -6.21 c 0,-0.47 -0.24,-0.91 -0.66,-1.25 l -1.05,-0.83 c -0.6,-0.47 -0.93,-1.12 -0.93,-1.81 0,-0.69 0.33,-1.34 0.93,-1.81 l 1.05,-0.83 c 0.43,-0.34 0.67,-0.79 0.66,-1.25 0,-0.47 -0.24,-0.91 -0.66,-1.25 l -1.05,-0.83 c -0.6,-0.48 -0.93,-1.12 -0.93,-1.81 0,-0.69 0.33,-1.33 0.93,-1.8 l 1.05,-0.83 c 0.43,-0.34 0.67,-0.79 0.66,-1.25 0,-0.47 -0.24,-0.91 -0.66,-1.25 l -1.05,-0.84 c -0.6,-0.47 -0.93,-1.12 -0.93,-1.81 0,-0.69 0.33,-1.33 0.93,-1.81 l 1.05,-0.83 c 0.43,-0.34 0.66,-0.78 0.66,-1.25 0,-0.47 -0.24,-0.92 -0.66,-1.26 l -1.05,-0.83 c -0.6,-0.47 -0.93,-1.12 -0.93,-1.81 0,-0.69 0.33,-1.34 0.93,-1.81 l 1.05,-0.83 c 0.43,-0.34 0.67,-0.79 0.66,-1.25 0,-0.47 -0.24,-0.91 -0.66,-1.25 l -1.05,-0.83 c -0.6,-0.48 -0.93,-1.12 -0.93,-1.81 0,-0.69 0.33,-1.33 0.93,-1.81 0.16,-0.12 0.38,-0.1 0.5,0.06 0.12,0.15 0.09,0.38 -0.06,0.5 -0.43,0.34 -0.66,0.78 -0.66,1.25 0,0.47 0.24,0.92 0.66,1.25 l 1.05,0.83 c 0.6,0.47 0.93,1.12 0.93,1.8 0,0.69 -0.33,1.33 -0.93,1.81 l -1.05,0.83 c -0.43,0.34 -0.66,0.79 -0.66,1.26 0,0.47 0.24,0.91 0.66,1.25 l 1.05,0.83 c 0.6,0.48 0.93,1.12 0.93,1.81 0,0.69 -0.33,1.33 -0.93,1.8 l -1.05,0.83 c -0.43,0.34 -0.66,0.78 -0.66,1.25 0,0.47 0.24,0.91 0.66,1.25 l 1.05,0.83 c 0.6,0.47 0.93,1.12 0.93,1.81 0,0.69 -0.33,1.33 -0.93,1.81 l -1.05,0.84 c -0.43,0.34 -0.67,0.78 -0.67,1.25 0,0.47 0.24,0.92 0.66,1.26 l 1.05,0.83 c 0.6,0.47 0.93,1.12 0.93,1.8 0,0.69 -0.33,1.33 -0.93,1.81 l -1.05,0.83 c -0.43,0.34 -0.66,0.79 -0.66,1.26 0,0.47 0.24,0.91 0.66,1.25 l 1.05,0.83 c 0.6,0.48 0.93,1.12 0.93,1.81 v 6.21 c 0,2.6 3.34,3.57 3.38,3.58 0.19,0.05 0.3,0.25 0.25,0.44 -0.04,0.14 -0.18,0.25 -0.34,0.25 z"
     style="fill:#2c7896;fill-rule:nonzero"
     id="path251"
     inkscape:connector-curvature="0" /><path
     d="m 124.12,308.68 c -0.12,0 -0.24,-0.06 -0.31,-0.18 -0.1,-0.17 -0.04,-0.39 0.13,-0.48 0.12,-0.07 3.01,-1.76 3.01,-5.5 v -4.77 c 0,-0.69 0.33,-1.33 0.93,-1.81 l 1.05,-0.83 c 0.43,-0.34 0.66,-0.78 0.66,-1.25 0,-0.2 0.16,-0.35 0.35,-0.35 0.19,0 0.35,0.16 0.35,0.35 0,0.69 -0.33,1.33 -0.93,1.81 l -1.05,0.83 c -0.43,0.34 -0.66,0.78 -0.66,1.25 v 4.77 c 0,4.16 -3.23,6.04 -3.37,6.11 -0.04,0.04 -0.1,0.05 -0.16,0.05 z"
     style="fill:#ae076a;fill-rule:nonzero"
     id="path253"
     inkscape:connector-curvature="0" /><path
     d="m 127.31,290.32 c -0.2,0 -0.35,-0.16 -0.35,-0.35 0,-0.69 0.33,-1.33 0.93,-1.81 l 1.05,-0.83 c 0.38,-0.3 0.61,-0.69 0.66,-1.1 0.02,-0.19 0.21,-0.33 0.39,-0.31 0.19,0.02 0.33,0.2 0.31,0.39 -0.07,0.6 -0.4,1.16 -0.92,1.57 l -1.05,0.83 c -0.43,0.34 -0.66,0.78 -0.66,1.25 -0.01,0.2 -0.17,0.36 -0.36,0.36 z"
     style="fill:#ae076a;fill-rule:nonzero"
     id="path255"
     inkscape:connector-curvature="0" /><path
     d="m 127.33,282.81 c -0.17,0 -0.32,-0.12 -0.35,-0.3 -0.12,-0.79 0.22,-1.59 0.91,-2.13 l 1.05,-0.83 c 0.46,-0.36 0.69,-0.83 0.66,-1.33 -0.01,-0.2 0.14,-0.36 0.33,-0.37 0.22,-0.03 0.36,0.14 0.37,0.33 0.04,0.73 -0.3,1.43 -0.93,1.92 l -1.05,0.83 c -0.5,0.39 -0.73,0.93 -0.65,1.47 0.03,0.19 -0.1,0.37 -0.29,0.4 -0.02,0.01 -0.03,0.01 -0.05,0.01 z"
     style="fill:#ae076a;fill-rule:nonzero"
     id="path257"
     inkscape:connector-curvature="0" /><path
     d="m 127.31,274.66 h -0.02 c -0.2,-0.01 -0.35,-0.18 -0.33,-0.37 0.03,-0.65 0.36,-1.25 0.93,-1.7 l 1.05,-0.83 c 0.43,-0.34 0.66,-0.78 0.66,-1.25 0,-0.2 0.16,-0.35 0.35,-0.35 0.19,0 0.35,0.16 0.35,0.35 0,0.69 -0.33,1.33 -0.93,1.81 l -1.05,0.83 c -0.4,0.32 -0.64,0.74 -0.66,1.18 -0.01,0.19 -0.16,0.33 -0.35,0.33 z"
     style="fill:#ae076a;fill-rule:nonzero"
     id="path259"
     inkscape:connector-curvature="0" /><path
     d="m 144.3,261.48 h -16.95 c -0.2,0 -0.35,-0.16 -0.35,-0.35 0,-0.2 0.16,-0.35 0.35,-0.35 h 16.95 c 1.37,0 2.48,-1.11 2.48,-2.48 v -12.57 c 0,-0.2 0.16,-0.35 0.35,-0.35 0.19,0 0.35,0.16 0.35,0.35 v 12.57 c 0.01,1.75 -1.42,3.18 -3.18,3.18 z"
     style="fill:#2c7896;fill-rule:nonzero"
     id="path261"
     inkscape:connector-curvature="0" /><path
     d="M 127.35,261.48 H 113.1 c -1.76,0 -3.19,-1.43 -3.19,-3.19 v -12.18 c 0,-0.2 0.16,-0.35 0.35,-0.35 0.19,0 0.35,0.16 0.35,0.35 v 12.18 c 0,1.37 1.11,2.48 2.48,2.48 h 14.25 c 0.2,0 0.35,0.16 0.35,0.35 0.02,0.2 -0.14,0.36 -0.34,0.36 z"
     style="fill:#2c7896;fill-rule:nonzero"
     id="path263"
     inkscape:connector-curvature="0" /><path
     d="m 88.79,143.27 c 0,0.67 0.54,1.21 1.21,1.21 0.67,0 1.21,-0.54 1.21,-1.21 0,-0.67 -0.54,-1.21 -1.21,-1.21 -0.67,0 -1.21,0.54 -1.21,1.21 z"
     style="fill:#2c7896;fill-rule:nonzero"
     id="path265"
     inkscape:connector-curvature="0" /><path
     d="m 84.68,235.64 c 0,0.67 0.54,1.21 1.21,1.21 0.67,0 1.21,-0.54 1.21,-1.21 0,-0.67 -0.54,-1.21 -1.21,-1.21 -0.67,0 -1.21,0.54 -1.21,1.21 z"
     style="fill:#2c7896;fill-rule:nonzero"
     id="path267"
     inkscape:connector-curvature="0" /><path
     d="m 101.05,116.72 c 0,0.67 0.54,1.21 1.21,1.21 0.67,0 1.21,-0.54 1.21,-1.21 0,-0.67 -0.54,-1.21 -1.21,-1.21 -0.66,0 -1.21,0.54 -1.21,1.21 z"
     style="fill:#2c7896;fill-rule:nonzero"
     id="path269"
     inkscape:connector-curvature="0" /><circle
     cx="102.26"
     cy="49.700001"
     r="1.21"
     style="fill:#2c7896"
     id="circle271" /><path
     d="m 85.89,334.43 c -0.2,0 -0.35,-0.16 -0.35,-0.35 v -98.32 c 0,-0.2 0.16,-0.35 0.35,-0.35 0.2,0 0.35,0.16 0.35,0.35 v 98.32 c 0,0.19 -0.16,0.35 -0.35,0.35 z"
     style="fill:#2c7896;fill-rule:nonzero"
     id="path273"
     inkscape:connector-curvature="0" /><g
     id="g309"><path
       d="m 67.05,356.88 c -0.22,-0.46 -0.44,-0.91 -0.66,-1.35 -0.36,-0.74 -0.8,-1.66 -1.09,-2.28 v 3.52 c 0,0.15 -0.11,0.26 -0.26,0.26 -0.15,0 -0.26,-0.1 -0.26,-0.26 v -4.64 c 0,-0.12 0.08,-0.22 0.2,-0.25 0.12,-0.02 0.23,0.03 0.29,0.14 0.22,0.46 0.43,0.91 0.65,1.35 0.36,0.74 0.81,1.66 1.1,2.28 v -3.52 c 0,-0.15 0.1,-0.26 0.26,-0.26 0.15,0 0.26,0.1 0.26,0.26 v 4.64 c 0,0.12 -0.08,0.22 -0.2,0.25 -0.12,0.03 -0.23,-0.04 -0.29,-0.14 z"
       style="fill:#211e1f;fill-rule:nonzero"
       id="path275"
       inkscape:connector-curvature="0" /><path
       d="m 68.55,355.97 v -1.6 c 0,-0.58 0.46,-1.04 1.04,-1.04 0.57,0 1.04,0.46 1.04,1.04 v 1.6 c 0,0.58 -0.47,1.04 -1.04,1.04 -0.58,0 -1.04,-0.47 -1.04,-1.04 z m 0.48,-1.6 v 1.6 c 0,0.31 0.25,0.56 0.56,0.56 0.31,0 0.56,-0.25 0.56,-0.56 v -1.6 c 0,-0.31 -0.25,-0.56 -0.56,-0.56 -0.31,0 -0.56,0.25 -0.56,0.56 z"
       style="fill:#211e1f;fill-rule:nonzero"
       id="path277"
       inkscape:connector-curvature="0" /><path
       d="m 71.65,356.77 v -3.17 c 0,-0.14 0.1,-0.24 0.24,-0.24 h 0.8 c 0.57,0 1.04,0.46 1.04,1.04 v 2.37 c 0,0.14 -0.11,0.24 -0.24,0.24 -0.13,0 -0.24,-0.1 -0.24,-0.24 v -2.37 c 0,-0.31 -0.25,-0.56 -0.56,-0.56 h -0.56 v 2.93 c 0,0.14 -0.11,0.24 -0.24,0.24 -0.13,0 -0.24,-0.11 -0.24,-0.24 z"
       style="fill:#211e1f;fill-rule:nonzero"
       id="path279"
       inkscape:connector-curvature="0" /><path
       d="m 74.77,356.22 v -4.25 c 0,-0.14 0.11,-0.24 0.24,-0.24 0.13,0 0.24,0.1 0.24,0.24 v 4.25 c 0,0.15 0.08,0.27 0.2,0.34 0.12,0.06 0.16,0.21 0.09,0.33 -0.06,0.12 -0.21,0.15 -0.33,0.09 -0.27,-0.16 -0.44,-0.45 -0.44,-0.76 z"
       style="fill:#211e1f;fill-rule:nonzero"
       id="path281"
       inkscape:connector-curvature="0" /><path
       d="m 76.31,352.37 c 0,-0.18 0.13,-0.32 0.32,-0.32 0.18,0 0.32,0.14 0.32,0.32 0,0.18 -0.13,0.32 -0.32,0.32 -0.18,0 -0.32,-0.14 -0.32,-0.32 z m 0.32,4.64 c -0.13,0 -0.24,-0.1 -0.24,-0.24 v -3.2 c 0,-0.14 0.11,-0.24 0.24,-0.24 0.13,0 0.24,0.1 0.24,0.24 v 3.2 c 0,0.13 -0.1,0.24 -0.24,0.24 z"
       style="fill:#211e1f;fill-rule:nonzero"
       id="path283"
       inkscape:connector-curvature="0" /><path
       d="m 77.99,356.77 v -3.17 c 0,-0.14 0.1,-0.24 0.24,-0.24 h 0.8 c 0.57,0 1.04,0.46 1.04,1.04 v 2.37 c 0,0.14 -0.11,0.24 -0.24,0.24 -0.13,0 -0.24,-0.1 -0.24,-0.24 v -2.37 c 0,-0.31 -0.25,-0.56 -0.56,-0.56 h -0.56 v 2.93 c 0,0.14 -0.11,0.24 -0.24,0.24 -0.14,0 -0.24,-0.11 -0.24,-0.24 z"
       style="fill:#211e1f;fill-rule:nonzero"
       id="path285"
       inkscape:connector-curvature="0" /><path
       d="m 81.03,355.97 v -1.6 c 0,-0.58 0.46,-1.04 1.04,-1.04 0.58,0 1.04,0.46 1.04,1.04 v 0.8 c 0,0.14 -0.11,0.24 -0.24,0.24 h -1.36 v 0.56 c 0,0.22 0.13,0.43 0.34,0.52 0.21,0.09 0.45,0.04 0.61,-0.12 0.05,-0.05 0.1,-0.07 0.17,-0.07 0.07,0 0.13,0.02 0.18,0.07 0.05,0.04 0.07,0.1 0.07,0.17 0,0.06 -0.02,0.12 -0.07,0.17 -0.29,0.3 -0.74,0.38 -1.13,0.22 -0.4,-0.16 -0.65,-0.54 -0.65,-0.96 z m 0.48,-1.6 v 0.56 h 1.12 v -0.56 c 0,-0.31 -0.25,-0.56 -0.56,-0.56 -0.31,0 -0.56,0.25 -0.56,0.56 z"
       style="fill:#211e1f;fill-rule:nonzero"
       id="path287"
       inkscape:connector-curvature="0" /><path
       d="m 85.35,354.35 c 0,-0.22 -0.14,-0.42 -0.34,-0.5 -0.22,-0.09 -0.44,-0.04 -0.59,0.12 -0.05,0.05 -0.1,0.07 -0.18,0.07 -0.06,0 -0.12,-0.02 -0.17,-0.07 -0.05,-0.05 -0.07,-0.1 -0.07,-0.17 0,-0.07 0.02,-0.13 0.07,-0.17 0.29,-0.3 0.74,-0.38 1.12,-0.22 0.38,0.16 0.63,0.53 0.63,0.94 v 2.38 c 0,0.14 -0.11,0.24 -0.24,0.24 h -0.8 c -0.57,0 -1.04,-0.46 -1.04,-1.04 0,-0.58 0.46,-1.04 1.04,-1.04 h 0.56 v -0.54 z m -0.56,2.15 h 0.56 v -1.12 h -0.56 c -0.31,0 -0.56,0.25 -0.56,0.56 0,0.31 0.25,0.56 0.56,0.56 z"
       style="fill:#211e1f;fill-rule:nonzero"
       id="path289"
       inkscape:connector-curvature="0" /><path
       d="m 86.89,356.77 v -3.17 c 0,-0.14 0.1,-0.24 0.24,-0.24 h 0.8 c 0.18,0 0.35,0.05 0.52,0.14 0.12,0.07 0.15,0.21 0.09,0.33 -0.06,0.12 -0.21,0.16 -0.33,0.09 -0.09,-0.05 -0.18,-0.07 -0.28,-0.07 h -0.56 v 2.93 c 0,0.14 -0.1,0.24 -0.24,0.24 -0.14,-0.01 -0.24,-0.12 -0.24,-0.25 z"
       style="fill:#211e1f;fill-rule:nonzero"
       id="path291"
       inkscape:connector-curvature="0" /><path
       d="m 89.1,355.97 v -1.6 c 0,-0.42 0.25,-0.8 0.64,-0.96 0.39,-0.16 0.82,-0.07 1.13,0.22 0.04,0.05 0.06,0.1 0.06,0.18 0,0.06 -0.03,0.12 -0.06,0.17 -0.05,0.04 -0.1,0.06 -0.18,0.06 -0.06,0 -0.12,-0.02 -0.17,-0.06 -0.16,-0.17 -0.39,-0.22 -0.61,-0.13 -0.22,0.09 -0.34,0.3 -0.34,0.52 v 1.6 c 0,0.22 0.13,0.43 0.34,0.52 0.21,0.09 0.45,0.04 0.61,-0.12 0.05,-0.05 0.1,-0.07 0.17,-0.07 0.07,0 0.13,0.02 0.18,0.07 0.04,0.04 0.06,0.1 0.06,0.17 0,0.06 -0.03,0.12 -0.06,0.17 -0.31,0.3 -0.74,0.38 -1.13,0.22 -0.39,-0.16 -0.64,-0.54 -0.64,-0.96 z"
       style="fill:#211e1f;fill-rule:nonzero"
       id="path293"
       inkscape:connector-curvature="0" /><path
       d="m 91.74,352.37 c 0,-0.18 0.13,-0.32 0.32,-0.32 0.18,0 0.32,0.14 0.32,0.32 0,0.18 -0.13,0.32 -0.32,0.32 -0.18,0 -0.32,-0.14 -0.32,-0.32 z m 0.32,4.64 c -0.13,0 -0.24,-0.1 -0.24,-0.24 v -3.2 c 0,-0.14 0.11,-0.24 0.24,-0.24 0.13,0 0.24,0.1 0.24,0.24 v 3.2 c 0,0.13 -0.1,0.24 -0.24,0.24 z"
       style="fill:#211e1f;fill-rule:nonzero"
       id="path295"
       inkscape:connector-curvature="0" /><path
       d="m 93.42,356.77 v -3.17 c 0,-0.14 0.1,-0.24 0.24,-0.24 h 0.8 c 0.18,0 0.35,0.05 0.52,0.14 0.12,0.07 0.15,0.21 0.09,0.33 -0.06,0.12 -0.21,0.16 -0.33,0.09 -0.09,-0.05 -0.18,-0.07 -0.28,-0.07 H 93.9 v 2.93 c 0,0.14 -0.1,0.24 -0.24,0.24 -0.13,-0.01 -0.24,-0.12 -0.24,-0.25 z"
       style="fill:#211e1f;fill-rule:nonzero"
       id="path297"
       inkscape:connector-curvature="0" /><path
       d="m 95.64,355.97 v -1.6 c 0,-0.42 0.25,-0.8 0.64,-0.96 0.39,-0.16 0.82,-0.07 1.14,0.22 0.04,0.05 0.06,0.1 0.06,0.18 0,0.06 -0.02,0.12 -0.06,0.17 -0.05,0.04 -0.11,0.06 -0.18,0.06 -0.06,0 -0.12,-0.02 -0.17,-0.06 -0.16,-0.17 -0.39,-0.22 -0.61,-0.13 -0.21,0.09 -0.34,0.3 -0.34,0.52 v 1.6 c 0,0.22 0.13,0.43 0.34,0.52 0.22,0.09 0.45,0.04 0.61,-0.12 0.05,-0.05 0.11,-0.07 0.17,-0.07 0.07,0 0.13,0.02 0.18,0.07 0.04,0.04 0.06,0.1 0.06,0.17 0,0.06 -0.02,0.12 -0.06,0.17 -0.31,0.3 -0.74,0.38 -1.14,0.22 -0.39,-0.16 -0.64,-0.54 -0.64,-0.96 z"
       style="fill:#211e1f;fill-rule:nonzero"
       id="path299"
       inkscape:connector-curvature="0" /><path
       d="m 98.29,355.94 v -2.37 c 0,-0.14 0.1,-0.24 0.24,-0.24 0.14,0 0.24,0.1 0.24,0.24 v 2.37 c 0,0.31 0.25,0.56 0.56,0.56 h 0.56 v -2.93 c 0,-0.14 0.11,-0.24 0.24,-0.24 0.14,0 0.24,0.1 0.24,0.24 v 3.17 c 0,0.14 -0.1,0.24 -0.24,0.24 h -0.8 c -0.57,0 -1.04,-0.47 -1.04,-1.04 z"
       style="fill:#211e1f;fill-rule:nonzero"
       id="path301"
       inkscape:connector-curvature="0" /><path
       d="m 101.41,352.37 c 0,-0.18 0.13,-0.32 0.32,-0.32 0.18,0 0.32,0.14 0.32,0.32 0,0.18 -0.13,0.32 -0.32,0.32 -0.18,0 -0.32,-0.14 -0.32,-0.32 z m 0.32,4.64 c -0.13,0 -0.24,-0.1 -0.24,-0.24 v -3.2 c 0,-0.14 0.11,-0.24 0.24,-0.24 0.13,0 0.24,0.1 0.24,0.24 v 3.2 c 0,0.13 -0.1,0.24 -0.24,0.24 z"
       style="fill:#211e1f;fill-rule:nonzero"
       id="path303"
       inkscape:connector-curvature="0" /><path
       d="m 102.74,353.6 c 0,-0.14 0.1,-0.24 0.24,-0.24 h 0.4 v -1.39 c 0,-0.14 0.1,-0.24 0.24,-0.24 0.14,0 0.24,0.1 0.24,0.24 v 1.39 h 0.56 c 0.14,0 0.24,0.1 0.24,0.24 0,0.14 -0.1,0.24 -0.24,0.24 h -0.56 v 2.13 c 0,0.31 0.25,0.56 0.56,0.56 0.14,0 0.24,0.1 0.24,0.24 0,0.14 -0.1,0.24 -0.24,0.24 -0.57,0 -1.04,-0.46 -1.04,-1.04 v -2.13 h -0.4 c -0.13,0 -0.24,-0.1 -0.24,-0.24 z"
       style="fill:#211e1f;fill-rule:nonzero"
       id="path305"
       inkscape:connector-curvature="0" /><path
       d="m 106.68,355.98 c -0.01,-0.16 -0.08,-0.29 -0.22,-0.38 l -0.74,-0.53 c -0.25,-0.17 -0.38,-0.43 -0.41,-0.72 -0.03,-0.3 0.1,-0.58 0.31,-0.77 0.22,-0.2 0.5,-0.29 0.79,-0.25 0.29,0.06 0.54,0.22 0.69,0.47 0.06,0.12 0.03,0.26 -0.09,0.33 -0.12,0.06 -0.27,0.03 -0.33,-0.09 -0.07,-0.13 -0.19,-0.21 -0.34,-0.23 -0.15,-0.02 -0.29,0.02 -0.4,0.12 -0.11,0.1 -0.16,0.23 -0.15,0.38 0.01,0.15 0.08,0.27 0.21,0.36 l 0.74,0.52 c 0.25,0.18 0.39,0.44 0.42,0.75 0.02,0.31 -0.1,0.59 -0.32,0.79 -0.22,0.22 -0.52,0.3 -0.81,0.26 -0.31,-0.06 -0.56,-0.22 -0.71,-0.49 -0.06,-0.12 -0.03,-0.26 0.09,-0.33 0.12,-0.06 0.26,-0.03 0.33,0.09 0.09,0.14 0.21,0.22 0.37,0.25 0.15,0.02 0.29,-0.02 0.42,-0.13 0.11,-0.1 0.16,-0.24 0.15,-0.4 z"
       style="fill:#211e1f;fill-rule:nonzero"
       id="path307"
       inkscape:connector-curvature="0" /></g><g
     id="g317"><path
       d="m 40.71,80.06 c 0.02,-0.23 -0.06,-0.48 -0.23,-0.65 l -1.44,-1.48 c -0.27,-0.28 -0.41,-0.67 -0.38,-1.05 0.03,-0.4 0.22,-0.76 0.54,-0.99 0.31,-0.23 0.71,-0.33 1.1,-0.25 0.38,0.08 0.71,0.32 0.91,0.66 0.08,0.14 0.04,0.32 -0.11,0.4 -0.13,0.08 -0.32,0.03 -0.39,-0.11 -0.12,-0.2 -0.31,-0.33 -0.53,-0.38 -0.23,-0.04 -0.46,0.01 -0.64,0.14 -0.18,0.13 -0.29,0.34 -0.31,0.57 -0.02,0.23 0.06,0.45 0.22,0.61 l 1.44,1.49 c 0.28,0.29 0.42,0.68 0.4,1.09 -0.04,0.41 -0.23,0.77 -0.56,1.02 -0.33,0.25 -0.74,0.34 -1.13,0.26 -0.4,-0.08 -0.74,-0.32 -0.94,-0.67 -0.07,-0.14 -0.03,-0.32 0.11,-0.4 0.14,-0.08 0.32,-0.04 0.4,0.11 0.12,0.21 0.32,0.35 0.56,0.4 0.23,0.04 0.48,-0.01 0.67,-0.15 0.17,-0.16 0.29,-0.38 0.31,-0.62 z"
       style="fill:#171419;fill-rule:nonzero"
       id="path311"
       inkscape:connector-curvature="0" /><path
       d="m 44.81,81.25 c 0,0 -1.31,-2.7 -1.97,-4.09 v 3.96 c 0,0.16 -0.13,0.29 -0.29,0.29 -0.16,0 -0.29,-0.13 -0.29,-0.29 V 75.9 c 0,-0.14 0.09,-0.25 0.22,-0.28 0.13,-0.03 0.26,0.04 0.32,0.15 0,0 1.3,2.7 1.97,4.09 V 75.9 c 0,-0.16 0.13,-0.29 0.29,-0.29 0.16,0 0.29,0.13 0.29,0.29 v 5.22 c 0,0.13 -0.09,0.25 -0.22,0.28 -0.12,0.04 -0.26,-0.03 -0.32,-0.15 z"
       style="fill:#171419;fill-rule:nonzero"
       id="path313"
       inkscape:connector-curvature="0" /><path
       d="m 48.46,80.06 c 0.02,-0.23 -0.06,-0.48 -0.23,-0.65 l -1.44,-1.48 c -0.27,-0.28 -0.41,-0.67 -0.38,-1.05 0.03,-0.4 0.22,-0.76 0.54,-0.99 0.31,-0.23 0.71,-0.33 1.1,-0.25 0.38,0.08 0.71,0.32 0.91,0.66 0.08,0.14 0.04,0.32 -0.11,0.4 -0.13,0.08 -0.32,0.03 -0.39,-0.11 -0.12,-0.2 -0.31,-0.33 -0.53,-0.38 -0.23,-0.04 -0.46,0.01 -0.64,0.14 -0.18,0.13 -0.29,0.34 -0.31,0.57 -0.02,0.23 0.06,0.45 0.22,0.61 l 1.44,1.49 c 0.28,0.29 0.42,0.68 0.4,1.09 -0.04,0.41 -0.23,0.77 -0.56,1.02 -0.33,0.25 -0.74,0.34 -1.13,0.26 -0.4,-0.08 -0.74,-0.32 -0.94,-0.67 -0.07,-0.14 -0.03,-0.32 0.11,-0.4 0.14,-0.08 0.32,-0.04 0.4,0.11 0.12,0.21 0.32,0.35 0.56,0.4 0.23,0.04 0.48,-0.01 0.67,-0.15 0.18,-0.16 0.3,-0.38 0.31,-0.62 z"
       style="fill:#171419;fill-rule:nonzero"
       id="path315"
       inkscape:connector-curvature="0" /></g><g
     id="g325"><path
       d="m 125.12,80.06 c 0.02,-0.23 -0.06,-0.48 -0.23,-0.65 l -1.44,-1.48 c -0.27,-0.28 -0.41,-0.67 -0.38,-1.05 0.03,-0.4 0.22,-0.76 0.54,-0.99 0.31,-0.23 0.71,-0.33 1.1,-0.25 0.38,0.08 0.71,0.32 0.91,0.66 0.08,0.14 0.04,0.32 -0.11,0.4 -0.13,0.08 -0.32,0.03 -0.39,-0.11 -0.12,-0.2 -0.31,-0.33 -0.53,-0.38 -0.23,-0.04 -0.46,0.01 -0.64,0.14 -0.18,0.13 -0.29,0.34 -0.31,0.57 -0.02,0.23 0.06,0.45 0.22,0.61 l 1.44,1.49 c 0.28,0.29 0.42,0.68 0.4,1.09 -0.04,0.41 -0.23,0.77 -0.56,1.02 -0.33,0.25 -0.74,0.34 -1.13,0.26 -0.4,-0.08 -0.74,-0.32 -0.94,-0.67 -0.07,-0.14 -0.03,-0.32 0.11,-0.4 0.14,-0.08 0.32,-0.04 0.4,0.11 0.12,0.21 0.32,0.35 0.56,0.4 0.23,0.04 0.48,-0.01 0.67,-0.15 0.17,-0.16 0.29,-0.38 0.31,-0.62 z"
       style="fill:#171419;fill-rule:nonzero"
       id="path319"
       inkscape:connector-curvature="0" /><path
       d="m 129.22,81.25 c 0,0 -1.31,-2.7 -1.97,-4.09 v 3.96 c 0,0.16 -0.13,0.29 -0.29,0.29 -0.16,0 -0.29,-0.13 -0.29,-0.29 V 75.9 c 0,-0.14 0.09,-0.25 0.22,-0.28 0.13,-0.03 0.26,0.04 0.32,0.15 0,0 1.3,2.7 1.97,4.09 V 75.9 c 0,-0.16 0.13,-0.29 0.29,-0.29 0.16,0 0.29,0.13 0.29,0.29 v 5.22 c 0,0.13 -0.09,0.25 -0.22,0.28 -0.12,0.04 -0.26,-0.03 -0.32,-0.15 z"
       style="fill:#171419;fill-rule:nonzero"
       id="path321"
       inkscape:connector-curvature="0" /><path
       d="m 132.88,80.06 c 0.02,-0.23 -0.06,-0.48 -0.23,-0.65 l -1.44,-1.48 c -0.27,-0.28 -0.41,-0.67 -0.38,-1.05 0.03,-0.4 0.22,-0.76 0.54,-0.99 0.31,-0.23 0.71,-0.33 1.1,-0.25 0.38,0.08 0.71,0.32 0.91,0.66 0.08,0.14 0.04,0.32 -0.11,0.4 -0.13,0.08 -0.32,0.03 -0.39,-0.11 -0.12,-0.2 -0.31,-0.33 -0.53,-0.38 -0.23,-0.04 -0.46,0.01 -0.64,0.14 -0.18,0.13 -0.29,0.34 -0.31,0.57 -0.02,0.23 0.06,0.45 0.22,0.61 l 1.44,1.49 c 0.28,0.29 0.42,0.68 0.4,1.09 -0.04,0.41 -0.23,0.77 -0.56,1.02 -0.33,0.25 -0.74,0.34 -1.13,0.26 -0.4,-0.08 -0.74,-0.32 -0.94,-0.67 -0.07,-0.14 -0.03,-0.32 0.11,-0.4 0.14,-0.08 0.32,-0.04 0.4,0.11 0.12,0.21 0.32,0.35 0.56,0.4 0.23,0.04 0.48,-0.01 0.67,-0.15 0.17,-0.16 0.29,-0.38 0.31,-0.62 z"
       style="fill:#171419;fill-rule:nonzero"
       id="path323"
       inkscape:connector-curvature="0" /></g><g
     id="g337"><path
       d="m 37.04,145.76 0.83,2.23 c 0.05,0.14 -0.02,0.31 -0.17,0.37 -0.14,0.05 -0.32,-0.02 -0.37,-0.17 l -0.86,-2.33 h -0.74 v 2.23 c 0,0.16 -0.13,0.29 -0.29,0.29 -0.15,0 -0.29,-0.13 -0.29,-0.29 v -5.19 c 0,-0.16 0.13,-0.29 0.29,-0.29 h 1.08 c 0.76,0 1.37,0.61 1.37,1.37 v 0.5 c 0,0.59 -0.35,1.07 -0.85,1.28 z m 0.27,-1.27 v -0.5 c 0,-0.43 -0.35,-0.79 -0.79,-0.79 h -0.79 v 2.09 h 0.79 c 0.44,-0.01 0.79,-0.36 0.79,-0.8 z"
       style="fill:#171419;fill-rule:nonzero"
       id="path327"
       inkscape:connector-curvature="0" /><path
       d="m 40.78,147.03 c 0.02,-0.23 -0.06,-0.48 -0.23,-0.65 l -1.44,-1.48 c -0.27,-0.28 -0.41,-0.67 -0.38,-1.05 0.03,-0.4 0.22,-0.76 0.54,-0.99 0.31,-0.23 0.71,-0.33 1.1,-0.25 0.38,0.08 0.71,0.32 0.91,0.66 0.08,0.14 0.04,0.32 -0.11,0.4 -0.13,0.08 -0.32,0.03 -0.39,-0.11 -0.12,-0.2 -0.31,-0.33 -0.53,-0.38 -0.23,-0.04 -0.46,0.01 -0.64,0.14 -0.18,0.13 -0.29,0.34 -0.31,0.57 -0.02,0.23 0.06,0.45 0.22,0.61 l 1.44,1.49 c 0.28,0.29 0.42,0.68 0.4,1.09 -0.04,0.41 -0.23,0.77 -0.56,1.02 -0.33,0.25 -0.74,0.34 -1.13,0.26 -0.4,-0.08 -0.74,-0.32 -0.94,-0.67 -0.07,-0.14 -0.03,-0.32 0.11,-0.4 0.14,-0.08 0.32,-0.04 0.4,0.11 0.12,0.21 0.32,0.35 0.56,0.4 0.23,0.04 0.48,-0.01 0.67,-0.15 0.17,-0.16 0.29,-0.38 0.31,-0.62 z"
       style="fill:#171419;fill-rule:nonzero"
       id="path329"
       inkscape:connector-curvature="0" /><path
       d="m 42.62,142.62 h 1.08 c 0.76,0 1.37,0.61 1.37,1.37 v 0.5 c 0,0.76 -0.61,1.37 -1.37,1.37 h -0.79 v 2.23 c 0,0.16 -0.13,0.29 -0.29,0.29 -0.16,0 -0.29,-0.13 -0.29,-0.29 v -5.19 c 0,-0.16 0.13,-0.28 0.29,-0.28 z m 1.08,0.57 h -0.79 v 2.09 h 0.79 c 0.43,0 0.79,-0.35 0.79,-0.79 v -0.5 c 0,-0.44 -0.36,-0.8 -0.79,-0.8 z"
       style="fill:#171419;fill-rule:nonzero"
       id="path331"
       inkscape:connector-curvature="0" /><path
       d="m 48.48,148.22 c 0,0 -1.31,-2.7 -1.97,-4.09 v 3.96 c 0,0.16 -0.13,0.29 -0.29,0.29 -0.16,0 -0.29,-0.13 -0.29,-0.29 v -5.22 c 0,-0.14 0.09,-0.25 0.22,-0.28 0.13,-0.03 0.26,0.04 0.32,0.15 0,0 1.3,2.7 1.97,4.09 v -3.96 c 0,-0.16 0.13,-0.29 0.29,-0.29 0.16,0 0.29,0.13 0.29,0.29 v 5.22 c 0,0.13 -0.09,0.25 -0.22,0.28 -0.12,0.04 -0.26,-0.04 -0.32,-0.15 z"
       style="fill:#171419;fill-rule:nonzero"
       id="path333"
       inkscape:connector-curvature="0" /><path
       d="m 52.14,147.03 c 0.02,-0.23 -0.06,-0.48 -0.23,-0.65 l -1.44,-1.48 c -0.27,-0.28 -0.41,-0.67 -0.38,-1.05 0.03,-0.4 0.22,-0.76 0.54,-0.99 0.31,-0.23 0.71,-0.33 1.1,-0.25 0.38,0.08 0.71,0.32 0.91,0.66 0.08,0.14 0.04,0.32 -0.11,0.4 -0.13,0.08 -0.32,0.03 -0.39,-0.11 -0.12,-0.2 -0.31,-0.33 -0.53,-0.38 -0.23,-0.04 -0.46,0.01 -0.64,0.14 -0.18,0.13 -0.29,0.34 -0.31,0.57 -0.02,0.23 0.06,0.45 0.22,0.61 l 1.44,1.49 c 0.28,0.29 0.42,0.68 0.4,1.09 -0.04,0.41 -0.23,0.77 -0.56,1.02 -0.33,0.25 -0.74,0.34 -1.13,0.26 -0.4,-0.08 -0.74,-0.32 -0.94,-0.67 -0.07,-0.14 -0.03,-0.32 0.11,-0.4 0.14,-0.08 0.32,-0.04 0.4,0.11 0.12,0.21 0.32,0.35 0.56,0.4 0.23,0.04 0.48,-0.01 0.67,-0.15 0.17,-0.16 0.29,-0.38 0.31,-0.62 z"
       style="fill:#171419;fill-rule:nonzero"
       id="path335"
       inkscape:connector-curvature="0" /></g><g
     id="g349"><path
       d="m 121.46,145.76 0.83,2.23 c 0.05,0.14 -0.02,0.31 -0.17,0.37 -0.14,0.05 -0.32,-0.02 -0.37,-0.17 l -0.86,-2.33 h -0.74 v 2.23 c 0,0.16 -0.13,0.29 -0.29,0.29 -0.15,0 -0.29,-0.13 -0.29,-0.29 v -5.19 c 0,-0.16 0.13,-0.29 0.29,-0.29 h 1.08 c 0.76,0 1.37,0.61 1.37,1.37 v 0.5 c -0.01,0.59 -0.36,1.07 -0.85,1.28 z m 0.26,-1.27 v -0.5 c 0,-0.43 -0.35,-0.79 -0.79,-0.79 h -0.79 v 2.09 h 0.79 c 0.44,-0.01 0.79,-0.36 0.79,-0.8 z"
       style="fill:#171419;fill-rule:nonzero"
       id="path339"
       inkscape:connector-curvature="0" /><path
       d="m 125.19,147.03 c 0.02,-0.23 -0.06,-0.48 -0.23,-0.65 l -1.44,-1.48 c -0.27,-0.28 -0.41,-0.67 -0.38,-1.05 0.03,-0.4 0.22,-0.76 0.54,-0.99 0.31,-0.23 0.71,-0.33 1.1,-0.25 0.38,0.08 0.71,0.32 0.91,0.66 0.08,0.14 0.04,0.32 -0.11,0.4 -0.13,0.08 -0.32,0.03 -0.39,-0.11 -0.12,-0.2 -0.31,-0.33 -0.53,-0.38 -0.23,-0.04 -0.46,0.01 -0.64,0.14 -0.18,0.13 -0.29,0.34 -0.31,0.57 -0.02,0.23 0.06,0.45 0.22,0.61 l 1.44,1.49 c 0.28,0.29 0.42,0.68 0.4,1.09 -0.04,0.41 -0.23,0.77 -0.56,1.02 -0.33,0.25 -0.74,0.34 -1.13,0.26 -0.4,-0.08 -0.74,-0.32 -0.94,-0.67 -0.07,-0.14 -0.03,-0.32 0.11,-0.4 0.14,-0.08 0.32,-0.04 0.4,0.11 0.12,0.21 0.32,0.35 0.56,0.4 0.23,0.04 0.48,-0.01 0.67,-0.15 0.17,-0.16 0.29,-0.38 0.31,-0.62 z"
       style="fill:#171419;fill-rule:nonzero"
       id="path341"
       inkscape:connector-curvature="0" /><path
       d="m 127.03,142.62 h 1.08 c 0.76,0 1.37,0.61 1.37,1.37 v 0.5 c 0,0.76 -0.61,1.37 -1.37,1.37 h -0.79 v 2.23 c 0,0.16 -0.13,0.29 -0.29,0.29 -0.16,0 -0.29,-0.13 -0.29,-0.29 v -5.19 c 0.01,-0.16 0.13,-0.28 0.29,-0.28 z m 1.08,0.57 h -0.79 v 2.09 h 0.79 c 0.43,0 0.79,-0.35 0.79,-0.79 v -0.5 c 0.01,-0.44 -0.35,-0.8 -0.79,-0.8 z"
       style="fill:#171419;fill-rule:nonzero"
       id="path343"
       inkscape:connector-curvature="0" /><path
       d="m 132.89,148.22 c 0,0 -1.31,-2.7 -1.97,-4.09 v 3.96 c 0,0.16 -0.13,0.29 -0.29,0.29 -0.16,0 -0.29,-0.13 -0.29,-0.29 v -5.22 c 0,-0.14 0.09,-0.25 0.22,-0.28 0.13,-0.03 0.26,0.04 0.32,0.15 0,0 1.3,2.7 1.97,4.09 v -3.96 c 0,-0.16 0.13,-0.29 0.29,-0.29 0.16,0 0.29,0.13 0.29,0.29 v 5.22 c 0,0.13 -0.09,0.25 -0.22,0.28 -0.12,0.04 -0.25,-0.04 -0.32,-0.15 z"
       style="fill:#171419;fill-rule:nonzero"
       id="path345"
       inkscape:connector-curvature="0" /><path
       d="m 136.55,147.03 c 0.02,-0.23 -0.06,-0.48 -0.23,-0.65 l -1.44,-1.48 c -0.27,-0.28 -0.41,-0.67 -0.38,-1.05 0.03,-0.4 0.22,-0.76 0.54,-0.99 0.31,-0.23 0.71,-0.33 1.1,-0.25 0.38,0.08 0.71,0.32 0.91,0.66 0.08,0.14 0.04,0.32 -0.11,0.4 -0.13,0.08 -0.32,0.03 -0.39,-0.11 -0.12,-0.2 -0.31,-0.33 -0.53,-0.38 -0.23,-0.04 -0.46,0.01 -0.64,0.14 -0.18,0.13 -0.29,0.34 -0.31,0.57 -0.02,0.23 0.06,0.45 0.22,0.61 l 1.44,1.49 c 0.28,0.29 0.42,0.68 0.4,1.09 -0.04,0.41 -0.23,0.77 -0.56,1.02 -0.33,0.25 -0.74,0.34 -1.13,0.26 -0.4,-0.08 -0.74,-0.32 -0.94,-0.67 -0.07,-0.14 -0.03,-0.32 0.11,-0.4 0.14,-0.08 0.32,-0.04 0.4,0.11 0.12,0.21 0.32,0.35 0.56,0.4 0.23,0.04 0.48,-0.01 0.67,-0.15 0.17,-0.16 0.29,-0.38 0.31,-0.62 z"
       style="fill:#171419;fill-rule:nonzero"
       id="path347"
       inkscape:connector-curvature="0" /></g><g
     id="g371"><path
       d="m 81.84,143.27 h -0.75 c 0,-7.87 -1.1,-26.17 -11.32,-26.17 v -0.75 c 4.51,0 12.07,3.49 12.07,26.92 z"
       style="fill:#2c7896;fill-rule:nonzero"
       id="path351"
       inkscape:connector-curvature="0" /><path
       d="m 69,125.66 c -0.36,0 -0.72,-0.02 -1.1,-0.06 l 0.08,-0.75 c 2.9,0.3 5.01,-0.71 6.71,-1.52 1.31,-0.62 2.34,-1.12 3.23,-0.7 0.67,0.32 1.13,1.09 1.5,2.5 l -0.73,0.19 c -0.29,-1.14 -0.65,-1.8 -1.09,-2 -0.57,-0.27 -1.46,0.16 -2.59,0.69 -1.49,0.72 -3.45,1.65 -6.01,1.65 z"
       style="fill:#2c7896;fill-rule:nonzero"
       id="path353"
       inkscape:connector-curvature="0" /><path
       d="m 75.34,119.5 c -1.99,-2.18 -1.93,-5.21 -1.89,-7.64 0.03,-1.94 0.06,-3.61 -0.86,-4.31 -0.77,-0.58 -2.26,-0.54 -4.54,0.15 l -0.21,-0.72 c 2.56,-0.77 4.21,-0.78 5.2,-0.03 1.23,0.93 1.2,2.78 1.16,4.92 -0.04,2.42 -0.09,5.17 1.7,7.12 z"
       style="fill:#2c7896;fill-rule:nonzero"
       id="path355"
       inkscape:connector-curvature="0" /><path
       d="M 79.59,74.69 C 79.32,71.98 77.82,71.48 75.54,70.71 72.84,69.8 69.13,68.56 65.9,62.82 l 0.65,-0.37 c 3.09,5.49 6.49,6.63 9.22,7.54 2.37,0.79 4.24,1.42 4.56,4.61 z"
       style="fill:#2c7896;fill-rule:nonzero"
       id="path357"
       inkscape:connector-curvature="0" /><path
       d="m 75.45,197.8 -0.53,-0.53 c 7.24,-7.24 7.01,-15.73 6.5,-34.34 -0.15,-5.66 -0.33,-12.06 -0.33,-19.66 0,-5.1 0.09,-10.5 0.18,-16.22 C 81.77,96 82.34,60.8 69.53,49.99 l 0.48,-0.57 c 13.08,11.04 12.51,46.43 12.01,77.65 -0.09,5.71 -0.18,11.11 -0.18,16.21 0,7.59 0.17,13.99 0.33,19.64 0.51,18.82 0.75,27.42 -6.72,34.88 z"
       style="fill:#2c7896;fill-rule:nonzero"
       id="path359"
       inkscape:connector-curvature="0" /><path
       d="m 78.53,68.75 c -0.94,-5.38 -2.73,-5.92 -5.2,-6.67 -1.64,-0.5 -3.49,-1.06 -5.49,-3.04 l 0.53,-0.53 c 1.87,1.85 3.63,2.38 5.18,2.85 2.52,0.76 4.7,1.42 5.72,7.26 z"
       style="fill:#2c7896;fill-rule:nonzero"
       id="path361"
       inkscape:connector-curvature="0" /><path
       d="m 71.44,192.74 -0.69,-0.29 c 1.58,-3.79 3.79,-4.12 5.74,-4.4 2.1,-0.31 3.92,-0.57 4.78,-5.34 l 0.74,0.13 c -0.96,5.3 -3.22,5.63 -5.41,5.95 -1.92,0.28 -3.74,0.55 -5.16,3.95 z"
       style="fill:#2c7896;fill-rule:nonzero"
       id="path363"
       inkscape:connector-curvature="0" /><path
       d="m 76.44,188.48 c -0.7,-3.68 0.91,-6.41 2.47,-9.06 1.33,-2.25 2.7,-4.58 2.71,-7.55 h 0.75 c -0.01,3.17 -1.43,5.59 -2.81,7.93 -1.56,2.64 -3.03,5.14 -2.38,8.54 z"
       style="fill:#2c7896;fill-rule:nonzero"
       id="path365"
       inkscape:connector-curvature="0" /><path
       d="m 76.8,204.95 -0.3,-0.69 c 4.35,-1.88 4.03,-8.49 3.38,-14.54 l 0.75,-0.08 c 0.52,4.88 1.39,13.05 -3.83,15.31 z"
       style="fill:#2c7896;fill-rule:nonzero"
       id="path367"
       inkscape:connector-curvature="0" /><path
       d="M 75.88,59.67 C 74.63,56.99 74.79,53.79 74.95,50.7 75.24,44.94 75.51,39.51 66.72,37.96 l 0.13,-0.74 c 9.44,1.66 9.14,7.69 8.85,13.52 -0.15,3 -0.31,6.1 0.87,8.62 z"
       style="fill:#2c7896;fill-rule:nonzero"
       id="path369"
       inkscape:connector-curvature="0" /></g><g
     id="g379"><path
       d="m 61.31,204.64 c -14.41,-14.41 -9.98,-19.37 -5.28,-24.62 2.54,-2.84 5.17,-5.78 5.17,-10.45 h 0.75 c 0,4.96 -2.73,8 -5.36,10.95 -4.65,5.19 -8.66,9.68 5.25,23.59 z"
       style="fill:#ae076a;fill-rule:nonzero"
       id="path373"
       inkscape:connector-curvature="0" /><path
       d="m 61.58,204.75 c -19.84,0 -23.95,-9.71 -28.29,-19.99 -2.19,-5.18 -4.45,-10.54 -8.84,-14.93 l 0.53,-0.53 c 4.5,4.5 6.79,9.92 9,15.17 4.25,10.05 8.25,19.53 27.6,19.53 z"
       style="fill:#ae076a;fill-rule:nonzero"
       id="path375"
       inkscape:connector-curvature="0" /><path
       d="m 47.24,210.82 c -3.57,0 -6.55,-1.33 -9.74,-2.75 -3.67,-1.63 -7.46,-3.32 -12.78,-3.32 V 204 c 5.48,0 9.52,1.8 13.08,3.39 6.41,2.85 11.94,5.32 23.55,-3.31 l 0.45,0.6 c -6.2,4.61 -10.72,6.14 -14.56,6.14 z"
       style="fill:#ae076a;fill-rule:nonzero"
       id="path377"
       inkscape:connector-curvature="0" /></g><g
     id="g401"><path
       d="m 90.36,143.33 h -0.75 c 0,-23.42 7.56,-26.92 12.07,-26.92 v 0.75 c -10.22,0 -11.32,18.3 -11.32,26.17 z"
       style="fill:#2c7896;fill-rule:nonzero"
       id="path381"
       inkscape:connector-curvature="0" /><path
       d="m 102.45,125.73 c -2.56,0 -4.53,-0.94 -6.01,-1.65 -1.13,-0.54 -2.02,-0.96 -2.59,-0.69 -0.44,0.21 -0.79,0.86 -1.09,2 l -0.73,-0.19 c 0.36,-1.41 0.82,-2.18 1.5,-2.5 0.89,-0.42 1.92,0.07 3.23,0.7 1.7,0.81 3.83,1.82 6.71,1.52 l 0.08,0.75 c -0.38,0.04 -0.74,0.06 -1.1,0.06 z"
       style="fill:#2c7896;fill-rule:nonzero"
       id="path383"
       inkscape:connector-curvature="0" /><path
       d="m 96.11,119.57 -0.55,-0.51 c 1.76,-1.93 1.82,-4.6 1.87,-6.96 0.05,-2.14 0.09,-3.99 1.37,-4.92 1.04,-0.75 2.72,-0.74 5.31,0.03 l -0.21,0.72 c -2.31,-0.69 -3.84,-0.74 -4.66,-0.15 -0.98,0.71 -1.01,2.39 -1.06,4.33 -0.05,2.5 -0.12,5.32 -2.07,7.46 z"
       style="fill:#2c7896;fill-rule:nonzero"
       id="path385"
       inkscape:connector-curvature="0" /><path
       d="m 91.86,74.75 -0.75,-0.07 c 0.31,-3.19 2.28,-3.82 4.77,-4.61 2.87,-0.91 6.43,-2.05 9.53,-7.55 l 0.65,0.37 c -3.24,5.76 -7.12,6.99 -9.95,7.89 -2.4,0.77 -3.99,1.27 -4.25,3.97 z"
       style="fill:#2c7896;fill-rule:nonzero"
       id="path387"
       inkscape:connector-curvature="0" /><path
       d="m 96,197.87 c -7.46,-7.47 -7.23,-16.06 -6.72,-34.89 0.15,-5.65 0.33,-12.05 0.33,-19.64 0,-5.1 -0.09,-10.49 -0.18,-16.21 -0.5,-31.22 -1.07,-66.61 12.01,-77.65 l 0.48,0.57 c -12.81,10.81 -12.24,46.01 -11.74,77.06 0.09,5.72 0.18,11.11 0.18,16.22 0,7.6 -0.17,14.01 -0.33,19.66 -0.51,18.61 -0.74,27.1 6.5,34.34 z"
       style="fill:#2c7896;fill-rule:nonzero"
       id="path389"
       inkscape:connector-curvature="0" /><path
       d="m 92.92,68.81 -0.74,-0.13 c 1.02,-5.81 3.38,-6.48 6.11,-7.25 1.66,-0.47 3.55,-1 5.43,-2.86 l 0.53,0.53 c -2.02,2 -4,2.56 -5.75,3.05 -2.7,0.76 -4.64,1.31 -5.58,6.66 z"
       style="fill:#2c7896;fill-rule:nonzero"
       id="path391"
       inkscape:connector-curvature="0" /><path
       d="m 100.01,192.81 c -1.42,-3.4 -3.23,-3.67 -5.16,-3.95 -2.19,-0.32 -4.45,-0.65 -5.41,-5.95 l 0.74,-0.13 c 0.86,4.77 2.68,5.03 4.78,5.34 1.95,0.29 4.16,0.61 5.74,4.4 z"
       style="fill:#2c7896;fill-rule:nonzero"
       id="path393"
       inkscape:connector-curvature="0" /><path
       d="m 95.01,188.55 -0.74,-0.14 c 0.65,-3.4 -0.82,-5.9 -2.38,-8.54 -1.38,-2.34 -2.81,-4.76 -2.81,-7.93 h 0.75 c 0.01,2.96 1.38,5.29 2.71,7.55 1.56,2.64 3.17,5.38 2.47,9.06 z"
       style="fill:#2c7896;fill-rule:nonzero"
       id="path395"
       inkscape:connector-curvature="0" /><path
       d="m 94.66,205.01 c -5.22,-2.26 -4.35,-10.43 -3.83,-15.31 l 0.75,0.08 c -0.65,6.05 -0.97,12.66 3.38,14.54 z"
       style="fill:#2c7896;fill-rule:nonzero"
       id="path397"
       inkscape:connector-curvature="0" /><path
       d="m 95.57,59.73 -0.68,-0.32 c 1.15,-2.47 1.08,-5.55 1.02,-8.53 -0.13,-5.97 -0.27,-12.14 9.24,-13.81 l 0.13,0.74 c -8.88,1.56 -8.76,7.15 -8.62,13.06 0.06,3.06 0.13,6.23 -1.09,8.86 z"
       style="fill:#2c7896;fill-rule:nonzero"
       id="path399"
       inkscape:connector-curvature="0" /></g><g
     id="g409"><path
       d="m 110.14,204.71 -0.53,-0.53 c 13.91,-13.91 9.9,-18.4 5.25,-23.59 -2.64,-2.95 -5.36,-5.99 -5.36,-10.95 h 0.75 c 0,4.67 2.63,7.61 5.17,10.45 4.69,5.24 9.13,10.2 -5.28,24.62 z"
       style="fill:#ae076a;fill-rule:nonzero"
       id="path403"
       inkscape:connector-curvature="0" /><path
       d="m 109.87,204.82 v -0.75 c 19.35,0 23.35,-9.49 27.59,-19.53 2.22,-5.25 4.51,-10.67 9,-15.17 l 0.53,0.53 c -4.39,4.39 -6.66,9.75 -8.84,14.93 -4.33,10.28 -8.43,19.99 -28.28,19.99 z"
       style="fill:#ae076a;fill-rule:nonzero"
       id="path405"
       inkscape:connector-curvature="0" /><path
       d="m 124.21,210.89 c -3.84,0 -8.36,-1.54 -14.57,-6.14 l 0.45,-0.6 c 11.62,8.63 17.15,6.17 23.55,3.31 3.56,-1.59 7.6,-3.39 13.08,-3.39 v 0.75 c -5.32,0 -9.11,1.69 -12.78,3.32 -3.18,1.42 -6.16,2.75 -9.73,2.75 z"
       style="fill:#ae076a;fill-rule:nonzero"
       id="path407"
       inkscape:connector-curvature="0" /></g><circle
     cx="11.81"
     cy="83.860001"
     r="7.4000001"
     style="fill:#2c7896"
     id="circle411" /><circle
     cx="159.97"
     cy="83.860001"
     r="7.4000001"
     style="fill:#2c7896"
     id="circle413" /><g
     id="g419"><path
       d="m 9.16,86.19 v -3.57 c 0,-0.15 0.12,-0.27 0.27,-0.27 h 0.9 c 0.64,0 1.17,0.52 1.17,1.17 v 2.67 c 0,0.15 -0.12,0.27 -0.27,0.27 -0.15,0 -0.27,-0.12 -0.27,-0.27 v -2.67 c 0,-0.35 -0.28,-0.63 -0.63,-0.63 H 9.7 v 3.29 c 0,0.15 -0.12,0.27 -0.27,0.27 -0.15,0.01 -0.27,-0.11 -0.27,-0.26 z"
       style="fill:#e6e5e5;fill-rule:nonzero"
       id="path415"
       inkscape:connector-curvature="0" /><path
       d="m 13.07,82.33 c -0.08,0 -0.14,-0.03 -0.21,-0.08 -0.05,-0.06 -0.08,-0.13 -0.08,-0.21 0,-0.08 0.03,-0.14 0.08,-0.21 l 1.08,-1.08 c 0.08,-0.08 0.21,-0.1 0.31,-0.06 0.12,0.04 0.18,0.13 0.18,0.27 v 5.22 c 0,0.17 -0.14,0.29 -0.29,0.29 -0.17,0 -0.29,-0.12 -0.29,-0.29 v -4.53 l -0.6,0.59 c -0.04,0.06 -0.1,0.09 -0.18,0.09 z"
       style="fill:#e6e5e5;fill-rule:nonzero"
       id="path417"
       inkscape:connector-curvature="0" /></g><g
     id="g425"><path
       d="m 157.22,86.19 v -3.57 c 0,-0.15 0.12,-0.27 0.27,-0.27 h 0.9 c 0.64,0 1.17,0.52 1.17,1.17 v 2.67 c 0,0.15 -0.12,0.27 -0.27,0.27 -0.15,0 -0.27,-0.12 -0.27,-0.27 v -2.67 c 0,-0.35 -0.28,-0.63 -0.63,-0.63 h -0.63 v 3.29 c 0,0.15 -0.12,0.27 -0.27,0.27 -0.15,0.01 -0.27,-0.11 -0.27,-0.26 z"
       style="fill:#e6e5e5;fill-rule:nonzero"
       id="path421"
       inkscape:connector-curvature="0" /><path
       d="m 160.69,81.36 c 0.19,-0.33 0.46,-0.54 0.82,-0.63 0.35,-0.1 0.71,-0.05 1.03,0.12 0.31,0.17 0.55,0.45 0.65,0.8 0.11,0.35 0.07,0.7 -0.1,1.04 -0.25,0.48 -0.49,0.92 -0.7,1.34 -0.38,0.72 -0.79,1.51 -0.96,1.84 h 1.54 c 0.15,0 0.29,0.12 0.29,0.29 0,0.17 -0.13,0.29 -0.29,0.29 h -2.02 c -0.12,0 -0.2,-0.04 -0.24,-0.14 -0.06,-0.1 -0.06,-0.2 -0.01,-0.29 l 1.89,-3.6 c 0.1,-0.19 0.12,-0.39 0.05,-0.59 -0.06,-0.21 -0.19,-0.37 -0.38,-0.47 -0.19,-0.1 -0.39,-0.13 -0.59,-0.07 -0.21,0.06 -0.37,0.19 -0.47,0.37 -0.08,0.14 -0.26,0.19 -0.4,0.11 -0.13,-0.1 -0.19,-0.28 -0.11,-0.41 z"
       style="fill:#e6e5e5;fill-rule:nonzero"
       id="path423"
       inkscape:connector-curvature="0" /></g></g><g
   inkscape:groupmode="layer"
   id="layer1"
   inkscape:label="components"
   transform="translate(0,1014.5276)"
   style="display:none"><path
     transform="translate(0,-1014.5276)"
     id="SenseNeuron1"
     d="m 202.59313,188.22937 c 0,21.05744 -17.1821,38.10034 -38.32636,38.10034 -21.18236,0 -38.32636,-17.08077 -38.32636,-38.10034 0,-21.01957 17.18209,-38.10033 38.32636,-38.10033 21.14426,0 38.32636,17.04289 38.32636,38.10033 z"
     style="clip-rule:evenodd;fill:#ff0000;fill-rule:nonzero;stroke:#ff0000;stroke-width:1.06358755px;stroke-miterlimit:10"
     inkscape:connector-curvature="0" /><path
     transform="translate(0,-1014.5276)"
     id="SenseNeuron2"
     d="m 524.17642,188.22937 c 0,21.05744 -17.18207,38.10034 -38.32637,38.10034 -21.18232,0 -38.32633,-17.08077 -38.32633,-38.10034 0,-21.01957 17.1821,-38.10033 38.32633,-38.10033 21.1443,0 38.32637,17.04289 38.32637,38.10033 z"
     style="clip-rule:evenodd;fill:#ff0000;fill-rule:nonzero;stroke:#ff0000;stroke-width:1.06358755px;stroke-miterlimit:10"
     inkscape:connector-curvature="0" /><path
     transform="translate(0,-1014.5276)"
     id="ResponseNeuron1"
     d="m 202.59313,443.41831 c 0,21.05743 -17.1821,38.10034 -38.32636,38.10034 -21.18236,0 -38.32636,-17.08077 -38.32636,-38.10034 0,-21.05746 17.144,-38.10035 38.32636,-38.10035 21.14426,-0.0378 38.32636,17.04289 38.32636,38.10035 z"
     style="clip-rule:evenodd;fill:#ff0000;fill-rule:nonzero;stroke:#ff0000;stroke-width:1.06358755px;stroke-miterlimit:10"
     inkscape:connector-curvature="0" /><path
     transform="translate(0,-1014.5276)"
     id="ResponseNeuron2"
     d="m 524.17642,443.41831 c 0,21.05743 -17.18207,38.10034 -38.32637,38.10034 -21.18232,0 -38.32633,-17.08077 -38.32633,-38.10034 0,-21.05746 17.1821,-38.10035 38.32633,-38.10035 21.1443,-0.0378 38.32637,17.04289 38.32637,38.10035 z"
     style="clip-rule:evenodd;fill:#ff0000;fill-rule:nonzero;stroke:#ff0000;stroke-width:1.06358755px;stroke-miterlimit:10"
     inkscape:connector-curvature="0" /><ellipse
     transform="translate(0,-1014.5276)"
     id="In1Neuron1"
     cx="91.995285"
     cy="642.21429"
     style="clip-rule:evenodd;fill:#00ff00;fill-rule:evenodd;stroke:#00ff00;stroke-width:1.06358755px;stroke-miterlimit:10"
     rx="32.38311"
     ry="32.192135" /><ellipse
     transform="translate(0,-1014.5276)"
     id="In2Neuron1"
     cx="232.42372"
     cy="642.21429"
     style="clip-rule:evenodd;fill:#00ff00;fill-rule:evenodd;stroke:#00ff00;stroke-width:1.06358755px;stroke-miterlimit:10"
     rx="32.38311"
     ry="32.192135" /><ellipse
     transform="translate(0,-1014.5276)"
     id="In3Neuron1"
     cx="91.995285"
     cy="774.05048"
     style="clip-rule:evenodd;fill:#00ff00;fill-rule:evenodd;stroke:#00ff00;stroke-width:1.06358755px;stroke-miterlimit:10"
     rx="32.38311"
     ry="32.192135" /><ellipse
     transform="translate(0,-1014.5276)"
     id="OutNeuron1"
     cx="232.42372"
     cy="774.05048"
     style="clip-rule:evenodd;fill:#0000ff;fill-rule:evenodd;stroke:#0000ff;stroke-width:1.06358755px;stroke-miterlimit:10"
     rx="32.38311"
     ry="32.192135" /><ellipse
     transform="translate(0,-1014.5276)"
     id="InNeg1DiffRect1"
     cx="91.995285"
     cy="930.61786"
     style="clip-rule:evenodd;fill:#00ff00;fill-rule:evenodd;stroke:#00ff00;stroke-width:1.06358755px;stroke-miterlimit:10"
     rx="32.38311"
     ry="32.192135" /><ellipse
     transform="translate(0,-1014.5276)"
     id="InNeg2DiffRect1"
     cx="232.42372"
     cy="930.61786"
     style="clip-rule:evenodd;fill:#00ff00;fill-rule:evenodd;stroke:#00ff00;stroke-width:1.06358755px;stroke-miterlimit:10"
     rx="32.38311"
     ry="32.192135" /><ellipse
     transform="translate(0,-1014.5276)"
     id="InPos1DiffRect1"
     cx="91.995285"
     cy="1061.3556"
     style="clip-rule:evenodd;fill:#00ff00;fill-rule:evenodd;stroke:#00ff00;stroke-width:1.06358755px;stroke-miterlimit:10"
     rx="32.38311"
     ry="32.192135" /><ellipse
     transform="translate(0,-1014.5276)"
     id="InPos2DiffRect1"
     cx="232.42372"
     cy="1061.3556"
     style="clip-rule:evenodd;fill:#00ff00;fill-rule:evenodd;stroke:#00ff00;stroke-width:1.06358755px;stroke-miterlimit:10"
     rx="32.38311"
     ry="32.192135" /><g
     style="clip-rule:evenodd;fill-rule:evenodd;stroke-miterlimit:10"
     id="OutNegDiffRect1"
     transform="matrix(0.61032634,-3.7384532,3.7606313,0.60672702,-1108.2866,80.300301)"><circle
       cx="24.719999"
       cy="315.16"
       r="8.5"
       style="fill:#0000ff;stroke:#0000ff;stroke-width:0.28px"
       id="circle440" /></g><g
     style="clip-rule:evenodd;fill-rule:evenodd;stroke-miterlimit:10"
     id="OutPosDiffRect1"
     transform="matrix(0.61032634,-3.7384532,3.7606313,0.60672702,-990.34728,218.1016)"><circle
       cx="61.580002"
       cy="315.16"
       r="8.5"
       style="fill:#0000ff;stroke:#0000ff;stroke-width:0.28px"
       id="circle443" /></g><ellipse
     transform="translate(0,-1014.5276)"
     id="In1Neuron2"
     cx="417.65503"
     cy="642.21429"
     style="clip-rule:evenodd;fill:#00ff00;fill-rule:evenodd;stroke:#00ff00;stroke-width:1.06358755px;stroke-miterlimit:10"
     rx="32.38311"
     ry="32.192135" /><ellipse
     transform="translate(0,-1014.5276)"
     id="In2Neuron2"
     cx="558.08344"
     cy="642.21429"
     style="clip-rule:evenodd;fill:#00ff00;fill-rule:evenodd;stroke:#00ff00;stroke-width:1.06358755px;stroke-miterlimit:10"
     rx="32.38311"
     ry="32.192135" /><ellipse
     transform="translate(0,-1014.5276)"
     id="OutNeuron2"
     cx="417.65503"
     cy="774.05048"
     style="clip-rule:evenodd;fill:#0000ff;fill-rule:evenodd;stroke:#0000ff;stroke-width:1.06358755px;stroke-miterlimit:10"
     rx="32.38311"
     ry="32.192135" /><ellipse
     transform="translate(0,-1014.5276)"
     id="In3Neuron2"
     cx="558.08344"
     cy="774.05048"
     style="clip-rule:evenodd;fill:#00ff00;fill-rule:evenodd;stroke:#00ff00;stroke-width:1.06358755px;stroke-miterlimit:10"
     rx="32.38311"
     ry="32.192135" /><ellipse
     transform="translate(0,-1014.5276)"
     id="InNeg1DiffRect2"
     cx="417.65503"
     cy="930.61786"
     style="clip-rule:evenodd;fill:#00ff00;fill-rule:evenodd;stroke:#00ff00;stroke-width:1.06358755px;stroke-miterlimit:10"
     rx="32.38311"
     ry="32.192135" /><ellipse
     transform="translate(0,-1014.5276)"
     id="InNeg2DiffRect2"
     cx="558.08344"
     cy="930.61786"
     style="clip-rule:evenodd;fill:#00ff00;fill-rule:evenodd;stroke:#00ff00;stroke-width:1.06358755px;stroke-miterlimit:10"
     rx="32.38311"
     ry="32.192135" /><ellipse
     transform="translate(0,-1014.5276)"
     id="InPos1DiffRect2"
     cx="417.65503"
     cy="1061.3556"
     style="clip-rule:evenodd;fill:#00ff00;fill-rule:evenodd;stroke:#00ff00;stroke-width:1.06358755px;stroke-miterlimit:10"
     rx="32.38311"
     ry="32.192135" /><ellipse
     transform="translate(0,-1014.5276)"
     id="InPos2DiffRect2"
     cx="558.08344"
     cy="1061.3556"
     style="clip-rule:evenodd;fill:#00ff00;fill-rule:evenodd;stroke:#00ff00;stroke-width:1.06358755px;stroke-miterlimit:10"
     rx="32.38311"
     ry="32.192135" /><g
     style="clip-rule:evenodd;fill-rule:evenodd;stroke-miterlimit:10"
     id="OutPos2"
     transform="matrix(0.61032634,-3.7384532,3.7606313,0.60672702,-834.79786,399.85461)"><circle
       cx="110.2"
       cy="315.16"
       r="8.5"
       style="fill:#0000ff;stroke:#0000ff;stroke-width:0.28px"
       id="circle454" /></g><g
     style="clip-rule:evenodd;fill-rule:evenodd;stroke-miterlimit:10"
     id="OutNeg2"
     transform="matrix(0.61032634,-3.7384532,3.7606313,0.60672702,-716.84333,537.671)"><circle
       cx="147.06"
       cy="315.16"
       r="8.5"
       style="fill:#0000ff;stroke:#0000ff;stroke-width:0.28px"
       id="circle457" /></g></g><g
   style="clip-rule:evenodd;fill-rule:evenodd;stroke-miterlimit:10"
   id="screws"
   transform="matrix(3.8097776,0,0,3.7873098,-2.1824051,6.8480618e-5)"><path
     d="m 25.78,8.5 c 0,2.51 -2.03,4.54 -4.54,4.54 -2.51,0 -4.54,-2.03 -4.54,-4.54 0,-2.5 2.03,-4.54 4.54,-4.54 2.51,0.01 4.54,2.04 4.54,4.54 z"
     style="fill:none;fill-rule:nonzero;stroke:#c43332;stroke-width:0.25px"
     id="path461"
     inkscape:connector-curvature="0" /><path
     d="m 155.05,8.5 c 0,2.51 -2.03,4.54 -4.54,4.54 -2.51,0 -4.54,-2.03 -4.54,-4.54 0,-2.5 2.03,-4.54 4.54,-4.54 2.52,0.01 4.54,2.04 4.54,4.54 z"
     style="fill:none;fill-rule:nonzero;stroke:#c43332;stroke-width:0.25px"
     id="path463"
     inkscape:connector-curvature="0" /><path
     d="m 25.78,355.75 c 0,2.51 -2.03,4.54 -4.54,4.54 -2.51,0 -4.54,-2.03 -4.54,-4.54 0,-2.5 2.03,-4.54 4.54,-4.54 2.51,0 4.54,2.03 4.54,4.54 z"
     style="fill:none;fill-rule:nonzero;stroke:#c43332;stroke-width:0.25px"
     id="path465"
     inkscape:connector-curvature="0" /><path
     d="m 155.05,355.75 c 0,2.51 -2.03,4.54 -4.54,4.54 -2.51,0 -4.54,-2.03 -4.54,-4.54 0,-2.5 2.03,-4.54 4.54,-4.54 2.52,0 4.54,2.03 4.54,4.54 z"
     style="fill:none;fill-rule:nonzero;stroke:#c43332;stroke-width:0.25px"
     id="path467"
     inkscape:connector-curvature="0" /></g></svg>