<svg xmlns="http://www.w3.org/2000/svg" width="50.5mm" height="128.5mm" viewBox="0 0 143.15 364.25">
  <g id="bright">
    <rect width="143.15" height="364.25" style="fill: #e6e5e5"/>
  </g>
  <g id="graphics">
    <g id="Title">
      <path d="M89.54,18.47h0a3.17,3.17,0,0,1-3.28-3.18V8A3,3,0,0,1,89.49,5.1,2.89,2.89,0,0,1,92.64,8v7.34a3,3,0,0,1-3.1,3.18ZM89.49,5.81A2.27,2.27,0,0,0,87,8v7.34a2.44,2.44,0,0,0,2.57,2.47h0a2.41,2.41,0,0,0,1.65-.6,2.45,2.45,0,0,0,.74-1.87V8A2.2,2.2,0,0,0,89.49,5.81Z" style="fill: #211e1f"/>
      <path d="M42.78,18.12H40.73a3.53,3.53,0,0,1-3.53-3.53V5.83a.37.37,0,0,1,.37-.38.38.38,0,0,1,.38.38v8.76a2.79,2.79,0,0,0,2.78,2.78h2.05a.38.38,0,0,1,0,.75Z" style="fill: #211e1f"/>
      <path d="M85.69,18.12H84.21a3.53,3.53,0,0,1-3.53-3.53V5.83a.37.37,0,0,1,.37-.38.38.38,0,0,1,.38.38v8.76a2.79,2.79,0,0,0,2.78,2.78h1.48a.38.38,0,1,1,0,.75Z" style="fill: #211e1f"/>
      <path d="M38.78,5.81A1.21,1.21,0,1,1,37.57,4.6,1.21,1.21,0,0,1,38.78,5.81Z" style="fill: #ae076a"/>
      <path d="M56.43,17.37h-2a2.79,2.79,0,0,1-2.79-2.78V12.16h4.25a.38.38,0,0,0,0-.75H51.59V5.83a.37.37,0,0,0-.37-.38.38.38,0,0,0-.38.38v8.76a3.54,3.54,0,0,0,3.54,3.53h2a.38.38,0,0,0,0-.75Z" style="fill: #211e1f"/>
      <path d="M55.84,6.81a.38.38,0,0,1-.38-.38v-2a.38.38,0,0,1,.75,0v2A.38.38,0,0,1,55.84,6.81Z" style="fill: #211e1f"/>
      <path d="M73.2,18.14a.37.37,0,0,1-.37-.38V5.26h.38c.25,0,6.19.23,6.19,3.48v3.41H73.58v5.6A.38.38,0,0,1,73.2,18.14Zm.38-6.73h5.07V8.75c0-1.94-3.36-2.58-5.07-2.71Z" style="fill: #211e1f"/>
      <path d="M103.1,10h-.7V5.65a.38.38,0,1,0-.75,0V17.76a.38.38,0,1,0,.75,0v-7h.7a4.37,4.37,0,0,1,4.37,4.36v4.06a.38.38,0,1,0,.75,0V15.11A5.12,5.12,0,0,0,103.1,10Z" style="fill: #211e1f"/>
      <path d="M46.66,18.14a3.29,3.29,0,0,1-3.28-3.29V5.26h.39C44,5.28,50,5.5,50,8.75v3.41H44.13v2.69a2.54,2.54,0,0,0,2.53,2.54.37.37,0,0,1,.38.37A.38.38,0,0,1,46.66,18.14Zm-2.53-6.73H49.2V8.75c0-1.94-3.36-2.58-5.07-2.71Z" style="fill: #211e1f"/>
      <path d="M60.2,18.14h-2a.38.38,0,0,1-.37-.38.37.37,0,0,1,.37-.37h2a2.65,2.65,0,0,0,2.64-2.65,2.59,2.59,0,0,0-2.58-2.58h-.1a3.36,3.36,0,0,1,0-6.71h1.09a.38.38,0,1,1,0,.75H60.16a2.61,2.61,0,0,0,0,5.21h.1a3.34,3.34,0,0,1,3.33,3.33A3.4,3.4,0,0,1,60.2,18.14Z" style="fill: #211e1f"/>
      <path d="M97,18.14h-2a.38.38,0,0,1-.37-.38.37.37,0,0,1,.37-.37h2a2.65,2.65,0,0,0,2.64-2.65,2.59,2.59,0,0,0-2.58-2.58H97a3.36,3.36,0,0,1,0-6.71h1.1a.38.38,0,0,1,0,.75H97a2.61,2.61,0,0,0,0,5.21h.1a3.34,3.34,0,0,1,3.33,3.33A3.4,3.4,0,0,1,97,18.14Z" style="fill: #211e1f"/>
      <path d="M68.65,18.14h-2a.37.37,0,0,1-.37-.38.36.36,0,0,1,.37-.37h2a2.65,2.65,0,0,0,2.64-2.65,2.59,2.59,0,0,0-2.58-2.58h-.1a3.36,3.36,0,1,1,0-6.71.38.38,0,0,1,0,.75,2.61,2.61,0,1,0,0,5.21h.1A3.34,3.34,0,0,1,72,14.74,3.4,3.4,0,0,1,68.65,18.14Z" style="fill: #211e1f"/>
      <path d="M109.06,19.7a1.21,1.21,0,1,1-1.21-1.21A1.21,1.21,0,0,1,109.06,19.7Z" style="fill: #ae076a"/>
      <path d="M87.9,10.37a1.21,1.21,0,1,1-1.21-1.21A1.21,1.21,0,0,1,87.9,10.37Z" style="fill: #ae076a"/>
      <path d="M70.72,5.83a1.21,1.21,0,1,1-1.21-1.21A1.21,1.21,0,0,1,70.72,5.83Z" style="fill: #ae076a"/>
    </g>
    <g id="LOGO">
      <path d="M52.65,356.88,52,355.53l-1.1-2.28v3.52a.24.24,0,0,1-.25.25.24.24,0,0,1-.26-.25v-4.64a.26.26,0,0,1,.2-.25.27.27,0,0,1,.29.14c.21.45.43.91.65,1.35.35.74.8,1.66,1.1,2.28v-3.52a.26.26,0,1,1,.51,0v4.64a.26.26,0,0,1-.2.25A.27.27,0,0,1,52.65,356.88Z" style="fill: #211e1f"/>
      <path d="M54.15,356v-1.6a1,1,0,0,1,2.08,0V356a1,1,0,0,1-2.08,0Zm.48-1.6V356a.56.56,0,0,0,1.12,0v-1.6a.56.56,0,0,0-1.12,0Z" style="fill: #211e1f"/>
      <path d="M57.25,356.77V353.6a.24.24,0,0,1,.24-.24h.8a1,1,0,0,1,1,1v2.37a.24.24,0,1,1-.48,0V354.4a.55.55,0,0,0-.56-.56h-.56v2.93a.24.24,0,1,1-.48,0Z" style="fill: #211e1f"/>
      <path d="M60.37,356.22V352a.24.24,0,0,1,.48,0v4.25a.39.39,0,0,0,.2.34.23.23,0,0,1,.08.33.24.24,0,0,1-.33.09A.9.9,0,0,1,60.37,356.22Z" style="fill: #211e1f"/>
      <path d="M61.91,352.37a.32.32,0,1,1,.32.32A.32.32,0,0,1,61.91,352.37Zm.32,4.64a.24.24,0,0,1-.24-.24v-3.2a.24.24,0,0,1,.24-.24.23.23,0,0,1,.24.24v3.2A.24.24,0,0,1,62.23,357Z" style="fill: #211e1f"/>
      <path d="M63.59,356.77V353.6a.24.24,0,0,1,.24-.24h.8a1,1,0,0,1,1,1v2.37a.24.24,0,0,1-.24.24.24.24,0,0,1-.24-.24V354.4a.56.56,0,0,0-.56-.56h-.56v2.93a.24.24,0,0,1-.24.24A.24.24,0,0,1,63.59,356.77Z" style="fill: #211e1f"/>
      <path d="M66.63,356v-1.6a1,1,0,1,1,2.08,0v.8a.24.24,0,0,1-.24.24H67.11V356a.57.57,0,0,0,.34.52.55.55,0,0,0,.61-.12.22.22,0,0,1,.17-.07.21.21,0,0,1,.17.07.2.2,0,0,1,.08.17.21.21,0,0,1-.08.16,1,1,0,0,1-1.77-.73Zm.48-1.6v.56h1.12v-.56a.56.56,0,0,0-1.12,0Z" style="fill: #211e1f"/>
      <path d="M71,354.35a.56.56,0,0,0-.34-.5A.52.52,0,0,0,70,354a.22.22,0,0,1-.17.07.21.21,0,0,1-.17-.07.22.22,0,0,1-.07-.17.21.21,0,0,1,.07-.17,1,1,0,0,1,1.75.72v2.39a.24.24,0,0,1-.24.24h-.8a1,1,0,1,1,0-2.08H71Zm-.56,2.15H71v-1.12h-.56a.55.55,0,0,0-.56.56A.56.56,0,0,0,70.39,356.5Z" style="fill: #211e1f"/>
      <path d="M72.49,356.77V353.6a.24.24,0,0,1,.24-.24h.8a1.1,1.1,0,0,1,.52.14.23.23,0,0,1,.08.33.22.22,0,0,1-.33.08.64.64,0,0,0-.27-.07H73v2.93a.24.24,0,1,1-.47,0Z" style="fill: #211e1f"/>
      <path d="M74.7,356v-1.6a1,1,0,0,1,.64-1,1.07,1.07,0,0,1,1.14.22.28.28,0,0,1,.06.18.27.27,0,0,1-.06.17.28.28,0,0,1-.18.06.27.27,0,0,1-.17-.06.52.52,0,0,0-.6-.13.55.55,0,0,0-.35.52V356a.56.56,0,0,0,.35.52.54.54,0,0,0,.6-.12.23.23,0,0,1,.17-.07.24.24,0,0,1,.18.07.22.22,0,0,1,.06.17.23.23,0,0,1-.06.16,1.06,1.06,0,0,1-1.14.23A1,1,0,0,1,74.7,356Z" style="fill: #211e1f"/>
      <path d="M77.34,352.37a.32.32,0,0,1,.32-.32.32.32,0,0,1,0,.64A.32.32,0,0,1,77.34,352.37Zm.32,4.64a.24.24,0,0,1-.24-.24v-3.2a.24.24,0,0,1,.24-.24.23.23,0,0,1,.24.24v3.2A.24.24,0,0,1,77.66,357Z" style="fill: #211e1f"/>
      <path d="M79,356.77V353.6a.24.24,0,0,1,.24-.24h.8a1.1,1.1,0,0,1,.52.14.24.24,0,0,1,.09.33.23.23,0,0,1-.33.08.68.68,0,0,0-.28-.07H79.5v2.93a.24.24,0,0,1-.24.24A.24.24,0,0,1,79,356.77Z" style="fill: #211e1f"/>
      <path d="M81.24,356v-1.6a1,1,0,0,1,.64-1,1.05,1.05,0,0,1,1.13.22.29.29,0,0,1,.07.18A.28.28,0,0,1,83,354a.27.27,0,0,1-.34,0,.54.54,0,0,0-.61-.13.56.56,0,0,0-.34.52V356a.57.57,0,0,0,.34.52.55.55,0,0,0,.61-.12.24.24,0,0,1,.34,0,.22.22,0,0,1,.07.17.24.24,0,0,1-.07.16,1,1,0,0,1-1.77-.73Z" style="fill: #211e1f"/>
      <path d="M83.89,355.94v-2.37a.24.24,0,0,1,.24-.24.23.23,0,0,1,.24.24v2.37a.56.56,0,0,0,.56.56h.56v-2.93a.24.24,0,0,1,.24-.24.23.23,0,0,1,.24.24v3.17a.24.24,0,0,1-.24.24h-.8A1,1,0,0,1,83.89,355.94Z" style="fill: #211e1f"/>
      <path d="M87,352.37a.32.32,0,0,1,.32-.32.32.32,0,0,1,0,.64A.32.32,0,0,1,87,352.37Zm.32,4.64a.25.25,0,0,1-.24-.24v-3.2a.24.24,0,0,1,.24-.24.23.23,0,0,1,.24.24v3.2A.24.24,0,0,1,87.33,357Z" style="fill: #211e1f"/>
      <path d="M88.34,353.6a.24.24,0,0,1,.24-.24H89V352a.24.24,0,0,1,.48,0v1.39H90a.24.24,0,0,1,.24.24.23.23,0,0,1-.24.24h-.56V356a.56.56,0,0,0,.56.56.23.23,0,0,1,.24.24A.24.24,0,0,1,90,357a1,1,0,0,1-1-1v-2.13h-.4A.24.24,0,0,1,88.34,353.6Z" style="fill: #211e1f"/>
      <path d="M92.28,356a.48.48,0,0,0-.22-.38l-.74-.53a.93.93,0,0,1-.41-.72.91.91,0,0,1,.31-.76,1,1,0,0,1,1.48.22.24.24,0,0,1-.09.33.23.23,0,0,1-.32-.09.47.47,0,0,0-.35-.23.43.43,0,0,0-.4.12.45.45,0,0,0-.15.38.46.46,0,0,0,.21.36l.74.52a1,1,0,0,1,.42.75A1,1,0,0,1,91.62,357a1,1,0,0,1-.71-.49.24.24,0,0,1,.09-.33.23.23,0,0,1,.32.09.51.51,0,0,0,.37.25.53.53,0,0,0,.43-.13A.49.49,0,0,0,92.28,356Z" style="fill: #211e1f"/>
    </g>
    <path d="M116.65,64.21a15.58,15.58,0,0,0,5.22-28.62.38.38,0,0,0-.51.13.36.36,0,0,0,.12.51,14.84,14.84,0,1,1-15.43,0,.37.37,0,0,0,.12-.51.38.38,0,0,0-.51-.13,15.49,15.49,0,0,0-7.47,13c-5.24.13-7.34,3.17-9.55,6.39-2.85,4.17-6.09,8.9-17.06,8.9s-14.22-4.73-17.08-8.9c-2.2-3.22-4.3-6.26-9.54-6.39a15.49,15.49,0,0,0-7.47-13,.38.38,0,0,0-.51.13.37.37,0,0,0,.12.51,14.84,14.84,0,1,1-15.43,0,.37.37,0,0,0,.12-.51.38.38,0,0,0-.51-.13A15.58,15.58,0,0,0,26.5,64.21a15.59,15.59,0,0,0-5.22,28.63.38.38,0,0,0,.51-.13.37.37,0,0,0-.12-.51,14.84,14.84,0,1,1,15.43,0,.37.37,0,0,0-.12.51.36.36,0,0,0,.32.18.41.41,0,0,0,.19,0,15.49,15.49,0,0,0,7.47-13c5.24-.13,7.34-3.17,9.54-6.39,2.86-4.17,6.1-8.9,17.08-8.9s14.21,4.73,17.06,8.9c2.21,3.22,4.31,6.26,9.55,6.39a15.49,15.49,0,0,0,7.47,13,.38.38,0,0,0,.51-.13.37.37,0,0,0-.12-.51,14.84,14.84,0,1,1,15.43,0,.37.37,0,0,0,.2.69.45.45,0,0,0,.19,0,15.59,15.59,0,0,0-5.22-28.63ZM53.89,73.06C51.7,76.25,49.8,79,45,79.13A15.59,15.59,0,0,0,32.27,64.21,15.57,15.57,0,0,0,45,49.3c4.85.13,6.75,2.88,8.94,6.07C56.37,59,59.14,63,66.66,64.21,59.14,65.43,56.37,69.44,53.89,73.06ZM98.2,79.13c-4.85-.13-6.75-2.88-8.94-6.07-2.48-3.62-5.25-7.63-12.77-8.85C84,63,86.78,59,89.26,55.37c2.19-3.19,4.09-5.94,8.94-6.07a15.57,15.57,0,0,0,12.68,14.91A15.59,15.59,0,0,0,98.2,79.13Z" style="fill: #a1a1a1"/>
    <path d="M116.65,221.88a15.58,15.58,0,0,0,5.22-28.62.37.37,0,0,0-.39.64,14.84,14.84,0,1,1-15.43,0,.38.38,0,0,0,.12-.52.37.37,0,0,0-.51-.12,15.48,15.48,0,0,0-7.47,13c-5.24.14-7.34,3.18-9.55,6.4-2.85,4.17-6.09,8.89-17.06,8.89s-14.22-4.72-17.08-8.89c-2.2-3.22-4.3-6.26-9.54-6.4a15.48,15.48,0,0,0-7.47-13,.37.37,0,0,0-.51.12.38.38,0,0,0,.12.52,14.84,14.84,0,1,1-15.43,0,.38.38,0,0,0,.12-.52.37.37,0,0,0-.51-.12,15.58,15.58,0,0,0,5.22,28.62,15.58,15.58,0,0,0-5.22,28.62.37.37,0,0,0,.51-.12.38.38,0,0,0-.12-.52,14.84,14.84,0,1,1,15.43,0,.38.38,0,0,0,.2.7.33.33,0,0,0,.19-.06A15.48,15.48,0,0,0,45,237.55c5.24-.14,7.34-3.18,9.54-6.4,2.86-4.17,6.1-8.9,17.08-8.9s14.21,4.73,17.06,8.9c2.21,3.22,4.31,6.26,9.55,6.4a15.48,15.48,0,0,0,7.47,12.95.37.37,0,0,0,.51-.12.38.38,0,0,0-.12-.52,14.84,14.84,0,1,1,15.43,0,.37.37,0,0,0-.12.52.38.38,0,0,0,.32.18.35.35,0,0,0,.19-.06,15.58,15.58,0,0,0-5.22-28.62Zm-62.76,8.85c-2.19,3.18-4.09,5.94-8.94,6.07a15.59,15.59,0,0,0-12.67-14.92A15.59,15.59,0,0,0,45,207c4.85.13,6.75,2.89,8.94,6.07,2.48,3.62,5.25,7.64,12.77,8.85C59.14,223.09,56.37,227.11,53.89,230.73ZM98.2,236.8c-4.85-.13-6.75-2.89-8.94-6.07-2.48-3.62-5.25-7.64-12.77-8.85,7.52-1.21,10.29-5.23,12.77-8.85,2.19-3.18,4.09-5.94,8.94-6.07a15.59,15.59,0,0,0,12.67,14.92A15.59,15.59,0,0,0,98.2,236.8Z" style="fill: #a1a1a1"/>
    <path d="M116.65,300.71a15.58,15.58,0,0,0,5.22-28.62.37.37,0,0,0-.39.64,14.84,14.84,0,1,1-15.43,0,.37.37,0,0,0-.39-.64,15.48,15.48,0,0,0-7.47,13c-5.24.14-7.34,3.18-9.55,6.4-2.85,4.17-6.09,8.9-17.06,8.9s-14.22-4.73-17.08-8.9c-2.2-3.22-4.3-6.26-9.54-6.4a15.48,15.48,0,0,0-7.47-13,.37.37,0,0,0-.51.13.37.37,0,0,0,.12.51,14.84,14.84,0,1,1-15.43,0,.37.37,0,0,0-.39-.64,15.58,15.58,0,0,0,5.22,28.62,15.58,15.58,0,0,0-5.22,28.62.36.36,0,0,0,.51-.12.38.38,0,0,0-.12-.52,14.84,14.84,0,1,1,15.43,0,.38.38,0,0,0-.12.52.36.36,0,0,0,.32.18.33.33,0,0,0,.19-.06A15.46,15.46,0,0,0,45,316.38c5.24-.14,7.34-3.17,9.54-6.4,2.86-4.17,6.1-8.89,17.08-8.89s14.21,4.72,17.06,8.89c2.21,3.23,4.31,6.26,9.55,6.4a15.46,15.46,0,0,0,7.47,12.95.36.36,0,0,0,.51-.12.38.38,0,0,0-.12-.52,14.84,14.84,0,1,1,15.43,0,.37.37,0,0,0-.12.52.36.36,0,0,0,.32.18.35.35,0,0,0,.19-.06,15.58,15.58,0,0,0-5.22-28.62Zm-62.76,8.85c-2.19,3.19-4.09,5.94-8.94,6.07a15.59,15.59,0,0,0-12.68-14.92A15.58,15.58,0,0,0,45,285.79c4.85.13,6.75,2.89,8.94,6.08,2.48,3.62,5.25,7.63,12.77,8.84C59.14,301.92,56.37,305.94,53.89,309.56Zm44.31,6.07c-4.85-.13-6.75-2.88-8.94-6.07-2.48-3.62-5.25-7.64-12.77-8.85,7.52-1.21,10.29-5.22,12.77-8.84,2.19-3.19,4.09-5.95,8.94-6.08a15.58,15.58,0,0,0,12.68,14.92A15.59,15.59,0,0,0,98.2,315.63Z" style="fill: #a1a1a1"/>
    <g>
      <rect x="88.43" y="36.04" width="5.4" height="0.5" transform="translate(27.88 111.27) rotate(-71.57)" style="fill: #211e1f"/>
      <circle cx="87.19" cy="36.29" r="1.71" style="fill: #4480cf"/>
      <circle cx="99.99" cy="36.29" r="1.71" style="fill: #5ca85b"/>
      <circle cx="82.36" cy="36.29" r="1.71" style="fill: #ae076a"/>
      <circle cx="95.16" cy="36.29" r="1.71" style="fill: #bac62a"/>
    </g>
    <g>
      <rect x="52.65" y="92.17" width="5.37" height="0.5" transform="translate(-49.85 115.69) rotate(-71.57)" style="fill: #211e1f"/>
      <circle cx="51.4" cy="92.42" r="1.7" style="fill: #bac62a"/>
      <circle cx="64.16" cy="92.42" r="1.7" style="fill: #5ca85b"/>
      <circle cx="46.59" cy="92.42" r="1.7" style="fill: #ae076a"/>
      <circle cx="59.35" cy="92.42" r="1.7" style="fill: #4480cf"/>
    </g>
    <g>
      <rect x="88.43" y="92.17" width="5.4" height="0.5" transform="translate(-25.37 149.65) rotate(-71.57)" style="fill: #211e1f"/>
      <circle cx="87.19" cy="92.42" r="1.71" style="fill: #bac62a"/>
      <circle cx="99.99" cy="92.42" r="1.71" style="fill: #5ca85b"/>
      <circle cx="82.36" cy="92.42" r="1.71" style="fill: #ae076a"/>
      <circle cx="95.16" cy="92.42" r="1.71" style="fill: #4480cf"/>
    </g>
    <g>
      <rect x="52.65" y="114.73" width="5.37" height="0.5" transform="translate(-71.25 131.11) rotate(-71.57)" style="fill: #211e1f"/>
      <circle cx="51.4" cy="114.98" r="1.7" style="fill: #5ca85b"/>
      <circle cx="64.16" cy="114.98" r="1.7" style="fill: #bac62a"/>
      <circle cx="46.59" cy="114.98" r="1.7" style="fill: #ae076a"/>
      <circle cx="59.35" cy="114.98" r="1.7" style="fill: #4480cf"/>
    </g>
    <g>
      <rect x="88.43" y="114.73" width="5.4" height="0.5" transform="translate(-46.77 165.08) rotate(-71.57)" style="fill: #211e1f"/>
      <circle cx="87.19" cy="114.98" r="1.71" style="fill: #5ca85b"/>
      <circle cx="99.99" cy="114.98" r="1.71" style="fill: #bac62a"/>
      <circle cx="82.36" cy="114.98" r="1.71" style="fill: #ae076a"/>
      <circle cx="95.16" cy="114.98" r="1.71" style="fill: #4480cf"/>
    </g>
    <g>
      <rect x="57.75" y="170.86" width="5.37" height="0.5" transform="translate(-121.01 174.34) rotate(-71.57)" style="fill: #211e1f"/>
      <circle cx="51.4" cy="171.11" r="1.7" style="fill: #4480cf"/>
      <circle cx="64.16" cy="171.11" r="1.7" style="fill: #5ca85b"/>
      <circle cx="46.59" cy="171.11" r="1.7" style="fill: #ae076a"/>
      <circle cx="56.28" cy="171.11" r="1.7" style="fill: #bac62a"/>
    </g>
    <g>
      <rect x="93.54" y="170.86" width="5.4" height="0.5" transform="translate(-96.53 208.3) rotate(-71.57)" style="fill: #211e1f"/>
      <circle cx="87.19" cy="171.11" r="1.71" style="fill: #4480cf"/>
      <circle cx="99.99" cy="171.11" r="1.71" style="fill: #5ca85b"/>
      <circle cx="82.36" cy="171.11" r="1.71" style="fill: #ae076a"/>
      <circle cx="92.1" cy="171.11" r="1.71" style="fill: #bac62a"/>
    </g>
    <g>
      <rect x="57.75" y="193.56" width="5.37" height="0.5" transform="translate(-142.54 189.86) rotate(-71.57)" style="fill: #211e1f"/>
      <circle cx="51.4" cy="193.81" r="1.7" style="fill: #4480cf"/>
      <circle cx="64.16" cy="193.81" r="1.7" style="fill: #bac62a"/>
      <circle cx="46.59" cy="193.81" r="1.7" style="fill: #ae076a"/>
      <circle cx="56.28" cy="193.81" r="1.7" style="fill: #5ca85b"/>
    </g>
    <g>
      <rect x="93.54" y="193.56" width="5.4" height="0.5" transform="translate(-118.07 223.82) rotate(-71.57)" style="fill: #211e1f"/>
      <circle cx="87.19" cy="193.81" r="1.71" style="fill: #4480cf"/>
      <circle cx="99.99" cy="193.81" r="1.71" style="fill: #bac62a"/>
      <circle cx="82.36" cy="193.81" r="1.71" style="fill: #ae076a"/>
      <circle cx="92.1" cy="193.81" r="1.71" style="fill: #5ca85b"/>
    </g>
    <g>
      <rect x="57.75" y="249.69" width="5.37" height="0.5" transform="translate(-195.79 228.24) rotate(-71.57)" style="fill: #211e1f"/>
      <circle cx="51.4" cy="249.95" r="1.7" style="fill: #bac62a"/>
      <circle cx="64.16" cy="249.95" r="1.7" style="fill: #5ca85b"/>
      <circle cx="46.59" cy="249.95" r="1.7" style="fill: #ae076a"/>
      <circle cx="56.28" cy="249.95" r="1.7" style="fill: #5ca85b"/>
    </g>
    <g>
      <rect x="93.54" y="249.69" width="5.4" height="0.5" transform="translate(-171.32 262.2) rotate(-71.57)" style="fill: #211e1f"/>
      <circle cx="87.19" cy="249.95" r="1.71" style="fill: #bac62a"/>
      <circle cx="99.99" cy="249.95" r="1.71" style="fill: #4480cf"/>
      <circle cx="82.36" cy="249.95" r="1.71" style="fill: #ae076a"/>
      <circle cx="92.1" cy="249.95" r="1.71" style="fill: #5ca85b"/>
    </g>
    <g>
      <rect x="57.75" y="272.4" width="5.37" height="0.5" transform="translate(-217.33 243.76) rotate(-71.57)" style="fill: #211e1f"/>
      <circle cx="51.4" cy="272.65" r="1.7" style="fill: #bac62a"/>
      <circle cx="64.16" cy="272.65" r="1.7" style="fill: #ae076a"/>
      <circle cx="46.59" cy="272.65" r="1.7" style="fill: #4480cf"/>
      <circle cx="56.28" cy="272.65" r="1.7" style="fill: #5ca85b"/>
    </g>
    <g>
      <rect x="93.54" y="272.4" width="5.4" height="0.5" transform="translate(-192.85 277.72) rotate(-71.57)" style="fill: #211e1f"/>
      <circle cx="87.19" cy="272.65" r="1.71" style="fill: #bac62a"/>
      <circle cx="99.99" cy="272.65" r="1.71" style="fill: #ae076a"/>
      <circle cx="82.36" cy="272.65" r="1.71" style="fill: #4480cf"/>
      <circle cx="92.1" cy="272.65" r="1.71" style="fill: #5ca85b"/>
    </g>
    <g>
      <circle cx="51.4" cy="328.78" r="1.7" style="fill: #4480cf"/>
      <circle cx="61.44" cy="328.78" r="1.7" style="fill: #5ca85b"/>
      <circle cx="46.59" cy="328.78" r="1.7" style="fill: #ae076a"/>
      <circle cx="56.62" cy="328.78" r="1.7" style="fill: #bac62a"/>
    </g>
    <g>
      <circle cx="89.91" cy="328.78" r="1.71" style="fill: #4480cf"/>
      <circle cx="99.99" cy="328.78" r="1.71" style="fill: #5ca85b"/>
      <circle cx="85.08" cy="328.78" r="1.71" style="fill: #ae076a"/>
      <circle cx="95.16" cy="328.78" r="1.71" style="fill: #bac62a"/>
    </g>
    <g>
      <path d="M114.38,343a3.79,3.79,0,1,1,3.78-3.78A3.79,3.79,0,0,1,114.38,343Zm0-6.86a3.08,3.08,0,1,0,3.07,3.08A3.08,3.08,0,0,0,114.38,336.18Z" style="fill: #211e1f"/>
      <path d="M116.08,339.61h-3.41a.36.36,0,0,1,0-.71h3.41a.36.36,0,1,1,0,.71Z" style="fill: #211e1f"/>
    </g>
    <g>
      <path d="M29.38,335.47a3.79,3.79,0,1,0,3.79,3.79A3.79,3.79,0,0,0,29.38,335.47Zm0,6.86a3.08,3.08,0,1,1,3.08-3.07A3.09,3.09,0,0,1,29.38,342.33Z" style="fill: #211e1f"/>
      <path d="M31.09,338.9H29.74v-1.35a.36.36,0,0,0-.71,0v1.35H27.68a.36.36,0,1,0,0,.71H29V341a.36.36,0,0,0,.71,0v-1.35h1.35a.36.36,0,0,0,0-.71Z" style="fill: #211e1f"/>
    </g>
    <circle cx="71.57" cy="205.47" r="2.69" style="fill: #bac62a"/>
    <circle cx="71.57" cy="47.8" r="2.69" style="fill: #ae076a"/>
    <path d="M116.65,143.05a15.58,15.58,0,0,0,5.22-28.62.36.36,0,0,0-.51.12.37.37,0,0,0,.12.52,14.84,14.84,0,1,1-15.43,0,.38.38,0,0,0,.12-.52.36.36,0,0,0-.51-.12,15.46,15.46,0,0,0-7.47,12.95c-5.24.14-7.34,3.17-9.55,6.4-2.85,4.17-6.09,8.89-17.06,8.89S57.36,138,54.5,133.78c-2.2-3.23-4.3-6.26-9.54-6.4a15.46,15.46,0,0,0-7.47-12.95.36.36,0,0,0-.51.12.38.38,0,0,0,.12.52,14.84,14.84,0,1,1-15.43,0,.38.38,0,0,0,.12-.52.36.36,0,0,0-.51-.12,15.58,15.58,0,0,0,5.22,28.62,15.58,15.58,0,0,0-5.22,28.62.37.37,0,0,0,.39-.64,14.84,14.84,0,1,1,15.43,0,.37.37,0,0,0-.12.51.36.36,0,0,0,.32.18.32.32,0,0,0,.19-.05A15.49,15.49,0,0,0,45,158.72c5.24-.14,7.34-3.18,9.54-6.4,2.86-4.17,6.1-8.9,17.08-8.9s14.21,4.73,17.06,8.9c2.21,3.22,4.31,6.26,9.55,6.4a15.49,15.49,0,0,0,7.47,12.95.37.37,0,0,0,.39-.64,14.84,14.84,0,1,1,15.43,0,.36.36,0,0,0-.12.51.36.36,0,0,0,.32.18.34.34,0,0,0,.19-.05,15.58,15.58,0,0,0-5.22-28.62Zm-62.76,8.84c-2.19,3.19-4.09,6-8.94,6.08a15.58,15.58,0,0,0-12.68-14.92A15.59,15.59,0,0,0,45,128.13c4.85.13,6.75,2.88,8.94,6.07,2.48,3.62,5.25,7.64,12.77,8.85C59.14,144.26,56.37,148.27,53.89,151.89ZM98.2,158c-4.85-.13-6.75-2.89-8.94-6.08-2.48-3.62-5.25-7.63-12.77-8.84,7.52-1.21,10.29-5.23,12.77-8.85,2.19-3.19,4.09-5.94,8.94-6.07a15.59,15.59,0,0,0,12.68,14.92A15.58,15.58,0,0,0,98.2,158Z" style="fill: #a1a1a1"/>
    <g>
      <rect x="52.65" y="36.04" width="5.37" height="0.5" transform="translate(3.4 77.31) rotate(-71.57)" style="fill: #211e1f"/>
      <circle cx="51.4" cy="36.29" r="1.7" style="fill: #4480cf"/>
      <circle cx="64.16" cy="36.29" r="1.7" style="fill: #5ca85b"/>
      <circle cx="46.59" cy="36.29" r="1.7" style="fill: #ae076a"/>
      <circle cx="59.35" cy="36.29" r="1.7" style="fill: #bac62a"/>
    </g>
    <path d="M71.57,129.32a2.69,2.69,0,1,0-2.68-2.69A2.68,2.68,0,0,0,71.57,129.32Z" style="fill: #4480cf"/>
  </g>
</svg>
