<?xml version="1.0" encoding="UTF-8" standalone="no"?>
<!DOCTYPE svg PUBLIC "-//W3C//DTD SVG 1.1//EN" "http://www.w3.org/Graphics/SVG/1.1/DTD/svg11.dtd">
<svg width="100%" height="100%" viewBox="0 0 120 380" version="1.1" xmlns="http://www.w3.org/2000/svg" xmlns:xlink="http://www.w3.org/1999/xlink" xml:space="preserve" xmlns:serif="http://www.serif.com/" style="fill-rule:evenodd;clip-rule:evenodd;">
    <g id="NEURON">
        <rect x="0" y="-0" width="120" height="380" style="fill:#e6e6e6;fill-rule:nonzero;"/>
        <path d="M85,238L104,238C106.761,238 109,240.239 109,243L109,319C109,321.761 106.761,324 104,324L85,324C82.239,324 80,321.761 80,319L80,243C80,240.239 82.239,238 85,238Z" style="fill:#bcbdba;fill-rule:nonzero;"/>
        <path d="M16,238L70,238C72.761,238 75,240.213 75,242.943L75,319.057C75,321.787 72.761,324 70,324L16,324C13.239,324 11,321.787 11,319.057L11,242.943C11,240.213 13.239,238 16,238Z" style="fill:#fff;fill-rule:nonzero;"/>
        <g id="Group_3">
            <path d="M89.117,292.234C89.117,292.575 89.058,292.889 88.941,293.176C88.824,293.462 88.662,293.709 88.453,293.918C88.245,294.126 87.998,294.288 87.713,294.404C87.428,294.52 87.117,294.578 86.781,294.578L85.406,294.578C85.07,294.578 84.759,294.52 84.473,294.404C84.186,294.288 83.939,294.126 83.73,293.918C83.522,293.709 83.359,293.462 83.24,293.176C83.121,292.889 83.062,292.575 83.062,292.234L83.062,291.164C83.062,290.825 83.121,290.512 83.24,290.225C83.359,289.937 83.522,289.689 83.73,289.482C83.939,289.275 84.186,289.113 84.473,288.996C84.759,288.879 85.07,288.82 85.406,288.82L86.781,288.82C87.117,288.82 87.428,288.879 87.713,288.996C87.998,289.113 88.245,289.275 88.453,289.482C88.662,289.689 88.824,289.937 88.941,290.225C89.058,290.512 89.117,290.825 89.117,291.164L89.117,292.234ZM88.102,291.164C88.102,290.963 88.07,290.782 88.006,290.619C87.942,290.456 87.852,290.317 87.736,290.201C87.62,290.085 87.481,289.995 87.318,289.932C87.155,289.868 86.976,289.836 86.781,289.836L85.406,289.836C85.208,289.836 85.028,289.868 84.865,289.932C84.702,289.995 84.562,290.085 84.445,290.201C84.328,290.317 84.238,290.456 84.174,290.619C84.11,290.782 84.078,290.963 84.078,291.164L84.078,292.234C84.078,292.435 84.11,292.616 84.174,292.779C84.238,292.942 84.328,293.081 84.445,293.197C84.562,293.313 84.702,293.403 84.865,293.467C85.028,293.53 85.208,293.562 85.406,293.562L86.773,293.562C86.971,293.562 87.151,293.53 87.314,293.467C87.477,293.403 87.617,293.313 87.734,293.197C87.851,293.081 87.942,292.942 88.006,292.779C88.07,292.616 88.102,292.435 88.102,292.234L88.102,291.164Z" style="fill-rule:nonzero;"/>
            <path d="M95.609,293.988C95.609,294.061 95.596,294.129 95.57,294.191C95.544,294.254 95.508,294.308 95.461,294.354C95.414,294.399 95.36,294.435 95.297,294.461C95.234,294.487 95.168,294.5 95.098,294.5L92.809,294.5C92.592,294.5 92.373,294.477 92.152,294.43C91.931,294.383 91.717,294.31 91.51,294.213C91.303,294.115 91.108,293.991 90.926,293.84C90.743,293.689 90.584,293.51 90.447,293.303C90.31,293.096 90.203,292.859 90.125,292.592C90.047,292.325 90.008,292.027 90.008,291.699L90.008,288.898L91.023,288.898L91.023,291.699C91.023,291.986 91.063,292.228 91.143,292.426C91.222,292.624 91.323,292.789 91.445,292.922C91.568,293.055 91.702,293.159 91.848,293.234C91.993,293.31 92.132,293.366 92.264,293.402C92.395,293.439 92.511,293.462 92.611,293.471C92.712,293.48 92.778,293.484 92.809,293.484L94.594,293.484L94.594,288.898L95.609,288.898L95.609,293.988Z" style="fill-rule:nonzero;"/>
            <path d="M101.852,289.914L99.613,289.914L99.613,294.5L98.598,294.5L98.598,289.914L96.355,289.914L96.355,288.898L101.852,288.898L101.852,289.914Z" style="fill-rule:nonzero;"/>
            <rect x="102.219" y="291.242" width="3.664" height="0.914" style="fill-rule:nonzero;"/>
            <rect x="54.311" y="288.898" width="1.015" height="5.602" style="fill-rule:nonzero;"/>
            <path d="M62.111,294.066C62.111,294.139 62.097,294.207 62.07,294.27C62.043,294.332 62.006,294.386 61.961,294.432C61.916,294.477 61.862,294.513 61.799,294.539C61.736,294.565 61.67,294.578 61.6,294.578C61.537,294.578 61.474,294.566 61.41,294.543C61.346,294.52 61.289,294.482 61.24,294.43L57.529,290.555L57.529,294.5L56.514,294.5L56.514,289.332C56.514,289.228 56.543,289.134 56.602,289.049C56.66,288.964 56.735,288.901 56.826,288.859C56.923,288.82 57.022,288.811 57.123,288.83C57.224,288.849 57.312,288.897 57.385,288.973L61.096,292.844L61.096,288.898L62.111,288.898L62.111,294.066Z" style="fill-rule:nonzero;"/>
            <rect x="63.154" y="291.242" width="3.664" height="0.914" style="fill-rule:nonzero;"/>
            <rect x="20.311" y="288.898" width="1.015" height="5.602" style="fill-rule:nonzero;"/>
            <path d="M28.111,294.066C28.111,294.139 28.097,294.207 28.07,294.27C28.043,294.332 28.006,294.386 27.961,294.432C27.916,294.477 27.862,294.513 27.799,294.539C27.736,294.565 27.67,294.578 27.6,294.578C27.537,294.578 27.474,294.566 27.41,294.543C27.346,294.52 27.289,294.482 27.24,294.43L23.529,290.555L23.529,294.5L22.514,294.5L22.514,289.332C22.514,289.228 22.543,289.134 22.602,289.049C22.66,288.964 22.735,288.901 22.826,288.859C22.923,288.82 23.022,288.811 23.123,288.83C23.224,288.849 23.312,288.897 23.385,288.973L27.096,292.844L27.096,288.898L28.111,288.898L28.111,294.066Z" style="fill-rule:nonzero;"/>
            <rect x="29.154" y="291.242" width="3.664" height="0.914" style="fill-rule:nonzero;"/>
        </g>
        <g id="Group_2">
            <path d="M89,245.234C89,245.575 88.941,245.889 88.824,246.176C88.707,246.462 88.544,246.709 88.336,246.918C88.127,247.126 87.881,247.288 87.596,247.404C87.311,247.52 87,247.578 86.664,247.578L85.289,247.578C84.953,247.578 84.642,247.52 84.355,247.404C84.069,247.288 83.822,247.126 83.613,246.918C83.405,246.709 83.242,246.462 83.123,246.176C83.004,245.889 82.945,245.575 82.945,245.234L82.945,244.164C82.945,243.825 83.004,243.512 83.123,243.225C83.242,242.937 83.405,242.689 83.613,242.482C83.822,242.275 84.069,242.113 84.355,241.996C84.642,241.879 84.953,241.82 85.289,241.82L86.664,241.82C87,241.82 87.311,241.879 87.596,241.996C87.881,242.113 88.127,242.275 88.336,242.482C88.544,242.689 88.707,242.937 88.824,243.225C88.941,243.512 89,243.825 89,244.164L89,245.234ZM87.984,244.164C87.984,243.963 87.952,243.782 87.889,243.619C87.825,243.456 87.735,243.317 87.619,243.201C87.503,243.085 87.364,242.995 87.201,242.932C87.038,242.868 86.859,242.836 86.664,242.836L85.289,242.836C85.091,242.836 84.911,242.868 84.748,242.932C84.585,242.995 84.445,243.085 84.328,243.201C84.211,243.317 84.12,243.456 84.057,243.619C83.993,243.782 83.961,243.963 83.961,244.164L83.961,245.234C83.961,245.435 83.993,245.616 84.057,245.779C84.12,245.942 84.211,246.081 84.328,246.197C84.445,246.313 84.585,246.403 84.748,246.467C84.911,246.53 85.091,246.562 85.289,246.562L86.656,246.562C86.854,246.562 87.034,246.53 87.197,246.467C87.36,246.403 87.5,246.313 87.617,246.197C87.734,246.081 87.825,245.942 87.889,245.779C87.952,245.616 87.984,245.435 87.984,245.234L87.984,244.164Z" style="fill-rule:nonzero;"/>
            <path d="M95.492,246.988C95.492,247.061 95.479,247.129 95.453,247.191C95.427,247.254 95.391,247.308 95.344,247.354C95.297,247.399 95.242,247.435 95.18,247.461C95.117,247.487 95.051,247.5 94.98,247.5L92.691,247.5C92.475,247.5 92.256,247.477 92.035,247.43C91.814,247.383 91.6,247.31 91.393,247.213C91.186,247.115 90.991,246.991 90.809,246.84C90.626,246.689 90.467,246.51 90.33,246.303C90.193,246.096 90.086,245.859 90.008,245.592C89.93,245.325 89.891,245.027 89.891,244.699L89.891,241.898L90.906,241.898L90.906,244.699C90.906,244.986 90.946,245.228 91.025,245.426C91.105,245.624 91.206,245.789 91.328,245.922C91.451,246.055 91.585,246.159 91.73,246.234C91.876,246.31 92.015,246.366 92.146,246.402C92.278,246.439 92.394,246.462 92.494,246.471C92.595,246.48 92.66,246.484 92.691,246.484L94.477,246.484L94.477,241.898L95.492,241.898L95.492,246.988Z" style="fill-rule:nonzero;"/>
            <path d="M101.734,242.914L99.496,242.914L99.496,247.5L98.48,247.5L98.48,242.914L96.238,242.914L96.238,241.898L101.734,241.898L101.734,242.914Z" style="fill-rule:nonzero;"/>
            <path d="M105.879,245.156L104.504,245.156L104.504,246.531L103.594,246.531L103.594,245.156L102.215,245.156L102.215,244.242L103.594,244.242L103.594,242.867L104.504,242.867L104.504,244.242L105.879,244.242L105.879,245.156Z" style="fill-rule:nonzero;"/>
            <rect x="54.314" y="241.898" width="1.016" height="5.602" style="fill-rule:nonzero;"/>
            <path d="M62.115,247.066C62.115,247.139 62.101,247.207 62.074,247.27C62.047,247.332 62.01,247.386 61.965,247.432C61.919,247.477 61.865,247.513 61.803,247.539C61.74,247.565 61.674,247.578 61.604,247.578C61.541,247.578 61.478,247.566 61.414,247.543C61.35,247.52 61.293,247.482 61.244,247.43L57.533,243.555L57.533,247.5L56.518,247.5L56.518,242.332C56.518,242.228 56.547,242.134 56.605,242.049C56.664,241.964 56.739,241.901 56.83,241.859C56.927,241.82 57.026,241.811 57.127,241.83C57.228,241.849 57.316,241.897 57.389,241.973L61.1,245.844L61.1,241.898L62.115,241.898L62.115,247.066Z" style="fill-rule:nonzero;"/>
            <path d="M66.693,245.156L65.318,245.156L65.318,246.531L64.408,246.531L64.408,245.156L63.029,245.156L63.029,244.242L64.408,244.242L64.408,242.867L65.318,242.867L65.318,244.242L66.693,244.242L66.693,245.156Z" style="fill-rule:nonzero;"/>
            <rect x="20.314" y="241.898" width="1.016" height="5.602" style="fill-rule:nonzero;"/>
            <path d="M28.115,247.066C28.115,247.139 28.101,247.207 28.074,247.27C28.047,247.332 28.01,247.386 27.965,247.432C27.919,247.477 27.865,247.513 27.803,247.539C27.74,247.565 27.674,247.578 27.604,247.578C27.541,247.578 27.478,247.566 27.414,247.543C27.35,247.52 27.293,247.482 27.244,247.43L23.533,243.555L23.533,247.5L22.518,247.5L22.518,242.332C22.518,242.228 22.547,242.134 22.605,242.049C22.664,241.964 22.739,241.901 22.83,241.859C22.927,241.82 23.026,241.811 23.127,241.83C23.228,241.849 23.316,241.897 23.389,241.973L27.1,245.844L27.1,241.898L28.115,241.898L28.115,247.066Z" style="fill-rule:nonzero;"/>
            <path d="M32.693,245.156L31.318,245.156L31.318,246.531L30.408,246.531L30.408,245.156L29.029,245.156L29.029,244.242L30.408,244.242L30.408,242.867L31.318,242.867L31.318,244.242L32.693,244.242L32.693,245.156Z" style="fill-rule:nonzero;"/>
        </g>
        <g id="Group_1">
            <path d="M60.596,157.5L60.595,201.059" style="fill:none;fill-rule:nonzero;stroke:#007ba4;stroke-width:4px;"/>
            <path d="M26.7,162.5C45.367,162.5 60.5,180.122 60.5,201.859" style="fill-opacity:0;fill-rule:nonzero;stroke:#007ba4;stroke-width:4px;"/>
            <path d="M60.5,201.859C60.5,180.221 76.08,162.68 95.3,162.68" style="fill-opacity:0;fill-rule:nonzero;stroke:#007ba4;stroke-width:4px;"/>
            <rect x="90.354" y="136.398" width="1.015" height="5.602" style="fill-rule:nonzero;"/>
            <path d="M98.154,141.566C98.154,141.639 98.14,141.707 98.113,141.77C98.086,141.832 98.049,141.886 98.004,141.932C97.959,141.977 97.905,142.013 97.842,142.039C97.779,142.065 97.713,142.078 97.643,142.078C97.58,142.078 97.517,142.066 97.453,142.043C97.389,142.02 97.332,141.982 97.283,141.93L93.572,138.055L93.572,142L92.557,142L92.557,136.832C92.557,136.728 92.586,136.634 92.645,136.549C92.703,136.464 92.778,136.401 92.869,136.359C92.966,136.32 93.065,136.311 93.166,136.33C93.267,136.349 93.355,136.397 93.428,136.473L97.139,140.344L97.139,136.398L98.154,136.398L98.154,141.566Z" style="fill-rule:nonzero;"/>
            <rect x="56.354" y="136.398" width="1.015" height="5.602" style="fill-rule:nonzero;"/>
            <path d="M64.154,141.566C64.154,141.639 64.14,141.707 64.113,141.77C64.086,141.832 64.049,141.886 64.004,141.932C63.959,141.977 63.905,142.013 63.842,142.039C63.779,142.065 63.713,142.078 63.643,142.078C63.58,142.078 63.517,142.066 63.453,142.043C63.389,142.02 63.332,141.982 63.283,141.93L59.572,138.055L59.572,142L58.557,142L58.557,136.832C58.557,136.728 58.586,136.634 58.645,136.549C58.703,136.464 58.778,136.401 58.869,136.359C58.966,136.32 59.065,136.311 59.166,136.33C59.267,136.349 59.355,136.397 59.428,136.473L63.139,140.344L63.139,136.398L64.154,136.398L64.154,141.566Z" style="fill-rule:nonzero;"/>
            <rect x="22.354" y="136.398" width="1.015" height="5.602" style="fill-rule:nonzero;"/>
            <path d="M30.154,141.566C30.154,141.639 30.14,141.707 30.113,141.77C30.086,141.832 30.049,141.886 30.004,141.932C29.959,141.977 29.905,142.013 29.842,142.039C29.779,142.065 29.713,142.078 29.643,142.078C29.58,142.078 29.517,142.066 29.453,142.043C29.389,142.02 29.332,141.982 29.283,141.93L25.572,138.055L25.572,142L24.557,142L24.557,136.832C24.557,136.728 24.586,136.634 24.645,136.549C24.703,136.464 24.778,136.401 24.869,136.359C24.966,136.32 25.065,136.311 25.166,136.33C25.267,136.349 25.355,136.397 25.428,136.473L29.139,140.344L29.139,136.398L30.154,136.398L30.154,141.566Z" style="fill-rule:nonzero;"/>
            <path d="M57.039,220.734C57.039,221.075 56.98,221.389 56.863,221.676C56.746,221.962 56.584,222.209 56.375,222.418C56.166,222.626 55.92,222.788 55.635,222.904C55.35,223.02 55.039,223.078 54.703,223.078L53.328,223.078C52.992,223.078 52.681,223.02 52.395,222.904C52.108,222.788 51.861,222.626 51.652,222.418C51.444,222.209 51.281,221.962 51.162,221.676C51.043,221.389 50.984,221.075 50.984,220.734L50.984,219.664C50.984,219.325 51.043,219.012 51.162,218.725C51.281,218.437 51.444,218.189 51.652,217.982C51.861,217.775 52.108,217.613 52.395,217.496C52.681,217.379 52.992,217.32 53.328,217.32L54.703,217.32C55.039,217.32 55.35,217.379 55.635,217.496C55.92,217.613 56.166,217.775 56.375,217.982C56.584,218.189 56.746,218.437 56.863,218.725C56.98,219.012 57.039,219.325 57.039,219.664L57.039,220.734ZM56.023,219.664C56.023,219.463 55.991,219.282 55.928,219.119C55.864,218.956 55.774,218.817 55.658,218.701C55.542,218.585 55.403,218.495 55.24,218.432C55.077,218.368 54.898,218.336 54.703,218.336L53.328,218.336C53.13,218.336 52.95,218.368 52.787,218.432C52.624,218.495 52.484,218.585 52.367,218.701C52.25,218.817 52.159,218.956 52.096,219.119C52.032,219.282 52,219.463 52,219.664L52,220.734C52,220.935 52.032,221.116 52.096,221.279C52.159,221.442 52.25,221.581 52.367,221.697C52.484,221.813 52.624,221.903 52.787,221.967C52.95,222.03 53.13,222.062 53.328,222.062L54.695,222.062C54.893,222.062 55.073,222.03 55.236,221.967C55.399,221.903 55.539,221.813 55.656,221.697C55.773,221.581 55.864,221.442 55.928,221.279C55.991,221.116 56.023,220.935 56.023,220.734L56.023,219.664Z" style="fill-rule:nonzero;"/>
            <path d="M63.531,222.488C63.531,222.561 63.518,222.629 63.492,222.691C63.466,222.754 63.43,222.808 63.383,222.854C63.336,222.899 63.281,222.935 63.219,222.961C63.156,222.987 63.09,223 63.02,223L60.73,223C60.514,223 60.295,222.977 60.074,222.93C59.853,222.883 59.639,222.81 59.432,222.713C59.225,222.615 59.03,222.491 58.848,222.34C58.665,222.189 58.506,222.01 58.369,221.803C58.232,221.596 58.125,221.359 58.047,221.092C57.969,220.825 57.93,220.527 57.93,220.199L57.93,217.398L58.945,217.398L58.945,220.199C58.945,220.486 58.985,220.728 59.064,220.926C59.144,221.124 59.245,221.289 59.367,221.422C59.49,221.555 59.624,221.659 59.77,221.734C59.915,221.81 60.054,221.866 60.186,221.902C60.317,221.939 60.433,221.962 60.533,221.971C60.634,221.98 60.699,221.984 60.73,221.984L62.516,221.984L62.516,217.398L63.531,217.398L63.531,222.488Z" style="fill-rule:nonzero;"/>
            <path d="M69.773,218.414L67.535,218.414L67.535,223L66.52,223L66.52,218.414L64.277,218.414L64.277,217.398L69.773,217.398L69.773,218.414Z" style="fill-rule:nonzero;"/>
        </g>
        <g transform="matrix(1,0,0,1,5.889,39)">
            <g transform="matrix(8,0,0,8,0,0)">
                <path d="M0.761,-0L0.634,-0L0.634,-0.172L0.188,-0.172L0.188,-0L0.061,-0L0.061,-0.35C0.061,-0.401 0.069,-0.448 0.087,-0.491C0.104,-0.534 0.129,-0.571 0.16,-0.602C0.191,-0.633 0.228,-0.657 0.271,-0.674C0.314,-0.692 0.36,-0.7 0.411,-0.7L0.697,-0.7C0.706,-0.7 0.714,-0.699 0.722,-0.695C0.729,-0.692 0.736,-0.688 0.742,-0.682C0.748,-0.676 0.753,-0.669 0.756,-0.661C0.759,-0.653 0.761,-0.645 0.761,-0.636L0.761,-0ZM0.188,-0.299L0.634,-0.299L0.634,-0.573L0.411,-0.573C0.407,-0.573 0.399,-0.573 0.386,-0.572C0.373,-0.57 0.359,-0.568 0.343,-0.563C0.326,-0.558 0.309,-0.551 0.291,-0.542C0.272,-0.533 0.256,-0.52 0.24,-0.503C0.225,-0.486 0.212,-0.466 0.202,-0.441C0.192,-0.416 0.188,-0.386 0.188,-0.35L0.188,-0.299Z" style="fill-rule:nonzero;"/>
            </g>
            <g transform="matrix(8,0,0,8,6.67578,0)">
                <path d="M0.645,-0L0.518,-0L0.518,-0.293C0.518,-0.31 0.515,-0.324 0.509,-0.338C0.503,-0.351 0.496,-0.362 0.486,-0.372C0.476,-0.381 0.465,-0.388 0.451,-0.393C0.438,-0.398 0.424,-0.401 0.409,-0.401L0.187,-0.401L0.187,-0L0.06,-0L0.06,-0.465C0.06,-0.474 0.061,-0.482 0.064,-0.49C0.068,-0.497 0.072,-0.504 0.078,-0.51C0.084,-0.515 0.091,-0.52 0.099,-0.523C0.106,-0.526 0.115,-0.528 0.124,-0.528L0.41,-0.528C0.426,-0.528 0.442,-0.526 0.46,-0.522C0.478,-0.519 0.496,-0.513 0.513,-0.505C0.53,-0.497 0.547,-0.487 0.563,-0.475C0.579,-0.463 0.593,-0.448 0.605,-0.43C0.617,-0.413 0.627,-0.393 0.634,-0.37C0.641,-0.347 0.645,-0.322 0.645,-0.293L0.645,-0Z" style="fill-rule:nonzero;"/>
            </g>
            <g transform="matrix(8,0,0,8,12.2461,0)">
                <path d="M0.604,-0.175C0.604,-0.157 0.601,-0.138 0.595,-0.118C0.589,-0.098 0.579,-0.079 0.565,-0.061C0.551,-0.044 0.533,-0.029 0.511,-0.018C0.489,-0.006 0.462,-0 0.43,-0L0.201,-0C0.183,-0 0.164,-0.003 0.144,-0.009C0.123,-0.015 0.105,-0.025 0.087,-0.039C0.07,-0.053 0.055,-0.071 0.043,-0.094C0.032,-0.116 0.026,-0.143 0.026,-0.175C0.026,-0.192 0.029,-0.211 0.035,-0.232C0.041,-0.252 0.051,-0.271 0.065,-0.289C0.079,-0.306 0.097,-0.321 0.119,-0.333C0.142,-0.344 0.169,-0.35 0.201,-0.35L0.43,-0.35L0.43,-0.229L0.201,-0.229C0.183,-0.229 0.17,-0.224 0.161,-0.213C0.151,-0.203 0.146,-0.189 0.146,-0.174C0.146,-0.157 0.152,-0.144 0.163,-0.135C0.174,-0.126 0.187,-0.121 0.202,-0.121L0.43,-0.121C0.447,-0.121 0.46,-0.126 0.47,-0.137C0.479,-0.147 0.484,-0.16 0.484,-0.176L0.484,-0.353C0.484,-0.37 0.479,-0.383 0.469,-0.393C0.458,-0.402 0.445,-0.407 0.43,-0.407L0.151,-0.407L0.151,-0.528L0.43,-0.528C0.447,-0.528 0.466,-0.525 0.487,-0.519C0.507,-0.512 0.526,-0.502 0.543,-0.489C0.561,-0.475 0.575,-0.457 0.587,-0.434C0.599,-0.412 0.604,-0.385 0.604,-0.353L0.604,-0.175Z" style="fill-rule:nonzero;"/>
            </g>
            <g transform="matrix(8,0,0,8,17.4727,0)">
                <path d="M0.292,-0L0.235,-0C0.217,-0 0.197,-0.003 0.177,-0.009C0.156,-0.015 0.137,-0.026 0.119,-0.04C0.101,-0.054 0.086,-0.072 0.074,-0.095C0.063,-0.118 0.057,-0.145 0.057,-0.178L0.057,-0.751L0.184,-0.751L0.184,-0.178C0.184,-0.163 0.188,-0.15 0.198,-0.141C0.208,-0.132 0.22,-0.127 0.235,-0.127L0.292,-0.127L0.292,-0Z" style="fill-rule:nonzero;"/>
            </g>
            <g transform="matrix(8,0,0,8,19.9805,0)">
                <path d="M0.634,-0.178C0.634,-0.156 0.631,-0.137 0.625,-0.119C0.62,-0.102 0.613,-0.087 0.604,-0.073C0.594,-0.06 0.584,-0.049 0.572,-0.04C0.56,-0.031 0.547,-0.023 0.534,-0.017C0.521,-0.011 0.507,-0.007 0.494,-0.004C0.48,-0.001 0.468,-0 0.456,-0L0.227,-0C0.209,-0 0.19,-0.003 0.169,-0.009C0.148,-0.015 0.129,-0.026 0.111,-0.04C0.093,-0.054 0.079,-0.072 0.067,-0.095C0.055,-0.118 0.049,-0.145 0.049,-0.178L0.049,-0.35C0.049,-0.383 0.055,-0.41 0.067,-0.433C0.079,-0.455 0.093,-0.474 0.111,-0.488C0.129,-0.502 0.148,-0.512 0.169,-0.519C0.19,-0.525 0.209,-0.528 0.227,-0.528L0.456,-0.528C0.488,-0.528 0.516,-0.522 0.539,-0.51C0.561,-0.499 0.58,-0.484 0.594,-0.466C0.608,-0.448 0.618,-0.429 0.624,-0.408C0.631,-0.387 0.634,-0.368 0.634,-0.35L0.634,-0.178ZM0.507,-0.349C0.507,-0.367 0.502,-0.38 0.494,-0.388C0.485,-0.397 0.472,-0.401 0.456,-0.401L0.228,-0.401C0.211,-0.401 0.198,-0.397 0.189,-0.388C0.18,-0.379 0.176,-0.367 0.176,-0.35L0.176,-0.178C0.176,-0.162 0.18,-0.149 0.189,-0.14C0.198,-0.131 0.211,-0.127 0.228,-0.127L0.456,-0.127C0.473,-0.127 0.486,-0.131 0.494,-0.14C0.503,-0.149 0.507,-0.162 0.507,-0.178L0.507,-0.349Z" style="fill-rule:nonzero;"/>
            </g>
            <g transform="matrix(8,0,0,8,25.4375,0)">
                <path d="M0.634,0.051C0.634,0.073 0.631,0.092 0.625,0.11C0.62,0.127 0.613,0.142 0.604,0.156C0.594,0.169 0.584,0.18 0.572,0.189C0.56,0.198 0.547,0.206 0.534,0.212C0.521,0.218 0.507,0.222 0.494,0.225C0.48,0.228 0.468,0.229 0.456,0.229L0.227,0.229L0.227,0.102L0.456,0.102C0.473,0.102 0.486,0.098 0.494,0.089C0.503,0.08 0.507,0.067 0.507,0.051L0.507,-0.35C0.507,-0.367 0.503,-0.379 0.494,-0.388C0.486,-0.397 0.473,-0.401 0.456,-0.401L0.227,-0.401C0.211,-0.401 0.199,-0.396 0.189,-0.386C0.18,-0.377 0.176,-0.365 0.176,-0.35L0.176,-0.178C0.176,-0.162 0.18,-0.149 0.189,-0.14C0.198,-0.131 0.211,-0.127 0.228,-0.127L0.456,-0.127L0.456,-0L0.227,-0C0.215,-0 0.202,-0.001 0.188,-0.004C0.175,-0.007 0.162,-0.011 0.149,-0.017C0.135,-0.023 0.123,-0.031 0.111,-0.04C0.099,-0.049 0.088,-0.06 0.079,-0.073C0.07,-0.087 0.063,-0.102 0.057,-0.119C0.052,-0.137 0.049,-0.156 0.049,-0.178L0.049,-0.35C0.049,-0.362 0.05,-0.375 0.053,-0.388C0.056,-0.402 0.06,-0.415 0.066,-0.428C0.072,-0.441 0.079,-0.454 0.089,-0.466C0.098,-0.478 0.109,-0.488 0.122,-0.498C0.135,-0.507 0.151,-0.514 0.168,-0.52C0.185,-0.525 0.205,-0.528 0.227,-0.528L0.456,-0.528C0.468,-0.528 0.48,-0.526 0.494,-0.524C0.507,-0.521 0.521,-0.517 0.534,-0.511C0.547,-0.505 0.56,-0.497 0.572,-0.488C0.584,-0.479 0.594,-0.468 0.604,-0.454C0.613,-0.441 0.62,-0.426 0.625,-0.409C0.631,-0.391 0.634,-0.372 0.634,-0.35L0.634,0.051Z" style="fill-rule:nonzero;"/>
            </g>
            <g transform="matrix(8,0,0,8,30.9609,0)">
                <path d="M0.637,-0.064C0.637,-0.055 0.635,-0.046 0.632,-0.039C0.629,-0.031 0.624,-0.024 0.618,-0.018C0.613,-0.013 0.606,-0.008 0.598,-0.005C0.591,-0.002 0.583,-0 0.574,-0L0.287,-0C0.271,-0 0.254,-0.002 0.237,-0.005C0.219,-0.009 0.201,-0.015 0.184,-0.023C0.167,-0.031 0.15,-0.041 0.134,-0.053C0.118,-0.065 0.104,-0.08 0.092,-0.097C0.08,-0.115 0.07,-0.135 0.063,-0.158C0.055,-0.181 0.052,-0.206 0.052,-0.235L0.052,-0.528L0.179,-0.528L0.179,-0.235C0.179,-0.218 0.182,-0.203 0.187,-0.19C0.193,-0.177 0.201,-0.166 0.21,-0.156C0.22,-0.147 0.232,-0.14 0.245,-0.135C0.258,-0.129 0.272,-0.127 0.288,-0.127L0.51,-0.127L0.51,-0.528L0.637,-0.528L0.637,-0.064Z" style="fill-rule:nonzero;"/>
            </g>
            <g transform="matrix(8,0,0,8,36.5312,0)">
                <path d="M0.627,-0.353C0.627,-0.335 0.624,-0.316 0.618,-0.296C0.612,-0.276 0.602,-0.257 0.588,-0.24C0.574,-0.222 0.556,-0.208 0.534,-0.196C0.512,-0.184 0.485,-0.178 0.453,-0.178L0.224,-0.178L0.224,-0.299L0.453,-0.299C0.47,-0.299 0.483,-0.304 0.493,-0.315C0.502,-0.325 0.507,-0.338 0.507,-0.354C0.507,-0.371 0.502,-0.384 0.491,-0.393C0.48,-0.403 0.468,-0.407 0.453,-0.407L0.224,-0.407C0.206,-0.407 0.193,-0.402 0.184,-0.391C0.174,-0.381 0.169,-0.368 0.169,-0.352L0.169,-0.175C0.169,-0.158 0.175,-0.145 0.185,-0.135C0.196,-0.126 0.209,-0.121 0.225,-0.121L0.453,-0.121L0.453,-0L0.224,-0C0.206,-0 0.187,-0.003 0.167,-0.009C0.146,-0.015 0.128,-0.025 0.11,-0.039C0.093,-0.053 0.078,-0.071 0.066,-0.094C0.055,-0.116 0.049,-0.143 0.049,-0.175L0.049,-0.353C0.049,-0.371 0.052,-0.39 0.058,-0.41C0.064,-0.43 0.074,-0.449 0.088,-0.467C0.102,-0.484 0.12,-0.499 0.142,-0.51C0.165,-0.522 0.192,-0.528 0.224,-0.528L0.453,-0.528C0.47,-0.528 0.489,-0.525 0.51,-0.519C0.53,-0.512 0.549,-0.502 0.566,-0.489C0.584,-0.475 0.598,-0.457 0.61,-0.434C0.622,-0.412 0.627,-0.385 0.627,-0.353Z" style="fill-rule:nonzero;"/>
            </g>
            <g transform="matrix(8,0,0,8,44.3594,0)">
                <path d="M0.773,-0.054C0.773,-0.045 0.772,-0.037 0.768,-0.029C0.765,-0.021 0.76,-0.014 0.755,-0.009C0.749,-0.003 0.742,0.002 0.734,0.005C0.727,0.008 0.718,0.01 0.709,0.01C0.702,0.01 0.694,0.008 0.686,0.005C0.678,0.002 0.671,-0.002 0.665,-0.009L0.201,-0.493L0.201,-0L0.074,-0L0.074,-0.646C0.074,-0.659 0.077,-0.671 0.085,-0.681C0.092,-0.692 0.101,-0.7 0.113,-0.705C0.125,-0.71 0.137,-0.711 0.15,-0.709C0.163,-0.706 0.174,-0.7 0.183,-0.691L0.646,-0.207L0.646,-0.7L0.773,-0.7L0.773,-0.054Z" style="fill-rule:nonzero;"/>
            </g>
            <g transform="matrix(8,0,0,8,51.1094,0)">
                <path d="M0.627,-0.353C0.627,-0.335 0.624,-0.316 0.618,-0.296C0.612,-0.276 0.602,-0.257 0.588,-0.24C0.574,-0.222 0.556,-0.208 0.534,-0.196C0.512,-0.184 0.485,-0.178 0.453,-0.178L0.224,-0.178L0.224,-0.299L0.453,-0.299C0.47,-0.299 0.483,-0.304 0.493,-0.315C0.502,-0.325 0.507,-0.338 0.507,-0.354C0.507,-0.371 0.502,-0.384 0.491,-0.393C0.48,-0.403 0.468,-0.407 0.453,-0.407L0.224,-0.407C0.206,-0.407 0.193,-0.402 0.184,-0.391C0.174,-0.381 0.169,-0.368 0.169,-0.352L0.169,-0.175C0.169,-0.158 0.175,-0.145 0.185,-0.135C0.196,-0.126 0.209,-0.121 0.225,-0.121L0.453,-0.121L0.453,-0L0.224,-0C0.206,-0 0.187,-0.003 0.167,-0.009C0.146,-0.015 0.128,-0.025 0.11,-0.039C0.093,-0.053 0.078,-0.071 0.066,-0.094C0.055,-0.116 0.049,-0.143 0.049,-0.175L0.049,-0.353C0.049,-0.371 0.052,-0.39 0.058,-0.41C0.064,-0.43 0.074,-0.449 0.088,-0.467C0.102,-0.484 0.12,-0.499 0.142,-0.51C0.165,-0.522 0.192,-0.528 0.224,-0.528L0.453,-0.528C0.47,-0.528 0.489,-0.525 0.51,-0.519C0.53,-0.512 0.549,-0.502 0.566,-0.489C0.584,-0.475 0.598,-0.457 0.61,-0.434C0.622,-0.412 0.627,-0.385 0.627,-0.353Z" style="fill-rule:nonzero;"/>
            </g>
            <g transform="matrix(8,0,0,8,56.3359,0)">
                <path d="M0.637,-0.064C0.637,-0.055 0.635,-0.046 0.632,-0.039C0.629,-0.031 0.624,-0.024 0.618,-0.018C0.613,-0.013 0.606,-0.008 0.598,-0.005C0.591,-0.002 0.583,-0 0.574,-0L0.287,-0C0.271,-0 0.254,-0.002 0.237,-0.005C0.219,-0.009 0.201,-0.015 0.184,-0.023C0.167,-0.031 0.15,-0.041 0.134,-0.053C0.118,-0.065 0.104,-0.08 0.092,-0.097C0.08,-0.115 0.07,-0.135 0.063,-0.158C0.055,-0.181 0.052,-0.206 0.052,-0.235L0.052,-0.528L0.179,-0.528L0.179,-0.235C0.179,-0.218 0.182,-0.203 0.187,-0.19C0.193,-0.177 0.201,-0.166 0.21,-0.156C0.22,-0.147 0.232,-0.14 0.245,-0.135C0.258,-0.129 0.272,-0.127 0.288,-0.127L0.51,-0.127L0.51,-0.528L0.637,-0.528L0.637,-0.064Z" style="fill-rule:nonzero;"/>
            </g>
            <g transform="matrix(8,0,0,8,61.9062,0)">
                <path d="M0.521,-0.401L0.236,-0.401C0.219,-0.401 0.206,-0.397 0.197,-0.388C0.188,-0.379 0.184,-0.367 0.184,-0.35L0.184,-0L0.057,-0L0.057,-0.35C0.057,-0.372 0.059,-0.391 0.065,-0.409C0.07,-0.426 0.078,-0.441 0.087,-0.454C0.096,-0.468 0.107,-0.479 0.119,-0.488C0.131,-0.497 0.144,-0.505 0.157,-0.511C0.17,-0.517 0.184,-0.521 0.197,-0.524C0.211,-0.526 0.223,-0.528 0.235,-0.528L0.521,-0.528L0.521,-0.401Z" style="fill-rule:nonzero;"/>
            </g>
            <g transform="matrix(8,0,0,8,66.2539,0)">
                <path d="M0.634,-0.178C0.634,-0.156 0.631,-0.137 0.625,-0.119C0.62,-0.102 0.613,-0.087 0.604,-0.073C0.594,-0.06 0.584,-0.049 0.572,-0.04C0.56,-0.031 0.547,-0.023 0.534,-0.017C0.521,-0.011 0.507,-0.007 0.494,-0.004C0.48,-0.001 0.468,-0 0.456,-0L0.227,-0C0.209,-0 0.19,-0.003 0.169,-0.009C0.148,-0.015 0.129,-0.026 0.111,-0.04C0.093,-0.054 0.079,-0.072 0.067,-0.095C0.055,-0.118 0.049,-0.145 0.049,-0.178L0.049,-0.35C0.049,-0.383 0.055,-0.41 0.067,-0.433C0.079,-0.455 0.093,-0.474 0.111,-0.488C0.129,-0.502 0.148,-0.512 0.169,-0.519C0.19,-0.525 0.209,-0.528 0.227,-0.528L0.456,-0.528C0.488,-0.528 0.516,-0.522 0.539,-0.51C0.561,-0.499 0.58,-0.484 0.594,-0.466C0.608,-0.448 0.618,-0.429 0.624,-0.408C0.631,-0.387 0.634,-0.368 0.634,-0.35L0.634,-0.178ZM0.507,-0.349C0.507,-0.367 0.502,-0.38 0.494,-0.388C0.485,-0.397 0.472,-0.401 0.456,-0.401L0.228,-0.401C0.211,-0.401 0.198,-0.397 0.189,-0.388C0.18,-0.379 0.176,-0.367 0.176,-0.35L0.176,-0.178C0.176,-0.162 0.18,-0.149 0.189,-0.14C0.198,-0.131 0.211,-0.127 0.228,-0.127L0.456,-0.127C0.473,-0.127 0.486,-0.131 0.494,-0.14C0.503,-0.149 0.507,-0.162 0.507,-0.178L0.507,-0.349Z" style="fill-rule:nonzero;"/>
            </g>
            <g transform="matrix(8,0,0,8,71.7109,0)">
                <path d="M0.645,-0L0.518,-0L0.518,-0.293C0.518,-0.31 0.515,-0.324 0.509,-0.338C0.503,-0.351 0.496,-0.362 0.486,-0.372C0.476,-0.381 0.465,-0.388 0.451,-0.393C0.438,-0.398 0.424,-0.401 0.409,-0.401L0.187,-0.401L0.187,-0L0.06,-0L0.06,-0.465C0.06,-0.474 0.061,-0.482 0.064,-0.49C0.068,-0.497 0.072,-0.504 0.078,-0.51C0.084,-0.515 0.091,-0.52 0.099,-0.523C0.106,-0.526 0.115,-0.528 0.124,-0.528L0.41,-0.528C0.426,-0.528 0.442,-0.526 0.46,-0.522C0.478,-0.519 0.496,-0.513 0.513,-0.505C0.53,-0.497 0.547,-0.487 0.563,-0.475C0.579,-0.463 0.593,-0.448 0.605,-0.43C0.617,-0.413 0.627,-0.393 0.634,-0.37C0.641,-0.347 0.645,-0.322 0.645,-0.293L0.645,-0Z" style="fill-rule:nonzero;"/>
            </g>
            <g transform="matrix(8,0,0,8,79.8828,0)">
                <path d="M0.701,-0L0.243,-0C0.231,-0 0.218,-0.001 0.205,-0.004C0.191,-0.007 0.178,-0.011 0.165,-0.017C0.152,-0.023 0.139,-0.031 0.127,-0.04C0.115,-0.049 0.104,-0.06 0.095,-0.073C0.086,-0.087 0.078,-0.102 0.073,-0.119C0.067,-0.137 0.064,-0.156 0.064,-0.178L0.064,-0.522C0.064,-0.534 0.066,-0.546 0.069,-0.56C0.071,-0.573 0.076,-0.587 0.082,-0.6C0.087,-0.613 0.095,-0.626 0.104,-0.638C0.114,-0.65 0.125,-0.66 0.138,-0.67C0.152,-0.679 0.167,-0.686 0.184,-0.692C0.201,-0.697 0.221,-0.7 0.243,-0.7L0.701,-0.7L0.701,-0.573L0.243,-0.573C0.226,-0.573 0.213,-0.569 0.205,-0.56C0.196,-0.551 0.191,-0.538 0.191,-0.521L0.191,-0.178C0.191,-0.162 0.196,-0.149 0.205,-0.14C0.214,-0.131 0.226,-0.127 0.243,-0.127L0.701,-0.127L0.701,-0Z" style="fill-rule:nonzero;"/>
            </g>
            <g transform="matrix(8,0,0,8,85.8594,0)">
                <path d="M0.188,-0.636L0.062,-0.636L0.062,-0.751L0.188,-0.751L0.188,-0.636ZM0.188,-0L0.062,-0L0.062,-0.528L0.188,-0.528L0.188,-0Z" style="fill-rule:nonzero;"/>
            </g>
            <g transform="matrix(8,0,0,8,87.8633,0)">
                <path d="M0.521,-0.401L0.236,-0.401C0.219,-0.401 0.206,-0.397 0.197,-0.388C0.188,-0.379 0.184,-0.367 0.184,-0.35L0.184,-0L0.057,-0L0.057,-0.35C0.057,-0.372 0.059,-0.391 0.065,-0.409C0.07,-0.426 0.078,-0.441 0.087,-0.454C0.096,-0.468 0.107,-0.479 0.119,-0.488C0.131,-0.497 0.144,-0.505 0.157,-0.511C0.17,-0.517 0.184,-0.521 0.197,-0.524C0.211,-0.526 0.223,-0.528 0.235,-0.528L0.521,-0.528L0.521,-0.401Z" style="fill-rule:nonzero;"/>
            </g>
            <g transform="matrix(8,0,0,8,92.2109,0)">
                <path d="M0.571,-0L0.227,-0C0.209,-0 0.19,-0.003 0.169,-0.009C0.148,-0.015 0.129,-0.026 0.111,-0.04C0.093,-0.054 0.079,-0.072 0.067,-0.095C0.055,-0.118 0.049,-0.145 0.049,-0.178L0.049,-0.35C0.049,-0.362 0.05,-0.375 0.053,-0.388C0.056,-0.402 0.06,-0.415 0.066,-0.428C0.072,-0.441 0.079,-0.454 0.089,-0.466C0.098,-0.478 0.109,-0.488 0.122,-0.498C0.135,-0.507 0.151,-0.514 0.168,-0.52C0.185,-0.525 0.205,-0.528 0.227,-0.528L0.571,-0.528L0.571,-0.401L0.227,-0.401C0.21,-0.401 0.197,-0.397 0.189,-0.388C0.18,-0.38 0.176,-0.367 0.176,-0.349L0.176,-0.178C0.176,-0.162 0.18,-0.149 0.189,-0.14C0.198,-0.131 0.211,-0.127 0.228,-0.127L0.571,-0.127L0.571,-0Z" style="fill-rule:nonzero;"/>
            </g>
            <g transform="matrix(8,0,0,8,97.1406,0)">
                <path d="M0.637,-0.064C0.637,-0.055 0.635,-0.046 0.632,-0.039C0.629,-0.031 0.624,-0.024 0.618,-0.018C0.613,-0.013 0.606,-0.008 0.598,-0.005C0.591,-0.002 0.583,-0 0.574,-0L0.287,-0C0.271,-0 0.254,-0.002 0.237,-0.005C0.219,-0.009 0.201,-0.015 0.184,-0.023C0.167,-0.031 0.15,-0.041 0.134,-0.053C0.118,-0.065 0.104,-0.08 0.092,-0.097C0.08,-0.115 0.07,-0.135 0.063,-0.158C0.055,-0.181 0.052,-0.206 0.052,-0.235L0.052,-0.528L0.179,-0.528L0.179,-0.235C0.179,-0.218 0.182,-0.203 0.187,-0.19C0.193,-0.177 0.201,-0.166 0.21,-0.156C0.22,-0.147 0.232,-0.14 0.245,-0.135C0.258,-0.129 0.272,-0.127 0.288,-0.127L0.51,-0.127L0.51,-0.528L0.637,-0.528L0.637,-0.064Z" style="fill-rule:nonzero;"/>
            </g>
            <g transform="matrix(8,0,0,8,102.711,0)">
                <path d="M0.188,-0.636L0.062,-0.636L0.062,-0.751L0.188,-0.751L0.188,-0.636ZM0.188,-0L0.062,-0L0.062,-0.528L0.188,-0.528L0.188,-0Z" style="fill-rule:nonzero;"/>
            </g>
            <g transform="matrix(8,0,0,8,104.715,0)">
                <path d="M0.54,-0.401L0.318,-0.401L0.318,-0L0.189,-0L0.189,-0.401L0.024,-0.401L0.024,-0.528L0.189,-0.528L0.189,-0.7L0.318,-0.7L0.318,-0.528L0.54,-0.528L0.54,-0.401Z" style="fill-rule:nonzero;"/>
            </g>
        </g>
        <path d="M17.854,26.711C17.854,27.052 17.795,27.366 17.676,27.652C17.557,27.939 17.394,28.186 17.186,28.393C16.977,28.6 16.73,28.762 16.443,28.879C16.157,28.996 15.846,29.055 15.51,29.055L12.768,29.055C12.695,29.055 12.627,29.042 12.564,29.016C12.502,28.99 12.448,28.954 12.402,28.908C12.357,28.863 12.321,28.809 12.295,28.746C12.269,28.683 12.256,28.616 12.256,28.543L12.256,23.965C12.256,23.894 12.269,23.828 12.295,23.766C12.321,23.703 12.357,23.649 12.402,23.602C12.448,23.555 12.502,23.518 12.564,23.492C12.627,23.466 12.695,23.453 12.768,23.453L15.51,23.453C15.846,23.453 16.157,23.512 16.443,23.629C16.73,23.746 16.977,23.908 17.186,24.115C17.394,24.322 17.557,24.57 17.676,24.857C17.795,25.145 17.854,25.458 17.854,25.797L17.854,26.711ZM16.838,25.797C16.838,25.599 16.806,25.418 16.742,25.254C16.678,25.09 16.588,24.95 16.471,24.834C16.354,24.718 16.214,24.628 16.051,24.564C15.888,24.501 15.708,24.469 15.51,24.469L13.271,24.469L13.271,28.039L15.51,28.039C15.708,28.039 15.888,28.007 16.051,27.943C16.214,27.88 16.354,27.79 16.471,27.674C16.588,27.558 16.678,27.419 16.742,27.256C16.806,27.093 16.838,26.912 16.838,26.711L16.838,25.797Z" style="fill-rule:nonzero;"/>
        <path d="M19.768,23.965L18.752,23.965L18.752,23.047L19.768,23.047L19.768,23.965ZM19.768,29.055L18.752,29.055L18.752,24.832L19.768,24.832L19.768,29.055Z" style="fill-rule:nonzero;"/>
        <path d="M24.479,25.848L22.182,25.848L22.182,24.832L24.479,24.832L24.479,25.848ZM24.479,24.016L22.189,24.016C22.051,24.016 21.947,24.05 21.877,24.119C21.806,24.188 21.771,24.289 21.771,24.422L21.771,29.055L20.756,29.055L20.756,24.422C20.756,24.247 20.778,24.091 20.822,23.953C20.867,23.815 20.926,23.693 21,23.588C21.074,23.483 21.159,23.393 21.256,23.318C21.352,23.244 21.453,23.184 21.559,23.137C21.664,23.09 21.77,23.055 21.877,23.033C21.984,23.011 22.085,23 22.182,23L24.479,23L24.479,24.016Z" style="fill-rule:nonzero;"/>
        <path d="M28.881,25.848L26.584,25.848L26.584,24.832L28.881,24.832L28.881,25.848ZM28.881,24.016L26.592,24.016C26.454,24.016 26.35,24.05 26.279,24.119C26.209,24.188 26.174,24.289 26.174,24.422L26.174,29.055L25.158,29.055L25.158,24.422C25.158,24.247 25.18,24.091 25.225,23.953C25.269,23.815 25.328,23.693 25.402,23.588C25.477,23.483 25.562,23.393 25.658,23.318C25.755,23.244 25.856,23.184 25.961,23.137C26.066,23.09 26.172,23.055 26.279,23.033C26.386,23.011 26.487,23 26.584,23L28.881,23L28.881,24.016Z" style="fill-rule:nonzero;"/>
        <path d="M34.072,26.23C34.072,26.371 34.047,26.523 33.998,26.686C33.949,26.849 33.869,27 33.758,27.139C33.647,27.278 33.503,27.395 33.324,27.488C33.146,27.582 32.929,27.629 32.674,27.629L30.842,27.629L30.842,26.664L32.674,26.664C32.812,26.664 32.919,26.622 32.994,26.537C33.069,26.452 33.107,26.348 33.107,26.223C33.107,26.09 33.065,25.985 32.98,25.91C32.896,25.835 32.794,25.797 32.674,25.797L30.842,25.797C30.704,25.797 30.597,25.839 30.521,25.924C30.446,26.009 30.408,26.113 30.408,26.238L30.408,27.656C30.408,27.791 30.45,27.897 30.535,27.973C30.62,28.048 30.725,28.086 30.85,28.086L32.674,28.086L32.674,29.055L30.842,29.055C30.701,29.055 30.55,29.03 30.387,28.98C30.224,28.931 30.073,28.851 29.934,28.74C29.795,28.629 29.678,28.485 29.584,28.307C29.49,28.128 29.443,27.911 29.443,27.656L29.443,26.23C29.443,26.09 29.468,25.938 29.518,25.775C29.567,25.612 29.647,25.461 29.758,25.322C29.869,25.183 30.013,25.066 30.191,24.973C30.37,24.879 30.587,24.832 30.842,24.832L32.674,24.832C32.815,24.832 32.966,24.857 33.129,24.906C33.292,24.955 33.443,25.035 33.582,25.146C33.721,25.257 33.838,25.401 33.932,25.58C34.025,25.759 34.072,25.975 34.072,26.23Z" style="fill-rule:nonzero;"/>
        <path d="M38.451,25.848L36.166,25.848C36.028,25.848 35.924,25.882 35.854,25.951C35.783,26.02 35.748,26.121 35.748,26.254L35.748,29.055L34.732,29.055L34.732,26.254C34.732,26.079 34.754,25.923 34.799,25.785C34.843,25.647 34.902,25.525 34.977,25.42C35.051,25.315 35.136,25.225 35.232,25.15C35.329,25.076 35.43,25.016 35.535,24.969C35.64,24.922 35.747,24.887 35.855,24.865C35.964,24.843 36.065,24.832 36.158,24.832L38.451,24.832L38.451,25.848Z" style="fill-rule:nonzero;"/>
        <path d="M43.646,26.23C43.646,26.371 43.621,26.523 43.572,26.686C43.523,26.849 43.443,27 43.332,27.139C43.221,27.278 43.077,27.395 42.898,27.488C42.72,27.582 42.503,27.629 42.248,27.629L40.416,27.629L40.416,26.664L42.248,26.664C42.386,26.664 42.493,26.622 42.568,26.537C42.644,26.452 42.682,26.348 42.682,26.223C42.682,26.09 42.64,25.985 42.555,25.91C42.47,25.835 42.368,25.797 42.248,25.797L40.416,25.797C40.278,25.797 40.171,25.839 40.096,25.924C40.02,26.009 39.982,26.113 39.982,26.238L39.982,27.656C39.982,27.791 40.024,27.897 40.109,27.973C40.194,28.048 40.299,28.086 40.424,28.086L42.248,28.086L42.248,29.055L40.416,29.055C40.275,29.055 40.124,29.03 39.961,28.98C39.798,28.931 39.647,28.851 39.508,28.74C39.369,28.629 39.252,28.485 39.158,28.307C39.065,28.128 39.018,27.911 39.018,27.656L39.018,26.23C39.018,26.09 39.043,25.938 39.092,25.775C39.141,25.612 39.221,25.461 39.332,25.322C39.443,25.183 39.587,25.066 39.766,24.973C39.944,24.879 40.161,24.832 40.416,24.832L42.248,24.832C42.389,24.832 42.54,24.857 42.703,24.906C42.866,24.955 43.017,25.035 43.156,25.146C43.295,25.257 43.412,25.401 43.506,25.58C43.599,25.759 43.646,25.975 43.646,26.23Z" style="fill-rule:nonzero;"/>
        <path d="M49.01,29.055L47.994,29.055L47.994,26.711C47.994,26.578 47.971,26.459 47.926,26.354C47.88,26.248 47.818,26.157 47.74,26.082C47.662,26.007 47.57,25.949 47.465,25.908C47.36,25.868 47.246,25.848 47.123,25.848L45.346,25.848L45.346,29.055L44.33,29.055L44.33,25.336C44.33,25.265 44.343,25.2 44.369,25.139C44.395,25.078 44.432,25.024 44.479,24.979C44.526,24.933 44.58,24.897 44.643,24.871C44.705,24.845 44.771,24.832 44.842,24.832L47.131,24.832C47.258,24.832 47.393,24.846 47.535,24.875C47.677,24.904 47.818,24.95 47.957,25.014C48.096,25.077 48.229,25.158 48.355,25.256C48.482,25.353 48.594,25.472 48.691,25.611C48.789,25.75 48.867,25.911 48.924,26.094C48.981,26.276 49.01,26.482 49.01,26.711L49.01,29.055Z" style="fill-rule:nonzero;"/>
        <path d="M53.99,29.055L51.236,29.055C51.095,29.055 50.942,29.03 50.775,28.98C50.608,28.931 50.454,28.849 50.312,28.736C50.171,28.623 50.052,28.476 49.957,28.295C49.862,28.114 49.814,27.892 49.814,27.629L49.814,26.254C49.814,26.157 49.825,26.056 49.848,25.949C49.87,25.842 49.904,25.736 49.951,25.631C49.998,25.526 50.058,25.425 50.133,25.328C50.207,25.232 50.297,25.147 50.402,25.074C50.508,25.001 50.63,24.943 50.768,24.898C50.906,24.854 51.062,24.832 51.236,24.832L53.99,24.832L53.99,25.848L51.236,25.848C51.103,25.848 51.003,25.882 50.934,25.949C50.865,26.017 50.83,26.121 50.83,26.262L50.83,27.629C50.83,27.762 50.865,27.863 50.936,27.934C51.006,28.004 51.109,28.039 51.244,28.039L53.99,28.039L53.99,29.055Z" style="fill-rule:nonzero;"/>
        <path d="M59.342,26.23C59.342,26.371 59.317,26.523 59.268,26.686C59.218,26.849 59.138,27 59.027,27.139C58.916,27.278 58.772,27.395 58.594,27.488C58.415,27.582 58.198,27.629 57.943,27.629L56.111,27.629L56.111,26.664L57.943,26.664C58.081,26.664 58.188,26.622 58.264,26.537C58.339,26.452 58.377,26.348 58.377,26.223C58.377,26.09 58.335,25.985 58.25,25.91C58.165,25.835 58.063,25.797 57.943,25.797L56.111,25.797C55.973,25.797 55.866,25.839 55.791,25.924C55.716,26.009 55.678,26.113 55.678,26.238L55.678,27.656C55.678,27.791 55.72,27.897 55.805,27.973C55.89,28.048 55.994,28.086 56.119,28.086L57.943,28.086L57.943,29.055L56.111,29.055C55.97,29.055 55.819,29.03 55.656,28.98C55.493,28.931 55.342,28.851 55.203,28.74C55.064,28.629 54.947,28.485 54.854,28.307C54.76,28.128 54.713,27.911 54.713,27.656L54.713,26.23C54.713,26.09 54.738,25.938 54.787,25.775C54.836,25.612 54.916,25.461 55.027,25.322C55.138,25.183 55.282,25.066 55.461,24.973C55.64,24.879 55.856,24.832 56.111,24.832L57.943,24.832C58.084,24.832 58.235,24.857 58.398,24.906C58.561,24.955 58.713,25.035 58.852,25.146C58.991,25.257 59.108,25.401 59.201,25.58C59.295,25.759 59.342,25.975 59.342,26.23Z" style="fill-rule:nonzero;"/>
        <rect x="62.604" y="25.797" width="3.664" height="0.914" style="fill-rule:nonzero;"/>
        <path d="M75.51,25.336C75.51,25.568 75.481,25.775 75.424,25.957C75.367,26.139 75.289,26.3 75.191,26.439C75.094,26.578 74.981,26.698 74.854,26.797C74.726,26.896 74.592,26.977 74.453,27.041C74.314,27.105 74.173,27.151 74.031,27.18C73.889,27.209 73.756,27.223 73.631,27.223L75.752,29.055L74.182,29.055L72.064,27.223L71.334,27.223L71.334,26.207L73.631,26.207C73.758,26.196 73.875,26.17 73.98,26.127C74.086,26.084 74.177,26.026 74.254,25.953C74.331,25.88 74.39,25.792 74.432,25.689C74.473,25.586 74.494,25.469 74.494,25.336L74.494,24.695C74.494,24.638 74.487,24.594 74.473,24.564C74.458,24.535 74.44,24.513 74.418,24.498C74.396,24.484 74.373,24.476 74.348,24.473C74.323,24.47 74.3,24.469 74.279,24.469L70.928,24.469L70.928,29.055L69.912,29.055L69.912,23.965C69.912,23.894 69.925,23.828 69.951,23.766C69.977,23.703 70.013,23.649 70.059,23.602C70.104,23.555 70.158,23.518 70.221,23.492C70.283,23.466 70.351,23.453 70.424,23.453L74.279,23.453C74.506,23.453 74.697,23.494 74.854,23.576C75.01,23.658 75.137,23.761 75.234,23.885C75.332,24.008 75.402,24.142 75.445,24.285C75.488,24.428 75.51,24.563 75.51,24.688L75.51,25.336Z" style="fill-rule:nonzero;"/>
        <path d="M80.916,26.23C80.916,26.371 80.891,26.523 80.842,26.686C80.793,26.849 80.713,27 80.602,27.139C80.491,27.278 80.347,27.395 80.168,27.488C79.989,27.582 79.773,27.629 79.518,27.629L77.686,27.629L77.686,26.664L79.518,26.664C79.656,26.664 79.763,26.622 79.838,26.537C79.913,26.452 79.951,26.348 79.951,26.223C79.951,26.09 79.909,25.985 79.824,25.91C79.739,25.835 79.637,25.797 79.518,25.797L77.686,25.797C77.548,25.797 77.441,25.839 77.365,25.924C77.29,26.009 77.252,26.113 77.252,26.238L77.252,27.656C77.252,27.791 77.294,27.897 77.379,27.973C77.464,28.048 77.568,28.086 77.693,28.086L79.518,28.086L79.518,29.055L77.686,29.055C77.545,29.055 77.393,29.03 77.23,28.98C77.067,28.931 76.916,28.851 76.777,28.74C76.638,28.629 76.521,28.485 76.428,28.307C76.334,28.128 76.287,27.911 76.287,27.656L76.287,26.23C76.287,26.09 76.312,25.938 76.361,25.775C76.411,25.612 76.491,25.461 76.602,25.322C76.713,25.183 76.857,25.066 77.035,24.973C77.214,24.879 77.431,24.832 77.686,24.832L79.518,24.832C79.659,24.832 79.81,24.857 79.973,24.906C80.136,24.955 80.287,25.035 80.426,25.146C80.565,25.257 80.682,25.401 80.775,25.58C80.869,25.759 80.916,25.975 80.916,26.23Z" style="fill-rule:nonzero;"/>
        <path d="M85.689,29.055L82.936,29.055C82.795,29.055 82.642,29.03 82.475,28.98C82.308,28.931 82.154,28.849 82.012,28.736C81.87,28.623 81.751,28.476 81.656,28.295C81.561,28.114 81.514,27.892 81.514,27.629L81.514,26.254C81.514,26.157 81.525,26.056 81.547,25.949C81.569,25.842 81.603,25.736 81.65,25.631C81.697,25.526 81.758,25.425 81.832,25.328C81.906,25.232 81.996,25.147 82.102,25.074C82.207,25.001 82.329,24.943 82.467,24.898C82.605,24.854 82.761,24.832 82.936,24.832L85.689,24.832L85.689,25.848L82.936,25.848C82.803,25.848 82.702,25.882 82.633,25.949C82.564,26.017 82.529,26.121 82.529,26.262L82.529,27.629C82.529,27.762 82.564,27.863 82.635,27.934C82.705,28.004 82.808,28.039 82.943,28.039L85.689,28.039L85.689,29.055Z" style="fill-rule:nonzero;"/>
        <path d="M90.369,25.848L88.596,25.848L88.596,29.055L87.568,29.055L87.568,25.848L86.248,25.848L86.248,24.832L87.568,24.832L87.568,23.453L88.596,23.453L88.596,24.832L90.369,24.832L90.369,25.848Z" style="fill-rule:nonzero;"/>
        <path d="M92.068,23.965L91.053,23.965L91.053,23.047L92.068,23.047L92.068,23.965ZM92.068,29.055L91.053,29.055L91.053,24.832L92.068,24.832L92.068,29.055Z" style="fill-rule:nonzero;"/>
        <path d="M96.779,24.016L94.49,24.016C94.352,24.016 94.248,24.05 94.178,24.119C94.107,24.188 94.072,24.289 94.072,24.422L94.072,29.055L93.057,29.055L93.057,24.422C93.057,24.247 93.079,24.091 93.123,23.953C93.167,23.815 93.226,23.693 93.301,23.588C93.375,23.483 93.46,23.393 93.557,23.318C93.653,23.244 93.754,23.184 93.859,23.137C93.965,23.09 94.071,23.055 94.178,23.033C94.285,23.011 94.386,23 94.482,23L96.779,23L96.779,24.016ZM98.24,29.055L97.225,29.055L97.217,25.848L94.482,25.848L94.482,24.832L98.248,24.832L98.24,29.055ZM98.24,24.016L97.225,24.016L97.225,23.016L98.24,23.016L98.24,24.016Z" style="fill-rule:nonzero;"/>
        <path d="M103.756,26.23C103.756,26.371 103.731,26.523 103.682,26.686C103.632,26.849 103.552,27 103.441,27.139C103.33,27.278 103.186,27.395 103.008,27.488C102.829,27.582 102.612,27.629 102.357,27.629L100.525,27.629L100.525,26.664L102.357,26.664C102.495,26.664 102.602,26.622 102.678,26.537C102.753,26.452 102.791,26.348 102.791,26.223C102.791,26.09 102.749,25.985 102.664,25.91C102.579,25.835 102.477,25.797 102.357,25.797L100.525,25.797C100.387,25.797 100.28,25.839 100.205,25.924C100.13,26.009 100.092,26.113 100.092,26.238L100.092,27.656C100.092,27.791 100.134,27.897 100.219,27.973C100.304,28.048 100.408,28.086 100.533,28.086L102.357,28.086L102.357,29.055L100.525,29.055C100.384,29.055 100.233,29.03 100.07,28.98C99.907,28.931 99.756,28.851 99.617,28.74C99.478,28.629 99.361,28.485 99.268,28.307C99.174,28.128 99.127,27.911 99.127,27.656L99.127,26.23C99.127,26.09 99.152,25.938 99.201,25.775C99.25,25.612 99.33,25.461 99.441,25.322C99.552,25.183 99.696,25.066 99.875,24.973C100.054,24.879 100.27,24.832 100.525,24.832L102.357,24.832C102.498,24.832 102.649,24.857 102.812,24.906C102.975,24.955 103.127,25.035 103.266,25.146C103.405,25.257 103.522,25.401 103.615,25.58C103.709,25.759 103.756,25.975 103.756,26.23Z" style="fill-rule:nonzero;"/>
        <path d="M108.135,25.848L105.85,25.848C105.712,25.848 105.608,25.882 105.537,25.951C105.467,26.02 105.432,26.121 105.432,26.254L105.432,29.055L104.416,29.055L104.416,26.254C104.416,26.079 104.438,25.923 104.482,25.785C104.527,25.647 104.586,25.525 104.66,25.42C104.734,25.315 104.819,25.225 104.916,25.15C105.013,25.076 105.114,25.016 105.219,24.969C105.324,24.922 105.431,24.887 105.539,24.865C105.647,24.843 105.748,24.832 105.842,24.832L108.135,24.832L108.135,25.848Z" style="fill-rule:nonzero;"/>
        <g transform="matrix(1,0,0,1,1,0)">
            <g transform="matrix(1,0,0,1,-2,0)">
                <path d="M70.564,106.281C70.564,106.513 70.536,106.72 70.479,106.902C70.422,107.085 70.344,107.246 70.246,107.385C70.149,107.524 70.036,107.643 69.908,107.742C69.781,107.841 69.647,107.923 69.508,107.986C69.369,108.05 69.228,108.096 69.086,108.125C68.944,108.154 68.811,108.168 68.686,108.168L70.807,110L69.236,110L67.119,108.168L66.389,108.168L66.389,107.152L68.686,107.152C68.813,107.142 68.93,107.115 69.035,107.072C69.14,107.029 69.232,106.971 69.309,106.898C69.386,106.825 69.445,106.738 69.486,106.635C69.528,106.532 69.549,106.414 69.549,106.281L69.549,105.641C69.549,105.584 69.542,105.54 69.527,105.51C69.513,105.48 69.495,105.458 69.473,105.443C69.45,105.429 69.427,105.421 69.402,105.418C69.377,105.415 69.355,105.414 69.334,105.414L65.982,105.414L65.982,110L64.967,110L64.967,104.91C64.967,104.84 64.98,104.774 65.006,104.711C65.032,104.648 65.068,104.594 65.113,104.547C65.159,104.5 65.213,104.464 65.275,104.438C65.338,104.411 65.406,104.398 65.479,104.398L69.334,104.398C69.561,104.398 69.752,104.439 69.908,104.521C70.065,104.604 70.192,104.707 70.289,104.83C70.387,104.954 70.457,105.087 70.5,105.23C70.543,105.373 70.564,105.508 70.564,105.633L70.564,106.281Z" style="fill-rule:nonzero;"/>
            </g>
            <g transform="matrix(1,0,0,1,-2,0)">
                <path d="M76.189,107.711L72.982,107.711L72.982,106.688L76.189,106.688L76.189,107.711ZM76.646,110L72.982,110C72.841,110 72.688,109.975 72.521,109.926C72.354,109.877 72.2,109.795 72.059,109.682C71.917,109.569 71.798,109.421 71.703,109.24C71.608,109.059 71.561,108.837 71.561,108.574L71.561,104.91C71.561,104.84 71.574,104.774 71.6,104.711C71.626,104.648 71.662,104.594 71.707,104.547C71.752,104.5 71.806,104.464 71.869,104.438C71.932,104.411 71.999,104.398 72.072,104.398L76.646,104.398L76.646,105.414L72.576,105.414L72.576,108.574C72.576,108.707 72.611,108.808 72.682,108.879C72.752,108.949 72.855,108.984 72.99,108.984L76.646,108.984L76.646,110Z" style="fill-rule:nonzero;"/>
            </g>
            <g transform="matrix(1,0,0,1,-2,0)">
                <path d="M82.99,108.352C82.99,108.552 82.965,108.732 82.914,108.893C82.863,109.053 82.796,109.194 82.713,109.316C82.63,109.439 82.532,109.543 82.42,109.629C82.308,109.715 82.192,109.785 82.072,109.84C81.953,109.895 81.831,109.935 81.707,109.961C81.583,109.987 81.466,110 81.357,110L77.439,110L77.439,108.984L81.357,108.984C81.552,108.984 81.704,108.927 81.812,108.812C81.921,108.698 81.975,108.545 81.975,108.352C81.975,108.258 81.961,108.172 81.932,108.094C81.903,108.016 81.862,107.948 81.809,107.891C81.756,107.834 81.69,107.789 81.613,107.758C81.536,107.727 81.451,107.711 81.357,107.711L79.021,107.711C78.857,107.711 78.68,107.682 78.49,107.623C78.3,107.564 78.124,107.47 77.961,107.34C77.798,107.21 77.663,107.039 77.555,106.828C77.447,106.617 77.393,106.36 77.393,106.055C77.393,105.75 77.447,105.493 77.555,105.283C77.663,105.074 77.798,104.903 77.961,104.771C78.124,104.64 78.3,104.545 78.49,104.486C78.68,104.427 78.857,104.398 79.021,104.398L82.479,104.398L82.479,105.414L79.021,105.414C78.828,105.414 78.678,105.473 78.57,105.59C78.462,105.707 78.408,105.862 78.408,106.055C78.408,106.25 78.462,106.405 78.57,106.518C78.678,106.631 78.828,106.688 79.021,106.688L81.365,106.688C81.474,106.69 81.59,106.705 81.713,106.732C81.835,106.759 81.957,106.802 82.078,106.859C82.199,106.916 82.315,106.989 82.424,107.076C82.533,107.163 82.63,107.268 82.715,107.391C82.8,107.513 82.867,107.653 82.916,107.812C82.965,107.971 82.99,108.151 82.99,108.352Z" style="fill-rule:nonzero;"/>
            </g>
            <g transform="matrix(1,0,0,1,-2,0)">
                <path d="M89.416,106.742C89.416,106.974 89.387,107.181 89.33,107.363C89.273,107.546 89.195,107.707 89.098,107.846C89,107.985 88.887,108.104 88.76,108.203C88.632,108.302 88.498,108.383 88.359,108.445C88.22,108.508 88.079,108.553 87.938,108.582C87.796,108.611 87.662,108.625 87.537,108.625L85.24,108.625L85.24,107.609L87.537,107.609C87.667,107.599 87.785,107.572 87.891,107.529C87.996,107.486 88.087,107.428 88.162,107.355C88.237,107.282 88.296,107.195 88.338,107.092C88.379,106.989 88.4,106.873 88.4,106.742L88.4,106.281C88.387,106.154 88.36,106.037 88.318,105.93C88.277,105.823 88.22,105.732 88.148,105.656C88.077,105.581 87.99,105.522 87.889,105.479C87.787,105.436 87.67,105.414 87.537,105.414L85.248,105.414C85.113,105.414 85.01,105.449 84.939,105.52C84.869,105.59 84.834,105.691 84.834,105.824L84.834,110L83.818,110L83.818,105.824C83.818,105.564 83.866,105.343 83.961,105.16C84.056,104.978 84.175,104.831 84.316,104.719C84.458,104.607 84.612,104.526 84.779,104.475C84.946,104.424 85.099,104.398 85.24,104.398L87.537,104.398C87.766,104.398 87.972,104.427 88.154,104.486C88.337,104.545 88.498,104.623 88.637,104.721C88.776,104.818 88.895,104.931 88.992,105.059C89.09,105.186 89.171,105.32 89.234,105.459C89.298,105.598 89.344,105.739 89.373,105.881C89.402,106.023 89.416,106.156 89.416,106.281L89.416,106.742Z" style="fill-rule:nonzero;"/>
            </g>
            <g transform="matrix(1,0,0,1,-2,0)">
                <path d="M96.162,107.734C96.162,108.075 96.103,108.389 95.986,108.676C95.869,108.962 95.707,109.209 95.498,109.418C95.29,109.626 95.043,109.788 94.758,109.904C94.473,110.02 94.162,110.078 93.826,110.078L92.451,110.078C92.115,110.078 91.804,110.02 91.518,109.904C91.231,109.788 90.984,109.626 90.775,109.418C90.567,109.209 90.404,108.962 90.285,108.676C90.166,108.389 90.107,108.075 90.107,107.734L90.107,106.664C90.107,106.325 90.166,106.012 90.285,105.725C90.404,105.437 90.567,105.189 90.775,104.982C90.984,104.775 91.231,104.613 91.518,104.496C91.804,104.379 92.115,104.32 92.451,104.32L93.826,104.32C94.162,104.32 94.473,104.379 94.758,104.496C95.043,104.613 95.29,104.775 95.498,104.982C95.707,105.189 95.869,105.437 95.986,105.725C96.103,106.012 96.162,106.325 96.162,106.664L96.162,107.734ZM95.146,106.664C95.146,106.463 95.114,106.282 95.051,106.119C94.987,105.956 94.897,105.817 94.781,105.701C94.665,105.585 94.526,105.495 94.363,105.432C94.2,105.368 94.021,105.336 93.826,105.336L92.451,105.336C92.253,105.336 92.073,105.368 91.91,105.432C91.747,105.495 91.607,105.585 91.49,105.701C91.373,105.817 91.282,105.956 91.219,106.119C91.155,106.282 91.123,106.463 91.123,106.664L91.123,107.734C91.123,107.935 91.155,108.116 91.219,108.279C91.282,108.442 91.373,108.581 91.49,108.697C91.607,108.813 91.747,108.903 91.91,108.967C92.073,109.03 92.253,109.062 92.451,109.062L93.818,109.062C94.016,109.062 94.196,109.03 94.359,108.967C94.522,108.903 94.662,108.813 94.779,108.697C94.896,108.581 94.987,108.442 95.051,108.279C95.114,108.116 95.146,107.935 95.146,107.734L95.146,106.664Z" style="fill-rule:nonzero;"/>
            </g>
            <g transform="matrix(1,0,0,1,-2,0)">
                <path d="M102.764,109.566C102.764,109.639 102.75,109.707 102.723,109.77C102.696,109.832 102.659,109.886 102.613,109.932C102.568,109.977 102.514,110.013 102.451,110.039C102.388,110.065 102.322,110.078 102.252,110.078C102.189,110.078 102.126,110.066 102.062,110.043C101.999,110.02 101.942,109.982 101.893,109.93L98.182,106.055L98.182,110L97.166,110L97.166,104.832C97.166,104.728 97.195,104.634 97.254,104.549C97.313,104.464 97.388,104.401 97.479,104.359C97.575,104.32 97.674,104.311 97.775,104.33C97.877,104.349 97.964,104.397 98.037,104.473L101.748,108.344L101.748,104.398L102.764,104.398L102.764,109.566Z" style="fill-rule:nonzero;"/>
            </g>
            <g transform="matrix(1,0,0,1,-2,0)">
                <path d="M109.326,108.352C109.326,108.552 109.301,108.732 109.25,108.893C109.199,109.053 109.132,109.194 109.049,109.316C108.966,109.439 108.868,109.543 108.756,109.629C108.644,109.715 108.528,109.785 108.408,109.84C108.289,109.895 108.167,109.935 108.043,109.961C107.919,109.987 107.802,110 107.693,110L103.775,110L103.775,108.984L107.693,108.984C107.888,108.984 108.04,108.927 108.148,108.812C108.257,108.698 108.311,108.545 108.311,108.352C108.311,108.258 108.297,108.172 108.268,108.094C108.239,108.016 108.198,107.948 108.145,107.891C108.091,107.834 108.026,107.789 107.949,107.758C107.872,107.727 107.787,107.711 107.693,107.711L105.357,107.711C105.193,107.711 105.016,107.682 104.826,107.623C104.636,107.564 104.46,107.47 104.297,107.34C104.134,107.21 103.999,107.039 103.891,106.828C103.783,106.617 103.729,106.36 103.729,106.055C103.729,105.75 103.783,105.493 103.891,105.283C103.999,105.074 104.134,104.903 104.297,104.771C104.46,104.64 104.636,104.545 104.826,104.486C105.016,104.427 105.193,104.398 105.357,104.398L108.814,104.398L108.814,105.414L105.357,105.414C105.164,105.414 105.014,105.473 104.906,105.59C104.798,105.707 104.744,105.862 104.744,106.055C104.744,106.25 104.798,106.405 104.906,106.518C105.014,106.631 105.164,106.688 105.357,106.688L107.701,106.688C107.81,106.69 107.926,106.705 108.049,106.732C108.171,106.759 108.293,106.802 108.414,106.859C108.535,106.916 108.651,106.989 108.76,107.076C108.869,107.163 108.966,107.268 109.051,107.391C109.136,107.513 109.203,107.653 109.252,107.812C109.301,107.971 109.326,108.151 109.326,108.352Z" style="fill-rule:nonzero;"/>
            </g>
            <g transform="matrix(1,0,0,1,-2,0)">
                <path d="M114.775,107.711L111.568,107.711L111.568,106.688L114.775,106.688L114.775,107.711ZM115.232,110L111.568,110C111.427,110 111.274,109.975 111.107,109.926C110.94,109.877 110.786,109.795 110.645,109.682C110.503,109.569 110.384,109.421 110.289,109.24C110.194,109.059 110.146,108.837 110.146,108.574L110.146,104.91C110.146,104.84 110.159,104.774 110.186,104.711C110.212,104.648 110.248,104.594 110.293,104.547C110.338,104.5 110.392,104.464 110.455,104.438C110.518,104.411 110.585,104.398 110.658,104.398L115.232,104.398L115.232,105.414L111.162,105.414L111.162,108.574C111.162,108.707 111.197,108.808 111.268,108.879C111.338,108.949 111.441,108.984 111.576,108.984L115.232,108.984L115.232,110Z" style="fill-rule:nonzero;"/>
            </g>
        </g>
        <g id="SENSE">
            <g transform="matrix(1,0,0,1,3,0)">
                <path d="M20.314,108.352C20.314,108.552 20.289,108.732 20.238,108.893C20.187,109.053 20.12,109.194 20.037,109.316C19.954,109.439 19.856,109.543 19.744,109.629C19.632,109.715 19.516,109.785 19.396,109.84C19.277,109.895 19.155,109.935 19.031,109.961C18.908,109.987 18.791,110 18.682,110L14.764,110L14.764,108.984L18.682,108.984C18.877,108.984 19.029,108.927 19.137,108.812C19.245,108.698 19.299,108.545 19.299,108.352C19.299,108.258 19.285,108.172 19.256,108.094C19.227,108.016 19.186,107.948 19.133,107.891C19.08,107.834 19.015,107.789 18.938,107.758C18.861,107.727 18.775,107.711 18.682,107.711L16.346,107.711C16.182,107.711 16.005,107.682 15.814,107.623C15.624,107.564 15.448,107.47 15.285,107.34C15.122,107.21 14.987,107.039 14.879,106.828C14.771,106.617 14.717,106.36 14.717,106.055C14.717,105.75 14.771,105.493 14.879,105.283C14.987,105.074 15.122,104.903 15.285,104.771C15.448,104.64 15.624,104.545 15.814,104.486C16.005,104.427 16.182,104.398 16.346,104.398L19.803,104.398L19.803,105.414L16.346,105.414C16.153,105.414 16.003,105.473 15.895,105.59C15.786,105.707 15.732,105.862 15.732,106.055C15.732,106.25 15.786,106.405 15.895,106.518C16.003,106.631 16.153,106.688 16.346,106.688L18.689,106.688C18.799,106.69 18.915,106.705 19.037,106.732C19.16,106.759 19.281,106.802 19.402,106.859C19.523,106.916 19.639,106.989 19.748,107.076C19.857,107.163 19.954,107.268 20.039,107.391C20.124,107.513 20.191,107.653 20.24,107.812C20.289,107.971 20.314,108.151 20.314,108.352Z" style="fill-rule:nonzero;"/>
            </g>
            <g transform="matrix(1,0,0,1,3,0)">
                <path d="M25.764,107.711L22.557,107.711L22.557,106.688L25.764,106.688L25.764,107.711ZM26.221,110L22.557,110C22.416,110 22.263,109.975 22.096,109.926C21.929,109.877 21.775,109.795 21.633,109.682C21.491,109.569 21.372,109.421 21.277,109.24C21.182,109.059 21.135,108.837 21.135,108.574L21.135,104.91C21.135,104.84 21.148,104.774 21.174,104.711C21.2,104.648 21.236,104.594 21.281,104.547C21.327,104.5 21.381,104.464 21.443,104.438C21.506,104.411 21.573,104.398 21.646,104.398L26.221,104.398L26.221,105.414L22.15,105.414L22.15,108.574C22.15,108.707 22.185,108.808 22.256,108.879C22.326,108.949 22.429,108.984 22.564,108.984L26.221,108.984L26.221,110Z" style="fill-rule:nonzero;"/>
            </g>
            <g transform="matrix(1,0,0,1,3,0)">
                <path d="M32.799,109.566C32.799,109.639 32.785,109.707 32.758,109.77C32.731,109.832 32.694,109.886 32.648,109.932C32.603,109.977 32.549,110.013 32.486,110.039C32.424,110.065 32.358,110.078 32.287,110.078C32.224,110.078 32.161,110.066 32.098,110.043C32.034,110.02 31.977,109.982 31.928,109.93L28.217,106.055L28.217,110L27.201,110L27.201,104.832C27.201,104.728 27.23,104.634 27.289,104.549C27.348,104.464 27.423,104.401 27.514,104.359C27.61,104.32 27.709,104.311 27.811,104.33C27.912,104.349 27.999,104.397 28.072,104.473L31.783,108.344L31.783,104.398L32.799,104.398L32.799,109.566Z" style="fill-rule:nonzero;"/>
            </g>
            <g transform="matrix(1,0,0,1,3,0)">
                <path d="M39.361,108.352C39.361,108.552 39.336,108.732 39.285,108.893C39.234,109.053 39.167,109.194 39.084,109.316C39.001,109.439 38.903,109.543 38.791,109.629C38.679,109.715 38.563,109.785 38.443,109.84C38.324,109.895 38.202,109.935 38.078,109.961C37.955,109.987 37.838,110 37.729,110L33.811,110L33.811,108.984L37.729,108.984C37.924,108.984 38.075,108.927 38.184,108.812C38.292,108.698 38.346,108.545 38.346,108.352C38.346,108.258 38.332,108.172 38.303,108.094C38.274,108.016 38.233,107.948 38.18,107.891C38.127,107.834 38.061,107.789 37.984,107.758C37.907,107.727 37.822,107.711 37.729,107.711L35.393,107.711C35.228,107.711 35.051,107.682 34.861,107.623C34.671,107.564 34.495,107.47 34.332,107.34C34.169,107.21 34.034,107.039 33.926,106.828C33.818,106.617 33.764,106.36 33.764,106.055C33.764,105.75 33.818,105.493 33.926,105.283C34.034,105.074 34.169,104.903 34.332,104.771C34.495,104.64 34.671,104.545 34.861,104.486C35.051,104.427 35.228,104.398 35.393,104.398L38.85,104.398L38.85,105.414L35.393,105.414C35.2,105.414 35.05,105.473 34.941,105.59C34.833,105.707 34.779,105.862 34.779,106.055C34.779,106.25 34.833,106.405 34.941,106.518C35.05,106.631 35.2,106.688 35.393,106.688L37.736,106.688C37.845,106.69 37.961,106.705 38.084,106.732C38.207,106.759 38.328,106.802 38.449,106.859C38.57,106.916 38.686,106.989 38.795,107.076C38.904,107.163 39.001,107.268 39.086,107.391C39.171,107.513 39.238,107.653 39.287,107.812C39.336,107.971 39.361,108.151 39.361,108.352Z" style="fill-rule:nonzero;"/>
            </g>
            <g transform="matrix(1,0,0,1,3,0)">
                <path d="M44.811,107.711L41.604,107.711L41.604,106.688L44.811,106.688L44.811,107.711ZM45.268,110L41.604,110C41.463,110 41.31,109.975 41.143,109.926C40.976,109.877 40.822,109.795 40.68,109.682C40.538,109.569 40.419,109.421 40.324,109.24C40.229,109.059 40.182,108.837 40.182,108.574L40.182,104.91C40.182,104.84 40.195,104.774 40.221,104.711C40.247,104.648 40.283,104.594 40.328,104.547C40.373,104.5 40.427,104.464 40.49,104.438C40.553,104.411 40.62,104.398 40.693,104.398L45.268,104.398L45.268,105.414L41.197,105.414L41.197,108.574C41.197,108.707 41.232,108.808 41.303,108.879C41.373,108.949 41.476,108.984 41.611,108.984L45.268,108.984L45.268,110Z" style="fill-rule:nonzero;"/>
            </g>
        </g>
        <path d="M16.5,132.5L104.5,132.5C107.261,132.5 109.5,134.762 109.5,137.553L109.5,223.447C109.5,226.238 107.261,228.5 104.5,228.5L16.5,228.5C13.739,228.5 11.5,226.238 11.5,223.447L11.5,137.553C11.5,134.762 13.739,132.5 16.5,132.5Z" style="fill-opacity:0;fill-rule:nonzero;stroke:#000;stroke-width:0.25px;"/>
        <g transform="matrix(1,0,0,1,46.017,367)">
            <g transform="matrix(12,0,0,12,0,0)">
                <path d="M0.773,-0.054C0.773,-0.045 0.772,-0.037 0.768,-0.029C0.765,-0.021 0.76,-0.014 0.755,-0.009C0.749,-0.003 0.742,0.002 0.734,0.005C0.727,0.008 0.718,0.01 0.709,0.01C0.702,0.01 0.694,0.008 0.686,0.005C0.678,0.002 0.671,-0.002 0.665,-0.009L0.201,-0.493L0.201,-0L0.074,-0L0.074,-0.646C0.074,-0.659 0.077,-0.671 0.085,-0.681C0.092,-0.692 0.101,-0.7 0.113,-0.705C0.125,-0.71 0.137,-0.711 0.15,-0.709C0.163,-0.706 0.174,-0.7 0.183,-0.691L0.646,-0.207L0.646,-0.7L0.773,-0.7L0.773,-0.054Z" style="fill-rule:nonzero;"/>
            </g>
            <g transform="matrix(12,0,0,12,10.166,0)">
                <path d="M0.717,-0L0.138,-0C0.129,-0 0.12,-0.002 0.112,-0.005C0.104,-0.008 0.098,-0.013 0.092,-0.018C0.086,-0.024 0.082,-0.031 0.079,-0.039C0.075,-0.046 0.074,-0.055 0.074,-0.064L0.074,-0.7L0.201,-0.7L0.201,-0.127L0.717,-0.127L0.717,-0Z" style="fill-rule:nonzero;"/>
            </g>
            <g transform="matrix(12,0,0,12,19.002,0)">
                <path d="M0.701,-0L0.243,-0C0.231,-0 0.218,-0.001 0.205,-0.004C0.191,-0.007 0.178,-0.011 0.165,-0.017C0.152,-0.023 0.139,-0.031 0.127,-0.04C0.115,-0.049 0.104,-0.06 0.095,-0.073C0.086,-0.087 0.078,-0.102 0.073,-0.119C0.067,-0.137 0.064,-0.156 0.064,-0.178L0.064,-0.522C0.064,-0.534 0.066,-0.546 0.069,-0.56C0.071,-0.573 0.076,-0.587 0.082,-0.6C0.087,-0.613 0.095,-0.626 0.104,-0.638C0.114,-0.65 0.125,-0.66 0.138,-0.67C0.152,-0.679 0.167,-0.686 0.184,-0.692C0.201,-0.697 0.221,-0.7 0.243,-0.7L0.701,-0.7L0.701,-0.573L0.243,-0.573C0.226,-0.573 0.213,-0.569 0.205,-0.56C0.196,-0.551 0.191,-0.538 0.191,-0.521L0.191,-0.178C0.191,-0.162 0.196,-0.149 0.205,-0.14C0.214,-0.131 0.226,-0.127 0.243,-0.127L0.701,-0.127L0.701,-0Z" style="fill-rule:nonzero;"/>
            </g>
        </g>
        <path d="M77.5,359.5L114.5,359.5" style="fill:none;fill-rule:nonzero;stroke:#007ba9;stroke-width:1px;stroke-linecap:round;"/>
        <path d="M6.5,359.5L43.5,359.5" style="fill:none;fill-rule:nonzero;stroke:#00799a;stroke-width:1px;stroke-linecap:round;"/>
        <path d="M94.5,21.5L114.5,21.5" style="fill:none;fill-rule:nonzero;stroke:#00799a;stroke-width:1px;stroke-linecap:round;"/>
        <path d="M6.5,21.5L26.5,21.5" style="fill:none;fill-rule:nonzero;stroke:#00799a;stroke-width:1px;stroke-linecap:round;"/>
        <path d="M39.457,20.127C39.457,20.236 39.437,20.338 39.396,20.432C39.355,20.525 39.3,20.606 39.231,20.675C39.163,20.743 39.082,20.797 38.988,20.836C38.895,20.875 38.795,20.895 38.689,20.895C38.596,20.895 38.501,20.877 38.405,20.842C38.31,20.807 38.225,20.75 38.15,20.672L32.584,14.859L32.584,20.777L31.061,20.777L31.061,13.025C31.061,12.869 31.105,12.728 31.192,12.601C31.28,12.474 31.392,12.379 31.529,12.316C31.674,12.258 31.822,12.243 31.975,12.272C32.127,12.301 32.258,12.373 32.367,12.486L37.934,18.293L37.934,12.375L39.457,12.375L39.457,20.127Z" style="fill-rule:nonzero;"/>
        <path d="M48.135,17.344L43.324,17.344L43.324,15.809L48.135,15.809L48.135,17.344ZM48.82,20.777L43.324,20.777C43.113,20.777 42.883,20.74 42.633,20.666C42.383,20.592 42.151,20.47 41.938,20.3C41.725,20.13 41.548,19.909 41.405,19.638C41.262,19.366 41.191,19.033 41.191,18.639L41.191,13.143C41.191,13.037 41.211,12.937 41.25,12.844C41.289,12.75 41.343,12.668 41.411,12.598C41.48,12.527 41.561,12.473 41.654,12.434C41.748,12.395 41.85,12.375 41.959,12.375L48.82,12.375L48.82,13.898L42.715,13.898L42.715,18.639C42.715,18.838 42.768,18.991 42.873,19.096C42.978,19.201 43.133,19.254 43.336,19.254L48.82,19.254L48.82,20.777Z" style="fill-rule:nonzero;"/>
        <path d="M58.523,20.01C58.523,20.119 58.504,20.221 58.465,20.314C58.426,20.408 58.371,20.489 58.301,20.558C58.23,20.626 58.148,20.68 58.055,20.719C57.961,20.758 57.861,20.777 57.756,20.777L54.322,20.777C53.998,20.777 53.67,20.742 53.338,20.672C53.006,20.601 52.685,20.493 52.374,20.347C52.063,20.2 51.771,20.014 51.498,19.787C51.225,19.56 50.985,19.292 50.78,18.981C50.575,18.671 50.414,18.316 50.297,17.915C50.18,17.514 50.121,17.068 50.121,16.576L50.121,12.375L51.645,12.375L51.645,16.576C51.645,17.006 51.704,17.369 51.823,17.666C51.942,17.963 52.094,18.211 52.277,18.41C52.461,18.609 52.662,18.766 52.881,18.879C53.1,18.992 53.308,19.076 53.505,19.131C53.702,19.186 53.876,19.22 54.026,19.233C54.177,19.247 54.275,19.254 54.322,19.254L57,19.254L57,12.375L58.523,12.375L58.523,20.01Z" style="fill-rule:nonzero;"/>
        <path d="M68.689,15.199C68.689,15.547 68.646,15.858 68.561,16.131C68.475,16.404 68.359,16.645 68.212,16.854C68.065,17.063 67.896,17.242 67.705,17.391C67.514,17.539 67.313,17.661 67.104,17.757C66.895,17.852 66.685,17.922 66.472,17.965C66.259,18.008 66.058,18.029 65.871,18.029L69.053,20.777L66.697,20.777L63.521,18.029L62.426,18.029L62.426,16.506L65.871,16.506C66.062,16.49 66.237,16.45 66.396,16.386C66.554,16.321 66.691,16.234 66.806,16.125C66.921,16.016 67.01,15.884 67.072,15.729C67.135,15.575 67.166,15.398 67.166,15.199L67.166,14.238C67.166,14.152 67.155,14.087 67.134,14.042C67.113,13.997 67.085,13.964 67.052,13.942C67.019,13.921 66.983,13.908 66.946,13.904C66.909,13.9 66.875,13.898 66.844,13.898L61.816,13.898L61.816,20.777L60.293,20.777L60.293,13.143C60.293,13.037 60.313,12.937 60.352,12.844C60.391,12.75 60.444,12.668 60.513,12.598C60.581,12.527 60.662,12.473 60.756,12.434C60.849,12.395 60.951,12.375 61.061,12.375L66.844,12.375C67.184,12.375 67.471,12.437 67.705,12.56C67.94,12.683 68.13,12.837 68.276,13.022C68.423,13.208 68.528,13.408 68.593,13.623C68.657,13.838 68.689,14.039 68.689,14.227L68.689,15.199Z" style="fill-rule:nonzero;"/>
        <path d="M79.037,17.379C79.037,17.89 78.949,18.361 78.773,18.791C78.598,19.221 78.354,19.592 78.041,19.904C77.728,20.217 77.358,20.46 76.931,20.634C76.503,20.808 76.037,20.895 75.533,20.895L73.471,20.895C72.967,20.895 72.5,20.808 72.07,20.634C71.641,20.46 71.27,20.217 70.957,19.904C70.644,19.592 70.399,19.221 70.222,18.791C70.044,18.361 69.955,17.89 69.955,17.379L69.955,15.773C69.955,15.266 70.044,14.796 70.222,14.364C70.399,13.933 70.644,13.562 70.957,13.251C71.27,12.94 71.641,12.697 72.07,12.521C72.5,12.346 72.967,12.258 73.471,12.258L75.533,12.258C76.037,12.258 76.503,12.346 76.931,12.521C77.358,12.697 77.728,12.94 78.041,13.251C78.354,13.562 78.598,13.933 78.773,14.364C78.949,14.796 79.037,15.266 79.037,15.773L79.037,17.379ZM77.514,15.773C77.514,15.472 77.466,15.2 77.37,14.956C77.275,14.712 77.14,14.503 76.966,14.329C76.792,14.155 76.583,14.02 76.339,13.925C76.095,13.829 75.826,13.781 75.533,13.781L73.471,13.781C73.174,13.781 72.903,13.829 72.659,13.925C72.415,14.02 72.205,14.155 72.029,14.329C71.854,14.503 71.718,14.712 71.622,14.956C71.527,15.2 71.479,15.472 71.479,15.773L71.479,17.379C71.479,17.68 71.527,17.952 71.622,18.196C71.718,18.44 71.854,18.649 72.029,18.823C72.205,18.997 72.415,19.132 72.659,19.228C72.903,19.323 73.174,19.371 73.471,19.371L75.521,19.371C75.818,19.371 76.089,19.323 76.333,19.228C76.577,19.132 76.787,18.997 76.963,18.823C77.139,18.649 77.275,18.44 77.37,18.196C77.466,17.952 77.514,17.68 77.514,17.379L77.514,15.773Z" style="fill-rule:nonzero;"/>
        <path d="M88.939,20.127C88.939,20.236 88.919,20.338 88.878,20.432C88.837,20.525 88.782,20.606 88.714,20.675C88.645,20.743 88.564,20.797 88.471,20.836C88.377,20.875 88.277,20.895 88.172,20.895C88.078,20.895 87.983,20.877 87.888,20.842C87.792,20.807 87.707,20.75 87.633,20.672L82.066,14.859L82.066,20.777L80.543,20.777L80.543,13.025C80.543,12.869 80.587,12.728 80.675,12.601C80.763,12.474 80.875,12.379 81.012,12.316C81.157,12.258 81.305,12.243 81.457,12.272C81.61,12.301 81.741,12.373 81.85,12.486L87.416,18.293L87.416,12.375L88.939,12.375L88.939,20.127Z" style="fill-rule:nonzero;"/>
    </g>
</svg>
