<?xml version="1.0" encoding="UTF-8" standalone="no"?>
<!DOCTYPE svg PUBLIC "-//W3C//DTD SVG 1.1//EN" "http://www.w3.org/Graphics/SVG/1.1/DTD/svg11.dtd">
<svg width="100%" height="100%" viewBox="0 0 120 380" version="1.1" xmlns="http://www.w3.org/2000/svg" xmlns:xlink="http://www.w3.org/1999/xlink" xml:space="preserve" xmlns:serif="http://www.serif.com/" style="fill-rule:evenodd;clip-rule:evenodd;stroke-linecap:round;stroke-linejoin:round;">
    <g id="Ebene_1">
        <rect x="0" y="-1.124" width="120" height="382.248" style="fill:#e6e6e6;fill-rule:nonzero;"/>
        <path d="M5.425,269.602L116,269.602C117.657,269.602 119,270.945 119,272.602L119,308.31C119,309.966 117.657,311.31 116,311.31L5.425,311.31C3.768,311.31 2.425,309.966 2.425,308.31L2.425,272.602C2.425,270.945 3.768,269.602 5.425,269.602Z" style="fill:#bcbdba;fill-rule:nonzero;"/>
        <path d="M5.313,201.401L56.536,201.401C58.131,201.401 59.425,202.484 59.425,203.82L59.425,238.981C59.425,240.318 58.131,241.401 56.536,241.401L5.313,241.401C3.718,241.401 2.425,240.318 2.425,238.981L2.425,203.82C2.425,202.484 3.718,201.401 5.313,201.401Z" style="fill:#fff;fill-rule:nonzero;"/>
        <path d="M64.889,223.401L116.111,223.401C117.707,223.401 119,224.484 119,225.82L119,260.981C119,262.318 117.707,263.401 116.111,263.401L64.889,263.401C63.293,263.401 62,262.318 62,260.981L62,225.82C62,224.484 63.293,223.401 64.889,223.401Z" style="fill:#bcbdba;fill-rule:nonzero;"/>
        <path d="M31.807,70.102L31.807,125.305" style="fill:none;fill-rule:nonzero;stroke:#00799a;stroke-width:4px;"/>
        <path d="M89.807,93.102L89.807,148.305" style="fill:none;fill-rule:nonzero;stroke:#00799a;stroke-width:4px;"/>
        <path d="M31.807,70.102L89.807,93.102" style="fill:none;fill-rule:nonzero;stroke:#00799a;stroke-width:4px;"/>
        <path d="M31.807,125.305L89.807,148.305" style="fill:none;fill-rule:nonzero;stroke:#00799a;stroke-width:4px;"/>
        <path d="M12.775,296.5L108.901,296.5" style="fill:none;fill-rule:nonzero;stroke:#00799a;stroke-width:2px;stroke-linejoin:miter;"/>
        <path d="M74.108,248.546L110.734,248.454" style="fill:none;fill-rule:nonzero;stroke:#00799a;stroke-width:2px;stroke-linejoin:miter;"/>
        <path d="M14.343,226.546L50.969,226.454" style="fill:none;fill-rule:nonzero;stroke:#00799a;stroke-width:2px;stroke-linejoin:miter;"/>
        <path d="M54.947,364.524C54.947,364.689 54.916,364.841 54.854,364.981C54.793,365.122 54.711,365.243 54.608,365.346C54.506,365.449 54.385,365.529 54.244,365.588C54.103,365.647 53.954,365.676 53.795,365.676C53.654,365.676 53.512,365.65 53.369,365.597C53.226,365.544 53.098,365.459 52.987,365.342L44.637,356.623L44.637,365.5L42.352,365.5L42.352,353.872C42.352,353.638 42.418,353.426 42.55,353.235C42.682,353.044 42.85,352.902 43.055,352.809C43.272,352.721 43.494,352.699 43.723,352.743C43.952,352.787 44.148,352.894 44.312,353.063L52.662,361.773L52.662,352.896L54.947,352.896L54.947,364.524Z" style="fill-rule:nonzero;"/>
        <path d="M69.176,365.5L58.752,365.5C58.588,365.5 58.436,365.471 58.295,365.412C58.154,365.353 58.033,365.273 57.931,365.17C57.828,365.068 57.748,364.947 57.689,364.806C57.63,364.665 57.601,364.513 57.601,364.349L57.601,352.896L59.886,352.896L59.886,363.215L69.176,363.215L69.176,365.5Z" style="fill-rule:nonzero;"/>
        <path d="M82.14,365.5L73.896,365.5C73.685,365.5 73.458,365.475 73.215,365.425C72.972,365.376 72.731,365.298 72.494,365.192C72.257,365.087 72.03,364.951 71.813,364.784C71.596,364.617 71.404,364.414 71.237,364.177C71.07,363.94 70.937,363.664 70.837,363.351C70.738,363.038 70.688,362.685 70.688,362.292L70.688,356.104C70.688,355.893 70.713,355.666 70.763,355.423C70.812,355.18 70.89,354.94 70.996,354.703C71.101,354.466 71.239,354.238 71.409,354.021C71.579,353.804 71.783,353.613 72.02,353.446C72.257,353.279 72.53,353.145 72.841,353.046C73.152,352.946 73.503,352.896 73.896,352.896L82.14,352.896L82.14,355.182L73.896,355.182C73.597,355.182 73.369,355.261 73.21,355.419C73.052,355.577 72.973,355.811 72.973,356.122L72.973,362.292C72.973,362.585 73.054,362.812 73.215,362.973C73.376,363.134 73.603,363.215 73.896,363.215L82.14,363.215L82.14,365.5Z" style="fill-rule:nonzero;"/>
        <path d="M103.3,272L99.765,277.602L98.675,277.602L102.214,272L103.3,272Z" style="fill-rule:nonzero;"/>
        <path d="M105.832,277.602L104.812,277.602L104.812,273.016L103.894,273.016L103.894,272L105.832,272L105.832,277.602Z" style="fill-rule:nonzero;"/>
        <path d="M107.945,274.289L110.648,274.289C110.791,274.289 110.946,274.314 111.111,274.365C111.276,274.416 111.431,274.498 111.574,274.611C111.717,274.724 111.836,274.872 111.931,275.055C112.026,275.237 112.074,275.46 112.074,275.723L112.074,276.176C112.074,276.272 112.063,276.373 112.041,276.48C112.018,276.587 111.983,276.694 111.935,276.799C111.887,276.904 111.826,277.005 111.752,277.102C111.677,277.198 111.587,277.283 111.482,277.357C111.377,277.432 111.255,277.491 111.117,277.535C110.979,277.58 110.823,277.602 110.648,277.602L108.808,277.602C108.683,277.602 108.55,277.588 108.408,277.559C108.266,277.53 108.126,277.484 107.988,277.42C107.85,277.356 107.717,277.275 107.588,277.178C107.459,277.08 107.346,276.961 107.25,276.822C107.153,276.683 107.076,276.522 107.017,276.34C106.958,276.157 106.929,275.952 106.929,275.723L106.929,273.883C106.929,273.654 106.958,273.448 107.017,273.266C107.076,273.083 107.153,272.922 107.25,272.783C107.346,272.644 107.459,272.525 107.588,272.426C107.717,272.327 107.85,272.245 107.988,272.182C108.126,272.118 108.266,272.072 108.408,272.043C108.55,272.014 108.683,272 108.808,272L111.355,272L111.355,273.016L108.808,273.016C108.678,273.026 108.56,273.053 108.455,273.098C108.349,273.142 108.258,273.2 108.183,273.273C108.108,273.346 108.049,273.434 108.007,273.537C107.966,273.64 107.945,273.755 107.945,273.883L107.945,274.289ZM107.945,275.312L107.945,275.723C107.945,275.856 107.968,275.975 108.013,276.08C108.059,276.185 108.121,276.276 108.199,276.352C108.277,276.427 108.369,276.485 108.474,276.525C108.579,276.566 108.693,276.586 108.816,276.586L110.648,276.586C110.778,276.586 110.878,276.547 110.947,276.469C111.016,276.391 111.05,276.293 111.05,276.176L111.05,275.723C111.05,275.59 111.016,275.488 110.949,275.418C110.881,275.347 110.778,275.312 110.64,275.312L107.945,275.312Z" style="fill-rule:nonzero;"/>
        <path d="M74.896,272L71.361,277.602L70.271,277.602L73.811,272L74.896,272Z" style="fill-rule:nonzero;"/>
        <path d="M80.6,276.176C80.6,276.272 80.589,276.373 80.566,276.48C80.544,276.587 80.509,276.694 80.461,276.799C80.413,276.904 80.351,277.005 80.275,277.102C80.2,277.198 80.109,277.283 80.004,277.357C79.899,277.432 79.777,277.491 79.639,277.535C79.501,277.58 79.346,277.602 79.174,277.602L76.877,277.602C76.736,277.602 76.583,277.577 76.416,277.527C76.249,277.478 76.095,277.396 75.953,277.283C75.811,277.17 75.693,277.023 75.598,276.842C75.503,276.661 75.455,276.439 75.455,276.176L75.455,275.723C75.455,275.624 75.466,275.519 75.488,275.41C75.51,275.301 75.545,275.193 75.594,275.086C75.642,274.979 75.704,274.878 75.779,274.781C75.855,274.685 75.946,274.602 76.053,274.531C76.006,274.422 75.97,274.311 75.947,274.199C75.924,274.087 75.912,273.982 75.912,273.883L75.912,273.426C75.912,273.165 75.96,272.944 76.055,272.762C76.15,272.579 76.268,272.432 76.41,272.32C76.552,272.208 76.706,272.127 76.873,272.076C77.04,272.025 77.193,272 77.334,272L78.709,272C78.884,272 79.041,272.022 79.18,272.066C79.319,272.111 79.442,272.17 79.547,272.244C79.652,272.318 79.742,272.403 79.816,272.5C79.891,272.597 79.951,272.698 79.998,272.803C80.045,272.908 80.079,273.015 80.102,273.123C80.124,273.231 80.135,273.332 80.135,273.426L80.135,273.883C80.135,274.138 80.089,274.36 79.998,274.547C80.081,274.602 80.159,274.666 80.232,274.74C80.305,274.815 80.369,274.9 80.424,274.996C80.479,275.093 80.522,275.201 80.553,275.322C80.584,275.443 80.6,275.577 80.6,275.723L80.6,276.176ZM79.119,273.434C79.119,273.296 79.084,273.192 79.014,273.121C78.943,273.051 78.842,273.016 78.709,273.016L77.342,273.016C77.204,273.016 77.102,273.051 77.035,273.121C76.969,273.192 76.936,273.293 76.936,273.426L76.936,273.883C76.936,274.018 76.97,274.12 77.039,274.188C77.108,274.255 77.207,274.289 77.334,274.289L78.709,274.289C78.847,274.289 78.95,274.255 79.018,274.186C79.085,274.117 79.119,274.016 79.119,273.883L79.119,273.434ZM79.572,275.723C79.572,275.592 79.536,275.491 79.465,275.42C79.393,275.348 79.296,275.312 79.174,275.312L76.877,275.312C76.752,275.312 76.653,275.351 76.58,275.43C76.507,275.508 76.471,275.606 76.471,275.723L76.471,276.176C76.471,276.301 76.509,276.4 76.586,276.475C76.663,276.549 76.76,276.586 76.877,276.586L79.174,276.586C79.304,276.586 79.403,276.547 79.471,276.469C79.538,276.391 79.572,276.293 79.572,276.176L79.572,275.723Z" style="fill-rule:nonzero;"/>
        <path d="M45.164,272L41.629,277.602L40.539,277.602L44.078,272L45.164,272Z" style="fill-rule:nonzero;"/>
        <path d="M51.047,277.602L50.024,277.602L50.024,275.312L46.414,275.312C46.341,275.312 46.274,275.298 46.211,275.271C46.148,275.244 46.094,275.207 46.049,275.162C46.004,275.117 45.968,275.063 45.942,275C45.915,274.937 45.902,274.871 45.902,274.801L45.902,272L46.918,272L46.918,274.289L50.024,274.289L50.024,272L51.047,272L51.047,277.602Z" style="fill-rule:nonzero;"/>
        <path d="M15.622,272L12.087,277.602L10.997,277.602L14.536,272L15.622,272Z" style="fill-rule:nonzero;"/>
        <path d="M21.423,277.602L16.279,277.602L16.279,275.723C16.279,275.626 16.29,275.524 16.312,275.416C16.334,275.308 16.368,275.201 16.415,275.094C16.462,274.987 16.523,274.886 16.597,274.789C16.671,274.693 16.761,274.608 16.866,274.533C16.972,274.459 17.094,274.4 17.232,274.355C17.37,274.311 17.526,274.289 17.7,274.289L19.989,274.289C20.127,274.289 20.229,274.255 20.296,274.186C20.363,274.117 20.396,274.016 20.396,273.883L20.396,273.434C20.396,273.296 20.362,273.192 20.294,273.121C20.227,273.051 20.128,273.016 19.997,273.016L16.736,273.016L16.736,272L19.997,272C20.169,272 20.324,272.022 20.462,272.066C20.6,272.111 20.722,272.17 20.827,272.244C20.933,272.318 21.024,272.403 21.099,272.5C21.174,272.597 21.236,272.698 21.284,272.803C21.333,272.908 21.368,273.015 21.39,273.123C21.412,273.231 21.423,273.332 21.423,273.426L21.423,273.883C21.423,274.146 21.375,274.368 21.28,274.549C21.185,274.73 21.066,274.877 20.923,274.99C20.78,275.103 20.625,275.185 20.46,275.236C20.295,275.287 20.14,275.312 19.997,275.312L17.7,275.312C17.617,275.312 17.55,275.324 17.501,275.348C17.452,275.371 17.413,275.402 17.386,275.441C17.359,275.48 17.338,275.525 17.325,275.574C17.312,275.623 17.302,275.673 17.294,275.723L17.294,276.586L21.423,276.586L21.423,277.602Z" style="fill-rule:nonzero;"/>
        <path d="M102.677,231.176C102.677,231.351 102.655,231.507 102.611,231.646C102.567,231.785 102.508,231.908 102.435,232.014C102.362,232.119 102.278,232.209 102.181,232.283C102.085,232.358 101.984,232.418 101.879,232.465C101.773,232.512 101.666,232.546 101.558,232.568C101.45,232.591 101.348,232.602 101.252,232.602L99.42,232.602C99.279,232.602 99.126,232.577 98.959,232.527C98.792,232.478 98.638,232.396 98.496,232.283C98.354,232.17 98.235,232.023 98.14,231.842C98.045,231.661 97.998,231.439 97.998,231.176L97.998,229.801C97.998,229.54 98.045,229.32 98.14,229.139C98.235,228.958 98.354,228.81 98.496,228.697C98.638,228.584 98.792,228.502 98.959,228.453C99.126,228.404 99.279,228.379 99.42,228.379L101.252,228.379C101.512,228.379 101.733,228.426 101.916,228.52C102.098,228.613 102.245,228.731 102.357,228.873C102.469,229.015 102.55,229.169 102.601,229.336C102.652,229.503 102.677,229.658 102.677,229.801L102.677,231.176ZM101.662,229.809C101.662,229.668 101.627,229.564 101.556,229.496C101.486,229.429 101.385,229.395 101.252,229.395L99.427,229.395C99.292,229.395 99.189,229.429 99.119,229.498C99.048,229.567 99.013,229.668 99.013,229.801L99.013,231.176C99.013,231.309 99.048,231.41 99.119,231.48C99.189,231.551 99.292,231.586 99.427,231.586L101.252,231.586C101.39,231.586 101.493,231.551 101.56,231.48C101.628,231.41 101.662,231.309 101.662,231.176L101.662,229.809Z" style="fill-rule:nonzero;"/>
        <path d="M108.158,232.09C108.158,232.163 108.145,232.23 108.119,232.293C108.093,232.356 108.057,232.41 108.011,232.455C107.966,232.5 107.912,232.536 107.851,232.562C107.79,232.589 107.724,232.602 107.654,232.602L105.357,232.602C105.232,232.602 105.099,232.588 104.957,232.559C104.815,232.53 104.675,232.484 104.537,232.42C104.399,232.356 104.265,232.275 104.136,232.178C104.007,232.08 103.895,231.961 103.798,231.822C103.702,231.683 103.625,231.522 103.566,231.34C103.507,231.157 103.478,230.952 103.478,230.723L103.478,228.379L104.494,228.379L104.494,230.723C104.494,230.856 104.517,230.975 104.562,231.08C104.607,231.185 104.669,231.276 104.748,231.352C104.826,231.427 104.918,231.485 105.023,231.525C105.128,231.566 105.242,231.586 105.365,231.586L107.142,231.586L107.142,228.379L108.158,228.379L108.158,232.09Z" style="fill-rule:nonzero;"/>
        <path d="M112.951,229.395L111.177,229.395L111.177,232.602L110.15,232.602L110.15,229.395L108.83,229.395L108.83,228.379L110.15,228.379L110.15,227L111.177,227L111.177,228.379L112.951,228.379L112.951,229.395Z" style="fill-rule:nonzero;"/>
        <path d="M70.629,231.176C70.629,231.351 70.607,231.507 70.562,231.646C70.518,231.785 70.46,231.908 70.387,232.014C70.314,232.119 70.229,232.209 70.133,232.283C70.036,232.358 69.935,232.418 69.83,232.465C69.725,232.512 69.618,232.546 69.51,232.568C69.402,232.591 69.3,232.602 69.203,232.602L67.371,232.602C67.23,232.602 67.077,232.577 66.91,232.527C66.743,232.478 66.589,232.396 66.447,232.283C66.305,232.17 66.187,232.023 66.092,231.842C65.997,231.661 65.949,231.439 65.949,231.176L65.949,229.801C65.949,229.54 65.997,229.32 66.092,229.139C66.187,228.958 66.305,228.81 66.447,228.697C66.589,228.584 66.743,228.502 66.91,228.453C67.077,228.404 67.23,228.379 67.371,228.379L69.203,228.379C69.464,228.379 69.685,228.426 69.867,228.52C70.05,228.613 70.197,228.731 70.309,228.873C70.421,229.015 70.502,229.169 70.553,229.336C70.604,229.503 70.629,229.658 70.629,229.801L70.629,231.176ZM69.613,229.809C69.613,229.668 69.578,229.564 69.508,229.496C69.437,229.429 69.336,229.395 69.203,229.395L67.379,229.395C67.244,229.395 67.141,229.429 67.07,229.498C67,229.567 66.965,229.668 66.965,229.801L66.965,231.176C66.965,231.309 67,231.41 67.07,231.48C67.141,231.551 67.244,231.586 67.379,231.586L69.203,231.586C69.341,231.586 69.444,231.551 69.512,231.48C69.579,231.41 69.613,231.309 69.613,231.176L69.613,229.809Z" style="fill-rule:nonzero;"/>
        <path d="M76.109,232.09C76.109,232.163 76.096,232.23 76.07,232.293C76.044,232.356 76.008,232.41 75.963,232.455C75.918,232.5 75.864,232.536 75.803,232.562C75.742,232.589 75.676,232.602 75.605,232.602L73.309,232.602C73.184,232.602 73.05,232.588 72.908,232.559C72.766,232.53 72.626,232.484 72.488,232.42C72.35,232.356 72.217,232.275 72.088,232.178C71.959,232.08 71.847,231.961 71.75,231.822C71.653,231.683 71.576,231.522 71.518,231.34C71.459,231.157 71.43,230.952 71.43,230.723L71.43,228.379L72.445,228.379L72.445,230.723C72.445,230.856 72.468,230.975 72.514,231.08C72.559,231.185 72.621,231.276 72.699,231.352C72.777,231.427 72.869,231.485 72.975,231.525C73.08,231.566 73.194,231.586 73.316,231.586L75.094,231.586L75.094,228.379L76.109,228.379L76.109,232.09Z" style="fill-rule:nonzero;"/>
        <path d="M80.902,229.395L79.129,229.395L79.129,232.602L78.102,232.602L78.102,229.395L76.781,229.395L76.781,228.379L78.102,228.379L78.102,227L79.129,227L79.129,228.379L80.902,228.379L80.902,229.395Z" style="fill-rule:nonzero;"/>
        <path d="M84.242,229L85.953,227L87.34,227L84.93,229.809L87.324,232.602L85.945,232.602L84.242,230.617L82.547,232.602L81.164,232.602L83.555,229.809L81.156,227L82.531,227L84.242,229Z" style="fill-rule:nonzero;"/>
        <path d="M42.922,210.09C42.922,210.163 42.909,210.23 42.883,210.293C42.857,210.356 42.821,210.41 42.775,210.455C42.73,210.5 42.676,210.536 42.615,210.562C42.554,210.589 42.489,210.602 42.418,210.602L40.121,210.602C39.996,210.602 39.863,210.588 39.721,210.559C39.579,210.53 39.439,210.484 39.301,210.42C39.163,210.356 39.029,210.275 38.9,210.178C38.771,210.08 38.659,209.961 38.563,209.822C38.466,209.683 38.389,209.522 38.33,209.34C38.271,209.157 38.242,208.952 38.242,208.723L38.242,206.379L39.258,206.379L39.258,208.723C39.258,208.856 39.281,208.975 39.326,209.08C39.372,209.185 39.434,209.276 39.512,209.352C39.59,209.427 39.682,209.485 39.787,209.525C39.892,209.566 40.006,209.586 40.129,209.586L41.906,209.586L41.906,206.379L42.922,206.379L42.922,210.09Z" style="fill-rule:nonzero;"/>
        <path d="M48.356,205L44.82,210.602L43.731,210.602L47.27,205L48.356,205Z" style="fill-rule:nonzero;"/>
        <path d="M53.555,209.176C53.555,209.351 53.533,209.507 53.488,209.646C53.444,209.785 53.386,209.908 53.313,210.014C53.24,210.119 53.155,210.209 53.059,210.283C52.962,210.358 52.861,210.418 52.756,210.465C52.651,210.512 52.544,210.546 52.436,210.568C52.328,210.591 52.226,210.602 52.129,210.602L50.297,210.602C50.122,210.602 49.966,210.58 49.828,210.535C49.69,210.491 49.568,210.432 49.463,210.357C49.358,210.283 49.268,210.198 49.193,210.102C49.119,210.005 49.059,209.904 49.012,209.799C48.965,209.694 48.931,209.587 48.908,209.479C48.886,209.37 48.875,209.269 48.875,209.176L48.875,207.801C48.875,207.54 48.923,207.32 49.018,207.139C49.113,206.958 49.231,206.81 49.373,206.697C49.515,206.584 49.669,206.502 49.836,206.453C50.003,206.404 50.156,206.379 50.297,206.379L52.129,206.379L52.129,207.395L50.305,207.395C50.17,207.395 50.067,207.429 49.996,207.498C49.926,207.567 49.891,207.668 49.891,207.801L49.891,209.168C49.891,209.306 49.925,209.41 49.994,209.48C50.063,209.551 50.164,209.586 50.297,209.586L52.129,209.586C52.267,209.586 52.37,209.551 52.438,209.48C52.505,209.41 52.539,209.309 52.539,209.176L52.539,204.594L53.555,204.594L53.555,209.176Z" style="fill-rule:nonzero;"/>
        <path d="M9.163,210.602L6.409,210.602C6.268,210.602 6.115,210.577 5.948,210.527C5.781,210.478 5.627,210.396 5.486,210.283C5.344,210.17 5.225,210.023 5.13,209.842C5.035,209.661 4.988,209.439 4.988,209.176L4.988,207.801C4.988,207.704 4.999,207.603 5.021,207.496C5.043,207.389 5.077,207.283 5.124,207.178C5.171,207.073 5.232,206.972 5.306,206.875C5.38,206.778 5.47,206.694 5.575,206.621C5.681,206.548 5.803,206.49 5.941,206.445C6.079,206.401 6.235,206.379 6.409,206.379L9.163,206.379L9.163,207.395L6.409,207.395C6.276,207.395 6.176,207.429 6.107,207.496C6.038,207.564 6.003,207.668 6.003,207.809L6.003,209.176C6.003,209.309 6.038,209.41 6.109,209.48C6.179,209.551 6.282,209.586 6.417,209.586L9.163,209.586L9.163,210.602Z" style="fill-rule:nonzero;"/>
        <path d="M11.859,210.602L11.405,210.602C11.26,210.602 11.104,210.577 10.939,210.527C10.774,210.478 10.619,210.396 10.476,210.283C10.333,210.17 10.214,210.023 10.12,209.842C10.027,209.661 9.98,209.439 9.98,209.176L9.98,204.594L10.995,204.594L10.995,209.176C10.995,209.301 11.034,209.4 11.113,209.475C11.191,209.549 11.288,209.586 11.405,209.586L11.859,209.586L11.859,210.602Z" style="fill-rule:nonzero;"/>
        <path d="M17.105,209.176C17.105,209.351 17.083,209.507 17.038,209.646C16.994,209.785 16.936,209.908 16.863,210.014C16.79,210.119 16.705,210.209 16.609,210.283C16.512,210.358 16.411,210.418 16.306,210.465C16.201,210.512 16.094,210.546 15.986,210.568C15.877,210.591 15.775,210.602 15.679,210.602L13.847,210.602C13.706,210.602 13.553,210.577 13.386,210.527C13.219,210.478 13.065,210.396 12.923,210.283C12.781,210.17 12.663,210.023 12.568,209.842C12.473,209.661 12.425,209.439 12.425,209.176L12.425,207.801C12.425,207.54 12.473,207.32 12.568,207.139C12.663,206.958 12.781,206.81 12.923,206.697C13.065,206.584 13.219,206.502 13.386,206.453C13.553,206.404 13.706,206.379 13.847,206.379L15.679,206.379C15.94,206.379 16.161,206.426 16.343,206.52C16.525,206.613 16.672,206.731 16.784,206.873C16.896,207.015 16.978,207.169 17.029,207.336C17.08,207.503 17.105,207.658 17.105,207.801L17.105,209.176ZM16.089,207.809C16.089,207.668 16.054,207.564 15.984,207.496C15.913,207.429 15.812,207.395 15.679,207.395L13.855,207.395C13.72,207.395 13.617,207.429 13.546,207.498C13.476,207.567 13.441,207.668 13.441,207.801L13.441,209.176C13.441,209.309 13.476,209.41 13.546,209.48C13.617,209.551 13.72,209.586 13.855,209.586L15.679,209.586C15.817,209.586 15.92,209.551 15.988,209.48C16.055,209.41 16.089,209.309 16.089,209.176L16.089,207.809Z" style="fill-rule:nonzero;"/>
        <path d="M22.058,210.602L19.304,210.602C19.163,210.602 19.01,210.577 18.843,210.527C18.676,210.478 18.522,210.396 18.38,210.283C18.238,210.17 18.12,210.023 18.025,209.842C17.93,209.661 17.882,209.439 17.882,209.176L17.882,207.801C17.882,207.704 17.893,207.603 17.915,207.496C17.937,207.389 17.972,207.283 18.019,207.178C18.066,207.073 18.126,206.972 18.2,206.875C18.275,206.778 18.365,206.694 18.47,206.621C18.575,206.548 18.697,206.49 18.835,206.445C18.973,206.401 19.129,206.379 19.304,206.379L22.058,206.379L22.058,207.395L19.304,207.395C19.171,207.395 19.07,207.429 19.001,207.496C18.932,207.564 18.898,207.668 18.898,207.809L18.898,209.176C18.898,209.309 18.933,209.41 19.003,209.48C19.074,209.551 19.177,209.586 19.312,209.586L22.058,209.586L22.058,210.602Z" style="fill-rule:nonzero;"/>
        <path d="M27.859,210.602L26.394,210.602L24.347,208.625C24.232,208.521 24.179,208.391 24.187,208.234C24.192,208.161 24.211,208.093 24.243,208.029C24.276,207.966 24.321,207.912 24.378,207.867L26.234,206.371L27.859,206.371L25.468,208.297L27.859,210.602ZM23.929,210.602L22.913,210.602L22.913,204.594L23.929,204.594L23.929,210.602Z" style="fill-rule:nonzero;"/>
        <path d="M76.467,171.323L74.187,173.813L76.755,176.602L75.007,176.602L73.317,174.761L71.628,176.602L69.875,176.602L72.438,173.804L70.168,171.323L71.906,171.323L73.308,172.852L74.719,171.323L76.467,171.323Z" style="fill-rule:nonzero;"/>
        <path d="M83.303,174.819C83.303,175.148 83.244,175.425 83.125,175.652C83.006,175.878 82.857,176.062 82.68,176.204C82.503,176.345 82.31,176.447 82.102,176.509C81.893,176.571 81.7,176.602 81.521,176.602L77.448,176.602L77.448,175.332L81.521,175.332C81.693,175.332 81.821,175.288 81.904,175.2C81.987,175.112 82.028,174.985 82.028,174.819L82.028,173.74L77.448,173.74L77.448,172.461L82.028,172.461L82.028,171.392C82.028,171.043 81.859,170.869 81.521,170.869L77.448,170.869L77.448,169.6L81.521,169.6C81.739,169.6 81.934,169.628 82.106,169.683C82.279,169.738 82.431,169.812 82.563,169.905C82.695,169.998 82.808,170.104 82.902,170.225C82.997,170.345 83.073,170.471 83.132,170.603C83.191,170.735 83.234,170.868 83.261,171.003C83.289,171.138 83.303,171.265 83.303,171.382L83.303,174.819Z" style="fill-rule:nonzero;"/>
        <path d="M90.075,169.6L85.656,176.602L84.294,176.602L88.718,169.6L90.075,169.6Z" style="fill-rule:nonzero;"/>
        <path d="M96.696,177.109C96.696,177.328 96.668,177.524 96.613,177.698C96.558,177.872 96.485,178.025 96.394,178.157C96.303,178.288 96.197,178.401 96.076,178.494C95.956,178.587 95.83,178.662 95.698,178.721C95.566,178.78 95.433,178.823 95.3,178.85C95.167,178.878 95.04,178.892 94.919,178.892L92.629,178.892L92.629,177.622L94.919,177.622C95.088,177.622 95.215,177.578 95.3,177.49C95.385,177.402 95.427,177.275 95.427,177.109L95.427,171.323L96.696,171.323L96.696,177.109ZM94.919,176.602L92.629,176.602C92.446,176.602 92.252,176.571 92.045,176.509C91.838,176.447 91.646,176.345 91.467,176.204C91.288,176.062 91.139,175.878 91.022,175.652C90.905,175.425 90.847,175.148 90.847,174.819L90.847,171.323L92.116,171.323L92.116,174.819C92.116,174.985 92.16,175.112 92.248,175.2C92.336,175.288 92.466,175.332 92.639,175.332L94.919,175.332L94.919,176.602Z" style="fill-rule:nonzero;"/>
        <path d="M106.018,173.672C106.018,173.959 105.981,174.23 105.908,174.485C105.835,174.74 105.731,174.977 105.598,175.195C105.464,175.413 105.306,175.608 105.124,175.781C104.942,175.954 104.743,176.101 104.526,176.223C104.309,176.345 104.079,176.439 103.835,176.504C103.591,176.569 103.342,176.602 103.088,176.602L100.798,176.602C100.541,176.602 100.29,176.569 100.046,176.504C99.802,176.439 99.572,176.345 99.355,176.223C99.138,176.101 98.939,175.954 98.757,175.781C98.574,175.608 98.417,175.413 98.286,175.195C98.154,174.977 98.051,174.74 97.978,174.485C97.905,174.23 97.868,173.959 97.868,173.672L97.868,172.529C97.868,172.1 97.949,171.706 98.11,171.348C98.271,170.99 98.487,170.681 98.757,170.422C99.027,170.163 99.339,169.962 99.692,169.817C100.045,169.672 100.414,169.6 100.798,169.6L103.088,169.6C103.342,169.6 103.591,169.632 103.835,169.697C104.079,169.762 104.309,169.856 104.526,169.978C104.743,170.1 104.942,170.247 105.124,170.42C105.306,170.593 105.464,170.788 105.598,171.006C105.731,171.224 105.835,171.461 105.908,171.716C105.981,171.972 106.018,172.243 106.018,172.529L106.018,173.672ZM104.738,172.529C104.738,172.278 104.693,172.051 104.602,171.846C104.511,171.641 104.389,171.465 104.238,171.318C104.087,171.172 103.912,171.06 103.713,170.981C103.514,170.903 103.306,170.866 103.088,170.869L100.798,170.869C100.586,170.866 100.38,170.902 100.18,170.979C99.98,171.056 99.803,171.166 99.648,171.311C99.493,171.456 99.37,171.631 99.277,171.838C99.184,172.045 99.138,172.275 99.138,172.529L99.138,173.672C99.138,173.926 99.183,174.155 99.274,174.36C99.365,174.565 99.488,174.74 99.641,174.885C99.794,175.03 99.97,175.142 100.17,175.22C100.371,175.298 100.58,175.335 100.798,175.332L103.088,175.332C103.339,175.332 103.566,175.291 103.769,175.208C103.972,175.125 104.146,175.01 104.289,174.863C104.432,174.717 104.543,174.542 104.621,174.338C104.699,174.135 104.738,173.913 104.738,173.672L104.738,172.529ZM104.187,171.602C104.236,171.673 104.268,171.75 104.284,171.833C104.301,171.916 104.301,171.998 104.284,172.078C104.268,172.157 104.236,172.232 104.189,172.302C104.142,172.372 104.081,172.431 104.006,172.48L100.578,174.771C100.523,174.813 100.466,174.842 100.407,174.858C100.348,174.875 100.288,174.883 100.227,174.883C100.122,174.883 100.023,174.859 99.929,174.81C99.834,174.761 99.758,174.691 99.699,174.6C99.65,174.528 99.618,174.451 99.602,174.368C99.585,174.285 99.584,174.203 99.599,174.124C99.614,174.044 99.644,173.969 99.689,173.899C99.735,173.829 99.795,173.77 99.87,173.721L103.308,171.431C103.379,171.382 103.457,171.349 103.54,171.333C103.623,171.317 103.704,171.317 103.784,171.333C103.863,171.349 103.938,171.38 104.008,171.426C104.078,171.471 104.138,171.53 104.187,171.602Z" style="fill-rule:nonzero;"/>
        <path d="M21.351,148.323L19.07,150.813L21.639,153.602L19.891,153.602L18.201,151.761L16.512,153.602L14.759,153.602L17.322,150.804L15.052,148.323L16.79,148.323L18.191,149.852L19.603,148.323L21.351,148.323Z" style="fill-rule:nonzero;"/>
        <path d="M28.626,153.602L22.195,153.602L22.195,151.253C22.195,151.132 22.209,151.005 22.237,150.87C22.264,150.735 22.307,150.6 22.366,150.467C22.425,150.334 22.5,150.207 22.593,150.086C22.686,149.965 22.798,149.859 22.93,149.766C23.062,149.673 23.214,149.599 23.387,149.544C23.56,149.489 23.755,149.461 23.973,149.461L26.834,149.461C27.007,149.461 27.134,149.418 27.217,149.332C27.3,149.245 27.342,149.119 27.342,148.953L27.342,148.392C27.342,148.219 27.3,148.089 27.215,148.001C27.13,147.913 27.007,147.869 26.844,147.869L22.767,147.869L22.767,146.6L26.844,146.6C27.059,146.6 27.252,146.628 27.425,146.683C27.598,146.738 27.75,146.812 27.881,146.905C28.013,146.998 28.126,147.104 28.221,147.225C28.315,147.345 28.392,147.471 28.453,147.603C28.513,147.735 28.557,147.868 28.584,148.003C28.612,148.138 28.626,148.265 28.626,148.382L28.626,148.953C28.626,149.282 28.567,149.559 28.448,149.786C28.329,150.012 28.18,150.196 28.001,150.337C27.822,150.479 27.629,150.582 27.422,150.645C27.215,150.708 27.023,150.74 26.844,150.74L23.973,150.74C23.868,150.74 23.785,150.755 23.724,150.784C23.662,150.813 23.614,150.852 23.58,150.901C23.545,150.95 23.52,151.006 23.504,151.067C23.487,151.129 23.474,151.191 23.465,151.253L23.465,152.332L28.626,152.332L28.626,153.602Z" style="fill-rule:nonzero;"/>
        <path d="M35.398,146.6L30.979,153.602L29.617,153.602L34.041,146.6L35.398,146.6Z" style="fill-rule:nonzero;"/>
        <path d="M42.02,154.109C42.02,154.328 41.992,154.524 41.937,154.698C41.882,154.872 41.808,155.025 41.717,155.157C41.626,155.288 41.52,155.401 41.399,155.494C41.279,155.587 41.153,155.662 41.021,155.721C40.889,155.78 40.756,155.823 40.623,155.85C40.49,155.878 40.363,155.892 40.242,155.892L37.952,155.892L37.952,154.622L40.242,154.622C40.411,154.622 40.538,154.578 40.623,154.49C40.708,154.402 40.75,154.275 40.75,154.109L40.75,148.323L42.02,148.323L42.02,154.109ZM40.242,153.602L37.952,153.602C37.77,153.602 37.576,153.571 37.369,153.509C37.162,153.447 36.969,153.345 36.79,153.204C36.611,153.062 36.463,152.878 36.346,152.652C36.229,152.425 36.17,152.148 36.17,151.819L36.17,148.323L37.439,148.323L37.439,151.819C37.439,151.985 37.483,152.112 37.571,152.2C37.659,152.288 37.789,152.332 37.962,152.332L40.242,152.332L40.242,153.602Z" style="fill-rule:nonzero;"/>
        <path d="M45.403,153.602L44.129,153.602L44.129,147.869L42.981,147.869L42.981,146.6L45.403,146.6L45.403,153.602Z" style="fill-rule:nonzero;"/>
        <path d="M78.351,60.323L76.07,62.813L78.639,65.602L76.891,65.602L75.201,63.761L73.512,65.602L71.759,65.602L74.322,62.804L72.052,60.323L73.79,60.323L75.191,61.852L76.603,60.323L78.351,60.323Z" style="fill-rule:nonzero;"/>
        <path d="M81.446,65.602L80.172,65.602L80.172,59.869L79.024,59.869L79.024,58.6L81.446,58.6L81.446,65.602Z" style="fill-rule:nonzero;"/>
        <path d="M88.419,58.6L84,65.602L82.638,65.602L87.062,58.6L88.419,58.6Z" style="fill-rule:nonzero;"/>
        <path d="M95.04,66.109C95.04,66.328 95.012,66.524 94.957,66.698C94.902,66.872 94.828,67.025 94.737,67.157C94.646,67.288 94.541,67.401 94.42,67.494C94.299,67.587 94.173,67.662 94.042,67.721C93.91,67.78 93.777,67.823 93.644,67.85C93.51,67.878 93.383,67.892 93.263,67.892L90.973,67.892L90.973,66.622L93.263,66.622C93.432,66.622 93.559,66.578 93.644,66.49C93.729,66.402 93.771,66.275 93.771,66.109L93.771,60.323L95.04,60.323L95.04,66.109ZM93.263,65.602L90.973,65.602C90.79,65.602 90.596,65.571 90.389,65.509C90.182,65.447 89.99,65.345 89.811,65.204C89.632,65.062 89.483,64.878 89.366,64.652C89.249,64.425 89.19,64.148 89.19,63.819L89.19,60.323L90.46,60.323L90.46,63.819C90.46,63.985 90.504,64.112 90.592,64.2C90.68,64.288 90.81,64.332 90.982,64.332L93.263,64.332L93.263,65.602Z" style="fill-rule:nonzero;"/>
        <path d="M102.604,65.602L96.173,65.602L96.173,63.253C96.173,63.132 96.187,63.005 96.214,62.87C96.242,62.735 96.285,62.6 96.344,62.467C96.403,62.334 96.478,62.207 96.571,62.086C96.664,61.965 96.776,61.859 96.908,61.766C97.039,61.673 97.191,61.599 97.364,61.544C97.537,61.489 97.732,61.461 97.95,61.461L100.812,61.461C100.984,61.461 101.112,61.418 101.195,61.332C101.278,61.245 101.319,61.119 101.319,60.953L101.319,60.392C101.319,60.219 101.277,60.089 101.192,60.001C101.107,59.913 100.984,59.869 100.821,59.869L96.744,59.869L96.744,58.6L100.821,58.6C101.036,58.6 101.23,58.628 101.402,58.683C101.575,58.738 101.727,58.812 101.859,58.905C101.991,58.998 102.104,59.104 102.198,59.225C102.293,59.345 102.37,59.471 102.43,59.603C102.491,59.735 102.535,59.868 102.562,60.003C102.59,60.138 102.604,60.265 102.604,60.382L102.604,60.953C102.604,61.282 102.544,61.559 102.425,61.786C102.306,62.012 102.158,62.196 101.979,62.337C101.8,62.479 101.607,62.582 101.4,62.645C101.193,62.708 101,62.74 100.821,62.74L97.95,62.74C97.846,62.74 97.763,62.755 97.701,62.784C97.639,62.813 97.591,62.852 97.557,62.901C97.523,62.95 97.498,63.006 97.481,63.067C97.465,63.129 97.452,63.191 97.442,63.253L97.442,64.332L102.604,64.332L102.604,65.602Z" style="fill-rule:nonzero;"/>
        <path d="M18.851,37.323L16.57,39.813L19.139,42.602L17.391,42.602L15.701,40.761L14.012,42.602L12.259,42.602L14.822,39.804L12.552,37.323L14.29,37.323L15.691,38.852L17.103,37.323L18.851,37.323Z" style="fill-rule:nonzero;"/>
        <path d="M27.884,39.672C27.884,39.959 27.847,40.23 27.774,40.485C27.701,40.74 27.597,40.977 27.464,41.195C27.331,41.413 27.173,41.608 26.99,41.781C26.808,41.954 26.609,42.101 26.392,42.223C26.175,42.345 25.945,42.439 25.701,42.504C25.457,42.569 25.208,42.602 24.954,42.602L22.664,42.602C22.407,42.602 22.156,42.569 21.912,42.504C21.668,42.439 21.438,42.345 21.221,42.223C21.004,42.101 20.805,41.954 20.623,41.781C20.441,41.608 20.284,41.413 20.152,41.195C20.02,40.977 19.917,40.74 19.844,40.485C19.771,40.23 19.734,39.959 19.734,39.672L19.734,38.529C19.734,38.1 19.815,37.706 19.976,37.348C20.137,36.99 20.353,36.681 20.623,36.422C20.893,36.163 21.205,35.962 21.558,35.817C21.911,35.672 22.28,35.6 22.664,35.6L24.954,35.6C25.208,35.6 25.457,35.632 25.701,35.697C25.945,35.762 26.175,35.856 26.392,35.978C26.609,36.1 26.808,36.247 26.99,36.42C27.173,36.593 27.331,36.788 27.464,37.006C27.597,37.224 27.701,37.461 27.774,37.716C27.847,37.972 27.884,38.243 27.884,38.529L27.884,39.672ZM26.604,38.529C26.604,38.278 26.559,38.051 26.468,37.846C26.377,37.641 26.255,37.465 26.104,37.318C25.953,37.172 25.778,37.06 25.579,36.981C25.38,36.903 25.172,36.866 24.954,36.869L22.664,36.869C22.453,36.866 22.247,36.902 22.046,36.979C21.846,37.056 21.669,37.166 21.514,37.311C21.359,37.456 21.236,37.631 21.143,37.838C21.05,38.045 21.004,38.275 21.004,38.529L21.004,39.672C21.004,39.926 21.05,40.155 21.141,40.36C21.232,40.565 21.354,40.74 21.507,40.885C21.66,41.03 21.836,41.142 22.037,41.22C22.237,41.298 22.446,41.335 22.664,41.332L24.954,41.332C25.205,41.332 25.432,41.291 25.635,41.208C25.838,41.125 26.012,41.01 26.155,40.863C26.298,40.717 26.409,40.542 26.487,40.338C26.565,40.135 26.604,39.913 26.604,39.672L26.604,38.529ZM26.053,37.602C26.102,37.673 26.134,37.75 26.15,37.833C26.167,37.916 26.167,37.998 26.15,38.078C26.134,38.157 26.102,38.232 26.055,38.302C26.008,38.372 25.947,38.431 25.872,38.48L22.444,40.771C22.389,40.813 22.332,40.842 22.273,40.858C22.215,40.875 22.155,40.883 22.093,40.883C21.989,40.883 21.89,40.859 21.795,40.81C21.7,40.761 21.624,40.691 21.565,40.6C21.516,40.528 21.484,40.451 21.468,40.368C21.451,40.285 21.45,40.203 21.465,40.124C21.48,40.044 21.51,39.969 21.556,39.899C21.601,39.829 21.661,39.77 21.736,39.721L25.174,37.431C25.245,37.382 25.323,37.349 25.406,37.333C25.489,37.317 25.57,37.317 25.65,37.333C25.73,37.349 25.805,37.38 25.875,37.426C25.944,37.471 26.004,37.53 26.053,37.602Z" style="fill-rule:nonzero;"/>
        <path d="M34.422,35.6L30.003,42.602L28.641,42.602L33.064,35.6L34.422,35.6Z" style="fill-rule:nonzero;"/>
        <path d="M41.043,43.109C41.043,43.328 41.015,43.524 40.96,43.698C40.905,43.872 40.831,44.025 40.74,44.157C40.649,44.288 40.544,44.401 40.423,44.494C40.302,44.587 40.176,44.662 40.044,44.721C39.913,44.78 39.78,44.823 39.646,44.85C39.513,44.878 39.386,44.892 39.266,44.892L36.976,44.892L36.976,43.622L39.266,43.622C39.435,43.622 39.562,43.578 39.646,43.49C39.731,43.402 39.773,43.275 39.773,43.109L39.773,37.323L41.043,37.323L41.043,43.109ZM39.266,42.602L36.976,42.602C36.793,42.602 36.599,42.571 36.392,42.509C36.185,42.447 35.992,42.345 35.813,42.204C35.634,42.062 35.486,41.878 35.369,41.652C35.252,41.425 35.193,41.148 35.193,40.819L35.193,37.323L36.463,37.323L36.463,40.819C36.463,40.985 36.507,41.112 36.595,41.2C36.683,41.288 36.813,41.332 36.985,41.332L39.266,41.332L39.266,42.602Z" style="fill-rule:nonzero;"/>
        <path d="M48.167,40.819C48.167,41.148 48.108,41.425 47.989,41.652C47.87,41.878 47.722,42.062 47.544,42.204C47.367,42.345 47.174,42.447 46.966,42.509C46.757,42.571 46.564,42.602 46.385,42.602L42.312,42.602L42.312,41.332L46.385,41.332C46.558,41.332 46.685,41.288 46.768,41.2C46.851,41.112 46.893,40.985 46.893,40.819L46.893,39.74L42.312,39.74L42.312,38.461L46.893,38.461L46.893,37.392C46.893,37.043 46.724,36.869 46.385,36.869L42.312,36.869L42.312,35.6L46.385,35.6C46.603,35.6 46.798,35.628 46.971,35.683C47.143,35.738 47.295,35.812 47.427,35.905C47.559,35.998 47.672,36.104 47.767,36.225C47.861,36.345 47.937,36.471 47.996,36.603C48.055,36.735 48.098,36.868 48.125,37.003C48.153,37.138 48.167,37.265 48.167,37.382L48.167,40.819Z" style="fill-rule:nonzero;"/>
        <path d="M75.749,25.602L73.446,25.602L73.446,20.451L65.325,20.451C65.161,20.451 65.009,20.42 64.868,20.359C64.727,20.298 64.606,20.216 64.503,20.113C64.401,20.01 64.321,19.889 64.262,19.748C64.203,19.607 64.174,19.458 64.174,19.3L64.174,12.998L66.459,12.998L66.459,18.148L73.446,18.148L73.446,12.998L75.749,12.998L75.749,25.602Z" style="fill-rule:nonzero;"/>
        <path d="M87.403,22.394C87.403,22.786 87.353,23.139 87.254,23.453C87.154,23.766 87.022,24.042 86.858,24.279C86.694,24.516 86.504,24.718 86.287,24.885C86.07,25.052 85.843,25.189 85.606,25.294C85.369,25.399 85.128,25.477 84.885,25.527C84.642,25.577 84.412,25.602 84.195,25.602L78.008,25.602L78.008,23.316L84.178,23.316C84.489,23.316 84.723,23.237 84.881,23.079C85.039,22.921 85.118,22.693 85.118,22.394C85.089,21.784 84.781,21.479 84.195,21.479L80.653,21.479C80.149,21.479 79.721,21.391 79.37,21.216C79.019,21.04 78.733,20.82 78.513,20.557C78.294,20.293 78.136,20.009 78.039,19.704C77.942,19.399 77.894,19.115 77.894,18.852C77.894,18.342 77.985,17.913 78.166,17.564C78.347,17.215 78.576,16.933 78.852,16.716C79.127,16.499 79.426,16.343 79.748,16.246C80.07,16.149 80.372,16.101 80.653,16.101L86.27,16.101L86.27,18.386L80.671,18.386C80.554,18.386 80.461,18.399 80.394,18.425C80.327,18.452 80.277,18.487 80.245,18.531C80.212,18.575 80.193,18.622 80.188,18.671C80.182,18.721 80.179,18.769 80.179,18.816C80.185,18.91 80.202,18.983 80.231,19.036C80.26,19.089 80.297,19.127 80.341,19.15C80.385,19.174 80.435,19.187 80.491,19.19C80.546,19.193 80.6,19.194 80.653,19.194L84.195,19.194C84.781,19.194 85.279,19.3 85.689,19.511C86.1,19.722 86.431,19.987 86.683,20.306C86.935,20.625 87.118,20.973 87.232,21.348C87.346,21.723 87.403,22.071 87.403,22.394Z" style="fill-rule:nonzero;"/>
        <path d="M99.225,19.247C99.225,19.564 99.169,19.905 99.058,20.271C98.947,20.637 98.766,20.977 98.517,21.291C98.268,21.604 97.943,21.866 97.542,22.077C97.14,22.288 96.652,22.394 96.078,22.394L91.956,22.394L91.956,20.223L96.078,20.223C96.389,20.223 96.629,20.128 96.799,19.937C96.969,19.746 97.054,19.51 97.054,19.229C97.054,18.93 96.959,18.696 96.768,18.526C96.577,18.356 96.347,18.271 96.078,18.271L91.956,18.271C91.645,18.271 91.405,18.366 91.235,18.557C91.065,18.748 90.98,18.984 90.98,19.265L90.98,22.455C90.98,22.76 91.075,22.997 91.266,23.167C91.457,23.337 91.693,23.422 91.974,23.422L96.078,23.422L96.078,25.602L91.956,25.602C91.639,25.602 91.298,25.546 90.932,25.435C90.566,25.324 90.226,25.143 89.913,24.894C89.599,24.645 89.337,24.32 89.126,23.918C88.915,23.517 88.81,23.029 88.81,22.455L88.81,19.247C88.81,18.93 88.866,18.589 88.977,18.223C89.088,17.857 89.268,17.517 89.517,17.204C89.766,16.89 90.092,16.628 90.493,16.417C90.894,16.206 91.382,16.101 91.956,16.101L96.078,16.101C96.395,16.101 96.736,16.157 97.102,16.268C97.468,16.379 97.808,16.559 98.122,16.808C98.435,17.057 98.697,17.383 98.908,17.784C99.119,18.185 99.225,18.673 99.225,19.247Z" style="fill-rule:nonzero;"/>
        <path d="M111.099,28.572L108.813,28.572L108.813,19.3C108.813,19.001 108.737,18.774 108.585,18.619C108.432,18.464 108.201,18.386 107.891,18.386L103.769,18.386C103.488,18.386 103.265,18.472 103.101,18.645C102.936,18.818 102.854,19.036 102.854,19.3L102.854,22.394C102.854,22.693 102.933,22.921 103.092,23.079C103.25,23.237 103.481,23.316 103.786,23.316L107.891,23.316L107.891,25.602L103.769,25.602C103.452,25.602 103.106,25.546 102.731,25.435C102.356,25.324 102.009,25.14 101.69,24.885C101.371,24.63 101.104,24.299 100.89,23.892C100.676,23.485 100.569,22.985 100.569,22.394L100.569,19.3C100.569,19.083 100.594,18.855 100.644,18.614C100.694,18.374 100.772,18.135 100.877,17.898C100.982,17.661 101.119,17.434 101.286,17.217C101.453,17 101.655,16.81 101.892,16.646C102.129,16.481 102.403,16.349 102.714,16.25C103.025,16.151 103.376,16.101 103.769,16.101L107.891,16.101C108.108,16.101 108.338,16.126 108.581,16.175C108.824,16.225 109.064,16.303 109.301,16.408C109.538,16.513 109.765,16.65 109.982,16.817C110.199,16.984 110.39,17.186 110.554,17.423C110.718,17.66 110.85,17.934 110.949,18.245C111.049,18.556 111.099,18.907 111.099,19.3L111.099,28.572Z" style="fill-rule:nonzero;"/>
        <path d="M20.583,25.866L63.725,25.788" style="fill:none;fill-rule:nonzero;stroke:#00799a;stroke-width:1px;stroke-linejoin:miter;"/>
        <path d="M12.031,365.5L35.807,365.5" style="fill:none;fill-rule:nonzero;stroke:#00799a;stroke-width:1px;stroke-linejoin:miter;"/>
        <path d="M88.843,365.5L112.618,365.5" style="fill:none;fill-rule:nonzero;stroke:#00799a;stroke-width:1px;stroke-linejoin:miter;"/>
    </g>
</svg>
