<?xml version="1.0" encoding="UTF-8" standalone="no"?>
<!DOCTYPE svg PUBLIC "-//W3C//DTD SVG 1.1//EN" "http://www.w3.org/Graphics/SVG/1.1/DTD/svg11.dtd">
<svg width="100%" height="100%" viewBox="0 0 120 380" version="1.1" xmlns="http://www.w3.org/2000/svg" xmlns:xlink="http://www.w3.org/1999/xlink" xml:space="preserve" xmlns:serif="http://www.serif.com/" style="fill-rule:evenodd;clip-rule:evenodd;">
    <g id="NEURON">
        <rect x="0" y="-0" width="120" height="380" style="fill:#e6e6e6;fill-rule:nonzero;"/>
        <path d="M85,238L104,238C106.761,238 109,240.239 109,243L109,319C109,321.761 106.761,324 104,324L85,324C82.239,324 80,321.761 80,319L80,243C80,240.239 82.239,238 85,238Z" style="fill:#bcbdba;fill-rule:nonzero;"/>
        <path d="M16,238L70,238C72.761,238 75,240.213 75,242.943L75,319.057C75,321.787 72.761,324 70,324L16,324C13.239,324 11,321.787 11,319.057L11,242.943C11,240.213 13.239,238 16,238Z" style="fill:#fff;fill-rule:nonzero;"/>
        <g id="Group_3">
            <path d="M89.117,292.234C89.117,292.575 89.058,292.889 88.941,293.176C88.824,293.462 88.662,293.709 88.453,293.918C88.245,294.126 87.998,294.288 87.713,294.404C87.428,294.52 87.117,294.578 86.781,294.578L85.406,294.578C85.07,294.578 84.759,294.52 84.473,294.404C84.186,294.288 83.939,294.126 83.73,293.918C83.522,293.709 83.359,293.462 83.24,293.176C83.121,292.889 83.062,292.575 83.062,292.234L83.062,291.164C83.062,290.825 83.121,290.512 83.24,290.225C83.359,289.937 83.522,289.689 83.73,289.482C83.939,289.275 84.186,289.113 84.473,288.996C84.759,288.879 85.07,288.82 85.406,288.82L86.781,288.82C87.117,288.82 87.428,288.879 87.713,288.996C87.998,289.113 88.245,289.275 88.453,289.482C88.662,289.689 88.824,289.937 88.941,290.225C89.058,290.512 89.117,290.825 89.117,291.164L89.117,292.234ZM88.102,291.164C88.102,290.963 88.07,290.782 88.006,290.619C87.942,290.456 87.852,290.317 87.736,290.201C87.62,290.085 87.481,289.995 87.318,289.932C87.155,289.868 86.976,289.836 86.781,289.836L85.406,289.836C85.208,289.836 85.028,289.868 84.865,289.932C84.702,289.995 84.562,290.085 84.445,290.201C84.328,290.317 84.238,290.456 84.174,290.619C84.11,290.782 84.078,290.963 84.078,291.164L84.078,292.234C84.078,292.435 84.11,292.616 84.174,292.779C84.238,292.942 84.328,293.081 84.445,293.197C84.562,293.313 84.702,293.403 84.865,293.467C85.028,293.53 85.208,293.562 85.406,293.562L86.773,293.562C86.971,293.562 87.151,293.53 87.314,293.467C87.477,293.403 87.617,293.313 87.734,293.197C87.851,293.081 87.942,292.942 88.006,292.779C88.07,292.616 88.102,292.435 88.102,292.234L88.102,291.164Z" style="fill-rule:nonzero;"/>
            <path d="M95.609,293.988C95.609,294.061 95.596,294.129 95.57,294.191C95.544,294.254 95.508,294.308 95.461,294.354C95.414,294.399 95.36,294.435 95.297,294.461C95.234,294.487 95.168,294.5 95.098,294.5L92.809,294.5C92.592,294.5 92.373,294.477 92.152,294.43C91.931,294.383 91.717,294.31 91.51,294.213C91.303,294.115 91.108,293.991 90.926,293.84C90.743,293.689 90.584,293.51 90.447,293.303C90.31,293.096 90.203,292.859 90.125,292.592C90.047,292.325 90.008,292.027 90.008,291.699L90.008,288.898L91.023,288.898L91.023,291.699C91.023,291.986 91.063,292.228 91.143,292.426C91.222,292.624 91.323,292.789 91.445,292.922C91.568,293.055 91.702,293.159 91.848,293.234C91.993,293.31 92.132,293.366 92.264,293.402C92.395,293.439 92.511,293.462 92.611,293.471C92.712,293.48 92.778,293.484 92.809,293.484L94.594,293.484L94.594,288.898L95.609,288.898L95.609,293.988Z" style="fill-rule:nonzero;"/>
            <path d="M101.852,289.914L99.613,289.914L99.613,294.5L98.598,294.5L98.598,289.914L96.355,289.914L96.355,288.898L101.852,288.898L101.852,289.914Z" style="fill-rule:nonzero;"/>
            <rect x="102.219" y="291.242" width="3.664" height="0.914" style="fill-rule:nonzero;"/>
            <rect x="54.311" y="288.898" width="1.015" height="5.602" style="fill-rule:nonzero;"/>
            <path d="M62.111,294.066C62.111,294.139 62.097,294.207 62.07,294.27C62.043,294.332 62.006,294.386 61.961,294.432C61.916,294.477 61.862,294.513 61.799,294.539C61.736,294.565 61.67,294.578 61.6,294.578C61.537,294.578 61.474,294.566 61.41,294.543C61.346,294.52 61.289,294.482 61.24,294.43L57.529,290.555L57.529,294.5L56.514,294.5L56.514,289.332C56.514,289.228 56.543,289.134 56.602,289.049C56.66,288.964 56.735,288.901 56.826,288.859C56.923,288.82 57.022,288.811 57.123,288.83C57.224,288.849 57.312,288.897 57.385,288.973L61.096,292.844L61.096,288.898L62.111,288.898L62.111,294.066Z" style="fill-rule:nonzero;"/>
            <rect x="63.154" y="291.242" width="3.664" height="0.914" style="fill-rule:nonzero;"/>
            <rect x="20.311" y="288.898" width="1.015" height="5.602" style="fill-rule:nonzero;"/>
            <path d="M28.111,294.066C28.111,294.139 28.097,294.207 28.07,294.27C28.043,294.332 28.006,294.386 27.961,294.432C27.916,294.477 27.862,294.513 27.799,294.539C27.736,294.565 27.67,294.578 27.6,294.578C27.537,294.578 27.474,294.566 27.41,294.543C27.346,294.52 27.289,294.482 27.24,294.43L23.529,290.555L23.529,294.5L22.514,294.5L22.514,289.332C22.514,289.228 22.543,289.134 22.602,289.049C22.66,288.964 22.735,288.901 22.826,288.859C22.923,288.82 23.022,288.811 23.123,288.83C23.224,288.849 23.312,288.897 23.385,288.973L27.096,292.844L27.096,288.898L28.111,288.898L28.111,294.066Z" style="fill-rule:nonzero;"/>
            <rect x="29.154" y="291.242" width="3.664" height="0.914" style="fill-rule:nonzero;"/>
        </g>
        <g id="Group_2">
            <path d="M89,245.234C89,245.575 88.941,245.889 88.824,246.176C88.707,246.462 88.544,246.709 88.336,246.918C88.127,247.126 87.881,247.288 87.596,247.404C87.311,247.52 87,247.578 86.664,247.578L85.289,247.578C84.953,247.578 84.642,247.52 84.355,247.404C84.069,247.288 83.822,247.126 83.613,246.918C83.405,246.709 83.242,246.462 83.123,246.176C83.004,245.889 82.945,245.575 82.945,245.234L82.945,244.164C82.945,243.825 83.004,243.512 83.123,243.225C83.242,242.937 83.405,242.689 83.613,242.482C83.822,242.275 84.069,242.113 84.355,241.996C84.642,241.879 84.953,241.82 85.289,241.82L86.664,241.82C87,241.82 87.311,241.879 87.596,241.996C87.881,242.113 88.127,242.275 88.336,242.482C88.544,242.689 88.707,242.937 88.824,243.225C88.941,243.512 89,243.825 89,244.164L89,245.234ZM87.984,244.164C87.984,243.963 87.952,243.782 87.889,243.619C87.825,243.456 87.735,243.317 87.619,243.201C87.503,243.085 87.364,242.995 87.201,242.932C87.038,242.868 86.859,242.836 86.664,242.836L85.289,242.836C85.091,242.836 84.911,242.868 84.748,242.932C84.585,242.995 84.445,243.085 84.328,243.201C84.211,243.317 84.12,243.456 84.057,243.619C83.993,243.782 83.961,243.963 83.961,244.164L83.961,245.234C83.961,245.435 83.993,245.616 84.057,245.779C84.12,245.942 84.211,246.081 84.328,246.197C84.445,246.313 84.585,246.403 84.748,246.467C84.911,246.53 85.091,246.562 85.289,246.562L86.656,246.562C86.854,246.562 87.034,246.53 87.197,246.467C87.36,246.403 87.5,246.313 87.617,246.197C87.734,246.081 87.825,245.942 87.889,245.779C87.952,245.616 87.984,245.435 87.984,245.234L87.984,244.164Z" style="fill-rule:nonzero;"/>
            <path d="M95.492,246.988C95.492,247.061 95.479,247.129 95.453,247.191C95.427,247.254 95.391,247.308 95.344,247.354C95.297,247.399 95.242,247.435 95.18,247.461C95.117,247.487 95.051,247.5 94.98,247.5L92.691,247.5C92.475,247.5 92.256,247.477 92.035,247.43C91.814,247.383 91.6,247.31 91.393,247.213C91.186,247.115 90.991,246.991 90.809,246.84C90.626,246.689 90.467,246.51 90.33,246.303C90.193,246.096 90.086,245.859 90.008,245.592C89.93,245.325 89.891,245.027 89.891,244.699L89.891,241.898L90.906,241.898L90.906,244.699C90.906,244.986 90.946,245.228 91.025,245.426C91.105,245.624 91.206,245.789 91.328,245.922C91.451,246.055 91.585,246.159 91.73,246.234C91.876,246.31 92.015,246.366 92.146,246.402C92.278,246.439 92.394,246.462 92.494,246.471C92.595,246.48 92.66,246.484 92.691,246.484L94.477,246.484L94.477,241.898L95.492,241.898L95.492,246.988Z" style="fill-rule:nonzero;"/>
            <path d="M101.734,242.914L99.496,242.914L99.496,247.5L98.48,247.5L98.48,242.914L96.238,242.914L96.238,241.898L101.734,241.898L101.734,242.914Z" style="fill-rule:nonzero;"/>
            <path d="M105.879,245.156L104.504,245.156L104.504,246.531L103.594,246.531L103.594,245.156L102.215,245.156L102.215,244.242L103.594,244.242L103.594,242.867L104.504,242.867L104.504,244.242L105.879,244.242L105.879,245.156Z" style="fill-rule:nonzero;"/>
            <rect x="54.314" y="241.898" width="1.016" height="5.602" style="fill-rule:nonzero;"/>
            <path d="M62.115,247.066C62.115,247.139 62.101,247.207 62.074,247.27C62.047,247.332 62.01,247.386 61.965,247.432C61.919,247.477 61.865,247.513 61.803,247.539C61.74,247.565 61.674,247.578 61.604,247.578C61.541,247.578 61.478,247.566 61.414,247.543C61.35,247.52 61.293,247.482 61.244,247.43L57.533,243.555L57.533,247.5L56.518,247.5L56.518,242.332C56.518,242.228 56.547,242.134 56.605,242.049C56.664,241.964 56.739,241.901 56.83,241.859C56.927,241.82 57.026,241.811 57.127,241.83C57.228,241.849 57.316,241.897 57.389,241.973L61.1,245.844L61.1,241.898L62.115,241.898L62.115,247.066Z" style="fill-rule:nonzero;"/>
            <path d="M66.693,245.156L65.318,245.156L65.318,246.531L64.408,246.531L64.408,245.156L63.029,245.156L63.029,244.242L64.408,244.242L64.408,242.867L65.318,242.867L65.318,244.242L66.693,244.242L66.693,245.156Z" style="fill-rule:nonzero;"/>
            <rect x="20.314" y="241.898" width="1.016" height="5.602" style="fill-rule:nonzero;"/>
            <path d="M28.115,247.066C28.115,247.139 28.101,247.207 28.074,247.27C28.047,247.332 28.01,247.386 27.965,247.432C27.919,247.477 27.865,247.513 27.803,247.539C27.74,247.565 27.674,247.578 27.604,247.578C27.541,247.578 27.478,247.566 27.414,247.543C27.35,247.52 27.293,247.482 27.244,247.43L23.533,243.555L23.533,247.5L22.518,247.5L22.518,242.332C22.518,242.228 22.547,242.134 22.605,242.049C22.664,241.964 22.739,241.901 22.83,241.859C22.927,241.82 23.026,241.811 23.127,241.83C23.228,241.849 23.316,241.897 23.389,241.973L27.1,245.844L27.1,241.898L28.115,241.898L28.115,247.066Z" style="fill-rule:nonzero;"/>
            <path d="M32.693,245.156L31.318,245.156L31.318,246.531L30.408,246.531L30.408,245.156L29.029,245.156L29.029,244.242L30.408,244.242L30.408,242.867L31.318,242.867L31.318,244.242L32.693,244.242L32.693,245.156Z" style="fill-rule:nonzero;"/>
        </g>
        <g id="Group_1">
            <path d="M60.596,157.5L60.595,201.059" style="fill:none;fill-rule:nonzero;stroke:#007ba4;stroke-width:4px;"/>
            <path d="M26.7,162.5C45.367,162.5 60.5,180.122 60.5,201.859" style="fill-opacity:0;fill-rule:nonzero;stroke:#007ba4;stroke-width:4px;"/>
            <path d="M60.5,201.859C60.5,180.221 76.08,162.68 95.3,162.68" style="fill-opacity:0;fill-rule:nonzero;stroke:#007ba4;stroke-width:4px;"/>
            <rect x="90.354" y="136.398" width="1.015" height="5.602" style="fill-rule:nonzero;"/>
            <path d="M98.154,141.566C98.154,141.639 98.14,141.707 98.113,141.77C98.086,141.832 98.049,141.886 98.004,141.932C97.959,141.977 97.905,142.013 97.842,142.039C97.779,142.065 97.713,142.078 97.643,142.078C97.58,142.078 97.517,142.066 97.453,142.043C97.389,142.02 97.332,141.982 97.283,141.93L93.572,138.055L93.572,142L92.557,142L92.557,136.832C92.557,136.728 92.586,136.634 92.645,136.549C92.703,136.464 92.778,136.401 92.869,136.359C92.966,136.32 93.065,136.311 93.166,136.33C93.267,136.349 93.355,136.397 93.428,136.473L97.139,140.344L97.139,136.398L98.154,136.398L98.154,141.566Z" style="fill-rule:nonzero;"/>
            <rect x="56.354" y="136.398" width="1.015" height="5.602" style="fill-rule:nonzero;"/>
            <path d="M64.154,141.566C64.154,141.639 64.14,141.707 64.113,141.77C64.086,141.832 64.049,141.886 64.004,141.932C63.959,141.977 63.905,142.013 63.842,142.039C63.779,142.065 63.713,142.078 63.643,142.078C63.58,142.078 63.517,142.066 63.453,142.043C63.389,142.02 63.332,141.982 63.283,141.93L59.572,138.055L59.572,142L58.557,142L58.557,136.832C58.557,136.728 58.586,136.634 58.645,136.549C58.703,136.464 58.778,136.401 58.869,136.359C58.966,136.32 59.065,136.311 59.166,136.33C59.267,136.349 59.355,136.397 59.428,136.473L63.139,140.344L63.139,136.398L64.154,136.398L64.154,141.566Z" style="fill-rule:nonzero;"/>
            <rect x="22.354" y="136.398" width="1.015" height="5.602" style="fill-rule:nonzero;"/>
            <path d="M30.154,141.566C30.154,141.639 30.14,141.707 30.113,141.77C30.086,141.832 30.049,141.886 30.004,141.932C29.959,141.977 29.905,142.013 29.842,142.039C29.779,142.065 29.713,142.078 29.643,142.078C29.58,142.078 29.517,142.066 29.453,142.043C29.389,142.02 29.332,141.982 29.283,141.93L25.572,138.055L25.572,142L24.557,142L24.557,136.832C24.557,136.728 24.586,136.634 24.645,136.549C24.703,136.464 24.778,136.401 24.869,136.359C24.966,136.32 25.065,136.311 25.166,136.33C25.267,136.349 25.355,136.397 25.428,136.473L29.139,140.344L29.139,136.398L30.154,136.398L30.154,141.566Z" style="fill-rule:nonzero;"/>
            <path d="M57.039,220.734C57.039,221.075 56.98,221.389 56.863,221.676C56.746,221.962 56.584,222.209 56.375,222.418C56.166,222.626 55.92,222.788 55.635,222.904C55.35,223.02 55.039,223.078 54.703,223.078L53.328,223.078C52.992,223.078 52.681,223.02 52.395,222.904C52.108,222.788 51.861,222.626 51.652,222.418C51.444,222.209 51.281,221.962 51.162,221.676C51.043,221.389 50.984,221.075 50.984,220.734L50.984,219.664C50.984,219.325 51.043,219.012 51.162,218.725C51.281,218.437 51.444,218.189 51.652,217.982C51.861,217.775 52.108,217.613 52.395,217.496C52.681,217.379 52.992,217.32 53.328,217.32L54.703,217.32C55.039,217.32 55.35,217.379 55.635,217.496C55.92,217.613 56.166,217.775 56.375,217.982C56.584,218.189 56.746,218.437 56.863,218.725C56.98,219.012 57.039,219.325 57.039,219.664L57.039,220.734ZM56.023,219.664C56.023,219.463 55.991,219.282 55.928,219.119C55.864,218.956 55.774,218.817 55.658,218.701C55.542,218.585 55.403,218.495 55.24,218.432C55.077,218.368 54.898,218.336 54.703,218.336L53.328,218.336C53.13,218.336 52.95,218.368 52.787,218.432C52.624,218.495 52.484,218.585 52.367,218.701C52.25,218.817 52.159,218.956 52.096,219.119C52.032,219.282 52,219.463 52,219.664L52,220.734C52,220.935 52.032,221.116 52.096,221.279C52.159,221.442 52.25,221.581 52.367,221.697C52.484,221.813 52.624,221.903 52.787,221.967C52.95,222.03 53.13,222.062 53.328,222.062L54.695,222.062C54.893,222.062 55.073,222.03 55.236,221.967C55.399,221.903 55.539,221.813 55.656,221.697C55.773,221.581 55.864,221.442 55.928,221.279C55.991,221.116 56.023,220.935 56.023,220.734L56.023,219.664Z" style="fill-rule:nonzero;"/>
            <path d="M63.531,222.488C63.531,222.561 63.518,222.629 63.492,222.691C63.466,222.754 63.43,222.808 63.383,222.854C63.336,222.899 63.281,222.935 63.219,222.961C63.156,222.987 63.09,223 63.02,223L60.73,223C60.514,223 60.295,222.977 60.074,222.93C59.853,222.883 59.639,222.81 59.432,222.713C59.225,222.615 59.03,222.491 58.848,222.34C58.665,222.189 58.506,222.01 58.369,221.803C58.232,221.596 58.125,221.359 58.047,221.092C57.969,220.825 57.93,220.527 57.93,220.199L57.93,217.398L58.945,217.398L58.945,220.199C58.945,220.486 58.985,220.728 59.064,220.926C59.144,221.124 59.245,221.289 59.367,221.422C59.49,221.555 59.624,221.659 59.77,221.734C59.915,221.81 60.054,221.866 60.186,221.902C60.317,221.939 60.433,221.962 60.533,221.971C60.634,221.98 60.699,221.984 60.73,221.984L62.516,221.984L62.516,217.398L63.531,217.398L63.531,222.488Z" style="fill-rule:nonzero;"/>
            <path d="M69.773,218.414L67.535,218.414L67.535,223L66.52,223L66.52,218.414L64.277,218.414L64.277,217.398L69.773,217.398L69.773,218.414Z" style="fill-rule:nonzero;"/>
        </g>
        <path d="M11.975,39L10.959,39L10.959,37.625L7.389,37.625L7.389,39L6.373,39L6.373,36.199C6.373,35.79 6.443,35.414 6.584,35.07C6.725,34.727 6.92,34.431 7.17,34.184C7.42,33.936 7.716,33.743 8.057,33.605C8.398,33.467 8.77,33.398 9.174,33.398L11.463,33.398C11.533,33.398 11.599,33.411 11.662,33.438C11.725,33.464 11.779,33.5 11.826,33.547C11.873,33.594 11.909,33.648 11.936,33.711C11.962,33.774 11.975,33.84 11.975,33.91L11.975,39ZM7.389,36.609L10.959,36.609L10.959,34.414L9.174,34.414C9.143,34.414 9.077,34.419 8.977,34.428C8.876,34.437 8.76,34.459 8.629,34.496C8.498,34.533 8.359,34.589 8.213,34.664C8.067,34.739 7.933,34.844 7.811,34.977C7.688,35.11 7.587,35.276 7.508,35.475C7.429,35.674 7.389,35.915 7.389,36.199L7.389,36.609Z" style="fill-rule:nonzero;"/>
        <path d="M17.721,39L16.705,39L16.705,36.656C16.705,36.523 16.682,36.404 16.637,36.299C16.591,36.194 16.529,36.103 16.451,36.027C16.373,35.952 16.281,35.894 16.176,35.854C16.071,35.813 15.957,35.793 15.834,35.793L14.057,35.793L14.057,39L13.041,39L13.041,35.281C13.041,35.211 13.054,35.145 13.08,35.084C13.106,35.023 13.142,34.969 13.189,34.924C13.236,34.878 13.291,34.842 13.354,34.816C13.416,34.79 13.482,34.777 13.553,34.777L15.842,34.777C15.969,34.777 16.104,34.791 16.246,34.82C16.388,34.849 16.529,34.895 16.668,34.959C16.807,35.023 16.94,35.104 17.066,35.201C17.193,35.299 17.305,35.418 17.402,35.557C17.5,35.696 17.578,35.857 17.635,36.039C17.692,36.221 17.721,36.427 17.721,36.656L17.721,39Z" style="fill-rule:nonzero;"/>
        <path d="M22.971,37.602C22.971,37.742 22.946,37.894 22.896,38.057C22.847,38.22 22.767,38.371 22.656,38.51C22.545,38.649 22.401,38.766 22.223,38.859C22.044,38.953 21.827,39 21.572,39L19.74,39C19.599,39 19.448,38.975 19.285,38.926C19.122,38.877 18.971,38.797 18.832,38.686C18.693,38.575 18.576,38.431 18.482,38.252C18.389,38.073 18.342,37.857 18.342,37.602C18.342,37.461 18.367,37.309 18.416,37.145C18.465,36.98 18.545,36.828 18.656,36.689C18.767,36.55 18.911,36.433 19.09,36.34C19.268,36.246 19.485,36.199 19.74,36.199L21.572,36.199L21.572,37.168L19.74,37.168C19.602,37.168 19.495,37.21 19.42,37.295C19.345,37.38 19.307,37.484 19.307,37.609C19.307,37.742 19.35,37.846 19.437,37.92C19.524,37.994 19.628,38.031 19.748,38.031L21.572,38.031C21.71,38.031 21.817,37.989 21.893,37.906C21.968,37.823 22.006,37.719 22.006,37.594L22.006,36.176C22.006,36.043 21.965,35.938 21.883,35.859C21.801,35.781 21.697,35.742 21.572,35.742L19.342,35.742L19.342,34.777L21.572,34.777C21.713,34.777 21.864,34.802 22.027,34.852C22.19,34.901 22.341,34.981 22.48,35.092C22.619,35.203 22.736,35.347 22.83,35.525C22.924,35.704 22.971,35.921 22.971,36.176L22.971,37.602Z" style="fill-rule:nonzero;"/>
        <path d="M25.693,39L25.24,39C25.094,39 24.938,38.975 24.773,38.926C24.608,38.877 24.454,38.795 24.311,38.682C24.168,38.569 24.049,38.421 23.955,38.24C23.861,38.059 23.814,37.837 23.814,37.574L23.814,32.992L24.83,32.992L24.83,37.574C24.83,37.699 24.869,37.799 24.947,37.873C25.025,37.947 25.123,37.984 25.24,37.984L25.693,37.984L25.693,39Z" style="fill-rule:nonzero;"/>
        <path d="M30.939,37.574C30.939,37.749 30.917,37.906 30.873,38.045C30.829,38.184 30.77,38.307 30.697,38.412C30.624,38.517 30.54,38.607 30.443,38.682C30.347,38.756 30.246,38.816 30.141,38.863C30.035,38.91 29.928,38.945 29.82,38.967C29.712,38.989 29.61,39 29.514,39L27.682,39C27.541,39 27.388,38.975 27.221,38.926C27.054,38.877 26.9,38.795 26.758,38.682C26.616,38.569 26.497,38.421 26.402,38.24C26.307,38.059 26.26,37.837 26.26,37.574L26.26,36.199C26.26,35.939 26.307,35.718 26.402,35.537C26.497,35.356 26.616,35.209 26.758,35.096C26.9,34.983 27.054,34.901 27.221,34.852C27.388,34.802 27.541,34.777 27.682,34.777L29.514,34.777C29.774,34.777 29.995,34.824 30.178,34.918C30.36,35.012 30.507,35.13 30.619,35.271C30.731,35.413 30.812,35.567 30.863,35.734C30.914,35.901 30.939,36.056 30.939,36.199L30.939,37.574ZM29.924,36.207C29.924,36.066 29.889,35.962 29.818,35.895C29.748,35.827 29.647,35.793 29.514,35.793L27.689,35.793C27.554,35.793 27.451,35.827 27.381,35.896C27.31,35.965 27.275,36.066 27.275,36.199L27.275,37.574C27.275,37.707 27.31,37.808 27.381,37.879C27.451,37.949 27.554,37.984 27.689,37.984L29.514,37.984C29.652,37.984 29.755,37.949 29.822,37.879C29.89,37.808 29.924,37.707 29.924,37.574L29.924,36.207Z" style="fill-rule:nonzero;"/>
        <path d="M36.396,39.406C36.396,39.581 36.374,39.738 36.33,39.877C36.286,40.016 36.227,40.139 36.154,40.244C36.081,40.349 35.997,40.439 35.9,40.514C35.804,40.588 35.703,40.648 35.598,40.695C35.492,40.742 35.385,40.777 35.277,40.799C35.169,40.821 35.067,40.832 34.971,40.832L33.139,40.832L33.139,39.816L34.971,39.816C35.109,39.816 35.212,39.781 35.279,39.711C35.347,39.64 35.381,39.539 35.381,39.406L35.381,36.199C35.381,36.066 35.347,35.965 35.279,35.896C35.212,35.827 35.109,35.793 34.971,35.793L33.139,35.793C33.014,35.793 32.915,35.831 32.842,35.908C32.769,35.985 32.732,36.082 32.732,36.199L32.732,37.574C32.732,37.707 32.767,37.808 32.838,37.879C32.908,37.949 33.011,37.984 33.146,37.984L34.971,37.984L34.971,39L33.139,39C33.042,39 32.941,38.989 32.834,38.967C32.727,38.945 32.621,38.91 32.516,38.863C32.41,38.816 32.309,38.756 32.213,38.682C32.116,38.607 32.032,38.517 31.959,38.412C31.886,38.307 31.828,38.184 31.783,38.045C31.739,37.906 31.717,37.749 31.717,37.574L31.717,36.199C31.717,36.103 31.728,36.002 31.75,35.895C31.772,35.788 31.807,35.681 31.854,35.576C31.901,35.471 31.961,35.37 32.035,35.273C32.109,35.177 32.199,35.093 32.305,35.02C32.41,34.947 32.532,34.888 32.67,34.844C32.808,34.799 32.964,34.777 33.139,34.777L34.971,34.777C35.067,34.777 35.169,34.788 35.277,34.811C35.385,34.833 35.492,34.867 35.598,34.914C35.703,34.961 35.804,35.021 35.9,35.096C35.997,35.17 36.081,35.26 36.154,35.365C36.227,35.47 36.286,35.592 36.33,35.73C36.374,35.869 36.396,36.025 36.396,36.199L36.396,39.406Z" style="fill-rule:nonzero;"/>
        <path d="M41.943,38.488C41.943,38.561 41.93,38.629 41.904,38.691C41.878,38.754 41.842,38.808 41.797,38.854C41.752,38.899 41.698,38.935 41.637,38.961C41.576,38.987 41.51,39 41.439,39L39.143,39C39.018,39 38.884,38.986 38.742,38.957C38.6,38.928 38.46,38.882 38.322,38.818C38.184,38.755 38.051,38.674 37.922,38.576C37.793,38.479 37.681,38.36 37.584,38.221C37.487,38.082 37.41,37.921 37.352,37.738C37.293,37.556 37.264,37.35 37.264,37.121L37.264,34.777L38.279,34.777L38.279,37.121C38.279,37.254 38.302,37.373 38.348,37.479C38.393,37.584 38.455,37.675 38.533,37.75C38.611,37.825 38.703,37.883 38.809,37.924C38.914,37.964 39.028,37.984 39.15,37.984L40.928,37.984L40.928,34.777L41.943,34.777L41.943,38.488Z" style="fill-rule:nonzero;"/>
        <path d="M47.439,36.176C47.439,36.317 47.414,36.468 47.365,36.631C47.316,36.794 47.236,36.945 47.125,37.084C47.014,37.223 46.87,37.34 46.691,37.434C46.513,37.527 46.296,37.574 46.041,37.574L44.209,37.574L44.209,36.609L46.041,36.609C46.179,36.609 46.286,36.567 46.361,36.482C46.437,36.397 46.475,36.293 46.475,36.168C46.475,36.035 46.433,35.931 46.348,35.855C46.263,35.78 46.161,35.742 46.041,35.742L44.209,35.742C44.071,35.742 43.964,35.784 43.889,35.869C43.813,35.954 43.775,36.059 43.775,36.184L43.775,37.602C43.775,37.737 43.817,37.843 43.902,37.918C43.987,37.993 44.092,38.031 44.217,38.031L46.041,38.031L46.041,39L44.209,39C44.068,39 43.917,38.975 43.754,38.926C43.591,38.877 43.44,38.797 43.301,38.686C43.162,38.575 43.045,38.431 42.951,38.252C42.858,38.073 42.811,37.857 42.811,37.602L42.811,36.176C42.811,36.035 42.836,35.884 42.885,35.721C42.934,35.558 43.014,35.407 43.125,35.268C43.236,35.129 43.38,35.012 43.559,34.918C43.737,34.824 43.954,34.777 44.209,34.777L46.041,34.777C46.182,34.777 46.333,34.802 46.496,34.852C46.659,34.901 46.81,34.981 46.949,35.092C47.088,35.203 47.205,35.347 47.299,35.525C47.392,35.704 47.439,35.921 47.439,36.176Z" style="fill-rule:nonzero;"/>
        <path d="M56.436,38.566C56.436,38.639 56.422,38.707 56.395,38.77C56.368,38.832 56.331,38.886 56.285,38.932C56.24,38.977 56.186,39.013 56.123,39.039C56.06,39.065 55.994,39.078 55.924,39.078C55.861,39.078 55.798,39.066 55.734,39.043C55.671,39.02 55.614,38.982 55.564,38.93L51.854,35.055L51.854,39L50.838,39L50.838,33.832C50.838,33.728 50.867,33.634 50.926,33.549C50.985,33.464 51.059,33.401 51.15,33.359C51.247,33.32 51.346,33.311 51.447,33.33C51.549,33.349 51.636,33.397 51.709,33.473L55.42,37.344L55.42,33.398L56.436,33.398L56.436,38.566Z" style="fill-rule:nonzero;"/>
        <path d="M62.018,36.176C62.018,36.317 61.993,36.468 61.943,36.631C61.894,36.794 61.814,36.945 61.703,37.084C61.592,37.223 61.448,37.34 61.27,37.434C61.091,37.527 60.874,37.574 60.619,37.574L58.787,37.574L58.787,36.609L60.619,36.609C60.757,36.609 60.864,36.567 60.939,36.482C61.015,36.397 61.053,36.293 61.053,36.168C61.053,36.035 61.011,35.931 60.926,35.855C60.841,35.78 60.739,35.742 60.619,35.742L58.787,35.742C58.649,35.742 58.542,35.784 58.467,35.869C58.392,35.954 58.354,36.059 58.354,36.184L58.354,37.602C58.354,37.737 58.396,37.843 58.48,37.918C58.565,37.993 58.67,38.031 58.795,38.031L60.619,38.031L60.619,39L58.787,39C58.646,39 58.495,38.975 58.332,38.926C58.169,38.877 58.018,38.797 57.879,38.686C57.74,38.575 57.623,38.431 57.529,38.252C57.436,38.073 57.389,37.857 57.389,37.602L57.389,36.176C57.389,36.035 57.414,35.884 57.463,35.721C57.512,35.558 57.592,35.407 57.703,35.268C57.814,35.129 57.958,35.012 58.137,34.918C58.315,34.824 58.532,34.777 58.787,34.777L60.619,34.777C60.76,34.777 60.911,34.802 61.074,34.852C61.237,34.901 61.388,34.981 61.527,35.092C61.666,35.203 61.783,35.347 61.877,35.525C61.971,35.704 62.018,35.921 62.018,36.176Z" style="fill-rule:nonzero;"/>
        <path d="M67.318,38.488C67.318,38.561 67.305,38.629 67.279,38.691C67.253,38.754 67.217,38.808 67.172,38.854C67.127,38.899 67.073,38.935 67.012,38.961C66.951,38.987 66.885,39 66.814,39L64.518,39C64.393,39 64.259,38.986 64.117,38.957C63.975,38.928 63.835,38.882 63.697,38.818C63.559,38.755 63.426,38.674 63.297,38.576C63.168,38.479 63.056,38.36 62.959,38.221C62.862,38.082 62.785,37.921 62.727,37.738C62.668,37.556 62.639,37.35 62.639,37.121L62.639,34.777L63.654,34.777L63.654,37.121C63.654,37.254 63.677,37.373 63.723,37.479C63.768,37.584 63.83,37.675 63.908,37.75C63.986,37.825 64.078,37.883 64.184,37.924C64.289,37.964 64.403,37.984 64.525,37.984L66.303,37.984L66.303,34.777L67.318,34.777L67.318,38.488Z" style="fill-rule:nonzero;"/>
        <path d="M71.967,35.793L69.682,35.793C69.544,35.793 69.44,35.827 69.369,35.896C69.299,35.965 69.264,36.066 69.264,36.199L69.264,39L68.248,39L68.248,36.199C68.248,36.025 68.27,35.869 68.314,35.73C68.359,35.592 68.418,35.47 68.492,35.365C68.567,35.26 68.652,35.17 68.748,35.096C68.845,35.021 68.946,34.961 69.051,34.914C69.156,34.867 69.263,34.833 69.371,34.811C69.479,34.788 69.58,34.777 69.674,34.777L71.967,34.777L71.967,35.793Z" style="fill-rule:nonzero;"/>
        <path d="M77.213,37.574C77.213,37.749 77.191,37.906 77.146,38.045C77.102,38.184 77.044,38.307 76.971,38.412C76.898,38.517 76.813,38.607 76.717,38.682C76.62,38.756 76.519,38.816 76.414,38.863C76.309,38.91 76.202,38.945 76.094,38.967C75.986,38.989 75.884,39 75.787,39L73.955,39C73.814,39 73.661,38.975 73.494,38.926C73.327,38.877 73.173,38.795 73.031,38.682C72.889,38.569 72.771,38.421 72.676,38.24C72.581,38.059 72.533,37.837 72.533,37.574L72.533,36.199C72.533,35.939 72.581,35.718 72.676,35.537C72.771,35.356 72.889,35.209 73.031,35.096C73.173,34.983 73.327,34.901 73.494,34.852C73.661,34.802 73.814,34.777 73.955,34.777L75.787,34.777C76.048,34.777 76.269,34.824 76.451,34.918C76.634,35.012 76.781,35.13 76.893,35.271C77.005,35.413 77.086,35.567 77.137,35.734C77.188,35.901 77.213,36.056 77.213,36.199L77.213,37.574ZM76.197,36.207C76.197,36.066 76.162,35.962 76.092,35.895C76.021,35.827 75.92,35.793 75.787,35.793L73.963,35.793C73.828,35.793 73.725,35.827 73.654,35.896C73.584,35.965 73.549,36.066 73.549,36.199L73.549,37.574C73.549,37.707 73.584,37.808 73.654,37.879C73.725,37.949 73.828,37.984 73.963,37.984L75.787,37.984C75.925,37.984 76.028,37.949 76.096,37.879C76.163,37.808 76.197,37.707 76.197,37.574L76.197,36.207Z" style="fill-rule:nonzero;"/>
        <path d="M82.756,39L81.74,39L81.74,36.656C81.74,36.523 81.717,36.404 81.672,36.299C81.627,36.194 81.565,36.103 81.486,36.027C81.408,35.952 81.316,35.894 81.211,35.854C81.106,35.813 80.992,35.793 80.869,35.793L79.092,35.793L79.092,39L78.076,39L78.076,35.281C78.076,35.211 78.089,35.145 78.115,35.084C78.141,35.023 78.178,34.969 78.225,34.924C78.272,34.878 78.326,34.842 78.389,34.816C78.451,34.79 78.517,34.777 78.588,34.777L80.877,34.777C81.004,34.777 81.139,34.791 81.281,34.82C81.423,34.849 81.564,34.895 81.703,34.959C81.842,35.023 81.975,35.104 82.102,35.201C82.228,35.299 82.34,35.418 82.438,35.557C82.535,35.696 82.613,35.857 82.67,36.039C82.727,36.221 82.756,36.427 82.756,36.656L82.756,39Z" style="fill-rule:nonzero;"/>
        <path d="M91.377,39L87.713,39C87.619,39 87.518,38.989 87.41,38.967C87.302,38.945 87.195,38.91 87.09,38.863C86.985,38.816 86.884,38.756 86.787,38.682C86.691,38.607 86.606,38.517 86.531,38.412C86.457,38.307 86.398,38.184 86.354,38.045C86.309,37.906 86.287,37.749 86.287,37.574L86.287,34.824C86.287,34.731 86.298,34.63 86.32,34.521C86.343,34.413 86.377,34.306 86.424,34.201C86.471,34.096 86.532,33.995 86.607,33.898C86.683,33.802 86.774,33.717 86.879,33.643C86.984,33.568 87.106,33.509 87.244,33.465C87.382,33.42 87.538,33.398 87.713,33.398L91.377,33.398L91.377,34.414L87.713,34.414C87.58,34.414 87.479,34.449 87.408,34.52C87.338,34.59 87.303,34.694 87.303,34.832L87.303,37.574C87.303,37.705 87.339,37.806 87.41,37.877C87.482,37.948 87.583,37.984 87.713,37.984L91.377,37.984L91.377,39Z" style="fill-rule:nonzero;"/>
        <path d="M93.256,33.91L92.24,33.91L92.24,32.992L93.256,32.992L93.256,33.91ZM93.256,39L92.24,39L92.24,34.777L93.256,34.777L93.256,39Z" style="fill-rule:nonzero;"/>
        <path d="M97.924,35.793L95.639,35.793C95.501,35.793 95.397,35.827 95.326,35.896C95.256,35.965 95.221,36.066 95.221,36.199L95.221,39L94.205,39L94.205,36.199C94.205,36.025 94.227,35.869 94.271,35.73C94.316,35.592 94.375,35.47 94.449,35.365C94.524,35.26 94.609,35.17 94.705,35.096C94.802,35.021 94.903,34.961 95.008,34.914C95.113,34.867 95.22,34.833 95.328,34.811C95.436,34.788 95.537,34.777 95.631,34.777L97.924,34.777L97.924,35.793Z" style="fill-rule:nonzero;"/>
        <path d="M102.666,39L99.912,39C99.771,39 99.618,38.975 99.451,38.926C99.284,38.877 99.13,38.795 98.988,38.682C98.846,38.569 98.728,38.421 98.633,38.24C98.538,38.059 98.49,37.837 98.49,37.574L98.49,36.199C98.49,36.103 98.501,36.002 98.523,35.895C98.546,35.788 98.58,35.681 98.627,35.576C98.674,35.471 98.734,35.37 98.809,35.273C98.883,35.177 98.973,35.093 99.078,35.02C99.183,34.947 99.305,34.888 99.443,34.844C99.581,34.799 99.737,34.777 99.912,34.777L102.666,34.777L102.666,35.793L99.912,35.793C99.779,35.793 99.678,35.827 99.609,35.895C99.54,35.962 99.506,36.066 99.506,36.207L99.506,37.574C99.506,37.707 99.541,37.808 99.611,37.879C99.682,37.949 99.785,37.984 99.92,37.984L102.666,37.984L102.666,39Z" style="fill-rule:nonzero;"/>
        <path d="M108.123,38.488C108.123,38.561 108.11,38.629 108.084,38.691C108.058,38.754 108.022,38.808 107.977,38.854C107.931,38.899 107.877,38.935 107.816,38.961C107.755,38.987 107.69,39 107.619,39L105.322,39C105.197,39 105.064,38.986 104.922,38.957C104.78,38.928 104.64,38.882 104.502,38.818C104.364,38.755 104.231,38.674 104.102,38.576C103.973,38.479 103.86,38.36 103.764,38.221C103.667,38.082 103.59,37.921 103.531,37.738C103.472,37.556 103.443,37.35 103.443,37.121L103.443,34.777L104.459,34.777L104.459,37.121C104.459,37.254 104.482,37.373 104.527,37.479C104.573,37.584 104.635,37.675 104.713,37.75C104.791,37.825 104.883,37.883 104.988,37.924C105.093,37.964 105.207,37.984 105.33,37.984L107.107,37.984L107.107,34.777L108.123,34.777L108.123,38.488Z" style="fill-rule:nonzero;"/>
        <path d="M110.107,33.91L109.092,33.91L109.092,32.992L110.107,32.992L110.107,33.91ZM110.107,39L109.092,39L109.092,34.777L110.107,34.777L110.107,39Z" style="fill-rule:nonzero;"/>
        <path d="M114.92,35.793L113.146,35.793L113.146,39L112.119,39L112.119,35.793L110.799,35.793L110.799,34.777L112.119,34.777L112.119,33.398L113.146,33.398L113.146,34.777L114.92,34.777L114.92,35.793Z" style="fill-rule:nonzero;"/>
        <path d="M17.854,28.711C17.854,29.052 17.795,29.366 17.676,29.652C17.557,29.939 17.394,30.186 17.186,30.393C16.977,30.6 16.73,30.762 16.443,30.879C16.157,30.996 15.846,31.055 15.51,31.055L12.768,31.055C12.695,31.055 12.627,31.042 12.564,31.016C12.502,30.99 12.448,30.954 12.402,30.908C12.357,30.863 12.321,30.809 12.295,30.746C12.269,30.683 12.256,30.616 12.256,30.543L12.256,25.965C12.256,25.894 12.269,25.828 12.295,25.766C12.321,25.703 12.357,25.649 12.402,25.602C12.448,25.555 12.502,25.518 12.564,25.492C12.627,25.466 12.695,25.453 12.768,25.453L15.51,25.453C15.846,25.453 16.157,25.512 16.443,25.629C16.73,25.746 16.977,25.908 17.186,26.115C17.394,26.322 17.557,26.57 17.676,26.857C17.795,27.145 17.854,27.458 17.854,27.797L17.854,28.711ZM16.838,27.797C16.838,27.599 16.806,27.418 16.742,27.254C16.678,27.09 16.588,26.95 16.471,26.834C16.354,26.718 16.214,26.628 16.051,26.564C15.888,26.501 15.708,26.469 15.51,26.469L13.271,26.469L13.271,30.039L15.51,30.039C15.708,30.039 15.888,30.007 16.051,29.943C16.214,29.88 16.354,29.79 16.471,29.674C16.588,29.558 16.678,29.419 16.742,29.256C16.806,29.093 16.838,28.912 16.838,28.711L16.838,27.797Z" style="fill-rule:nonzero;"/>
        <path d="M19.768,25.965L18.752,25.965L18.752,25.047L19.768,25.047L19.768,25.965ZM19.768,31.055L18.752,31.055L18.752,26.832L19.768,26.832L19.768,31.055Z" style="fill-rule:nonzero;"/>
        <path d="M24.479,27.848L22.182,27.848L22.182,26.832L24.479,26.832L24.479,27.848ZM24.479,26.016L22.189,26.016C22.051,26.016 21.947,26.05 21.877,26.119C21.806,26.188 21.771,26.289 21.771,26.422L21.771,31.055L20.756,31.055L20.756,26.422C20.756,26.247 20.778,26.091 20.822,25.953C20.867,25.815 20.926,25.693 21,25.588C21.074,25.483 21.159,25.393 21.256,25.318C21.352,25.244 21.453,25.184 21.559,25.137C21.664,25.09 21.77,25.055 21.877,25.033C21.984,25.011 22.085,25 22.182,25L24.479,25L24.479,26.016Z" style="fill-rule:nonzero;"/>
        <path d="M28.881,27.848L26.584,27.848L26.584,26.832L28.881,26.832L28.881,27.848ZM28.881,26.016L26.592,26.016C26.454,26.016 26.35,26.05 26.279,26.119C26.209,26.188 26.174,26.289 26.174,26.422L26.174,31.055L25.158,31.055L25.158,26.422C25.158,26.247 25.18,26.091 25.225,25.953C25.269,25.815 25.328,25.693 25.402,25.588C25.477,25.483 25.562,25.393 25.658,25.318C25.755,25.244 25.856,25.184 25.961,25.137C26.066,25.09 26.172,25.055 26.279,25.033C26.386,25.011 26.487,25 26.584,25L28.881,25L28.881,26.016Z" style="fill-rule:nonzero;"/>
        <path d="M34.072,28.23C34.072,28.371 34.047,28.523 33.998,28.686C33.949,28.849 33.869,29 33.758,29.139C33.647,29.278 33.503,29.395 33.324,29.488C33.146,29.582 32.929,29.629 32.674,29.629L30.842,29.629L30.842,28.664L32.674,28.664C32.812,28.664 32.919,28.622 32.994,28.537C33.069,28.452 33.107,28.348 33.107,28.223C33.107,28.09 33.065,27.985 32.98,27.91C32.896,27.835 32.794,27.797 32.674,27.797L30.842,27.797C30.704,27.797 30.597,27.839 30.521,27.924C30.446,28.009 30.408,28.113 30.408,28.238L30.408,29.656C30.408,29.791 30.45,29.897 30.535,29.973C30.62,30.048 30.725,30.086 30.85,30.086L32.674,30.086L32.674,31.055L30.842,31.055C30.701,31.055 30.55,31.03 30.387,30.98C30.224,30.931 30.073,30.851 29.934,30.74C29.795,30.629 29.678,30.485 29.584,30.307C29.49,30.128 29.443,29.911 29.443,29.656L29.443,28.23C29.443,28.09 29.468,27.938 29.518,27.775C29.567,27.612 29.647,27.461 29.758,27.322C29.869,27.183 30.013,27.066 30.191,26.973C30.37,26.879 30.587,26.832 30.842,26.832L32.674,26.832C32.815,26.832 32.966,26.857 33.129,26.906C33.292,26.955 33.443,27.035 33.582,27.146C33.721,27.257 33.838,27.401 33.932,27.58C34.025,27.759 34.072,27.975 34.072,28.23Z" style="fill-rule:nonzero;"/>
        <path d="M38.451,27.848L36.166,27.848C36.028,27.848 35.924,27.882 35.854,27.951C35.783,28.02 35.748,28.121 35.748,28.254L35.748,31.055L34.732,31.055L34.732,28.254C34.732,28.079 34.754,27.923 34.799,27.785C34.843,27.647 34.902,27.525 34.977,27.42C35.051,27.315 35.136,27.225 35.232,27.15C35.329,27.076 35.43,27.016 35.535,26.969C35.64,26.922 35.747,26.887 35.855,26.865C35.964,26.843 36.065,26.832 36.158,26.832L38.451,26.832L38.451,27.848Z" style="fill-rule:nonzero;"/>
        <path d="M43.646,28.23C43.646,28.371 43.621,28.523 43.572,28.686C43.523,28.849 43.443,29 43.332,29.139C43.221,29.278 43.077,29.395 42.898,29.488C42.72,29.582 42.503,29.629 42.248,29.629L40.416,29.629L40.416,28.664L42.248,28.664C42.386,28.664 42.493,28.622 42.568,28.537C42.644,28.452 42.682,28.348 42.682,28.223C42.682,28.09 42.64,27.985 42.555,27.91C42.47,27.835 42.368,27.797 42.248,27.797L40.416,27.797C40.278,27.797 40.171,27.839 40.096,27.924C40.02,28.009 39.982,28.113 39.982,28.238L39.982,29.656C39.982,29.791 40.024,29.897 40.109,29.973C40.194,30.048 40.299,30.086 40.424,30.086L42.248,30.086L42.248,31.055L40.416,31.055C40.275,31.055 40.124,31.03 39.961,30.98C39.798,30.931 39.647,30.851 39.508,30.74C39.369,30.629 39.252,30.485 39.158,30.307C39.065,30.128 39.018,29.911 39.018,29.656L39.018,28.23C39.018,28.09 39.043,27.938 39.092,27.775C39.141,27.612 39.221,27.461 39.332,27.322C39.443,27.183 39.587,27.066 39.766,26.973C39.944,26.879 40.161,26.832 40.416,26.832L42.248,26.832C42.389,26.832 42.54,26.857 42.703,26.906C42.866,26.955 43.017,27.035 43.156,27.146C43.295,27.257 43.412,27.401 43.506,27.58C43.599,27.759 43.646,27.975 43.646,28.23Z" style="fill-rule:nonzero;"/>
        <path d="M49.01,31.055L47.994,31.055L47.994,28.711C47.994,28.578 47.971,28.459 47.926,28.354C47.88,28.248 47.818,28.157 47.74,28.082C47.662,28.007 47.57,27.949 47.465,27.908C47.36,27.868 47.246,27.848 47.123,27.848L45.346,27.848L45.346,31.055L44.33,31.055L44.33,27.336C44.33,27.265 44.343,27.2 44.369,27.139C44.395,27.078 44.432,27.024 44.479,26.979C44.526,26.933 44.58,26.897 44.643,26.871C44.705,26.845 44.771,26.832 44.842,26.832L47.131,26.832C47.258,26.832 47.393,26.846 47.535,26.875C47.677,26.904 47.818,26.95 47.957,27.014C48.096,27.077 48.229,27.158 48.355,27.256C48.482,27.353 48.594,27.472 48.691,27.611C48.789,27.75 48.867,27.911 48.924,28.094C48.981,28.276 49.01,28.482 49.01,28.711L49.01,31.055Z" style="fill-rule:nonzero;"/>
        <path d="M53.99,31.055L51.236,31.055C51.095,31.055 50.942,31.03 50.775,30.98C50.608,30.931 50.454,30.849 50.312,30.736C50.171,30.623 50.052,30.476 49.957,30.295C49.862,30.114 49.814,29.892 49.814,29.629L49.814,28.254C49.814,28.157 49.825,28.056 49.848,27.949C49.87,27.842 49.904,27.736 49.951,27.631C49.998,27.526 50.058,27.425 50.133,27.328C50.207,27.232 50.297,27.147 50.402,27.074C50.508,27.001 50.63,26.943 50.768,26.898C50.906,26.854 51.062,26.832 51.236,26.832L53.99,26.832L53.99,27.848L51.236,27.848C51.103,27.848 51.003,27.882 50.934,27.949C50.865,28.017 50.83,28.121 50.83,28.262L50.83,29.629C50.83,29.762 50.865,29.863 50.936,29.934C51.006,30.004 51.109,30.039 51.244,30.039L53.99,30.039L53.99,31.055Z" style="fill-rule:nonzero;"/>
        <path d="M59.342,28.23C59.342,28.371 59.317,28.523 59.268,28.686C59.218,28.849 59.138,29 59.027,29.139C58.916,29.278 58.772,29.395 58.594,29.488C58.415,29.582 58.198,29.629 57.943,29.629L56.111,29.629L56.111,28.664L57.943,28.664C58.081,28.664 58.188,28.622 58.264,28.537C58.339,28.452 58.377,28.348 58.377,28.223C58.377,28.09 58.335,27.985 58.25,27.91C58.165,27.835 58.063,27.797 57.943,27.797L56.111,27.797C55.973,27.797 55.866,27.839 55.791,27.924C55.716,28.009 55.678,28.113 55.678,28.238L55.678,29.656C55.678,29.791 55.72,29.897 55.805,29.973C55.89,30.048 55.994,30.086 56.119,30.086L57.943,30.086L57.943,31.055L56.111,31.055C55.97,31.055 55.819,31.03 55.656,30.98C55.493,30.931 55.342,30.851 55.203,30.74C55.064,30.629 54.947,30.485 54.854,30.307C54.76,30.128 54.713,29.911 54.713,29.656L54.713,28.23C54.713,28.09 54.738,27.938 54.787,27.775C54.836,27.612 54.916,27.461 55.027,27.322C55.138,27.183 55.282,27.066 55.461,26.973C55.64,26.879 55.856,26.832 56.111,26.832L57.943,26.832C58.084,26.832 58.235,26.857 58.398,26.906C58.561,26.955 58.713,27.035 58.852,27.146C58.991,27.257 59.108,27.401 59.201,27.58C59.295,27.759 59.342,27.975 59.342,28.23Z" style="fill-rule:nonzero;"/>
        <rect x="62.604" y="27.797" width="3.664" height="0.914" style="fill-rule:nonzero;"/>
        <path d="M75.51,27.336C75.51,27.568 75.481,27.775 75.424,27.957C75.367,28.139 75.289,28.3 75.191,28.439C75.094,28.578 74.981,28.698 74.854,28.797C74.726,28.896 74.592,28.977 74.453,29.041C74.314,29.105 74.173,29.151 74.031,29.18C73.889,29.209 73.756,29.223 73.631,29.223L75.752,31.055L74.182,31.055L72.064,29.223L71.334,29.223L71.334,28.207L73.631,28.207C73.758,28.196 73.875,28.17 73.98,28.127C74.086,28.084 74.177,28.026 74.254,27.953C74.331,27.88 74.39,27.792 74.432,27.689C74.473,27.586 74.494,27.469 74.494,27.336L74.494,26.695C74.494,26.638 74.487,26.594 74.473,26.564C74.458,26.535 74.44,26.513 74.418,26.498C74.396,26.484 74.373,26.476 74.348,26.473C74.323,26.47 74.3,26.469 74.279,26.469L70.928,26.469L70.928,31.055L69.912,31.055L69.912,25.965C69.912,25.894 69.925,25.828 69.951,25.766C69.977,25.703 70.013,25.649 70.059,25.602C70.104,25.555 70.158,25.518 70.221,25.492C70.283,25.466 70.351,25.453 70.424,25.453L74.279,25.453C74.506,25.453 74.697,25.494 74.854,25.576C75.01,25.658 75.137,25.761 75.234,25.885C75.332,26.008 75.402,26.142 75.445,26.285C75.488,26.428 75.51,26.563 75.51,26.688L75.51,27.336Z" style="fill-rule:nonzero;"/>
        <path d="M80.916,28.23C80.916,28.371 80.891,28.523 80.842,28.686C80.793,28.849 80.713,29 80.602,29.139C80.491,29.278 80.347,29.395 80.168,29.488C79.989,29.582 79.773,29.629 79.518,29.629L77.686,29.629L77.686,28.664L79.518,28.664C79.656,28.664 79.763,28.622 79.838,28.537C79.913,28.452 79.951,28.348 79.951,28.223C79.951,28.09 79.909,27.985 79.824,27.91C79.739,27.835 79.637,27.797 79.518,27.797L77.686,27.797C77.548,27.797 77.441,27.839 77.365,27.924C77.29,28.009 77.252,28.113 77.252,28.238L77.252,29.656C77.252,29.791 77.294,29.897 77.379,29.973C77.464,30.048 77.568,30.086 77.693,30.086L79.518,30.086L79.518,31.055L77.686,31.055C77.545,31.055 77.393,31.03 77.23,30.98C77.067,30.931 76.916,30.851 76.777,30.74C76.638,30.629 76.521,30.485 76.428,30.307C76.334,30.128 76.287,29.911 76.287,29.656L76.287,28.23C76.287,28.09 76.312,27.938 76.361,27.775C76.411,27.612 76.491,27.461 76.602,27.322C76.713,27.183 76.857,27.066 77.035,26.973C77.214,26.879 77.431,26.832 77.686,26.832L79.518,26.832C79.659,26.832 79.81,26.857 79.973,26.906C80.136,26.955 80.287,27.035 80.426,27.146C80.565,27.257 80.682,27.401 80.775,27.58C80.869,27.759 80.916,27.975 80.916,28.23Z" style="fill-rule:nonzero;"/>
        <path d="M85.689,31.055L82.936,31.055C82.795,31.055 82.642,31.03 82.475,30.98C82.308,30.931 82.154,30.849 82.012,30.736C81.87,30.623 81.751,30.476 81.656,30.295C81.561,30.114 81.514,29.892 81.514,29.629L81.514,28.254C81.514,28.157 81.525,28.056 81.547,27.949C81.569,27.842 81.603,27.736 81.65,27.631C81.697,27.526 81.758,27.425 81.832,27.328C81.906,27.232 81.996,27.147 82.102,27.074C82.207,27.001 82.329,26.943 82.467,26.898C82.605,26.854 82.761,26.832 82.936,26.832L85.689,26.832L85.689,27.848L82.936,27.848C82.803,27.848 82.702,27.882 82.633,27.949C82.564,28.017 82.529,28.121 82.529,28.262L82.529,29.629C82.529,29.762 82.564,29.863 82.635,29.934C82.705,30.004 82.808,30.039 82.943,30.039L85.689,30.039L85.689,31.055Z" style="fill-rule:nonzero;"/>
        <path d="M90.369,27.848L88.596,27.848L88.596,31.055L87.568,31.055L87.568,27.848L86.248,27.848L86.248,26.832L87.568,26.832L87.568,25.453L88.596,25.453L88.596,26.832L90.369,26.832L90.369,27.848Z" style="fill-rule:nonzero;"/>
        <path d="M92.068,25.965L91.053,25.965L91.053,25.047L92.068,25.047L92.068,25.965ZM92.068,31.055L91.053,31.055L91.053,26.832L92.068,26.832L92.068,31.055Z" style="fill-rule:nonzero;"/>
        <path d="M96.779,26.016L94.49,26.016C94.352,26.016 94.248,26.05 94.178,26.119C94.107,26.188 94.072,26.289 94.072,26.422L94.072,31.055L93.057,31.055L93.057,26.422C93.057,26.247 93.079,26.091 93.123,25.953C93.167,25.815 93.226,25.693 93.301,25.588C93.375,25.483 93.46,25.393 93.557,25.318C93.653,25.244 93.754,25.184 93.859,25.137C93.965,25.09 94.071,25.055 94.178,25.033C94.285,25.011 94.386,25 94.482,25L96.779,25L96.779,26.016ZM98.24,31.055L97.225,31.055L97.217,27.848L94.482,27.848L94.482,26.832L98.248,26.832L98.24,31.055ZM98.24,26.016L97.225,26.016L97.225,25.016L98.24,25.016L98.24,26.016Z" style="fill-rule:nonzero;"/>
        <path d="M103.756,28.23C103.756,28.371 103.731,28.523 103.682,28.686C103.632,28.849 103.552,29 103.441,29.139C103.33,29.278 103.186,29.395 103.008,29.488C102.829,29.582 102.612,29.629 102.357,29.629L100.525,29.629L100.525,28.664L102.357,28.664C102.495,28.664 102.602,28.622 102.678,28.537C102.753,28.452 102.791,28.348 102.791,28.223C102.791,28.09 102.749,27.985 102.664,27.91C102.579,27.835 102.477,27.797 102.357,27.797L100.525,27.797C100.387,27.797 100.28,27.839 100.205,27.924C100.13,28.009 100.092,28.113 100.092,28.238L100.092,29.656C100.092,29.791 100.134,29.897 100.219,29.973C100.304,30.048 100.408,30.086 100.533,30.086L102.357,30.086L102.357,31.055L100.525,31.055C100.384,31.055 100.233,31.03 100.07,30.98C99.907,30.931 99.756,30.851 99.617,30.74C99.478,30.629 99.361,30.485 99.268,30.307C99.174,30.128 99.127,29.911 99.127,29.656L99.127,28.23C99.127,28.09 99.152,27.938 99.201,27.775C99.25,27.612 99.33,27.461 99.441,27.322C99.552,27.183 99.696,27.066 99.875,26.973C100.054,26.879 100.27,26.832 100.525,26.832L102.357,26.832C102.498,26.832 102.649,26.857 102.812,26.906C102.975,26.955 103.127,27.035 103.266,27.146C103.405,27.257 103.522,27.401 103.615,27.58C103.709,27.759 103.756,27.975 103.756,28.23Z" style="fill-rule:nonzero;"/>
        <path d="M108.135,27.848L105.85,27.848C105.712,27.848 105.608,27.882 105.537,27.951C105.467,28.02 105.432,28.121 105.432,28.254L105.432,31.055L104.416,31.055L104.416,28.254C104.416,28.079 104.438,27.923 104.482,27.785C104.527,27.647 104.586,27.525 104.66,27.42C104.734,27.315 104.819,27.225 104.916,27.15C105.013,27.076 105.114,27.016 105.219,26.969C105.324,26.922 105.431,26.887 105.539,26.865C105.647,26.843 105.748,26.832 105.842,26.832L108.135,26.832L108.135,27.848Z" style="fill-rule:nonzero;"/>
        <g transform="matrix(1,0,0,1,-1,0)">
            <path d="M70.564,106.281C70.564,106.513 70.536,106.72 70.479,106.902C70.422,107.085 70.344,107.246 70.246,107.385C70.149,107.524 70.036,107.643 69.908,107.742C69.781,107.841 69.647,107.923 69.508,107.986C69.369,108.05 69.228,108.096 69.086,108.125C68.944,108.154 68.811,108.168 68.686,108.168L70.807,110L69.236,110L67.119,108.168L66.389,108.168L66.389,107.152L68.686,107.152C68.813,107.142 68.93,107.115 69.035,107.072C69.14,107.029 69.232,106.971 69.309,106.898C69.386,106.825 69.445,106.738 69.486,106.635C69.528,106.532 69.549,106.414 69.549,106.281L69.549,105.641C69.549,105.584 69.542,105.54 69.527,105.51C69.513,105.48 69.495,105.458 69.473,105.443C69.45,105.429 69.427,105.421 69.402,105.418C69.377,105.415 69.355,105.414 69.334,105.414L65.982,105.414L65.982,110L64.967,110L64.967,104.91C64.967,104.84 64.98,104.774 65.006,104.711C65.032,104.648 65.068,104.594 65.113,104.547C65.159,104.5 65.213,104.464 65.275,104.438C65.338,104.411 65.406,104.398 65.479,104.398L69.334,104.398C69.561,104.398 69.752,104.439 69.908,104.521C70.065,104.604 70.192,104.707 70.289,104.83C70.387,104.954 70.457,105.087 70.5,105.23C70.543,105.373 70.564,105.508 70.564,105.633L70.564,106.281Z" style="fill-rule:nonzero;"/>
        </g>
        <g transform="matrix(1,0,0,1,-1,0)">
            <path d="M76.189,107.711L72.982,107.711L72.982,106.688L76.189,106.688L76.189,107.711ZM76.646,110L72.982,110C72.841,110 72.688,109.975 72.521,109.926C72.354,109.877 72.2,109.795 72.059,109.682C71.917,109.569 71.798,109.421 71.703,109.24C71.608,109.059 71.561,108.837 71.561,108.574L71.561,104.91C71.561,104.84 71.574,104.774 71.6,104.711C71.626,104.648 71.662,104.594 71.707,104.547C71.752,104.5 71.806,104.464 71.869,104.438C71.932,104.411 71.999,104.398 72.072,104.398L76.646,104.398L76.646,105.414L72.576,105.414L72.576,108.574C72.576,108.707 72.611,108.808 72.682,108.879C72.752,108.949 72.855,108.984 72.99,108.984L76.646,108.984L76.646,110Z" style="fill-rule:nonzero;"/>
        </g>
        <g transform="matrix(1,0,0,1,-1,0)">
            <path d="M82.99,108.352C82.99,108.552 82.965,108.732 82.914,108.893C82.863,109.053 82.796,109.194 82.713,109.316C82.63,109.439 82.532,109.543 82.42,109.629C82.308,109.715 82.192,109.785 82.072,109.84C81.953,109.895 81.831,109.935 81.707,109.961C81.583,109.987 81.466,110 81.357,110L77.439,110L77.439,108.984L81.357,108.984C81.552,108.984 81.704,108.927 81.812,108.812C81.921,108.698 81.975,108.545 81.975,108.352C81.975,108.258 81.961,108.172 81.932,108.094C81.903,108.016 81.862,107.948 81.809,107.891C81.756,107.834 81.69,107.789 81.613,107.758C81.536,107.727 81.451,107.711 81.357,107.711L79.021,107.711C78.857,107.711 78.68,107.682 78.49,107.623C78.3,107.564 78.124,107.47 77.961,107.34C77.798,107.21 77.663,107.039 77.555,106.828C77.447,106.617 77.393,106.36 77.393,106.055C77.393,105.75 77.447,105.493 77.555,105.283C77.663,105.074 77.798,104.903 77.961,104.771C78.124,104.64 78.3,104.545 78.49,104.486C78.68,104.427 78.857,104.398 79.021,104.398L82.479,104.398L82.479,105.414L79.021,105.414C78.828,105.414 78.678,105.473 78.57,105.59C78.462,105.707 78.408,105.862 78.408,106.055C78.408,106.25 78.462,106.405 78.57,106.518C78.678,106.631 78.828,106.688 79.021,106.688L81.365,106.688C81.474,106.69 81.59,106.705 81.713,106.732C81.835,106.759 81.957,106.802 82.078,106.859C82.199,106.916 82.315,106.989 82.424,107.076C82.533,107.163 82.63,107.268 82.715,107.391C82.8,107.513 82.867,107.653 82.916,107.812C82.965,107.971 82.99,108.151 82.99,108.352Z" style="fill-rule:nonzero;"/>
        </g>
        <g transform="matrix(1,0,0,1,-1,0)">
            <path d="M89.416,106.742C89.416,106.974 89.387,107.181 89.33,107.363C89.273,107.546 89.195,107.707 89.098,107.846C89,107.985 88.887,108.104 88.76,108.203C88.632,108.302 88.498,108.383 88.359,108.445C88.22,108.508 88.079,108.553 87.938,108.582C87.796,108.611 87.662,108.625 87.537,108.625L85.24,108.625L85.24,107.609L87.537,107.609C87.667,107.599 87.785,107.572 87.891,107.529C87.996,107.486 88.087,107.428 88.162,107.355C88.237,107.282 88.296,107.195 88.338,107.092C88.379,106.989 88.4,106.873 88.4,106.742L88.4,106.281C88.387,106.154 88.36,106.037 88.318,105.93C88.277,105.823 88.22,105.732 88.148,105.656C88.077,105.581 87.99,105.522 87.889,105.479C87.787,105.436 87.67,105.414 87.537,105.414L85.248,105.414C85.113,105.414 85.01,105.449 84.939,105.52C84.869,105.59 84.834,105.691 84.834,105.824L84.834,110L83.818,110L83.818,105.824C83.818,105.564 83.866,105.343 83.961,105.16C84.056,104.978 84.175,104.831 84.316,104.719C84.458,104.607 84.612,104.526 84.779,104.475C84.946,104.424 85.099,104.398 85.24,104.398L87.537,104.398C87.766,104.398 87.972,104.427 88.154,104.486C88.337,104.545 88.498,104.623 88.637,104.721C88.776,104.818 88.895,104.931 88.992,105.059C89.09,105.186 89.171,105.32 89.234,105.459C89.298,105.598 89.344,105.739 89.373,105.881C89.402,106.023 89.416,106.156 89.416,106.281L89.416,106.742Z" style="fill-rule:nonzero;"/>
        </g>
        <g transform="matrix(1,0,0,1,-1,0)">
            <path d="M96.162,107.734C96.162,108.075 96.103,108.389 95.986,108.676C95.869,108.962 95.707,109.209 95.498,109.418C95.29,109.626 95.043,109.788 94.758,109.904C94.473,110.02 94.162,110.078 93.826,110.078L92.451,110.078C92.115,110.078 91.804,110.02 91.518,109.904C91.231,109.788 90.984,109.626 90.775,109.418C90.567,109.209 90.404,108.962 90.285,108.676C90.166,108.389 90.107,108.075 90.107,107.734L90.107,106.664C90.107,106.325 90.166,106.012 90.285,105.725C90.404,105.437 90.567,105.189 90.775,104.982C90.984,104.775 91.231,104.613 91.518,104.496C91.804,104.379 92.115,104.32 92.451,104.32L93.826,104.32C94.162,104.32 94.473,104.379 94.758,104.496C95.043,104.613 95.29,104.775 95.498,104.982C95.707,105.189 95.869,105.437 95.986,105.725C96.103,106.012 96.162,106.325 96.162,106.664L96.162,107.734ZM95.146,106.664C95.146,106.463 95.114,106.282 95.051,106.119C94.987,105.956 94.897,105.817 94.781,105.701C94.665,105.585 94.526,105.495 94.363,105.432C94.2,105.368 94.021,105.336 93.826,105.336L92.451,105.336C92.253,105.336 92.073,105.368 91.91,105.432C91.747,105.495 91.607,105.585 91.49,105.701C91.373,105.817 91.282,105.956 91.219,106.119C91.155,106.282 91.123,106.463 91.123,106.664L91.123,107.734C91.123,107.935 91.155,108.116 91.219,108.279C91.282,108.442 91.373,108.581 91.49,108.697C91.607,108.813 91.747,108.903 91.91,108.967C92.073,109.03 92.253,109.062 92.451,109.062L93.818,109.062C94.016,109.062 94.196,109.03 94.359,108.967C94.522,108.903 94.662,108.813 94.779,108.697C94.896,108.581 94.987,108.442 95.051,108.279C95.114,108.116 95.146,107.935 95.146,107.734L95.146,106.664Z" style="fill-rule:nonzero;"/>
        </g>
        <g transform="matrix(1,0,0,1,-1,0)">
            <path d="M102.764,109.566C102.764,109.639 102.75,109.707 102.723,109.77C102.696,109.832 102.659,109.886 102.613,109.932C102.568,109.977 102.514,110.013 102.451,110.039C102.388,110.065 102.322,110.078 102.252,110.078C102.189,110.078 102.126,110.066 102.062,110.043C101.999,110.02 101.942,109.982 101.893,109.93L98.182,106.055L98.182,110L97.166,110L97.166,104.832C97.166,104.728 97.195,104.634 97.254,104.549C97.313,104.464 97.388,104.401 97.479,104.359C97.575,104.32 97.674,104.311 97.775,104.33C97.877,104.349 97.964,104.397 98.037,104.473L101.748,108.344L101.748,104.398L102.764,104.398L102.764,109.566Z" style="fill-rule:nonzero;"/>
        </g>
        <g transform="matrix(1,0,0,1,-1,0)">
            <path d="M109.326,108.352C109.326,108.552 109.301,108.732 109.25,108.893C109.199,109.053 109.132,109.194 109.049,109.316C108.966,109.439 108.868,109.543 108.756,109.629C108.644,109.715 108.528,109.785 108.408,109.84C108.289,109.895 108.167,109.935 108.043,109.961C107.919,109.987 107.802,110 107.693,110L103.775,110L103.775,108.984L107.693,108.984C107.888,108.984 108.04,108.927 108.148,108.812C108.257,108.698 108.311,108.545 108.311,108.352C108.311,108.258 108.297,108.172 108.268,108.094C108.239,108.016 108.198,107.948 108.145,107.891C108.091,107.834 108.026,107.789 107.949,107.758C107.872,107.727 107.787,107.711 107.693,107.711L105.357,107.711C105.193,107.711 105.016,107.682 104.826,107.623C104.636,107.564 104.46,107.47 104.297,107.34C104.134,107.21 103.999,107.039 103.891,106.828C103.783,106.617 103.729,106.36 103.729,106.055C103.729,105.75 103.783,105.493 103.891,105.283C103.999,105.074 104.134,104.903 104.297,104.771C104.46,104.64 104.636,104.545 104.826,104.486C105.016,104.427 105.193,104.398 105.357,104.398L108.814,104.398L108.814,105.414L105.357,105.414C105.164,105.414 105.014,105.473 104.906,105.59C104.798,105.707 104.744,105.862 104.744,106.055C104.744,106.25 104.798,106.405 104.906,106.518C105.014,106.631 105.164,106.688 105.357,106.688L107.701,106.688C107.81,106.69 107.926,106.705 108.049,106.732C108.171,106.759 108.293,106.802 108.414,106.859C108.535,106.916 108.651,106.989 108.76,107.076C108.869,107.163 108.966,107.268 109.051,107.391C109.136,107.513 109.203,107.653 109.252,107.812C109.301,107.971 109.326,108.151 109.326,108.352Z" style="fill-rule:nonzero;"/>
        </g>
        <g transform="matrix(1,0,0,1,-1,0)">
            <path d="M114.775,107.711L111.568,107.711L111.568,106.688L114.775,106.688L114.775,107.711ZM115.232,110L111.568,110C111.427,110 111.274,109.975 111.107,109.926C110.94,109.877 110.786,109.795 110.645,109.682C110.503,109.569 110.384,109.421 110.289,109.24C110.194,109.059 110.146,108.837 110.146,108.574L110.146,104.91C110.146,104.84 110.159,104.774 110.186,104.711C110.212,104.648 110.248,104.594 110.293,104.547C110.338,104.5 110.392,104.464 110.455,104.438C110.518,104.411 110.585,104.398 110.658,104.398L115.232,104.398L115.232,105.414L111.162,105.414L111.162,108.574C111.162,108.707 111.197,108.808 111.268,108.879C111.338,108.949 111.441,108.984 111.576,108.984L115.232,108.984L115.232,110Z" style="fill-rule:nonzero;"/>
        </g>
        <g transform="matrix(1,0,0,1,1,0)">
            <path d="M22.322,108.352C22.322,108.552 22.297,108.732 22.246,108.893C22.195,109.053 22.128,109.194 22.045,109.316C21.962,109.439 21.864,109.543 21.752,109.629C21.64,109.715 21.524,109.785 21.404,109.84C21.285,109.895 21.163,109.935 21.039,109.961C20.916,109.987 20.799,110 20.689,110L16.771,110L16.771,108.984L20.689,108.984C20.884,108.984 21.036,108.927 21.145,108.812C21.253,108.698 21.307,108.545 21.307,108.352C21.307,108.258 21.293,108.172 21.264,108.094C21.235,108.016 21.194,107.948 21.141,107.891C21.088,107.834 21.022,107.789 20.945,107.758C20.868,107.727 20.783,107.711 20.689,107.711L18.354,107.711C18.189,107.711 18.012,107.682 17.822,107.623C17.632,107.564 17.456,107.47 17.293,107.34C17.13,107.21 16.995,107.039 16.887,106.828C16.779,106.617 16.725,106.36 16.725,106.055C16.725,105.75 16.779,105.493 16.887,105.283C16.995,105.074 17.13,104.903 17.293,104.771C17.456,104.64 17.632,104.545 17.822,104.486C18.012,104.427 18.189,104.398 18.354,104.398L21.811,104.398L21.811,105.414L18.354,105.414C18.161,105.414 18.01,105.473 17.902,105.59C17.794,105.707 17.74,105.862 17.74,106.055C17.74,106.25 17.794,106.405 17.902,106.518C18.01,106.631 18.161,106.688 18.354,106.688L20.697,106.688C20.806,106.69 20.922,106.705 21.045,106.732C21.168,106.759 21.289,106.802 21.41,106.859C21.531,106.916 21.647,106.989 21.756,107.076C21.865,107.163 21.962,107.268 22.047,107.391C22.132,107.513 22.199,107.653 22.248,107.812C22.297,107.971 22.322,108.151 22.322,108.352Z" style="fill-rule:nonzero;"/>
        </g>
        <g transform="matrix(1,0,0,1,1,0)">
            <path d="M27.771,107.711L24.564,107.711L24.564,106.688L27.771,106.688L27.771,107.711ZM28.229,110L24.564,110C24.424,110 24.271,109.975 24.104,109.926C23.937,109.877 23.783,109.795 23.641,109.682C23.499,109.569 23.38,109.421 23.285,109.24C23.19,109.059 23.143,108.837 23.143,108.574L23.143,104.91C23.143,104.84 23.156,104.774 23.182,104.711C23.208,104.648 23.244,104.594 23.289,104.547C23.334,104.5 23.388,104.464 23.451,104.438C23.514,104.411 23.581,104.398 23.654,104.398L28.229,104.398L28.229,105.414L24.158,105.414L24.158,108.574C24.158,108.707 24.193,108.808 24.264,108.879C24.334,108.949 24.437,108.984 24.572,108.984L28.229,108.984L28.229,110Z" style="fill-rule:nonzero;"/>
        </g>
        <g transform="matrix(1,0,0,1,1,0)">
            <path d="M34.807,109.566C34.807,109.639 34.793,109.707 34.766,109.77C34.739,109.832 34.702,109.886 34.656,109.932C34.611,109.977 34.557,110.013 34.494,110.039C34.431,110.065 34.365,110.078 34.295,110.078C34.232,110.078 34.169,110.066 34.105,110.043C34.042,110.02 33.985,109.982 33.936,109.93L30.225,106.055L30.225,110L29.209,110L29.209,104.832C29.209,104.728 29.238,104.634 29.297,104.549C29.356,104.464 29.43,104.401 29.521,104.359C29.618,104.32 29.717,104.311 29.818,104.33C29.92,104.349 30.007,104.397 30.08,104.473L33.791,108.344L33.791,104.398L34.807,104.398L34.807,109.566Z" style="fill-rule:nonzero;"/>
        </g>
        <g transform="matrix(1,0,0,1,1,0)">
            <path d="M41.369,108.352C41.369,108.552 41.344,108.732 41.293,108.893C41.242,109.053 41.175,109.194 41.092,109.316C41.009,109.439 40.911,109.543 40.799,109.629C40.687,109.715 40.571,109.785 40.451,109.84C40.331,109.895 40.209,109.935 40.086,109.961C39.962,109.987 39.845,110 39.736,110L35.818,110L35.818,108.984L39.736,108.984C39.931,108.984 40.083,108.927 40.191,108.812C40.3,108.698 40.354,108.545 40.354,108.352C40.354,108.258 40.34,108.172 40.311,108.094C40.282,108.016 40.241,107.948 40.188,107.891C40.134,107.834 40.069,107.789 39.992,107.758C39.915,107.727 39.83,107.711 39.736,107.711L37.4,107.711C37.236,107.711 37.059,107.682 36.869,107.623C36.679,107.564 36.503,107.47 36.34,107.34C36.177,107.21 36.042,107.039 35.934,106.828C35.825,106.617 35.771,106.36 35.771,106.055C35.771,105.75 35.825,105.493 35.934,105.283C36.042,105.074 36.177,104.903 36.34,104.771C36.503,104.64 36.679,104.545 36.869,104.486C37.059,104.427 37.236,104.398 37.4,104.398L40.857,104.398L40.857,105.414L37.4,105.414C37.207,105.414 37.057,105.473 36.949,105.59C36.841,105.707 36.787,105.862 36.787,106.055C36.787,106.25 36.841,106.405 36.949,106.518C37.057,106.631 37.207,106.688 37.4,106.688L39.744,106.688C39.853,106.69 39.969,106.705 40.092,106.732C40.214,106.759 40.336,106.802 40.457,106.859C40.578,106.916 40.694,106.989 40.803,107.076C40.912,107.163 41.009,107.268 41.094,107.391C41.179,107.513 41.246,107.653 41.295,107.812C41.344,107.971 41.369,108.151 41.369,108.352Z" style="fill-rule:nonzero;"/>
        </g>
        <g transform="matrix(1,0,0,1,1,0)">
            <path d="M46.818,107.711L43.611,107.711L43.611,106.688L46.818,106.688L46.818,107.711ZM47.275,110L43.611,110C43.47,110 43.317,109.975 43.15,109.926C42.983,109.877 42.829,109.795 42.688,109.682C42.546,109.569 42.427,109.421 42.332,109.24C42.237,109.059 42.189,108.837 42.189,108.574L42.189,104.91C42.189,104.84 42.202,104.774 42.229,104.711C42.255,104.648 42.291,104.594 42.336,104.547C42.381,104.5 42.435,104.464 42.498,104.438C42.561,104.411 42.628,104.398 42.701,104.398L47.275,104.398L47.275,105.414L43.205,105.414L43.205,108.574C43.205,108.707 43.24,108.808 43.311,108.879C43.381,108.949 43.484,108.984 43.619,108.984L47.275,108.984L47.275,110Z" style="fill-rule:nonzero;"/>
        </g>
        <path d="M16.5,132.5L104.5,132.5C107.261,132.5 109.5,134.762 109.5,137.553L109.5,223.447C109.5,226.238 107.261,228.5 104.5,228.5L16.5,228.5C13.739,228.5 11.5,226.238 11.5,223.447L11.5,137.553C11.5,134.762 13.739,132.5 16.5,132.5Z" style="fill-opacity:0;fill-rule:nonzero;stroke:#000;stroke-width:0.25px;"/>
        <path d="M55.298,366.35C55.298,366.459 55.277,366.561 55.236,366.654C55.195,366.748 55.141,366.829 55.072,366.897C55.004,366.966 54.923,367.02 54.829,367.059C54.735,367.098 54.635,367.117 54.53,367.117C54.437,367.117 54.342,367.099 54.246,367.064C54.151,367.029 54.066,366.973 53.991,366.895L48.425,361.082L48.425,367L46.901,367L46.901,359.248C46.901,359.092 46.945,358.95 47.033,358.823C47.121,358.696 47.233,358.602 47.37,358.539C47.515,358.48 47.663,358.466 47.815,358.495C47.968,358.524 48.099,358.596 48.208,358.709L53.774,364.516L53.774,358.598L55.298,358.598L55.298,366.35Z" style="fill-rule:nonzero;"/>
        <path d="M64.784,367L57.835,367C57.726,367 57.624,366.98 57.53,366.941C57.437,366.902 57.356,366.849 57.287,366.78C57.219,366.712 57.165,366.631 57.126,366.537C57.087,366.443 57.067,366.341 57.067,366.232L57.067,358.598L58.591,358.598L58.591,365.477L64.784,365.477L64.784,367Z" style="fill-rule:nonzero;"/>
        <path d="M73.427,367L67.931,367C67.79,367 67.639,366.983 67.477,366.95C67.314,366.917 67.154,366.865 66.996,366.795C66.838,366.724 66.687,366.633 66.542,366.522C66.397,366.411 66.269,366.276 66.158,366.118C66.047,365.96 65.958,365.776 65.892,365.567C65.825,365.358 65.792,365.123 65.792,364.861L65.792,360.736C65.792,360.595 65.809,360.444 65.842,360.282C65.875,360.12 65.927,359.96 65.997,359.802C66.068,359.643 66.159,359.492 66.272,359.348C66.385,359.203 66.521,359.075 66.68,358.964C66.838,358.853 67.021,358.764 67.228,358.697C67.435,358.631 67.669,358.598 67.931,358.598L73.427,358.598L73.427,360.121L67.931,360.121C67.732,360.121 67.579,360.174 67.474,360.279C67.368,360.385 67.315,360.541 67.315,360.748L67.315,364.861C67.315,365.056 67.369,365.208 67.477,365.315C67.584,365.423 67.736,365.477 67.931,365.477L73.427,365.477L73.427,367Z" style="fill-rule:nonzero;"/>
        <path d="M77.5,359.5L114.5,359.5" style="fill:none;fill-rule:nonzero;stroke:#007ba9;stroke-width:1px;stroke-linecap:round;"/>
        <path d="M6.5,359.5L43.5,359.5" style="fill:none;fill-rule:nonzero;stroke:#00799a;stroke-width:1px;stroke-linecap:round;"/>
        <path d="M94.5,21.5L114.5,21.5" style="fill:none;fill-rule:nonzero;stroke:#00799a;stroke-width:1px;stroke-linecap:round;"/>
        <path d="M6.5,21.5L26.5,21.5" style="fill:none;fill-rule:nonzero;stroke:#00799a;stroke-width:1px;stroke-linecap:round;"/>
        <path d="M39.457,20.127C39.457,20.236 39.437,20.338 39.396,20.432C39.355,20.525 39.3,20.606 39.231,20.675C39.163,20.743 39.082,20.797 38.988,20.836C38.895,20.875 38.795,20.895 38.689,20.895C38.596,20.895 38.501,20.877 38.405,20.842C38.31,20.807 38.225,20.75 38.15,20.672L32.584,14.859L32.584,20.777L31.061,20.777L31.061,13.025C31.061,12.869 31.105,12.728 31.192,12.601C31.28,12.474 31.392,12.379 31.529,12.316C31.674,12.258 31.822,12.243 31.975,12.272C32.127,12.301 32.258,12.373 32.367,12.486L37.934,18.293L37.934,12.375L39.457,12.375L39.457,20.127Z" style="fill-rule:nonzero;"/>
        <path d="M48.135,17.344L43.324,17.344L43.324,15.809L48.135,15.809L48.135,17.344ZM48.82,20.777L43.324,20.777C43.113,20.777 42.883,20.74 42.633,20.666C42.383,20.592 42.151,20.47 41.938,20.3C41.725,20.13 41.548,19.909 41.405,19.638C41.262,19.366 41.191,19.033 41.191,18.639L41.191,13.143C41.191,13.037 41.211,12.937 41.25,12.844C41.289,12.75 41.343,12.668 41.411,12.598C41.48,12.527 41.561,12.473 41.654,12.434C41.748,12.395 41.85,12.375 41.959,12.375L48.82,12.375L48.82,13.898L42.715,13.898L42.715,18.639C42.715,18.838 42.768,18.991 42.873,19.096C42.978,19.201 43.133,19.254 43.336,19.254L48.82,19.254L48.82,20.777Z" style="fill-rule:nonzero;"/>
        <path d="M58.523,20.01C58.523,20.119 58.504,20.221 58.465,20.314C58.426,20.408 58.371,20.489 58.301,20.558C58.23,20.626 58.148,20.68 58.055,20.719C57.961,20.758 57.861,20.777 57.756,20.777L54.322,20.777C53.998,20.777 53.67,20.742 53.338,20.672C53.006,20.601 52.685,20.493 52.374,20.347C52.063,20.2 51.771,20.014 51.498,19.787C51.225,19.56 50.985,19.292 50.78,18.981C50.575,18.671 50.414,18.316 50.297,17.915C50.18,17.514 50.121,17.068 50.121,16.576L50.121,12.375L51.645,12.375L51.645,16.576C51.645,17.006 51.704,17.369 51.823,17.666C51.942,17.963 52.094,18.211 52.277,18.41C52.461,18.609 52.662,18.766 52.881,18.879C53.1,18.992 53.308,19.076 53.505,19.131C53.702,19.186 53.876,19.22 54.026,19.233C54.177,19.247 54.275,19.254 54.322,19.254L57,19.254L57,12.375L58.523,12.375L58.523,20.01Z" style="fill-rule:nonzero;"/>
        <path d="M68.689,15.199C68.689,15.547 68.646,15.858 68.561,16.131C68.475,16.404 68.359,16.645 68.212,16.854C68.065,17.063 67.896,17.242 67.705,17.391C67.514,17.539 67.313,17.661 67.104,17.757C66.895,17.852 66.685,17.922 66.472,17.965C66.259,18.008 66.058,18.029 65.871,18.029L69.053,20.777L66.697,20.777L63.521,18.029L62.426,18.029L62.426,16.506L65.871,16.506C66.062,16.49 66.237,16.45 66.396,16.386C66.554,16.321 66.691,16.234 66.806,16.125C66.921,16.016 67.01,15.884 67.072,15.729C67.135,15.575 67.166,15.398 67.166,15.199L67.166,14.238C67.166,14.152 67.155,14.087 67.134,14.042C67.113,13.997 67.085,13.964 67.052,13.942C67.019,13.921 66.983,13.908 66.946,13.904C66.909,13.9 66.875,13.898 66.844,13.898L61.816,13.898L61.816,20.777L60.293,20.777L60.293,13.143C60.293,13.037 60.313,12.937 60.352,12.844C60.391,12.75 60.444,12.668 60.513,12.598C60.581,12.527 60.662,12.473 60.756,12.434C60.849,12.395 60.951,12.375 61.061,12.375L66.844,12.375C67.184,12.375 67.471,12.437 67.705,12.56C67.94,12.683 68.13,12.837 68.276,13.022C68.423,13.208 68.528,13.408 68.593,13.623C68.657,13.838 68.689,14.039 68.689,14.227L68.689,15.199Z" style="fill-rule:nonzero;"/>
        <path d="M79.037,17.379C79.037,17.89 78.949,18.361 78.773,18.791C78.598,19.221 78.354,19.592 78.041,19.904C77.728,20.217 77.358,20.46 76.931,20.634C76.503,20.808 76.037,20.895 75.533,20.895L73.471,20.895C72.967,20.895 72.5,20.808 72.07,20.634C71.641,20.46 71.27,20.217 70.957,19.904C70.644,19.592 70.399,19.221 70.222,18.791C70.044,18.361 69.955,17.89 69.955,17.379L69.955,15.773C69.955,15.266 70.044,14.796 70.222,14.364C70.399,13.933 70.644,13.562 70.957,13.251C71.27,12.94 71.641,12.697 72.07,12.521C72.5,12.346 72.967,12.258 73.471,12.258L75.533,12.258C76.037,12.258 76.503,12.346 76.931,12.521C77.358,12.697 77.728,12.94 78.041,13.251C78.354,13.562 78.598,13.933 78.773,14.364C78.949,14.796 79.037,15.266 79.037,15.773L79.037,17.379ZM77.514,15.773C77.514,15.472 77.466,15.2 77.37,14.956C77.275,14.712 77.14,14.503 76.966,14.329C76.792,14.155 76.583,14.02 76.339,13.925C76.095,13.829 75.826,13.781 75.533,13.781L73.471,13.781C73.174,13.781 72.903,13.829 72.659,13.925C72.415,14.02 72.205,14.155 72.029,14.329C71.854,14.503 71.718,14.712 71.622,14.956C71.527,15.2 71.479,15.472 71.479,15.773L71.479,17.379C71.479,17.68 71.527,17.952 71.622,18.196C71.718,18.44 71.854,18.649 72.029,18.823C72.205,18.997 72.415,19.132 72.659,19.228C72.903,19.323 73.174,19.371 73.471,19.371L75.521,19.371C75.818,19.371 76.089,19.323 76.333,19.228C76.577,19.132 76.787,18.997 76.963,18.823C77.139,18.649 77.275,18.44 77.37,18.196C77.466,17.952 77.514,17.68 77.514,17.379L77.514,15.773Z" style="fill-rule:nonzero;"/>
        <path d="M88.939,20.127C88.939,20.236 88.919,20.338 88.878,20.432C88.837,20.525 88.782,20.606 88.714,20.675C88.645,20.743 88.564,20.797 88.471,20.836C88.377,20.875 88.277,20.895 88.172,20.895C88.078,20.895 87.983,20.877 87.888,20.842C87.792,20.807 87.707,20.75 87.633,20.672L82.066,14.859L82.066,20.777L80.543,20.777L80.543,13.025C80.543,12.869 80.587,12.728 80.675,12.601C80.763,12.474 80.875,12.379 81.012,12.316C81.157,12.258 81.305,12.243 81.457,12.272C81.61,12.301 81.741,12.373 81.85,12.486L87.416,18.293L87.416,12.375L88.939,12.375L88.939,20.127Z" style="fill-rule:nonzero;"/>
    </g>
</svg>
