<?xml version="1.0" encoding="UTF-8" standalone="no"?>
<!DOCTYPE svg PUBLIC "-//W3C//DTD SVG 1.1//EN" "http://www.w3.org/Graphics/SVG/1.1/DTD/svg11.dtd">
<svg width="100%" height="100%" viewBox="0 0 120 380" version="1.1" xmlns="http://www.w3.org/2000/svg" xmlns:xlink="http://www.w3.org/1999/xlink" xml:space="preserve" xmlns:serif="http://www.serif.com/" style="fill-rule:evenodd;clip-rule:evenodd;stroke-linecap:round;stroke-linejoin:round;">
    <g id="DIVIDE_-_CONQUER" serif:id="DIVIDE_&amp;_CONQUER">
        <rect x="-0" y="0" width="120" height="380" style="fill:#e6e6e6;fill-rule:nonzero;"/>
        <path d="M17,306L103,306C105.761,306 108,308.425 108,311.417L108,339.583C108,342.575 105.761,345 103,345L17,345C14.239,345 12,342.575 12,339.583L12,311.417C12,308.425 14.239,306 17,306Z" style="fill:#bcbdba;fill-rule:nonzero;"/>
        <path d="M17,262.5L103,262.5C105.761,262.5 108,264.894 108,267.847L108,295.653C108,298.606 105.761,301 103,301L17,301C14.239,301 12,298.606 12,295.653L12,267.847C12,264.894 14.239,262.5 17,262.5Z" style="fill:#bcbdba;fill-rule:nonzero;"/>
        <path d="M51,218L103,218C105.761,218 108,220.425 108,223.417L108,251.583C108,254.575 105.761,257 103,257L51,257C48.239,257 46,254.575 46,251.583L46,223.417C46,220.425 48.239,218 51,218Z" style="fill:#bcbdba;fill-rule:nonzero;"/>
        <path d="M51,156L103,156C105.761,156 108,158.239 108,161L108,187C108,189.761 105.761,192 103,192L51,192C48.239,192 46,189.761 46,187L46,161C46,158.239 48.239,156 51,156Z" style="fill:#bcbdba;fill-rule:nonzero;"/>
        <path d="M51,108L103,108C105.761,108 108,110.239 108,113L108,139C108,141.761 105.761,144 103,144L51,144C48.239,144 46,141.761 46,139L46,113C46,110.239 48.239,108 51,108Z" style="fill:#bcbdba;fill-rule:nonzero;"/>
        <path d="M17,218L35,218C37.761,218 40,220.425 40,223.417L40,251.583C40,254.575 37.761,257 35,257L17,257C14.239,257 12,254.575 12,251.583L12,223.417C12,220.425 14.239,218 17,218Z" style="fill:#fff;fill-rule:nonzero;"/>
        <path d="M17,156L35,156C37.761,156 40,158.239 40,161L40,187C40,189.761 37.761,192 35,192L17,192C14.239,192 12,189.761 12,187L12,161C12,158.239 14.239,156 17,156Z" style="fill:#fff;fill-rule:nonzero;"/>
        <path d="M17,108L35,108C37.761,108 40,110.239 40,113L40,139C40,141.761 37.761,144 35,144L17,144C14.239,144 12,141.761 12,139L12,113C12,110.239 14.239,108 17,108Z" style="fill:#fff;fill-rule:nonzero;"/>
        <path d="M51,60L103,60C105.761,60 108,62.239 108,65L108,91C108,93.761 105.761,96 103,96L51,96C48.239,96 46,93.761 46,91L46,65C46,62.239 48.239,60 51,60Z" style="fill:#bcbdba;fill-rule:nonzero;"/>
        <path d="M17,60L35,60C37.761,60 40,62.239 40,65L40,91C40,93.761 37.761,96 35,96L17,96C14.239,96 12,93.761 12,91L12,65C12,62.239 14.239,60 17,60Z" style="fill:#fff;fill-rule:nonzero;"/>
        <path d="M26.742,243.5L26.277,322.755" style="fill:none;fill-rule:nonzero;stroke:#007ba4;stroke-width:6px;"/>
        <g id="Group_6">
            <path d="M26.742,328.5L94.742,328.5" style="fill:none;fill-rule:nonzero;stroke:#007ba4;stroke-width:6px;"/>
            <path d="M90.57,314L85.426,314L85.426,312.121C85.426,312.025 85.437,311.923 85.459,311.814C85.481,311.706 85.515,311.599 85.562,311.492C85.609,311.385 85.67,311.284 85.744,311.188C85.818,311.091 85.908,311.006 86.014,310.932C86.119,310.857 86.241,310.798 86.379,310.754C86.517,310.71 86.673,310.688 86.848,310.688L89.137,310.688C89.275,310.688 89.377,310.653 89.443,310.584C89.51,310.515 89.543,310.414 89.543,310.281L89.543,309.832C89.543,309.694 89.509,309.59 89.441,309.52C89.374,309.449 89.275,309.414 89.145,309.414L85.883,309.414L85.883,308.398L89.145,308.398C89.316,308.398 89.471,308.42 89.609,308.465C89.747,308.509 89.869,308.568 89.975,308.643C90.08,308.717 90.171,308.802 90.246,308.898C90.321,308.995 90.383,309.096 90.432,309.201C90.48,309.306 90.515,309.413 90.537,309.521C90.559,309.63 90.57,309.731 90.57,309.824L90.57,310.281C90.57,310.544 90.523,310.766 90.428,310.947C90.333,311.128 90.213,311.276 90.07,311.389C89.927,311.502 89.772,311.584 89.607,311.635C89.442,311.686 89.288,311.711 89.145,311.711L86.848,311.711C86.765,311.711 86.698,311.723 86.648,311.746C86.599,311.769 86.56,311.801 86.533,311.84C86.506,311.879 86.486,311.923 86.473,311.973C86.46,312.022 86.449,312.072 86.441,312.121L86.441,312.984L90.57,312.984L90.57,314Z" style="fill-rule:nonzero;"/>
            <path d="M96.676,312.574C96.676,312.671 96.665,312.772 96.643,312.879C96.62,312.986 96.585,313.092 96.537,313.197C96.489,313.302 96.428,313.403 96.354,313.5C96.279,313.597 96.189,313.682 96.084,313.756C95.979,313.83 95.857,313.889 95.719,313.934C95.581,313.978 95.426,314 95.254,314L91.531,314L91.531,312.984L95.254,312.984C95.381,312.984 95.48,312.945 95.549,312.867C95.618,312.789 95.652,312.691 95.652,312.574L95.652,312.121C95.652,311.988 95.618,311.887 95.551,311.816C95.483,311.746 95.381,311.711 95.246,311.711L92.957,311.711C92.694,311.711 92.472,311.663 92.291,311.568C92.11,311.473 91.964,311.354 91.852,311.211C91.74,311.068 91.658,310.913 91.607,310.746C91.556,310.579 91.531,310.424 91.531,310.281L91.531,308.398L96.211,308.398L96.211,309.414L92.547,309.414L92.547,310.281C92.547,310.416 92.582,310.518 92.652,310.586C92.723,310.654 92.824,310.688 92.957,310.688L95.254,310.688C95.395,310.688 95.548,310.713 95.715,310.764C95.882,310.815 96.036,310.897 96.178,311.01C96.32,311.123 96.438,311.271 96.533,311.453C96.628,311.636 96.676,311.858 96.676,312.121L96.676,312.574Z" style="fill-rule:nonzero;"/>
            <path d="M98.527,310.688L101.23,310.688C101.373,310.688 101.528,310.713 101.693,310.764C101.858,310.815 102.013,310.897 102.156,311.01C102.299,311.123 102.419,311.271 102.514,311.453C102.609,311.636 102.656,311.858 102.656,312.121L102.656,312.574C102.656,312.671 102.645,312.772 102.623,312.879C102.601,312.986 102.566,313.092 102.518,313.197C102.469,313.302 102.408,313.403 102.334,313.5C102.26,313.597 102.17,313.682 102.064,313.756C101.959,313.83 101.837,313.889 101.699,313.934C101.561,313.978 101.405,314 101.23,314L99.391,314C99.266,314 99.132,313.986 98.99,313.957C98.848,313.928 98.708,313.882 98.57,313.818C98.432,313.755 98.299,313.674 98.17,313.576C98.041,313.479 97.929,313.36 97.832,313.221C97.736,313.082 97.659,312.921 97.6,312.738C97.541,312.556 97.512,312.35 97.512,312.121L97.512,310.281C97.512,310.052 97.541,309.847 97.6,309.664C97.659,309.482 97.736,309.321 97.832,309.182C97.929,309.043 98.041,308.923 98.17,308.824C98.299,308.725 98.432,308.644 98.57,308.58C98.708,308.516 98.848,308.47 98.99,308.441C99.132,308.412 99.266,308.398 99.391,308.398L101.938,308.398L101.938,309.414L99.391,309.414C99.26,309.425 99.142,309.452 99.037,309.496C98.932,309.54 98.841,309.599 98.766,309.672C98.69,309.745 98.631,309.833 98.59,309.936C98.548,310.039 98.527,310.154 98.527,310.281L98.527,310.688ZM98.527,311.711L98.527,312.121C98.527,312.254 98.55,312.373 98.596,312.479C98.641,312.584 98.703,312.675 98.781,312.75C98.859,312.825 98.951,312.883 99.057,312.924C99.162,312.964 99.276,312.984 99.398,312.984L101.23,312.984C101.361,312.984 101.46,312.945 101.529,312.867C101.598,312.789 101.633,312.691 101.633,312.574L101.633,312.121C101.633,311.988 101.599,311.887 101.531,311.816C101.464,311.746 101.361,311.711 101.223,311.711L98.527,311.711Z" style="fill-rule:nonzero;"/>
            <path d="M54.803,314L53.783,314L53.783,309.414L52.865,309.414L52.865,308.398L54.803,308.398L54.803,314Z" style="fill-rule:nonzero;"/>
            <path d="M60.982,314L55.838,314L55.838,312.121C55.838,312.025 55.849,311.923 55.871,311.814C55.893,311.706 55.928,311.599 55.975,311.492C56.022,311.385 56.082,311.284 56.156,311.188C56.231,311.091 56.321,311.006 56.426,310.932C56.531,310.857 56.653,310.798 56.791,310.754C56.929,310.71 57.085,310.688 57.26,310.688L59.549,310.688C59.687,310.688 59.789,310.653 59.855,310.584C59.922,310.515 59.955,310.414 59.955,310.281L59.955,309.832C59.955,309.694 59.921,309.59 59.854,309.52C59.786,309.449 59.687,309.414 59.557,309.414L56.295,309.414L56.295,308.398L59.557,308.398C59.728,308.398 59.883,308.42 60.021,308.465C60.16,308.509 60.282,308.568 60.387,308.643C60.492,308.717 60.583,308.802 60.658,308.898C60.733,308.995 60.795,309.096 60.844,309.201C60.892,309.306 60.927,309.413 60.949,309.521C60.971,309.63 60.982,309.731 60.982,309.824L60.982,310.281C60.982,310.544 60.935,310.766 60.84,310.947C60.745,311.128 60.625,311.276 60.482,311.389C60.339,311.502 60.185,311.584 60.02,311.635C59.854,311.686 59.7,311.711 59.557,311.711L57.26,311.711C57.177,311.711 57.11,311.723 57.061,311.746C57.011,311.769 56.972,311.801 56.945,311.84C56.918,311.879 56.898,311.923 56.885,311.973C56.872,312.022 56.861,312.072 56.854,312.121L56.854,312.984L60.982,312.984L60.982,314Z" style="fill-rule:nonzero;"/>
            <path d="M67.002,312.574C67.002,312.671 66.991,312.772 66.969,312.879C66.947,312.986 66.912,313.092 66.863,313.197C66.815,313.302 66.753,313.403 66.678,313.5C66.602,313.597 66.511,313.682 66.406,313.756C66.301,313.83 66.179,313.889 66.041,313.934C65.903,313.978 65.748,314 65.576,314L63.279,314C63.138,314 62.985,313.975 62.818,313.926C62.651,313.877 62.497,313.795 62.355,313.682C62.214,313.569 62.095,313.421 62,313.24C61.905,313.059 61.857,312.837 61.857,312.574L61.857,312.121C61.857,312.022 61.868,311.918 61.891,311.809C61.913,311.7 61.948,311.591 61.996,311.484C62.044,311.377 62.106,311.276 62.182,311.18C62.257,311.083 62.348,311 62.455,310.93C62.408,310.821 62.373,310.71 62.35,310.598C62.326,310.486 62.314,310.38 62.314,310.281L62.314,309.824C62.314,309.564 62.362,309.343 62.457,309.16C62.552,308.978 62.671,308.831 62.812,308.719C62.954,308.607 63.108,308.526 63.275,308.475C63.442,308.424 63.595,308.398 63.736,308.398L65.111,308.398C65.286,308.398 65.443,308.42 65.582,308.465C65.721,308.509 65.844,308.568 65.949,308.643C66.054,308.717 66.144,308.802 66.219,308.898C66.293,308.995 66.353,309.096 66.4,309.201C66.447,309.306 66.482,309.413 66.504,309.521C66.526,309.63 66.537,309.731 66.537,309.824L66.537,310.281C66.537,310.536 66.491,310.758 66.4,310.945C66.483,311 66.562,311.064 66.635,311.139C66.708,311.213 66.771,311.298 66.826,311.395C66.881,311.491 66.924,311.6 66.955,311.721C66.986,311.842 67.002,311.975 67.002,312.121L67.002,312.574ZM65.521,309.832C65.521,309.694 65.486,309.59 65.416,309.52C65.346,309.449 65.244,309.414 65.111,309.414L63.744,309.414C63.606,309.414 63.504,309.449 63.438,309.52C63.371,309.59 63.338,309.691 63.338,309.824L63.338,310.281C63.338,310.416 63.372,310.518 63.441,310.586C63.51,310.654 63.609,310.688 63.736,310.688L65.111,310.688C65.249,310.688 65.352,310.653 65.42,310.584C65.487,310.515 65.521,310.414 65.521,310.281L65.521,309.832ZM65.975,312.121C65.975,311.991 65.939,311.89 65.867,311.818C65.796,311.747 65.699,311.711 65.576,311.711L63.279,311.711C63.154,311.711 63.055,311.75 62.982,311.828C62.909,311.906 62.873,312.004 62.873,312.121L62.873,312.574C62.873,312.699 62.911,312.799 62.988,312.873C63.065,312.947 63.162,312.984 63.279,312.984L65.576,312.984C65.706,312.984 65.805,312.945 65.873,312.867C65.941,312.789 65.975,312.691 65.975,312.574L65.975,312.121Z" style="fill-rule:nonzero;"/>
            <path d="M31.422,310.688L34.125,310.688C34.268,310.688 34.423,310.713 34.588,310.764C34.753,310.815 34.908,310.897 35.051,311.01C35.194,311.123 35.313,311.271 35.408,311.453C35.503,311.636 35.551,311.858 35.551,312.121L35.551,312.574C35.551,312.671 35.54,312.772 35.518,312.879C35.495,312.986 35.46,313.092 35.412,313.197C35.364,313.302 35.303,313.403 35.229,313.5C35.154,313.597 35.064,313.682 34.959,313.756C34.854,313.83 34.732,313.889 34.594,313.934C34.456,313.978 34.3,314 34.125,314L32.285,314C32.16,314 32.027,313.986 31.885,313.957C31.743,313.928 31.603,313.882 31.465,313.818C31.327,313.755 31.193,313.674 31.064,313.576C30.935,313.479 30.823,313.36 30.727,313.221C30.63,313.082 30.553,312.921 30.494,312.738C30.435,312.556 30.406,312.35 30.406,312.121L30.406,310.281C30.406,310.052 30.435,309.847 30.494,309.664C30.553,309.482 30.63,309.321 30.727,309.182C30.823,309.043 30.935,308.923 31.064,308.824C31.193,308.725 31.327,308.644 31.465,308.58C31.603,308.516 31.743,308.47 31.885,308.441C32.027,308.412 32.16,308.398 32.285,308.398L34.832,308.398L34.832,309.414L32.285,309.414C32.155,309.425 32.037,309.452 31.932,309.496C31.826,309.54 31.735,309.599 31.66,309.672C31.585,309.745 31.526,309.833 31.484,309.936C31.443,310.039 31.422,310.154 31.422,310.281L31.422,310.688ZM31.422,311.711L31.422,312.121C31.422,312.254 31.445,312.373 31.49,312.479C31.536,312.584 31.598,312.675 31.676,312.75C31.754,312.825 31.846,312.883 31.951,312.924C32.056,312.964 32.17,312.984 32.293,312.984L34.125,312.984C34.255,312.984 34.355,312.945 34.424,312.867C34.493,312.789 34.527,312.691 34.527,312.574L34.527,312.121C34.527,311.988 34.493,311.887 34.426,311.816C34.358,311.746 34.255,311.711 34.117,311.711L31.422,311.711Z" style="fill-rule:nonzero;"/>
            <path d="M41.449,314L40.426,314L40.426,311.711L36.816,311.711C36.743,311.711 36.676,311.697 36.613,311.67C36.551,311.643 36.497,311.606 36.451,311.561C36.406,311.515 36.37,311.461 36.344,311.398C36.318,311.336 36.305,311.27 36.305,311.199L36.305,308.398L37.32,308.398L37.32,310.688L40.426,310.688L40.426,308.398L41.449,308.398L41.449,314Z" style="fill-rule:nonzero;"/>
            <path d="M60.5,328.5L78.5,316.5" style="fill:none;fill-rule:nonzero;stroke:#007ba4;stroke-width:2px;stroke-linecap:butt;stroke-linejoin:miter;"/>
            <g>
                <path d="M78.5,320.5C76.291,320.5 74.5,318.709 74.5,316.5C74.5,314.291 76.291,312.5 78.5,312.5C80.709,312.5 82.5,314.291 82.5,316.5C82.5,318.709 80.709,320.5 78.5,320.5Z" style="fill:#e6e6e6;fill-rule:nonzero;"/>
                <path d="M78.5,320.5C76.291,320.5 74.5,318.709 74.5,316.5C74.5,314.291 76.291,312.5 78.5,312.5C80.709,312.5 82.5,314.291 82.5,316.5C82.5,318.709 80.709,320.5 78.5,320.5Z" style="fill-opacity:0;fill-rule:nonzero;stroke:#000;stroke-width:0.25px;stroke-linecap:butt;stroke-linejoin:miter;"/>
            </g>
            <path d="M76.5,340.5L94.5,328.5" style="fill:none;fill-rule:nonzero;stroke:#007ba4;stroke-width:2px;stroke-linecap:butt;stroke-linejoin:miter;"/>
            <g>
                <path d="M78.5,343.5C76.291,343.5 74.5,341.709 74.5,339.5C74.5,337.291 76.291,335.5 78.5,335.5C80.709,335.5 82.5,337.291 82.5,339.5C82.5,341.709 80.709,343.5 78.5,343.5Z" style="fill:#e6e6e6;fill-rule:nonzero;"/>
                <path d="M78.5,343.5C76.291,343.5 74.5,341.709 74.5,339.5C74.5,337.291 76.291,335.5 78.5,335.5C80.709,335.5 82.5,337.291 82.5,339.5C82.5,341.709 80.709,343.5 78.5,343.5Z" style="fill-opacity:0;fill-rule:nonzero;stroke:#000;stroke-width:0.25px;stroke-linecap:butt;stroke-linejoin:miter;"/>
            </g>
            <g id="circle868">
                <path d="M106.5,328.5C106.5,335.128 101.127,340.5 94.5,340.5C87.873,340.5 82.5,335.128 82.5,328.5C82.5,321.872 87.873,316.5 94.5,316.5C101.127,316.5 106.5,321.872 106.5,328.5Z" style="fill:#fff;fill-rule:nonzero;"/>
                <path d="M106.5,328.5C106.5,335.128 101.127,340.5 94.5,340.5C87.873,340.5 82.5,335.128 82.5,328.5C82.5,321.872 87.873,316.5 94.5,316.5C101.127,316.5 106.5,321.872 106.5,328.5Z" style="fill-opacity:0;fill-rule:nonzero;stroke:#000;stroke-width:0.25px;stroke-linecap:butt;stroke-linejoin:miter;"/>
            </g>
            <g id="circle8681" serif:id="circle868">
                <path d="M72.5,328.5C72.5,335.128 67.127,340.5 60.5,340.5C53.873,340.5 48.5,335.128 48.5,328.5C48.5,321.872 53.873,316.5 60.5,316.5C67.127,316.5 72.5,321.872 72.5,328.5Z" style="fill:#fff;fill-rule:nonzero;"/>
                <path d="M72.5,328.5C72.5,335.128 67.127,340.5 60.5,340.5C53.873,340.5 48.5,335.128 48.5,328.5C48.5,321.872 53.873,316.5 60.5,316.5C67.127,316.5 72.5,321.872 72.5,328.5Z" style="fill-opacity:0;fill-rule:nonzero;stroke:#000;stroke-width:0.25px;stroke-linecap:butt;stroke-linejoin:miter;"/>
            </g>
            <g id="circle8682" serif:id="circle868">
                <path d="M38.5,328.5C38.5,335.128 33.127,340.5 26.5,340.5C19.873,340.5 14.5,335.128 14.5,328.5C14.5,321.872 19.873,316.5 26.5,316.5C33.127,316.5 38.5,321.872 38.5,328.5Z" style="fill:#fff;fill-rule:nonzero;"/>
                <path d="M38.5,328.5C38.5,335.128 33.127,340.5 26.5,340.5C19.873,340.5 14.5,335.128 14.5,328.5C14.5,321.872 19.873,316.5 26.5,316.5C33.127,316.5 38.5,321.872 38.5,328.5Z" style="fill-opacity:0;fill-rule:nonzero;stroke:#000;stroke-width:0.25px;stroke-linecap:butt;stroke-linejoin:miter;"/>
            </g>
        </g>
        <g id="Group_5">
            <path d="M26.742,284.5L94.742,284.5" style="fill:none;fill-rule:nonzero;stroke:#007ba4;stroke-width:6px;"/>
            <path d="M93.32,268.574C93.32,268.837 93.273,269.059 93.178,269.24C93.083,269.421 92.964,269.569 92.822,269.682C92.68,269.795 92.526,269.877 92.359,269.926C92.192,269.975 92.038,270 91.895,270L88.637,270L88.637,268.984L91.895,268.984C92.033,268.984 92.135,268.949 92.201,268.879C92.268,268.808 92.301,268.707 92.301,268.574L92.301,267.711L88.637,267.711L88.637,266.688L92.301,266.688L92.301,265.832C92.301,265.553 92.166,265.414 91.895,265.414L88.637,265.414L88.637,264.398L91.895,264.398C92.069,264.398 92.225,264.42 92.363,264.465C92.501,264.509 92.623,264.568 92.729,264.643C92.834,264.717 92.925,264.802 93,264.898C93.075,264.995 93.137,265.096 93.184,265.201C93.231,265.306 93.265,265.413 93.287,265.521C93.309,265.63 93.32,265.731 93.32,265.824L93.32,268.574Z" style="fill-rule:nonzero;"/>
            <path d="M99.426,270L94.281,270L94.281,268.121C94.281,268.025 94.292,267.923 94.314,267.814C94.337,267.706 94.371,267.599 94.418,267.492C94.465,267.385 94.525,267.284 94.6,267.188C94.674,267.091 94.764,267.006 94.869,266.932C94.974,266.857 95.096,266.798 95.234,266.754C95.372,266.71 95.528,266.688 95.703,266.688L97.992,266.688C98.13,266.688 98.232,266.653 98.299,266.584C98.365,266.515 98.398,266.414 98.398,266.281L98.398,265.832C98.398,265.694 98.364,265.59 98.297,265.52C98.229,265.449 98.13,265.414 98,265.414L94.738,265.414L94.738,264.398L98,264.398C98.172,264.398 98.327,264.42 98.465,264.465C98.603,264.509 98.725,264.568 98.83,264.643C98.935,264.717 99.026,264.802 99.102,264.898C99.177,264.995 99.239,265.096 99.287,265.201C99.335,265.306 99.37,265.413 99.393,265.521C99.415,265.63 99.426,265.731 99.426,265.824L99.426,266.281C99.426,266.544 99.378,266.766 99.283,266.947C99.188,267.128 99.069,267.276 98.926,267.389C98.783,267.502 98.628,267.584 98.463,267.635C98.298,267.686 98.143,267.711 98,267.711L95.703,267.711C95.62,267.711 95.553,267.723 95.504,267.746C95.455,267.769 95.416,267.801 95.389,267.84C95.362,267.879 95.341,267.923 95.328,267.973C95.315,268.022 95.305,268.072 95.297,268.121L95.297,268.984L99.426,268.984L99.426,270Z" style="fill-rule:nonzero;"/>
            <path d="M57.82,270L56.801,270L56.801,265.414L55.883,265.414L55.883,264.398L57.82,264.398L57.82,270Z" style="fill-rule:nonzero;"/>
            <path d="M59.934,266.688L62.637,266.688C62.78,266.688 62.935,266.713 63.1,266.764C63.265,266.815 63.419,266.897 63.562,267.01C63.705,267.123 63.825,267.271 63.92,267.453C64.015,267.636 64.062,267.858 64.062,268.121L64.062,268.574C64.062,268.671 64.051,268.772 64.029,268.879C64.007,268.986 63.972,269.092 63.924,269.197C63.876,269.302 63.815,269.403 63.74,269.5C63.666,269.597 63.576,269.682 63.471,269.756C63.365,269.83 63.243,269.889 63.105,269.934C62.967,269.978 62.811,270 62.637,270L60.797,270C60.672,270 60.538,269.986 60.396,269.957C60.255,269.928 60.115,269.882 59.977,269.818C59.839,269.755 59.705,269.674 59.576,269.576C59.447,269.479 59.335,269.36 59.238,269.221C59.142,269.082 59.065,268.921 59.006,268.738C58.947,268.556 58.918,268.35 58.918,268.121L58.918,266.281C58.918,266.052 58.947,265.847 59.006,265.664C59.065,265.482 59.142,265.321 59.238,265.182C59.335,265.043 59.447,264.923 59.576,264.824C59.705,264.725 59.839,264.644 59.977,264.58C60.115,264.516 60.255,264.47 60.396,264.441C60.538,264.412 60.672,264.398 60.797,264.398L63.344,264.398L63.344,265.414L60.797,265.414C60.667,265.425 60.549,265.452 60.443,265.496C60.338,265.54 60.247,265.599 60.172,265.672C60.097,265.745 60.038,265.833 59.996,265.936C59.955,266.039 59.934,266.154 59.934,266.281L59.934,266.688ZM59.934,267.711L59.934,268.121C59.934,268.254 59.957,268.373 60.002,268.479C60.047,268.584 60.109,268.675 60.188,268.75C60.266,268.825 60.358,268.883 60.463,268.924C60.568,268.964 60.682,268.984 60.805,268.984L62.637,268.984C62.767,268.984 62.867,268.945 62.936,268.867C63.005,268.789 63.039,268.691 63.039,268.574L63.039,268.121C63.039,267.988 63.005,267.887 62.938,267.816C62.87,267.746 62.767,267.711 62.629,267.711L59.934,267.711Z" style="fill-rule:nonzero;"/>
            <path d="M38.574,268.574C38.574,268.671 38.563,268.772 38.541,268.879C38.519,268.986 38.484,269.092 38.436,269.197C38.387,269.302 38.325,269.403 38.25,269.5C38.175,269.597 38.084,269.682 37.979,269.756C37.873,269.83 37.751,269.889 37.613,269.934C37.475,269.978 37.32,270 37.148,270L34.852,270C34.711,270 34.558,269.975 34.391,269.926C34.224,269.877 34.07,269.795 33.928,269.682C33.786,269.569 33.667,269.421 33.572,269.24C33.477,269.059 33.43,268.837 33.43,268.574L33.43,268.121C33.43,268.022 33.441,267.918 33.463,267.809C33.485,267.7 33.52,267.591 33.568,267.484C33.617,267.377 33.679,267.276 33.754,267.18C33.829,267.083 33.92,267 34.027,266.93C33.98,266.821 33.945,266.71 33.922,266.598C33.899,266.486 33.887,266.38 33.887,266.281L33.887,265.824C33.887,265.564 33.934,265.343 34.029,265.16C34.124,264.978 34.243,264.831 34.385,264.719C34.527,264.607 34.681,264.526 34.848,264.475C35.015,264.424 35.168,264.398 35.309,264.398L36.684,264.398C36.858,264.398 37.015,264.42 37.154,264.465C37.293,264.509 37.416,264.568 37.521,264.643C37.627,264.717 37.717,264.802 37.791,264.898C37.865,264.995 37.926,265.096 37.973,265.201C38.02,265.306 38.054,265.413 38.076,265.521C38.098,265.63 38.109,265.731 38.109,265.824L38.109,266.281C38.109,266.536 38.064,266.758 37.973,266.945C38.056,267 38.134,267.064 38.207,267.139C38.28,267.213 38.343,267.298 38.398,267.395C38.453,267.491 38.496,267.6 38.527,267.721C38.558,267.842 38.574,267.975 38.574,268.121L38.574,268.574ZM37.094,265.832C37.094,265.694 37.059,265.59 36.988,265.52C36.918,265.449 36.817,265.414 36.684,265.414L35.316,265.414C35.178,265.414 35.076,265.449 35.01,265.52C34.943,265.59 34.91,265.691 34.91,265.824L34.91,266.281C34.91,266.416 34.945,266.518 35.014,266.586C35.083,266.654 35.181,266.688 35.309,266.688L36.684,266.688C36.822,266.688 36.925,266.653 36.992,266.584C37.06,266.515 37.094,266.414 37.094,266.281L37.094,265.832ZM37.547,268.121C37.547,267.991 37.511,267.89 37.439,267.818C37.368,267.747 37.271,267.711 37.148,267.711L34.852,267.711C34.727,267.711 34.628,267.75 34.555,267.828C34.482,267.906 34.445,268.004 34.445,268.121L34.445,268.574C34.445,268.699 34.484,268.799 34.561,268.873C34.638,268.947 34.735,268.984 34.852,268.984L37.148,268.984C37.279,268.984 37.378,268.945 37.445,268.867C37.513,268.789 37.547,268.691 37.547,268.574L37.547,268.121Z" style="fill-rule:nonzero;"/>
            <path d="M60.5,284.5L78.5,272.5" style="fill:none;fill-rule:nonzero;stroke:#007ba4;stroke-width:2px;stroke-linecap:butt;stroke-linejoin:miter;"/>
            <g>
                <path d="M78.5,276.5C76.291,276.5 74.5,274.709 74.5,272.5C74.5,270.291 76.291,268.5 78.5,268.5C80.709,268.5 82.5,270.291 82.5,272.5C82.5,274.709 80.709,276.5 78.5,276.5Z" style="fill:#e6e6e6;fill-rule:nonzero;"/>
                <path d="M78.5,276.5C76.291,276.5 74.5,274.709 74.5,272.5C74.5,270.291 76.291,268.5 78.5,268.5C80.709,268.5 82.5,270.291 82.5,272.5C82.5,274.709 80.709,276.5 78.5,276.5Z" style="fill-opacity:0;fill-rule:nonzero;stroke:#000;stroke-width:0.25px;stroke-linecap:butt;stroke-linejoin:miter;"/>
            </g>
            <path d="M76.5,296.5L94.5,284.5" style="fill:none;fill-rule:nonzero;stroke:#007ba4;stroke-width:2px;stroke-linecap:butt;stroke-linejoin:miter;"/>
            <g>
                <path d="M78.5,299.5C76.291,299.5 74.5,297.709 74.5,295.5C74.5,293.291 76.291,291.5 78.5,291.5C80.709,291.5 82.5,293.291 82.5,295.5C82.5,297.709 80.709,299.5 78.5,299.5Z" style="fill:#e6e6e6;fill-rule:nonzero;"/>
                <path d="M78.5,299.5C76.291,299.5 74.5,297.709 74.5,295.5C74.5,293.291 76.291,291.5 78.5,291.5C80.709,291.5 82.5,293.291 82.5,295.5C82.5,297.709 80.709,299.5 78.5,299.5Z" style="fill-opacity:0;fill-rule:nonzero;stroke:#000;stroke-width:0.25px;stroke-linecap:butt;stroke-linejoin:miter;"/>
            </g>
            <g id="circle8683" serif:id="circle868">
                <path d="M106.5,284.5C106.5,291.128 101.127,296.5 94.5,296.5C87.873,296.5 82.5,291.128 82.5,284.5C82.5,277.872 87.873,272.5 94.5,272.5C101.127,272.5 106.5,277.872 106.5,284.5Z" style="fill:#fff;fill-rule:nonzero;"/>
                <path d="M106.5,284.5C106.5,291.128 101.127,296.5 94.5,296.5C87.873,296.5 82.5,291.128 82.5,284.5C82.5,277.872 87.873,272.5 94.5,272.5C101.127,272.5 106.5,277.872 106.5,284.5Z" style="fill-opacity:0;fill-rule:nonzero;stroke:#000;stroke-width:0.25px;stroke-linecap:butt;stroke-linejoin:miter;"/>
            </g>
            <g id="circle8684" serif:id="circle868">
                <path d="M72.5,284.5C72.5,291.128 67.127,296.5 60.5,296.5C53.873,296.5 48.5,291.128 48.5,284.5C48.5,277.872 53.873,272.5 60.5,272.5C67.127,272.5 72.5,277.872 72.5,284.5Z" style="fill:#fff;fill-rule:nonzero;"/>
                <path d="M72.5,284.5C72.5,291.128 67.127,296.5 60.5,296.5C53.873,296.5 48.5,291.128 48.5,284.5C48.5,277.872 53.873,272.5 60.5,272.5C67.127,272.5 72.5,277.872 72.5,284.5Z" style="fill-opacity:0;fill-rule:nonzero;stroke:#000;stroke-width:0.25px;stroke-linecap:butt;stroke-linejoin:miter;"/>
            </g>
            <g id="circle8685" serif:id="circle868">
                <path d="M38.5,284.5C38.5,291.128 33.127,296.5 26.5,296.5C19.873,296.5 14.5,291.128 14.5,284.5C14.5,277.872 19.873,272.5 26.5,272.5C33.127,272.5 38.5,277.872 38.5,284.5Z" style="fill:#fff;fill-rule:nonzero;"/>
                <path d="M38.5,284.5C38.5,291.128 33.127,296.5 26.5,296.5C19.873,296.5 14.5,291.128 14.5,284.5C14.5,277.872 19.873,272.5 26.5,272.5C33.127,272.5 38.5,277.872 38.5,284.5Z" style="fill-opacity:0;fill-rule:nonzero;stroke:#000;stroke-width:0.25px;stroke-linecap:butt;stroke-linejoin:miter;"/>
            </g>
        </g>
        <g id="Group_4">
            <path d="M26.742,240.5L94.742,240.5" style="fill:none;fill-rule:nonzero;stroke:#007ba4;stroke-width:6px;"/>
            <path d="M96.473,226L95.449,226L95.449,223.711L91.84,223.711C91.767,223.711 91.699,223.697 91.637,223.67C91.574,223.643 91.52,223.606 91.475,223.561C91.429,223.515 91.393,223.461 91.367,223.398C91.341,223.336 91.328,223.27 91.328,223.199L91.328,220.398L92.344,220.398L92.344,222.688L95.449,222.688L95.449,220.398L96.473,220.398L96.473,226Z" style="fill-rule:nonzero;"/>
            <path d="M62.549,226L57.404,226L57.404,224.121C57.404,224.025 57.415,223.923 57.438,223.814C57.46,223.706 57.494,223.599 57.541,223.492C57.588,223.385 57.648,223.284 57.723,223.188C57.797,223.091 57.887,223.006 57.992,222.932C58.097,222.857 58.219,222.798 58.357,222.754C58.495,222.71 58.651,222.688 58.826,222.688L61.115,222.688C61.253,222.688 61.355,222.653 61.422,222.584C61.488,222.515 61.521,222.414 61.521,222.281L61.521,221.832C61.521,221.694 61.487,221.59 61.42,221.52C61.352,221.449 61.253,221.414 61.123,221.414L57.861,221.414L57.861,220.398L61.123,220.398C61.295,220.398 61.45,220.42 61.588,220.465C61.726,220.509 61.848,220.568 61.953,220.643C62.058,220.717 62.149,220.802 62.225,220.898C62.3,220.995 62.362,221.096 62.41,221.201C62.458,221.306 62.493,221.413 62.516,221.521C62.538,221.63 62.549,221.731 62.549,221.824L62.549,222.281C62.549,222.544 62.501,222.766 62.406,222.947C62.311,223.128 62.192,223.276 62.049,223.389C61.906,223.502 61.751,223.584 61.586,223.635C61.421,223.686 61.266,223.711 61.123,223.711L58.826,223.711C58.743,223.711 58.676,223.723 58.627,223.746C58.578,223.769 58.539,223.801 58.512,223.84C58.485,223.879 58.464,223.923 58.451,223.973C58.438,224.022 58.428,224.072 58.42,224.121L58.42,224.984L62.549,224.984L62.549,226Z" style="fill-rule:nonzero;"/>
            <rect x="23.104" y="220.398" width="1.015" height="5.602" style="fill-rule:nonzero;"/>
            <path d="M30.904,225.566C30.904,225.639 30.89,225.707 30.863,225.77C30.836,225.832 30.799,225.886 30.754,225.932C30.709,225.977 30.655,226.013 30.592,226.039C30.529,226.065 30.463,226.078 30.393,226.078C30.33,226.078 30.267,226.066 30.203,226.043C30.139,226.02 30.082,225.982 30.033,225.93L26.322,222.055L26.322,226L25.307,226L25.307,220.832C25.307,220.728 25.336,220.634 25.395,220.549C25.453,220.464 25.528,220.401 25.619,220.359C25.716,220.32 25.815,220.311 25.916,220.33C26.017,220.349 26.105,220.397 26.178,220.473L29.889,224.344L29.889,220.398L30.904,220.398L30.904,225.566Z" style="fill-rule:nonzero;"/>
            <path d="M60.5,240.5L78.5,228.5" style="fill:none;fill-rule:nonzero;stroke:#007ba4;stroke-width:2px;stroke-linecap:butt;stroke-linejoin:miter;"/>
            <g>
                <path d="M78.5,232.5C76.291,232.5 74.5,230.709 74.5,228.5C74.5,226.291 76.291,224.5 78.5,224.5C80.709,224.5 82.5,226.291 82.5,228.5C82.5,230.709 80.709,232.5 78.5,232.5Z" style="fill:#e6e6e6;fill-rule:nonzero;"/>
                <path d="M78.5,232.5C76.291,232.5 74.5,230.709 74.5,228.5C74.5,226.291 76.291,224.5 78.5,224.5C80.709,224.5 82.5,226.291 82.5,228.5C82.5,230.709 80.709,232.5 78.5,232.5Z" style="fill-opacity:0;fill-rule:nonzero;stroke:#000;stroke-width:0.25px;stroke-linecap:butt;stroke-linejoin:miter;"/>
            </g>
            <path d="M76.5,252.5L94.5,240.5" style="fill:none;fill-rule:nonzero;stroke:#007ba4;stroke-width:2px;stroke-linecap:butt;stroke-linejoin:miter;"/>
            <g>
                <path d="M78.5,255.5C76.291,255.5 74.5,253.709 74.5,251.5C74.5,249.291 76.291,247.5 78.5,247.5C80.709,247.5 82.5,249.291 82.5,251.5C82.5,253.709 80.709,255.5 78.5,255.5Z" style="fill:#e6e6e6;fill-rule:nonzero;"/>
                <path d="M78.5,255.5C76.291,255.5 74.5,253.709 74.5,251.5C74.5,249.291 76.291,247.5 78.5,247.5C80.709,247.5 82.5,249.291 82.5,251.5C82.5,253.709 80.709,255.5 78.5,255.5Z" style="fill-opacity:0;fill-rule:nonzero;stroke:#000;stroke-width:0.25px;stroke-linecap:butt;stroke-linejoin:miter;"/>
            </g>
            <g id="circle8686" serif:id="circle868">
                <path d="M106.5,240.5C106.5,247.127 101.127,252.5 94.5,252.5C87.873,252.5 82.5,247.127 82.5,240.5C82.5,233.873 87.873,228.5 94.5,228.5C101.127,228.5 106.5,233.873 106.5,240.5Z" style="fill:#fff;fill-rule:nonzero;"/>
                <path d="M106.5,240.5C106.5,247.127 101.127,252.5 94.5,252.5C87.873,252.5 82.5,247.127 82.5,240.5C82.5,233.873 87.873,228.5 94.5,228.5C101.127,228.5 106.5,233.873 106.5,240.5Z" style="fill-opacity:0;fill-rule:nonzero;stroke:#000;stroke-width:0.25px;stroke-linecap:butt;stroke-linejoin:miter;"/>
            </g>
            <g id="circle8687" serif:id="circle868">
                <path d="M72.5,240.5C72.5,247.127 67.127,252.5 60.5,252.5C53.873,252.5 48.5,247.127 48.5,240.5C48.5,233.873 53.873,228.5 60.5,228.5C67.127,228.5 72.5,233.873 72.5,240.5Z" style="fill:#fff;fill-rule:nonzero;"/>
                <path d="M72.5,240.5C72.5,247.127 67.127,252.5 60.5,252.5C53.873,252.5 48.5,247.127 48.5,240.5C48.5,233.873 53.873,228.5 60.5,228.5C67.127,228.5 72.5,233.873 72.5,240.5Z" style="fill-opacity:0;fill-rule:nonzero;stroke:#000;stroke-width:0.25px;stroke-linecap:butt;stroke-linejoin:miter;"/>
            </g>
            <g id="circle8688" serif:id="circle868">
                <path d="M38.5,240.5C38.5,247.127 33.127,252.5 26.5,252.5C19.873,252.5 14.5,247.127 14.5,240.5C14.5,233.873 19.873,228.5 26.5,228.5C33.127,228.5 38.5,233.873 38.5,240.5Z" style="fill:#fff;fill-rule:nonzero;"/>
                <path d="M38.5,240.5C38.5,247.127 33.127,252.5 26.5,252.5C19.873,252.5 14.5,247.127 14.5,240.5C14.5,233.873 19.873,228.5 26.5,228.5C33.127,228.5 38.5,233.873 38.5,240.5Z" style="fill-opacity:0;fill-rule:nonzero;stroke:#000;stroke-width:0.25px;stroke-linecap:butt;stroke-linejoin:miter;"/>
            </g>
        </g>
        <g id="Group_3">
            <path d="M26.742,178.5L94.742,178.5" style="fill:none;fill-rule:nonzero;stroke:#007ba4;stroke-width:6px;"/>
            <path d="M96.314,158.656C96.359,158.737 96.381,158.822 96.381,158.912C96.381,159.002 96.359,159.087 96.314,159.168L93.498,164L92.322,164L94.986,159.414L91.697,159.414L91.697,158.398L95.873,158.398C95.964,158.398 96.05,158.421 96.129,158.467C96.208,158.512 96.27,158.575 96.314,158.656Z" style="fill-rule:nonzero;"/>
            <path d="M56.92,158.656C56.964,158.737 56.986,158.822 56.986,158.912C56.986,159.002 56.964,159.087 56.92,159.168L54.104,164L52.928,164L55.592,159.414L52.303,159.414L52.303,158.398L56.479,158.398C56.57,158.398 56.655,158.421 56.734,158.467C56.814,158.512 56.876,158.575 56.92,158.656Z" style="fill-rule:nonzero;"/>
            <path d="M61.697,158.398L58.162,164L57.072,164L60.611,158.398L61.697,158.398Z" style="fill-rule:nonzero;"/>
            <path d="M67.498,164L62.354,164L62.354,162.121C62.354,162.025 62.365,161.923 62.387,161.814C62.409,161.706 62.443,161.599 62.49,161.492C62.537,161.385 62.598,161.284 62.672,161.188C62.746,161.091 62.836,161.006 62.941,160.932C63.047,160.857 63.169,160.798 63.307,160.754C63.445,160.71 63.601,160.688 63.775,160.688L66.064,160.688C66.202,160.688 66.304,160.653 66.371,160.584C66.438,160.515 66.471,160.414 66.471,160.281L66.471,159.832C66.471,159.694 66.437,159.59 66.369,159.52C66.302,159.449 66.203,159.414 66.072,159.414L62.811,159.414L62.811,158.398L66.072,158.398C66.244,158.398 66.399,158.42 66.537,158.465C66.675,158.509 66.797,158.568 66.902,158.643C67.008,158.717 67.099,158.802 67.174,158.898C67.249,158.995 67.311,159.096 67.359,159.201C67.408,159.306 67.443,159.413 67.465,159.521C67.487,159.63 67.498,159.731 67.498,159.824L67.498,160.281C67.498,160.544 67.45,160.766 67.355,160.947C67.26,161.128 67.141,161.276 66.998,161.389C66.855,161.502 66.7,161.584 66.535,161.635C66.37,161.686 66.215,161.711 66.072,161.711L63.775,161.711C63.692,161.711 63.625,161.723 63.576,161.746C63.527,161.769 63.488,161.801 63.461,161.84C63.434,161.879 63.413,161.923 63.4,161.973C63.387,162.022 63.377,162.072 63.369,162.121L63.369,162.984L67.498,162.984L67.498,164Z" style="fill-rule:nonzero;"/>
            <rect x="23.104" y="158.398" width="1.015" height="5.602" style="fill-rule:nonzero;"/>
            <path d="M30.904,163.566C30.904,163.639 30.89,163.707 30.863,163.77C30.836,163.832 30.799,163.886 30.754,163.932C30.709,163.977 30.655,164.013 30.592,164.039C30.529,164.065 30.463,164.078 30.393,164.078C30.33,164.078 30.267,164.066 30.203,164.043C30.139,164.02 30.082,163.982 30.033,163.93L26.322,160.055L26.322,164L25.307,164L25.307,158.832C25.307,158.728 25.336,158.634 25.395,158.549C25.453,158.464 25.528,158.401 25.619,158.359C25.716,158.32 25.815,158.311 25.916,158.33C26.017,158.349 26.105,158.397 26.178,158.473L29.889,162.344L29.889,158.398L30.904,158.398L30.904,163.566Z" style="fill-rule:nonzero;"/>
            <path d="M60.5,178.5L78.5,166.5" style="fill:none;fill-rule:nonzero;stroke:#007ba4;stroke-width:2px;stroke-linecap:butt;stroke-linejoin:miter;"/>
            <g>
                <path d="M78.5,170.5C76.291,170.5 74.5,168.709 74.5,166.5C74.5,164.291 76.291,162.5 78.5,162.5C80.709,162.5 82.5,164.291 82.5,166.5C82.5,168.709 80.709,170.5 78.5,170.5Z" style="fill:#e6e6e6;fill-rule:nonzero;"/>
                <path d="M78.5,170.5C76.291,170.5 74.5,168.709 74.5,166.5C74.5,164.291 76.291,162.5 78.5,162.5C80.709,162.5 82.5,164.291 82.5,166.5C82.5,168.709 80.709,170.5 78.5,170.5Z" style="fill-opacity:0;fill-rule:nonzero;stroke:#000;stroke-width:0.25px;stroke-linecap:butt;stroke-linejoin:miter;"/>
            </g>
            <g id="circle8689" serif:id="circle868">
                <path d="M106.5,178.5C106.5,185.127 101.127,190.5 94.5,190.5C87.873,190.5 82.5,185.127 82.5,178.5C82.5,171.873 87.873,166.5 94.5,166.5C101.127,166.5 106.5,171.873 106.5,178.5Z" style="fill:#fff;fill-rule:nonzero;"/>
                <path d="M106.5,178.5C106.5,185.127 101.127,190.5 94.5,190.5C87.873,190.5 82.5,185.127 82.5,178.5C82.5,171.873 87.873,166.5 94.5,166.5C101.127,166.5 106.5,171.873 106.5,178.5Z" style="fill-opacity:0;fill-rule:nonzero;stroke:#000;stroke-width:0.25px;stroke-linecap:butt;stroke-linejoin:miter;"/>
            </g>
            <g id="circle86810" serif:id="circle868">
                <path d="M72.5,178.5C72.5,185.127 67.127,190.5 60.5,190.5C53.873,190.5 48.5,185.127 48.5,178.5C48.5,171.873 53.873,166.5 60.5,166.5C67.127,166.5 72.5,171.873 72.5,178.5Z" style="fill:#fff;fill-rule:nonzero;"/>
                <path d="M72.5,178.5C72.5,185.127 67.127,190.5 60.5,190.5C53.873,190.5 48.5,185.127 48.5,178.5C48.5,171.873 53.873,166.5 60.5,166.5C67.127,166.5 72.5,171.873 72.5,178.5Z" style="fill-opacity:0;fill-rule:nonzero;stroke:#000;stroke-width:0.25px;stroke-linecap:butt;stroke-linejoin:miter;"/>
            </g>
            <g id="circle86811" serif:id="circle868">
                <path d="M38.5,178.5C38.5,185.127 33.127,190.5 26.5,190.5C19.873,190.5 14.5,185.127 14.5,178.5C14.5,171.873 19.873,166.5 26.5,166.5C33.127,166.5 38.5,171.873 38.5,178.5Z" style="fill:#fff;fill-rule:nonzero;"/>
                <path d="M38.5,178.5C38.5,185.127 33.127,190.5 26.5,190.5C19.873,190.5 14.5,185.127 14.5,178.5C14.5,171.873 19.873,166.5 26.5,166.5C33.127,166.5 38.5,171.873 38.5,178.5Z" style="fill-opacity:0;fill-rule:nonzero;stroke:#000;stroke-width:0.25px;stroke-linecap:butt;stroke-linejoin:miter;"/>
            </g>
        </g>
        <g id="Groub_2">
            <path d="M26.742,130.5L94.742,130.5" style="fill:none;fill-rule:nonzero;stroke:#007ba4;stroke-width:6px;"/>
            <path d="M96.643,114.574C96.643,114.671 96.632,114.772 96.609,114.879C96.587,114.986 96.552,115.092 96.504,115.197C96.456,115.302 96.395,115.403 96.32,115.5C96.246,115.597 96.156,115.682 96.051,115.756C95.946,115.83 95.824,115.889 95.686,115.934C95.548,115.978 95.393,116 95.221,116L91.498,116L91.498,114.984L95.221,114.984C95.348,114.984 95.447,114.945 95.516,114.867C95.585,114.789 95.619,114.691 95.619,114.574L95.619,114.121C95.619,113.988 95.585,113.887 95.518,113.816C95.45,113.746 95.348,113.711 95.213,113.711L92.924,113.711C92.661,113.711 92.439,113.663 92.258,113.568C92.077,113.473 91.93,113.354 91.818,113.211C91.706,113.068 91.625,112.913 91.574,112.746C91.523,112.579 91.498,112.424 91.498,112.281L91.498,110.398L96.178,110.398L96.178,111.414L92.514,111.414L92.514,112.281C92.514,112.416 92.549,112.518 92.619,112.586C92.69,112.654 92.791,112.688 92.924,112.688L95.221,112.688C95.362,112.688 95.515,112.713 95.682,112.764C95.849,112.815 96.003,112.897 96.145,113.01C96.286,113.123 96.405,113.271 96.5,113.453C96.595,113.636 96.643,113.858 96.643,114.121L96.643,114.574Z" style="fill-rule:nonzero;"/>
            <path d="M57.061,114.574C57.061,114.671 57.05,114.772 57.027,114.879C57.005,114.986 56.97,115.092 56.922,115.197C56.874,115.302 56.813,115.403 56.738,115.5C56.664,115.597 56.574,115.682 56.469,115.756C56.364,115.83 56.242,115.889 56.104,115.934C55.965,115.978 55.81,116 55.639,116L51.916,116L51.916,114.984L55.639,114.984C55.766,114.984 55.865,114.945 55.934,114.867C56.003,114.789 56.037,114.691 56.037,114.574L56.037,114.121C56.037,113.988 56.003,113.887 55.936,113.816C55.868,113.746 55.766,113.711 55.631,113.711L53.342,113.711C53.079,113.711 52.857,113.663 52.676,113.568C52.495,113.473 52.348,113.354 52.236,113.211C52.124,113.068 52.043,112.913 51.992,112.746C51.941,112.579 51.916,112.424 51.916,112.281L51.916,110.398L56.596,110.398L56.596,111.414L52.932,111.414L52.932,112.281C52.932,112.416 52.967,112.518 53.037,112.586C53.108,112.654 53.209,112.688 53.342,112.688L55.639,112.688C55.78,112.688 55.933,112.713 56.1,112.764C56.267,112.815 56.421,112.897 56.562,113.01C56.704,113.123 56.823,113.271 56.918,113.453C57.013,113.636 57.061,113.858 57.061,114.121L57.061,114.574Z" style="fill-rule:nonzero;"/>
            <path d="M62.322,110.398L58.787,116L57.697,116L61.236,110.398L62.322,110.398Z" style="fill-rule:nonzero;"/>
            <path d="M68.123,116L62.979,116L62.979,114.121C62.979,114.025 62.99,113.923 63.012,113.814C63.034,113.706 63.068,113.599 63.115,113.492C63.162,113.385 63.223,113.284 63.297,113.188C63.371,113.091 63.461,113.006 63.566,112.932C63.672,112.857 63.794,112.798 63.932,112.754C64.07,112.71 64.226,112.688 64.4,112.688L66.689,112.688C66.827,112.688 66.929,112.653 66.996,112.584C67.063,112.515 67.096,112.414 67.096,112.281L67.096,111.832C67.096,111.694 67.062,111.59 66.994,111.52C66.927,111.449 66.828,111.414 66.697,111.414L63.436,111.414L63.436,110.398L66.697,110.398C66.869,110.398 67.024,110.42 67.162,110.465C67.3,110.509 67.422,110.568 67.527,110.643C67.633,110.717 67.724,110.802 67.799,110.898C67.874,110.995 67.936,111.096 67.984,111.201C68.033,111.306 68.068,111.413 68.09,111.521C68.112,111.63 68.123,111.731 68.123,111.824L68.123,112.281C68.123,112.544 68.075,112.766 67.98,112.947C67.885,113.128 67.766,113.276 67.623,113.389C67.48,113.502 67.325,113.584 67.16,113.635C66.995,113.686 66.84,113.711 66.697,113.711L64.4,113.711C64.317,113.711 64.25,113.723 64.201,113.746C64.152,113.769 64.113,113.801 64.086,113.84C64.059,113.879 64.038,113.923 64.025,113.973C64.012,114.022 64.002,114.072 63.994,114.121L63.994,114.984L68.123,114.984L68.123,116Z" style="fill-rule:nonzero;"/>
            <rect x="23.104" y="110.398" width="1.015" height="5.602" style="fill-rule:nonzero;"/>
            <path d="M30.904,115.566C30.904,115.639 30.89,115.707 30.863,115.77C30.836,115.832 30.799,115.886 30.754,115.932C30.709,115.977 30.655,116.013 30.592,116.039C30.529,116.065 30.463,116.078 30.393,116.078C30.33,116.078 30.267,116.066 30.203,116.043C30.139,116.02 30.082,115.982 30.033,115.93L26.322,112.055L26.322,116L25.307,116L25.307,110.832C25.307,110.728 25.336,110.634 25.395,110.549C25.453,110.464 25.528,110.401 25.619,110.359C25.716,110.32 25.815,110.311 25.916,110.33C26.017,110.349 26.105,110.397 26.178,110.473L29.889,114.344L29.889,110.398L30.904,110.398L30.904,115.566Z" style="fill-rule:nonzero;"/>
            <path d="M60.5,130.5L78.5,118.5" style="fill:none;fill-rule:nonzero;stroke:#007ba4;stroke-width:2px;stroke-linecap:butt;stroke-linejoin:miter;"/>
            <g>
                <path d="M78.5,122.5C76.291,122.5 74.5,120.709 74.5,118.5C74.5,116.291 76.291,114.5 78.5,114.5C80.709,114.5 82.5,116.291 82.5,118.5C82.5,120.709 80.709,122.5 78.5,122.5Z" style="fill:#e6e6e6;fill-rule:nonzero;"/>
                <path d="M78.5,122.5C76.291,122.5 74.5,120.709 74.5,118.5C74.5,116.291 76.291,114.5 78.5,114.5C80.709,114.5 82.5,116.291 82.5,118.5C82.5,120.709 80.709,122.5 78.5,122.5Z" style="fill-opacity:0;fill-rule:nonzero;stroke:#000;stroke-width:0.25px;stroke-linecap:butt;stroke-linejoin:miter;"/>
            </g>
            <g id="circle86812" serif:id="circle868">
                <path d="M106.5,130.5C106.5,137.127 101.127,142.5 94.5,142.5C87.873,142.5 82.5,137.127 82.5,130.5C82.5,123.873 87.873,118.5 94.5,118.5C101.127,118.5 106.5,123.873 106.5,130.5Z" style="fill:#fff;fill-rule:nonzero;"/>
                <path d="M106.5,130.5C106.5,137.127 101.127,142.5 94.5,142.5C87.873,142.5 82.5,137.127 82.5,130.5C82.5,123.873 87.873,118.5 94.5,118.5C101.127,118.5 106.5,123.873 106.5,130.5Z" style="fill-opacity:0;fill-rule:nonzero;stroke:#000;stroke-width:0.25px;stroke-linecap:butt;stroke-linejoin:miter;"/>
            </g>
            <g id="circle86813" serif:id="circle868">
                <path d="M72.5,130.5C72.5,137.127 67.127,142.5 60.5,142.5C53.873,142.5 48.5,137.127 48.5,130.5C48.5,123.873 53.873,118.5 60.5,118.5C67.127,118.5 72.5,123.873 72.5,130.5Z" style="fill:#fff;fill-rule:nonzero;"/>
                <path d="M72.5,130.5C72.5,137.127 67.127,142.5 60.5,142.5C53.873,142.5 48.5,137.127 48.5,130.5C48.5,123.873 53.873,118.5 60.5,118.5C67.127,118.5 72.5,123.873 72.5,130.5Z" style="fill-opacity:0;fill-rule:nonzero;stroke:#000;stroke-width:0.25px;stroke-linecap:butt;stroke-linejoin:miter;"/>
            </g>
            <g id="circle86814" serif:id="circle868">
                <path d="M38.5,130.5C38.5,137.127 33.127,142.5 26.5,142.5C19.873,142.5 14.5,137.127 14.5,130.5C14.5,123.873 19.873,118.5 26.5,118.5C33.127,118.5 38.5,123.873 38.5,130.5Z" style="fill:#fff;fill-rule:nonzero;"/>
                <path d="M38.5,130.5C38.5,137.127 33.127,142.5 26.5,142.5C19.873,142.5 14.5,137.127 14.5,130.5C14.5,123.873 19.873,118.5 26.5,118.5C33.127,118.5 38.5,123.873 38.5,130.5Z" style="fill-opacity:0;fill-rule:nonzero;stroke:#000;stroke-width:0.25px;stroke-linecap:butt;stroke-linejoin:miter;"/>
            </g>
        </g>
        <g id="Groub_1">
            <path d="M26.742,82.5L94.742,82.5" style="fill:none;fill-rule:nonzero;stroke:#007ba4;stroke-width:6px;"/>
            <path d="M96.33,66.574C96.33,66.837 96.283,67.059 96.188,67.24C96.093,67.421 95.974,67.569 95.832,67.682C95.69,67.795 95.536,67.877 95.369,67.926C95.202,67.975 95.047,68 94.904,68L91.646,68L91.646,66.984L94.904,66.984C95.042,66.984 95.144,66.949 95.211,66.879C95.278,66.808 95.311,66.707 95.311,66.574L95.311,65.711L91.646,65.711L91.646,64.688L95.311,64.688L95.311,63.832C95.311,63.553 95.175,63.414 94.904,63.414L91.646,63.414L91.646,62.398L94.904,62.398C95.079,62.398 95.235,62.42 95.373,62.465C95.511,62.509 95.633,62.568 95.738,62.643C95.843,62.717 95.934,62.802 96.01,62.898C96.085,62.995 96.146,63.096 96.193,63.201C96.24,63.306 96.275,63.413 96.297,63.521C96.319,63.63 96.33,63.731 96.33,63.824L96.33,66.574Z" style="fill-rule:nonzero;"/>
            <path d="M56.764,66.574C56.764,66.837 56.716,67.059 56.621,67.24C56.526,67.421 56.408,67.569 56.266,67.682C56.124,67.795 55.97,67.877 55.803,67.926C55.636,67.975 55.481,68 55.338,68L52.08,68L52.08,66.984L55.338,66.984C55.476,66.984 55.578,66.949 55.645,66.879C55.711,66.808 55.744,66.707 55.744,66.574L55.744,65.711L52.08,65.711L52.08,64.688L55.744,64.688L55.744,63.832C55.744,63.553 55.609,63.414 55.338,63.414L52.08,63.414L52.08,62.398L55.338,62.398C55.513,62.398 55.669,62.42 55.807,62.465C55.945,62.509 56.067,62.568 56.172,62.643C56.277,62.717 56.368,62.802 56.443,62.898C56.519,62.995 56.58,63.096 56.627,63.201C56.674,63.306 56.708,63.413 56.73,63.521C56.753,63.63 56.764,63.731 56.764,63.824L56.764,66.574Z" style="fill-rule:nonzero;"/>
            <path d="M62.182,62.398L58.646,68L57.557,68L61.096,62.398L62.182,62.398Z" style="fill-rule:nonzero;"/>
            <path d="M67.982,68L62.838,68L62.838,66.121C62.838,66.025 62.849,65.923 62.871,65.814C62.893,65.706 62.928,65.599 62.975,65.492C63.022,65.385 63.082,65.284 63.156,65.188C63.231,65.091 63.321,65.006 63.426,64.932C63.531,64.857 63.653,64.798 63.791,64.754C63.929,64.71 64.085,64.688 64.26,64.688L66.549,64.688C66.687,64.688 66.789,64.653 66.855,64.584C66.922,64.515 66.955,64.414 66.955,64.281L66.955,63.832C66.955,63.694 66.921,63.59 66.854,63.52C66.786,63.449 66.687,63.414 66.557,63.414L63.295,63.414L63.295,62.398L66.557,62.398C66.728,62.398 66.883,62.42 67.021,62.465C67.16,62.509 67.282,62.568 67.387,62.643C67.492,62.717 67.583,62.802 67.658,62.898C67.733,62.995 67.795,63.096 67.844,63.201C67.892,63.306 67.927,63.413 67.949,63.521C67.971,63.63 67.982,63.731 67.982,63.824L67.982,64.281C67.982,64.544 67.935,64.766 67.84,64.947C67.745,65.128 67.625,65.276 67.482,65.389C67.339,65.502 67.185,65.584 67.02,65.635C66.854,65.686 66.7,65.711 66.557,65.711L64.26,65.711C64.177,65.711 64.11,65.723 64.061,65.746C64.011,65.769 63.972,65.801 63.945,65.84C63.918,65.879 63.898,65.923 63.885,65.973C63.872,66.022 63.861,66.072 63.854,66.121L63.854,66.984L67.982,66.984L67.982,68Z" style="fill-rule:nonzero;"/>
            <rect x="23.104" y="62.398" width="1.015" height="5.602" style="fill-rule:nonzero;"/>
            <path d="M30.904,67.566C30.904,67.639 30.89,67.707 30.863,67.77C30.836,67.832 30.799,67.886 30.754,67.932C30.709,67.977 30.655,68.013 30.592,68.039C30.529,68.065 30.463,68.078 30.393,68.078C30.33,68.078 30.267,68.066 30.203,68.043C30.139,68.02 30.082,67.982 30.033,67.93L26.322,64.055L26.322,68L25.307,68L25.307,62.832C25.307,62.728 25.336,62.634 25.395,62.549C25.453,62.464 25.528,62.401 25.619,62.359C25.716,62.32 25.815,62.311 25.916,62.33C26.017,62.349 26.105,62.397 26.178,62.473L29.889,66.344L29.889,62.398L30.904,62.398L30.904,67.566Z" style="fill-rule:nonzero;"/>
            <path d="M60.5,82.5L78.5,70.5" style="fill:none;fill-rule:nonzero;stroke:#007ba4;stroke-width:2px;stroke-linecap:butt;stroke-linejoin:miter;"/>
            <g>
                <path d="M78.5,74.5C76.291,74.5 74.5,72.709 74.5,70.5C74.5,68.291 76.291,66.5 78.5,66.5C80.709,66.5 82.5,68.291 82.5,70.5C82.5,72.709 80.709,74.5 78.5,74.5Z" style="fill:#e6e6e6;fill-rule:nonzero;"/>
                <path d="M78.5,74.5C76.291,74.5 74.5,72.709 74.5,70.5C74.5,68.291 76.291,66.5 78.5,66.5C80.709,66.5 82.5,68.291 82.5,70.5C82.5,72.709 80.709,74.5 78.5,74.5Z" style="fill-opacity:0;fill-rule:nonzero;stroke:#000;stroke-width:0.25px;stroke-linecap:butt;stroke-linejoin:miter;"/>
            </g>
            <g id="circle86815" serif:id="circle868">
                <path d="M106.5,82.5C106.5,89.127 101.127,94.5 94.5,94.5C87.873,94.5 82.5,89.127 82.5,82.5C82.5,75.873 87.873,70.5 94.5,70.5C101.127,70.5 106.5,75.873 106.5,82.5Z" style="fill:#fff;fill-rule:nonzero;"/>
                <path d="M106.5,82.5C106.5,89.127 101.127,94.5 94.5,94.5C87.873,94.5 82.5,89.127 82.5,82.5C82.5,75.873 87.873,70.5 94.5,70.5C101.127,70.5 106.5,75.873 106.5,82.5Z" style="fill-opacity:0;fill-rule:nonzero;stroke:#000;stroke-width:0.25px;stroke-linecap:butt;stroke-linejoin:miter;"/>
            </g>
            <g id="circle86816" serif:id="circle868">
                <path d="M72.5,82.5C72.5,89.127 67.127,94.5 60.5,94.5C53.873,94.5 48.5,89.127 48.5,82.5C48.5,75.873 53.873,70.5 60.5,70.5C67.127,70.5 72.5,75.873 72.5,82.5Z" style="fill:#fff;fill-rule:nonzero;"/>
                <path d="M72.5,82.5C72.5,89.127 67.127,94.5 60.5,94.5C53.873,94.5 48.5,89.127 48.5,82.5C48.5,75.873 53.873,70.5 60.5,70.5C67.127,70.5 72.5,75.873 72.5,82.5Z" style="fill-opacity:0;fill-rule:nonzero;stroke:#000;stroke-width:0.25px;stroke-linecap:butt;stroke-linejoin:miter;"/>
            </g>
            <g id="circle86817" serif:id="circle868">
                <path d="M38.5,82.5C38.5,89.127 33.127,94.5 26.5,94.5C19.873,94.5 14.5,89.127 14.5,82.5C14.5,75.873 19.873,70.5 26.5,70.5C33.127,70.5 38.5,75.873 38.5,82.5Z" style="fill:#fff;fill-rule:nonzero;"/>
                <path d="M38.5,82.5C38.5,89.127 33.127,94.5 26.5,94.5C19.873,94.5 14.5,89.127 14.5,82.5C14.5,75.873 19.873,70.5 26.5,70.5C33.127,70.5 38.5,75.873 38.5,82.5Z" style="fill-opacity:0;fill-rule:nonzero;stroke:#000;stroke-width:0.25px;stroke-linecap:butt;stroke-linejoin:miter;"/>
            </g>
        </g>
        <path d="M77.5,360.5L114.5,360.5" style="fill:none;fill-rule:nonzero;stroke:#007ba9;stroke-width:1px;stroke-linejoin:miter;"/>
        <path d="M6.5,360.5L43.5,360.5" style="fill:none;fill-rule:nonzero;stroke:#00799a;stroke-width:1px;stroke-linejoin:miter;"/>
        <path d="M55.298,367.35C55.298,367.459 55.277,367.561 55.236,367.654C55.195,367.748 55.141,367.829 55.072,367.897C55.004,367.966 54.923,368.02 54.829,368.059C54.735,368.098 54.635,368.117 54.53,368.117C54.437,368.117 54.342,368.099 54.246,368.064C54.151,368.029 54.066,367.973 53.991,367.895L48.425,362.082L48.425,368L46.901,368L46.901,360.248C46.901,360.092 46.945,359.95 47.033,359.823C47.121,359.696 47.233,359.602 47.37,359.539C47.515,359.48 47.663,359.466 47.815,359.495C47.968,359.524 48.099,359.596 48.208,359.709L53.774,365.516L53.774,359.598L55.298,359.598L55.298,367.35Z" style="fill-rule:nonzero;"/>
        <path d="M64.784,368L57.835,368C57.726,368 57.624,367.98 57.53,367.941C57.437,367.902 57.356,367.849 57.287,367.78C57.219,367.712 57.165,367.631 57.126,367.537C57.087,367.443 57.067,367.341 57.067,367.232L57.067,359.598L58.591,359.598L58.591,366.477L64.784,366.477L64.784,368Z" style="fill-rule:nonzero;"/>
        <path d="M73.427,368L67.931,368C67.79,368 67.639,367.983 67.477,367.95C67.314,367.917 67.154,367.865 66.996,367.795C66.838,367.724 66.687,367.633 66.542,367.522C66.397,367.411 66.269,367.276 66.158,367.118C66.047,366.96 65.958,366.776 65.892,366.567C65.825,366.358 65.792,366.123 65.792,365.861L65.792,361.736C65.792,361.595 65.809,361.444 65.842,361.282C65.875,361.12 65.927,360.96 65.997,360.802C66.068,360.643 66.159,360.492 66.272,360.348C66.385,360.203 66.521,360.075 66.68,359.964C66.838,359.853 67.021,359.764 67.228,359.697C67.435,359.631 67.669,359.598 67.931,359.598L73.427,359.598L73.427,361.121L67.931,361.121C67.732,361.121 67.579,361.174 67.474,361.279C67.368,361.385 67.315,361.541 67.315,361.748L67.315,365.861C67.315,366.056 67.369,366.208 67.477,366.315C67.584,366.423 67.736,366.477 67.931,366.477L73.427,366.477L73.427,368Z" style="fill-rule:nonzero;"/>
        <path d="M96.5,22.5L114.5,22.5" style="fill:none;fill-rule:nonzero;stroke:#00799a;stroke-width:1px;stroke-linejoin:miter;"/>
        <path d="M6.5,22.5L24.5,22.5" style="fill:none;fill-rule:nonzero;stroke:#00799a;stroke-width:1px;stroke-linejoin:miter;"/>
        <path d="M22.968,28.336C22.968,28.677 22.909,28.991 22.79,29.277C22.672,29.564 22.509,29.811 22.3,30.018C22.092,30.225 21.845,30.387 21.558,30.504C21.271,30.621 20.96,30.68 20.624,30.68L17.882,30.68C17.809,30.68 17.742,30.667 17.679,30.641C17.616,30.615 17.562,30.579 17.517,30.533C17.472,30.488 17.436,30.434 17.41,30.371C17.384,30.308 17.371,30.241 17.371,30.168L17.371,25.59C17.371,25.519 17.384,25.453 17.41,25.391C17.436,25.328 17.472,25.274 17.517,25.227C17.562,25.18 17.616,25.143 17.679,25.117C17.742,25.091 17.809,25.078 17.882,25.078L20.624,25.078C20.96,25.078 21.271,25.137 21.558,25.254C21.845,25.371 22.092,25.533 22.3,25.74C22.509,25.947 22.672,26.195 22.79,26.482C22.909,26.77 22.968,27.083 22.968,27.422L22.968,28.336ZM21.953,27.422C21.953,27.224 21.921,27.043 21.857,26.879C21.793,26.715 21.702,26.575 21.585,26.459C21.468,26.343 21.328,26.253 21.165,26.189C21.002,26.126 20.822,26.094 20.624,26.094L18.386,26.094L18.386,29.664L20.624,29.664C20.822,29.664 21.002,29.632 21.165,29.568C21.328,29.505 21.468,29.415 21.585,29.299C21.702,29.183 21.793,29.044 21.857,28.881C21.921,28.718 21.953,28.537 21.953,28.336L21.953,27.422Z" style="fill-rule:nonzero;"/>
        <rect x="23.972" y="25.078" width="1.016" height="5.602" style="fill-rule:nonzero;"/>
        <path d="M31.781,25.078L29.128,30.48C29.087,30.563 29.025,30.631 28.943,30.682C28.861,30.733 28.77,30.758 28.671,30.758C28.575,30.758 28.486,30.733 28.404,30.682C28.322,30.631 28.259,30.563 28.214,30.48L25.566,25.078L26.703,25.078L28.671,29.113L30.648,25.078L31.781,25.078Z" style="fill-rule:nonzero;"/>
        <rect x="32.363" y="25.078" width="1.015" height="5.602" style="fill-rule:nonzero;"/>
        <path d="M40.156,28.336C40.156,28.677 40.097,28.991 39.978,29.277C39.859,29.564 39.696,29.811 39.488,30.018C39.279,30.225 39.032,30.387 38.746,30.504C38.459,30.621 38.148,30.68 37.812,30.68L35.07,30.68C34.997,30.68 34.929,30.667 34.867,30.641C34.804,30.615 34.75,30.579 34.705,30.533C34.659,30.488 34.623,30.434 34.597,30.371C34.571,30.308 34.558,30.241 34.558,30.168L34.558,25.59C34.558,25.519 34.571,25.453 34.597,25.391C34.623,25.328 34.659,25.274 34.705,25.227C34.75,25.18 34.804,25.143 34.867,25.117C34.929,25.091 34.997,25.078 35.07,25.078L37.812,25.078C38.148,25.078 38.459,25.137 38.746,25.254C39.032,25.371 39.279,25.533 39.488,25.74C39.696,25.947 39.859,26.195 39.978,26.482C40.097,26.77 40.156,27.083 40.156,27.422L40.156,28.336ZM39.14,27.422C39.14,27.224 39.108,27.043 39.044,26.879C38.981,26.715 38.89,26.575 38.773,26.459C38.656,26.343 38.516,26.253 38.353,26.189C38.19,26.126 38.01,26.094 37.812,26.094L35.574,26.094L35.574,29.664L37.812,29.664C38.01,29.664 38.19,29.632 38.353,29.568C38.516,29.505 38.656,29.415 38.773,29.299C38.89,29.183 38.981,29.044 39.044,28.881C39.108,28.718 39.14,28.537 39.14,28.336L39.14,27.422Z" style="fill-rule:nonzero;"/>
        <path d="M45.757,28.391L42.55,28.391L42.55,27.367L45.757,27.367L45.757,28.391ZM46.214,30.68L42.55,30.68C42.409,30.68 42.256,30.655 42.089,30.605C41.922,30.556 41.768,30.474 41.626,30.361C41.485,30.248 41.366,30.101 41.271,29.92C41.176,29.739 41.128,29.517 41.128,29.254L41.128,25.59C41.128,25.519 41.141,25.453 41.167,25.391C41.193,25.328 41.229,25.274 41.275,25.227C41.32,25.18 41.374,25.143 41.437,25.117C41.5,25.091 41.567,25.078 41.64,25.078L46.214,25.078L46.214,26.094L42.144,26.094L42.144,29.254C42.144,29.387 42.179,29.488 42.249,29.559C42.32,29.629 42.423,29.664 42.558,29.664L46.214,29.664L46.214,30.68Z" style="fill-rule:nonzero;"/>
        <path d="M54.277,29.254L53.82,29.254L53.812,29.266C53.812,29.433 53.791,29.582 53.748,29.715C53.705,29.848 53.648,29.964 53.578,30.064C53.507,30.165 53.425,30.251 53.331,30.324C53.238,30.397 53.141,30.457 53.04,30.502C52.94,30.547 52.839,30.581 52.736,30.602C52.633,30.623 52.536,30.633 52.445,30.633L51.066,30.633C50.824,30.633 50.618,30.587 50.447,30.496C50.276,30.405 50.136,30.291 50.025,30.156C49.914,30.021 49.832,29.874 49.779,29.715C49.726,29.556 49.696,29.409 49.691,29.273L49.691,28.801C49.691,28.595 49.72,28.417 49.779,28.268C49.838,28.118 49.915,27.988 50.011,27.879C49.899,27.738 49.818,27.586 49.767,27.422C49.716,27.258 49.691,27.104 49.691,26.961C49.691,26.708 49.737,26.495 49.828,26.32C49.919,26.146 50.033,26.005 50.171,25.896C50.309,25.788 50.458,25.71 50.619,25.662C50.779,25.614 50.928,25.59 51.066,25.59L53.355,25.59L53.355,26.504L51.066,26.504C50.995,26.504 50.932,26.515 50.876,26.537C50.82,26.559 50.772,26.591 50.732,26.633C50.691,26.674 50.661,26.723 50.64,26.779C50.619,26.835 50.61,26.896 50.613,26.961C50.613,27.11 50.655,27.224 50.738,27.303C50.821,27.382 50.931,27.422 51.066,27.422L52.445,27.422L52.445,28.336L51.066,28.336C50.923,28.336 50.811,28.38 50.732,28.469C50.653,28.558 50.613,28.668 50.613,28.801L50.613,29.238C50.613,29.379 50.655,29.493 50.74,29.58C50.825,29.667 50.933,29.711 51.066,29.711L52.437,29.711C52.58,29.711 52.693,29.668 52.775,29.582C52.857,29.496 52.898,29.387 52.898,29.254C52.898,29.142 52.917,29.031 52.956,28.922C52.995,28.813 53.054,28.714 53.132,28.627C53.21,28.54 53.306,28.469 53.419,28.416C53.532,28.363 53.663,28.336 53.812,28.336L54.277,28.336L54.277,29.254Z" style="fill-rule:nonzero;"/>
        <path d="M62.785,30.68L59.121,30.68C59.027,30.68 58.926,30.669 58.818,30.646C58.71,30.624 58.603,30.59 58.498,30.543C58.392,30.496 58.291,30.436 58.195,30.361C58.098,30.287 58.013,30.197 57.939,30.092C57.865,29.987 57.806,29.864 57.761,29.725C57.717,29.586 57.695,29.429 57.695,29.254L57.695,26.504C57.695,26.41 57.706,26.309 57.728,26.201C57.75,26.093 57.784,25.986 57.831,25.881C57.878,25.776 57.94,25.675 58.015,25.578C58.09,25.482 58.181,25.397 58.287,25.322C58.392,25.248 58.514,25.189 58.652,25.145C58.79,25.1 58.946,25.078 59.121,25.078L62.785,25.078L62.785,26.094L59.121,26.094C58.988,26.094 58.886,26.129 58.816,26.199C58.745,26.27 58.71,26.374 58.71,26.512L58.71,29.254C58.71,29.384 58.746,29.485 58.818,29.557C58.889,29.628 58.99,29.664 59.121,29.664L62.785,29.664L62.785,30.68Z" style="fill-rule:nonzero;"/>
        <path d="M69.542,28.414C69.542,28.755 69.484,29.069 69.367,29.355C69.25,29.642 69.087,29.889 68.878,30.098C68.67,30.306 68.423,30.468 68.138,30.584C67.853,30.7 67.542,30.758 67.206,30.758L65.831,30.758C65.496,30.758 65.185,30.7 64.898,30.584C64.611,30.468 64.364,30.306 64.156,30.098C63.947,29.889 63.784,29.642 63.665,29.355C63.547,29.069 63.488,28.755 63.488,28.414L63.488,27.344C63.488,27.005 63.547,26.692 63.665,26.404C63.784,26.117 63.947,25.869 64.156,25.662C64.364,25.455 64.611,25.293 64.898,25.176C65.185,25.059 65.496,25 65.831,25L67.206,25C67.542,25 67.853,25.059 68.138,25.176C68.423,25.293 68.67,25.455 68.878,25.662C69.087,25.869 69.25,26.117 69.367,26.404C69.484,26.692 69.542,27.005 69.542,27.344L69.542,28.414ZM68.527,27.344C68.527,27.143 68.495,26.962 68.431,26.799C68.367,26.636 68.277,26.497 68.162,26.381C68.046,26.265 67.907,26.175 67.744,26.111C67.581,26.048 67.401,26.016 67.206,26.016L65.831,26.016C65.634,26.016 65.453,26.048 65.29,26.111C65.127,26.175 64.988,26.265 64.871,26.381C64.754,26.497 64.663,26.636 64.599,26.799C64.535,26.962 64.503,27.143 64.503,27.344L64.503,28.414C64.503,28.615 64.535,28.796 64.599,28.959C64.663,29.122 64.754,29.261 64.871,29.377C64.988,29.493 65.127,29.583 65.29,29.646C65.453,29.71 65.634,29.742 65.831,29.742L67.199,29.742C67.397,29.742 67.577,29.71 67.74,29.646C67.903,29.583 68.043,29.493 68.16,29.377C68.277,29.261 68.367,29.122 68.431,28.959C68.495,28.796 68.527,28.615 68.527,28.414L68.527,27.344Z" style="fill-rule:nonzero;"/>
        <path d="M76.144,30.246C76.144,30.319 76.13,30.386 76.103,30.449C76.076,30.512 76.039,30.566 75.994,30.611C75.948,30.657 75.894,30.693 75.831,30.719C75.769,30.745 75.703,30.758 75.632,30.758C75.57,30.758 75.507,30.746 75.443,30.723C75.379,30.7 75.322,30.662 75.273,30.609L71.562,26.734L71.562,30.68L70.546,30.68L70.546,25.512C70.546,25.407 70.575,25.313 70.634,25.229C70.693,25.144 70.768,25.081 70.859,25.039C70.955,25 71.054,24.99 71.156,25.01C71.257,25.029 71.344,25.077 71.417,25.152L75.128,29.023L75.128,25.078L76.144,25.078L76.144,30.246Z" style="fill-rule:nonzero;"/>
        <path d="M83.203,28.414C83.203,28.675 83.168,28.92 83.099,29.15C83.03,29.381 82.933,29.59 82.806,29.777C82.68,29.965 82.528,30.129 82.349,30.27C82.17,30.41 81.972,30.521 81.753,30.602L82.941,31.543L81.468,31.543L80.492,30.758L79.492,30.758C79.156,30.758 78.845,30.7 78.558,30.584C78.271,30.468 78.024,30.306 77.816,30.098C77.607,29.889 77.444,29.642 77.326,29.355C77.207,29.069 77.148,28.755 77.148,28.414L77.148,27.344C77.148,27.005 77.207,26.692 77.326,26.404C77.444,26.117 77.607,25.869 77.816,25.662C78.024,25.455 78.271,25.293 78.558,25.176C78.845,25.059 79.156,25 79.492,25L80.867,25C81.203,25 81.513,25.059 81.798,25.176C82.083,25.293 82.33,25.455 82.539,25.662C82.747,25.869 82.91,26.117 83.027,26.404C83.144,26.692 83.203,27.005 83.203,27.344L83.203,28.414ZM82.187,27.344C82.187,27.143 82.155,26.962 82.091,26.799C82.028,26.636 81.938,26.497 81.822,26.381C81.706,26.265 81.567,26.175 81.404,26.111C81.241,26.048 81.062,26.016 80.867,26.016L79.492,26.016C79.294,26.016 79.114,26.048 78.951,26.111C78.788,26.175 78.648,26.265 78.531,26.381C78.414,26.497 78.323,26.636 78.259,26.799C78.196,26.962 78.164,27.143 78.164,27.344L78.164,28.414C78.164,28.615 78.196,28.796 78.259,28.959C78.323,29.122 78.414,29.261 78.531,29.377C78.648,29.493 78.788,29.583 78.951,29.646C79.114,29.71 79.294,29.742 79.492,29.742L80.859,29.742C81.057,29.742 81.237,29.71 81.4,29.646C81.563,29.583 81.703,29.493 81.82,29.377C81.937,29.261 82.028,29.122 82.091,28.959C82.155,28.796 82.187,28.615 82.187,28.414L82.187,27.344Z" style="fill-rule:nonzero;"/>
        <path d="M89.695,30.168C89.695,30.241 89.682,30.308 89.656,30.371C89.63,30.434 89.593,30.488 89.546,30.533C89.499,30.579 89.445,30.615 89.382,30.641C89.32,30.667 89.254,30.68 89.183,30.68L86.894,30.68C86.678,30.68 86.459,30.656 86.238,30.609C86.017,30.562 85.802,30.49 85.595,30.393C85.388,30.295 85.194,30.171 85.011,30.02C84.829,29.869 84.67,29.689 84.533,29.482C84.396,29.275 84.289,29.038 84.21,28.771C84.132,28.504 84.093,28.207 84.093,27.879L84.093,25.078L85.109,25.078L85.109,27.879C85.109,28.166 85.149,28.408 85.228,28.605C85.307,28.803 85.408,28.969 85.531,29.102C85.653,29.235 85.787,29.339 85.933,29.414C86.079,29.489 86.218,29.545 86.349,29.582C86.48,29.619 86.596,29.641 86.697,29.65C86.797,29.659 86.863,29.664 86.894,29.664L88.679,29.664L88.679,25.078L89.695,25.078L89.695,30.168Z" style="fill-rule:nonzero;"/>
        <path d="M95.48,28.391L92.273,28.391L92.273,27.367L95.48,27.367L95.48,28.391ZM95.937,30.68L92.273,30.68C92.132,30.68 91.979,30.655 91.812,30.605C91.645,30.556 91.491,30.474 91.349,30.361C91.207,30.248 91.089,30.101 90.994,29.92C90.899,29.739 90.851,29.517 90.851,29.254L90.851,25.59C90.851,25.519 90.864,25.453 90.89,25.391C90.916,25.328 90.952,25.274 90.997,25.227C91.043,25.18 91.097,25.143 91.16,25.117C91.222,25.091 91.29,25.078 91.363,25.078L95.937,25.078L95.937,26.094L91.867,26.094L91.867,29.254C91.867,29.387 91.902,29.488 91.972,29.559C92.043,29.629 92.146,29.664 92.281,29.664L95.937,29.664L95.937,30.68Z" style="fill-rule:nonzero;"/>
        <path d="M102.515,26.961C102.515,27.193 102.486,27.4 102.429,27.582C102.372,27.764 102.294,27.925 102.197,28.064C102.099,28.203 101.986,28.323 101.859,28.422C101.731,28.521 101.597,28.602 101.458,28.666C101.319,28.73 101.178,28.776 101.037,28.805C100.895,28.834 100.761,28.848 100.636,28.848L102.757,30.68L101.187,30.68L99.07,28.848L98.339,28.848L98.339,27.832L100.636,27.832C100.764,27.821 100.881,27.795 100.986,27.752C101.091,27.709 101.182,27.651 101.259,27.578C101.336,27.505 101.395,27.417 101.437,27.314C101.478,27.211 101.499,27.094 101.499,26.961L101.499,26.32C101.499,26.263 101.492,26.219 101.478,26.189C101.463,26.16 101.445,26.138 101.423,26.123C101.401,26.109 101.378,26.101 101.353,26.098C101.328,26.095 101.306,26.094 101.285,26.094L97.933,26.094L97.933,30.68L96.917,30.68L96.917,25.59C96.917,25.519 96.93,25.453 96.956,25.391C96.983,25.328 97.019,25.274 97.064,25.227C97.109,25.18 97.163,25.143 97.226,25.117C97.289,25.091 97.356,25.078 97.429,25.078L101.285,25.078C101.511,25.078 101.702,25.119 101.859,25.201C102.015,25.283 102.142,25.386 102.24,25.51C102.337,25.633 102.408,25.767 102.451,25.91C102.494,26.053 102.515,26.187 102.515,26.312L102.515,26.961Z" style="fill-rule:nonzero;"/>
        <path d="M35.52,18.086C35.52,18.598 35.431,19.069 35.253,19.498C35.075,19.928 34.83,20.298 34.518,20.608C34.205,20.919 33.834,21.162 33.404,21.338C32.975,21.514 32.508,21.602 32.004,21.602L27.891,21.602C27.782,21.602 27.68,21.582 27.586,21.543C27.492,21.504 27.411,21.45 27.343,21.382C27.274,21.313 27.221,21.232 27.182,21.139C27.143,21.045 27.123,20.943 27.123,20.834L27.123,13.967C27.123,13.862 27.143,13.762 27.182,13.668C27.221,13.574 27.274,13.492 27.343,13.422C27.411,13.351 27.492,13.297 27.586,13.258C27.68,13.219 27.782,13.199 27.891,13.199L32.004,13.199C32.508,13.199 32.975,13.287 33.404,13.463C33.834,13.639 34.205,13.882 34.518,14.192C34.83,14.503 35.075,14.874 35.253,15.306C35.431,15.737 35.52,16.207 35.52,16.715L35.52,18.086ZM33.996,16.715C33.996,16.418 33.948,16.147 33.853,15.9C33.757,15.654 33.621,15.444 33.445,15.271C33.27,15.097 33.06,14.962 32.815,14.866C32.571,14.771 32.301,14.723 32.004,14.723L28.646,14.723L28.646,20.078L32.004,20.078C32.301,20.078 32.571,20.03 32.815,19.935C33.06,19.839 33.27,19.704 33.445,19.53C33.621,19.357 33.757,19.148 33.853,18.903C33.948,18.659 33.996,18.387 33.996,18.086L33.996,16.715Z" style="fill-rule:nonzero;"/>
        <rect x="37.025" y="13.199" width="1.524" height="8.403" style="fill-rule:nonzero;"/>
        <path d="M48.738,13.199L44.76,21.303C44.697,21.428 44.604,21.528 44.481,21.604C44.358,21.681 44.223,21.719 44.074,21.719C43.929,21.719 43.796,21.681 43.673,21.604C43.55,21.528 43.455,21.428 43.389,21.303L39.416,13.199L41.121,13.199L44.074,19.252L47.039,13.199L48.738,13.199Z" style="fill-rule:nonzero;"/>
        <path d="M60.064,19.463L59.379,19.463L59.367,19.48C59.367,19.73 59.335,19.955 59.271,20.154C59.206,20.353 59.121,20.528 59.016,20.679C58.91,20.829 58.787,20.959 58.646,21.068C58.506,21.177 58.361,21.266 58.21,21.335C58.059,21.404 57.907,21.453 57.753,21.484C57.598,21.515 57.453,21.531 57.316,21.531L55.248,21.531C54.885,21.531 54.575,21.463 54.319,21.326C54.064,21.189 53.853,21.019 53.687,20.816C53.521,20.613 53.398,20.393 53.317,20.154C53.237,19.916 53.193,19.695 53.186,19.492L53.186,18.783C53.186,18.474 53.23,18.208 53.317,17.983C53.405,17.758 53.521,17.564 53.666,17.4C53.498,17.189 53.376,16.961 53.3,16.715C53.224,16.469 53.186,16.238 53.186,16.023C53.186,15.644 53.254,15.324 53.391,15.062C53.528,14.801 53.699,14.589 53.906,14.427C54.113,14.265 54.337,14.148 54.577,14.075C54.818,14.003 55.041,13.967 55.248,13.967L58.682,13.967L58.682,15.338L55.248,15.338C55.143,15.338 55.048,15.355 54.964,15.388C54.88,15.421 54.808,15.469 54.747,15.531C54.686,15.594 54.64,15.667 54.609,15.751C54.578,15.835 54.565,15.926 54.568,16.023C54.568,16.246 54.631,16.417 54.756,16.536C54.881,16.655 55.045,16.715 55.248,16.715L57.316,16.715L57.316,18.086L55.248,18.086C55.033,18.086 54.866,18.152 54.747,18.285C54.628,18.418 54.568,18.584 54.568,18.783L54.568,19.439C54.568,19.65 54.632,19.821 54.759,19.952C54.886,20.083 55.049,20.148 55.248,20.148L57.305,20.148C57.52,20.148 57.689,20.084 57.812,19.955C57.935,19.826 57.996,19.662 57.996,19.463C57.996,19.295 58.025,19.129 58.084,18.965C58.143,18.801 58.231,18.653 58.348,18.522C58.465,18.391 58.608,18.286 58.778,18.206C58.948,18.126 59.144,18.086 59.367,18.086L60.064,18.086L60.064,19.463Z" style="fill-rule:nonzero;"/>
        <path d="M72.826,21.602L67.33,21.602C67.189,21.602 67.038,21.585 66.876,21.552C66.714,21.519 66.554,21.467 66.396,21.396C66.237,21.326 66.086,21.235 65.941,21.124C65.797,21.013 65.669,20.878 65.558,20.72C65.447,20.561 65.358,20.378 65.291,20.169C65.224,19.96 65.191,19.724 65.191,19.463L65.191,15.338C65.191,15.197 65.208,15.046 65.241,14.884C65.274,14.722 65.326,14.562 65.396,14.403C65.467,14.245 65.559,14.094 65.672,13.949C65.785,13.804 65.921,13.676 66.079,13.565C66.237,13.454 66.42,13.365 66.627,13.299C66.834,13.232 67.069,13.199 67.33,13.199L72.826,13.199L72.826,14.723L67.33,14.723C67.131,14.723 66.978,14.776 66.873,14.881C66.768,14.986 66.715,15.143 66.715,15.35L66.715,19.463C66.715,19.658 66.769,19.81 66.876,19.917C66.983,20.024 67.135,20.078 67.33,20.078L72.826,20.078L72.826,21.602Z" style="fill-rule:nonzero;"/>
        <path d="M82.963,18.203C82.963,18.715 82.875,19.186 82.699,19.615C82.524,20.045 82.28,20.416 81.967,20.729C81.654,21.041 81.284,21.284 80.856,21.458C80.429,21.632 79.963,21.719 79.459,21.719L77.396,21.719C76.893,21.719 76.426,21.632 75.996,21.458C75.567,21.284 75.196,21.041 74.883,20.729C74.57,20.416 74.325,20.045 74.147,19.615C73.97,19.186 73.881,18.715 73.881,18.203L73.881,16.598C73.881,16.09 73.97,15.62 74.147,15.188C74.325,14.757 74.57,14.386 74.883,14.075C75.196,13.764 75.567,13.521 75.996,13.346C76.426,13.17 76.893,13.082 77.396,13.082L79.459,13.082C79.963,13.082 80.429,13.17 80.856,13.346C81.284,13.521 81.654,13.764 81.967,14.075C82.28,14.386 82.524,14.757 82.699,15.188C82.875,15.62 82.963,16.09 82.963,16.598L82.963,18.203ZM81.439,16.598C81.439,16.297 81.391,16.024 81.296,15.78C81.2,15.536 81.065,15.327 80.892,15.153C80.718,14.98 80.509,14.845 80.265,14.749C80.02,14.653 79.752,14.605 79.459,14.605L77.396,14.605C77.099,14.605 76.829,14.653 76.585,14.749C76.341,14.845 76.131,14.98 75.955,15.153C75.779,15.327 75.643,15.536 75.548,15.78C75.452,16.024 75.404,16.297 75.404,16.598L75.404,18.203C75.404,18.504 75.452,18.776 75.548,19.021C75.643,19.265 75.779,19.474 75.955,19.647C76.131,19.821 76.341,19.956 76.585,20.052C76.829,20.147 77.099,20.195 77.396,20.195L79.447,20.195C79.744,20.195 80.015,20.147 80.259,20.052C80.503,19.956 80.713,19.821 80.889,19.647C81.064,19.474 81.2,19.265 81.296,19.021C81.391,18.776 81.439,18.504 81.439,18.203L81.439,16.598Z" style="fill-rule:nonzero;"/>
        <path d="M92.865,20.951C92.865,21.06 92.845,21.162 92.804,21.256C92.763,21.349 92.708,21.43 92.64,21.499C92.571,21.568 92.49,21.621 92.396,21.66C92.303,21.699 92.203,21.719 92.098,21.719C92.004,21.719 91.909,21.701 91.813,21.666C91.718,21.631 91.633,21.574 91.559,21.496L85.992,15.684L85.992,21.602L84.469,21.602L84.469,13.85C84.469,13.693 84.513,13.552 84.601,13.425C84.688,13.298 84.801,13.203 84.938,13.141C85.082,13.082 85.23,13.068 85.383,13.097C85.535,13.126 85.666,13.198 85.775,13.311L91.342,19.117L91.342,13.199L92.865,13.199L92.865,20.951Z" style="fill-rule:nonzero;"/>
    </g>
</svg>
