<?xml version="1.0" encoding="UTF-8" standalone="no"?>
<!DOCTYPE svg PUBLIC "-//W3C//DTD SVG 1.1//EN" "http://www.w3.org/Graphics/SVG/1.1/DTD/svg11.dtd">
<svg width="100%" height="100%" viewBox="0 0 120 380" version="1.1" xmlns="http://www.w3.org/2000/svg" xmlns:xlink="http://www.w3.org/1999/xlink" xml:space="preserve" xmlns:serif="http://www.serif.com/" style="fill-rule:evenodd;clip-rule:evenodd;stroke-linecap:round;stroke-linejoin:round;">
    <g id="ROUTER">
        <rect x="0" y="0" width="120" height="380" style="fill:#e6e6e6;fill-rule:nonzero;"/>
        <path d="M4.037,280.5L115.963,280.5C117.64,280.5 119,282.448 119,284.852L119,336.648C119,339.052 117.64,341 115.963,341L4.037,341C2.36,341 1,339.052 1,336.648L1,284.852C1,282.448 2.36,280.5 4.037,280.5Z" style="fill:#bcbdba;fill-rule:nonzero;"/>
        <path d="M31.807,70.102L89.807,93.102" style="fill:none;fill-rule:nonzero;stroke:#00799a;stroke-width:4px;"/>
        <path d="M89.807,93.102L31.807,123.918" style="fill:none;fill-rule:nonzero;stroke:#007a9f;stroke-width:4px;stroke-linecap:butt;stroke-linejoin:miter;"/>
        <path d="M31.807,125.305L89.807,148.305" style="fill:none;fill-rule:nonzero;stroke:#00799a;stroke-width:4px;"/>
        <path d="M76.564,169L75.285,169L75.285,166.139L70.773,166.139C70.682,166.139 70.598,166.122 70.52,166.087C70.441,166.053 70.374,166.008 70.317,165.951C70.26,165.894 70.215,165.826 70.183,165.748C70.15,165.67 70.134,165.587 70.134,165.499L70.134,161.998L71.403,161.998L71.403,164.859L75.285,164.859L75.285,161.998L76.564,161.998L76.564,169Z" style="fill-rule:nonzero;"/>
        <path d="M20.999,145.218C20.999,145.547 20.94,145.824 20.821,146.05C20.702,146.277 20.554,146.461 20.376,146.602C20.199,146.743 20.006,146.845 19.798,146.907C19.589,146.969 19.396,147 19.217,147L15.145,147L15.145,145.73L19.217,145.73C19.39,145.73 19.517,145.686 19.6,145.599C19.683,145.511 19.725,145.384 19.725,145.218L19.725,144.139L15.145,144.139L15.145,142.859L19.725,142.859L19.725,141.79C19.725,141.442 19.556,141.268 19.217,141.268L15.145,141.268L15.145,139.998L19.217,139.998C19.435,139.998 19.63,140.026 19.803,140.081C19.976,140.136 20.128,140.21 20.259,140.303C20.391,140.396 20.504,140.502 20.599,140.623C20.693,140.744 20.769,140.87 20.828,141.001C20.887,141.133 20.93,141.267 20.958,141.402C20.985,141.537 20.999,141.663 20.999,141.78L20.999,145.218Z" style="fill-rule:nonzero;"/>
        <path d="M78.673,72L72.242,72L72.242,69.651C72.242,69.531 72.256,69.403 72.284,69.268C72.311,69.133 72.354,68.998 72.413,68.865C72.472,68.732 72.547,68.605 72.64,68.484C72.733,68.364 72.845,68.258 72.977,68.165C73.109,68.072 73.261,67.997 73.434,67.942C73.606,67.887 73.801,67.859 74.02,67.859L76.881,67.859C77.054,67.859 77.181,67.816 77.264,67.73C77.347,67.644 77.389,67.518 77.389,67.352L77.389,66.79C77.389,66.617 77.347,66.487 77.262,66.399C77.177,66.312 77.054,66.268 76.891,66.268L72.813,66.268L72.813,64.998L76.891,64.998C77.106,64.998 77.299,65.026 77.472,65.081C77.644,65.136 77.796,65.21 77.928,65.303C78.06,65.396 78.173,65.502 78.268,65.623C78.362,65.744 78.439,65.87 78.5,66.001C78.56,66.133 78.604,66.267 78.631,66.402C78.659,66.537 78.673,66.663 78.673,66.78L78.673,67.352C78.673,67.681 78.614,67.958 78.495,68.184C78.376,68.41 78.227,68.594 78.048,68.736C77.869,68.877 77.676,68.98 77.469,69.043C77.262,69.107 77.07,69.139 76.891,69.139L74.02,69.139C73.915,69.139 73.832,69.154 73.771,69.183C73.709,69.212 73.661,69.251 73.626,69.3C73.592,69.349 73.567,69.404 73.551,69.466C73.534,69.528 73.521,69.59 73.512,69.651L73.512,70.73L78.673,70.73L78.673,72Z" style="fill-rule:nonzero;"/>
        <path d="M18.769,49L17.494,49L17.494,43.268L16.347,43.268L16.347,41.998L18.769,41.998L18.769,49Z" style="fill-rule:nonzero;"/>
        <g id="Third_Row">
            <path d="M18.5,307.5L18.5,333.5" style="fill:none;fill-rule:nonzero;stroke:#007a9f;stroke-width:2px;stroke-linejoin:miter;"/>
            <path d="M46.5,307.5L46.5,333.5" style="fill:none;fill-rule:nonzero;stroke:#007a9f;stroke-width:2px;stroke-linejoin:miter;"/>
            <path d="M74.5,307.5L74.5,333.5" style="fill:none;fill-rule:nonzero;stroke:#007a9f;stroke-width:2px;stroke-linejoin:miter;"/>
            <path d="M102.5,307.5L102.5,333.5" style="fill:none;fill-rule:nonzero;stroke:#007a9f;stroke-width:2px;stroke-linejoin:miter;"/>
            <path d="M12.775,307.5L108.901,307.5" style="fill:none;fill-rule:nonzero;stroke:#00799a;stroke-width:4px;stroke-linejoin:miter;"/>
            <path d="M97.695,286.734C97.695,287.075 97.637,287.389 97.52,287.676C97.403,287.962 97.24,288.209 97.031,288.418C96.823,288.626 96.576,288.788 96.291,288.904C96.006,289.02 95.695,289.078 95.359,289.078L93.984,289.078C93.648,289.078 93.337,289.02 93.051,288.904C92.764,288.788 92.517,288.626 92.309,288.418C92.1,288.209 91.937,287.962 91.818,287.676C91.7,287.389 91.641,287.075 91.641,286.734L91.641,285.664C91.641,285.325 91.7,285.012 91.818,284.725C91.937,284.437 92.1,284.189 92.309,283.982C92.517,283.775 92.764,283.613 93.051,283.496C93.337,283.379 93.648,283.32 93.984,283.32L95.359,283.32C95.695,283.32 96.006,283.379 96.291,283.496C96.576,283.613 96.823,283.775 97.031,283.982C97.24,284.189 97.403,284.437 97.52,284.725C97.637,285.012 97.695,285.325 97.695,285.664L97.695,286.734ZM96.68,285.664C96.68,285.463 96.648,285.282 96.584,285.119C96.52,284.956 96.43,284.817 96.314,284.701C96.199,284.585 96.059,284.495 95.896,284.432C95.733,284.368 95.554,284.336 95.359,284.336L93.984,284.336C93.787,284.336 93.606,284.368 93.443,284.432C93.28,284.495 93.14,284.585 93.023,284.701C92.906,284.817 92.816,284.956 92.752,285.119C92.688,285.282 92.656,285.463 92.656,285.664L92.656,286.734C92.656,286.935 92.688,287.116 92.752,287.279C92.816,287.442 92.906,287.581 93.023,287.697C93.14,287.813 93.28,287.903 93.443,287.967C93.606,288.03 93.787,288.062 93.984,288.062L95.352,288.062C95.549,288.062 95.73,288.03 95.893,287.967C96.056,287.903 96.196,287.813 96.313,287.697C96.43,287.581 96.52,287.442 96.584,287.279C96.648,287.116 96.68,286.935 96.68,286.734L96.68,285.664Z" style="fill-rule:nonzero;"/>
            <path d="M104.188,288.488C104.188,288.561 104.175,288.629 104.148,288.691C104.122,288.754 104.086,288.808 104.039,288.853C103.992,288.899 103.938,288.935 103.875,288.961C103.812,288.987 103.746,289 103.676,289L101.387,289C101.171,289 100.952,288.977 100.73,288.93C100.509,288.883 100.295,288.81 100.088,288.713C99.881,288.615 99.686,288.491 99.504,288.34C99.321,288.189 99.162,288.01 99.025,287.803C98.888,287.596 98.781,287.359 98.703,287.092C98.625,286.825 98.586,286.527 98.586,286.199L98.586,283.398L99.602,283.398L99.602,286.199C99.602,286.486 99.642,286.728 99.721,286.926C99.8,287.124 99.901,287.289 100.023,287.422C100.146,287.555 100.28,287.659 100.426,287.734C100.572,287.81 100.711,287.866 100.842,287.902C100.973,287.939 101.089,287.962 101.189,287.971C101.29,287.98 101.356,287.984 101.387,287.984L103.172,287.984L103.172,283.398L104.188,283.398L104.188,288.488Z" style="fill-rule:nonzero;"/>
            <path d="M110.43,284.414L108.191,284.414L108.191,289L107.176,289L107.176,284.414L104.934,284.414L104.934,283.398L110.43,283.398L110.43,284.414Z" style="fill-rule:nonzero;"/>
            <path d="M116.152,289L115.129,289L115.129,286.711L111.52,286.711C111.447,286.711 111.379,286.697 111.316,286.67C111.254,286.643 111.2,286.606 111.154,286.561C111.109,286.515 111.073,286.461 111.047,286.398C111.021,286.336 111.008,286.27 111.008,286.199L111.008,283.398L112.023,283.398L112.023,285.687L115.129,285.687L115.129,283.398L116.152,283.398L116.152,289Z" style="fill-rule:nonzero;"/>
            <path d="M67.912,286.734C67.912,287.075 67.853,287.389 67.736,287.676C67.619,287.962 67.457,288.209 67.248,288.418C67.04,288.626 66.793,288.788 66.508,288.904C66.223,289.02 65.912,289.078 65.576,289.078L64.201,289.078C63.865,289.078 63.554,289.02 63.268,288.904C62.981,288.788 62.734,288.626 62.525,288.418C62.317,288.209 62.154,287.962 62.035,287.676C61.916,287.389 61.857,287.075 61.857,286.734L61.857,285.664C61.857,285.325 61.916,285.012 62.035,284.725C62.154,284.437 62.317,284.189 62.525,283.982C62.734,283.775 62.981,283.613 63.268,283.496C63.554,283.379 63.865,283.32 64.201,283.32L65.576,283.32C65.912,283.32 66.223,283.379 66.508,283.496C66.793,283.613 67.04,283.775 67.248,283.982C67.457,284.189 67.619,284.437 67.736,284.725C67.853,285.012 67.912,285.325 67.912,285.664L67.912,286.734ZM66.896,285.664C66.896,285.463 66.864,285.282 66.801,285.119C66.737,284.956 66.647,284.817 66.531,284.701C66.415,284.585 66.276,284.495 66.113,284.432C65.95,284.368 65.771,284.336 65.576,284.336L64.201,284.336C64.003,284.336 63.823,284.368 63.66,284.432C63.497,284.495 63.357,284.585 63.24,284.701C63.123,284.817 63.032,284.956 62.969,285.119C62.905,285.282 62.873,285.463 62.873,285.664L62.873,286.734C62.873,286.935 62.905,287.116 62.969,287.279C63.032,287.442 63.123,287.581 63.24,287.697C63.357,287.813 63.497,287.903 63.66,287.967C63.823,288.03 64.003,288.062 64.201,288.062L65.568,288.062C65.766,288.062 65.946,288.03 66.109,287.967C66.272,287.903 66.412,287.813 66.529,287.697C66.646,287.581 66.737,287.442 66.801,287.279C66.864,287.116 66.896,286.935 66.896,286.734L66.896,285.664Z" style="fill-rule:nonzero;"/>
            <path d="M74.404,288.488C74.404,288.561 74.391,288.629 74.365,288.691C74.339,288.754 74.303,288.808 74.256,288.853C74.209,288.899 74.155,288.935 74.092,288.961C74.029,288.987 73.963,289 73.893,289L71.604,289C71.387,289 71.168,288.977 70.947,288.93C70.726,288.883 70.512,288.81 70.305,288.713C70.098,288.615 69.903,288.491 69.721,288.34C69.538,288.189 69.379,288.01 69.242,287.803C69.105,287.596 68.998,287.359 68.92,287.092C68.842,286.825 68.803,286.527 68.803,286.199L68.803,283.398L69.818,283.398L69.818,286.199C69.818,286.486 69.858,286.728 69.938,286.926C70.017,287.124 70.118,287.289 70.24,287.422C70.363,287.555 70.497,287.659 70.643,287.734C70.788,287.81 70.927,287.866 71.059,287.902C71.19,287.939 71.306,287.962 71.406,287.971C71.507,287.98 71.573,287.984 71.604,287.984L73.389,287.984L73.389,283.398L74.404,283.398L74.404,288.488Z" style="fill-rule:nonzero;"/>
            <path d="M80.646,284.414L78.408,284.414L78.408,289L77.393,289L77.393,284.414L75.15,284.414L75.15,283.398L80.646,283.398L80.646,284.414Z" style="fill-rule:nonzero;"/>
            <path d="M86.01,287.574C86.01,287.837 85.962,288.059 85.867,288.24C85.772,288.421 85.654,288.569 85.512,288.682C85.37,288.795 85.216,288.877 85.049,288.926C84.882,288.975 84.727,289 84.584,289L81.326,289L81.326,287.984L84.584,287.984C84.722,287.984 84.824,287.949 84.891,287.879C84.957,287.808 84.99,287.707 84.99,287.574L84.99,286.711L81.326,286.711L81.326,285.687L84.99,285.687L84.99,284.832C84.99,284.553 84.855,284.414 84.584,284.414L81.326,284.414L81.326,283.398L84.584,283.398C84.759,283.398 84.915,283.42 85.053,283.465C85.191,283.509 85.313,283.568 85.418,283.643C85.523,283.717 85.614,283.802 85.689,283.898C85.765,283.995 85.826,284.096 85.873,284.201C85.92,284.306 85.954,284.413 85.977,284.521C85.999,284.63 86.01,284.731 86.01,284.824L86.01,287.574Z" style="fill-rule:nonzero;"/>
            <path d="M37.799,286.336C37.799,286.677 37.74,286.991 37.623,287.277C37.506,287.564 37.343,287.811 37.135,288.02C36.926,288.228 36.68,288.39 36.395,288.506C36.11,288.622 35.799,288.68 35.463,288.68L34.088,288.68C33.752,288.68 33.441,288.622 33.154,288.506C32.868,288.39 32.621,288.228 32.412,288.02C32.204,287.811 32.041,287.564 31.922,287.277C31.803,286.991 31.744,286.677 31.744,286.336L31.744,285.266C31.744,284.927 31.803,284.614 31.922,284.326C32.041,284.039 32.204,283.791 32.412,283.584C32.621,283.377 32.868,283.215 33.154,283.098C33.441,282.981 33.752,282.922 34.088,282.922L35.463,282.922C35.799,282.922 36.11,282.981 36.395,283.098C36.68,283.215 36.926,283.377 37.135,283.584C37.343,283.791 37.506,284.039 37.623,284.326C37.74,284.614 37.799,284.927 37.799,285.266L37.799,286.336ZM36.783,285.266C36.783,285.065 36.751,284.884 36.688,284.721C36.624,284.558 36.534,284.419 36.418,284.303C36.302,284.187 36.163,284.097 36,284.033C35.837,283.969 35.658,283.937 35.463,283.937L34.088,283.937C33.89,283.937 33.71,283.969 33.547,284.033C33.384,284.097 33.244,284.187 33.127,284.303C33.01,284.419 32.919,284.558 32.855,284.721C32.792,284.884 32.76,285.065 32.76,285.266L32.76,286.336C32.76,286.537 32.792,286.718 32.855,286.881C32.919,287.044 33.01,287.183 33.127,287.299C33.244,287.415 33.384,287.505 33.547,287.568C33.71,287.632 33.89,287.664 34.088,287.664L35.455,287.664C35.653,287.664 35.833,287.632 35.996,287.568C36.159,287.505 36.299,287.415 36.416,287.299C36.533,287.183 36.624,287.044 36.688,286.881C36.751,286.718 36.783,286.537 36.783,286.336L36.783,285.266Z" style="fill-rule:nonzero;"/>
            <path d="M44.291,288.09C44.291,288.163 44.278,288.23 44.252,288.293C44.226,288.356 44.19,288.41 44.143,288.455C44.096,288.5 44.041,288.536 43.979,288.562C43.916,288.589 43.85,288.602 43.779,288.602L41.49,288.602C41.274,288.602 41.055,288.578 40.834,288.531C40.613,288.484 40.398,288.412 40.191,288.314C39.984,288.217 39.79,288.092 39.607,287.941C39.425,287.79 39.266,287.611 39.129,287.404C38.992,287.197 38.885,286.96 38.807,286.693C38.728,286.426 38.689,286.129 38.689,285.801L38.689,283L39.705,283L39.705,285.801C39.705,286.087 39.745,286.329 39.824,286.527C39.903,286.725 40.004,286.89 40.127,287.023C40.25,287.156 40.384,287.261 40.529,287.336C40.675,287.411 40.814,287.467 40.945,287.504C41.077,287.541 41.193,287.563 41.293,287.572C41.393,287.581 41.459,287.586 41.49,287.586L43.275,287.586L43.275,283L44.291,283L44.291,288.09Z" style="fill-rule:nonzero;"/>
            <path d="M50.533,284.016L48.295,284.016L48.295,288.602L47.279,288.602L47.279,284.016L45.037,284.016L45.037,283L50.533,283L50.533,284.016Z" style="fill-rule:nonzero;"/>
            <path d="M56.209,288.602L51.064,288.602L51.064,286.723C51.064,286.626 51.075,286.524 51.098,286.416C51.12,286.308 51.154,286.201 51.201,286.094C51.248,285.987 51.308,285.886 51.383,285.789C51.457,285.693 51.547,285.608 51.652,285.533C51.758,285.459 51.88,285.4 52.018,285.355C52.156,285.311 52.312,285.289 52.486,285.289L54.775,285.289C54.913,285.289 55.015,285.255 55.082,285.186C55.149,285.117 55.182,285.016 55.182,284.883L55.182,284.434C55.182,284.296 55.148,284.192 55.08,284.121C55.013,284.051 54.914,284.016 54.783,284.016L51.521,284.016L51.521,283L54.783,283C54.955,283 55.11,283.022 55.248,283.066C55.386,283.111 55.508,283.17 55.613,283.244C55.718,283.318 55.809,283.403 55.885,283.5C55.96,283.597 56.022,283.698 56.07,283.803C56.119,283.908 56.154,284.015 56.176,284.123C56.198,284.231 56.209,284.332 56.209,284.426L56.209,284.883C56.209,285.146 56.161,285.368 56.066,285.549C55.971,285.73 55.852,285.877 55.709,285.99C55.566,286.103 55.411,286.185 55.246,286.236C55.081,286.287 54.926,286.312 54.783,286.312L52.486,286.312C52.403,286.312 52.336,286.324 52.287,286.348C52.238,286.371 52.199,286.402 52.172,286.441C52.145,286.48 52.124,286.525 52.111,286.574C52.098,286.623 52.088,286.673 52.08,286.723L52.08,287.586L56.209,287.586L56.209,288.602Z" style="fill-rule:nonzero;"/>
            <path d="M9.646,286.336C9.646,286.677 9.587,286.991 9.47,287.277C9.353,287.564 9.19,287.811 8.982,288.02C8.773,288.228 8.526,288.39 8.241,288.506C7.956,288.622 7.646,288.68 7.31,288.68L5.935,288.68C5.599,288.68 5.288,288.622 5.001,288.506C4.714,288.39 4.467,288.228 4.259,288.02C4.05,287.811 3.887,287.564 3.769,287.277C3.65,286.991 3.591,286.677 3.591,286.336L3.591,285.266C3.591,284.927 3.65,284.614 3.769,284.326C3.887,284.039 4.05,283.791 4.259,283.584C4.467,283.377 4.714,283.215 5.001,283.098C5.288,282.981 5.599,282.922 5.935,282.922L7.31,282.922C7.646,282.922 7.956,282.981 8.241,283.098C8.526,283.215 8.773,283.377 8.982,283.584C9.19,283.791 9.353,284.039 9.47,284.326C9.587,284.614 9.646,284.927 9.646,285.266L9.646,286.336ZM8.63,285.266C8.63,285.065 8.598,284.884 8.534,284.721C8.471,284.558 8.381,284.419 8.265,284.303C8.149,284.187 8.01,284.097 7.847,284.033C7.684,283.969 7.505,283.937 7.31,283.937L5.935,283.937C5.737,283.937 5.557,283.969 5.394,284.033C5.231,284.097 5.091,284.187 4.974,284.303C4.857,284.419 4.766,284.558 4.702,284.721C4.639,284.884 4.607,285.065 4.607,285.266L4.607,286.336C4.607,286.537 4.639,286.718 4.702,286.881C4.766,287.044 4.857,287.183 4.974,287.299C5.091,287.415 5.231,287.505 5.394,287.568C5.557,287.632 5.737,287.664 5.935,287.664L7.302,287.664C7.5,287.664 7.68,287.632 7.843,287.568C8.006,287.505 8.146,287.415 8.263,287.299C8.38,287.183 8.471,287.044 8.534,286.881C8.598,286.718 8.63,286.537 8.63,286.336L8.63,285.266Z" style="fill-rule:nonzero;"/>
            <path d="M16.138,288.09C16.138,288.163 16.125,288.23 16.099,288.293C16.073,288.356 16.036,288.41 15.989,288.455C15.942,288.5 15.888,288.536 15.825,288.562C15.763,288.589 15.697,288.602 15.626,288.602L13.337,288.602C13.121,288.602 12.902,288.578 12.681,288.531C12.46,288.484 12.245,288.412 12.038,288.314C11.831,288.217 11.637,288.092 11.454,287.941C11.272,287.79 11.113,287.611 10.976,287.404C10.839,287.197 10.732,286.96 10.654,286.693C10.575,286.426 10.536,286.129 10.536,285.801L10.536,283L11.552,283L11.552,285.801C11.552,286.087 11.592,286.329 11.671,286.527C11.75,286.725 11.851,286.89 11.974,287.023C12.096,287.156 12.23,287.261 12.376,287.336C12.522,287.411 12.661,287.467 12.792,287.504C12.923,287.541 13.039,287.563 13.14,287.572C13.24,287.581 13.306,287.586 13.337,287.586L15.122,287.586L15.122,283L16.138,283L16.138,288.09Z" style="fill-rule:nonzero;"/>
            <path d="M22.38,284.016L20.142,284.016L20.142,288.602L19.126,288.602L19.126,284.016L16.884,284.016L16.884,283L22.38,283L22.38,284.016Z" style="fill-rule:nonzero;"/>
            <path d="M24.751,288.602L23.732,288.602L23.732,284.016L22.814,284.016L22.814,283L24.751,283L24.751,288.602Z" style="fill-rule:nonzero;"/>
            <g>
                <path d="M102.5,337.7C100.291,337.7 98.5,335.909 98.5,333.7C98.5,331.491 100.291,329.7 102.5,329.7C104.709,329.7 106.5,331.491 106.5,333.7C106.5,335.909 104.709,337.7 102.5,337.7Z" style="fill:#e6e6e6;fill-rule:nonzero;"/>
                <path d="M102.5,337.7C100.291,337.7 98.5,335.909 98.5,333.7C98.5,331.491 100.291,329.7 102.5,329.7C104.709,329.7 106.5,331.491 106.5,333.7C106.5,335.909 104.709,337.7 102.5,337.7Z" style="fill-opacity:0;fill-rule:nonzero;stroke:#000;stroke-width:0.25px;stroke-linecap:butt;stroke-linejoin:miter;"/>
            </g>
            <g>
                <path d="M74.5,337.7C72.291,337.7 70.5,335.909 70.5,333.7C70.5,331.491 72.291,329.7 74.5,329.7C76.709,329.7 78.5,331.491 78.5,333.7C78.5,335.909 76.709,337.7 74.5,337.7Z" style="fill:#e6e6e6;fill-rule:nonzero;"/>
                <path d="M74.5,337.7C72.291,337.7 70.5,335.909 70.5,333.7C70.5,331.491 72.291,329.7 74.5,329.7C76.709,329.7 78.5,331.491 78.5,333.7C78.5,335.909 76.709,337.7 74.5,337.7Z" style="fill-opacity:0;fill-rule:nonzero;stroke:#000;stroke-width:0.25px;stroke-linecap:butt;stroke-linejoin:miter;"/>
            </g>
            <g>
                <path d="M46.5,337.7C44.291,337.7 42.5,335.909 42.5,333.7C42.5,331.491 44.291,329.7 46.5,329.7C48.709,329.7 50.5,331.491 50.5,333.7C50.5,335.909 48.709,337.7 46.5,337.7Z" style="fill:#e6e6e6;fill-rule:nonzero;"/>
                <path d="M46.5,337.7C44.291,337.7 42.5,335.909 42.5,333.7C42.5,331.491 44.291,329.7 46.5,329.7C48.709,329.7 50.5,331.491 50.5,333.7C50.5,335.909 48.709,337.7 46.5,337.7Z" style="fill-opacity:0;fill-rule:nonzero;stroke:#000;stroke-width:0.25px;stroke-linecap:butt;stroke-linejoin:miter;"/>
            </g>
            <g>
                <path d="M18.5,337.7C16.291,337.7 14.5,335.909 14.5,333.7C14.5,331.491 16.291,329.7 18.5,329.7C20.709,329.7 22.5,331.491 22.5,333.7C22.5,335.909 20.709,337.7 18.5,337.7Z" style="fill:#e6e6e6;fill-rule:nonzero;"/>
                <path d="M18.5,337.7C16.291,337.7 14.5,335.909 14.5,333.7C14.5,331.491 16.291,329.7 18.5,329.7C20.709,329.7 22.5,331.491 22.5,333.7C22.5,335.909 20.709,337.7 18.5,337.7Z" style="fill-opacity:0;fill-rule:nonzero;stroke:#000;stroke-width:0.25px;stroke-linecap:butt;stroke-linejoin:miter;"/>
            </g>
        </g>
        <g id="Second_Row">
            <path d="M4.026,235L115.569,235C117.24,235 118.595,236.343 118.595,238L118.595,273.708C118.595,275.365 117.24,276.708 115.569,276.708L4.026,276.708C2.355,276.708 1,275.365 1,273.708L1,238C1,236.343 2.355,235 4.026,235Z" style="fill:#fff;fill-rule:nonzero;"/>
            <path d="M12.37,261.898L108.496,261.898" style="fill:none;fill-rule:nonzero;stroke:#00799a;stroke-width:4px;stroke-linejoin:miter;"/>
            <rect x="95.186" y="237.797" width="1.015" height="5.601" style="fill-rule:nonzero;"/>
            <path d="M102.986,242.965C102.986,243.038 102.972,243.105 102.945,243.168C102.918,243.231 102.881,243.285 102.836,243.33C102.791,243.375 102.737,243.411 102.674,243.438C102.611,243.464 102.545,243.477 102.475,243.477C102.412,243.477 102.349,243.465 102.285,243.441C102.221,243.418 102.164,243.38 102.115,243.328L98.404,239.453L98.404,243.398L97.389,243.398L97.389,238.23C97.389,238.126 97.418,238.032 97.477,237.947C97.535,237.862 97.61,237.799 97.701,237.758C97.798,237.719 97.897,237.709 97.998,237.729C98.099,237.748 98.187,237.796 98.26,237.871L101.971,241.742L101.971,237.797L102.986,237.797L102.986,242.965Z" style="fill-rule:nonzero;"/>
            <path d="M109.143,243.398L108.119,243.398L108.119,241.109L104.51,241.109C104.437,241.109 104.369,241.095 104.307,241.068C104.244,241.041 104.19,241.004 104.145,240.959C104.099,240.914 104.063,240.86 104.037,240.797C104.011,240.734 103.998,240.668 103.998,240.598L103.998,237.797L105.014,237.797L105.014,240.086L108.119,240.086L108.119,237.797L109.143,237.797L109.143,243.398Z" style="fill-rule:nonzero;"/>
            <rect x="67.288" y="237.797" width="1.015" height="5.601" style="fill-rule:nonzero;"/>
            <path d="M75.088,242.965C75.088,243.038 75.074,243.105 75.047,243.168C75.02,243.231 74.983,243.285 74.938,243.33C74.893,243.375 74.839,243.411 74.776,243.438C74.713,243.464 74.647,243.477 74.577,243.477C74.514,243.477 74.451,243.465 74.387,243.441C74.323,243.418 74.266,243.38 74.217,243.328L70.506,239.453L70.506,243.398L69.491,243.398L69.491,238.23C69.491,238.126 69.52,238.032 69.579,237.947C69.637,237.862 69.712,237.799 69.803,237.758C69.9,237.719 69.999,237.709 70.1,237.729C70.201,237.748 70.289,237.796 70.362,237.871L74.073,241.742L74.073,237.797L75.088,237.797L75.088,242.965Z" style="fill-rule:nonzero;"/>
            <path d="M80.885,241.973C80.885,242.236 80.838,242.458 80.743,242.639C80.648,242.82 80.529,242.967 80.387,243.08C80.245,243.193 80.091,243.275 79.924,243.324C79.757,243.373 79.602,243.398 79.459,243.398L76.202,243.398L76.202,242.383L79.459,242.383C79.597,242.383 79.699,242.348 79.766,242.277C79.833,242.207 79.866,242.106 79.866,241.973L79.866,241.109L76.202,241.109L76.202,240.086L79.866,240.086L79.866,239.23C79.866,238.951 79.73,238.812 79.459,238.812L76.202,238.812L76.202,237.797L79.459,237.797C79.634,237.797 79.79,237.819 79.928,237.863C80.066,237.908 80.188,237.967 80.293,238.041C80.399,238.115 80.49,238.2 80.565,238.297C80.64,238.393 80.701,238.494 80.748,238.6C80.795,238.705 80.83,238.812 80.852,238.92C80.874,239.028 80.885,239.129 80.885,239.223L80.885,241.973Z" style="fill-rule:nonzero;"/>
            <rect x="39.27" y="237.398" width="1.015" height="5.602" style="fill-rule:nonzero;"/>
            <path d="M47.07,242.566C47.07,242.639 47.056,242.707 47.029,242.77C47.002,242.832 46.965,242.886 46.92,242.932C46.875,242.977 46.821,243.013 46.758,243.039C46.695,243.065 46.629,243.078 46.559,243.078C46.496,243.078 46.433,243.066 46.369,243.043C46.305,243.02 46.248,242.982 46.199,242.93L42.488,239.055L42.488,243L41.473,243L41.473,237.832C41.473,237.728 41.502,237.634 41.561,237.549C41.619,237.464 41.694,237.401 41.785,237.359C41.882,237.32 41.981,237.311 42.082,237.33C42.183,237.349 42.271,237.397 42.344,237.473L46.055,241.344L46.055,237.398L47.07,237.398L47.07,242.566Z" style="fill-rule:nonzero;"/>
            <path d="M53.219,243L48.074,243L48.074,241.121C48.074,241.025 48.085,240.923 48.107,240.814C48.13,240.706 48.164,240.599 48.211,240.492C48.258,240.385 48.318,240.284 48.393,240.188C48.467,240.091 48.557,240.006 48.662,239.932C48.767,239.857 48.889,239.798 49.027,239.754C49.165,239.71 49.321,239.688 49.496,239.688L51.785,239.688C51.923,239.688 52.025,239.653 52.092,239.584C52.158,239.515 52.191,239.414 52.191,239.281L52.191,238.832C52.191,238.694 52.157,238.59 52.09,238.52C52.022,238.449 51.923,238.414 51.793,238.414L48.531,238.414L48.531,237.398L51.793,237.398C51.965,237.398 52.12,237.42 52.258,237.465C52.396,237.509 52.518,237.568 52.623,237.643C52.728,237.717 52.819,237.802 52.895,237.898C52.97,237.995 53.032,238.096 53.08,238.201C53.128,238.306 53.163,238.413 53.186,238.521C53.208,238.63 53.219,238.731 53.219,238.824L53.219,239.281C53.219,239.544 53.171,239.766 53.076,239.947C52.981,240.128 52.862,240.276 52.719,240.389C52.576,240.502 52.421,240.584 52.256,240.635C52.091,240.686 51.936,240.711 51.793,240.711L49.496,240.711C49.413,240.711 49.346,240.723 49.297,240.746C49.248,240.769 49.209,240.801 49.182,240.84C49.155,240.879 49.134,240.923 49.121,240.973C49.108,241.022 49.098,241.072 49.09,241.121L49.09,241.984L53.219,241.984L53.219,243Z" style="fill-rule:nonzero;"/>
            <rect x="12.955" y="237.398" width="1.016" height="5.602" style="fill-rule:nonzero;"/>
            <path d="M20.756,242.566C20.756,242.639 20.742,242.707 20.715,242.77C20.688,242.832 20.651,242.886 20.606,242.932C20.56,242.977 20.506,243.013 20.443,243.039C20.381,243.065 20.315,243.078 20.244,243.078C20.181,243.078 20.118,243.066 20.055,243.043C19.991,243.02 19.934,242.982 19.885,242.93L16.174,239.055L16.174,243L15.158,243L15.158,237.832C15.158,237.728 15.187,237.634 15.246,237.549C15.305,237.464 15.38,237.401 15.471,237.359C15.567,237.32 15.666,237.311 15.768,237.33C15.869,237.349 15.956,237.397 16.029,237.473L19.74,241.344L19.74,237.398L20.756,237.398L20.756,242.566Z" style="fill-rule:nonzero;"/>
            <path d="M23.561,243L22.541,243L22.541,238.414L21.623,238.414L21.623,237.398L23.561,237.398L23.561,243Z" style="fill-rule:nonzero;"/>
            <rect x="29.359" y="249.557" width="2.748" height="0.685" style="fill-rule:nonzero;"/>
            <path d="M33.83,248.329L35.266,249.612C35.305,249.647 35.335,249.689 35.358,249.738C35.381,249.787 35.392,249.839 35.392,249.894C35.392,249.951 35.38,250.004 35.357,250.053C35.333,250.103 35.301,250.146 35.26,250.181L33.842,251.423L32.746,251.423L34.492,249.894L32.746,248.329L33.83,248.329Z" style="fill-rule:nonzero;"/>
            <rect x="57.359" y="249.557" width="2.748" height="0.685" style="fill-rule:nonzero;"/>
            <path d="M61.83,248.329L63.266,249.612C63.305,249.647 63.335,249.689 63.358,249.738C63.381,249.787 63.392,249.839 63.392,249.894C63.392,249.951 63.38,250.004 63.357,250.053C63.333,250.103 63.301,250.146 63.26,250.181L61.842,251.423L60.746,251.423L62.492,249.894L60.746,248.329L61.83,248.329Z" style="fill-rule:nonzero;"/>
            <rect x="85.359" y="249.557" width="2.748" height="0.685" style="fill-rule:nonzero;"/>
            <path d="M89.83,248.329L91.266,249.612C91.305,249.647 91.335,249.689 91.358,249.738C91.381,249.787 91.392,249.839 91.392,249.894C91.392,249.951 91.38,250.004 91.357,250.053C91.333,250.103 91.301,250.146 91.26,250.181L89.842,251.423L88.746,251.423L90.492,249.894L88.746,248.329L89.83,248.329Z" style="fill-rule:nonzero;"/>
        </g>
        <g id="First_Row">
            <path d="M88,184L109.645,184C113.268,184 116.205,186.239 116.205,189L116.205,225C116.205,227.761 113.268,230 109.645,230L88,230L88,184Z" style="fill:#bcbdba;fill-rule:nonzero;"/>
            <path d="M6.073,184L88,184L88,230L6.073,230C3.271,230 1,227.761 1,225L1,189C1,186.239 3.271,184 6.073,184Z" style="fill:#fff;fill-rule:nonzero;"/>
            <path d="M14.357,216.646L75.252,216.462" style="fill:none;fill-rule:nonzero;stroke:#00799a;stroke-width:4px;stroke-linejoin:miter;"/>
            <path d="M99.693,189.734C99.693,190.075 99.634,190.389 99.517,190.676C99.4,190.962 99.237,191.209 99.029,191.418C98.82,191.626 98.574,191.788 98.289,191.904C98.004,192.02 97.693,192.078 97.357,192.078L95.982,192.078C95.646,192.078 95.335,192.02 95.048,191.904C94.762,191.788 94.515,191.626 94.306,191.418C94.098,191.209 93.935,190.962 93.816,190.676C93.697,190.389 93.638,190.075 93.638,189.734L93.638,188.664C93.638,188.325 93.697,188.012 93.816,187.725C93.935,187.437 94.098,187.189 94.306,186.982C94.515,186.775 94.762,186.613 95.048,186.496C95.335,186.379 95.646,186.32 95.982,186.32L97.357,186.32C97.693,186.32 98.004,186.379 98.289,186.496C98.574,186.613 98.82,186.775 99.029,186.982C99.237,187.189 99.4,187.437 99.517,187.725C99.634,188.012 99.693,188.325 99.693,188.664L99.693,189.734ZM98.677,188.664C98.677,188.463 98.645,188.282 98.582,188.119C98.518,187.956 98.428,187.817 98.312,187.701C98.196,187.585 98.057,187.495 97.894,187.432C97.731,187.368 97.552,187.336 97.357,187.336L95.982,187.336C95.784,187.336 95.604,187.368 95.441,187.432C95.278,187.495 95.138,187.585 95.021,187.701C94.904,187.817 94.813,187.956 94.75,188.119C94.686,188.282 94.654,188.463 94.654,188.664L94.654,189.734C94.654,189.935 94.686,190.116 94.75,190.279C94.813,190.442 94.904,190.581 95.021,190.697C95.138,190.813 95.278,190.903 95.441,190.967C95.604,191.03 95.784,191.062 95.982,191.062L97.349,191.062C97.547,191.062 97.727,191.03 97.89,190.967C98.053,190.903 98.193,190.813 98.31,190.697C98.427,190.581 98.518,190.442 98.582,190.279C98.645,190.116 98.677,189.935 98.677,189.734L98.677,188.664Z" style="fill-rule:nonzero;"/>
            <path d="M106.185,191.488C106.185,191.561 106.172,191.629 106.146,191.691C106.12,191.754 106.084,191.808 106.037,191.854C105.99,191.899 105.935,191.935 105.873,191.961C105.81,191.987 105.744,192 105.673,192L103.384,192C103.168,192 102.949,191.977 102.728,191.93C102.507,191.883 102.293,191.81 102.086,191.713C101.879,191.615 101.684,191.491 101.502,191.34C101.319,191.189 101.16,191.01 101.023,190.803C100.886,190.596 100.779,190.359 100.701,190.092C100.623,189.825 100.584,189.527 100.584,189.199L100.584,186.398L101.599,186.398L101.599,189.199C101.599,189.486 101.639,189.728 101.718,189.926C101.797,190.124 101.898,190.289 102.021,190.422C102.144,190.555 102.278,190.659 102.423,190.734C102.569,190.81 102.708,190.866 102.839,190.902C102.971,190.939 103.087,190.962 103.187,190.971C103.287,190.98 103.353,190.984 103.384,190.984L105.17,190.984L105.17,186.398L106.185,186.398L106.185,191.488Z" style="fill-rule:nonzero;"/>
            <path d="M112.427,187.414L110.189,187.414L110.189,192L109.173,192L109.173,187.414L106.931,187.414L106.931,186.398L112.427,186.398L112.427,187.414Z" style="fill-rule:nonzero;"/>
            <path d="M99.718,202L98.703,202L98.703,200.625L95.132,200.625L95.132,202L94.117,202L94.117,199.199C94.117,198.79 94.187,198.414 94.328,198.07C94.469,197.727 94.664,197.431 94.914,197.184C95.164,196.936 95.459,196.743 95.8,196.605C96.141,196.467 96.514,196.398 96.918,196.398L99.207,196.398C99.277,196.398 99.343,196.411 99.406,196.438C99.469,196.464 99.523,196.5 99.57,196.547C99.617,196.594 99.653,196.648 99.679,196.711C99.705,196.774 99.718,196.84 99.718,196.91L99.718,202ZM95.132,199.609L98.703,199.609L98.703,197.414L96.918,197.414C96.887,197.414 96.821,197.419 96.72,197.428C96.62,197.437 96.504,197.459 96.373,197.496C96.241,197.533 96.102,197.589 95.957,197.664C95.811,197.739 95.677,197.844 95.554,197.977C95.432,198.11 95.331,198.276 95.252,198.475C95.172,198.674 95.132,198.915 95.132,199.199L95.132,199.609Z" style="fill-rule:nonzero;"/>
            <path d="M106.043,202L101.41,202C101.337,202 101.269,201.987 101.207,201.961C101.144,201.935 101.09,201.899 101.045,201.854C100.999,201.808 100.963,201.754 100.937,201.691C100.911,201.629 100.898,201.561 100.898,201.488L100.898,196.398L101.914,196.398L101.914,200.984L106.043,200.984L106.043,202Z" style="fill-rule:nonzero;"/>
            <path d="M111.933,202L107.3,202C107.227,202 107.16,201.987 107.097,201.961C107.034,201.935 106.98,201.899 106.935,201.854C106.89,201.808 106.854,201.754 106.828,201.691C106.802,201.629 106.789,201.561 106.789,201.488L106.789,196.398L107.804,196.398L107.804,200.984L111.933,200.984L111.933,202Z" style="fill-rule:nonzero;"/>
            <path d="M74.326,192L70.662,192C70.568,192 70.467,191.989 70.359,191.967C70.251,191.945 70.144,191.91 70.039,191.863C69.934,191.816 69.833,191.756 69.736,191.682C69.64,191.607 69.555,191.517 69.48,191.412C69.406,191.307 69.347,191.184 69.303,191.045C69.258,190.906 69.236,190.749 69.236,190.574L69.236,187.824C69.236,187.731 69.247,187.63 69.269,187.521C69.292,187.413 69.326,187.306 69.373,187.201C69.42,187.096 69.481,186.995 69.557,186.898C69.632,186.802 69.723,186.717 69.828,186.643C69.933,186.568 70.055,186.509 70.193,186.465C70.331,186.42 70.487,186.398 70.662,186.398L74.326,186.398L74.326,187.414L70.662,187.414C70.529,187.414 70.428,187.449 70.357,187.52C70.287,187.59 70.252,187.694 70.252,187.832L70.252,190.574C70.252,190.705 70.288,190.806 70.359,190.877C70.431,190.948 70.532,190.984 70.662,190.984L74.326,190.984L74.326,192Z" style="fill-rule:nonzero;"/>
            <path d="M80.893,186.398L78.24,191.801C78.199,191.884 78.137,191.951 78.055,192.002C77.973,192.053 77.882,192.078 77.783,192.078C77.687,192.078 77.598,192.053 77.516,192.002C77.434,191.951 77.371,191.884 77.326,191.801L74.678,186.398L75.814,186.398L77.783,190.434L79.76,186.398L80.893,186.398Z" style="fill-rule:nonzero;"/>
            <path d="M71.297,200.574C71.297,200.837 71.249,201.059 71.154,201.24C71.059,201.421 70.941,201.569 70.799,201.682C70.657,201.795 70.503,201.877 70.336,201.926C70.169,201.975 70.014,202 69.871,202L66.613,202L66.613,200.984L69.871,200.984C70.009,200.984 70.111,200.949 70.178,200.879C70.244,200.808 70.277,200.707 70.277,200.574L70.277,199.711L66.613,199.711L66.613,198.688L70.277,198.688L70.277,197.832C70.277,197.553 70.142,197.414 69.871,197.414L66.613,197.414L66.613,196.398L69.871,196.398C70.046,196.398 70.202,196.42 70.34,196.465C70.478,196.509 70.6,196.568 70.705,196.643C70.81,196.717 70.901,196.802 70.977,196.898C71.052,196.995 71.113,197.096 71.16,197.201C71.207,197.306 71.241,197.413 71.264,197.521C71.286,197.63 71.297,197.731 71.297,197.824L71.297,200.574Z" style="fill-rule:nonzero;"/>
            <path d="M76.914,200.574L76.457,200.574L76.449,200.586C76.449,200.753 76.428,200.902 76.385,201.035C76.342,201.168 76.285,201.284 76.215,201.385C76.144,201.485 76.062,201.572 75.969,201.645C75.875,201.718 75.778,201.777 75.678,201.822C75.577,201.868 75.476,201.901 75.373,201.922C75.27,201.943 75.173,201.953 75.082,201.953L73.703,201.953C73.461,201.953 73.255,201.907 73.084,201.816C72.913,201.725 72.773,201.612 72.662,201.477C72.551,201.341 72.469,201.194 72.416,201.035C72.363,200.876 72.333,200.729 72.328,200.594L72.328,200.121C72.328,199.915 72.357,199.737 72.416,199.588C72.475,199.438 72.552,199.308 72.648,199.199C72.536,199.058 72.455,198.906 72.404,198.742C72.353,198.578 72.328,198.424 72.328,198.281C72.328,198.028 72.374,197.815 72.465,197.641C72.556,197.466 72.671,197.325 72.809,197.217C72.947,197.109 73.096,197.031 73.256,196.982C73.416,196.934 73.565,196.91 73.703,196.91L75.992,196.91L75.992,197.824L73.703,197.824C73.633,197.824 73.57,197.835 73.514,197.857C73.458,197.88 73.41,197.912 73.369,197.953C73.329,197.995 73.298,198.044 73.277,198.1C73.256,198.156 73.247,198.216 73.25,198.281C73.25,198.43 73.292,198.544 73.375,198.623C73.458,198.702 73.568,198.742 73.703,198.742L75.082,198.742L75.082,199.656L73.703,199.656C73.56,199.656 73.448,199.7 73.369,199.789C73.29,199.878 73.25,199.988 73.25,200.121L73.25,200.559C73.25,200.7 73.292,200.813 73.377,200.9C73.462,200.987 73.57,201.031 73.703,201.031L75.074,201.031C75.217,201.031 75.33,200.988 75.412,200.902C75.494,200.816 75.535,200.707 75.535,200.574C75.535,200.462 75.555,200.351 75.594,200.242C75.633,200.133 75.691,200.034 75.769,199.947C75.848,199.86 75.944,199.789 76.057,199.736C76.17,199.683 76.301,199.656 76.449,199.656L76.914,199.656L76.914,200.574Z" style="fill-rule:nonzero;"/>
            <path d="M82.781,202L81.758,202L81.758,199.711L78.148,199.711C78.075,199.711 78.008,199.697 77.945,199.67C77.883,199.643 77.829,199.606 77.783,199.561C77.738,199.515 77.702,199.461 77.676,199.398C77.65,199.336 77.637,199.27 77.637,199.199L77.637,196.398L78.652,196.398L78.652,198.688L81.758,198.688L81.758,196.398L82.781,196.398L82.781,202Z" style="fill-rule:nonzero;"/>
            <path d="M18.535,192L14.871,192C14.777,192 14.676,191.989 14.568,191.967C14.46,191.945 14.353,191.91 14.248,191.863C14.142,191.816 14.041,191.756 13.945,191.682C13.848,191.607 13.763,191.517 13.689,191.412C13.615,191.307 13.556,191.184 13.511,191.045C13.467,190.906 13.445,190.749 13.445,190.574L13.445,187.824C13.445,187.731 13.456,187.63 13.478,187.521C13.5,187.413 13.535,187.306 13.582,187.201C13.629,187.096 13.69,186.995 13.765,186.898C13.841,186.802 13.932,186.717 14.037,186.643C14.142,186.568 14.264,186.509 14.402,186.465C14.54,186.42 14.696,186.398 14.871,186.398L18.535,186.398L18.535,187.414L14.871,187.414C14.738,187.414 14.637,187.449 14.566,187.52C14.496,187.59 14.461,187.694 14.461,187.832L14.461,190.574C14.461,190.705 14.497,190.806 14.568,190.877C14.639,190.948 14.74,190.984 14.871,190.984L18.535,190.984L18.535,192Z" style="fill-rule:nonzero;"/>
            <path d="M25.101,186.398L22.449,191.801C22.407,191.884 22.345,191.951 22.263,192.002C22.181,192.053 22.091,192.078 21.992,192.078C21.895,192.078 21.806,192.053 21.724,192.002C21.642,191.951 21.579,191.884 21.535,191.801L18.886,186.398L20.023,186.398L21.992,190.434L23.968,186.398L25.101,186.398Z" style="fill-rule:nonzero;"/>
            <path d="M14.056,202L13.037,202L13.037,197.414L12.119,197.414L12.119,196.398L14.056,196.398L14.056,202Z" style="fill-rule:nonzero;"/>
            <path d="M19.748,200.574L19.291,200.574L19.283,200.586C19.283,200.753 19.261,200.902 19.218,201.035C19.175,201.168 19.119,201.284 19.048,201.385C18.978,201.485 18.896,201.572 18.802,201.645C18.709,201.718 18.612,201.777 18.511,201.822C18.411,201.868 18.31,201.901 18.207,201.922C18.104,201.943 18.007,201.953 17.916,201.953L16.537,201.953C16.294,201.953 16.088,201.907 15.918,201.816C15.747,201.725 15.607,201.612 15.496,201.477C15.385,201.341 15.303,201.194 15.25,201.035C15.197,200.876 15.167,200.729 15.162,200.594L15.162,200.121C15.162,199.915 15.191,199.737 15.25,199.588C15.309,199.438 15.386,199.308 15.482,199.199C15.37,199.058 15.289,198.906 15.238,198.742C15.187,198.578 15.162,198.424 15.162,198.281C15.162,198.028 15.207,197.815 15.298,197.641C15.389,197.466 15.504,197.325 15.642,197.217C15.78,197.109 15.929,197.031 16.089,196.982C16.25,196.934 16.399,196.91 16.537,196.91L18.826,196.91L18.826,197.824L16.537,197.824C16.466,197.824 16.403,197.835 16.347,197.857C16.291,197.88 16.243,197.912 16.203,197.953C16.162,197.995 16.132,198.044 16.111,198.1C16.09,198.156 16.081,198.216 16.084,198.281C16.084,198.43 16.126,198.544 16.209,198.623C16.292,198.702 16.402,198.742 16.537,198.742L17.916,198.742L17.916,199.656L16.537,199.656C16.394,199.656 16.282,199.7 16.203,199.789C16.124,199.878 16.084,199.988 16.084,200.121L16.084,200.559C16.084,200.7 16.126,200.813 16.211,200.9C16.296,200.987 16.404,201.031 16.537,201.031L17.908,201.031C18.051,201.031 18.164,200.988 18.246,200.902C18.328,200.816 18.369,200.707 18.369,200.574C18.369,200.462 18.388,200.351 18.427,200.242C18.466,200.133 18.525,200.034 18.603,199.947C18.681,199.86 18.777,199.789 18.89,199.736C19.003,199.683 19.134,199.656 19.283,199.656L19.748,199.656L19.748,200.574Z" style="fill-rule:nonzero;"/>
            <path d="M25.607,202L20.463,202L20.463,200.121C20.463,200.025 20.474,199.923 20.496,199.814C20.518,199.706 20.552,199.599 20.599,199.492C20.646,199.385 20.707,199.284 20.781,199.188C20.855,199.091 20.945,199.006 21.05,198.932C21.156,198.857 21.278,198.798 21.416,198.754C21.554,198.71 21.71,198.688 21.884,198.688L24.173,198.688C24.311,198.688 24.413,198.653 24.48,198.584C24.547,198.515 24.58,198.414 24.58,198.281L24.58,197.832C24.58,197.694 24.546,197.59 24.478,197.52C24.411,197.449 24.312,197.414 24.181,197.414L20.92,197.414L20.92,196.398L24.181,196.398C24.353,196.398 24.508,196.42 24.646,196.465C24.784,196.509 24.906,196.568 25.011,196.643C25.117,196.717 25.208,196.802 25.283,196.898C25.358,196.995 25.42,197.096 25.468,197.201C25.517,197.306 25.552,197.413 25.574,197.521C25.596,197.63 25.607,197.731 25.607,197.824L25.607,198.281C25.607,198.544 25.559,198.766 25.464,198.947C25.369,199.128 25.25,199.276 25.107,199.389C24.964,199.502 24.809,199.584 24.644,199.635C24.479,199.686 24.324,199.711 24.181,199.711L21.884,199.711C21.801,199.711 21.734,199.723 21.685,199.746C21.636,199.769 21.597,199.801 21.57,199.84C21.543,199.879 21.522,199.923 21.509,199.973C21.496,200.022 21.486,200.072 21.478,200.121L21.478,200.984L25.607,200.984L25.607,202Z" style="fill-rule:nonzero;"/>
            <rect x="44.045" y="206.703" width="2.748" height="0.685" style="fill-rule:nonzero;"/>
            <path d="M48.515,205.475L49.951,206.758C49.99,206.793 50.02,206.835 50.043,206.884C50.066,206.933 50.077,206.985 50.077,207.04C50.077,207.097 50.065,207.15 50.042,207.199C50.018,207.249 49.986,207.292 49.945,207.327L48.527,208.569L47.431,208.569L49.177,207.04L47.431,205.475L48.515,205.475Z" style="fill-rule:nonzero;"/>
        </g>
        <g id="circle868">
            <path d="M30.5,216.5C30.5,223.127 25.127,228.5 18.5,228.5C11.873,228.5 6.5,223.127 6.5,216.5C6.5,209.873 11.873,204.5 18.5,204.5C25.127,204.5 30.5,209.873 30.5,216.5Z" style="fill:#fff;fill-rule:nonzero;"/>
            <path d="M30.5,216.5C30.5,223.127 25.127,228.5 18.5,228.5C11.873,228.5 6.5,223.127 6.5,216.5C6.5,209.873 11.873,204.5 18.5,204.5C25.127,204.5 30.5,209.873 30.5,216.5Z" style="fill-opacity:0;fill-rule:nonzero;stroke:#000;stroke-width:0.25px;stroke-linecap:butt;stroke-linejoin:miter;"/>
        </g>
        <g id="circle8681" serif:id="circle868">
            <path d="M86.5,216.5C86.5,223.127 81.127,228.5 74.5,228.5C67.873,228.5 62.5,223.127 62.5,216.5C62.5,209.873 67.873,204.5 74.5,204.5C81.127,204.5 86.5,209.873 86.5,216.5Z" style="fill:#fff;fill-rule:nonzero;"/>
            <path d="M86.5,216.5C86.5,223.127 81.127,228.5 74.5,228.5C67.873,228.5 62.5,223.127 62.5,216.5C62.5,209.873 67.873,204.5 74.5,204.5C81.127,204.5 86.5,209.873 86.5,216.5Z" style="fill-opacity:0;fill-rule:nonzero;stroke:#000;stroke-width:0.25px;stroke-linecap:butt;stroke-linejoin:miter;"/>
        </g>
        <g id="circle8682" serif:id="circle868">
            <path d="M114.5,216.5C114.5,223.127 109.127,228.5 102.5,228.5C95.873,228.5 90.5,223.127 90.5,216.5C90.5,209.873 95.873,204.5 102.5,204.5C109.127,204.5 114.5,209.873 114.5,216.5Z" style="fill:#fff;fill-rule:nonzero;"/>
            <path d="M114.5,216.5C114.5,223.127 109.127,228.5 102.5,228.5C95.873,228.5 90.5,223.127 90.5,216.5C90.5,209.873 95.873,204.5 102.5,204.5C109.127,204.5 114.5,209.873 114.5,216.5Z" style="fill-opacity:0;fill-rule:nonzero;stroke:#000;stroke-width:0.25px;stroke-linecap:butt;stroke-linejoin:miter;"/>
        </g>
        <g id="circle8683" serif:id="circle868">
            <path d="M30.5,261.5C30.5,268.128 25.127,273.5 18.5,273.5C11.873,273.5 6.5,268.128 6.5,261.5C6.5,254.873 11.873,249.5 18.5,249.5C25.127,249.5 30.5,254.873 30.5,261.5Z" style="fill:#fff;fill-rule:nonzero;"/>
            <path d="M30.5,261.5C30.5,268.128 25.127,273.5 18.5,273.5C11.873,273.5 6.5,268.128 6.5,261.5C6.5,254.873 11.873,249.5 18.5,249.5C25.127,249.5 30.5,254.873 30.5,261.5Z" style="fill-opacity:0;fill-rule:nonzero;stroke:#000;stroke-width:0.25px;stroke-linecap:butt;stroke-linejoin:miter;"/>
        </g>
        <g id="circle8684" serif:id="circle868">
            <path d="M86.5,261.5C86.5,268.128 81.127,273.5 74.5,273.5C67.873,273.5 62.5,268.128 62.5,261.5C62.5,254.873 67.873,249.5 74.5,249.5C81.127,249.5 86.5,254.873 86.5,261.5Z" style="fill:#fff;fill-rule:nonzero;"/>
            <path d="M86.5,261.5C86.5,268.128 81.127,273.5 74.5,273.5C67.873,273.5 62.5,268.128 62.5,261.5C62.5,254.873 67.873,249.5 74.5,249.5C81.127,249.5 86.5,254.873 86.5,261.5Z" style="fill-opacity:0;fill-rule:nonzero;stroke:#000;stroke-width:0.25px;stroke-linecap:butt;stroke-linejoin:miter;"/>
        </g>
        <g id="circle8685" serif:id="circle868">
            <path d="M58.5,261.5C58.5,268.128 53.127,273.5 46.5,273.5C39.873,273.5 34.5,268.128 34.5,261.5C34.5,254.873 39.873,249.5 46.5,249.5C53.127,249.5 58.5,254.873 58.5,261.5Z" style="fill:#fff;fill-rule:nonzero;"/>
            <path d="M58.5,261.5C58.5,268.128 53.127,273.5 46.5,273.5C39.873,273.5 34.5,268.128 34.5,261.5C34.5,254.873 39.873,249.5 46.5,249.5C53.127,249.5 58.5,254.873 58.5,261.5Z" style="fill-opacity:0;fill-rule:nonzero;stroke:#000;stroke-width:0.25px;stroke-linecap:butt;stroke-linejoin:miter;"/>
        </g>
        <g id="circle8686" serif:id="circle868">
            <path d="M114.5,261.5C114.5,268.128 109.127,273.5 102.5,273.5C95.873,273.5 90.5,268.128 90.5,261.5C90.5,254.873 95.873,249.5 102.5,249.5C109.127,249.5 114.5,254.873 114.5,261.5Z" style="fill:#fff;fill-rule:nonzero;"/>
            <path d="M114.5,261.5C114.5,268.128 109.127,273.5 102.5,273.5C95.873,273.5 90.5,268.128 90.5,261.5C90.5,254.873 95.873,249.5 102.5,249.5C109.127,249.5 114.5,254.873 114.5,261.5Z" style="fill-opacity:0;fill-rule:nonzero;stroke:#000;stroke-width:0.25px;stroke-linecap:butt;stroke-linejoin:miter;"/>
        </g>
        <g id="circle8687" serif:id="circle868">
            <path d="M30.5,307.5C30.5,314.128 25.127,319.5 18.5,319.5C11.873,319.5 6.5,314.128 6.5,307.5C6.5,300.872 11.873,295.5 18.5,295.5C25.127,295.5 30.5,300.872 30.5,307.5Z" style="fill:#fff;fill-rule:nonzero;"/>
            <path d="M30.5,307.5C30.5,314.128 25.127,319.5 18.5,319.5C11.873,319.5 6.5,314.128 6.5,307.5C6.5,300.872 11.873,295.5 18.5,295.5C25.127,295.5 30.5,300.872 30.5,307.5Z" style="fill-opacity:0;fill-rule:nonzero;stroke:#000;stroke-width:0.25px;stroke-linecap:butt;stroke-linejoin:miter;"/>
        </g>
        <g id="circle8688" serif:id="circle868">
            <path d="M86.5,307.5C86.5,314.128 81.127,319.5 74.5,319.5C67.873,319.5 62.5,314.128 62.5,307.5C62.5,300.872 67.873,295.5 74.5,295.5C81.127,295.5 86.5,300.872 86.5,307.5Z" style="fill:#fff;fill-rule:nonzero;"/>
            <path d="M86.5,307.5C86.5,314.128 81.127,319.5 74.5,319.5C67.873,319.5 62.5,314.128 62.5,307.5C62.5,300.872 67.873,295.5 74.5,295.5C81.127,295.5 86.5,300.872 86.5,307.5Z" style="fill-opacity:0;fill-rule:nonzero;stroke:#000;stroke-width:0.25px;stroke-linecap:butt;stroke-linejoin:miter;"/>
        </g>
        <g id="circle8689" serif:id="circle868">
            <path d="M58.5,307.5C58.5,314.128 53.127,319.5 46.5,319.5C39.873,319.5 34.5,314.128 34.5,307.5C34.5,300.872 39.873,295.5 46.5,295.5C53.127,295.5 58.5,300.872 58.5,307.5Z" style="fill:#fff;fill-rule:nonzero;"/>
            <path d="M58.5,307.5C58.5,314.128 53.127,319.5 46.5,319.5C39.873,319.5 34.5,314.128 34.5,307.5C34.5,300.872 39.873,295.5 46.5,295.5C53.127,295.5 58.5,300.872 58.5,307.5Z" style="fill-opacity:0;fill-rule:nonzero;stroke:#000;stroke-width:0.25px;stroke-linecap:butt;stroke-linejoin:miter;"/>
        </g>
        <g id="circle86810" serif:id="circle868">
            <path d="M114.5,307.5C114.5,314.128 109.127,319.5 102.5,319.5C95.873,319.5 90.5,314.128 90.5,307.5C90.5,300.872 95.873,295.5 102.5,295.5C109.127,295.5 114.5,300.872 114.5,307.5Z" style="fill:#fff;fill-rule:nonzero;"/>
            <path d="M114.5,307.5C114.5,314.128 109.127,319.5 102.5,319.5C95.873,319.5 90.5,314.128 90.5,307.5C90.5,300.872 95.873,295.5 102.5,295.5C109.127,295.5 114.5,300.872 114.5,307.5Z" style="fill-opacity:0;fill-rule:nonzero;stroke:#000;stroke-width:0.25px;stroke-linecap:butt;stroke-linejoin:miter;"/>
        </g>
        <path d="M55.298,365.35C55.298,365.459 55.277,365.561 55.236,365.654C55.195,365.748 55.141,365.829 55.072,365.897C55.004,365.966 54.923,366.02 54.829,366.059C54.735,366.098 54.635,366.117 54.53,366.117C54.437,366.117 54.342,366.099 54.246,366.064C54.151,366.029 54.066,365.973 53.991,365.895L48.425,360.082L48.425,366L46.901,366L46.901,358.248C46.901,358.092 46.945,357.95 47.033,357.823C47.121,357.696 47.233,357.602 47.37,357.539C47.515,357.48 47.663,357.466 47.815,357.495C47.968,357.524 48.099,357.596 48.208,357.709L53.774,363.516L53.774,357.598L55.298,357.598L55.298,365.35Z" style="fill-rule:nonzero;"/>
        <path d="M64.784,366L57.835,366C57.726,366 57.624,365.98 57.53,365.941C57.437,365.902 57.356,365.849 57.287,365.78C57.219,365.712 57.165,365.631 57.126,365.537C57.087,365.443 57.067,365.341 57.067,365.232L57.067,357.598L58.591,357.598L58.591,364.477L64.784,364.477L64.784,366Z" style="fill-rule:nonzero;"/>
        <path d="M73.427,366L67.931,366C67.79,366 67.639,365.983 67.477,365.95C67.314,365.917 67.154,365.865 66.996,365.795C66.838,365.724 66.687,365.633 66.542,365.522C66.397,365.411 66.269,365.276 66.158,365.118C66.047,364.96 65.958,364.776 65.892,364.567C65.825,364.358 65.792,364.123 65.792,363.861L65.792,359.736C65.792,359.595 65.809,359.444 65.842,359.282C65.875,359.12 65.927,358.96 65.997,358.802C66.068,358.643 66.159,358.492 66.272,358.348C66.385,358.203 66.521,358.075 66.68,357.964C66.838,357.853 67.021,357.764 67.228,357.697C67.435,357.631 67.669,357.598 67.931,357.598L73.427,357.598L73.427,359.121L67.931,359.121C67.732,359.121 67.579,359.174 67.474,359.279C67.368,359.385 67.315,359.541 67.315,359.748L67.315,363.861C67.315,364.056 67.369,364.208 67.477,364.315C67.584,364.423 67.736,364.477 67.931,364.477L73.427,364.477L73.427,366Z" style="fill-rule:nonzero;"/>
        <path d="M77.5,358.5L114.5,358.5" style="fill:none;fill-rule:nonzero;stroke:#007ba9;stroke-width:1px;stroke-linejoin:miter;"/>
        <path d="M6.5,358.5L43.5,358.5" style="fill:none;fill-rule:nonzero;stroke:#00799a;stroke-width:1px;stroke-linejoin:miter;"/>
        <path d="M91.5,21.5L114.5,21.5" style="fill:none;fill-rule:nonzero;stroke:#00799a;stroke-width:1px;stroke-linejoin:miter;"/>
        <path d="M6.5,21.5L29.5,21.5" style="fill:none;fill-rule:nonzero;stroke:#00799a;stroke-width:1px;stroke-linejoin:miter;"/>
        <path d="M33.293,30.602L32.273,30.602L32.273,26.016L31.355,26.016L31.355,25L33.293,25L33.293,30.602Z" style="fill-rule:nonzero;"/>
        <path d="M40.77,27.395L38.996,27.395L38.996,30.602L37.969,30.602L37.969,27.395L36.648,27.395L36.648,26.379L37.969,26.379L37.969,25L38.996,25L38.996,26.379L40.77,26.379L40.77,27.395Z" style="fill-rule:nonzero;"/>
        <path d="M46.016,29.176C46.016,29.351 45.994,29.508 45.949,29.647C45.905,29.786 45.846,29.909 45.773,30.014C45.7,30.119 45.616,30.209 45.52,30.284C45.423,30.358 45.322,30.418 45.217,30.465C45.112,30.512 45.005,30.547 44.896,30.569C44.788,30.591 44.686,30.602 44.59,30.602L42.758,30.602C42.617,30.602 42.464,30.577 42.297,30.528C42.13,30.479 41.976,30.397 41.834,30.284C41.692,30.171 41.574,30.023 41.479,29.842C41.384,29.661 41.336,29.439 41.336,29.176L41.336,27.801C41.336,27.541 41.384,27.32 41.479,27.139C41.574,26.958 41.692,26.811 41.834,26.698C41.976,26.585 42.13,26.503 42.297,26.454C42.464,26.404 42.617,26.379 42.758,26.379L44.59,26.379C44.85,26.379 45.071,26.426 45.254,26.52C45.436,26.614 45.583,26.732 45.695,26.873C45.807,27.015 45.888,27.169 45.939,27.336C45.99,27.503 46.016,27.658 46.016,27.801L46.016,29.176ZM45,27.809C45,27.668 44.965,27.564 44.895,27.497C44.824,27.429 44.723,27.395 44.59,27.395L42.766,27.395C42.63,27.395 42.527,27.429 42.457,27.498C42.387,27.567 42.352,27.668 42.352,27.801L42.352,29.176C42.352,29.309 42.387,29.41 42.457,29.481C42.527,29.551 42.63,29.586 42.766,29.586L44.59,29.586C44.728,29.586 44.831,29.551 44.898,29.481C44.966,29.41 45,29.309 45,29.176L45,27.809Z" style="fill-rule:nonzero;"/>
        <path d="M54.57,30.602L53.547,30.602L53.547,28.313L49.938,28.313C49.865,28.313 49.797,28.299 49.734,28.272C49.672,28.245 49.618,28.208 49.572,28.163C49.527,28.117 49.491,28.063 49.465,28C49.439,27.938 49.426,27.872 49.426,27.801L49.426,25L50.441,25L50.441,27.29L53.547,27.29L53.547,25L54.57,25L54.57,30.602Z" style="fill-rule:nonzero;"/>
        <path d="M63.98,26.883C63.98,27.115 63.952,27.322 63.895,27.504C63.838,27.687 63.76,27.848 63.662,27.987C63.565,28.126 63.452,28.245 63.324,28.344C63.197,28.443 63.063,28.525 62.924,28.588C62.785,28.652 62.644,28.698 62.502,28.727C62.36,28.756 62.227,28.77 62.102,28.77L64.223,30.602L62.652,30.602L60.535,28.77L59.805,28.77L59.805,27.754L62.102,27.754C62.229,27.744 62.346,27.717 62.451,27.674C62.556,27.631 62.648,27.573 62.725,27.5C62.802,27.427 62.861,27.34 62.902,27.237C62.944,27.134 62.965,27.016 62.965,26.883L62.965,26.243C62.965,26.186 62.958,26.142 62.943,26.112C62.929,26.082 62.911,26.06 62.889,26.045C62.866,26.031 62.843,26.023 62.818,26.02C62.793,26.017 62.771,26.016 62.75,26.016L59.398,26.016L59.398,30.602L58.383,30.602L58.383,25.512C58.383,25.442 58.396,25.376 58.422,25.313C58.448,25.25 58.484,25.196 58.529,25.149C58.575,25.102 58.629,25.066 58.691,25.04C58.754,25.013 58.822,25 58.895,25L62.75,25C62.977,25 63.168,25.041 63.324,25.123C63.481,25.206 63.608,25.309 63.705,25.432C63.803,25.556 63.873,25.689 63.916,25.832C63.959,25.975 63.98,26.11 63.98,26.235L63.98,26.883Z" style="fill-rule:nonzero;"/>
        <path d="M69.438,29.176C69.438,29.351 69.416,29.508 69.371,29.647C69.327,29.786 69.268,29.909 69.195,30.014C69.122,30.119 69.038,30.209 68.941,30.284C68.845,30.358 68.744,30.418 68.639,30.465C68.533,30.512 68.426,30.547 68.318,30.569C68.21,30.591 68.108,30.602 68.012,30.602L66.18,30.602C66.039,30.602 65.886,30.577 65.719,30.528C65.552,30.479 65.398,30.397 65.256,30.284C65.114,30.171 64.995,30.023 64.9,29.842C64.805,29.661 64.758,29.439 64.758,29.176L64.758,27.801C64.758,27.541 64.805,27.32 64.9,27.139C64.995,26.958 65.114,26.811 65.256,26.698C65.398,26.585 65.552,26.503 65.719,26.454C65.886,26.404 66.039,26.379 66.18,26.379L68.012,26.379C68.272,26.379 68.493,26.426 68.676,26.52C68.858,26.614 69.005,26.732 69.117,26.873C69.229,27.015 69.31,27.169 69.361,27.336C69.412,27.503 69.438,27.658 69.438,27.801L69.438,29.176ZM68.422,27.809C68.422,27.668 68.387,27.564 68.316,27.497C68.246,27.429 68.145,27.395 68.012,27.395L66.188,27.395C66.052,27.395 65.949,27.429 65.879,27.498C65.808,27.567 65.773,27.668 65.773,27.801L65.773,29.176C65.773,29.309 65.808,29.41 65.879,29.481C65.949,29.551 66.052,29.586 66.188,29.586L68.012,29.586C68.15,29.586 68.253,29.551 68.32,29.481C68.388,29.41 68.422,29.309 68.422,29.176L68.422,27.809Z" style="fill-rule:nonzero;"/>
        <path d="M74.918,30.09C74.918,30.163 74.905,30.231 74.879,30.293C74.853,30.356 74.817,30.41 74.771,30.456C74.726,30.501 74.672,30.537 74.611,30.563C74.55,30.589 74.485,30.602 74.414,30.602L72.117,30.602C71.992,30.602 71.859,30.588 71.717,30.559C71.575,30.53 71.435,30.484 71.297,30.42C71.159,30.357 71.025,30.276 70.896,30.178C70.767,30.081 70.655,29.962 70.559,29.823C70.462,29.684 70.385,29.523 70.326,29.34C70.267,29.158 70.238,28.952 70.238,28.723L70.238,26.379L71.254,26.379L71.254,28.723C71.254,28.856 71.277,28.975 71.322,29.081C71.368,29.186 71.43,29.277 71.508,29.352C71.586,29.427 71.678,29.485 71.783,29.526C71.888,29.566 72.002,29.586 72.125,29.586L73.902,29.586L73.902,26.379L74.918,26.379L74.918,30.09Z" style="fill-rule:nonzero;"/>
        <path d="M80.156,27.395L78.383,27.395L78.383,30.602L77.355,30.602L77.355,27.395L76.035,27.395L76.035,26.379L77.355,26.379L77.355,25L78.383,25L78.383,26.379L80.156,26.379L80.156,27.395Z" style="fill-rule:nonzero;"/>
        <path d="M85.122,27.778C85.122,27.919 85.097,28.07 85.047,28.233C84.998,28.396 84.918,28.547 84.807,28.686C84.696,28.825 84.552,28.942 84.374,29.036C84.195,29.129 83.978,29.176 83.723,29.176L81.891,29.176L81.891,28.211L83.723,28.211C83.861,28.211 83.968,28.169 84.043,28.084C84.119,27.999 84.157,27.895 84.157,27.77C84.157,27.637 84.115,27.533 84.03,27.457C83.945,27.382 83.843,27.344 83.723,27.344L81.891,27.344C81.753,27.344 81.646,27.386 81.571,27.471C81.496,27.556 81.458,27.661 81.458,27.786L81.458,29.204C81.458,29.339 81.5,29.445 81.584,29.52C81.669,29.595 81.774,29.633 81.899,29.633L83.723,29.633L83.723,30.602L81.891,30.602C81.75,30.602 81.599,30.577 81.436,30.528C81.273,30.479 81.122,30.399 80.983,30.288C80.844,30.177 80.727,30.033 80.633,29.854C80.54,29.675 80.493,29.459 80.493,29.204L80.493,27.778C80.493,27.637 80.518,27.486 80.567,27.323C80.616,27.16 80.696,27.009 80.807,26.87C80.918,26.731 81.062,26.614 81.241,26.52C81.419,26.426 81.636,26.379 81.891,26.379L83.723,26.379C83.864,26.379 84.015,26.404 84.178,26.454C84.341,26.503 84.492,26.583 84.631,26.694C84.77,26.805 84.887,26.949 84.981,27.127C85.075,27.306 85.122,27.523 85.122,27.778Z" style="fill-rule:nonzero;"/>
        <path d="M89.5,27.395L87.215,27.395C87.077,27.395 86.973,27.429 86.903,27.498C86.832,27.567 86.797,27.668 86.797,27.801L86.797,30.602L85.782,30.602L85.782,27.801C85.782,27.627 85.804,27.471 85.848,27.332C85.893,27.194 85.952,27.072 86.026,26.967C86.1,26.862 86.185,26.772 86.282,26.698C86.378,26.623 86.479,26.563 86.584,26.516C86.69,26.469 86.797,26.435 86.905,26.413C87.013,26.39 87.114,26.379 87.208,26.379L89.5,26.379L89.5,27.395Z" style="fill-rule:nonzero;"/>
        <path d="M40.304,15.422C40.304,15.769 40.261,16.08 40.175,16.354C40.089,16.627 39.973,16.868 39.826,17.077C39.679,17.286 39.51,17.465 39.319,17.613C39.128,17.762 38.928,17.884 38.719,17.979C38.51,18.075 38.299,18.144 38.086,18.187C37.873,18.23 37.673,18.252 37.485,18.252L40.667,21L38.312,21L35.136,18.252L34.04,18.252L34.04,16.729L37.485,16.729C37.676,16.713 37.851,16.673 38.01,16.608C38.168,16.544 38.305,16.457 38.42,16.348C38.535,16.239 38.624,16.107 38.687,15.952C38.749,15.798 38.78,15.621 38.78,15.422L38.78,14.461C38.78,14.375 38.769,14.31 38.748,14.265C38.727,14.22 38.699,14.186 38.666,14.165C38.633,14.144 38.598,14.131 38.561,14.127C38.524,14.123 38.489,14.121 38.458,14.121L33.431,14.121L33.431,21L31.907,21L31.907,13.365C31.907,13.26 31.927,13.16 31.966,13.066C32.005,12.973 32.058,12.891 32.127,12.82C32.195,12.75 32.276,12.695 32.37,12.656C32.464,12.617 32.566,12.598 32.675,12.598L38.458,12.598C38.798,12.598 39.085,12.659 39.319,12.782C39.554,12.905 39.744,13.06 39.891,13.245C40.037,13.43 40.142,13.631 40.207,13.846C40.272,14.061 40.304,14.262 40.304,14.449L40.304,15.422Z" style="fill-rule:nonzero;"/>
        <path d="M50.651,17.602C50.651,18.113 50.563,18.584 50.388,19.014C50.212,19.443 49.968,19.814 49.655,20.127C49.343,20.44 48.973,20.683 48.545,20.856C48.117,21.03 47.651,21.117 47.147,21.117L45.085,21.117C44.581,21.117 44.114,21.03 43.685,20.856C43.255,20.683 42.884,20.44 42.571,20.127C42.259,19.814 42.014,19.443 41.836,19.014C41.658,18.584 41.569,18.113 41.569,17.602L41.569,15.996C41.569,15.488 41.658,15.018 41.836,14.587C42.014,14.155 42.259,13.784 42.571,13.474C42.884,13.163 43.255,12.92 43.685,12.744C44.114,12.568 44.581,12.48 45.085,12.48L47.147,12.48C47.651,12.48 48.117,12.568 48.545,12.744C48.973,12.92 49.343,13.163 49.655,13.474C49.968,13.784 50.212,14.155 50.388,14.587C50.563,15.018 50.651,15.488 50.651,15.996L50.651,17.602ZM49.128,15.996C49.128,15.695 49.08,15.423 48.984,15.179C48.889,14.934 48.754,14.725 48.58,14.552C48.406,14.378 48.197,14.243 47.953,14.147C47.709,14.052 47.44,14.004 47.147,14.004L45.085,14.004C44.788,14.004 44.518,14.052 44.273,14.147C44.029,14.243 43.819,14.378 43.644,14.552C43.468,14.725 43.332,14.934 43.236,15.179C43.141,15.423 43.093,15.695 43.093,15.996L43.093,17.602C43.093,17.903 43.141,18.175 43.236,18.419C43.332,18.663 43.468,18.872 43.644,19.046C43.819,19.22 44.029,19.355 44.273,19.45C44.518,19.546 44.788,19.594 45.085,19.594L47.136,19.594C47.433,19.594 47.703,19.546 47.947,19.45C48.191,19.355 48.401,19.22 48.577,19.046C48.753,18.872 48.889,18.663 48.984,18.419C49.08,18.175 49.128,17.903 49.128,17.602L49.128,15.996Z" style="fill-rule:nonzero;"/>
        <path d="M60.39,20.232C60.39,20.341 60.37,20.443 60.331,20.537C60.292,20.631 60.237,20.712 60.167,20.78C60.097,20.849 60.015,20.902 59.921,20.941C59.827,20.98 59.727,21 59.622,21L56.188,21C55.864,21 55.536,20.965 55.204,20.895C54.872,20.824 54.551,20.716 54.24,20.569C53.929,20.423 53.637,20.237 53.364,20.01C53.091,19.783 52.851,19.515 52.646,19.204C52.441,18.893 52.28,18.538 52.163,18.138C52.046,17.737 51.987,17.291 51.987,16.799L51.987,12.598L53.511,12.598L53.511,16.799C53.511,17.228 53.57,17.592 53.689,17.889C53.808,18.186 53.96,18.434 54.144,18.633C54.327,18.832 54.528,18.989 54.747,19.102C54.966,19.215 55.174,19.299 55.371,19.354C55.568,19.409 55.742,19.443 55.893,19.456C56.043,19.47 56.141,19.477 56.188,19.477L58.866,19.477L58.866,12.598L60.39,12.598L60.39,20.232Z" style="fill-rule:nonzero;"/>
        <path d="M69.753,14.121L66.396,14.121L66.396,21L64.872,21L64.872,14.121L61.509,14.121L61.509,12.598L69.753,12.598L69.753,14.121Z" style="fill-rule:nonzero;"/>
        <path d="M77.78,17.566L72.97,17.566L72.97,16.031L77.78,16.031L77.78,17.566ZM78.466,21L72.97,21C72.759,21 72.528,20.963 72.278,20.889C72.028,20.814 71.797,20.692 71.584,20.522C71.371,20.353 71.194,20.132 71.051,19.86C70.908,19.589 70.837,19.256 70.837,18.861L70.837,13.365C70.837,13.26 70.857,13.16 70.896,13.066C70.935,12.973 70.988,12.891 71.057,12.82C71.125,12.75 71.206,12.695 71.3,12.656C71.393,12.617 71.495,12.598 71.604,12.598L78.466,12.598L78.466,14.121L72.36,14.121L72.36,18.861C72.36,19.06 72.413,19.213 72.519,19.318C72.624,19.424 72.778,19.477 72.981,19.477L78.466,19.477L78.466,21Z" style="fill-rule:nonzero;"/>
        <path d="M88.333,15.422C88.333,15.769 88.29,16.08 88.204,16.354C88.118,16.627 88.002,16.868 87.855,17.077C87.709,17.286 87.54,17.465 87.349,17.613C87.158,17.762 86.957,17.884 86.748,17.979C86.539,18.075 86.328,18.144 86.115,18.187C85.902,18.23 85.702,18.252 85.515,18.252L88.696,21L86.341,21L83.165,18.252L82.069,18.252L82.069,16.729L85.515,16.729C85.706,16.713 85.881,16.673 86.039,16.608C86.197,16.544 86.334,16.457 86.449,16.348C86.564,16.239 86.653,16.107 86.716,15.952C86.779,15.798 86.81,15.621 86.81,15.422L86.81,14.461C86.81,14.375 86.799,14.31 86.777,14.265C86.756,14.22 86.728,14.186 86.695,14.165C86.662,14.144 86.627,14.131 86.59,14.127C86.553,14.123 86.518,14.121 86.487,14.121L81.46,14.121L81.46,21L79.937,21L79.937,13.365C79.937,13.26 79.956,13.16 79.995,13.066C80.034,12.973 80.088,12.891 80.156,12.82C80.225,12.75 80.306,12.695 80.399,12.656C80.493,12.617 80.595,12.598 80.704,12.598L86.487,12.598C86.827,12.598 87.114,12.659 87.349,12.782C87.583,12.905 87.773,13.06 87.92,13.245C88.067,13.43 88.172,13.631 88.236,13.846C88.301,14.061 88.333,14.262 88.333,14.449L88.333,15.422Z" style="fill-rule:nonzero;"/>
        <g>
            <path d="M110.5,144.5C110.5,155.546 101.546,164.5 90.5,164.5C79.454,164.5 70.5,155.546 70.5,144.5C70.5,133.454 79.454,124.5 90.5,124.5C101.546,124.5 110.5,133.454 110.5,144.5Z" style="fill:#fff;fill-rule:nonzero;"/>
            <path d="M110.5,144.5C110.5,155.546 101.546,164.5 90.5,164.5C79.454,164.5 70.5,155.546 70.5,144.5C70.5,133.454 79.454,124.5 90.5,124.5C101.546,124.5 110.5,133.454 110.5,144.5Z" style="fill-opacity:0;fill-rule:nonzero;stroke:#000;stroke-width:1px;stroke-linecap:butt;stroke-linejoin:miter;"/>
        </g>
        <g>
            <path d="M50.5,121.5C50.5,132.546 41.546,141.5 30.5,141.5C19.454,141.5 10.5,132.546 10.5,121.5C10.5,110.454 19.454,101.5 30.5,101.5C41.546,101.5 50.5,110.454 50.5,121.5Z" style="fill:#fff;fill-rule:nonzero;"/>
            <path d="M50.5,121.5C50.5,132.546 41.546,141.5 30.5,141.5C19.454,141.5 10.5,132.546 10.5,121.5C10.5,110.454 19.454,101.5 30.5,101.5C41.546,101.5 50.5,110.454 50.5,121.5Z" style="fill-opacity:0;fill-rule:nonzero;stroke:#000;stroke-width:1px;stroke-linecap:butt;stroke-linejoin:miter;"/>
        </g>
        <g>
            <path d="M110.5,92.5C110.5,103.546 101.546,112.5 90.5,112.5C79.454,112.5 70.5,103.546 70.5,92.5C70.5,81.454 79.454,72.5 90.5,72.5C101.546,72.5 110.5,81.454 110.5,92.5Z" style="fill:#fff;fill-rule:nonzero;"/>
            <path d="M110.5,92.5C110.5,103.546 101.546,112.5 90.5,112.5C79.454,112.5 70.5,103.546 70.5,92.5C70.5,81.454 79.454,72.5 90.5,72.5C101.546,72.5 110.5,81.454 110.5,92.5Z" style="fill-opacity:0;fill-rule:nonzero;stroke:#000;stroke-width:1px;stroke-linecap:butt;stroke-linejoin:miter;"/>
        </g>
        <g>
            <path d="M50.5,69.5C50.5,80.546 41.546,89.5 30.5,89.5C19.454,89.5 10.5,80.546 10.5,69.5C10.5,58.454 19.454,49.5 30.5,49.5C41.546,49.5 50.5,58.454 50.5,69.5Z" style="fill:#fff;fill-rule:nonzero;"/>
            <path d="M50.5,69.5C50.5,80.546 41.546,89.5 30.5,89.5C19.454,89.5 10.5,80.546 10.5,69.5C10.5,58.454 19.454,49.5 30.5,49.5C41.546,49.5 50.5,58.454 50.5,69.5Z" style="fill-opacity:0;fill-rule:nonzero;stroke:#000;stroke-width:1px;stroke-linecap:butt;stroke-linejoin:miter;"/>
        </g>
    </g>
</svg>
