<?xml version="1.0" encoding="UTF-8" standalone="no"?>
<!DOCTYPE svg PUBLIC "-//W3C//DTD SVG 1.1//EN" "http://www.w3.org/Graphics/SVG/1.1/DTD/svg11.dtd">
<svg width="100%" height="100%" viewBox="0 0 120 380" version="1.1" xmlns="http://www.w3.org/2000/svg" xmlns:xlink="http://www.w3.org/1999/xlink" xml:space="preserve" xmlns:serif="http://www.serif.com/" style="fill-rule:evenodd;clip-rule:evenodd;stroke-linecap:round;">
    <g id="STATUES">
        <rect x="0" y="0" width="120" height="380" style="fill:#e6e6e6;fill-rule:nonzero;"/>
        <path d="M8.739,193L111.261,193C113.878,193 116,195.267 116,198.061L116,311.439C116,314.233 113.878,316.5 111.261,316.5L8.739,316.5C6.122,316.5 4,314.233 4,311.439L4,198.061C4,195.267 6.122,193 8.739,193Z" style="fill:#bcbdba;fill-rule:nonzero;"/>
        <g id="Third_Row">
            <path d="M18.5,283.898L18.5,309.898" style="fill:none;fill-rule:nonzero;stroke:#007a9f;stroke-width:2px;"/>
            <path d="M46.5,283.898L46.5,309.898" style="fill:none;fill-rule:nonzero;stroke:#007a9f;stroke-width:2px;"/>
            <path d="M74.5,283.898L74.5,309.898" style="fill:none;fill-rule:nonzero;stroke:#007a9f;stroke-width:2px;"/>
            <path d="M102.5,283.898L102.5,309.898" style="fill:none;fill-rule:nonzero;stroke:#007a9f;stroke-width:2px;"/>
            <path d="M13.775,283.898L109.901,283.898" style="fill:none;fill-rule:nonzero;stroke:#00799a;stroke-width:4px;"/>
            <path d="M107.574,263.973C107.574,264.069 107.563,264.17 107.541,264.277C107.519,264.384 107.484,264.491 107.436,264.596C107.387,264.701 107.325,264.802 107.25,264.898C107.175,264.995 107.084,265.08 106.979,265.154C106.873,265.229 106.751,265.288 106.613,265.332C106.475,265.376 106.32,265.398 106.148,265.398L103.852,265.398C103.711,265.398 103.558,265.373 103.391,265.324C103.224,265.275 103.07,265.193 102.928,265.08C102.786,264.967 102.667,264.82 102.572,264.639C102.477,264.458 102.43,264.236 102.43,263.973L102.43,263.52C102.43,263.421 102.441,263.316 102.463,263.207C102.485,263.098 102.52,262.99 102.568,262.883C102.617,262.776 102.679,262.675 102.754,262.578C102.829,262.482 102.92,262.399 103.027,262.328C102.98,262.219 102.945,262.108 102.922,261.996C102.899,261.884 102.887,261.779 102.887,261.68L102.887,261.223C102.887,260.962 102.934,260.741 103.029,260.559C103.124,260.376 103.243,260.229 103.385,260.117C103.527,260.005 103.681,259.924 103.848,259.873C104.015,259.822 104.168,259.797 104.309,259.797L105.684,259.797C105.858,259.797 106.015,259.819 106.154,259.863C106.293,259.908 106.416,259.967 106.521,260.041C106.627,260.115 106.717,260.2 106.791,260.297C106.865,260.393 106.926,260.494 106.973,260.6C107.02,260.705 107.054,260.812 107.076,260.92C107.098,261.028 107.109,261.129 107.109,261.223L107.109,261.68C107.109,261.935 107.064,262.156 106.973,262.344C107.056,262.399 107.134,262.463 107.207,262.537C107.28,262.611 107.343,262.696 107.398,262.793C107.453,262.89 107.496,262.998 107.527,263.119C107.558,263.24 107.574,263.374 107.574,263.52L107.574,263.973ZM106.094,261.23C106.094,261.092 106.059,260.988 105.988,260.918C105.918,260.847 105.817,260.812 105.684,260.812L104.316,260.812C104.178,260.812 104.076,260.847 104.01,260.918C103.943,260.988 103.91,261.09 103.91,261.223L103.91,261.68C103.91,261.815 103.945,261.917 104.014,261.984C104.083,262.052 104.181,262.086 104.309,262.086L105.684,262.086C105.822,262.086 105.925,262.051 105.992,261.982C106.06,261.913 106.094,261.813 106.094,261.68L106.094,261.23ZM106.547,263.52C106.547,263.389 106.511,263.288 106.439,263.217C106.368,263.145 106.271,263.109 106.148,263.109L103.852,263.109C103.727,263.109 103.628,263.148 103.555,263.227C103.482,263.305 103.445,263.403 103.445,263.52L103.445,263.973C103.445,264.098 103.484,264.197 103.561,264.271C103.638,264.346 103.735,264.383 103.852,264.383L106.148,264.383C106.279,264.383 106.378,264.344 106.445,264.266C106.513,264.187 106.547,264.09 106.547,263.973L106.547,263.52Z" style="fill-rule:nonzero;"/>
            <path d="M77.314,260.055C77.359,260.136 77.381,260.221 77.381,260.311C77.381,260.4 77.359,260.485 77.314,260.566L74.498,265.398L73.322,265.398L75.986,260.812L72.697,260.812L72.697,259.797L76.873,259.797C76.964,259.797 77.05,259.82 77.129,259.865C77.208,259.911 77.27,259.974 77.314,260.055Z" style="fill-rule:nonzero;"/>
            <path d="M43.516,261.688L46.219,261.688C46.362,261.688 46.517,261.713 46.682,261.764C46.847,261.815 47.002,261.897 47.145,262.01C47.288,262.123 47.407,262.271 47.502,262.453C47.597,262.636 47.645,262.858 47.645,263.121L47.645,263.574C47.645,263.671 47.634,263.772 47.611,263.879C47.589,263.986 47.554,264.092 47.506,264.197C47.458,264.302 47.397,264.403 47.322,264.5C47.248,264.597 47.158,264.682 47.053,264.756C46.948,264.83 46.826,264.889 46.688,264.934C46.549,264.978 46.393,265 46.219,265L44.379,265C44.254,265 44.12,264.986 43.979,264.957C43.837,264.928 43.697,264.882 43.559,264.818C43.421,264.755 43.287,264.674 43.158,264.576C43.029,264.479 42.917,264.36 42.82,264.221C42.724,264.082 42.647,263.921 42.588,263.738C42.529,263.556 42.5,263.35 42.5,263.121L42.5,261.281C42.5,261.052 42.529,260.847 42.588,260.664C42.647,260.482 42.724,260.321 42.82,260.182C42.917,260.043 43.029,259.923 43.158,259.824C43.287,259.725 43.421,259.644 43.559,259.58C43.697,259.516 43.837,259.47 43.979,259.441C44.12,259.412 44.254,259.398 44.379,259.398L46.926,259.398L46.926,260.414L44.379,260.414C44.249,260.425 44.131,260.452 44.025,260.496C43.92,260.54 43.829,260.599 43.754,260.672C43.679,260.745 43.62,260.833 43.578,260.936C43.537,261.039 43.516,261.154 43.516,261.281L43.516,261.688ZM43.516,262.711L43.516,263.121C43.516,263.254 43.539,263.373 43.584,263.479C43.629,263.584 43.691,263.675 43.77,263.75C43.848,263.825 43.94,263.883 44.045,263.924C44.15,263.964 44.264,263.984 44.387,263.984L46.219,263.984C46.349,263.984 46.449,263.945 46.518,263.867C46.587,263.789 46.621,263.691 46.621,263.574L46.621,263.121C46.621,262.988 46.587,262.887 46.52,262.816C46.452,262.746 46.349,262.711 46.211,262.711L43.516,262.711Z" style="fill-rule:nonzero;"/>
            <path d="M20.917,263.574C20.917,263.671 20.906,263.772 20.884,263.879C20.862,263.986 20.827,264.092 20.779,264.197C20.73,264.302 20.669,264.403 20.595,264.5C20.521,264.597 20.431,264.682 20.325,264.756C20.22,264.83 20.098,264.889 19.96,264.934C19.822,264.978 19.667,265 19.495,265L15.773,265L15.773,263.984L19.495,263.984C19.623,263.984 19.721,263.945 19.79,263.867C19.859,263.789 19.894,263.691 19.894,263.574L19.894,263.121C19.894,262.988 19.86,262.887 19.792,262.816C19.725,262.746 19.623,262.711 19.488,262.711L17.198,262.711C16.935,262.711 16.713,262.663 16.532,262.568C16.351,262.473 16.205,262.354 16.093,262.211C15.981,262.068 15.9,261.913 15.849,261.746C15.798,261.579 15.773,261.424 15.773,261.281L15.773,259.398L20.452,259.398L20.452,260.414L16.788,260.414L16.788,261.281C16.788,261.416 16.823,261.518 16.894,261.586C16.964,261.654 17.065,261.688 17.198,261.688L19.495,261.688C19.636,261.688 19.789,261.713 19.956,261.764C20.123,261.815 20.277,261.897 20.419,262.01C20.561,262.123 20.68,262.271 20.775,262.453C20.87,262.636 20.917,262.858 20.917,263.121L20.917,263.574Z" style="fill-rule:nonzero;"/>
        </g>
        <g id="Second_Row">
            <path d="M18.5,220.898L18.5,246.898" style="fill:none;fill-rule:nonzero;stroke:#007a9f;stroke-width:2px;"/>
            <path d="M46.5,220.898L46.5,246.898" style="fill:none;fill-rule:nonzero;stroke:#007a9f;stroke-width:2px;"/>
            <path d="M74.5,220.898L74.5,246.898" style="fill:none;fill-rule:nonzero;stroke:#007a9f;stroke-width:2px;"/>
            <path d="M102.5,220.898L102.5,246.898" style="fill:none;fill-rule:nonzero;stroke:#007a9f;stroke-width:2px;"/>
            <path d="M13.775,220.898L109.901,220.898" style="fill:none;fill-rule:nonzero;stroke:#00799a;stroke-width:4px;"/>
            <path d="M104.625,202.398L103.506,202.398L103.506,200.109L99.56,200.109C99.48,200.109 99.406,200.095 99.337,200.068C99.269,200.041 99.21,200.004 99.16,199.959C99.11,199.914 99.071,199.86 99.043,199.797C99.014,199.734 99,199.668 99,199.598L99,196.797L100.11,196.797L100.11,199.086L103.506,199.086L103.506,196.797L104.625,196.797L104.625,202.398Z" style="fill-rule:nonzero;"/>
            <path d="M77,200.973C77,201.236 76.946,201.458 76.837,201.639C76.729,201.82 76.594,201.967 76.432,202.08C76.27,202.193 76.094,202.275 75.904,202.324C75.713,202.373 75.536,202.398 75.373,202.398L71.656,202.398L71.656,201.383L75.373,201.383C75.53,201.383 75.647,201.348 75.723,201.277C75.799,201.207 75.837,201.106 75.837,200.973L75.837,200.109L71.656,200.109L71.656,199.086L75.837,199.086L75.837,198.23C75.837,197.951 75.682,197.812 75.373,197.812L71.656,197.812L71.656,196.797L75.373,196.797C75.572,196.797 75.751,196.819 75.908,196.863C76.065,196.908 76.204,196.967 76.325,197.041C76.445,197.115 76.548,197.2 76.635,197.297C76.721,197.393 76.791,197.494 76.844,197.6C76.897,197.705 76.937,197.812 76.962,197.92C76.987,198.028 77,198.129 77,198.223L77,200.973Z" style="fill-rule:nonzero;"/>
            <path d="M49.455,202L43,202L43,200.121C43,200.025 43.014,199.923 43.042,199.814C43.069,199.706 43.113,199.599 43.172,199.492C43.231,199.385 43.306,199.284 43.399,199.188C43.492,199.091 43.605,199.006 43.738,198.932C43.87,198.857 44.023,198.798 44.196,198.754C44.369,198.71 44.565,198.688 44.784,198.688L47.656,198.688C47.829,198.688 47.958,198.653 48.041,198.584C48.124,198.515 48.166,198.414 48.166,198.281L48.166,197.832C48.166,197.694 48.124,197.59 48.039,197.52C47.954,197.449 47.829,197.414 47.666,197.414L43.573,197.414L43.573,196.398L47.666,196.398C47.882,196.398 48.077,196.42 48.25,196.465C48.423,196.509 48.575,196.568 48.708,196.643C48.84,196.717 48.953,196.802 49.048,196.898C49.143,196.995 49.221,197.096 49.281,197.201C49.342,197.306 49.386,197.413 49.414,197.521C49.441,197.63 49.455,197.731 49.455,197.824L49.455,198.281C49.455,198.544 49.395,198.766 49.276,198.947C49.157,199.128 49.008,199.276 48.828,199.389C48.648,199.502 48.454,199.584 48.247,199.635C48.04,199.686 47.846,199.711 47.666,199.711L44.784,199.711C44.679,199.711 44.596,199.723 44.534,199.746C44.472,199.769 44.424,199.801 44.39,199.84C44.355,199.879 44.33,199.923 44.314,199.973C44.297,200.022 44.284,200.072 44.274,200.121L44.274,200.984L49.455,200.984L49.455,202Z" style="fill-rule:nonzero;"/>
            <path d="M18.938,202L17.918,202L17.918,197.414L17,197.414L17,196.398L18.938,196.398L18.938,202Z" style="fill-rule:nonzero;"/>
        </g>
        <g id="First_Row">
            <path d="M17,124L103,124C105.761,124 108,126.239 108,129L108,155C108,157.761 105.761,160 103,160L17,160C14.239,160 12,157.761 12,155L12,129C12,126.239 14.239,124 17,124Z" style="fill:#fff;fill-rule:nonzero;"/>
            <path d="M26.742,146.5L94.742,146.5" style="fill:none;fill-rule:nonzero;stroke:#007ba4;stroke-width:6px;stroke-linejoin:round;"/>
            <path d="M90.477,129.656C90.477,129.885 90.448,130.102 90.389,130.307C90.33,130.511 90.248,130.7 90.141,130.875C90.034,131.05 89.907,131.206 89.762,131.344C89.616,131.482 89.456,131.6 89.283,131.697C89.11,131.795 88.925,131.87 88.73,131.922C88.535,131.974 88.336,132 88.133,132L86.301,132C86.095,132 85.894,131.974 85.699,131.922C85.504,131.87 85.319,131.795 85.146,131.697C84.973,131.6 84.814,131.482 84.668,131.344C84.522,131.206 84.396,131.05 84.291,130.875C84.186,130.7 84.104,130.511 84.045,130.307C83.986,130.102 83.957,129.885 83.957,129.656L83.957,128.742C83.957,128.399 84.021,128.084 84.15,127.797C84.279,127.51 84.452,127.264 84.668,127.057C84.884,126.85 85.133,126.688 85.416,126.572C85.699,126.456 85.994,126.398 86.301,126.398L88.133,126.398C88.336,126.398 88.535,126.424 88.73,126.477C88.925,126.529 89.11,126.604 89.283,126.701C89.456,126.799 89.616,126.917 89.762,127.055C89.907,127.193 90.034,127.349 90.141,127.523C90.248,127.698 90.33,127.887 90.389,128.092C90.448,128.296 90.477,128.513 90.477,128.742L90.477,129.656ZM89.453,128.742C89.453,128.541 89.417,128.359 89.344,128.195C89.271,128.031 89.174,127.89 89.053,127.773C88.932,127.656 88.792,127.567 88.633,127.504C88.474,127.441 88.308,127.411 88.133,127.414L86.301,127.414C86.132,127.411 85.967,127.441 85.807,127.502C85.646,127.563 85.504,127.652 85.381,127.768C85.257,127.883 85.158,128.024 85.084,128.189C85.01,128.355 84.973,128.539 84.973,128.742L84.973,129.656C84.973,129.859 85.009,130.043 85.082,130.207C85.155,130.371 85.252,130.511 85.375,130.627C85.498,130.743 85.639,130.832 85.799,130.895C85.959,130.957 86.126,130.987 86.301,130.984L88.133,130.984C88.334,130.984 88.515,130.951 88.678,130.885C88.841,130.818 88.979,130.726 89.094,130.609C89.209,130.492 89.297,130.352 89.359,130.189C89.422,130.026 89.453,129.849 89.453,129.656L89.453,128.742ZM89.012,128C89.051,128.057 89.077,128.119 89.09,128.186C89.103,128.252 89.103,128.317 89.09,128.381C89.077,128.445 89.051,128.505 89.014,128.561C88.976,128.617 88.927,128.664 88.867,128.703L86.125,130.535C86.081,130.569 86.035,130.592 85.988,130.605C85.941,130.618 85.893,130.625 85.844,130.625C85.761,130.625 85.681,130.605 85.605,130.566C85.53,130.527 85.469,130.471 85.422,130.398C85.383,130.341 85.357,130.279 85.344,130.213C85.331,130.146 85.33,130.081 85.342,130.018C85.353,129.954 85.377,129.894 85.414,129.838C85.451,129.782 85.499,129.734 85.559,129.695L88.309,127.863C88.366,127.824 88.428,127.798 88.494,127.785C88.561,127.772 88.626,127.772 88.689,127.785C88.753,127.798 88.813,127.823 88.869,127.859C88.925,127.896 88.973,127.943 89.012,128Z" style="fill-rule:nonzero;"/>
            <path d="M97.879,129.656C97.879,129.885 97.85,130.102 97.791,130.307C97.732,130.511 97.65,130.7 97.543,130.875C97.436,131.05 97.31,131.206 97.164,131.344C97.018,131.482 96.859,131.6 96.686,131.697C96.513,131.795 96.328,131.87 96.133,131.922C95.938,131.974 95.738,132 95.535,132L93.703,132C93.498,132 93.297,131.974 93.102,131.922C92.907,131.87 92.722,131.795 92.549,131.697C92.376,131.6 92.216,131.482 92.07,131.344C91.925,131.206 91.799,131.05 91.693,130.875C91.588,130.7 91.506,130.511 91.447,130.307C91.388,130.102 91.359,129.885 91.359,129.656L91.359,128.742C91.359,128.399 91.424,128.084 91.553,127.797C91.682,127.51 91.854,127.264 92.07,127.057C92.287,126.85 92.536,126.688 92.818,126.572C93.101,126.456 93.396,126.398 93.703,126.398L95.535,126.398C95.738,126.398 95.938,126.424 96.133,126.477C96.328,126.529 96.513,126.604 96.686,126.701C96.859,126.799 97.018,126.917 97.164,127.055C97.31,127.193 97.436,127.349 97.543,127.523C97.65,127.698 97.732,127.887 97.791,128.092C97.85,128.296 97.879,128.513 97.879,128.742L97.879,129.656ZM96.855,128.742C96.855,128.541 96.819,128.359 96.746,128.195C96.673,128.031 96.576,127.89 96.455,127.773C96.334,127.656 96.194,127.567 96.035,127.504C95.876,127.441 95.71,127.411 95.535,127.414L93.703,127.414C93.534,127.411 93.369,127.441 93.209,127.502C93.049,127.563 92.907,127.652 92.783,127.768C92.66,127.883 92.561,128.024 92.486,128.189C92.412,128.355 92.375,128.539 92.375,128.742L92.375,129.656C92.375,129.859 92.411,130.043 92.484,130.207C92.557,130.371 92.655,130.511 92.777,130.627C92.9,130.743 93.041,130.832 93.201,130.895C93.361,130.957 93.528,130.987 93.703,130.984L95.535,130.984C95.736,130.984 95.917,130.951 96.08,130.885C96.243,130.818 96.381,130.726 96.496,130.609C96.611,130.492 96.699,130.352 96.762,130.189C96.824,130.026 96.855,129.849 96.855,129.656L96.855,128.742ZM96.414,128C96.453,128.057 96.479,128.119 96.492,128.186C96.505,128.252 96.505,128.317 96.492,128.381C96.479,128.445 96.454,128.505 96.416,128.561C96.378,128.617 96.329,128.664 96.27,128.703L93.527,130.535C93.483,130.569 93.438,130.592 93.391,130.605C93.344,130.618 93.295,130.625 93.246,130.625C93.163,130.625 93.083,130.605 93.008,130.566C92.933,130.527 92.871,130.471 92.824,130.398C92.785,130.341 92.759,130.279 92.746,130.213C92.733,130.146 92.733,130.081 92.744,130.018C92.756,129.954 92.78,129.894 92.816,129.838C92.853,129.782 92.901,129.734 92.961,129.695L95.711,127.863C95.768,127.824 95.83,127.798 95.896,127.785C95.963,127.772 96.028,127.772 96.092,127.785C96.156,127.798 96.216,127.823 96.271,127.859C96.327,127.896 96.375,127.943 96.414,128Z" style="fill-rule:nonzero;"/>
            <path d="M101.34,128.398L103.051,126.398L104.438,126.398L102.027,129.207L104.422,132L103.043,132L101.34,130.016L99.645,132L98.262,132L100.652,129.207L98.254,126.398L99.629,126.398L101.34,128.398Z" style="fill-rule:nonzero;"/>
            <path d="M56.537,129.656C56.537,129.885 56.508,130.102 56.449,130.307C56.39,130.511 56.308,130.7 56.201,130.875C56.094,131.05 55.968,131.206 55.822,131.344C55.677,131.482 55.517,131.6 55.344,131.697C55.171,131.795 54.986,131.87 54.791,131.922C54.596,131.974 54.396,132 54.193,132L52.361,132C52.156,132 51.955,131.974 51.76,131.922C51.565,131.87 51.38,131.795 51.207,131.697C51.034,131.6 50.874,131.482 50.729,131.344C50.583,131.206 50.457,131.05 50.352,130.875C50.246,130.7 50.164,130.511 50.105,130.307C50.047,130.102 50.018,129.885 50.018,129.656L50.018,128.742C50.018,128.399 50.082,128.084 50.211,127.797C50.34,127.51 50.512,127.264 50.729,127.057C50.945,126.85 51.194,126.688 51.477,126.572C51.759,126.456 52.054,126.398 52.361,126.398L54.193,126.398C54.396,126.398 54.596,126.424 54.791,126.477C54.986,126.529 55.171,126.604 55.344,126.701C55.517,126.799 55.677,126.917 55.822,127.055C55.968,127.193 56.094,127.349 56.201,127.523C56.308,127.698 56.39,127.887 56.449,128.092C56.508,128.296 56.537,128.513 56.537,128.742L56.537,129.656ZM55.514,128.742C55.514,128.541 55.477,128.359 55.404,128.195C55.331,128.031 55.234,127.89 55.113,127.773C54.992,127.656 54.852,127.567 54.693,127.504C54.534,127.441 54.368,127.411 54.193,127.414L52.361,127.414C52.192,127.411 52.027,127.441 51.867,127.502C51.707,127.563 51.565,127.652 51.441,127.768C51.318,127.883 51.219,128.024 51.145,128.189C51.07,128.355 51.033,128.539 51.033,128.742L51.033,129.656C51.033,129.859 51.07,130.043 51.143,130.207C51.216,130.371 51.313,130.511 51.436,130.627C51.558,130.743 51.699,130.832 51.859,130.895C52.02,130.957 52.187,130.987 52.361,130.984L54.193,130.984C54.394,130.984 54.575,130.951 54.738,130.885C54.901,130.818 55.039,130.726 55.154,130.609C55.269,130.492 55.357,130.352 55.42,130.189C55.483,130.026 55.514,129.849 55.514,129.656L55.514,128.742ZM55.072,128C55.111,128.057 55.137,128.119 55.15,128.186C55.163,128.252 55.163,128.317 55.15,128.381C55.137,128.445 55.112,128.505 55.074,128.561C55.037,128.617 54.988,128.664 54.928,128.703L52.186,130.535C52.141,130.569 52.096,130.592 52.049,130.605C52.002,130.618 51.954,130.625 51.904,130.625C51.821,130.625 51.741,130.605 51.666,130.566C51.591,130.527 51.529,130.471 51.482,130.398C51.443,130.341 51.417,130.279 51.404,130.213C51.391,130.146 51.391,130.081 51.402,130.018C51.414,129.954 51.438,129.894 51.475,129.838C51.511,129.782 51.559,129.734 51.619,129.695L54.369,127.863C54.426,127.824 54.488,127.798 54.555,127.785C54.621,127.772 54.686,127.772 54.75,127.785C54.814,127.798 54.874,127.823 54.93,127.859C54.986,127.896 55.033,127.943 55.072,128Z" style="fill-rule:nonzero;"/>
            <path d="M59.998,128.398L61.709,126.398L63.096,126.398L60.686,129.207L63.08,132L61.701,132L59.998,130.016L58.303,132L56.92,132L59.311,129.207L56.912,126.398L58.287,126.398L59.998,128.398Z" style="fill-rule:nonzero;"/>
            <path d="M69.99,129.656C69.99,129.885 69.961,130.102 69.902,130.307C69.843,130.511 69.761,130.7 69.654,130.875C69.547,131.05 69.421,131.206 69.275,131.344C69.13,131.482 68.97,131.6 68.797,131.697C68.624,131.795 68.439,131.87 68.244,131.922C68.049,131.974 67.849,132 67.646,132L65.814,132C65.609,132 65.408,131.974 65.213,131.922C65.018,131.87 64.833,131.795 64.66,131.697C64.487,131.6 64.327,131.482 64.182,131.344C64.036,131.206 63.91,131.05 63.805,130.875C63.699,130.7 63.617,130.511 63.559,130.307C63.5,130.102 63.471,129.885 63.471,129.656L63.471,128.742C63.471,128.399 63.535,128.084 63.664,127.797C63.793,127.51 63.965,127.264 64.182,127.057C64.398,126.85 64.647,126.688 64.93,126.572C65.213,126.456 65.507,126.398 65.814,126.398L67.646,126.398C67.849,126.398 68.049,126.424 68.244,126.477C68.439,126.529 68.624,126.604 68.797,126.701C68.97,126.799 69.13,126.917 69.275,127.055C69.421,127.193 69.547,127.349 69.654,127.523C69.761,127.698 69.843,127.887 69.902,128.092C69.961,128.296 69.99,128.513 69.99,128.742L69.99,129.656ZM68.967,128.742C68.967,128.541 68.93,128.359 68.857,128.195C68.784,128.031 68.687,127.89 68.566,127.773C68.445,127.656 68.305,127.567 68.146,127.504C67.987,127.441 67.821,127.411 67.646,127.414L65.814,127.414C65.645,127.411 65.481,127.441 65.32,127.502C65.16,127.563 65.018,127.652 64.895,127.768C64.771,127.883 64.672,128.024 64.598,128.189C64.523,128.355 64.486,128.539 64.486,128.742L64.486,129.656C64.486,129.859 64.523,130.043 64.596,130.207C64.669,130.371 64.766,130.511 64.889,130.627C65.011,130.743 65.152,130.832 65.312,130.895C65.473,130.957 65.64,130.987 65.814,130.984L67.646,130.984C67.847,130.984 68.028,130.951 68.191,130.885C68.354,130.818 68.493,130.726 68.607,130.609C68.722,130.492 68.81,130.352 68.873,130.189C68.936,130.026 68.967,129.849 68.967,129.656L68.967,128.742ZM68.525,128C68.564,128.057 68.591,128.119 68.604,128.186C68.617,128.252 68.617,128.317 68.604,128.381C68.591,128.445 68.565,128.505 68.527,128.561C68.49,128.617 68.441,128.664 68.381,128.703L65.639,130.535C65.594,130.569 65.549,130.592 65.502,130.605C65.455,130.618 65.407,130.625 65.357,130.625C65.274,130.625 65.194,130.605 65.119,130.566C65.044,130.527 64.983,130.471 64.936,130.398C64.897,130.341 64.87,130.279 64.857,130.213C64.844,130.146 64.844,130.081 64.855,130.018C64.867,129.954 64.891,129.894 64.928,129.838C64.964,129.782 65.012,129.734 65.072,129.695L67.822,127.863C67.879,127.824 67.941,127.798 68.008,127.785C68.074,127.772 68.139,127.772 68.203,127.785C68.267,127.798 68.327,127.823 68.383,127.859C68.439,127.896 68.486,127.943 68.525,128Z" style="fill-rule:nonzero;"/>
            <path d="M18.658,128.398L20.369,126.398L21.756,126.398L19.346,129.207L21.74,132L20.361,132L18.658,130.016L16.963,132L15.58,132L17.971,129.207L15.572,126.398L16.947,126.398L18.658,128.398Z" style="fill-rule:nonzero;"/>
            <path d="M28.65,129.656C28.65,129.885 28.621,130.102 28.562,130.307C28.504,130.511 28.421,130.7 28.314,130.875C28.207,131.05 28.081,131.206 27.936,131.344C27.79,131.482 27.63,131.6 27.457,131.697C27.284,131.795 27.099,131.87 26.904,131.922C26.709,131.974 26.51,132 26.307,132L24.475,132C24.269,132 24.068,131.974 23.873,131.922C23.678,131.87 23.493,131.795 23.32,131.697C23.147,131.6 22.988,131.482 22.842,131.344C22.696,131.206 22.57,131.05 22.465,130.875C22.36,130.7 22.278,130.511 22.219,130.307C22.16,130.102 22.131,129.885 22.131,129.656L22.131,128.742C22.131,128.399 22.195,128.084 22.324,127.797C22.453,127.51 22.626,127.264 22.842,127.057C23.058,126.85 23.307,126.688 23.59,126.572C23.873,126.456 24.168,126.398 24.475,126.398L26.307,126.398C26.51,126.398 26.709,126.424 26.904,126.477C27.099,126.529 27.284,126.604 27.457,126.701C27.63,126.799 27.79,126.917 27.936,127.055C28.081,127.193 28.207,127.349 28.314,127.523C28.421,127.698 28.504,127.887 28.562,128.092C28.621,128.296 28.65,128.513 28.65,128.742L28.65,129.656ZM27.627,128.742C27.627,128.541 27.591,128.359 27.518,128.195C27.445,128.031 27.348,127.89 27.227,127.773C27.106,127.656 26.966,127.567 26.807,127.504C26.648,127.441 26.481,127.411 26.307,127.414L24.475,127.414C24.306,127.411 24.141,127.441 23.98,127.502C23.82,127.563 23.678,127.652 23.555,127.768C23.431,127.883 23.332,128.024 23.258,128.189C23.183,128.355 23.146,128.539 23.146,128.742L23.146,129.656C23.146,129.859 23.183,130.043 23.256,130.207C23.329,130.371 23.426,130.511 23.549,130.627C23.671,130.743 23.812,130.832 23.973,130.895C24.133,130.957 24.3,130.987 24.475,130.984L26.307,130.984C26.507,130.984 26.689,130.951 26.852,130.885C27.015,130.818 27.153,130.726 27.268,130.609C27.382,130.492 27.47,130.352 27.533,130.189C27.596,130.026 27.627,129.849 27.627,129.656L27.627,128.742ZM27.186,128C27.225,128.057 27.251,128.119 27.264,128.186C27.277,128.252 27.277,128.317 27.264,128.381C27.251,128.445 27.225,128.505 27.188,128.561C27.15,128.617 27.101,128.664 27.041,128.703L24.299,130.535C24.254,130.569 24.209,130.592 24.162,130.605C24.115,130.618 24.067,130.625 24.018,130.625C23.935,130.625 23.855,130.605 23.779,130.566C23.704,130.527 23.643,130.471 23.596,130.398C23.557,130.341 23.531,130.279 23.518,130.213C23.505,130.146 23.504,130.081 23.516,130.018C23.527,129.954 23.551,129.894 23.588,129.838C23.625,129.782 23.673,129.734 23.732,129.695L26.482,127.863C26.539,127.824 26.601,127.798 26.668,127.785C26.735,127.772 26.8,127.772 26.863,127.785C26.927,127.798 26.987,127.823 27.043,127.859C27.099,127.896 27.147,127.943 27.186,128Z" style="fill-rule:nonzero;"/>
            <path d="M36.053,129.656C36.053,129.885 36.024,130.102 35.965,130.307C35.906,130.511 35.824,130.7 35.717,130.875C35.61,131.05 35.484,131.206 35.338,131.344C35.192,131.482 35.032,131.6 34.859,131.697C34.686,131.795 34.502,131.87 34.307,131.922C34.112,131.974 33.912,132 33.709,132L31.877,132C31.671,132 31.47,131.974 31.275,131.922C31.08,131.87 30.896,131.795 30.723,131.697C30.55,131.6 30.39,131.482 30.244,131.344C30.098,131.206 29.972,131.05 29.867,130.875C29.762,130.7 29.68,130.511 29.621,130.307C29.562,130.102 29.533,129.885 29.533,129.656L29.533,128.742C29.533,128.399 29.598,128.084 29.727,127.797C29.856,127.51 30.028,127.264 30.244,127.057C30.46,126.85 30.709,126.688 30.992,126.572C31.275,126.456 31.57,126.398 31.877,126.398L33.709,126.398C33.912,126.398 34.112,126.424 34.307,126.477C34.502,126.529 34.686,126.604 34.859,126.701C35.032,126.799 35.192,126.917 35.338,127.055C35.484,127.193 35.61,127.349 35.717,127.523C35.824,127.698 35.906,127.887 35.965,128.092C36.024,128.296 36.053,128.513 36.053,128.742L36.053,129.656ZM35.029,128.742C35.029,128.541 34.993,128.359 34.92,128.195C34.847,128.031 34.75,127.89 34.629,127.773C34.508,127.656 34.368,127.567 34.209,127.504C34.05,127.441 33.884,127.411 33.709,127.414L31.877,127.414C31.708,127.411 31.543,127.441 31.383,127.502C31.223,127.563 31.081,127.652 30.957,127.768C30.833,127.883 30.734,128.024 30.66,128.189C30.586,128.355 30.549,128.539 30.549,128.742L30.549,129.656C30.549,129.859 30.585,130.043 30.658,130.207C30.731,130.371 30.829,130.511 30.951,130.627C31.074,130.743 31.215,130.832 31.375,130.895C31.535,130.957 31.702,130.987 31.877,130.984L33.709,130.984C33.91,130.984 34.091,130.951 34.254,130.885C34.417,130.818 34.555,130.726 34.67,130.609C34.785,130.492 34.873,130.352 34.936,130.189C34.998,130.026 35.029,129.849 35.029,129.656L35.029,128.742ZM34.588,128C34.627,128.057 34.653,128.119 34.666,128.186C34.679,128.252 34.679,128.317 34.666,128.381C34.653,128.445 34.627,128.505 34.59,128.561C34.552,128.617 34.503,128.664 34.443,128.703L31.701,130.535C31.657,130.569 31.611,130.592 31.564,130.605C31.517,130.618 31.469,130.625 31.42,130.625C31.337,130.625 31.257,130.605 31.182,130.566C31.106,130.527 31.045,130.471 30.998,130.398C30.959,130.341 30.933,130.279 30.92,130.213C30.907,130.146 30.906,130.081 30.918,130.018C30.93,129.954 30.954,129.894 30.99,129.838C31.027,129.782 31.075,129.734 31.135,129.695L33.885,127.863C33.942,127.824 34.004,127.798 34.07,127.785C34.137,127.772 34.202,127.772 34.266,127.785C34.329,127.798 34.389,127.823 34.445,127.859C34.501,127.896 34.549,127.943 34.588,128Z" style="fill-rule:nonzero;"/>
        </g>
        <g id="In_Row">
            <path d="M51,67L69,67C71.761,67 74,69.239 74,72L74,98C74,100.761 71.761,103 69,103L51,103C48.239,103 46,100.761 46,98L46,72C46,69.239 48.239,67 51,67Z" style="fill:#fff;fill-rule:nonzero;"/>
            <rect x="56.104" y="69.398" width="1.015" height="5.602" style="fill-rule:nonzero;"/>
            <path d="M63.904,74.566C63.904,74.639 63.89,74.707 63.863,74.77C63.836,74.832 63.799,74.886 63.754,74.932C63.709,74.977 63.655,75.013 63.592,75.039C63.529,75.065 63.463,75.078 63.393,75.078C63.33,75.078 63.267,75.066 63.203,75.043C63.139,75.02 63.082,74.982 63.033,74.93L59.322,71.055L59.322,75L58.307,75L58.307,69.832C58.307,69.728 58.336,69.634 58.395,69.549C58.453,69.464 58.528,69.401 58.619,69.359C58.716,69.32 58.815,69.311 58.916,69.33C59.017,69.349 59.105,69.397 59.178,69.473L62.889,73.344L62.889,69.398L63.904,69.398L63.904,74.566Z" style="fill-rule:nonzero;"/>
        </g>
        <path d="M23.24,29.008L22.221,29.008L22.221,24.422L21.303,24.422L21.303,23.406L23.24,23.406L23.24,29.008Z" style="fill-rule:nonzero;"/>
        <path d="M30.717,25.801L28.943,25.801L28.943,29.008L27.916,29.008L27.916,25.801L26.596,25.801L26.596,24.785L27.916,24.785L27.916,23.406L28.943,23.406L28.943,24.785L30.717,24.785L30.717,25.801Z" style="fill-rule:nonzero;"/>
        <path d="M35.963,27.582C35.963,27.757 35.941,27.914 35.896,28.053C35.852,28.192 35.794,28.315 35.721,28.42C35.648,28.525 35.563,28.615 35.467,28.689C35.37,28.764 35.269,28.824 35.164,28.871C35.059,28.918 34.952,28.952 34.844,28.975C34.736,28.997 34.634,29.008 34.537,29.008L32.705,29.008C32.564,29.008 32.411,28.983 32.244,28.934C32.077,28.884 31.923,28.802 31.781,28.689C31.639,28.576 31.521,28.429 31.426,28.248C31.331,28.067 31.283,27.845 31.283,27.582L31.283,26.207C31.283,25.946 31.331,25.726 31.426,25.545C31.521,25.364 31.639,25.217 31.781,25.104C31.923,24.991 32.077,24.909 32.244,24.859C32.411,24.81 32.564,24.785 32.705,24.785L34.537,24.785C34.798,24.785 35.019,24.832 35.201,24.926C35.384,25.019 35.531,25.137 35.643,25.279C35.755,25.421 35.836,25.575 35.887,25.742C35.938,25.909 35.963,26.064 35.963,26.207L35.963,27.582ZM34.947,26.215C34.947,26.074 34.912,25.97 34.842,25.902C34.771,25.835 34.67,25.801 34.537,25.801L32.713,25.801C32.578,25.801 32.475,25.835 32.404,25.904C32.334,25.973 32.299,26.074 32.299,26.207L32.299,27.582C32.299,27.715 32.334,27.816 32.404,27.887C32.475,27.957 32.578,27.992 32.713,27.992L34.537,27.992C34.675,27.992 34.778,27.957 34.846,27.887C34.913,27.816 34.947,27.715 34.947,27.582L34.947,26.215Z" style="fill-rule:nonzero;"/>
        <path d="M44.51,27.582C44.51,27.679 44.499,27.78 44.477,27.887C44.454,27.994 44.419,28.1 44.371,28.205C44.323,28.31 44.261,28.411 44.186,28.508C44.11,28.604 44.019,28.689 43.914,28.764C43.809,28.838 43.687,28.897 43.549,28.941C43.411,28.986 43.256,29.008 43.084,29.008L40.787,29.008C40.646,29.008 40.493,28.983 40.326,28.934C40.159,28.884 40.005,28.802 39.863,28.689C39.721,28.576 39.603,28.429 39.508,28.248C39.413,28.067 39.365,27.845 39.365,27.582L39.365,27.129C39.365,27.03 39.376,26.925 39.398,26.816C39.421,26.707 39.456,26.599 39.504,26.492C39.552,26.385 39.614,26.284 39.689,26.188C39.765,26.091 39.856,26.008 39.963,25.938C39.916,25.828 39.881,25.717 39.857,25.605C39.834,25.494 39.822,25.388 39.822,25.289L39.822,24.832C39.822,24.571 39.87,24.35 39.965,24.168C40.06,23.986 40.178,23.839 40.32,23.727C40.462,23.615 40.616,23.533 40.783,23.482C40.95,23.431 41.103,23.406 41.244,23.406L42.619,23.406C42.794,23.406 42.951,23.428 43.09,23.473C43.229,23.517 43.352,23.576 43.457,23.65C43.562,23.725 43.652,23.81 43.727,23.906C43.801,24.003 43.861,24.104 43.908,24.209C43.955,24.314 43.99,24.421 44.012,24.529C44.034,24.637 44.045,24.738 44.045,24.832L44.045,25.289C44.045,25.544 43.999,25.766 43.908,25.953C43.991,26.008 44.07,26.072 44.143,26.146C44.216,26.221 44.279,26.306 44.334,26.402C44.389,26.499 44.432,26.608 44.463,26.729C44.494,26.85 44.51,26.983 44.51,27.129L44.51,27.582ZM43.029,24.84C43.029,24.702 42.994,24.598 42.924,24.527C42.853,24.457 42.752,24.422 42.619,24.422L41.252,24.422C41.114,24.422 41.012,24.457 40.945,24.527C40.879,24.598 40.846,24.699 40.846,24.832L40.846,25.289C40.846,25.424 40.88,25.526 40.949,25.594C41.018,25.661 41.117,25.695 41.244,25.695L42.619,25.695C42.757,25.695 42.86,25.661 42.928,25.592C42.995,25.523 43.029,25.422 43.029,25.289L43.029,24.84ZM43.482,27.129C43.482,26.999 43.446,26.898 43.375,26.826C43.304,26.755 43.207,26.719 43.084,26.719L40.787,26.719C40.662,26.719 40.563,26.758 40.49,26.836C40.417,26.914 40.381,27.012 40.381,27.129L40.381,27.582C40.381,27.707 40.419,27.807 40.496,27.881C40.573,27.955 40.67,27.992 40.787,27.992L43.084,27.992C43.214,27.992 43.313,27.953 43.381,27.875C43.448,27.797 43.482,27.699 43.482,27.582L43.482,27.129Z" style="fill-rule:nonzero;"/>
        <path d="M54.631,29.008L53.607,29.008L53.607,25.672L51.807,28.84C51.762,28.921 51.7,28.982 51.621,29.023C51.542,29.065 51.456,29.086 51.365,29.086C51.276,29.086 51.194,29.065 51.117,29.023C51.04,28.982 50.98,28.921 50.936,28.84L49.127,25.672L49.127,29.008L48.111,29.008L48.111,23.84C48.111,23.723 48.146,23.618 48.215,23.527C48.284,23.436 48.374,23.375 48.486,23.344C48.541,23.331 48.595,23.326 48.65,23.33C48.705,23.334 48.758,23.346 48.809,23.365C48.86,23.385 48.906,23.412 48.947,23.447C48.989,23.482 49.024,23.525 49.053,23.574L51.365,27.594L53.678,23.574C53.738,23.475 53.821,23.405 53.926,23.363C54.031,23.322 54.141,23.315 54.256,23.344C54.365,23.375 54.455,23.436 54.525,23.527C54.596,23.618 54.631,23.723 54.631,23.84L54.631,29.008Z" style="fill-rule:nonzero;"/>
        <path d="M60.295,28.496C60.295,28.569 60.282,28.636 60.256,28.699C60.23,28.762 60.194,28.816 60.148,28.861C60.103,28.907 60.049,28.943 59.988,28.969C59.927,28.995 59.861,29.008 59.791,29.008L57.494,29.008C57.369,29.008 57.236,28.994 57.094,28.965C56.952,28.936 56.812,28.89 56.674,28.826C56.536,28.762 56.402,28.681 56.273,28.584C56.144,28.487 56.032,28.368 55.936,28.229C55.839,28.09 55.762,27.929 55.703,27.746C55.644,27.564 55.615,27.358 55.615,27.129L55.615,24.785L56.631,24.785L56.631,27.129C56.631,27.262 56.654,27.381 56.699,27.486C56.745,27.592 56.807,27.683 56.885,27.758C56.963,27.833 57.055,27.891 57.16,27.932C57.265,27.972 57.379,27.992 57.502,27.992L59.279,27.992L59.279,24.785L60.295,24.785L60.295,28.496Z" style="fill-rule:nonzero;"/>
        <path d="M63.104,29.008L62.65,29.008C62.505,29.008 62.349,28.983 62.184,28.934C62.019,28.884 61.864,28.802 61.721,28.689C61.578,28.576 61.459,28.429 61.365,28.248C61.272,28.067 61.225,27.845 61.225,27.582L61.225,23L62.24,23L62.24,27.582C62.24,27.707 62.279,27.807 62.357,27.881C62.436,27.955 62.533,27.992 62.65,27.992L63.104,27.992L63.104,29.008Z" style="fill-rule:nonzero;"/>
        <path d="M67.443,25.801L65.67,25.801L65.67,29.008L64.643,29.008L64.643,25.801L63.322,25.801L63.322,24.785L64.643,24.785L64.643,23.406L65.67,23.406L65.67,24.785L67.443,24.785L67.443,25.801Z" style="fill-rule:nonzero;"/>
        <path d="M69.143,23.918L68.127,23.918L68.127,23L69.143,23L69.143,23.918ZM69.143,29.008L68.127,29.008L68.127,24.785L69.143,24.785L69.143,29.008Z" style="fill-rule:nonzero;"/>
        <path d="M74.771,27.582C74.771,27.757 74.749,27.914 74.705,28.053C74.661,28.192 74.602,28.315 74.529,28.42C74.456,28.525 74.372,28.615 74.275,28.689C74.179,28.764 74.078,28.824 73.973,28.871C73.867,28.918 73.761,28.952 73.654,28.975C73.547,28.997 73.446,29.008 73.35,29.008L71.518,29.008L71.518,27.992L73.35,27.992C73.485,27.992 73.587,27.957 73.654,27.887C73.722,27.816 73.756,27.715 73.756,27.582L73.756,26.215C73.756,26.074 73.721,25.97 73.652,25.902C73.583,25.835 73.483,25.801 73.35,25.801L71.525,25.801C71.387,25.801 71.283,25.835 71.213,25.904C71.142,25.973 71.107,26.074 71.107,26.207L71.107,30.328L70.092,30.328L70.092,26.207C70.092,26.032 70.114,25.876 70.158,25.738C70.203,25.6 70.262,25.478 70.336,25.373C70.41,25.268 70.495,25.178 70.592,25.104C70.688,25.029 70.789,24.969 70.895,24.922C71,24.875 71.107,24.841 71.215,24.818C71.323,24.796 71.424,24.785 71.518,24.785L73.35,24.785C73.524,24.785 73.68,24.807 73.818,24.852C73.956,24.896 74.078,24.954 74.184,25.027C74.289,25.1 74.379,25.185 74.453,25.281C74.527,25.378 74.588,25.479 74.635,25.584C74.682,25.689 74.716,25.795 74.738,25.902C74.76,26.009 74.771,26.11 74.771,26.207L74.771,27.582Z" style="fill-rule:nonzero;"/>
        <path d="M77.494,29.008L77.041,29.008C76.895,29.008 76.739,28.983 76.574,28.934C76.409,28.884 76.254,28.802 76.111,28.689C75.968,28.576 75.849,28.429 75.756,28.248C75.662,28.067 75.615,27.845 75.615,27.582L75.615,23L76.631,23L76.631,27.582C76.631,27.707 76.67,27.807 76.748,27.881C76.826,27.955 76.924,27.992 77.041,27.992L77.494,27.992L77.494,29.008Z" style="fill-rule:nonzero;"/>
        <path d="M82.689,26.184C82.689,26.325 82.664,26.476 82.615,26.639C82.566,26.802 82.486,26.953 82.375,27.092C82.264,27.231 82.12,27.348 81.941,27.441C81.763,27.535 81.546,27.582 81.291,27.582L79.459,27.582L79.459,26.617L81.291,26.617C81.429,26.617 81.536,26.575 81.611,26.49C81.687,26.405 81.725,26.301 81.725,26.176C81.725,26.043 81.683,25.939 81.598,25.863C81.513,25.788 81.411,25.75 81.291,25.75L79.459,25.75C79.321,25.75 79.214,25.792 79.139,25.877C79.063,25.962 79.025,26.066 79.025,26.191L79.025,27.609C79.025,27.744 79.067,27.85 79.152,27.926C79.237,28.001 79.342,28.039 79.467,28.039L81.291,28.039L81.291,29.008L79.459,29.008C79.318,29.008 79.167,28.983 79.004,28.934C78.841,28.884 78.69,28.804 78.551,28.693C78.412,28.582 78.295,28.438 78.201,28.26C78.108,28.081 78.061,27.864 78.061,27.609L78.061,26.184C78.061,26.043 78.086,25.892 78.135,25.729C78.184,25.566 78.264,25.414 78.375,25.275C78.486,25.136 78.63,25.019 78.809,24.926C78.987,24.832 79.204,24.785 79.459,24.785L81.291,24.785C81.432,24.785 81.583,24.81 81.746,24.859C81.909,24.909 82.06,24.989 82.199,25.1C82.338,25.211 82.455,25.355 82.549,25.533C82.642,25.712 82.689,25.929 82.689,26.184Z" style="fill-rule:nonzero;"/>
        <path d="M88.033,24.785L86.209,26.777L88.264,29.008L86.865,29.008L85.514,27.535L84.162,29.008L82.76,29.008L84.811,26.77L82.994,24.785L84.385,24.785L85.506,26.008L86.635,24.785L88.033,24.785Z" style="fill-rule:nonzero;"/>
        <path d="M93.225,27.582C93.225,27.757 93.203,27.914 93.158,28.053C93.114,28.192 93.055,28.315 92.982,28.42C92.909,28.525 92.825,28.615 92.729,28.689C92.632,28.764 92.531,28.824 92.426,28.871C92.321,28.918 92.214,28.952 92.105,28.975C91.997,28.997 91.895,29.008 91.799,29.008L89.967,29.008C89.826,29.008 89.673,28.983 89.506,28.934C89.339,28.884 89.185,28.802 89.043,28.689C88.901,28.576 88.782,28.429 88.687,28.248C88.592,28.067 88.545,27.845 88.545,27.582L88.545,26.207C88.545,25.946 88.592,25.726 88.687,25.545C88.782,25.364 88.901,25.217 89.043,25.104C89.185,24.991 89.339,24.909 89.506,24.859C89.673,24.81 89.826,24.785 89.967,24.785L91.799,24.785C92.059,24.785 92.28,24.832 92.463,24.926C92.645,25.019 92.792,25.137 92.904,25.279C93.016,25.421 93.097,25.575 93.148,25.742C93.199,25.909 93.225,26.064 93.225,26.207L93.225,27.582ZM92.209,26.215C92.209,26.074 92.174,25.97 92.104,25.902C92.033,25.835 91.932,25.801 91.799,25.801L89.975,25.801C89.839,25.801 89.736,25.835 89.666,25.904C89.596,25.973 89.561,26.074 89.561,26.207L89.561,27.582C89.561,27.715 89.596,27.816 89.666,27.887C89.736,27.957 89.839,27.992 89.975,27.992L91.799,27.992C91.937,27.992 92.04,27.957 92.107,27.887C92.175,27.816 92.209,27.715 92.209,27.582L92.209,26.215Z" style="fill-rule:nonzero;"/>
        <path d="M97.783,25.801L95.498,25.801C95.36,25.801 95.256,25.835 95.186,25.904C95.115,25.973 95.08,26.074 95.08,26.207L95.08,29.008L94.064,29.008L94.064,26.207C94.064,26.032 94.086,25.876 94.131,25.738C94.175,25.6 94.234,25.478 94.309,25.373C94.383,25.268 94.468,25.178 94.564,25.104C94.661,25.029 94.762,24.969 94.867,24.922C94.972,24.875 95.079,24.841 95.187,24.818C95.296,24.796 95.397,24.785 95.49,24.785L97.783,24.785L97.783,25.801Z" style="fill-rule:nonzero;"/>
        <path d="M55.298,366.35C55.298,366.459 55.277,366.561 55.236,366.654C55.195,366.748 55.141,366.829 55.072,366.897C55.004,366.966 54.923,367.02 54.829,367.059C54.735,367.098 54.635,367.117 54.53,367.117C54.437,367.117 54.342,367.099 54.246,367.064C54.151,367.029 54.066,366.973 53.991,366.895L48.425,361.082L48.425,367L46.901,367L46.901,359.248C46.901,359.092 46.945,358.95 47.033,358.823C47.121,358.696 47.233,358.602 47.37,358.539C47.515,358.48 47.663,358.466 47.815,358.495C47.968,358.524 48.099,358.596 48.208,358.709L53.774,364.516L53.774,358.598L55.298,358.598L55.298,366.35Z" style="fill-rule:nonzero;"/>
        <path d="M64.784,367L57.835,367C57.726,367 57.624,366.98 57.53,366.941C57.437,366.902 57.356,366.849 57.287,366.78C57.219,366.712 57.165,366.631 57.126,366.537C57.087,366.443 57.067,366.341 57.067,366.232L57.067,358.598L58.591,358.598L58.591,365.477L64.784,365.477L64.784,367Z" style="fill-rule:nonzero;"/>
        <path d="M73.427,367L67.931,367C67.79,367 67.639,366.983 67.477,366.95C67.314,366.917 67.154,366.865 66.996,366.795C66.838,366.724 66.687,366.633 66.542,366.522C66.397,366.411 66.269,366.276 66.158,366.118C66.047,365.96 65.958,365.776 65.892,365.567C65.825,365.358 65.792,365.123 65.792,364.861L65.792,360.736C65.792,360.595 65.809,360.444 65.842,360.282C65.875,360.12 65.927,359.96 65.997,359.802C66.068,359.643 66.159,359.492 66.272,359.348C66.385,359.203 66.521,359.075 66.68,358.964C66.838,358.853 67.021,358.764 67.228,358.697C67.435,358.631 67.669,358.598 67.931,358.598L73.427,358.598L73.427,360.121L67.931,360.121C67.732,360.121 67.579,360.174 67.474,360.279C67.368,360.385 67.315,360.541 67.315,360.748L67.315,364.861C67.315,365.056 67.369,365.208 67.477,365.315C67.584,365.423 67.736,365.477 67.931,365.477L73.427,365.477L73.427,367Z" style="fill-rule:nonzero;"/>
        <path d="M77.5,359.5L114.5,359.5" style="fill:none;fill-rule:nonzero;stroke:#007ba9;stroke-width:1px;"/>
        <path d="M6.5,359.5L43.5,359.5" style="fill:none;fill-rule:nonzero;stroke:#00799a;stroke-width:1px;"/>
        <path d="M94.5,21.5L114.5,21.5" style="fill:none;fill-rule:nonzero;stroke:#00799a;stroke-width:1px;"/>
        <path d="M6.5,21.5L26.5,21.5" style="fill:none;fill-rule:nonzero;stroke:#00799a;stroke-width:1px;"/>
        <path d="M36.571,18.527C36.571,18.828 36.533,19.099 36.457,19.339C36.381,19.579 36.28,19.791 36.155,19.975C36.03,20.158 35.884,20.314 35.716,20.443C35.548,20.572 35.374,20.678 35.194,20.76C35.015,20.842 34.832,20.902 34.646,20.941C34.461,20.98 34.286,21 34.122,21L28.245,21L28.245,19.477L34.122,19.477C34.415,19.477 34.643,19.391 34.805,19.219C34.967,19.047 35.048,18.816 35.048,18.527C35.048,18.386 35.026,18.258 34.983,18.141C34.94,18.024 34.879,17.922 34.799,17.836C34.719,17.75 34.621,17.684 34.506,17.637C34.391,17.59 34.263,17.566 34.122,17.566L30.618,17.566C30.372,17.566 30.106,17.522 29.821,17.435C29.536,17.347 29.272,17.205 29.027,17.01C28.783,16.815 28.58,16.559 28.418,16.242C28.256,15.926 28.175,15.539 28.175,15.082C28.175,14.625 28.256,14.239 28.418,13.925C28.58,13.61 28.783,13.354 29.027,13.157C29.272,12.96 29.536,12.817 29.821,12.729C30.106,12.642 30.372,12.598 30.618,12.598L35.804,12.598L35.804,14.121L30.618,14.121C30.329,14.121 30.104,14.209 29.941,14.385C29.779,14.56 29.698,14.793 29.698,15.082C29.698,15.375 29.779,15.606 29.941,15.776C30.104,15.946 30.329,16.031 30.618,16.031L34.134,16.031C34.298,16.035 34.472,16.058 34.655,16.099C34.839,16.14 35.022,16.203 35.203,16.289C35.385,16.375 35.558,16.483 35.722,16.614C35.886,16.745 36.031,16.903 36.158,17.086C36.285,17.269 36.386,17.48 36.46,17.719C36.534,17.957 36.571,18.226 36.571,18.527Z" style="fill-rule:nonzero;"/>
        <path d="M45.343,14.121L41.985,14.121L41.985,21L40.462,21L40.462,14.121L37.099,14.121L37.099,12.598L45.343,12.598L45.343,14.121Z" style="fill-rule:nonzero;"/>
        <path d="M54.413,21L52.89,21L52.89,18.938L47.534,18.938L47.534,21L46.011,21L46.011,16.799C46.011,16.186 46.116,15.621 46.327,15.105C46.538,14.59 46.831,14.146 47.206,13.775C47.581,13.404 48.025,13.115 48.536,12.908C49.048,12.701 49.607,12.598 50.212,12.598L53.646,12.598C53.751,12.598 53.851,12.617 53.944,12.656C54.038,12.695 54.12,12.75 54.19,12.82C54.261,12.891 54.315,12.973 54.354,13.066C54.393,13.16 54.413,13.26 54.413,13.365L54.413,21ZM47.534,17.414L52.89,17.414L52.89,14.121L50.212,14.121C50.165,14.121 50.067,14.128 49.916,14.142C49.765,14.155 49.592,14.189 49.395,14.244C49.198,14.299 48.99,14.383 48.771,14.496C48.552,14.609 48.35,14.766 48.167,14.965C47.984,15.164 47.832,15.413 47.713,15.712C47.594,16.011 47.534,16.373 47.534,16.799L47.534,17.414Z" style="fill-rule:nonzero;"/>
        <path d="M63.776,14.121L60.419,14.121L60.419,21L58.896,21L58.896,14.121L55.532,14.121L55.532,12.598L63.776,12.598L63.776,14.121Z" style="fill-rule:nonzero;"/>
        <path d="M73.128,20.232C73.128,20.341 73.108,20.443 73.069,20.537C73.03,20.631 72.976,20.712 72.905,20.78C72.835,20.849 72.753,20.902 72.659,20.941C72.566,20.98 72.466,21 72.36,21L68.927,21C68.602,21 68.274,20.965 67.942,20.895C67.61,20.824 67.289,20.716 66.979,20.569C66.668,20.423 66.376,20.237 66.103,20.01C65.829,19.783 65.59,19.515 65.385,19.204C65.18,18.893 65.018,18.538 64.901,18.138C64.784,17.737 64.726,17.291 64.726,16.799L64.726,12.598L66.249,12.598L66.249,16.799C66.249,17.228 66.309,17.592 66.428,17.889C66.547,18.186 66.698,18.434 66.882,18.633C67.065,18.832 67.266,18.989 67.485,19.102C67.704,19.215 67.912,19.299 68.109,19.354C68.306,19.409 68.48,19.443 68.631,19.456C68.781,19.47 68.88,19.477 68.927,19.477L71.604,19.477L71.604,12.598L73.128,12.598L73.128,20.232Z" style="fill-rule:nonzero;"/>
        <path d="M81.806,17.566L76.995,17.566L76.995,16.031L81.806,16.031L81.806,17.566ZM82.491,21L76.995,21C76.784,21 76.554,20.963 76.304,20.889C76.054,20.814 75.822,20.692 75.609,20.522C75.396,20.353 75.219,20.132 75.076,19.86C74.933,19.589 74.862,19.256 74.862,18.861L74.862,13.365C74.862,13.26 74.882,13.16 74.921,13.066C74.96,12.973 75.013,12.891 75.082,12.82C75.151,12.75 75.232,12.695 75.325,12.656C75.419,12.617 75.521,12.598 75.63,12.598L82.491,12.598L82.491,14.121L76.386,14.121L76.386,18.861C76.386,19.06 76.439,19.213 76.544,19.318C76.649,19.424 76.804,19.477 77.007,19.477L82.491,19.477L82.491,21Z" style="fill-rule:nonzero;"/>
        <path d="M92.007,18.527C92.007,18.828 91.969,19.099 91.893,19.339C91.816,19.579 91.716,19.791 91.591,19.975C91.466,20.158 91.319,20.314 91.151,20.443C90.983,20.572 90.809,20.678 90.63,20.76C90.45,20.842 90.267,20.902 90.082,20.941C89.897,20.98 89.722,21 89.558,21L83.681,21L83.681,19.477L89.558,19.477C89.851,19.477 90.078,19.391 90.24,19.219C90.402,19.047 90.483,18.816 90.483,18.527C90.483,18.386 90.462,18.258 90.419,18.141C90.376,18.024 90.314,17.922 90.234,17.836C90.154,17.75 90.056,17.684 89.941,17.637C89.826,17.59 89.699,17.566 89.558,17.566L86.054,17.566C85.808,17.566 85.542,17.522 85.257,17.435C84.972,17.347 84.707,17.205 84.463,17.01C84.219,16.815 84.016,16.559 83.854,16.242C83.691,15.926 83.61,15.539 83.61,15.082C83.61,14.625 83.691,14.239 83.854,13.925C84.016,13.61 84.219,13.354 84.463,13.157C84.707,12.96 84.972,12.817 85.257,12.729C85.542,12.642 85.808,12.598 86.054,12.598L91.239,12.598L91.239,14.121L86.054,14.121C85.765,14.121 85.539,14.209 85.377,14.385C85.215,14.56 85.134,14.793 85.134,15.082C85.134,15.375 85.215,15.606 85.377,15.776C85.539,15.946 85.765,16.031 86.054,16.031L89.569,16.031C89.733,16.035 89.907,16.058 90.091,16.099C90.274,16.14 90.457,16.203 90.639,16.289C90.82,16.375 90.993,16.483 91.157,16.614C91.321,16.745 91.467,16.903 91.594,17.086C91.721,17.269 91.821,17.48 91.896,17.719C91.97,17.957 92.007,18.226 92.007,18.527Z" style="fill-rule:nonzero;"/>
    </g>
</svg>
