<?xml version="1.0" encoding="UTF-8" standalone="no"?>
<!DOCTYPE svg PUBLIC "-//W3C//DTD SVG 1.1//EN" "http://www.w3.org/Graphics/SVG/1.1/DTD/svg11.dtd">
<svg width="100%" height="100%" viewBox="0 0 380 380" version="1.1" xmlns="http://www.w3.org/2000/svg" xmlns:xlink="http://www.w3.org/1999/xlink" xml:space="preserve" xmlns:serif="http://www.serif.com/" style="fill-rule:evenodd;clip-rule:evenodd;">
    <g id="_1050_MIXER_SEQUENCER" serif:id="1050_MIXER_SEQUENCER">
        <rect x="-0.113" y="0" width="380" height="380" style="fill:#e6e6e6;fill-rule:nonzero;"/>
        <path d="M275.768,304.25L337.482,304.25C340.322,304.25 342.625,306.546 342.625,309.378L342.625,339.122C342.625,341.954 340.322,344.25 337.482,344.25L275.768,344.25C272.928,344.25 270.625,341.954 270.625,339.122L270.625,309.378C270.625,306.546 272.928,304.25 275.768,304.25Z" style="fill:#bbbcb9;fill-rule:nonzero;"/>
        <path d="M34,304.25L104,304.25C106.761,304.25 109,306.576 109,309.445L109,339.055C109,341.924 106.761,344.25 104,344.25L34,344.25C31.239,344.25 29,341.924 29,339.055L29,309.445C29,306.576 31.239,304.25 34,304.25Z" style="fill:#fff;fill-rule:nonzero;"/>
        <g>
            <path d="M189,226.5C156.691,226.5 130.5,200.309 130.5,168C130.5,135.691 156.691,109.5 189,109.5C221.309,109.5 247.5,135.691 247.5,168C247.5,200.309 221.309,226.5 189,226.5Z" style="fill:#e6e6e6;fill-rule:nonzero;"/>
            <path d="M189,226.5C156.691,226.5 130.5,200.309 130.5,168C130.5,135.691 156.691,109.5 189,109.5C221.309,109.5 247.5,135.691 247.5,168C247.5,200.309 221.309,226.5 189,226.5Z" style="fill-opacity:0;fill-rule:nonzero;stroke:#007a9f;stroke-width:1px;stroke-dasharray:2,2;"/>
        </g>
        <path d="M91.395,70.574L41.5,127.5" style="fill:none;fill-rule:nonzero;stroke:#007a9f;stroke-width:2px;"/>
        <path d="M287.38,71.5L341,127.5" style="fill:none;fill-rule:nonzero;stroke:#007a9f;stroke-width:2px;"/>
        <path d="M137.775,304.25L237.775,304.25C240.536,304.25 242.775,306.461 242.775,309.188L242.775,339.312C242.775,342.039 240.536,344.25 237.775,344.25L137.775,344.25C135.013,344.25 132.775,342.039 132.775,339.312L132.775,309.188C132.775,306.461 135.013,304.25 137.775,304.25Z" style="fill:#bbbcb9;fill-rule:nonzero;"/>
        <path d="M341,127.5L340.75,208.5" style="fill:none;fill-rule:nonzero;stroke:#007a9f;stroke-width:4px;"/>
        <path d="M340.75,208.5L286.5,265.5" style="fill:none;fill-rule:nonzero;stroke:#007a9f;stroke-width:6px;"/>
        <path d="M41.5,127.5L41.5,209.5" style="fill:none;fill-rule:nonzero;stroke:#007a9f;stroke-width:4px;"/>
        <path d="M41.5,209.5L91.395,265.5" style="fill:none;fill-rule:nonzero;stroke:#007a9f;stroke-width:6px;"/>
        <path d="M167.273,114.5L215.5,221.5" style="fill:none;fill-rule:nonzero;stroke:#007a9f;stroke-width:2px;"/>
        <path d="M210.469,114.5L167.273,221.5" style="fill:none;fill-rule:nonzero;stroke:#007a9f;stroke-width:2px;"/>
        <path d="M135.893,146.12L242.107,190.88" style="fill:none;fill-rule:nonzero;stroke:#007a9f;stroke-width:2px;"/>
        <path d="M242.107,146.12L135.893,190.88" style="fill:none;fill-rule:nonzero;stroke:#007a9f;stroke-width:2px;"/>
        <path d="M190.5,170.5L190.5,248.5" style="fill:none;fill-rule:nonzero;stroke:#007a9f;stroke-width:4px;"/>
        <path d="M139.842,362.302L163.618,362.302" style="fill:none;fill-rule:nonzero;stroke:#00799a;stroke-width:1px;stroke-linecap:round;"/>
        <path d="M216.654,362.302L240.429,362.302" style="fill:none;fill-rule:nonzero;stroke:#00799a;stroke-width:1px;stroke-linecap:round;"/>
        <path d="M182.583,360.524C182.583,360.689 182.552,360.841 182.49,360.981C182.429,361.122 182.347,361.243 182.244,361.346C182.141,361.449 182.02,361.529 181.88,361.588C181.739,361.647 181.59,361.676 181.431,361.676C181.29,361.676 181.148,361.65 181.005,361.597C180.862,361.544 180.734,361.459 180.623,361.342L172.273,352.623L172.273,361.5L169.988,361.5L169.988,349.872C169.988,349.638 170.054,349.426 170.186,349.235C170.317,349.044 170.486,348.902 170.691,348.809C170.908,348.721 171.13,348.699 171.359,348.743C171.588,348.787 171.784,348.894 171.948,349.063L180.298,357.773L180.298,348.896L182.583,348.896L182.583,360.524Z" style="fill-rule:nonzero;"/>
        <path d="M196.812,361.5L186.388,361.5C186.224,361.5 186.072,361.471 185.931,361.412C185.79,361.353 185.669,361.273 185.567,361.17C185.464,361.068 185.384,360.947 185.325,360.806C185.266,360.665 185.237,360.513 185.237,360.349L185.237,348.896L187.522,348.896L187.522,359.215L196.812,359.215L196.812,361.5Z" style="fill-rule:nonzero;"/>
        <path d="M209.776,361.5L201.532,361.5C201.321,361.5 201.094,361.475 200.851,361.425C200.608,361.376 200.367,361.298 200.13,361.192C199.893,361.087 199.666,360.951 199.449,360.784C199.232,360.617 199.04,360.414 198.873,360.177C198.706,359.94 198.573,359.664 198.473,359.351C198.374,359.038 198.324,358.685 198.324,358.292L198.324,352.104C198.324,351.893 198.349,351.666 198.399,351.423C198.448,351.18 198.526,350.94 198.632,350.703C198.737,350.466 198.875,350.238 199.045,350.021C199.214,349.804 199.418,349.613 199.655,349.446C199.892,349.279 200.166,349.145 200.477,349.046C200.788,348.946 201.139,348.896 201.532,348.896L209.776,348.896L209.776,351.182L201.532,351.182C201.233,351.182 201.005,351.261 200.846,351.419C200.688,351.577 200.609,351.811 200.609,352.122L200.609,358.292C200.609,358.585 200.69,358.812 200.851,358.973C201.012,359.134 201.239,359.215 201.532,359.215L209.776,359.215L209.776,361.5Z" style="fill-rule:nonzero;"/>
        <path d="M66.771,29.5L64.477,29.5L64.477,19.182L62.412,19.182L62.412,16.896L66.771,16.896L66.771,29.5Z" style="fill-rule:nonzero;"/>
        <path d="M83.839,24.227C83.839,24.742 83.773,25.23 83.642,25.69C83.51,26.15 83.324,26.576 83.083,26.969C82.843,27.362 82.559,27.713 82.231,28.023C81.903,28.334 81.544,28.599 81.154,28.819C80.765,29.038 80.35,29.207 79.911,29.324C79.471,29.441 79.023,29.5 78.566,29.5L74.444,29.5C73.981,29.5 73.53,29.441 73.09,29.324C72.651,29.207 72.236,29.038 71.847,28.819C71.457,28.599 71.098,28.334 70.77,28.023C70.442,27.713 70.159,27.362 69.922,26.969C69.685,26.576 69.5,26.15 69.368,25.69C69.236,25.23 69.17,24.742 69.17,24.227L69.17,22.17C69.17,21.397 69.315,20.688 69.605,20.043C69.896,19.398 70.284,18.843 70.77,18.377C71.257,17.912 71.818,17.549 72.453,17.288C73.089,17.027 73.753,16.896 74.444,16.896L78.566,16.896C79.023,16.896 79.471,16.955 79.911,17.072C80.35,17.189 80.765,17.358 81.154,17.578C81.544,17.797 81.903,18.062 82.231,18.373C82.559,18.684 82.843,19.035 83.083,19.428C83.324,19.821 83.51,20.247 83.642,20.707C83.773,21.166 83.839,21.654 83.839,22.17L83.839,24.227ZM81.537,22.17C81.537,21.719 81.455,21.308 81.291,20.939C81.126,20.57 80.908,20.254 80.636,19.99C80.363,19.727 80.048,19.525 79.691,19.384C79.334,19.243 78.959,19.176 78.566,19.182L74.444,19.182C74.063,19.176 73.693,19.242 73.332,19.379C72.971,19.517 72.652,19.716 72.374,19.977C72.096,20.238 71.873,20.554 71.706,20.926C71.539,21.298 71.456,21.713 71.456,22.17L71.456,24.227C71.456,24.684 71.538,25.097 71.702,25.466C71.866,25.835 72.086,26.15 72.361,26.411C72.636,26.672 72.954,26.872 73.314,27.013C73.675,27.154 74.051,27.221 74.444,27.215L78.566,27.215C79.017,27.215 79.426,27.14 79.792,26.991C80.158,26.842 80.47,26.635 80.728,26.371C80.986,26.108 81.185,25.793 81.326,25.426C81.467,25.06 81.537,24.66 81.537,24.227L81.537,22.17ZM80.543,20.5C80.631,20.629 80.69,20.768 80.719,20.917C80.748,21.067 80.748,21.214 80.719,21.357C80.69,21.5 80.633,21.635 80.548,21.761C80.463,21.887 80.353,21.994 80.218,22.082L74.048,26.204C73.949,26.28 73.846,26.333 73.741,26.362C73.636,26.391 73.527,26.406 73.416,26.406C73.228,26.406 73.049,26.362 72.879,26.274C72.71,26.187 72.572,26.061 72.466,25.896C72.378,25.767 72.32,25.628 72.291,25.479C72.262,25.33 72.26,25.183 72.286,25.04C72.313,24.896 72.367,24.761 72.449,24.635C72.531,24.509 72.639,24.402 72.774,24.314L78.961,20.192C79.09,20.105 79.23,20.046 79.379,20.017C79.528,19.988 79.675,19.988 79.818,20.017C79.962,20.046 80.097,20.102 80.223,20.184C80.349,20.266 80.456,20.371 80.543,20.5Z" style="fill-rule:nonzero;"/>
        <path d="M97.524,26.292C97.524,26.509 97.499,26.737 97.449,26.978C97.4,27.218 97.321,27.457 97.212,27.694C97.103,27.931 96.966,28.158 96.799,28.375C96.632,28.592 96.429,28.784 96.192,28.951C95.955,29.118 95.681,29.251 95.371,29.351C95.06,29.45 94.712,29.5 94.325,29.5L85.949,29.5L85.949,27.215L94.325,27.215C94.612,27.215 94.833,27.127 94.988,26.951C95.143,26.776 95.221,26.556 95.221,26.292L95.221,25.272C95.221,24.973 95.145,24.745 94.993,24.587C94.84,24.429 94.612,24.35 94.307,24.35L89.157,24.35C88.565,24.35 88.065,24.243 87.658,24.029C87.251,23.815 86.921,23.547 86.669,23.225C86.417,22.902 86.234,22.554 86.12,22.179C86.006,21.804 85.949,21.455 85.949,21.133L85.949,16.896L96.478,16.896L96.478,19.182L88.234,19.182L88.234,21.133C88.234,21.438 88.313,21.666 88.471,21.818C88.629,21.971 88.858,22.047 89.157,22.047L94.325,22.047C94.641,22.047 94.987,22.104 95.362,22.218C95.737,22.333 96.084,22.517 96.403,22.772C96.722,23.027 96.989,23.359 97.203,23.77C97.417,24.18 97.524,24.681 97.524,25.272L97.524,26.292Z" style="fill-rule:nonzero;"/>
        <path d="M114.003,24.227C114.003,24.742 113.937,25.23 113.806,25.69C113.674,26.15 113.488,26.576 113.248,26.969C113.007,27.362 112.723,27.713 112.395,28.023C112.067,28.334 111.708,28.599 111.318,28.819C110.929,29.038 110.514,29.207 110.075,29.324C109.636,29.441 109.187,29.5 108.73,29.5L104.608,29.5C104.145,29.5 103.694,29.441 103.254,29.324C102.815,29.207 102.4,29.038 102.011,28.819C101.621,28.599 101.262,28.334 100.934,28.023C100.606,27.713 100.323,27.362 100.086,26.969C99.849,26.576 99.664,26.15 99.532,25.69C99.4,25.23 99.334,24.742 99.334,24.227L99.334,22.17C99.334,21.397 99.479,20.688 99.77,20.043C100.06,19.398 100.448,18.843 100.934,18.377C101.421,17.912 101.982,17.549 102.617,17.288C103.253,17.027 103.917,16.896 104.608,16.896L108.73,16.896C109.187,16.896 109.636,16.955 110.075,17.072C110.514,17.189 110.929,17.358 111.318,17.578C111.708,17.797 112.067,18.062 112.395,18.373C112.723,18.684 113.007,19.035 113.248,19.428C113.488,19.821 113.674,20.247 113.806,20.707C113.937,21.166 114.003,21.654 114.003,22.17L114.003,24.227ZM111.701,22.17C111.701,21.719 111.619,21.308 111.455,20.939C111.29,20.57 111.072,20.254 110.8,19.99C110.527,19.727 110.212,19.525 109.855,19.384C109.498,19.243 109.123,19.176 108.73,19.182L104.608,19.182C104.227,19.176 103.857,19.242 103.496,19.379C103.136,19.517 102.817,19.716 102.538,19.977C102.26,20.238 102.037,20.554 101.87,20.926C101.703,21.298 101.62,21.713 101.62,22.17L101.62,24.227C101.62,24.684 101.702,25.097 101.866,25.466C102.03,25.835 102.25,26.15 102.525,26.411C102.8,26.672 103.118,26.872 103.479,27.013C103.839,27.154 104.215,27.221 104.608,27.215L108.73,27.215C109.181,27.215 109.59,27.14 109.956,26.991C110.322,26.842 110.634,26.635 110.892,26.371C111.15,26.108 111.349,25.793 111.49,25.426C111.631,25.06 111.701,24.66 111.701,24.227L111.701,22.17ZM110.708,20.5C110.795,20.629 110.854,20.768 110.883,20.917C110.912,21.067 110.912,21.214 110.883,21.357C110.854,21.5 110.797,21.635 110.712,21.761C110.627,21.887 110.517,21.994 110.382,22.082L104.212,26.204C104.113,26.28 104.01,26.333 103.905,26.362C103.8,26.391 103.691,26.406 103.58,26.406C103.392,26.406 103.213,26.362 103.043,26.274C102.874,26.187 102.736,26.061 102.63,25.896C102.543,25.767 102.484,25.628 102.455,25.479C102.426,25.33 102.424,25.183 102.45,25.04C102.477,24.896 102.531,24.761 102.613,24.635C102.695,24.509 102.803,24.402 102.938,24.314L109.125,20.192C109.254,20.105 109.394,20.046 109.543,20.017C109.692,19.988 109.839,19.988 109.982,20.017C110.126,20.046 110.261,20.102 110.387,20.184C110.513,20.266 110.62,20.371 110.708,20.5Z" style="fill-rule:nonzero;"/>
        <path d="M136.837,29.5L134.535,29.5L134.535,21.994L130.483,29.122C130.383,29.304 130.244,29.442 130.065,29.535C129.886,29.629 129.695,29.676 129.49,29.676C129.291,29.676 129.105,29.629 128.932,29.535C128.759,29.442 128.622,29.304 128.523,29.122L124.454,21.994L124.454,29.5L122.168,29.5L122.168,17.872C122.168,17.609 122.246,17.374 122.401,17.169C122.556,16.964 122.76,16.826 123.012,16.756C123.135,16.727 123.258,16.716 123.381,16.725C123.504,16.734 123.623,16.76 123.737,16.804C123.852,16.848 123.956,16.91 124.049,16.989C124.143,17.068 124.222,17.163 124.287,17.274L129.49,26.318L134.693,17.274C134.828,17.051 135.014,16.893 135.251,16.8C135.488,16.706 135.736,16.691 135.994,16.756C136.24,16.826 136.442,16.964 136.6,17.169C136.758,17.374 136.837,17.609 136.837,17.872L136.837,29.5Z" style="fill-rule:nonzero;"/>
        <rect x="139.509" y="16.896" width="2.285" height="12.604" style="fill-rule:nonzero;"/>
        <path d="M150.223,21.396L154.073,16.896L157.193,16.896L151.77,23.216L157.158,29.5L154.055,29.5L150.223,25.035L146.409,29.5L143.297,29.5L148.676,23.216L143.28,16.896L146.374,16.896L150.223,21.396Z" style="fill-rule:nonzero;"/>
        <path d="M168.926,24.35L161.71,24.35L161.71,22.047L168.926,22.047L168.926,24.35ZM169.955,29.5L161.71,29.5C161.394,29.5 161.048,29.444 160.673,29.333C160.298,29.222 159.951,29.039 159.632,28.784C159.313,28.529 159.046,28.198 158.832,27.791C158.618,27.384 158.511,26.884 158.511,26.292L158.511,18.048C158.511,17.89 158.54,17.741 158.599,17.6C158.658,17.459 158.738,17.336 158.841,17.23C158.944,17.125 159.065,17.043 159.206,16.984C159.347,16.925 159.499,16.896 159.663,16.896L169.955,16.896L169.955,19.182L160.796,19.182L160.796,26.292C160.796,26.591 160.875,26.819 161.034,26.978C161.192,27.136 161.423,27.215 161.728,27.215L169.955,27.215L169.955,29.5Z" style="fill-rule:nonzero;"/>
        <path d="M184.755,21.133C184.755,21.654 184.691,22.12 184.562,22.53C184.433,22.941 184.259,23.303 184.039,23.616C183.819,23.929 183.566,24.197 183.279,24.42C182.992,24.643 182.691,24.826 182.378,24.969C182.065,25.113 181.748,25.217 181.429,25.281C181.11,25.346 180.809,25.378 180.528,25.378L185.3,29.5L181.767,29.5L177.003,25.378L175.36,25.378L175.36,23.093L180.528,23.093C180.815,23.07 181.077,23.01 181.314,22.913C181.551,22.816 181.757,22.686 181.93,22.521C182.103,22.357 182.236,22.159 182.33,21.928C182.423,21.697 182.47,21.432 182.47,21.133L182.47,19.691C182.47,19.562 182.454,19.464 182.422,19.397C182.39,19.33 182.349,19.28 182.299,19.248C182.249,19.215 182.196,19.196 182.141,19.19C182.085,19.185 182.034,19.182 181.987,19.182L174.446,19.182L174.446,29.5L172.161,29.5L172.161,18.048C172.161,17.89 172.19,17.741 172.249,17.6C172.307,17.459 172.387,17.336 172.49,17.23C172.593,17.125 172.714,17.043 172.855,16.984C172.996,16.925 173.148,16.896 173.312,16.896L181.987,16.896C182.496,16.896 182.927,16.988 183.279,17.173C183.63,17.358 183.916,17.589 184.136,17.868C184.355,18.146 184.513,18.446 184.61,18.769C184.707,19.091 184.755,19.393 184.755,19.674L184.755,21.133Z" style="fill-rule:nonzero;"/>
        <path d="M204.917,25.791C204.917,26.242 204.86,26.648 204.746,27.008C204.632,27.369 204.481,27.687 204.293,27.962C204.106,28.237 203.886,28.472 203.634,28.665C203.382,28.858 203.121,29.017 202.852,29.14C202.583,29.263 202.309,29.353 202.03,29.412C201.752,29.471 201.49,29.5 201.244,29.5L192.428,29.5L192.428,27.215L201.244,27.215C201.683,27.215 202.025,27.086 202.268,26.828C202.511,26.57 202.632,26.224 202.632,25.791C202.632,25.58 202.6,25.387 202.536,25.211C202.471,25.035 202.379,24.883 202.259,24.754C202.139,24.625 201.992,24.526 201.819,24.455C201.646,24.385 201.455,24.35 201.244,24.35L195.988,24.35C195.619,24.35 195.22,24.284 194.792,24.152C194.365,24.02 193.968,23.808 193.602,23.515C193.235,23.222 192.931,22.838 192.688,22.363C192.445,21.888 192.323,21.308 192.323,20.623C192.323,19.938 192.445,19.359 192.688,18.887C192.931,18.416 193.235,18.032 193.602,17.736C193.968,17.44 194.365,17.226 194.792,17.094C195.22,16.962 195.619,16.896 195.988,16.896L203.766,16.896L203.766,19.182L195.988,19.182C195.554,19.182 195.216,19.314 194.973,19.577C194.73,19.841 194.608,20.19 194.608,20.623C194.608,21.062 194.73,21.41 194.973,21.665C195.216,21.92 195.554,22.047 195.988,22.047L201.261,22.047C201.507,22.053 201.768,22.087 202.043,22.148C202.319,22.209 202.593,22.305 202.865,22.434C203.138,22.563 203.397,22.725 203.643,22.921C203.889,23.118 204.107,23.354 204.298,23.629C204.488,23.904 204.639,24.221 204.75,24.578C204.861,24.935 204.917,25.34 204.917,25.791Z" style="fill-rule:nonzero;"/>
        <path d="M217.178,24.35L209.962,24.35L209.962,22.047L217.178,22.047L217.178,24.35ZM218.207,29.5L209.962,29.5C209.646,29.5 209.3,29.444 208.925,29.333C208.55,29.222 208.203,29.039 207.884,28.784C207.565,28.529 207.298,28.198 207.084,27.791C206.87,27.384 206.763,26.884 206.763,26.292L206.763,18.048C206.763,17.89 206.792,17.741 206.851,17.6C206.91,17.459 206.99,17.336 207.093,17.23C207.196,17.125 207.317,17.043 207.458,16.984C207.598,16.925 207.75,16.896 207.915,16.896L218.207,16.896L218.207,19.182L209.048,19.182L209.048,26.292C209.048,26.591 209.127,26.819 209.286,26.978C209.444,27.136 209.675,27.215 209.98,27.215L218.207,27.215L218.207,29.5Z" style="fill-rule:nonzero;"/>
        <path d="M233.5,24.402C233.5,24.988 233.422,25.54 233.267,26.059C233.112,26.578 232.892,27.048 232.607,27.47C232.323,27.892 231.98,28.261 231.579,28.577C231.178,28.894 230.731,29.143 230.239,29.324L232.911,31.442L229.597,31.442L227.4,29.676L225.15,29.676C224.394,29.676 223.694,29.546 223.049,29.285C222.405,29.024 221.848,28.659 221.379,28.19C220.91,27.721 220.543,27.165 220.276,26.521C220.009,25.876 219.876,25.17 219.876,24.402L219.876,21.994C219.876,21.233 220.009,20.528 220.276,19.88C220.543,19.233 220.91,18.676 221.379,18.21C221.848,17.745 222.405,17.38 223.049,17.116C223.694,16.853 224.394,16.721 225.15,16.721L228.244,16.721C228.999,16.721 229.698,16.853 230.34,17.116C230.981,17.38 231.536,17.745 232.005,18.21C232.474,18.676 232.84,19.233 233.104,19.88C233.368,20.528 233.5,21.233 233.5,21.994L233.5,24.402ZM231.214,21.994C231.214,21.543 231.142,21.134 230.999,20.768C230.856,20.402 230.654,20.089 230.393,19.828C230.132,19.567 229.818,19.365 229.452,19.221C229.086,19.078 228.683,19.006 228.244,19.006L225.15,19.006C224.705,19.006 224.299,19.078 223.933,19.221C223.566,19.365 223.251,19.567 222.988,19.828C222.724,20.089 222.52,20.402 222.377,20.768C222.234,21.134 222.162,21.543 222.162,21.994L222.162,24.402C222.162,24.853 222.234,25.262 222.377,25.628C222.52,25.995 222.724,26.308 222.988,26.569C223.251,26.83 223.566,27.032 223.933,27.175C224.299,27.319 224.705,27.391 225.15,27.391L228.226,27.391C228.671,27.391 229.077,27.319 229.443,27.175C229.81,27.032 230.125,26.83 230.388,26.569C230.652,26.308 230.856,25.995 230.999,25.628C231.142,25.262 231.214,24.853 231.214,24.402L231.214,21.994Z" style="fill-rule:nonzero;"/>
        <path d="M248.107,28.349C248.107,28.513 248.078,28.665 248.019,28.806C247.96,28.947 247.878,29.068 247.773,29.17C247.668,29.273 247.545,29.353 247.404,29.412C247.263,29.471 247.114,29.5 246.956,29.5L241.805,29.5C241.319,29.5 240.827,29.447 240.329,29.342C239.831,29.237 239.349,29.074 238.883,28.854C238.417,28.634 237.979,28.354 237.569,28.015C237.159,27.675 236.8,27.272 236.492,26.806C236.185,26.34 235.943,25.807 235.767,25.207C235.591,24.606 235.503,23.937 235.503,23.198L235.503,16.896L237.789,16.896L237.789,23.198C237.789,23.843 237.878,24.388 238.057,24.833C238.236,25.278 238.463,25.65 238.738,25.949C239.013,26.248 239.315,26.482 239.643,26.652C239.971,26.822 240.283,26.948 240.579,27.03C240.875,27.112 241.136,27.163 241.361,27.184C241.587,27.205 241.735,27.215 241.805,27.215L245.822,27.215L245.822,16.896L248.107,16.896L248.107,28.349Z" style="fill-rule:nonzero;"/>
        <path d="M261.124,24.35L253.908,24.35L253.908,22.047L261.124,22.047L261.124,24.35ZM262.152,29.5L253.908,29.5C253.591,29.5 253.246,29.444 252.871,29.333C252.496,29.222 252.148,29.039 251.829,28.784C251.51,28.529 251.243,28.198 251.029,27.791C250.815,27.384 250.708,26.884 250.708,26.292L250.708,18.048C250.708,17.89 250.737,17.741 250.796,17.6C250.855,17.459 250.935,17.336 251.038,17.23C251.141,17.125 251.262,17.043 251.403,16.984C251.544,16.925 251.696,16.896 251.86,16.896L262.152,16.896L262.152,19.182L252.994,19.182L252.994,26.292C252.994,26.591 253.073,26.819 253.231,26.978C253.389,27.136 253.62,27.215 253.925,27.215L262.152,27.215L262.152,29.5Z" style="fill-rule:nonzero;"/>
        <path d="M276.953,28.524C276.953,28.689 276.922,28.841 276.86,28.981C276.799,29.122 276.717,29.243 276.614,29.346C276.511,29.449 276.39,29.529 276.25,29.588C276.109,29.647 275.96,29.676 275.801,29.676C275.66,29.676 275.518,29.65 275.375,29.597C275.232,29.544 275.104,29.459 274.993,29.342L266.643,20.623L266.643,29.5L264.358,29.5L264.358,17.872C264.358,17.638 264.424,17.426 264.556,17.235C264.687,17.044 264.856,16.902 265.061,16.809C265.278,16.721 265.5,16.699 265.729,16.743C265.958,16.787 266.154,16.894 266.318,17.063L274.667,25.773L274.667,16.896L276.953,16.896L276.953,28.524Z" style="fill-rule:nonzero;"/>
        <path d="M290.892,29.5L282.648,29.5C282.437,29.5 282.21,29.475 281.967,29.425C281.724,29.376 281.483,29.298 281.246,29.192C281.009,29.087 280.782,28.951 280.565,28.784C280.348,28.617 280.156,28.414 279.989,28.177C279.822,27.94 279.689,27.664 279.589,27.351C279.49,27.038 279.44,26.685 279.44,26.292L279.44,20.104C279.44,19.893 279.465,19.666 279.515,19.423C279.564,19.18 279.642,18.94 279.748,18.703C279.853,18.466 279.991,18.238 280.161,18.021C280.331,17.804 280.534,17.613 280.771,17.446C281.008,17.279 281.282,17.145 281.593,17.046C281.904,16.946 282.255,16.896 282.648,16.896L290.892,16.896L290.892,19.182L282.648,19.182C282.349,19.182 282.121,19.261 281.962,19.419C281.804,19.577 281.725,19.811 281.725,20.122L281.725,26.292C281.725,26.585 281.806,26.812 281.967,26.973C282.128,27.134 282.355,27.215 282.648,27.215L290.892,27.215L290.892,29.5Z" style="fill-rule:nonzero;"/>
        <path d="M303.417,24.35L296.201,24.35L296.201,22.047L303.417,22.047L303.417,24.35ZM304.445,29.5L296.201,29.5C295.884,29.5 295.539,29.444 295.164,29.333C294.789,29.222 294.441,29.039 294.122,28.784C293.803,28.529 293.536,28.198 293.322,27.791C293.108,27.384 293.001,26.884 293.001,26.292L293.001,18.048C293.001,17.89 293.03,17.741 293.089,17.6C293.148,17.459 293.228,17.336 293.331,17.23C293.434,17.125 293.555,17.043 293.696,16.984C293.837,16.925 293.989,16.896 294.153,16.896L304.445,16.896L304.445,19.182L295.287,19.182L295.287,26.292C295.287,26.591 295.366,26.819 295.524,26.978C295.682,27.136 295.913,27.215 296.218,27.215L304.445,27.215L304.445,29.5Z" style="fill-rule:nonzero;"/>
        <path d="M319.246,21.133C319.246,21.654 319.181,22.12 319.052,22.53C318.923,22.941 318.749,23.303 318.529,23.616C318.31,23.929 318.056,24.197 317.769,24.42C317.482,24.643 317.181,24.826 316.868,24.969C316.555,25.113 316.238,25.217 315.919,25.281C315.6,25.346 315.299,25.378 315.018,25.378L319.791,29.5L316.257,29.5L311.494,25.378L309.85,25.378L309.85,23.093L315.018,23.093C315.305,23.07 315.568,23.01 315.805,22.913C316.042,22.816 316.247,22.686 316.42,22.521C316.593,22.357 316.726,22.159 316.82,21.928C316.913,21.697 316.96,21.432 316.96,21.133L316.96,19.691C316.96,19.562 316.944,19.464 316.912,19.397C316.88,19.33 316.839,19.28 316.789,19.248C316.739,19.215 316.686,19.196 316.631,19.19C316.575,19.185 316.524,19.182 316.477,19.182L308.936,19.182L308.936,29.5L306.651,29.5L306.651,18.048C306.651,17.89 306.68,17.741 306.739,17.6C306.798,17.459 306.878,17.336 306.98,17.23C307.083,17.125 307.204,17.043 307.345,16.984C307.486,16.925 307.638,16.896 307.802,16.896L316.477,16.896C316.987,16.896 317.418,16.988 317.769,17.173C318.12,17.358 318.406,17.589 318.626,17.868C318.846,18.146 319.004,18.446 319.101,18.769C319.198,19.091 319.246,19.393 319.246,19.674L319.246,21.133Z" style="fill-rule:nonzero;"/>
        <path d="M324.5,29.078L367.641,29" style="fill:none;fill-rule:nonzero;stroke:#00799a;stroke-width:1px;stroke-linecap:round;"/>
        <path d="M14.5,29.078L57.641,29" style="fill:none;fill-rule:nonzero;stroke:#00799a;stroke-width:1px;stroke-linecap:round;"/>
        <g id="Knob_8">
            <path d="M253,265C253,278.255 242.255,289 229,289C215.745,289 205,278.255 205,265C205,251.745 215.745,241 229,241C242.255,241 253,251.745 253,265Z" style="fill:#00799a;fill-rule:nonzero;"/>
        </g>
        <g id="Knob_2">
            <path d="M115,208C115,221.255 104.255,232 91,232C77.745,232 67,221.255 67,208C67,194.745 77.745,184 91,184C104.255,184 115,194.745 115,208Z" style="fill:#00799a;fill-rule:nonzero;"/>
        </g>
        <g id="Knob_21" serif:id="Knob_2">
            <path d="M115,126C115,139.255 104.255,150 91,150C77.745,150 67,139.255 67,126C67,112.745 77.745,102 91,102C104.255,102 115,112.745 115,126Z" style="fill:#00799a;fill-rule:nonzero;"/>
        </g>
        <g id="Knob_22" serif:id="Knob_2">
            <path d="M310,208C310,221.255 299.255,232 286,232C272.745,232 262,221.255 262,208C262,194.745 272.745,184 286,184C299.255,184 310,194.745 310,208Z" style="fill:#00799a;fill-rule:nonzero;"/>
        </g>
        <g id="Knob_23" serif:id="Knob_2">
            <path d="M310,126C310,139.255 299.255,150 286,150C272.745,150 262,139.255 262,126C262,112.745 272.745,102 286,102C299.255,102 310,112.745 310,126Z" style="fill:#00799a;fill-rule:nonzero;"/>
        </g>
        <g id="Knob_1">
            <path d="M172,71C172,84.255 161.255,95 148,95C134.745,95 124,84.255 124,71C124,57.745 134.745,47 148,47C161.255,47 172,57.745 172,71Z" style="fill:#00799a;fill-rule:nonzero;"/>
        </g>
        <g id="Knob_5">
            <path d="M253,71C253,84.255 242.255,95 229,95C215.745,95 205,84.255 205,71C205,57.745 215.745,47 229,47C242.255,47 253,57.745 253,71Z" style="fill:#00799a;fill-rule:nonzero;"/>
        </g>
        <g id="Knob_4">
            <path d="M172,265C172,278.255 161.255,289 148,289C134.745,289 124,278.255 124,265C124,251.745 134.745,241 148,241C161.255,241 172,251.745 172,265Z" style="fill:#00799a;fill-rule:nonzero;"/>
        </g>
        <path id="circle868" d="M104,71C104,78.18 98.179,84 91,84C83.821,84 78,78.18 78,71C78,63.82 83.821,58 91,58C98.179,58 104,63.82 104,71Z" style="fill:#00799a;fill-rule:nonzero;"/>
        <path d="M92.047,56L91.027,56L91.027,51.414L90.109,51.414L90.109,50.398L92.047,50.398L92.047,56Z" style="fill-rule:nonzero;"/>
        <path id="circle8681" serif:id="circle868" d="M54,127C54,134.18 48.179,140 41,140C33.821,140 28,134.18 28,127C28,119.82 33.821,114 41,114C48.179,114 54,119.82 54,127Z" style="fill:#00799a;fill-rule:nonzero;"/>
        <path d="M36.799,147L31.654,147L31.654,145.121C31.654,145.025 31.665,144.923 31.688,144.814C31.71,144.706 31.744,144.599 31.791,144.492C31.838,144.385 31.898,144.284 31.973,144.188C32.047,144.091 32.137,144.006 32.242,143.932C32.347,143.857 32.469,143.798 32.607,143.754C32.745,143.71 32.901,143.688 33.076,143.688L35.365,143.688C35.503,143.688 35.605,143.653 35.672,143.584C35.738,143.515 35.771,143.414 35.771,143.281L35.771,142.832C35.771,142.694 35.737,142.59 35.67,142.52C35.602,142.449 35.503,142.414 35.373,142.414L32.111,142.414L32.111,141.398L35.373,141.398C35.545,141.398 35.7,141.42 35.838,141.465C35.976,141.509 36.098,141.568 36.203,141.643C36.308,141.717 36.399,141.802 36.475,141.898C36.55,141.995 36.612,142.096 36.66,142.201C36.708,142.306 36.743,142.413 36.766,142.521C36.788,142.63 36.799,142.731 36.799,142.824L36.799,143.281C36.799,143.544 36.751,143.766 36.656,143.947C36.561,144.128 36.442,144.276 36.299,144.389C36.156,144.502 36.001,144.584 35.836,144.635C35.671,144.686 35.516,144.711 35.373,144.711L33.076,144.711C32.993,144.711 32.926,144.723 32.877,144.746C32.828,144.769 32.789,144.801 32.762,144.84C32.735,144.879 32.714,144.923 32.701,144.973C32.688,145.022 32.678,145.072 32.67,145.121L32.67,145.984L36.799,145.984L36.799,147Z" style="fill-rule:nonzero;"/>
        <path id="circle8682" serif:id="circle868" d="M54,209C54,216.18 48.179,222 41,222C33.821,222 28,216.18 28,209C28,201.82 33.821,196 41,196C48.179,196 54,201.82 54,209Z" style="fill:#00799a;fill-rule:nonzero;"/>
        <path d="M36.58,192.574C36.58,192.837 36.533,193.059 36.438,193.24C36.343,193.421 36.224,193.569 36.082,193.682C35.94,193.795 35.786,193.877 35.619,193.926C35.452,193.975 35.297,194 35.154,194L31.896,194L31.896,192.984L35.154,192.984C35.292,192.984 35.394,192.949 35.461,192.879C35.528,192.808 35.561,192.707 35.561,192.574L35.561,191.711L31.896,191.711L31.896,190.688L35.561,190.688L35.561,189.832C35.561,189.553 35.425,189.414 35.154,189.414L31.896,189.414L31.896,188.398L35.154,188.398C35.329,188.398 35.485,188.42 35.623,188.465C35.761,188.509 35.883,188.568 35.988,188.643C36.093,188.717 36.184,188.802 36.26,188.898C36.335,188.995 36.396,189.096 36.443,189.201C36.49,189.306 36.525,189.413 36.547,189.521C36.569,189.63 36.58,189.731 36.58,189.824L36.58,192.574Z" style="fill-rule:nonzero;"/>
        <path id="circle8683" serif:id="circle868" d="M104,265C104,272.18 98.179,278 91,278C83.821,278 78,272.18 78,265C78,257.82 83.821,252 91,252C98.179,252 104,257.82 104,265Z" style="fill:#00799a;fill-rule:nonzero;"/>
        <path d="M93.723,285L92.699,285L92.699,282.711L89.09,282.711C89.017,282.711 88.949,282.697 88.887,282.67C88.824,282.643 88.77,282.606 88.725,282.561C88.679,282.515 88.643,282.461 88.617,282.398C88.591,282.336 88.578,282.27 88.578,282.199L88.578,279.398L89.594,279.398L89.594,281.688L92.699,281.688L92.699,279.398L93.723,279.398L93.723,285Z" style="fill-rule:nonzero;"/>
        <path id="circle8684" serif:id="circle868" d="M300,71C300,78.18 294.179,84 287,84C279.821,84 274,78.18 274,71C274,63.82 279.821,58 287,58C294.179,58 300,63.82 300,71Z" style="fill:#00799a;fill-rule:nonzero;"/>
        <path d="M288.893,54.574C288.893,54.671 288.882,54.772 288.859,54.879C288.837,54.986 288.802,55.092 288.754,55.197C288.706,55.302 288.645,55.403 288.57,55.5C288.496,55.597 288.406,55.682 288.301,55.756C288.196,55.83 288.074,55.889 287.936,55.934C287.798,55.978 287.643,56 287.471,56L283.748,56L283.748,54.984L287.471,54.984C287.598,54.984 287.697,54.945 287.766,54.867C287.835,54.789 287.869,54.691 287.869,54.574L287.869,54.121C287.869,53.988 287.835,53.887 287.768,53.816C287.7,53.746 287.598,53.711 287.463,53.711L285.174,53.711C284.911,53.711 284.689,53.663 284.508,53.568C284.327,53.473 284.18,53.354 284.068,53.211C283.956,53.068 283.875,52.913 283.824,52.746C283.773,52.579 283.748,52.424 283.748,52.281L283.748,50.398L288.428,50.398L288.428,51.414L284.764,51.414L284.764,52.281C284.764,52.416 284.799,52.518 284.869,52.586C284.94,52.654 285.041,52.688 285.174,52.688L287.471,52.688C287.612,52.688 287.765,52.713 287.932,52.764C288.099,52.815 288.253,52.897 288.395,53.01C288.536,53.123 288.655,53.271 288.75,53.453C288.845,53.636 288.893,53.858 288.893,54.121L288.893,54.574Z" style="fill-rule:nonzero;"/>
        <path id="circle8685" serif:id="circle868" d="M353,127C353,134.18 347.179,140 340,140C332.821,140 327,134.18 327,127C327,119.82 332.821,114 340,114C347.179,114 353,119.82 353,127Z" style="fill:#00799a;fill-rule:nonzero;"/>
        <path d="M344.766,143.688L347.469,143.688C347.612,143.688 347.767,143.713 347.932,143.764C348.097,143.815 348.252,143.897 348.395,144.01C348.538,144.123 348.657,144.271 348.752,144.453C348.847,144.636 348.895,144.858 348.895,145.121L348.895,145.574C348.895,145.671 348.884,145.772 348.861,145.879C348.839,145.986 348.804,146.092 348.756,146.197C348.708,146.302 348.647,146.403 348.572,146.5C348.498,146.597 348.408,146.682 348.303,146.756C348.198,146.83 348.076,146.889 347.938,146.934C347.799,146.978 347.643,147 347.469,147L345.629,147C345.504,147 345.37,146.986 345.229,146.957C345.087,146.928 344.947,146.882 344.809,146.818C344.671,146.755 344.537,146.674 344.408,146.576C344.279,146.479 344.167,146.36 344.07,146.221C343.974,146.082 343.897,145.921 343.838,145.738C343.779,145.556 343.75,145.35 343.75,145.121L343.75,143.281C343.75,143.052 343.779,142.847 343.838,142.664C343.897,142.482 343.974,142.321 344.07,142.182C344.167,142.043 344.279,141.923 344.408,141.824C344.537,141.725 344.671,141.644 344.809,141.58C344.947,141.516 345.087,141.47 345.229,141.441C345.37,141.412 345.504,141.398 345.629,141.398L348.176,141.398L348.176,142.414L345.629,142.414C345.499,142.425 345.381,142.452 345.275,142.496C345.17,142.54 345.079,142.599 345.004,142.672C344.929,142.745 344.87,142.833 344.828,142.936C344.787,143.039 344.766,143.154 344.766,143.281L344.766,143.688ZM344.766,144.711L344.766,145.121C344.766,145.254 344.789,145.373 344.834,145.479C344.879,145.584 344.941,145.675 345.02,145.75C345.098,145.825 345.19,145.883 345.295,145.924C345.4,145.964 345.514,145.984 345.637,145.984L347.469,145.984C347.599,145.984 347.699,145.945 347.768,145.867C347.837,145.789 347.871,145.691 347.871,145.574L347.871,145.121C347.871,144.988 347.837,144.887 347.77,144.816C347.702,144.746 347.599,144.711 347.461,144.711L344.766,144.711Z" style="fill-rule:nonzero;"/>
        <path id="circle8686" serif:id="circle868" d="M353,209C353,216.18 347.179,222 340,222C332.821,222 327,216.18 327,209C327,201.82 332.821,196 340,196C347.179,196 353,201.82 353,209Z" style="fill:#00799a;fill-rule:nonzero;"/>
        <path d="M348.564,188.656C348.609,188.737 348.631,188.822 348.631,188.912C348.631,189.002 348.609,189.087 348.564,189.168L345.748,194L344.572,194L347.236,189.414L343.947,189.414L343.947,188.398L348.123,188.398C348.214,188.398 348.3,188.421 348.379,188.467C348.458,188.512 348.52,188.575 348.564,188.656Z" style="fill-rule:nonzero;"/>
        <path id="circle8687" serif:id="circle868" d="M299,265C299,272.18 293.179,278 286,278C278.821,278 273,272.18 273,265C273,257.82 278.821,252 286,252C293.179,252 299,257.82 299,265Z" style="fill:#00799a;fill-rule:nonzero;"/>
        <path d="M288.824,283.574C288.824,283.671 288.813,283.772 288.791,283.879C288.769,283.986 288.734,284.092 288.686,284.197C288.637,284.302 288.575,284.403 288.5,284.5C288.425,284.597 288.334,284.682 288.229,284.756C288.123,284.83 288.001,284.889 287.863,284.934C287.725,284.978 287.57,285 287.398,285L285.102,285C284.961,285 284.808,284.975 284.641,284.926C284.474,284.877 284.32,284.795 284.178,284.682C284.036,284.569 283.917,284.421 283.822,284.24C283.727,284.059 283.68,283.837 283.68,283.574L283.68,283.121C283.68,283.022 283.691,282.918 283.713,282.809C283.735,282.7 283.77,282.591 283.818,282.484C283.867,282.377 283.929,282.276 284.004,282.18C284.079,282.083 284.17,282 284.277,281.93C284.23,281.821 284.195,281.71 284.172,281.598C284.149,281.486 284.137,281.38 284.137,281.281L284.137,280.824C284.137,280.564 284.184,280.343 284.279,280.16C284.374,279.978 284.493,279.831 284.635,279.719C284.777,279.607 284.931,279.526 285.098,279.475C285.265,279.424 285.418,279.398 285.559,279.398L286.934,279.398C287.108,279.398 287.265,279.42 287.404,279.465C287.543,279.509 287.666,279.568 287.771,279.643C287.877,279.717 287.967,279.802 288.041,279.898C288.115,279.995 288.176,280.096 288.223,280.201C288.27,280.306 288.304,280.413 288.326,280.521C288.348,280.63 288.359,280.731 288.359,280.824L288.359,281.281C288.359,281.536 288.314,281.758 288.223,281.945C288.306,282 288.384,282.064 288.457,282.139C288.53,282.213 288.593,282.298 288.648,282.395C288.703,282.491 288.746,282.6 288.777,282.721C288.808,282.842 288.824,282.975 288.824,283.121L288.824,283.574ZM287.344,280.832C287.344,280.694 287.309,280.59 287.238,280.52C287.168,280.449 287.067,280.414 286.934,280.414L285.566,280.414C285.428,280.414 285.326,280.449 285.26,280.52C285.193,280.59 285.16,280.691 285.16,280.824L285.16,281.281C285.16,281.416 285.195,281.518 285.264,281.586C285.333,281.654 285.431,281.688 285.559,281.688L286.934,281.688C287.072,281.688 287.175,281.653 287.242,281.584C287.31,281.515 287.344,281.414 287.344,281.281L287.344,280.832ZM287.797,283.121C287.797,282.991 287.761,282.89 287.689,282.818C287.618,282.747 287.521,282.711 287.398,282.711L285.102,282.711C284.977,282.711 284.878,282.75 284.805,282.828C284.732,282.906 284.695,283.004 284.695,283.121L284.695,283.574C284.695,283.699 284.734,283.799 284.811,283.873C284.888,283.947 284.985,283.984 285.102,283.984L287.398,283.984C287.529,283.984 287.628,283.945 287.695,283.867C287.763,283.789 287.797,283.691 287.797,283.574L287.797,283.121Z" style="fill-rule:nonzero;"/>
        <rect x="33.797" y="255.398" width="1.016" height="5.602" style="fill-rule:nonzero;"/>
        <path d="M41.598,260.566C41.598,260.639 41.584,260.707 41.557,260.77C41.53,260.832 41.493,260.886 41.447,260.932C41.402,260.977 41.348,261.013 41.285,261.039C41.222,261.065 41.156,261.078 41.086,261.078C41.023,261.078 40.96,261.066 40.896,261.043C40.833,261.02 40.776,260.982 40.727,260.93L37.016,257.055L37.016,261L36,261L36,255.832C36,255.728 36.029,255.634 36.088,255.549C36.147,255.464 36.222,255.401 36.313,255.359C36.409,255.32 36.508,255.311 36.609,255.33C36.711,255.349 36.798,255.397 36.871,255.473L40.582,259.344L40.582,255.398L41.598,255.398L41.598,260.566Z" style="fill-rule:nonzero;"/>
        <path d="M48.359,257.742C48.359,257.974 48.33,258.181 48.273,258.363C48.216,258.546 48.139,258.707 48.041,258.846C47.944,258.985 47.831,259.104 47.703,259.203C47.576,259.302 47.442,259.383 47.303,259.445C47.164,259.508 47.023,259.553 46.881,259.582C46.739,259.611 46.605,259.625 46.48,259.625L44.184,259.625L44.184,258.609L46.48,258.609C46.611,258.599 46.729,258.572 46.834,258.529C46.939,258.486 47.03,258.428 47.105,258.355C47.181,258.282 47.24,258.195 47.281,258.092C47.323,257.989 47.344,257.873 47.344,257.742L47.344,257.281C47.331,257.154 47.303,257.037 47.262,256.93C47.22,256.823 47.163,256.732 47.092,256.656C47.02,256.581 46.933,256.522 46.832,256.479C46.731,256.436 46.613,256.414 46.48,256.414L44.191,256.414C44.056,256.414 43.953,256.449 43.883,256.52C43.812,256.59 43.777,256.691 43.777,256.824L43.777,261L42.762,261L42.762,256.824C42.762,256.564 42.809,256.343 42.904,256.16C42.999,255.978 43.118,255.831 43.26,255.719C43.402,255.607 43.556,255.526 43.723,255.475C43.89,255.424 44.043,255.398 44.184,255.398L46.48,255.398C46.709,255.398 46.915,255.427 47.098,255.486C47.28,255.545 47.441,255.623 47.58,255.721C47.719,255.818 47.838,255.931 47.936,256.059C48.033,256.186 48.114,256.32 48.178,256.459C48.241,256.598 48.287,256.739 48.316,256.881C48.345,257.023 48.359,257.156 48.359,257.281L48.359,257.742Z" style="fill-rule:nonzero;"/>
        <path d="M54.715,260.488C54.715,260.561 54.702,260.629 54.676,260.691C54.65,260.754 54.613,260.808 54.566,260.854C54.519,260.899 54.465,260.935 54.402,260.961C54.34,260.987 54.274,261 54.203,261L51.914,261C51.698,261 51.479,260.977 51.258,260.93C51.037,260.883 50.822,260.81 50.615,260.713C50.408,260.615 50.214,260.491 50.031,260.34C49.849,260.189 49.69,260.01 49.553,259.803C49.416,259.596 49.309,259.359 49.23,259.092C49.152,258.825 49.113,258.527 49.113,258.199L49.113,255.398L50.129,255.398L50.129,258.199C50.129,258.486 50.169,258.728 50.248,258.926C50.327,259.124 50.428,259.289 50.551,259.422C50.673,259.555 50.807,259.659 50.953,259.734C51.099,259.81 51.238,259.866 51.369,259.902C51.5,259.939 51.616,259.962 51.717,259.971C51.817,259.98 51.883,259.984 51.914,259.984L53.699,259.984L53.699,255.398L54.715,255.398L54.715,260.488Z" style="fill-rule:nonzero;"/>
        <path d="M60.957,256.414L58.719,256.414L58.719,261L57.703,261L57.703,256.414L55.461,256.414L55.461,255.398L60.957,255.398L60.957,256.414Z" style="fill-rule:nonzero;"/>
        <path d="M67.086,259.352C67.086,259.552 67.061,259.732 67.01,259.893C66.959,260.053 66.892,260.194 66.809,260.316C66.726,260.439 66.628,260.543 66.516,260.629C66.404,260.715 66.288,260.785 66.168,260.84C66.048,260.895 65.926,260.935 65.803,260.961C65.679,260.987 65.562,261 65.453,261L61.535,261L61.535,259.984L65.453,259.984C65.648,259.984 65.8,259.927 65.908,259.812C66.016,259.698 66.07,259.545 66.07,259.352C66.07,259.258 66.056,259.172 66.027,259.094C65.998,259.016 65.957,258.948 65.904,258.891C65.851,258.834 65.786,258.789 65.709,258.758C65.632,258.727 65.547,258.711 65.453,258.711L63.117,258.711C62.953,258.711 62.776,258.682 62.586,258.623C62.396,258.564 62.22,258.47 62.057,258.34C61.894,258.21 61.759,258.039 61.65,257.828C61.542,257.617 61.488,257.36 61.488,257.055C61.488,256.75 61.542,256.493 61.65,256.283C61.759,256.074 61.894,255.903 62.057,255.771C62.22,255.64 62.396,255.545 62.586,255.486C62.776,255.427 62.953,255.398 63.117,255.398L66.574,255.398L66.574,256.414L63.117,256.414C62.924,256.414 62.774,256.473 62.666,256.59C62.558,256.707 62.504,256.862 62.504,257.055C62.504,257.25 62.558,257.405 62.666,257.518C62.774,257.631 62.924,257.688 63.117,257.688L65.461,257.688C65.57,257.69 65.686,257.705 65.809,257.732C65.931,257.759 66.053,257.802 66.174,257.859C66.295,257.916 66.41,257.989 66.52,258.076C66.629,258.163 66.726,258.268 66.811,258.391C66.896,258.513 66.963,258.653 67.012,258.812C67.061,258.971 67.086,259.151 67.086,259.352Z" style="fill-rule:nonzero;"/>
        <rect x="335.047" y="255.398" width="1.015" height="5.602" style="fill-rule:nonzero;"/>
        <path d="M342.848,260.566C342.848,260.639 342.834,260.707 342.807,260.77C342.78,260.832 342.743,260.886 342.697,260.932C342.652,260.977 342.598,261.013 342.535,261.039C342.472,261.065 342.406,261.078 342.336,261.078C342.273,261.078 342.21,261.066 342.146,261.043C342.083,261.02 342.026,260.982 341.977,260.93L338.266,257.055L338.266,261L337.25,261L337.25,255.832C337.25,255.728 337.279,255.634 337.338,255.549C337.397,255.464 337.471,255.401 337.562,255.359C337.659,255.32 337.758,255.311 337.859,255.33C337.961,255.349 338.048,255.397 338.121,255.473L341.832,259.344L341.832,255.398L342.848,255.398L342.848,260.566Z" style="fill-rule:nonzero;"/>
        <path d="M349.609,257.742C349.609,257.974 349.58,258.181 349.523,258.363C349.466,258.546 349.389,258.707 349.291,258.846C349.194,258.985 349.081,259.104 348.953,259.203C348.826,259.302 348.692,259.383 348.553,259.445C348.414,259.508 348.273,259.553 348.131,259.582C347.989,259.611 347.855,259.625 347.73,259.625L345.434,259.625L345.434,258.609L347.73,258.609C347.861,258.599 347.979,258.572 348.084,258.529C348.189,258.486 348.28,258.428 348.355,258.355C348.431,258.282 348.49,258.195 348.531,258.092C348.573,257.989 348.594,257.873 348.594,257.742L348.594,257.281C348.581,257.154 348.553,257.037 348.512,256.93C348.47,256.823 348.413,256.732 348.342,256.656C348.27,256.581 348.183,256.522 348.082,256.479C347.981,256.436 347.863,256.414 347.73,256.414L345.441,256.414C345.306,256.414 345.203,256.449 345.133,256.52C345.062,256.59 345.027,256.691 345.027,256.824L345.027,261L344.012,261L344.012,256.824C344.012,256.564 344.059,256.343 344.154,256.16C344.249,255.978 344.368,255.831 344.51,255.719C344.652,255.607 344.806,255.526 344.973,255.475C345.14,255.424 345.293,255.398 345.434,255.398L347.73,255.398C347.959,255.398 348.165,255.427 348.348,255.486C348.53,255.545 348.691,255.623 348.83,255.721C348.969,255.818 349.088,255.931 349.186,256.059C349.283,256.186 349.364,256.32 349.428,256.459C349.491,256.598 349.537,256.739 349.566,256.881C349.595,257.023 349.609,257.156 349.609,257.281L349.609,257.742Z" style="fill-rule:nonzero;"/>
        <path d="M355.965,260.488C355.965,260.561 355.952,260.629 355.926,260.691C355.9,260.754 355.863,260.808 355.816,260.854C355.769,260.899 355.715,260.935 355.652,260.961C355.59,260.987 355.524,261 355.453,261L353.164,261C352.948,261 352.729,260.977 352.508,260.93C352.287,260.883 352.072,260.81 351.865,260.713C351.658,260.615 351.464,260.491 351.281,260.34C351.099,260.189 350.94,260.01 350.803,259.803C350.666,259.596 350.559,259.359 350.48,259.092C350.402,258.825 350.363,258.527 350.363,258.199L350.363,255.398L351.379,255.398L351.379,258.199C351.379,258.486 351.419,258.728 351.498,258.926C351.577,259.124 351.678,259.289 351.801,259.422C351.923,259.555 352.057,259.659 352.203,259.734C352.349,259.81 352.488,259.866 352.619,259.902C352.75,259.939 352.866,259.962 352.967,259.971C353.067,259.98 353.133,259.984 353.164,259.984L354.949,259.984L354.949,255.398L355.965,255.398L355.965,260.488Z" style="fill-rule:nonzero;"/>
        <path d="M362.207,256.414L359.969,256.414L359.969,261L358.953,261L358.953,256.414L356.711,256.414L356.711,255.398L362.207,255.398L362.207,256.414Z" style="fill-rule:nonzero;"/>
        <path d="M368.336,259.352C368.336,259.552 368.311,259.732 368.26,259.893C368.209,260.053 368.142,260.194 368.059,260.316C367.976,260.439 367.878,260.543 367.766,260.629C367.654,260.715 367.538,260.785 367.418,260.84C367.298,260.895 367.176,260.935 367.053,260.961C366.929,260.987 366.812,261 366.703,261L362.785,261L362.785,259.984L366.703,259.984C366.898,259.984 367.05,259.927 367.158,259.812C367.266,259.698 367.32,259.545 367.32,259.352C367.32,259.258 367.306,259.172 367.277,259.094C367.248,259.016 367.207,258.948 367.154,258.891C367.101,258.834 367.036,258.789 366.959,258.758C366.882,258.727 366.797,258.711 366.703,258.711L364.367,258.711C364.203,258.711 364.026,258.682 363.836,258.623C363.646,258.564 363.47,258.47 363.307,258.34C363.144,258.21 363.008,258.039 362.9,257.828C362.792,257.617 362.738,257.36 362.738,257.055C362.738,256.75 362.792,256.493 362.9,256.283C363.008,256.074 363.144,255.903 363.307,255.771C363.47,255.64 363.646,255.545 363.836,255.486C364.026,255.427 364.203,255.398 364.367,255.398L367.824,255.398L367.824,256.414L364.367,256.414C364.174,256.414 364.024,256.473 363.916,256.59C363.808,256.707 363.754,256.862 363.754,257.055C363.754,257.25 363.808,257.405 363.916,257.518C364.024,257.631 364.174,257.688 364.367,257.688L366.711,257.688C366.82,257.69 366.936,257.705 367.059,257.732C367.181,257.759 367.303,257.802 367.424,257.859C367.545,257.916 367.66,257.989 367.77,258.076C367.879,258.163 367.976,258.268 368.061,258.391C368.146,258.513 368.213,258.653 368.262,258.812C368.311,258.971 368.336,259.151 368.336,259.352Z" style="fill-rule:nonzero;"/>
        <rect x="33.547" y="77.398" width="1.016" height="5.602" style="fill-rule:nonzero;"/>
        <path d="M41.348,82.566C41.348,82.639 41.334,82.707 41.307,82.77C41.28,82.832 41.243,82.886 41.197,82.932C41.152,82.977 41.098,83.013 41.035,83.039C40.972,83.065 40.906,83.078 40.836,83.078C40.773,83.078 40.71,83.066 40.646,83.043C40.583,83.02 40.526,82.982 40.477,82.93L36.766,79.055L36.766,83L35.75,83L35.75,77.832C35.75,77.728 35.779,77.634 35.838,77.549C35.897,77.464 35.972,77.401 36.063,77.359C36.159,77.32 36.258,77.311 36.359,77.33C36.461,77.349 36.548,77.397 36.621,77.473L40.332,81.344L40.332,77.398L41.348,77.398L41.348,82.566Z" style="fill-rule:nonzero;"/>
        <path d="M48.109,79.742C48.109,79.974 48.08,80.181 48.023,80.363C47.966,80.546 47.889,80.707 47.791,80.846C47.694,80.985 47.581,81.104 47.453,81.203C47.326,81.302 47.192,81.383 47.053,81.445C46.914,81.508 46.773,81.553 46.631,81.582C46.489,81.611 46.355,81.625 46.23,81.625L43.934,81.625L43.934,80.609L46.23,80.609C46.361,80.599 46.479,80.572 46.584,80.529C46.689,80.486 46.78,80.428 46.855,80.355C46.931,80.282 46.99,80.195 47.031,80.092C47.073,79.989 47.094,79.873 47.094,79.742L47.094,79.281C47.081,79.154 47.053,79.037 47.012,78.93C46.97,78.823 46.913,78.732 46.842,78.656C46.77,78.581 46.683,78.522 46.582,78.479C46.481,78.436 46.363,78.414 46.23,78.414L43.941,78.414C43.806,78.414 43.703,78.449 43.633,78.52C43.562,78.59 43.527,78.691 43.527,78.824L43.527,83L42.512,83L42.512,78.824C42.512,78.564 42.559,78.343 42.654,78.16C42.749,77.978 42.868,77.831 43.01,77.719C43.152,77.607 43.306,77.526 43.473,77.475C43.64,77.424 43.793,77.398 43.934,77.398L46.23,77.398C46.459,77.398 46.665,77.427 46.848,77.486C47.03,77.545 47.191,77.623 47.33,77.721C47.469,77.818 47.588,77.931 47.686,78.059C47.783,78.186 47.864,78.32 47.928,78.459C47.991,78.598 48.037,78.739 48.066,78.881C48.095,79.023 48.109,79.156 48.109,79.281L48.109,79.742Z" style="fill-rule:nonzero;"/>
        <path d="M54.465,82.488C54.465,82.561 54.452,82.629 54.426,82.691C54.4,82.754 54.363,82.808 54.316,82.854C54.269,82.899 54.215,82.935 54.152,82.961C54.09,82.987 54.024,83 53.953,83L51.664,83C51.448,83 51.229,82.977 51.008,82.93C50.787,82.883 50.572,82.81 50.365,82.713C50.158,82.615 49.964,82.491 49.781,82.34C49.599,82.189 49.44,82.01 49.303,81.803C49.166,81.596 49.059,81.359 48.98,81.092C48.902,80.825 48.863,80.527 48.863,80.199L48.863,77.398L49.879,77.398L49.879,80.199C49.879,80.486 49.919,80.728 49.998,80.926C50.077,81.124 50.178,81.289 50.301,81.422C50.423,81.555 50.557,81.659 50.703,81.734C50.849,81.81 50.988,81.866 51.119,81.902C51.25,81.939 51.366,81.962 51.467,81.971C51.567,81.98 51.633,81.984 51.664,81.984L53.449,81.984L53.449,77.398L54.465,77.398L54.465,82.488Z" style="fill-rule:nonzero;"/>
        <path d="M60.707,78.414L58.469,78.414L58.469,83L57.453,83L57.453,78.414L55.211,78.414L55.211,77.398L60.707,77.398L60.707,78.414Z" style="fill-rule:nonzero;"/>
        <path d="M66.836,81.352C66.836,81.552 66.811,81.732 66.76,81.893C66.709,82.053 66.642,82.194 66.559,82.316C66.476,82.439 66.378,82.543 66.266,82.629C66.154,82.715 66.038,82.785 65.918,82.84C65.798,82.895 65.676,82.935 65.553,82.961C65.429,82.987 65.312,83 65.203,83L61.285,83L61.285,81.984L65.203,81.984C65.398,81.984 65.55,81.927 65.658,81.812C65.766,81.698 65.82,81.545 65.82,81.352C65.82,81.258 65.806,81.172 65.777,81.094C65.748,81.016 65.707,80.948 65.654,80.891C65.601,80.834 65.536,80.789 65.459,80.758C65.382,80.727 65.297,80.711 65.203,80.711L62.867,80.711C62.703,80.711 62.526,80.682 62.336,80.623C62.146,80.564 61.97,80.47 61.807,80.34C61.644,80.21 61.509,80.039 61.4,79.828C61.292,79.617 61.238,79.36 61.238,79.055C61.238,78.75 61.292,78.493 61.4,78.283C61.509,78.074 61.644,77.903 61.807,77.771C61.97,77.64 62.146,77.545 62.336,77.486C62.526,77.427 62.703,77.398 62.867,77.398L66.324,77.398L66.324,78.414L62.867,78.414C62.674,78.414 62.524,78.473 62.416,78.59C62.308,78.707 62.254,78.862 62.254,79.055C62.254,79.25 62.308,79.405 62.416,79.518C62.524,79.631 62.674,79.688 62.867,79.688L65.211,79.688C65.32,79.69 65.436,79.705 65.559,79.732C65.681,79.759 65.803,79.802 65.924,79.859C66.045,79.916 66.16,79.989 66.27,80.076C66.379,80.163 66.476,80.268 66.561,80.391C66.646,80.513 66.713,80.653 66.762,80.812C66.811,80.971 66.836,81.151 66.836,81.352Z" style="fill-rule:nonzero;"/>
        <rect x="334.797" y="77.398" width="1.015" height="5.602" style="fill-rule:nonzero;"/>
        <path d="M342.598,82.566C342.598,82.639 342.584,82.707 342.557,82.77C342.53,82.832 342.493,82.886 342.447,82.932C342.402,82.977 342.348,83.013 342.285,83.039C342.222,83.065 342.156,83.078 342.086,83.078C342.023,83.078 341.96,83.066 341.896,83.043C341.833,83.02 341.776,82.982 341.727,82.93L338.016,79.055L338.016,83L337,83L337,77.832C337,77.728 337.029,77.634 337.088,77.549C337.147,77.464 337.221,77.401 337.312,77.359C337.409,77.32 337.508,77.311 337.609,77.33C337.711,77.349 337.798,77.397 337.871,77.473L341.582,81.344L341.582,77.398L342.598,77.398L342.598,82.566Z" style="fill-rule:nonzero;"/>
        <path d="M349.359,79.742C349.359,79.974 349.33,80.181 349.273,80.363C349.216,80.546 349.139,80.707 349.041,80.846C348.944,80.985 348.831,81.104 348.703,81.203C348.576,81.302 348.442,81.383 348.303,81.445C348.164,81.508 348.023,81.553 347.881,81.582C347.739,81.611 347.605,81.625 347.48,81.625L345.184,81.625L345.184,80.609L347.48,80.609C347.611,80.599 347.729,80.572 347.834,80.529C347.939,80.486 348.03,80.428 348.105,80.355C348.181,80.282 348.24,80.195 348.281,80.092C348.323,79.989 348.344,79.873 348.344,79.742L348.344,79.281C348.331,79.154 348.303,79.037 348.262,78.93C348.22,78.823 348.163,78.732 348.092,78.656C348.02,78.581 347.933,78.522 347.832,78.479C347.731,78.436 347.613,78.414 347.48,78.414L345.191,78.414C345.056,78.414 344.953,78.449 344.883,78.52C344.812,78.59 344.777,78.691 344.777,78.824L344.777,83L343.762,83L343.762,78.824C343.762,78.564 343.809,78.343 343.904,78.16C343.999,77.978 344.118,77.831 344.26,77.719C344.402,77.607 344.556,77.526 344.723,77.475C344.89,77.424 345.043,77.398 345.184,77.398L347.48,77.398C347.709,77.398 347.915,77.427 348.098,77.486C348.28,77.545 348.441,77.623 348.58,77.721C348.719,77.818 348.838,77.931 348.936,78.059C349.033,78.186 349.114,78.32 349.178,78.459C349.241,78.598 349.287,78.739 349.316,78.881C349.345,79.023 349.359,79.156 349.359,79.281L349.359,79.742Z" style="fill-rule:nonzero;"/>
        <path d="M355.715,82.488C355.715,82.561 355.702,82.629 355.676,82.691C355.65,82.754 355.613,82.808 355.566,82.854C355.519,82.899 355.465,82.935 355.402,82.961C355.34,82.987 355.274,83 355.203,83L352.914,83C352.698,83 352.479,82.977 352.258,82.93C352.037,82.883 351.822,82.81 351.615,82.713C351.408,82.615 351.214,82.491 351.031,82.34C350.849,82.189 350.69,82.01 350.553,81.803C350.416,81.596 350.309,81.359 350.23,81.092C350.152,80.825 350.113,80.527 350.113,80.199L350.113,77.398L351.129,77.398L351.129,80.199C351.129,80.486 351.169,80.728 351.248,80.926C351.327,81.124 351.428,81.289 351.551,81.422C351.673,81.555 351.807,81.659 351.953,81.734C352.099,81.81 352.238,81.866 352.369,81.902C352.5,81.939 352.616,81.962 352.717,81.971C352.817,81.98 352.883,81.984 352.914,81.984L354.699,81.984L354.699,77.398L355.715,77.398L355.715,82.488Z" style="fill-rule:nonzero;"/>
        <path d="M361.957,78.414L359.719,78.414L359.719,83L358.703,83L358.703,78.414L356.461,78.414L356.461,77.398L361.957,77.398L361.957,78.414Z" style="fill-rule:nonzero;"/>
        <path d="M368.086,81.352C368.086,81.552 368.061,81.732 368.01,81.893C367.959,82.053 367.892,82.194 367.809,82.316C367.726,82.439 367.628,82.543 367.516,82.629C367.404,82.715 367.288,82.785 367.168,82.84C367.048,82.895 366.926,82.935 366.803,82.961C366.679,82.987 366.562,83 366.453,83L362.535,83L362.535,81.984L366.453,81.984C366.648,81.984 366.8,81.927 366.908,81.812C367.016,81.698 367.07,81.545 367.07,81.352C367.07,81.258 367.056,81.172 367.027,81.094C366.998,81.016 366.957,80.948 366.904,80.891C366.851,80.834 366.786,80.789 366.709,80.758C366.632,80.727 366.547,80.711 366.453,80.711L364.117,80.711C363.953,80.711 363.776,80.682 363.586,80.623C363.396,80.564 363.22,80.47 363.057,80.34C362.894,80.21 362.758,80.039 362.65,79.828C362.542,79.617 362.488,79.36 362.488,79.055C362.488,78.75 362.542,78.493 362.65,78.283C362.758,78.074 362.894,77.903 363.057,77.771C363.22,77.64 363.396,77.545 363.586,77.486C363.776,77.427 363.953,77.398 364.117,77.398L367.574,77.398L367.574,78.414L364.117,78.414C363.924,78.414 363.774,78.473 363.666,78.59C363.558,78.707 363.504,78.862 363.504,79.055C363.504,79.25 363.558,79.405 363.666,79.518C363.774,79.631 363.924,79.688 364.117,79.688L366.461,79.688C366.57,79.69 366.686,79.705 366.809,79.732C366.931,79.759 367.053,79.802 367.174,79.859C367.295,79.916 367.41,79.989 367.52,80.076C367.629,80.163 367.726,80.268 367.811,80.391C367.896,80.513 367.963,80.653 368.012,80.812C368.061,80.971 368.086,81.151 368.086,81.352Z" style="fill-rule:nonzero;"/>
        <path d="M183.176,313L182.156,313L182.156,308.414L181.238,308.414L181.238,307.398L183.176,307.398L183.176,313Z" style="fill-rule:nonzero;"/>
        <rect x="186.852" y="309.742" width="3.664" height="0.914" style="fill-rule:nonzero;"/>
        <path d="M199.129,311.574C199.129,311.671 199.118,311.772 199.096,311.879C199.073,311.986 199.038,312.092 198.99,312.197C198.942,312.302 198.88,312.403 198.805,312.5C198.729,312.597 198.638,312.682 198.533,312.756C198.428,312.83 198.306,312.889 198.168,312.934C198.03,312.978 197.875,313 197.703,313L195.406,313C195.265,313 195.112,312.975 194.945,312.926C194.778,312.877 194.624,312.795 194.482,312.682C194.341,312.569 194.222,312.421 194.127,312.24C194.032,312.059 193.984,311.837 193.984,311.574L193.984,311.121C193.984,311.022 193.995,310.918 194.018,310.809C194.04,310.7 194.075,310.591 194.123,310.484C194.171,310.377 194.233,310.276 194.309,310.18C194.384,310.083 194.475,310 194.582,309.93C194.535,309.821 194.5,309.71 194.477,309.598C194.453,309.486 194.441,309.38 194.441,309.281L194.441,308.824C194.441,308.564 194.489,308.343 194.584,308.16C194.679,307.978 194.798,307.831 194.939,307.719C195.081,307.607 195.235,307.526 195.402,307.475C195.569,307.424 195.722,307.398 195.863,307.398L197.238,307.398C197.413,307.398 197.57,307.42 197.709,307.465C197.848,307.509 197.971,307.568 198.076,307.643C198.181,307.717 198.271,307.802 198.346,307.898C198.42,307.995 198.48,308.096 198.527,308.201C198.574,308.306 198.609,308.413 198.631,308.521C198.653,308.63 198.664,308.731 198.664,308.824L198.664,309.281C198.664,309.536 198.618,309.758 198.527,309.945C198.61,310 198.689,310.064 198.762,310.139C198.835,310.213 198.898,310.298 198.953,310.395C199.008,310.491 199.051,310.6 199.082,310.721C199.113,310.842 199.129,310.975 199.129,311.121L199.129,311.574ZM197.648,308.832C197.648,308.694 197.613,308.59 197.543,308.52C197.472,308.449 197.371,308.414 197.238,308.414L195.871,308.414C195.733,308.414 195.631,308.449 195.564,308.52C195.498,308.59 195.465,308.691 195.465,308.824L195.465,309.281C195.465,309.416 195.499,309.518 195.568,309.586C195.637,309.654 195.736,309.688 195.863,309.688L197.238,309.688C197.376,309.688 197.479,309.653 197.547,309.584C197.614,309.515 197.648,309.414 197.648,309.281L197.648,308.832ZM198.102,311.121C198.102,310.991 198.066,310.89 197.994,310.818C197.923,310.747 197.826,310.711 197.703,310.711L195.406,310.711C195.281,310.711 195.182,310.75 195.109,310.828C195.036,310.906 195,311.004 195,311.121L195,311.574C195,311.699 195.038,311.799 195.115,311.873C195.192,311.947 195.289,311.984 195.406,311.984L197.703,311.984C197.833,311.984 197.932,311.945 198,311.867C198.068,311.789 198.102,311.691 198.102,311.574L198.102,311.121Z" style="fill-rule:nonzero;"/>
        <path d="M220.021,311.574C220.021,311.671 220.01,311.772 219.988,311.879C219.966,311.986 219.931,312.092 219.883,312.197C219.835,312.302 219.774,312.403 219.699,312.5C219.625,312.597 219.535,312.682 219.43,312.756C219.324,312.83 219.202,312.889 219.064,312.934C218.926,312.978 218.771,313 218.6,313L214.877,313L214.877,311.984L218.6,311.984C218.727,311.984 218.826,311.945 218.895,311.867C218.964,311.789 218.998,311.691 218.998,311.574L218.998,311.121C218.998,310.988 218.964,310.887 218.896,310.816C218.829,310.746 218.727,310.711 218.592,310.711L216.303,310.711C216.04,310.711 215.818,310.663 215.637,310.568C215.456,310.473 215.309,310.354 215.197,310.211C215.085,310.068 215.004,309.913 214.953,309.746C214.902,309.579 214.877,309.424 214.877,309.281L214.877,307.398L219.557,307.398L219.557,308.414L215.893,308.414L215.893,309.281C215.893,309.416 215.928,309.518 215.998,309.586C216.069,309.654 216.17,309.688 216.303,309.688L218.6,309.688C218.741,309.688 218.894,309.713 219.061,309.764C219.228,309.815 219.382,309.897 219.523,310.01C219.665,310.123 219.784,310.271 219.879,310.453C219.974,310.636 220.021,310.858 220.021,311.121L220.021,311.574Z" style="fill-rule:nonzero;"/>
        <rect x="223.436" y="309.742" width="3.664" height="0.914" style="fill-rule:nonzero;"/>
        <path d="M235.713,311.574C235.713,311.671 235.702,311.772 235.68,311.879C235.657,311.986 235.622,312.092 235.574,312.197C235.526,312.302 235.464,312.403 235.389,312.5C235.313,312.597 235.222,312.682 235.117,312.756C235.012,312.83 234.89,312.889 234.752,312.934C234.614,312.978 234.459,313 234.287,313L231.99,313C231.849,313 231.696,312.975 231.529,312.926C231.362,312.877 231.208,312.795 231.066,312.682C230.925,312.569 230.806,312.421 230.711,312.24C230.616,312.059 230.568,311.837 230.568,311.574L230.568,311.121C230.568,311.022 230.579,310.918 230.602,310.809C230.624,310.7 230.659,310.591 230.707,310.484C230.755,310.377 230.817,310.276 230.893,310.18C230.968,310.083 231.059,310 231.166,309.93C231.119,309.821 231.084,309.71 231.061,309.598C231.037,309.486 231.025,309.38 231.025,309.281L231.025,308.824C231.025,308.564 231.073,308.343 231.168,308.16C231.263,307.978 231.382,307.831 231.523,307.719C231.665,307.607 231.819,307.526 231.986,307.475C232.153,307.424 232.306,307.398 232.447,307.398L233.822,307.398C233.997,307.398 234.154,307.42 234.293,307.465C234.432,307.509 234.555,307.568 234.66,307.643C234.765,307.717 234.855,307.802 234.93,307.898C235.004,307.995 235.064,308.096 235.111,308.201C235.158,308.306 235.193,308.413 235.215,308.521C235.237,308.63 235.248,308.731 235.248,308.824L235.248,309.281C235.248,309.536 235.202,309.758 235.111,309.945C235.194,310 235.273,310.064 235.346,310.139C235.419,310.213 235.482,310.298 235.537,310.395C235.592,310.491 235.635,310.6 235.666,310.721C235.697,310.842 235.713,310.975 235.713,311.121L235.713,311.574ZM234.232,308.832C234.232,308.694 234.197,308.59 234.127,308.52C234.056,308.449 233.955,308.414 233.822,308.414L232.455,308.414C232.317,308.414 232.215,308.449 232.148,308.52C232.082,308.59 232.049,308.691 232.049,308.824L232.049,309.281C232.049,309.416 232.083,309.518 232.152,309.586C232.221,309.654 232.32,309.688 232.447,309.688L233.822,309.688C233.96,309.688 234.063,309.653 234.131,309.584C234.198,309.515 234.232,309.414 234.232,309.281L234.232,308.832ZM234.686,311.121C234.686,310.991 234.65,310.89 234.578,310.818C234.507,310.747 234.41,310.711 234.287,310.711L231.99,310.711C231.865,310.711 231.766,310.75 231.693,310.828C231.62,310.906 231.584,311.004 231.584,311.121L231.584,311.574C231.584,311.699 231.622,311.799 231.699,311.873C231.776,311.947 231.873,311.984 231.99,311.984L234.287,311.984C234.417,311.984 234.516,311.945 234.584,311.867C234.652,311.789 234.686,311.691 234.686,311.574L234.686,311.121Z" style="fill-rule:nonzero;"/>
        <path d="M145.066,313L144.047,313L144.047,308.414L143.129,308.414L143.129,307.398L145.066,307.398L145.066,313Z" style="fill-rule:nonzero;"/>
        <rect x="148.742" y="309.742" width="3.664" height="0.914" style="fill-rule:nonzero;"/>
        <path d="M161.027,313L160.004,313L160.004,310.711L156.395,310.711C156.322,310.711 156.254,310.697 156.191,310.67C156.129,310.643 156.075,310.606 156.029,310.561C155.984,310.515 155.948,310.461 155.922,310.398C155.896,310.336 155.883,310.27 155.883,310.199L155.883,307.398L156.898,307.398L156.898,309.688L160.004,309.688L160.004,307.398L161.027,307.398L161.027,313Z" style="fill-rule:nonzero;"/>
        <path d="M88.254,309.281C88.254,309.513 88.225,309.72 88.168,309.902C88.111,310.085 88.033,310.246 87.936,310.385C87.838,310.524 87.725,310.643 87.598,310.742C87.47,310.841 87.336,310.923 87.197,310.986C87.058,311.05 86.917,311.096 86.775,311.125C86.633,311.154 86.5,311.168 86.375,311.168L88.496,313L86.926,313L84.809,311.168L84.078,311.168L84.078,310.152L86.375,310.152C86.502,310.142 86.619,310.115 86.725,310.072C86.83,310.029 86.921,309.971 86.998,309.898C87.075,309.825 87.134,309.738 87.176,309.635C87.217,309.532 87.238,309.414 87.238,309.281L87.238,308.641C87.238,308.584 87.231,308.54 87.217,308.51C87.202,308.48 87.184,308.458 87.162,308.443C87.14,308.429 87.117,308.421 87.092,308.418C87.067,308.415 87.044,308.414 87.023,308.414L83.672,308.414L83.672,313L82.656,313L82.656,307.91C82.656,307.84 82.669,307.774 82.695,307.711C82.721,307.648 82.757,307.594 82.803,307.547C82.848,307.5 82.902,307.464 82.965,307.438C83.028,307.411 83.095,307.398 83.168,307.398L87.023,307.398C87.25,307.398 87.441,307.439 87.598,307.521C87.754,307.604 87.881,307.707 87.979,307.83C88.076,307.954 88.146,308.087 88.189,308.23C88.232,308.373 88.254,308.508 88.254,308.633L88.254,309.281Z" style="fill-rule:nonzero;"/>
        <path d="M93.879,310.711L90.672,310.711L90.672,309.688L93.879,309.688L93.879,310.711ZM94.336,313L90.672,313C90.531,313 90.378,312.975 90.211,312.926C90.044,312.877 89.89,312.795 89.748,312.682C89.606,312.569 89.488,312.421 89.393,312.24C89.298,312.059 89.25,311.837 89.25,311.574L89.25,307.91C89.25,307.84 89.263,307.774 89.289,307.711C89.315,307.648 89.351,307.594 89.396,307.547C89.442,307.5 89.496,307.464 89.559,307.438C89.621,307.411 89.689,307.398 89.762,307.398L94.336,307.398L94.336,308.414L90.266,308.414L90.266,311.574C90.266,311.707 90.301,311.808 90.371,311.879C90.442,311.949 90.545,311.984 90.68,311.984L94.336,311.984L94.336,313Z" style="fill-rule:nonzero;"/>
        <path d="M100.68,311.352C100.68,311.552 100.655,311.732 100.604,311.893C100.553,312.053 100.485,312.194 100.402,312.316C100.319,312.439 100.221,312.543 100.109,312.629C99.997,312.715 99.881,312.785 99.762,312.84C99.642,312.895 99.52,312.935 99.396,312.961C99.273,312.987 99.156,313 99.047,313L95.129,313L95.129,311.984L99.047,311.984C99.242,311.984 99.394,311.927 99.502,311.812C99.61,311.698 99.664,311.545 99.664,311.352C99.664,311.258 99.65,311.172 99.621,311.094C99.592,311.016 99.551,310.948 99.498,310.891C99.445,310.834 99.38,310.789 99.303,310.758C99.226,310.727 99.14,310.711 99.047,310.711L96.711,310.711C96.547,310.711 96.37,310.682 96.18,310.623C95.99,310.564 95.813,310.47 95.65,310.34C95.487,310.21 95.352,310.039 95.244,309.828C95.136,309.617 95.082,309.36 95.082,309.055C95.082,308.75 95.136,308.493 95.244,308.283C95.352,308.074 95.487,307.903 95.65,307.771C95.813,307.64 95.99,307.545 96.18,307.486C96.37,307.427 96.547,307.398 96.711,307.398L100.168,307.398L100.168,308.414L96.711,308.414C96.518,308.414 96.368,308.473 96.26,308.59C96.152,308.707 96.098,308.862 96.098,309.055C96.098,309.25 96.152,309.405 96.26,309.518C96.368,309.631 96.518,309.688 96.711,309.688L99.055,309.688C99.164,309.69 99.28,309.705 99.402,309.732C99.525,309.759 99.647,309.802 99.768,309.859C99.889,309.916 100.004,309.989 100.113,310.076C100.222,310.163 100.319,310.268 100.404,310.391C100.489,310.513 100.556,310.653 100.605,310.812C100.655,310.971 100.68,311.151 100.68,311.352Z" style="fill-rule:nonzero;"/>
        <path d="M45.668,313L42.004,313C41.91,313 41.809,312.989 41.701,312.967C41.593,312.945 41.486,312.91 41.381,312.863C41.276,312.816 41.175,312.756 41.078,312.682C40.982,312.607 40.897,312.517 40.822,312.412C40.748,312.307 40.689,312.184 40.645,312.045C40.6,311.906 40.578,311.749 40.578,311.574L40.578,308.824C40.578,308.731 40.589,308.63 40.611,308.521C40.634,308.413 40.668,308.306 40.715,308.201C40.762,308.096 40.823,307.995 40.898,307.898C40.974,307.802 41.065,307.717 41.17,307.643C41.275,307.568 41.397,307.509 41.535,307.465C41.673,307.42 41.829,307.398 42.004,307.398L45.668,307.398L45.668,308.414L42.004,308.414C41.871,308.414 41.77,308.449 41.699,308.52C41.629,308.59 41.594,308.694 41.594,308.832L41.594,311.574C41.594,311.705 41.63,311.806 41.701,311.877C41.773,311.948 41.874,311.984 42.004,311.984L45.668,311.984L45.668,313Z" style="fill-rule:nonzero;"/>
        <path d="M51.773,313L47.141,313C47.068,313 47,312.987 46.938,312.961C46.875,312.935 46.821,312.899 46.775,312.854C46.73,312.808 46.694,312.754 46.668,312.691C46.642,312.629 46.629,312.561 46.629,312.488L46.629,307.398L47.645,307.398L47.645,311.984L51.773,311.984L51.773,313Z" style="fill-rule:nonzero;"/>
        <path d="M58.391,313L56.949,313L54.664,310.711L53.949,310.711L53.949,309.688L54.664,309.688L56.949,307.398L58.391,307.398L55.512,310.199L58.391,313ZM53.543,313L52.527,313L52.527,307.398L53.543,307.398L53.543,313Z" style="fill-rule:nonzero;"/>
        <path d="M286.443,310.656C286.443,310.997 286.384,311.311 286.266,311.598C286.147,311.884 285.984,312.131 285.775,312.338C285.567,312.545 285.32,312.707 285.033,312.824C284.747,312.941 284.436,313 284.1,313L281.357,313C281.284,313 281.217,312.987 281.154,312.961C281.092,312.935 281.038,312.899 280.992,312.854C280.947,312.808 280.911,312.754 280.885,312.691C280.859,312.629 280.846,312.561 280.846,312.488L280.846,307.91C280.846,307.84 280.859,307.774 280.885,307.711C280.911,307.648 280.947,307.594 280.992,307.547C281.038,307.5 281.092,307.464 281.154,307.438C281.217,307.411 281.284,307.398 281.357,307.398L284.1,307.398C284.436,307.398 284.747,307.457 285.033,307.574C285.32,307.691 285.567,307.854 285.775,308.061C285.984,308.268 286.147,308.515 286.266,308.803C286.384,309.09 286.443,309.403 286.443,309.742L286.443,310.656ZM285.428,309.742C285.428,309.544 285.396,309.363 285.332,309.199C285.268,309.035 285.178,308.895 285.061,308.779C284.944,308.663 284.804,308.573 284.641,308.51C284.478,308.446 284.297,308.414 284.1,308.414L281.861,308.414L281.861,311.984L284.1,311.984C284.297,311.984 284.478,311.952 284.641,311.889C284.804,311.825 284.944,311.735 285.061,311.619C285.178,311.503 285.268,311.364 285.332,311.201C285.396,311.038 285.428,310.857 285.428,310.656L285.428,309.742Z" style="fill-rule:nonzero;"/>
        <rect x="287.447" y="307.398" width="1.016" height="5.602" style="fill-rule:nonzero;"/>
        <path d="M294.283,310.711L291.072,310.711L291.072,309.688L294.283,309.688L294.283,310.711ZM294.736,308.414L290.666,308.414L290.666,313L289.65,313L289.65,307.91C289.65,307.84 289.663,307.774 289.689,307.711C289.716,307.648 289.752,307.594 289.797,307.547C289.842,307.5 289.896,307.464 289.959,307.438C290.022,307.411 290.089,307.398 290.162,307.398L294.736,307.398L294.736,308.414Z" style="fill-rule:nonzero;"/>
        <path d="M300.189,310.711L296.979,310.711L296.979,309.688L300.189,309.688L300.189,310.711ZM300.643,308.414L296.572,308.414L296.572,313L295.557,313L295.557,307.91C295.557,307.84 295.57,307.774 295.596,307.711C295.622,307.648 295.658,307.594 295.703,307.547C295.748,307.5 295.802,307.464 295.865,307.438C295.928,307.411 295.995,307.398 296.068,307.398L300.643,307.398L300.643,308.414Z" style="fill-rule:nonzero;"/>
        <rect x="303.857" y="309.742" width="3.664" height="0.914" style="fill-rule:nonzero;"/>
        <path d="M316.764,309.281C316.764,309.513 316.735,309.72 316.678,309.902C316.621,310.085 316.543,310.246 316.445,310.385C316.348,310.524 316.235,310.643 316.107,310.742C315.98,310.841 315.846,310.923 315.707,310.986C315.568,311.05 315.427,311.096 315.285,311.125C315.143,311.154 315.01,311.168 314.885,311.168L317.006,313L315.436,313L313.318,311.168L312.588,311.168L312.588,310.152L314.885,310.152C315.012,310.142 315.129,310.115 315.234,310.072C315.34,310.029 315.431,309.971 315.508,309.898C315.585,309.825 315.644,309.738 315.686,309.635C315.727,309.532 315.748,309.414 315.748,309.281L315.748,308.641C315.748,308.584 315.741,308.54 315.727,308.51C315.712,308.48 315.694,308.458 315.672,308.443C315.65,308.429 315.627,308.421 315.602,308.418C315.577,308.415 315.554,308.414 315.533,308.414L312.182,308.414L312.182,313L311.166,313L311.166,307.91C311.166,307.84 311.179,307.774 311.205,307.711C311.231,307.648 311.267,307.594 311.312,307.547C311.358,307.5 311.412,307.464 311.475,307.438C311.537,307.411 311.605,307.398 311.678,307.398L315.533,307.398C315.76,307.398 315.951,307.439 316.107,307.521C316.264,307.604 316.391,307.707 316.488,307.83C316.586,307.954 316.656,308.087 316.699,308.23C316.742,308.373 316.764,308.508 316.764,308.633L316.764,309.281Z" style="fill-rule:nonzero;"/>
        <path d="M322.389,310.711L319.182,310.711L319.182,309.688L322.389,309.688L322.389,310.711ZM322.846,313L319.182,313C319.041,313 318.888,312.975 318.721,312.926C318.554,312.877 318.4,312.795 318.258,312.682C318.116,312.569 317.997,312.421 317.902,312.24C317.807,312.059 317.76,311.837 317.76,311.574L317.76,307.91C317.76,307.84 317.773,307.774 317.799,307.711C317.825,307.648 317.861,307.594 317.906,307.547C317.952,307.5 318.006,307.464 318.068,307.438C318.131,307.411 318.198,307.398 318.271,307.398L322.846,307.398L322.846,308.414L318.775,308.414L318.775,311.574C318.775,311.707 318.81,311.808 318.881,311.879C318.951,311.949 319.054,311.984 319.189,311.984L322.846,311.984L322.846,313Z" style="fill-rule:nonzero;"/>
        <path d="M328.807,313L325.143,313C325.049,313 324.948,312.989 324.84,312.967C324.732,312.945 324.625,312.91 324.52,312.863C324.414,312.816 324.313,312.756 324.217,312.682C324.12,312.607 324.035,312.517 323.961,312.412C323.887,312.307 323.828,312.184 323.783,312.045C323.739,311.906 323.717,311.749 323.717,311.574L323.717,308.824C323.717,308.731 323.728,308.63 323.75,308.521C323.772,308.413 323.807,308.306 323.854,308.201C323.901,308.096 323.962,307.995 324.037,307.898C324.112,307.802 324.203,307.717 324.309,307.643C324.414,307.568 324.536,307.509 324.674,307.465C324.812,307.42 324.968,307.398 325.143,307.398L328.807,307.398L328.807,308.414L325.143,308.414C325.01,308.414 324.908,308.449 324.838,308.52C324.767,308.59 324.732,308.694 324.732,308.832L324.732,311.574C324.732,311.705 324.768,311.806 324.84,311.877C324.911,311.948 325.012,311.984 325.143,311.984L328.807,311.984L328.807,313Z" style="fill-rule:nonzero;"/>
        <path d="M334.83,308.414L332.592,308.414L332.592,313L331.576,313L331.576,308.414L329.334,308.414L329.334,307.398L334.83,307.398L334.83,308.414Z" style="fill-rule:nonzero;"/>
        <rect x="297.232" y="317.867" width="3.664" height="0.914" style="fill-rule:nonzero;"/>
        <path d="M317.582,318.781L316.207,318.781L316.207,320.156L315.297,320.156L315.297,318.781L313.918,318.781L313.918,317.867L315.297,317.867L315.297,316.492L316.207,316.492L316.207,317.867L317.582,317.867L317.582,318.781Z" style="fill-rule:nonzero;"/>
    </g>
</svg>
