<?xml version="1.0" encoding="UTF-8" standalone="no"?>
<!DOCTYPE svg PUBLIC "-//W3C//DTD SVG 1.1//EN" "http://www.w3.org/Graphics/SVG/1.1/DTD/svg11.dtd">
<svg width="100%" height="100%" viewBox="0 0 380 380" version="1.1" xmlns="http://www.w3.org/2000/svg" xmlns:xlink="http://www.w3.org/1999/xlink" xml:space="preserve" xmlns:serif="http://www.serif.com/" style="fill-rule:evenodd;clip-rule:evenodd;">
    <g id="_1050_MIXER_SEQUENCER">
        <g>
            <rect x="0" y="0" width="380" height="380" style="fill:#e6e6e6;fill-rule:nonzero;"/>
            <rect x="0" y="0" width="380" height="380" style="fill-opacity:0;fill-rule:nonzero;stroke:#000;stroke-width:0.25px;"/>
        </g>
        <path d="M277,304.25L349,304.25C352.313,304.25 355,306.546 355,309.378L355,339.122C355,341.954 352.313,344.25 349,344.25L277,344.25C273.687,344.25 271,341.954 271,339.122L271,309.378C271,306.546 273.687,304.25 277,304.25Z" style="fill:#bbbcb9;fill-rule:nonzero;"/>
        <path d="M30.25,304.25L103.75,304.25C106.649,304.25 109,306.576 109,309.445L109,339.055C109,341.924 106.649,344.25 103.75,344.25L30.25,344.25C27.351,344.25 25,341.924 25,339.055L25,309.445C25,306.576 27.351,304.25 30.25,304.25Z" style="fill:#fff;fill-rule:nonzero;"/>
        <g>
            <path d="M189.714,227C157.405,227 131.214,200.809 131.214,168.5C131.214,136.191 157.405,110 189.714,110C222.023,110 248.214,136.191 248.214,168.5C248.214,200.809 222.023,227 189.714,227Z" style="fill:#e6e6e6;fill-rule:nonzero;"/>
            <path d="M189.714,227C157.405,227 131.214,200.809 131.214,168.5C131.214,136.191 157.405,110 189.714,110C222.023,110 248.214,136.191 248.214,168.5C248.214,200.809 222.023,227 189.714,227Z" style="fill-opacity:0;fill-rule:nonzero;stroke:#007a9f;stroke-width:1px;stroke-dasharray:2,2;"/>
        </g>
        <path d="M92.047,70L42,126.926" style="fill:none;fill-rule:nonzero;stroke:#007a9f;stroke-width:2px;"/>
        <path d="M287.38,71.5L338,126" style="fill:none;fill-rule:nonzero;stroke:#007a9f;stroke-width:2px;"/>
        <path d="M140,304.25L240,304.25C242.761,304.25 245,306.461 245,309.188L245,339.312C245,342.039 242.761,344.25 240,344.25L140,344.25C137.238,344.25 135,342.039 135,339.312L135,309.188C135,306.461 137.238,304.25 140,304.25Z" style="fill:#bbbcb9;fill-rule:nonzero;"/>
        <path d="M338.25,127.5L338,208.5" style="fill:none;fill-rule:nonzero;stroke:#007a9f;stroke-width:4px;"/>
        <path d="M338,208.5L287.38,265.5" style="fill:none;fill-rule:nonzero;stroke:#007a9f;stroke-width:6px;"/>
        <path d="M41.5,127.5L41.5,209.5" style="fill:none;fill-rule:nonzero;stroke:#007a9f;stroke-width:4px;"/>
        <path d="M41.5,208.5L92.047,264" style="fill:none;fill-rule:nonzero;stroke:#007a9f;stroke-width:6px;"/>
        <path d="M190,168L190,285" style="fill:none;fill-rule:nonzero;stroke:#007a9f;stroke-width:2px;"/>
        <path d="M92.047,127L287.38,208.574" style="fill:none;fill-rule:nonzero;stroke:#007a9f;stroke-width:2px;"/>
        <path d="M287.38,127.5L92.047,209.5" style="fill:none;fill-rule:nonzero;stroke:#007a9f;stroke-width:2px;"/>
        <path d="M230,71.5L150.277,265.5" style="fill:none;fill-rule:nonzero;stroke:#007a9f;stroke-width:2px;"/>
        <path d="M150.277,71.5L230,265.5" style="fill:none;fill-rule:nonzero;stroke:#007a9f;stroke-width:2px;stroke-linecap:round;stroke-linejoin:round;"/>
        <g>
            <path d="M170,71C170,82.046 161.046,91 150,91C138.954,91 130,82.046 130,71C130,59.954 138.954,51 150,51C161.046,51 170,59.954 170,71Z" style="fill:#e6e6e6;fill-rule:nonzero;"/>
            <path d="M170,71C170,82.046 161.046,91 150,91C138.954,91 130,82.046 130,71C130,59.954 138.954,51 150,51C161.046,51 170,59.954 170,71Z" style="fill-opacity:0;fill-rule:nonzero;stroke:#000;stroke-width:0.25px;"/>
        </g>
        <path d="M117.938,73.602L116.918,73.602L116.918,69.016L116,69.016L116,68L117.938,68L117.938,73.602Z" style="fill-rule:nonzero;"/>
        <path d="M65.852,129.801L60.707,129.801L60.707,127.922C60.707,127.826 60.718,127.724 60.741,127.615C60.763,127.507 60.797,127.4 60.844,127.293C60.891,127.186 60.951,127.085 61.026,126.989C61.1,126.892 61.19,126.807 61.295,126.733C61.4,126.658 61.522,126.599 61.66,126.555C61.798,126.511 61.954,126.489 62.129,126.489L64.418,126.489C64.556,126.489 64.658,126.454 64.725,126.385C64.791,126.316 64.824,126.215 64.824,126.082L64.824,125.633C64.824,125.495 64.79,125.391 64.723,125.321C64.655,125.25 64.556,125.215 64.426,125.215L61.164,125.215L61.164,124.199L64.426,124.199C64.598,124.199 64.753,124.221 64.891,124.266C65.029,124.31 65.151,124.369 65.256,124.444C65.361,124.518 65.452,124.603 65.528,124.699C65.603,124.796 65.665,124.897 65.713,125.002C65.761,125.107 65.796,125.214 65.819,125.322C65.841,125.431 65.852,125.532 65.852,125.625L65.852,126.082C65.852,126.345 65.804,126.567 65.709,126.748C65.614,126.929 65.495,127.077 65.352,127.19C65.209,127.303 65.054,127.385 64.889,127.436C64.724,127.487 64.569,127.512 64.426,127.512L62.129,127.512C62.046,127.512 61.979,127.524 61.93,127.547C61.881,127.57 61.842,127.602 61.815,127.641C61.788,127.68 61.767,127.724 61.754,127.774C61.741,127.823 61.731,127.873 61.723,127.922L61.723,128.785L65.852,128.785L65.852,129.801Z" style="fill-rule:nonzero;"/>
        <path d="M65.391,210.375C65.391,210.638 65.344,210.86 65.249,211.041C65.154,211.222 65.035,211.37 64.893,211.483C64.751,211.596 64.597,211.678 64.43,211.727C64.263,211.776 64.108,211.801 63.965,211.801L60.707,211.801L60.707,210.785L63.965,210.785C64.103,210.785 64.205,210.75 64.272,210.68C64.339,210.609 64.372,210.508 64.372,210.375L64.372,209.512L60.707,209.512L60.707,208.489L64.372,208.489L64.372,207.633C64.372,207.354 64.236,207.215 63.965,207.215L60.707,207.215L60.707,206.199L63.965,206.199C64.14,206.199 64.296,206.221 64.434,206.266C64.572,206.31 64.694,206.369 64.799,206.444C64.904,206.518 64.995,206.603 65.071,206.699C65.146,206.796 65.207,206.897 65.254,207.002C65.301,207.107 65.336,207.214 65.358,207.322C65.38,207.431 65.391,207.532 65.391,207.625L65.391,210.375Z" style="fill-rule:nonzero;"/>
        <path d="M119.541,269L118.518,269L118.518,266.548L114.909,266.548C114.836,266.548 114.768,266.533 114.705,266.504C114.643,266.476 114.589,266.436 114.544,266.388C114.497,266.338 114.462,266.281 114.436,266.213C114.41,266.147 114.396,266.076 114.396,266L114.396,263L115.412,263L115.412,265.453L118.518,265.453L118.518,263L119.541,263L119.541,269Z" style="fill-rule:nonzero;"/>
        <path d="M266,72.176C266,72.273 265.987,72.374 265.96,72.481C265.935,72.588 265.894,72.694 265.838,72.799C265.782,72.904 265.711,73.005 265.623,73.102C265.537,73.199 265.432,73.284 265.31,73.358C265.187,73.432 265.045,73.491 264.884,73.536C264.723,73.58 264.542,73.602 264.342,73.602L260,73.602L260,72.586L264.342,72.586C264.49,72.586 264.605,72.547 264.686,72.469C264.766,72.391 264.806,72.293 264.806,72.176L264.806,71.723C264.806,71.59 264.766,71.489 264.688,71.418C264.609,71.348 264.49,71.313 264.332,71.313L261.663,71.313C261.356,71.313 261.097,71.265 260.886,71.17C260.675,71.075 260.504,70.956 260.373,70.813C260.243,70.67 260.148,70.515 260.089,70.348C260.029,70.181 260,70.026 260,69.883L260,68L265.458,68L265.458,69.016L261.185,69.016L261.185,69.883C261.185,70.018 261.226,70.12 261.307,70.188C261.39,70.256 261.508,70.29 261.663,70.29L264.342,70.29C264.506,70.29 264.685,70.315 264.879,70.366C265.074,70.417 265.254,70.499 265.419,70.612C265.584,70.725 265.722,70.873 265.833,71.055C265.944,71.238 266,71.46 266,71.723L266,72.176Z" style="fill-rule:nonzero;"/>
        <path d="M316.185,127.29L319.337,127.29C319.504,127.29 319.685,127.315 319.877,127.366C320.069,127.417 320.25,127.499 320.417,127.612C320.584,127.725 320.722,127.873 320.833,128.055C320.944,128.238 321,128.46 321,128.723L321,129.176C321,129.273 320.987,129.374 320.96,129.481C320.935,129.588 320.894,129.694 320.838,129.799C320.782,129.904 320.711,130.005 320.623,130.102C320.537,130.199 320.432,130.284 320.31,130.358C320.187,130.432 320.045,130.491 319.884,130.536C319.722,130.58 319.54,130.602 319.337,130.602L317.191,130.602C317.045,130.602 316.889,130.588 316.725,130.559C316.559,130.53 316.396,130.484 316.235,130.42C316.074,130.357 315.918,130.276 315.767,130.178C315.617,130.081 315.486,129.962 315.373,129.823C315.261,129.684 315.171,129.523 315.103,129.34C315.034,129.158 315,128.952 315,128.723L315,126.883C315,126.654 315.034,126.449 315.103,126.266C315.171,126.084 315.261,125.923 315.373,125.784C315.486,125.645 315.617,125.525 315.767,125.426C315.918,125.327 316.074,125.246 316.235,125.182C316.396,125.118 316.559,125.072 316.725,125.043C316.889,125.014 317.045,125 317.191,125L320.162,125L320.162,126.016L317.191,126.016C317.04,126.027 316.902,126.054 316.778,126.098C316.656,126.142 316.55,126.201 316.462,126.274C316.375,126.347 316.306,126.435 316.257,126.538C316.209,126.641 316.185,126.756 316.185,126.883L316.185,127.29ZM316.185,128.313L316.185,128.723C316.185,128.856 316.212,128.975 316.264,129.081C316.317,129.186 316.389,129.277 316.481,129.352C316.572,129.427 316.679,129.485 316.802,129.526C316.924,129.566 317.057,129.586 317.201,129.586L319.337,129.586C319.489,129.586 319.605,129.547 319.686,129.469C319.766,129.391 319.806,129.293 319.806,129.176L319.806,128.723C319.806,128.59 319.766,128.489 319.688,128.418C319.609,128.348 319.489,128.313 319.328,128.313L316.185,128.313Z" style="fill-rule:nonzero;"/>
        <path d="M320.275,207.258C320.32,207.339 320.342,207.424 320.342,207.514C320.342,207.604 320.32,207.689 320.275,207.77L317.459,212.602L316.283,212.602L318.947,208.016L315.658,208.016L315.658,207L319.834,207C319.925,207 320.011,207.023 320.09,207.069C320.169,207.114 320.231,207.177 320.275,207.258Z" style="fill-rule:nonzero;"/>
        <path d="M265.572,267.375C265.572,267.472 265.561,267.573 265.539,267.68C265.517,267.787 265.482,267.893 265.434,267.998C265.385,268.103 265.323,268.204 265.248,268.301C265.173,268.398 265.082,268.483 264.977,268.557C264.871,268.631 264.749,268.69 264.611,268.735C264.473,268.779 264.318,268.801 264.146,268.801L261.85,268.801C261.709,268.801 261.556,268.776 261.389,268.727C261.222,268.678 261.068,268.596 260.926,268.483C260.784,268.37 260.665,268.222 260.57,268.041C260.475,267.86 260.428,267.638 260.428,267.375L260.428,266.922C260.428,266.823 260.439,266.719 260.461,266.61C260.483,266.501 260.518,266.392 260.566,266.285C260.615,266.178 260.677,266.077 260.752,265.981C260.827,265.884 260.918,265.801 261.025,265.731C260.978,265.622 260.943,265.511 260.92,265.399C260.897,265.287 260.885,265.181 260.885,265.082L260.885,264.625C260.885,264.365 260.932,264.144 261.027,263.961C261.122,263.779 261.241,263.632 261.383,263.52C261.525,263.408 261.679,263.327 261.846,263.276C262.013,263.225 262.166,263.199 262.307,263.199L263.682,263.199C263.856,263.199 264.013,263.221 264.152,263.266C264.291,263.31 264.414,263.369 264.519,263.444C264.625,263.518 264.715,263.603 264.789,263.699C264.863,263.796 264.924,263.897 264.971,264.002C265.018,264.107 265.052,264.214 265.074,264.322C265.096,264.431 265.107,264.532 265.107,264.625L265.107,265.082C265.107,265.337 265.062,265.559 264.971,265.746C265.054,265.801 265.132,265.865 265.205,265.94C265.278,266.014 265.341,266.099 265.396,266.196C265.451,266.292 265.494,266.401 265.525,266.522C265.556,266.643 265.572,266.776 265.572,266.922L265.572,267.375ZM264.092,264.633C264.092,264.495 264.057,264.391 263.986,264.321C263.916,264.25 263.815,264.215 263.682,264.215L262.314,264.215C262.176,264.215 262.074,264.25 262.008,264.321C261.941,264.391 261.908,264.492 261.908,264.625L261.908,265.082C261.908,265.217 261.943,265.319 262.012,265.387C262.081,265.455 262.179,265.489 262.307,265.489L263.682,265.489C263.82,265.489 263.923,265.454 263.99,265.385C264.058,265.316 264.092,265.215 264.092,265.082L264.092,264.633ZM264.545,266.922C264.545,266.792 264.509,266.691 264.437,266.619C264.366,266.548 264.269,266.512 264.146,266.512L261.85,266.512C261.725,266.512 261.626,266.551 261.553,266.629C261.48,266.707 261.443,266.805 261.443,266.922L261.443,267.375C261.443,267.5 261.482,267.6 261.559,267.674C261.636,267.748 261.733,267.785 261.85,267.785L264.146,267.785C264.277,267.785 264.376,267.746 264.443,267.668C264.511,267.59 264.545,267.492 264.545,267.375L264.545,266.922Z" style="fill-rule:nonzero;"/>
        <rect x="49" y="165.078" width="1.016" height="5.602" style="fill-rule:nonzero;"/>
        <path d="M56.801,170.246C56.801,170.319 56.787,170.387 56.76,170.45C56.733,170.512 56.696,170.566 56.65,170.612C56.605,170.657 56.551,170.693 56.488,170.719C56.425,170.745 56.359,170.758 56.289,170.758C56.226,170.758 56.163,170.746 56.099,170.723C56.036,170.7 55.979,170.662 55.93,170.61L52.219,166.735L52.219,170.68L51.203,170.68L51.203,165.512C51.203,165.408 51.232,165.314 51.291,165.229C51.35,165.144 51.425,165.081 51.516,165.039C51.612,165 51.711,164.991 51.812,165.01C51.914,165.029 52.001,165.077 52.074,165.153L55.785,169.024L55.785,165.078L56.801,165.078L56.801,170.246Z" style="fill-rule:nonzero;"/>
        <path d="M63.562,167.422C63.562,167.654 63.533,167.861 63.476,168.043C63.419,168.226 63.342,168.387 63.244,168.526C63.147,168.665 63.034,168.784 62.906,168.883C62.779,168.982 62.645,169.063 62.506,169.125C62.367,169.188 62.226,169.233 62.084,169.262C61.942,169.291 61.808,169.305 61.683,169.305L59.387,169.305L59.387,168.289L61.683,168.289C61.814,168.279 61.932,168.252 62.037,168.209C62.142,168.166 62.233,168.108 62.308,168.035C62.384,167.962 62.443,167.875 62.484,167.772C62.526,167.669 62.547,167.553 62.547,167.422L62.547,166.961C62.534,166.834 62.506,166.717 62.465,166.61C62.423,166.503 62.366,166.412 62.295,166.336C62.223,166.261 62.136,166.202 62.035,166.159C61.934,166.116 61.816,166.094 61.683,166.094L59.394,166.094C59.259,166.094 59.156,166.129 59.086,166.2C59.015,166.27 58.98,166.371 58.98,166.504L58.98,170.68L57.965,170.68L57.965,166.504C57.965,166.244 58.012,166.023 58.107,165.84C58.202,165.658 58.321,165.511 58.463,165.399C58.605,165.287 58.759,165.206 58.926,165.155C59.093,165.104 59.246,165.078 59.387,165.078L61.683,165.078C61.912,165.078 62.118,165.107 62.301,165.166C62.483,165.225 62.644,165.303 62.783,165.401C62.922,165.498 63.041,165.611 63.139,165.739C63.236,165.866 63.317,166 63.381,166.139C63.444,166.278 63.49,166.419 63.519,166.561C63.548,166.703 63.562,166.836 63.562,166.961L63.562,167.422Z" style="fill-rule:nonzero;"/>
        <path d="M69.918,170.168C69.918,170.241 69.905,170.309 69.879,170.371C69.853,170.434 69.816,170.488 69.769,170.534C69.722,170.579 69.668,170.615 69.605,170.641C69.543,170.667 69.477,170.68 69.406,170.68L67.117,170.68C66.901,170.68 66.682,170.657 66.461,170.61C66.24,170.563 66.025,170.49 65.818,170.393C65.611,170.295 65.417,170.171 65.234,170.02C65.052,169.869 64.893,169.69 64.756,169.483C64.619,169.276 64.512,169.039 64.433,168.772C64.355,168.505 64.316,168.207 64.316,167.879L64.316,165.078L65.332,165.078L65.332,167.879C65.332,168.166 65.372,168.408 65.451,168.606C65.53,168.804 65.631,168.969 65.754,169.102C65.876,169.235 66.01,169.339 66.156,169.414C66.302,169.49 66.441,169.546 66.572,169.582C66.703,169.619 66.819,169.642 66.92,169.651C67.02,169.66 67.086,169.664 67.117,169.664L68.902,169.664L68.902,165.078L69.918,165.078L69.918,170.168Z" style="fill-rule:nonzero;"/>
        <path d="M76.16,166.094L73.922,166.094L73.922,170.68L72.906,170.68L72.906,166.094L70.664,166.094L70.664,165.078L76.16,165.078L76.16,166.094Z" style="fill-rule:nonzero;"/>
        <path d="M82.289,169.032C82.289,169.232 82.264,169.412 82.213,169.573C82.162,169.733 82.095,169.874 82.012,169.996C81.929,170.119 81.831,170.223 81.719,170.309C81.607,170.395 81.491,170.465 81.371,170.52C81.251,170.575 81.129,170.615 81.006,170.641C80.882,170.667 80.765,170.68 80.656,170.68L76.738,170.68L76.738,169.664L80.656,169.664C80.851,169.664 81.003,169.607 81.111,169.492C81.219,169.378 81.273,169.225 81.273,169.032C81.273,168.938 81.259,168.852 81.23,168.774C81.201,168.696 81.16,168.628 81.107,168.571C81.054,168.514 80.989,168.469 80.912,168.438C80.835,168.407 80.75,168.391 80.656,168.391L78.32,168.391C78.156,168.391 77.979,168.362 77.789,168.303C77.599,168.244 77.423,168.15 77.26,168.02C77.097,167.89 76.962,167.719 76.853,167.508C76.745,167.297 76.691,167.04 76.691,166.735C76.691,166.43 76.745,166.173 76.853,165.963C76.962,165.754 77.097,165.583 77.26,165.451C77.423,165.32 77.599,165.225 77.789,165.166C77.979,165.107 78.156,165.078 78.32,165.078L81.777,165.078L81.777,166.094L78.32,166.094C78.127,166.094 77.977,166.153 77.869,166.27C77.761,166.387 77.707,166.542 77.707,166.735C77.707,166.93 77.761,167.085 77.869,167.198C77.977,167.311 78.127,167.368 78.32,167.368L80.664,167.368C80.773,167.37 80.889,167.385 81.012,167.412C81.134,167.439 81.256,167.482 81.377,167.539C81.498,167.596 81.613,167.669 81.723,167.756C81.832,167.843 81.929,167.948 82.014,168.071C82.099,168.193 82.166,168.333 82.215,168.492C82.264,168.651 82.289,168.831 82.289,169.032Z" style="fill-rule:nonzero;"/>
        <rect x="296" y="165.078" width="1.015" height="5.602" style="fill-rule:nonzero;"/>
        <path d="M303.801,170.246C303.801,170.319 303.787,170.387 303.76,170.45C303.733,170.512 303.696,170.566 303.65,170.612C303.605,170.657 303.551,170.693 303.488,170.719C303.425,170.745 303.359,170.758 303.289,170.758C303.226,170.758 303.163,170.746 303.099,170.723C303.036,170.7 302.979,170.662 302.93,170.61L299.219,166.735L299.219,170.68L298.203,170.68L298.203,165.512C298.203,165.408 298.232,165.314 298.291,165.229C298.35,165.144 298.424,165.081 298.515,165.039C298.612,165 298.711,164.991 298.812,165.01C298.914,165.029 299.001,165.077 299.074,165.153L302.785,169.024L302.785,165.078L303.801,165.078L303.801,170.246Z" style="fill-rule:nonzero;"/>
        <path d="M310.562,167.422C310.562,167.654 310.533,167.861 310.476,168.043C310.419,168.226 310.342,168.387 310.244,168.526C310.147,168.665 310.034,168.784 309.906,168.883C309.779,168.982 309.645,169.063 309.506,169.125C309.367,169.188 309.226,169.233 309.084,169.262C308.942,169.291 308.808,169.305 308.683,169.305L306.387,169.305L306.387,168.289L308.683,168.289C308.814,168.279 308.932,168.252 309.037,168.209C309.142,168.166 309.233,168.108 309.308,168.035C309.384,167.962 309.443,167.875 309.484,167.772C309.526,167.669 309.547,167.553 309.547,167.422L309.547,166.961C309.534,166.834 309.506,166.717 309.465,166.61C309.423,166.503 309.366,166.412 309.295,166.336C309.223,166.261 309.136,166.202 309.035,166.159C308.934,166.116 308.816,166.094 308.683,166.094L306.394,166.094C306.259,166.094 306.156,166.129 306.086,166.2C306.015,166.27 305.98,166.371 305.98,166.504L305.98,170.68L304.965,170.68L304.965,166.504C304.965,166.244 305.012,166.023 305.107,165.84C305.202,165.658 305.321,165.511 305.463,165.399C305.605,165.287 305.759,165.206 305.926,165.155C306.093,165.104 306.246,165.078 306.387,165.078L308.683,165.078C308.912,165.078 309.118,165.107 309.301,165.166C309.483,165.225 309.644,165.303 309.783,165.401C309.922,165.498 310.041,165.611 310.139,165.739C310.236,165.866 310.317,166 310.381,166.139C310.444,166.278 310.49,166.419 310.519,166.561C310.548,166.703 310.562,166.836 310.562,166.961L310.562,167.422Z" style="fill-rule:nonzero;"/>
        <path d="M316.918,170.168C316.918,170.241 316.905,170.309 316.879,170.371C316.853,170.434 316.816,170.488 316.769,170.534C316.722,170.579 316.668,170.615 316.605,170.641C316.543,170.667 316.477,170.68 316.406,170.68L314.117,170.68C313.901,170.68 313.682,170.657 313.461,170.61C313.24,170.563 313.025,170.49 312.818,170.393C312.611,170.295 312.417,170.171 312.234,170.02C312.052,169.869 311.893,169.69 311.756,169.483C311.619,169.276 311.512,169.039 311.433,168.772C311.355,168.505 311.316,168.207 311.316,167.879L311.316,165.078L312.332,165.078L312.332,167.879C312.332,168.166 312.372,168.408 312.451,168.606C312.53,168.804 312.631,168.969 312.754,169.102C312.876,169.235 313.01,169.339 313.156,169.414C313.302,169.49 313.441,169.546 313.572,169.582C313.703,169.619 313.819,169.642 313.92,169.651C314.02,169.66 314.086,169.664 314.117,169.664L315.902,169.664L315.902,165.078L316.918,165.078L316.918,170.168Z" style="fill-rule:nonzero;"/>
        <path d="M323.16,166.094L320.922,166.094L320.922,170.68L319.906,170.68L319.906,166.094L317.664,166.094L317.664,165.078L323.16,165.078L323.16,166.094Z" style="fill-rule:nonzero;"/>
        <path d="M329.289,169.032C329.289,169.232 329.264,169.412 329.213,169.573C329.162,169.733 329.095,169.874 329.012,169.996C328.929,170.119 328.831,170.223 328.719,170.309C328.607,170.395 328.491,170.465 328.371,170.52C328.251,170.575 328.129,170.615 328.006,170.641C327.882,170.667 327.765,170.68 327.656,170.68L323.738,170.68L323.738,169.664L327.656,169.664C327.851,169.664 328.003,169.607 328.111,169.492C328.219,169.378 328.273,169.225 328.273,169.032C328.273,168.938 328.259,168.852 328.23,168.774C328.201,168.696 328.16,168.628 328.107,168.571C328.054,168.514 327.989,168.469 327.912,168.438C327.835,168.407 327.75,168.391 327.656,168.391L325.32,168.391C325.156,168.391 324.979,168.362 324.789,168.303C324.599,168.244 324.423,168.15 324.26,168.02C324.097,167.89 323.961,167.719 323.853,167.508C323.745,167.297 323.691,167.04 323.691,166.735C323.691,166.43 323.745,166.173 323.853,165.963C323.961,165.754 324.097,165.583 324.26,165.451C324.423,165.32 324.599,165.225 324.789,165.166C324.979,165.107 325.156,165.078 325.32,165.078L328.777,165.078L328.777,166.094L325.32,166.094C325.127,166.094 324.977,166.153 324.869,166.27C324.761,166.387 324.707,166.542 324.707,166.735C324.707,166.93 324.761,167.085 324.869,167.198C324.977,167.311 325.127,167.368 325.32,167.368L327.664,167.368C327.773,167.37 327.889,167.385 328.012,167.412C328.134,167.439 328.256,167.482 328.377,167.539C328.498,167.596 328.613,167.669 328.723,167.756C328.832,167.843 328.929,167.948 329.014,168.071C329.099,168.193 329.166,168.333 329.215,168.492C329.264,168.651 329.289,168.831 329.289,169.032Z" style="fill-rule:nonzero;"/>
        <path d="M182.938,313L181.918,313L181.918,308.414L181,308.414L181,307.398L182.938,307.398L182.938,313Z" style="fill-rule:nonzero;"/>
        <rect x="186.614" y="309.742" width="3.664" height="0.914" style="fill-rule:nonzero;"/>
        <path d="M198.891,311.574C198.891,311.671 198.88,311.772 198.858,311.879C198.835,311.986 198.8,312.092 198.752,312.197C198.704,312.302 198.642,312.403 198.567,312.5C198.491,312.597 198.4,312.682 198.295,312.756C198.19,312.83 198.068,312.889 197.93,312.934C197.792,312.978 197.637,313 197.465,313L195.168,313C195.027,313 194.874,312.975 194.707,312.926C194.54,312.877 194.386,312.795 194.244,312.682C194.103,312.569 193.984,312.421 193.889,312.24C193.794,312.059 193.746,311.837 193.746,311.574L193.746,311.121C193.746,311.022 193.757,310.918 193.78,310.809C193.802,310.7 193.837,310.591 193.885,310.484C193.933,310.377 193.995,310.276 194.071,310.18C194.146,310.083 194.237,310 194.344,309.93C194.297,309.821 194.262,309.71 194.239,309.598C194.215,309.486 194.203,309.38 194.203,309.281L194.203,308.824C194.203,308.564 194.251,308.343 194.346,308.16C194.441,307.978 194.56,307.831 194.701,307.719C194.843,307.607 194.997,307.526 195.164,307.475C195.331,307.424 195.484,307.398 195.625,307.398L197,307.398C197.175,307.398 197.332,307.42 197.471,307.465C197.61,307.509 197.733,307.568 197.838,307.643C197.943,307.717 198.033,307.802 198.108,307.898C198.182,307.995 198.242,308.096 198.289,308.201C198.336,308.306 198.371,308.413 198.393,308.521C198.415,308.63 198.426,308.731 198.426,308.824L198.426,309.281C198.426,309.536 198.38,309.758 198.289,309.945C198.372,310 198.451,310.064 198.524,310.139C198.597,310.213 198.66,310.298 198.715,310.395C198.77,310.491 198.813,310.6 198.844,310.721C198.875,310.842 198.891,310.975 198.891,311.121L198.891,311.574ZM197.41,308.832C197.41,308.694 197.375,308.59 197.305,308.52C197.234,308.449 197.133,308.414 197,308.414L195.633,308.414C195.495,308.414 195.393,308.449 195.326,308.52C195.26,308.59 195.227,308.691 195.227,308.824L195.227,309.281C195.227,309.416 195.261,309.518 195.33,309.586C195.399,309.654 195.498,309.688 195.625,309.688L197,309.688C197.138,309.688 197.241,309.653 197.309,309.584C197.376,309.515 197.41,309.414 197.41,309.281L197.41,308.832ZM197.864,311.121C197.864,310.991 197.828,310.89 197.756,310.818C197.685,310.747 197.588,310.711 197.465,310.711L195.168,310.711C195.043,310.711 194.944,310.75 194.871,310.828C194.798,310.906 194.762,311.004 194.762,311.121L194.762,311.574C194.762,311.699 194.8,311.799 194.877,311.873C194.954,311.947 195.051,311.984 195.168,311.984L197.465,311.984C197.595,311.984 197.694,311.945 197.762,311.867C197.83,311.789 197.864,311.691 197.864,311.574L197.864,311.121Z" style="fill-rule:nonzero;"/>
        <path d="M224.346,311.574C224.346,311.671 224.335,311.772 224.312,311.879C224.289,311.986 224.253,312.092 224.203,312.197C224.153,312.302 224.09,312.403 224.012,312.5C223.935,312.597 223.841,312.682 223.732,312.756C223.622,312.83 223.495,312.889 223.352,312.934C223.208,312.978 223.047,313 222.87,313L219,313L219,311.984L222.87,311.984C223.002,311.984 223.104,311.945 223.176,311.867C223.248,311.789 223.283,311.691 223.283,311.574L223.283,311.121C223.283,310.988 223.248,310.887 223.177,310.816C223.108,310.746 223.002,310.711 222.861,310.711L220.482,310.711C220.209,310.711 219.978,310.663 219.79,310.568C219.602,310.473 219.449,310.354 219.333,310.211C219.216,310.068 219.132,309.913 219.079,309.746C219.026,309.579 219,309.424 219,309.281L219,307.398L223.864,307.398L223.864,308.414L220.056,308.414L220.056,309.281C220.056,309.416 220.092,309.518 220.165,309.586C220.239,309.654 220.344,309.688 220.482,309.688L222.87,309.688C223.016,309.688 223.175,309.713 223.349,309.764C223.522,309.815 223.682,309.897 223.829,310.01C223.976,310.123 224.1,310.271 224.199,310.453C224.298,310.636 224.346,310.858 224.346,311.121L224.346,311.574Z" style="fill-rule:nonzero;"/>
        <rect x="227.896" y="309.742" width="3.808" height="0.914" style="fill-rule:nonzero;"/>
        <path d="M240.656,311.574C240.656,311.671 240.645,311.772 240.622,311.879C240.598,311.986 240.562,312.092 240.512,312.197C240.462,312.302 240.397,312.403 240.319,312.5C240.241,312.597 240.146,312.682 240.037,312.756C239.928,312.83 239.801,312.889 239.657,312.934C239.514,312.978 239.353,313 239.174,313L236.787,313C236.64,313 236.481,312.975 236.308,312.926C236.134,312.877 235.974,312.795 235.826,312.682C235.68,312.569 235.556,312.421 235.457,312.24C235.359,312.059 235.309,311.837 235.309,311.574L235.309,311.121C235.309,311.022 235.32,310.918 235.344,310.809C235.367,310.7 235.403,310.591 235.453,310.484C235.503,310.377 235.568,310.276 235.646,310.18C235.724,310.083 235.819,310 235.93,309.93C235.881,309.821 235.845,309.71 235.821,309.598C235.796,309.486 235.784,309.38 235.784,309.281L235.784,308.824C235.784,308.564 235.834,308.343 235.932,308.16C236.031,307.978 236.155,307.831 236.301,307.719C236.449,307.607 236.609,307.526 236.783,307.475C236.956,307.424 237.115,307.398 237.262,307.398L238.691,307.398C238.873,307.398 239.036,307.42 239.18,307.465C239.325,307.509 239.453,307.568 239.562,307.643C239.671,307.717 239.764,307.802 239.842,307.898C239.919,307.995 239.982,308.096 240.031,308.201C240.079,308.306 240.116,308.413 240.139,308.521C240.162,308.63 240.173,308.731 240.173,308.824L240.173,309.281C240.173,309.536 240.125,309.758 240.031,309.945C240.117,310 240.199,310.064 240.275,310.139C240.351,310.213 240.416,310.298 240.473,310.395C240.53,310.491 240.575,310.6 240.607,310.721C240.64,310.842 240.656,310.975 240.656,311.121L240.656,311.574ZM239.117,308.832C239.117,308.694 239.081,308.59 239.008,308.52C238.934,308.449 238.829,308.414 238.691,308.414L237.27,308.414C237.127,308.414 237.021,308.449 236.951,308.52C236.882,308.59 236.848,308.691 236.848,308.824L236.848,309.281C236.848,309.416 236.883,309.518 236.955,309.586C237.027,309.654 237.13,309.688 237.262,309.688L238.691,309.688C238.834,309.688 238.941,309.653 239.012,309.584C239.082,309.515 239.117,309.414 239.117,309.281L239.117,308.832ZM239.589,311.121C239.589,310.991 239.551,310.89 239.477,310.818C239.403,310.747 239.302,310.711 239.174,310.711L236.787,310.711C236.657,310.711 236.554,310.75 236.478,310.828C236.402,310.906 236.365,311.004 236.365,311.121L236.365,311.574C236.365,311.699 236.404,311.799 236.484,311.873C236.564,311.947 236.665,311.984 236.787,311.984L239.174,311.984C239.309,311.984 239.412,311.945 239.483,311.867C239.553,311.789 239.589,311.691 239.589,311.574L239.589,311.121Z" style="fill-rule:nonzero;"/>
        <path d="M142.937,313L141.918,313L141.918,308.414L141,308.414L141,307.398L142.937,307.398L142.937,313Z" style="fill-rule:nonzero;"/>
        <rect x="146.613" y="309.742" width="3.664" height="0.914" style="fill-rule:nonzero;"/>
        <path d="M158.898,313L157.875,313L157.875,310.711L154.266,310.711C154.193,310.711 154.125,310.697 154.062,310.67C154,310.643 153.946,310.606 153.9,310.561C153.855,310.515 153.819,310.461 153.793,310.398C153.767,310.336 153.754,310.27 153.754,310.199L153.754,307.398L154.769,307.398L154.769,309.688L157.875,309.688L157.875,307.398L158.898,307.398L158.898,313Z" style="fill-rule:nonzero;"/>
        <path d="M88.254,309.281C88.254,309.513 88.225,309.72 88.168,309.902C88.111,310.085 88.033,310.246 87.936,310.385C87.838,310.524 87.725,310.643 87.598,310.742C87.47,310.841 87.336,310.923 87.197,310.986C87.058,311.05 86.917,311.096 86.775,311.125C86.633,311.154 86.5,311.168 86.375,311.168L88.496,313L86.926,313L84.809,311.168L84.078,311.168L84.078,310.152L86.375,310.152C86.502,310.142 86.619,310.115 86.725,310.072C86.83,310.029 86.921,309.971 86.998,309.898C87.075,309.825 87.134,309.738 87.176,309.635C87.217,309.532 87.238,309.414 87.238,309.281L87.238,308.641C87.238,308.584 87.231,308.54 87.217,308.51C87.202,308.48 87.184,308.458 87.162,308.443C87.14,308.429 87.117,308.421 87.092,308.418C87.067,308.415 87.044,308.414 87.023,308.414L83.672,308.414L83.672,313L82.656,313L82.656,307.91C82.656,307.84 82.669,307.774 82.695,307.711C82.721,307.648 82.757,307.594 82.803,307.547C82.848,307.5 82.902,307.464 82.965,307.438C83.028,307.411 83.095,307.398 83.168,307.398L87.023,307.398C87.25,307.398 87.441,307.439 87.598,307.521C87.754,307.604 87.881,307.707 87.979,307.83C88.076,307.954 88.146,308.087 88.189,308.23C88.232,308.373 88.254,308.508 88.254,308.633L88.254,309.281Z" style="fill-rule:nonzero;"/>
        <path d="M93.879,310.711L90.672,310.711L90.672,309.688L93.879,309.688L93.879,310.711ZM94.336,313L90.672,313C90.531,313 90.378,312.975 90.211,312.926C90.044,312.877 89.89,312.795 89.748,312.682C89.606,312.569 89.488,312.421 89.393,312.24C89.298,312.059 89.25,311.837 89.25,311.574L89.25,307.91C89.25,307.84 89.263,307.774 89.289,307.711C89.315,307.648 89.351,307.594 89.396,307.547C89.442,307.5 89.496,307.464 89.559,307.438C89.621,307.411 89.689,307.398 89.762,307.398L94.336,307.398L94.336,308.414L90.266,308.414L90.266,311.574C90.266,311.707 90.301,311.808 90.371,311.879C90.442,311.949 90.545,311.984 90.68,311.984L94.336,311.984L94.336,313Z" style="fill-rule:nonzero;"/>
        <path d="M100.68,311.352C100.68,311.552 100.655,311.732 100.604,311.893C100.553,312.053 100.485,312.194 100.402,312.316C100.319,312.439 100.221,312.543 100.109,312.629C99.997,312.715 99.881,312.785 99.762,312.84C99.642,312.895 99.52,312.935 99.396,312.961C99.273,312.987 99.156,313 99.047,313L95.129,313L95.129,311.984L99.047,311.984C99.242,311.984 99.394,311.927 99.502,311.812C99.61,311.698 99.664,311.545 99.664,311.352C99.664,311.258 99.65,311.172 99.621,311.094C99.592,311.016 99.551,310.948 99.498,310.891C99.445,310.834 99.38,310.789 99.303,310.758C99.226,310.727 99.14,310.711 99.047,310.711L96.711,310.711C96.547,310.711 96.37,310.682 96.18,310.623C95.99,310.564 95.813,310.47 95.65,310.34C95.487,310.21 95.352,310.039 95.244,309.828C95.136,309.617 95.082,309.36 95.082,309.055C95.082,308.75 95.136,308.493 95.244,308.283C95.352,308.074 95.487,307.903 95.65,307.771C95.813,307.64 95.99,307.545 96.18,307.486C96.37,307.427 96.547,307.398 96.711,307.398L100.168,307.398L100.168,308.414L96.711,308.414C96.518,308.414 96.368,308.473 96.26,308.59C96.152,308.707 96.098,308.862 96.098,309.055C96.098,309.25 96.152,309.405 96.26,309.518C96.368,309.631 96.518,309.688 96.711,309.688L99.055,309.688C99.164,309.69 99.28,309.705 99.402,309.732C99.525,309.759 99.647,309.802 99.768,309.859C99.889,309.916 100.004,309.989 100.113,310.076C100.222,310.163 100.319,310.268 100.404,310.391C100.489,310.513 100.556,310.653 100.605,310.812C100.655,310.971 100.68,311.151 100.68,311.352Z" style="fill-rule:nonzero;"/>
        <path d="M45.668,313L42.004,313C41.91,313 41.809,312.989 41.701,312.967C41.593,312.945 41.486,312.91 41.381,312.863C41.276,312.816 41.175,312.756 41.078,312.682C40.982,312.607 40.897,312.517 40.822,312.412C40.748,312.307 40.689,312.184 40.645,312.045C40.6,311.906 40.578,311.749 40.578,311.574L40.578,308.824C40.578,308.731 40.589,308.63 40.611,308.521C40.634,308.413 40.668,308.306 40.715,308.201C40.762,308.096 40.823,307.995 40.898,307.898C40.974,307.802 41.065,307.717 41.17,307.643C41.275,307.568 41.397,307.509 41.535,307.465C41.673,307.42 41.829,307.398 42.004,307.398L45.668,307.398L45.668,308.414L42.004,308.414C41.871,308.414 41.77,308.449 41.699,308.52C41.629,308.59 41.594,308.694 41.594,308.832L41.594,311.574C41.594,311.705 41.63,311.806 41.701,311.877C41.773,311.948 41.874,311.984 42.004,311.984L45.668,311.984L45.668,313Z" style="fill-rule:nonzero;"/>
        <path d="M51.773,313L47.141,313C47.068,313 47,312.987 46.938,312.961C46.875,312.935 46.821,312.899 46.775,312.854C46.73,312.808 46.694,312.754 46.668,312.691C46.642,312.629 46.629,312.561 46.629,312.488L46.629,307.398L47.645,307.398L47.645,311.984L51.773,311.984L51.773,313Z" style="fill-rule:nonzero;"/>
        <path d="M58.391,313L56.949,313L54.664,310.711L53.949,310.711L53.949,309.688L54.664,309.688L56.949,307.398L58.391,307.398L55.512,310.199L58.391,313ZM53.543,313L52.527,313L52.527,307.398L53.543,307.398L53.543,313Z" style="fill-rule:nonzero;"/>
        <path d="M291.597,310.656C291.597,310.997 291.538,311.311 291.42,311.598C291.301,311.884 291.138,312.131 290.929,312.338C290.721,312.545 290.474,312.707 290.187,312.824C289.901,312.941 289.59,313 289.254,313L286.511,313C286.438,313 286.371,312.987 286.308,312.961C286.246,312.935 286.192,312.899 286.146,312.854C286.101,312.808 286.065,312.754 286.039,312.691C286.013,312.629 286,312.561 286,312.488L286,307.91C286,307.84 286.013,307.774 286.039,307.711C286.065,307.648 286.101,307.594 286.146,307.547C286.192,307.5 286.246,307.464 286.308,307.438C286.371,307.411 286.438,307.398 286.511,307.398L289.254,307.398C289.59,307.398 289.901,307.457 290.187,307.574C290.474,307.691 290.721,307.854 290.929,308.061C291.138,308.268 291.301,308.515 291.42,308.803C291.538,309.09 291.597,309.403 291.597,309.742L291.597,310.656ZM290.582,309.742C290.582,309.544 290.55,309.363 290.486,309.199C290.422,309.035 290.332,308.895 290.215,308.779C290.098,308.663 289.958,308.573 289.795,308.51C289.632,308.446 289.451,308.414 289.254,308.414L287.015,308.414L287.015,311.984L289.254,311.984C289.451,311.984 289.632,311.952 289.795,311.889C289.958,311.825 290.098,311.735 290.215,311.619C290.332,311.503 290.422,311.364 290.486,311.201C290.55,311.038 290.582,310.857 290.582,310.656L290.582,309.742Z" style="fill-rule:nonzero;"/>
        <rect x="292.601" y="307.398" width="1.016" height="5.602" style="fill-rule:nonzero;"/>
        <path d="M299.437,310.711L296.226,310.711L296.226,309.688L299.437,309.688L299.437,310.711ZM299.89,308.414L295.82,308.414L295.82,313L294.804,313L294.804,307.91C294.804,307.84 294.817,307.774 294.843,307.711C294.87,307.648 294.906,307.594 294.951,307.547C294.996,307.5 295.05,307.464 295.113,307.438C295.176,307.411 295.243,307.398 295.316,307.398L299.89,307.398L299.89,308.414Z" style="fill-rule:nonzero;"/>
        <path d="M305.343,310.711L302.133,310.711L302.133,309.688L305.343,309.688L305.343,310.711ZM305.797,308.414L301.726,308.414L301.726,313L300.711,313L300.711,307.91C300.711,307.84 300.724,307.774 300.75,307.711C300.776,307.648 300.812,307.594 300.857,307.547C300.902,307.5 300.956,307.464 301.019,307.438C301.082,307.411 301.149,307.398 301.222,307.398L305.797,307.398L305.797,308.414Z" style="fill-rule:nonzero;"/>
        <rect x="309.011" y="309.742" width="3.664" height="0.914" style="fill-rule:nonzero;"/>
        <path d="M321.918,309.281C321.918,309.513 321.889,309.72 321.832,309.902C321.775,310.085 321.697,310.246 321.599,310.385C321.502,310.524 321.389,310.643 321.261,310.742C321.134,310.841 321,310.923 320.861,310.986C320.722,311.05 320.581,311.096 320.439,311.125C320.297,311.154 320.164,311.168 320.039,311.168L322.16,313L320.59,313L318.472,311.168L317.742,311.168L317.742,310.152L320.039,310.152C320.166,310.142 320.283,310.115 320.388,310.072C320.494,310.029 320.585,309.971 320.662,309.898C320.739,309.825 320.798,309.738 320.84,309.635C320.881,309.532 320.902,309.414 320.902,309.281L320.902,308.641C320.902,308.584 320.895,308.54 320.881,308.51C320.866,308.48 320.848,308.458 320.826,308.443C320.804,308.429 320.781,308.421 320.756,308.418C320.731,308.415 320.708,308.414 320.687,308.414L317.336,308.414L317.336,313L316.32,313L316.32,307.91C316.32,307.84 316.333,307.774 316.359,307.711C316.385,307.648 316.421,307.594 316.466,307.547C316.512,307.5 316.566,307.464 316.629,307.438C316.691,307.411 316.759,307.398 316.832,307.398L320.687,307.398C320.914,307.398 321.105,307.439 321.261,307.521C321.418,307.604 321.545,307.707 321.642,307.83C321.74,307.954 321.81,308.087 321.853,308.23C321.896,308.373 321.918,308.508 321.918,308.633L321.918,309.281Z" style="fill-rule:nonzero;"/>
        <path d="M327.543,310.711L324.336,310.711L324.336,309.688L327.543,309.688L327.543,310.711ZM328,313L324.336,313C324.195,313 324.042,312.975 323.875,312.926C323.708,312.877 323.554,312.795 323.412,312.682C323.27,312.569 323.151,312.421 323.056,312.24C322.961,312.059 322.914,311.837 322.914,311.574L322.914,307.91C322.914,307.84 322.927,307.774 322.953,307.711C322.979,307.648 323.015,307.594 323.06,307.547C323.106,307.5 323.16,307.464 323.222,307.438C323.285,307.411 323.352,307.398 323.425,307.398L328,307.398L328,308.414L323.929,308.414L323.929,311.574C323.929,311.707 323.964,311.808 324.035,311.879C324.105,311.949 324.208,311.984 324.343,311.984L328,311.984L328,313Z" style="fill-rule:nonzero;"/>
        <path d="M333.961,313L330.297,313C330.203,313 330.102,312.989 329.994,312.967C329.886,312.945 329.779,312.91 329.674,312.863C329.568,312.816 329.467,312.756 329.371,312.682C329.274,312.607 329.189,312.517 329.115,312.412C329.041,312.307 328.982,312.184 328.937,312.045C328.893,311.906 328.871,311.749 328.871,311.574L328.871,308.824C328.871,308.731 328.882,308.63 328.904,308.521C328.926,308.413 328.961,308.306 329.008,308.201C329.055,308.096 329.116,307.995 329.191,307.898C329.266,307.802 329.357,307.717 329.463,307.643C329.568,307.568 329.69,307.509 329.828,307.465C329.966,307.42 330.122,307.398 330.297,307.398L333.961,307.398L333.961,308.414L330.297,308.414C330.164,308.414 330.062,308.449 329.992,308.52C329.921,308.59 329.886,308.694 329.886,308.832L329.886,311.574C329.886,311.705 329.922,311.806 329.994,311.877C330.065,311.948 330.166,311.984 330.297,311.984L333.961,311.984L333.961,313Z" style="fill-rule:nonzero;"/>
        <path d="M339.984,308.414L337.746,308.414L337.746,313L336.73,313L336.73,308.414L334.488,308.414L334.488,307.398L339.984,307.398L339.984,308.414Z" style="fill-rule:nonzero;"/>
        <rect x="298" y="317.867" width="3.664" height="0.914" style="fill-rule:nonzero;"/>
        <path d="M327.664,318.781L326.289,318.781L326.289,320.156L325.379,320.156L325.379,318.781L324,318.781L324,317.867L325.379,317.867L325.379,316.492L326.289,316.492L326.289,317.867L327.664,317.867L327.664,318.781Z" style="fill-rule:nonzero;"/>
        <path d="M185.298,365.35C185.298,365.459 185.277,365.561 185.236,365.654C185.195,365.748 185.141,365.829 185.072,365.897C185.004,365.966 184.923,366.02 184.829,366.059C184.735,366.098 184.635,366.117 184.53,366.117C184.437,366.117 184.342,366.099 184.246,366.064C184.151,366.029 184.066,365.973 183.991,365.895L178.425,360.082L178.425,366L176.901,366L176.901,358.248C176.901,358.092 176.945,357.95 177.033,357.823C177.121,357.696 177.233,357.602 177.37,357.539C177.515,357.48 177.663,357.466 177.815,357.495C177.968,357.524 178.099,357.596 178.208,357.709L183.774,363.516L183.774,357.598L185.298,357.598L185.298,365.35Z" style="fill-rule:nonzero;"/>
        <path d="M194.784,366L187.835,366C187.726,366 187.624,365.98 187.53,365.941C187.437,365.902 187.356,365.849 187.287,365.78C187.219,365.712 187.165,365.631 187.126,365.537C187.087,365.443 187.067,365.341 187.067,365.232L187.067,357.598L188.591,357.598L188.591,364.477L194.784,364.477L194.784,366Z" style="fill-rule:nonzero;"/>
        <path d="M203.427,366L197.931,366C197.79,366 197.639,365.983 197.477,365.95C197.314,365.917 197.154,365.865 196.996,365.795C196.838,365.724 196.687,365.633 196.542,365.522C196.397,365.411 196.269,365.276 196.158,365.118C196.047,364.96 195.958,364.776 195.892,364.567C195.825,364.358 195.792,364.123 195.792,363.861L195.792,359.736C195.792,359.595 195.809,359.444 195.842,359.282C195.875,359.12 195.927,358.96 195.997,358.802C196.068,358.643 196.159,358.492 196.272,358.348C196.385,358.203 196.521,358.075 196.68,357.964C196.838,357.853 197.021,357.764 197.228,357.697C197.435,357.631 197.669,357.598 197.931,357.598L203.427,357.598L203.427,359.121L197.931,359.121C197.732,359.121 197.579,359.174 197.474,359.279C197.368,359.385 197.315,359.541 197.315,359.748L197.315,363.861C197.315,364.056 197.369,364.208 197.477,364.315C197.584,364.423 197.736,364.477 197.931,364.477L203.427,364.477L203.427,366Z" style="fill-rule:nonzero;"/>
        <path d="M207,358L244,358" style="fill:none;fill-rule:nonzero;stroke:#007ba9;stroke-width:1px;stroke-linecap:round;"/>
        <path d="M136,358L173,358" style="fill:none;fill-rule:nonzero;stroke:#00799a;stroke-width:1px;stroke-linecap:round;"/>
        <path d="M212,20L244,20" style="fill:none;fill-rule:nonzero;stroke:#00799a;stroke-width:1px;stroke-linecap:round;"/>
        <path d="M136,20L167,20" style="fill:none;fill-rule:nonzero;stroke:#00799a;stroke-width:1px;stroke-linecap:round;"/>
        <path d="M159.566,28.008L158.543,28.008L158.543,24.672L156.742,27.84C156.698,27.921 156.636,27.982 156.557,28.023C156.478,28.065 156.392,28.086 156.301,28.086C156.212,28.086 156.13,28.065 156.053,28.023C155.976,27.982 155.916,27.921 155.871,27.84L154.062,24.672L154.062,28.008L153.047,28.008L153.047,22.84C153.047,22.723 153.081,22.618 153.15,22.527C153.219,22.436 153.31,22.375 153.422,22.344C153.477,22.331 153.531,22.326 153.586,22.33C153.641,22.334 153.693,22.346 153.744,22.365C153.795,22.385 153.841,22.412 153.883,22.447C153.924,22.482 153.959,22.525 153.988,22.574L156.301,26.594L158.613,22.574C158.673,22.475 158.756,22.405 158.861,22.363C158.967,22.322 159.077,22.315 159.191,22.344C159.3,22.375 159.39,22.436 159.461,22.527C159.531,22.618 159.566,22.723 159.566,22.84L159.566,28.008Z" style="fill-rule:nonzero;"/>
        <path d="M161.664,22.918L160.648,22.918L160.648,22L161.664,22L161.664,22.918ZM161.664,28.008L160.648,28.008L160.648,23.785L161.664,23.785L161.664,28.008Z" style="fill-rule:nonzero;"/>
        <path d="M167.461,23.785L165.637,25.777L167.691,28.008L166.293,28.008L164.941,26.535L163.59,28.008L162.188,28.008L164.238,25.77L162.422,23.785L163.812,23.785L164.934,25.008L166.062,23.785L167.461,23.785Z" style="fill-rule:nonzero;"/>
        <path d="M172.602,25.184C172.602,25.325 172.577,25.476 172.527,25.639C172.478,25.802 172.398,25.953 172.287,26.092C172.176,26.231 172.032,26.348 171.854,26.441C171.675,26.535 171.458,26.582 171.203,26.582L169.371,26.582L169.371,25.617L171.203,25.617C171.341,25.617 171.448,25.575 171.523,25.49C171.599,25.405 171.637,25.301 171.637,25.176C171.637,25.043 171.595,24.939 171.51,24.863C171.425,24.788 171.323,24.75 171.203,24.75L169.371,24.75C169.233,24.75 169.126,24.792 169.051,24.877C168.976,24.962 168.938,25.066 168.938,25.191L168.938,26.609C168.938,26.744 168.98,26.85 169.064,26.926C169.149,27.001 169.254,27.039 169.379,27.039L171.203,27.039L171.203,28.008L169.371,28.008C169.23,28.008 169.079,27.983 168.916,27.934C168.753,27.884 168.602,27.804 168.463,27.693C168.324,27.582 168.207,27.438 168.113,27.26C168.02,27.081 167.973,26.864 167.973,26.609L167.973,25.184C167.973,25.043 167.998,24.892 168.047,24.729C168.096,24.566 168.176,24.414 168.287,24.275C168.398,24.136 168.542,24.019 168.721,23.926C168.899,23.832 169.116,23.785 169.371,23.785L171.203,23.785C171.344,23.785 171.495,23.81 171.658,23.859C171.821,23.909 171.972,23.989 172.111,24.1C172.25,24.211 172.367,24.355 172.461,24.533C172.555,24.712 172.602,24.929 172.602,25.184Z" style="fill-rule:nonzero;"/>
        <path d="M176.98,24.801L174.695,24.801C174.557,24.801 174.453,24.835 174.383,24.904C174.312,24.973 174.277,25.074 174.277,25.207L174.277,28.008L173.262,28.008L173.262,25.207C173.262,25.032 173.284,24.876 173.328,24.738C173.373,24.6 173.432,24.478 173.506,24.373C173.58,24.268 173.665,24.178 173.762,24.104C173.858,24.029 173.959,23.969 174.064,23.922C174.17,23.875 174.277,23.841 174.385,23.818C174.493,23.796 174.594,23.785 174.688,23.785L176.98,23.785L176.98,24.801Z" style="fill-rule:nonzero;"/>
        <path d="M185.684,26.359C185.684,26.56 185.658,26.74 185.607,26.9C185.556,27.061 185.489,27.202 185.406,27.324C185.323,27.447 185.225,27.551 185.113,27.637C185.001,27.723 184.885,27.793 184.766,27.848C184.646,27.903 184.524,27.943 184.4,27.969C184.277,27.995 184.16,28.008 184.051,28.008L180.133,28.008L180.133,26.992L184.051,26.992C184.246,26.992 184.398,26.935 184.506,26.82C184.614,26.705 184.668,26.552 184.668,26.359C184.668,26.266 184.654,26.18 184.625,26.102C184.596,26.023 184.555,25.955 184.502,25.898C184.449,25.841 184.384,25.797 184.307,25.766C184.23,25.735 184.144,25.719 184.051,25.719L181.715,25.719C181.551,25.719 181.374,25.69 181.184,25.631C180.993,25.572 180.817,25.478 180.654,25.348C180.491,25.217 180.356,25.047 180.248,24.836C180.14,24.625 180.086,24.367 180.086,24.062C180.086,23.757 180.14,23.5 180.248,23.291C180.356,23.082 180.491,22.911 180.654,22.779C180.817,22.648 180.993,22.553 181.184,22.494C181.374,22.435 181.551,22.406 181.715,22.406L185.172,22.406L185.172,23.422L181.715,23.422C181.522,23.422 181.372,23.481 181.264,23.598C181.156,23.715 181.102,23.869 181.102,24.062C181.102,24.257 181.156,24.412 181.264,24.525C181.372,24.638 181.522,24.695 181.715,24.695L184.059,24.695C184.168,24.698 184.284,24.713 184.406,24.74C184.529,24.767 184.65,24.81 184.771,24.867C184.892,24.924 185.008,24.997 185.117,25.084C185.226,25.171 185.323,25.276 185.408,25.398C185.493,25.521 185.56,25.661 185.609,25.82C185.659,25.979 185.684,26.159 185.684,26.359Z" style="fill-rule:nonzero;"/>
        <path d="M190.957,25.184C190.957,25.325 190.932,25.476 190.883,25.639C190.834,25.802 190.754,25.953 190.643,26.092C190.532,26.231 190.388,26.348 190.209,26.441C190.03,26.535 189.814,26.582 189.559,26.582L187.727,26.582L187.727,25.617L189.559,25.617C189.697,25.617 189.804,25.575 189.879,25.49C189.954,25.405 189.992,25.301 189.992,25.176C189.992,25.043 189.95,24.939 189.865,24.863C189.78,24.788 189.678,24.75 189.559,24.75L187.727,24.75C187.589,24.75 187.482,24.792 187.406,24.877C187.331,24.962 187.293,25.066 187.293,25.191L187.293,26.609C187.293,26.744 187.335,26.85 187.42,26.926C187.505,27.001 187.609,27.039 187.734,27.039L189.559,27.039L189.559,28.008L187.727,28.008C187.586,28.008 187.434,27.983 187.271,27.934C187.108,27.884 186.957,27.804 186.818,27.693C186.679,27.582 186.562,27.438 186.469,27.26C186.375,27.081 186.328,26.864 186.328,26.609L186.328,25.184C186.328,25.043 186.353,24.892 186.402,24.729C186.452,24.566 186.532,24.414 186.643,24.275C186.754,24.136 186.898,24.019 187.076,23.926C187.255,23.832 187.472,23.785 187.727,23.785L189.559,23.785C189.7,23.785 189.851,23.81 190.014,23.859C190.177,23.909 190.328,23.989 190.467,24.1C190.606,24.211 190.723,24.355 190.816,24.533C190.91,24.712 190.957,24.929 190.957,25.184Z" style="fill-rule:nonzero;"/>
        <path d="M196.234,29.328L195.219,29.328L195.219,25.207C195.219,25.074 195.185,24.973 195.117,24.904C195.05,24.835 194.947,24.801 194.809,24.801L192.977,24.801C192.852,24.801 192.753,24.839 192.68,24.916C192.607,24.993 192.57,25.09 192.57,25.207L192.57,26.582C192.57,26.715 192.605,26.816 192.676,26.887C192.746,26.957 192.849,26.992 192.984,26.992L194.809,26.992L194.809,28.008L192.977,28.008C192.836,28.008 192.683,27.983 192.516,27.934C192.349,27.884 192.195,27.802 192.053,27.689C191.911,27.576 191.792,27.429 191.697,27.248C191.602,27.067 191.555,26.845 191.555,26.582L191.555,25.207C191.555,25.11 191.566,25.009 191.588,24.902C191.61,24.795 191.644,24.689 191.691,24.584C191.738,24.479 191.799,24.378 191.873,24.281C191.947,24.185 192.037,24.1 192.143,24.027C192.248,23.954 192.37,23.896 192.508,23.852C192.646,23.807 192.802,23.785 192.977,23.785L194.809,23.785C194.905,23.785 195.007,23.796 195.115,23.818C195.223,23.841 195.33,23.875 195.436,23.922C195.541,23.969 195.642,24.029 195.738,24.104C195.835,24.178 195.919,24.268 195.992,24.373C196.065,24.478 196.124,24.6 196.168,24.738C196.212,24.876 196.234,25.032 196.234,25.207L196.234,29.328Z" style="fill-rule:nonzero;"/>
        <path d="M201.781,27.496C201.781,27.569 201.768,27.636 201.742,27.699C201.716,27.762 201.68,27.816 201.635,27.861C201.589,27.907 201.536,27.943 201.475,27.969C201.414,27.995 201.348,28.008 201.277,28.008L198.98,28.008C198.855,28.008 198.722,27.994 198.58,27.965C198.438,27.936 198.298,27.89 198.16,27.826C198.022,27.762 197.889,27.681 197.76,27.584C197.631,27.487 197.518,27.368 197.422,27.229C197.325,27.09 197.248,26.929 197.189,26.746C197.131,26.564 197.102,26.358 197.102,26.129L197.102,23.785L198.117,23.785L198.117,26.129C198.117,26.262 198.14,26.381 198.186,26.486C198.231,26.592 198.293,26.683 198.371,26.758C198.449,26.833 198.541,26.891 198.646,26.932C198.752,26.972 198.866,26.992 198.988,26.992L200.766,26.992L200.766,23.785L201.781,23.785L201.781,27.496Z" style="fill-rule:nonzero;"/>
        <path d="M207.277,25.184C207.277,25.325 207.252,25.476 207.203,25.639C207.154,25.802 207.074,25.953 206.963,26.092C206.852,26.231 206.708,26.348 206.529,26.441C206.351,26.535 206.134,26.582 205.879,26.582L204.047,26.582L204.047,25.617L205.879,25.617C206.017,25.617 206.124,25.575 206.199,25.49C206.274,25.405 206.312,25.301 206.312,25.176C206.312,25.043 206.27,24.939 206.186,24.863C206.101,24.788 205.999,24.75 205.879,24.75L204.047,24.75C203.909,24.75 203.802,24.792 203.727,24.877C203.651,24.962 203.613,25.066 203.613,25.191L203.613,26.609C203.613,26.744 203.655,26.85 203.74,26.926C203.825,27.001 203.93,27.039 204.055,27.039L205.879,27.039L205.879,28.008L204.047,28.008C203.906,28.008 203.755,27.983 203.592,27.934C203.429,27.884 203.278,27.804 203.139,27.693C203,27.582 202.883,27.438 202.789,27.26C202.695,27.081 202.648,26.864 202.648,26.609L202.648,25.184C202.648,25.043 202.673,24.892 202.723,24.729C202.772,24.566 202.852,24.414 202.963,24.275C203.074,24.136 203.218,24.019 203.396,23.926C203.575,23.832 203.792,23.785 204.047,23.785L205.879,23.785C206.02,23.785 206.171,23.81 206.334,23.859C206.497,23.909 206.648,23.989 206.787,24.1C206.926,24.211 207.043,24.355 207.137,24.533C207.23,24.712 207.277,24.929 207.277,25.184Z" style="fill-rule:nonzero;"/>
        <path d="M212.641,28.008L211.625,28.008L211.625,25.664C211.625,25.531 211.602,25.412 211.557,25.307C211.511,25.201 211.449,25.11 211.371,25.035C211.293,24.96 211.201,24.902 211.096,24.861C210.991,24.821 210.877,24.801 210.754,24.801L208.977,24.801L208.977,28.008L207.961,28.008L207.961,24.289C207.961,24.219 207.974,24.153 208,24.092C208.026,24.031 208.062,23.977 208.109,23.932C208.156,23.886 208.211,23.85 208.273,23.824C208.336,23.798 208.402,23.785 208.473,23.785L210.762,23.785C210.889,23.785 211.024,23.799 211.166,23.828C211.308,23.857 211.449,23.903 211.588,23.967C211.727,24.03 211.86,24.111 211.986,24.209C212.113,24.306 212.225,24.425 212.322,24.564C212.42,24.703 212.498,24.864 212.555,25.047C212.612,25.229 212.641,25.435 212.641,25.664L212.641,28.008Z" style="fill-rule:nonzero;"/>
        <path d="M217.621,28.008L214.867,28.008C214.726,28.008 214.573,27.983 214.406,27.934C214.239,27.884 214.085,27.802 213.943,27.689C213.801,27.576 213.683,27.429 213.588,27.248C213.493,27.067 213.445,26.845 213.445,26.582L213.445,25.207C213.445,25.11 213.456,25.009 213.479,24.902C213.501,24.795 213.535,24.689 213.582,24.584C213.629,24.479 213.689,24.378 213.764,24.281C213.838,24.185 213.928,24.1 214.033,24.027C214.138,23.954 214.26,23.896 214.398,23.852C214.536,23.807 214.692,23.785 214.867,23.785L217.621,23.785L217.621,24.801L214.867,24.801C214.734,24.801 214.633,24.835 214.564,24.902C214.495,24.97 214.461,25.074 214.461,25.215L214.461,26.582C214.461,26.715 214.496,26.816 214.566,26.887C214.637,26.957 214.74,26.992 214.875,26.992L217.621,26.992L217.621,28.008Z" style="fill-rule:nonzero;"/>
        <path d="M222.973,25.184C222.973,25.325 222.948,25.476 222.898,25.639C222.849,25.802 222.769,25.953 222.658,26.092C222.547,26.231 222.403,26.348 222.225,26.441C222.046,26.535 221.829,26.582 221.574,26.582L219.742,26.582L219.742,25.617L221.574,25.617C221.712,25.617 221.819,25.575 221.895,25.49C221.97,25.405 222.008,25.301 222.008,25.176C222.008,25.043 221.966,24.939 221.881,24.863C221.796,24.788 221.694,24.75 221.574,24.75L219.742,24.75C219.604,24.75 219.497,24.792 219.422,24.877C219.347,24.962 219.309,25.066 219.309,25.191L219.309,26.609C219.309,26.744 219.351,26.85 219.436,26.926C219.52,27.001 219.625,27.039 219.75,27.039L221.574,27.039L221.574,28.008L219.742,28.008C219.601,28.008 219.45,27.983 219.287,27.934C219.124,27.884 218.973,27.804 218.834,27.693C218.695,27.582 218.578,27.438 218.484,27.26C218.391,27.081 218.344,26.864 218.344,26.609L218.344,25.184C218.344,25.043 218.369,24.892 218.418,24.729C218.467,24.566 218.547,24.414 218.658,24.275C218.769,24.136 218.913,24.019 219.092,23.926C219.27,23.832 219.487,23.785 219.742,23.785L221.574,23.785C221.715,23.785 221.866,23.81 222.029,23.859C222.192,23.909 222.343,23.989 222.482,24.1C222.621,24.211 222.738,24.355 222.832,24.533C222.926,24.712 222.973,24.929 222.973,25.184Z" style="fill-rule:nonzero;"/>
        <path d="M227.352,24.801L225.066,24.801C224.928,24.801 224.824,24.835 224.754,24.904C224.683,24.973 224.648,25.074 224.648,25.207L224.648,28.008L223.633,28.008L223.633,25.207C223.633,25.032 223.655,24.876 223.699,24.738C223.744,24.6 223.803,24.478 223.877,24.373C223.951,24.268 224.036,24.178 224.133,24.104C224.229,24.029 224.33,23.969 224.436,23.922C224.541,23.875 224.648,23.841 224.756,23.818C224.864,23.796 224.965,23.785 225.059,23.785L227.352,23.785L227.352,24.801Z" style="fill-rule:nonzero;"/>
        <path d="M175.589,20L174.06,20L174.06,13.121L172.683,13.121L172.683,11.598L175.589,11.598L175.589,20Z" style="fill-rule:nonzero;"/>
        <path d="M186.968,16.484C186.968,16.828 186.924,17.153 186.836,17.46C186.748,17.767 186.624,18.051 186.464,18.312C186.304,18.574 186.115,18.809 185.896,19.016C185.677,19.223 185.437,19.399 185.178,19.546C184.918,19.693 184.642,19.805 184.349,19.883C184.056,19.961 183.757,20 183.452,20L180.704,20C180.395,20 180.095,19.961 179.802,19.883C179.509,19.805 179.232,19.693 178.973,19.546C178.713,19.399 178.474,19.223 178.255,19.016C178.036,18.809 177.848,18.574 177.689,18.312C177.531,18.051 177.408,17.767 177.32,17.46C177.232,17.153 177.188,16.828 177.188,16.484L177.188,15.113C177.188,14.598 177.285,14.125 177.479,13.695C177.672,13.266 177.931,12.896 178.255,12.585C178.579,12.274 178.953,12.032 179.377,11.858C179.801,11.685 180.243,11.598 180.704,11.598L183.452,11.598C183.757,11.598 184.056,11.637 184.349,11.715C184.642,11.793 184.918,11.905 185.178,12.052C185.437,12.198 185.677,12.375 185.896,12.582C186.115,12.789 186.304,13.024 186.464,13.285C186.624,13.547 186.748,13.831 186.836,14.138C186.924,14.445 186.968,14.77 186.968,15.113L186.968,16.484ZM185.433,15.113C185.433,14.812 185.378,14.539 185.269,14.293C185.159,14.047 185.013,13.836 184.832,13.66C184.651,13.484 184.441,13.349 184.202,13.256C183.964,13.162 183.714,13.117 183.452,13.121L180.704,13.121C180.45,13.117 180.203,13.161 179.963,13.253C179.723,13.345 179.51,13.478 179.324,13.651C179.139,13.825 178.99,14.036 178.879,14.284C178.768,14.532 178.712,14.808 178.712,15.113L178.712,16.484C178.712,16.789 178.767,17.064 178.876,17.311C178.985,17.557 179.132,17.767 179.315,17.94C179.499,18.114 179.711,18.248 179.951,18.342C180.192,18.435 180.443,18.48 180.704,18.477L183.452,18.477C183.753,18.477 184.025,18.427 184.27,18.327C184.514,18.228 184.722,18.09 184.894,17.914C185.065,17.738 185.198,17.528 185.292,17.284C185.386,17.04 185.433,16.773 185.433,16.484L185.433,15.113ZM184.771,14C184.829,14.086 184.868,14.179 184.888,14.278C184.907,14.378 184.907,14.476 184.888,14.571C184.868,14.667 184.83,14.757 184.773,14.841C184.716,14.925 184.643,14.996 184.554,15.055L180.44,17.803C180.374,17.854 180.306,17.889 180.235,17.908C180.165,17.928 180.093,17.938 180.019,17.938C179.894,17.938 179.774,17.909 179.661,17.85C179.548,17.791 179.456,17.707 179.386,17.598C179.327,17.512 179.288,17.419 179.269,17.319C179.249,17.22 179.248,17.122 179.266,17.026C179.283,16.931 179.319,16.841 179.374,16.757C179.429,16.673 179.501,16.602 179.591,16.543L183.716,13.795C183.802,13.736 183.895,13.697 183.994,13.678C184.094,13.658 184.192,13.658 184.287,13.678C184.383,13.697 184.473,13.734 184.557,13.789C184.641,13.844 184.712,13.914 184.771,14Z" style="fill-rule:nonzero;"/>
        <path d="M196.091,17.861C196.091,18.006 196.074,18.158 196.041,18.318C196.008,18.479 195.955,18.638 195.883,18.796C195.81,18.954 195.718,19.105 195.607,19.25C195.496,19.395 195.361,19.523 195.203,19.634C195.045,19.745 194.862,19.834 194.655,19.9C194.448,19.967 194.216,20 193.958,20L188.374,20L188.374,18.477L193.958,18.477C194.149,18.477 194.297,18.418 194.4,18.301C194.504,18.184 194.556,18.037 194.556,17.861L194.556,17.182C194.556,16.983 194.505,16.83 194.403,16.725C194.302,16.619 194.149,16.566 193.946,16.566L190.513,16.566C190.118,16.566 189.785,16.495 189.514,16.353C189.242,16.21 189.022,16.031 188.854,15.816C188.687,15.601 188.565,15.369 188.488,15.119C188.412,14.869 188.374,14.637 188.374,14.422L188.374,11.598L195.394,11.598L195.394,13.121L189.897,13.121L189.897,14.422C189.897,14.625 189.95,14.778 190.056,14.879C190.161,14.98 190.314,15.031 190.513,15.031L193.958,15.031C194.169,15.031 194.399,15.069 194.649,15.146C194.899,15.222 195.131,15.345 195.344,15.515C195.557,15.685 195.734,15.907 195.877,16.18C196.02,16.453 196.091,16.787 196.091,17.182L196.091,17.861Z" style="fill-rule:nonzero;"/>
        <path d="M207.077,16.484C207.077,16.828 207.033,17.153 206.945,17.46C206.857,17.767 206.733,18.051 206.573,18.312C206.413,18.574 206.224,18.809 206.005,19.016C205.786,19.223 205.547,19.399 205.287,19.546C205.027,19.693 204.751,19.805 204.458,19.883C204.165,19.961 203.867,20 203.562,20L200.813,20C200.505,20 200.204,19.961 199.911,19.883C199.618,19.805 199.342,19.693 199.082,19.546C198.822,19.399 198.583,19.223 198.364,19.016C198.145,18.809 197.957,18.574 197.799,18.312C197.641,18.051 197.518,17.767 197.43,17.46C197.342,17.153 197.298,16.828 197.298,16.484L197.298,15.113C197.298,14.598 197.395,14.125 197.588,13.695C197.781,13.266 198.04,12.896 198.364,12.585C198.689,12.274 199.063,12.032 199.486,11.858C199.91,11.685 200.352,11.598 200.813,11.598L203.562,11.598C203.867,11.598 204.165,11.637 204.458,11.715C204.751,11.793 205.027,11.905 205.287,12.052C205.547,12.198 205.786,12.375 206.005,12.582C206.224,12.789 206.413,13.024 206.573,13.285C206.733,13.547 206.857,13.831 206.945,14.138C207.033,14.445 207.077,14.77 207.077,15.113L207.077,16.484ZM205.542,15.113C205.542,14.812 205.487,14.539 205.378,14.293C205.269,14.047 205.123,13.836 204.941,13.66C204.76,13.484 204.55,13.349 204.312,13.256C204.073,13.162 203.823,13.117 203.562,13.121L200.813,13.121C200.56,13.117 200.313,13.161 200.072,13.253C199.832,13.345 199.619,13.478 199.434,13.651C199.248,13.825 199.099,14.036 198.988,14.284C198.877,14.532 198.821,14.808 198.821,15.113L198.821,16.484C198.821,16.789 198.876,17.064 198.985,17.311C199.094,17.557 199.241,17.767 199.425,17.94C199.608,18.114 199.82,18.248 200.061,18.342C200.301,18.435 200.552,18.48 200.813,18.477L203.562,18.477C203.863,18.477 204.135,18.427 204.379,18.327C204.623,18.228 204.831,18.09 205.003,17.914C205.175,17.738 205.308,17.528 205.401,17.284C205.495,17.04 205.542,16.773 205.542,16.484L205.542,15.113ZM204.88,14C204.939,14.086 204.978,14.179 204.997,14.278C205.016,14.378 205.016,14.476 204.997,14.571C204.978,14.667 204.94,14.757 204.883,14.841C204.826,14.925 204.753,14.996 204.663,15.055L200.55,17.803C200.483,17.854 200.415,17.889 200.345,17.908C200.274,17.928 200.202,17.938 200.128,17.938C200.003,17.938 199.884,17.909 199.771,17.85C199.658,17.791 199.566,17.707 199.495,17.598C199.436,17.512 199.397,17.419 199.378,17.319C199.359,17.22 199.358,17.122 199.375,17.026C199.392,16.931 199.428,16.841 199.483,16.757C199.538,16.673 199.61,16.602 199.7,16.543L203.825,13.795C203.911,13.736 204.004,13.697 204.104,13.678C204.203,13.658 204.301,13.658 204.396,13.678C204.492,13.697 204.582,13.734 204.666,13.789C204.75,13.844 204.821,13.914 204.88,14Z" style="fill-rule:nonzero;"/>
        <g id="circle868">
            <path d="M299.955,71C299.955,77.628 294.582,83 287.955,83C281.328,83 275.955,77.628 275.955,71C275.955,64.372 281.328,59 287.955,59C294.582,59 299.955,64.372 299.955,71Z" style="fill:#e6e6e6;fill-rule:nonzero;"/>
            <path d="M299.955,71C299.955,77.628 294.582,83 287.955,83C281.328,83 275.955,77.628 275.955,71C275.955,64.372 281.328,59 287.955,59C294.582,59 299.955,64.372 299.955,71Z" style="fill-opacity:0;fill-rule:nonzero;stroke:#000;stroke-width:0.25px;"/>
        </g>
        <g id="circle8681" serif:id="circle868">
            <path d="M350.113,127C350.113,133.628 344.74,139 338.113,139C331.486,139 326.113,133.628 326.113,127C326.113,120.372 331.486,115 338.113,115C344.74,115 350.113,120.372 350.113,127Z" style="fill:#e6e6e6;fill-rule:nonzero;"/>
            <path d="M350.113,127C350.113,133.628 344.74,139 338.113,139C331.486,139 326.113,133.628 326.113,127C326.113,120.372 331.486,115 338.113,115C344.74,115 350.113,120.372 350.113,127Z" style="fill-opacity:0;fill-rule:nonzero;stroke:#000;stroke-width:0.25px;"/>
        </g>
        <g id="circle8682" serif:id="circle868">
            <path d="M350.113,209C350.113,215.628 344.74,221 338.113,221C331.486,221 326.113,215.628 326.113,209C326.113,202.372 331.486,197 338.113,197C344.74,197 350.113,202.372 350.113,209Z" style="fill:#e6e6e6;fill-rule:nonzero;"/>
            <path d="M350.113,209C350.113,215.628 344.74,221 338.113,221C331.486,221 326.113,215.628 326.113,209C326.113,202.372 331.486,197 338.113,197C344.74,197 350.113,202.372 350.113,209Z" style="fill-opacity:0;fill-rule:nonzero;stroke:#000;stroke-width:0.25px;"/>
        </g>
        <g id="circle8683" serif:id="circle868">
            <path d="M299.955,265C299.955,271.628 294.582,277 287.955,277C281.328,277 275.955,271.628 275.955,265C275.955,258.372 281.328,253 287.955,253C294.582,253 299.955,258.372 299.955,265Z" style="fill:#e6e6e6;fill-rule:nonzero;"/>
            <path d="M299.955,265C299.955,271.628 294.582,277 287.955,277C281.328,277 275.955,271.628 275.955,265C275.955,258.372 281.328,253 287.955,253C294.582,253 299.955,258.372 299.955,265Z" style="fill-opacity:0;fill-rule:nonzero;stroke:#000;stroke-width:0.25px;"/>
        </g>
        <g id="circle8684" serif:id="circle868">
            <path d="M104,265C104,271.628 98.627,277 92,277C85.373,277 80,271.628 80,265C80,258.372 85.373,253 92,253C98.627,253 104,258.372 104,265Z" style="fill:#e6e6e6;fill-rule:nonzero;"/>
            <path d="M104,265C104,271.628 98.627,277 92,277C85.373,277 80,271.628 80,265C80,258.372 85.373,253 92,253C98.627,253 104,258.372 104,265Z" style="fill-opacity:0;fill-rule:nonzero;stroke:#000;stroke-width:0.25px;"/>
        </g>
        <g id="circle8685" serif:id="circle868">
            <path d="M54,209C54,215.628 48.627,221 42,221C35.373,221 30,215.628 30,209C30,202.372 35.373,197 42,197C48.627,197 54,202.372 54,209Z" style="fill:#e6e6e6;fill-rule:nonzero;"/>
            <path d="M54,209C54,215.628 48.627,221 42,221C35.373,221 30,215.628 30,209C30,202.372 35.373,197 42,197C48.627,197 54,202.372 54,209Z" style="fill-opacity:0;fill-rule:nonzero;stroke:#000;stroke-width:0.25px;"/>
        </g>
        <g id="circle8686" serif:id="circle868">
            <path d="M104,71C104,77.628 98.627,83 92,83C85.373,83 80,77.628 80,71C80,64.372 85.373,59 92,59C98.627,59 104,64.372 104,71Z" style="fill:#e6e6e6;fill-rule:nonzero;"/>
            <path d="M104,71C104,77.628 98.627,83 92,83C85.373,83 80,77.628 80,71C80,64.372 85.373,59 92,59C98.627,59 104,64.372 104,71Z" style="fill-opacity:0;fill-rule:nonzero;stroke:#000;stroke-width:0.25px;"/>
        </g>
        <g id="circle8687" serif:id="circle868">
            <path d="M54,127C54,133.628 48.627,139 42,139C35.373,139 30,133.628 30,127C30,120.372 35.373,115 42,115C48.627,115 54,120.372 54,127Z" style="fill:#e6e6e6;fill-rule:nonzero;"/>
            <path d="M54,127C54,133.628 48.627,139 42,139C35.373,139 30,133.628 30,127C30,120.372 35.373,115 42,115C48.627,115 54,120.372 54,127Z" style="fill-opacity:0;fill-rule:nonzero;stroke:#000;stroke-width:0.25px;"/>
        </g>
        <g>
            <path d="M250,71C250,82.046 241.046,91 230,91C218.954,91 210,82.046 210,71C210,59.954 218.954,51 230,51C241.046,51 250,59.954 250,71Z" style="fill:#e6e6e6;fill-rule:nonzero;"/>
            <path d="M250,71C250,82.046 241.046,91 230,91C218.954,91 210,82.046 210,71C210,59.954 218.954,51 230,51C241.046,51 250,59.954 250,71Z" style="fill-opacity:0;fill-rule:nonzero;stroke:#000;stroke-width:0.25px;"/>
        </g>
        <g>
            <path d="M308,127C308,138.046 299.046,147 288,147C276.954,147 268,138.046 268,127C268,115.954 276.954,107 288,107C299.046,107 308,115.954 308,127Z" style="fill:#e6e6e6;fill-rule:nonzero;"/>
            <path d="M308,127C308,138.046 299.046,147 288,147C276.954,147 268,138.046 268,127C268,115.954 276.954,107 288,107C299.046,107 308,115.954 308,127Z" style="fill-opacity:0;fill-rule:nonzero;stroke:#000;stroke-width:0.25px;"/>
        </g>
        <g>
            <path d="M308,209C308,220.046 299.046,229 288,229C276.954,229 268,220.046 268,209C268,197.954 276.954,189 288,189C299.046,189 308,197.954 308,209Z" style="fill:#e6e6e6;fill-rule:nonzero;"/>
            <path d="M308,209C308,220.046 299.046,229 288,229C276.954,229 268,220.046 268,209C268,197.954 276.954,189 288,189C299.046,189 308,197.954 308,209Z" style="fill-opacity:0;fill-rule:nonzero;stroke:#000;stroke-width:0.25px;"/>
        </g>
        <g>
            <path d="M250,265C250,276.046 241.046,285 230,285C218.954,285 210,276.046 210,265C210,253.954 218.954,245 230,245C241.046,245 250,253.954 250,265Z" style="fill:#e6e6e6;fill-rule:nonzero;"/>
            <path d="M250,265C250,276.046 241.046,285 230,285C218.954,285 210,276.046 210,265C210,253.954 218.954,245 230,245C241.046,245 250,253.954 250,265Z" style="fill-opacity:0;fill-rule:nonzero;stroke:#000;stroke-width:0.25px;"/>
        </g>
        <g>
            <path d="M170,265C170,276.046 161.046,285 150,285C138.954,285 130,276.046 130,265C130,253.954 138.954,245 150,245C161.046,245 170,253.954 170,265Z" style="fill:#e6e6e6;fill-rule:nonzero;"/>
            <path d="M170,265C170,276.046 161.046,285 150,285C138.954,285 130,276.046 130,265C130,253.954 138.954,245 150,245C161.046,245 170,253.954 170,265Z" style="fill-opacity:0;fill-rule:nonzero;stroke:#000;stroke-width:0.25px;"/>
        </g>
        <g>
            <path d="M112,209C112,220.046 103.046,229 92,229C80.954,229 72,220.046 72,209C72,197.954 80.954,189 92,189C103.046,189 112,197.954 112,209Z" style="fill:#e6e6e6;fill-rule:nonzero;"/>
            <path d="M112,209C112,220.046 103.046,229 92,229C80.954,229 72,220.046 72,209C72,197.954 80.954,189 92,189C103.046,189 112,197.954 112,209Z" style="fill-opacity:0;fill-rule:nonzero;stroke:#000;stroke-width:0.25px;"/>
        </g>
        <g>
            <path d="M112,127C112,138.046 103.046,147 92,147C80.954,147 72,138.046 72,127C72,115.954 80.954,107 92,107C103.046,107 112,115.954 112,127Z" style="fill:#e6e6e6;fill-rule:nonzero;"/>
            <path d="M112,127C112,138.046 103.046,147 92,147C80.954,147 72,138.046 72,127C72,115.954 80.954,107 92,107C103.046,107 112,115.954 112,127Z" style="fill-opacity:0;fill-rule:nonzero;stroke:#000;stroke-width:0.25px;"/>
        </g>
        <g id="circle8688" serif:id="circle868">
            <path d="M104,329C104,335.628 98.627,341 92,341C85.373,341 80,335.628 80,329C80,322.372 85.373,317 92,317C98.627,317 104,322.372 104,329Z" style="fill:#e6e6e6;fill-rule:nonzero;"/>
            <path d="M104,329C104,335.628 98.627,341 92,341C85.373,341 80,335.628 80,329C80,322.372 85.373,317 92,317C98.627,317 104,322.372 104,329Z" style="fill-opacity:0;fill-rule:nonzero;stroke:#000;stroke-width:0.25px;"/>
        </g>
        <g id="circle8689" serif:id="circle868">
            <path d="M54,329C54,335.628 48.627,341 42,341C35.373,341 30,335.628 30,329C30,322.372 35.373,317 42,317C48.627,317 54,322.372 54,329Z" style="fill:#e6e6e6;fill-rule:nonzero;"/>
            <path d="M54,329C54,335.628 48.627,341 42,341C35.373,341 30,335.628 30,329C30,322.372 35.373,317 42,317C48.627,317 54,322.372 54,329Z" style="fill-opacity:0;fill-rule:nonzero;stroke:#000;stroke-width:0.25px;"/>
        </g>
        <g id="circle86810" serif:id="circle868">
            <path d="M162,329C162,335.628 156.627,341 150,341C143.373,341 138,335.628 138,329C138,322.372 143.373,317 150,317C156.627,317 162,322.372 162,329Z" style="fill:#e6e6e6;fill-rule:nonzero;"/>
            <path d="M162,329C162,335.628 156.627,341 150,341C143.373,341 138,335.628 138,329C138,322.372 143.373,317 150,317C156.627,317 162,322.372 162,329Z" style="fill-opacity:0;fill-rule:nonzero;stroke:#000;stroke-width:0.25px;"/>
        </g>
        <g id="circle86811" serif:id="circle868">
            <path d="M202,329C202,335.628 196.627,341 190,341C183.373,341 178,335.628 178,329C178,322.372 183.373,317 190,317C196.627,317 202,322.372 202,329Z" style="fill:#e6e6e6;fill-rule:nonzero;"/>
            <path d="M202,329C202,335.628 196.627,341 190,341C183.373,341 178,335.628 178,329C178,322.372 183.373,317 190,317C196.627,317 202,322.372 202,329Z" style="fill-opacity:0;fill-rule:nonzero;stroke:#000;stroke-width:0.25px;"/>
        </g>
        <g id="circle86812" serif:id="circle868">
            <path d="M242,329C242,335.628 236.627,341 230,341C223.373,341 218,335.628 218,329C218,322.372 223.373,317 230,317C236.627,317 242,322.372 242,329Z" style="fill:#e6e6e6;fill-rule:nonzero;"/>
            <path d="M242,329C242,335.628 236.627,341 230,341C223.373,341 218,335.628 218,329C218,322.372 223.373,317 230,317C236.627,317 242,322.372 242,329Z" style="fill-opacity:0;fill-rule:nonzero;stroke:#000;stroke-width:0.25px;"/>
        </g>
        <g id="circle86813" serif:id="circle868">
            <path d="M300,329C300,335.628 294.627,341 288,341C281.373,341 276,335.628 276,329C276,322.372 281.373,317 288,317C294.627,317 300,322.372 300,329Z" style="fill:#e6e6e6;fill-rule:nonzero;"/>
            <path d="M300,329C300,335.628 294.627,341 288,341C281.373,341 276,335.628 276,329C276,322.372 281.373,317 288,317C294.627,317 300,322.372 300,329Z" style="fill-opacity:0;fill-rule:nonzero;stroke:#000;stroke-width:0.25px;"/>
        </g>
        <g id="circle86814" serif:id="circle868">
            <path d="M350,329C350,335.628 344.627,341 338,341C331.373,341 326,335.628 326,329C326,322.372 331.373,317 338,317C344.627,317 350,322.372 350,329Z" style="fill:#e6e6e6;fill-rule:nonzero;"/>
            <path d="M350,329C350,335.628 344.627,341 338,341C331.373,341 326,335.628 326,329C326,322.372 331.373,317 338,317C344.627,317 350,322.372 350,329Z" style="fill-opacity:0;fill-rule:nonzero;stroke:#000;stroke-width:0.25px;"/>
        </g>
        <g>
            <path d="M149,130C146.79,130 145,128.209 145,126C145,123.791 146.79,122 149,122C151.209,122 153,123.791 153,126C153,128.209 151.209,130 149,130Z" style="fill:#e6e6e6;fill-rule:nonzero;"/>
            <path d="M149,130C146.79,130 145,128.209 145,126C145,123.791 146.79,122 149,122C151.209,122 153,123.791 153,126C153,128.209 151.209,130 149,130Z" style="fill-opacity:0;fill-rule:nonzero;stroke:#000;stroke-width:0.25px;"/>
        </g>
        <g>
            <path d="M231,130C228.79,130 227,128.209 227,126C227,123.791 228.79,122 231,122C233.209,122 235,123.791 235,126C235,128.209 233.209,130 231,130Z" style="fill:#e6e6e6;fill-rule:nonzero;"/>
            <path d="M231,130C228.79,130 227,128.209 227,126C227,123.791 228.79,122 231,122C233.209,122 235,123.791 235,126C235,128.209 233.209,130 231,130Z" style="fill-opacity:0;fill-rule:nonzero;stroke:#000;stroke-width:0.25px;"/>
        </g>
        <g>
            <path d="M190,114C187.79,114 186,112.209 186,110C186,107.791 187.79,106 190,106C192.209,106 194,107.791 194,110C194,112.209 192.209,114 190,114Z" style="fill:#e6e6e6;fill-rule:nonzero;"/>
            <path d="M190,114C187.79,114 186,112.209 186,110C186,107.791 187.79,106 190,106C192.209,106 194,107.791 194,110C194,112.209 192.209,114 190,114Z" style="fill-opacity:0;fill-rule:nonzero;stroke:#000;stroke-width:0.25px;"/>
        </g>
        <g>
            <path d="M248,171.787C245.79,171.787 244,169.996 244,167.787C244,165.578 245.79,163.787 248,163.787C250.209,163.787 252,165.578 252,167.787C252,169.996 250.209,171.787 248,171.787Z" style="fill:#e6e6e6;fill-rule:nonzero;"/>
            <path d="M248,171.787C245.79,171.787 244,169.996 244,167.787C244,165.578 245.79,163.787 248,163.787C250.209,163.787 252,165.578 252,167.787C252,169.996 250.209,171.787 248,171.787Z" style="fill-opacity:0;fill-rule:nonzero;stroke:#000;stroke-width:0.25px;"/>
        </g>
        <g>
            <path d="M231,214C228.79,214 227,212.209 227,210C227,207.791 228.79,206 231,206C233.209,206 235,207.791 235,210C235,212.209 233.209,214 231,214Z" style="fill:#e6e6e6;fill-rule:nonzero;"/>
            <path d="M231,214C228.79,214 227,212.209 227,210C227,207.791 228.79,206 231,206C233.209,206 235,207.791 235,210C235,212.209 233.209,214 231,214Z" style="fill-opacity:0;fill-rule:nonzero;stroke:#000;stroke-width:0.25px;"/>
        </g>
        <g>
            <path d="M190,231C187.79,231 186,229.209 186,227C186,224.791 187.79,223 190,223C192.209,223 194,224.791 194,227C194,229.209 192.209,231 190,231Z" style="fill:#e6e6e6;fill-rule:nonzero;"/>
            <path d="M190,231C187.79,231 186,229.209 186,227C186,224.791 187.79,223 190,223C192.209,223 194,224.791 194,227C194,229.209 192.209,231 190,231Z" style="fill-opacity:0;fill-rule:nonzero;stroke:#000;stroke-width:0.25px;"/>
        </g>
        <g>
            <path d="M131,171.787C128.79,171.787 127,169.996 127,167.787C127,165.578 128.79,163.787 131,163.787C133.209,163.787 135,165.578 135,167.787C135,169.996 133.209,171.787 131,171.787Z" style="fill:#e6e6e6;fill-rule:nonzero;"/>
            <path d="M131,171.787C128.79,171.787 127,169.996 127,167.787C127,165.578 128.79,163.787 131,163.787C133.209,163.787 135,165.578 135,167.787C135,169.996 133.209,171.787 131,171.787Z" style="fill-opacity:0;fill-rule:nonzero;stroke:#000;stroke-width:0.25px;"/>
        </g>
        <g>
            <path d="M149,214C146.79,214 145,212.209 145,210C145,207.791 146.79,206 149,206C151.209,206 153,207.791 153,210C153,212.209 151.209,214 149,214Z" style="fill:#e6e6e6;fill-rule:nonzero;"/>
            <path d="M149,214C146.79,214 145,212.209 145,210C145,207.791 146.79,206 149,206C151.209,206 153,207.791 153,210C153,212.209 151.209,214 149,214Z" style="fill-opacity:0;fill-rule:nonzero;stroke:#000;stroke-width:0.25px;"/>
        </g>
        <g id="Switch_OFF">
            <g>
                <path d="M190,273C195.523,273 200,277.477 200,283C200,288.523 195.523,293 190,293C184.477,293 180,288.523 180,283C180,277.477 184.477,273 190,273Z" style="fill:#ccc;fill-rule:nonzero;"/>
                <path d="M190,273C195.523,273 200,277.477 200,283C200,288.523 195.523,293 190,293C184.477,293 180,288.523 180,283C180,277.477 184.477,273 190,273Z" style="fill-opacity:0;fill-rule:nonzero;stroke:#000;stroke-width:2px;"/>
            </g>
        </g>
        <g id="Switch_On">
            <g>
                <path d="M190,178C184.477,178 180,173.523 180,168C180,162.477 184.477,158 190,158C195.523,158 200,162.477 200,168C200,173.523 195.523,178 190,178Z" style="fill:#9ad542;fill-rule:nonzero;"/>
                <path d="M190,178C184.477,178 180,173.523 180,168C180,162.477 184.477,158 190,158C195.523,158 200,162.477 200,168C200,173.523 195.523,178 190,178Z" style="fill-opacity:0;fill-rule:nonzero;stroke:#000;stroke-width:2px;"/>
            </g>
        </g>
    </g>
</svg>
