<?xml version="1.0" encoding="UTF-8" standalone="no"?>
<!DOCTYPE svg PUBLIC "-//W3C//DTD SVG 1.1//EN" "http://www.w3.org/Graphics/SVG/1.1/DTD/svg11.dtd">
<svg width="100%" height="100%" viewBox="0 0 120 380" version="1.1" xmlns="http://www.w3.org/2000/svg" xmlns:xlink="http://www.w3.org/1999/xlink" xml:space="preserve" xmlns:serif="http://www.serif.com/" style="fill-rule:evenodd;clip-rule:evenodd;stroke-linecap:round;">
    <g id="DIVINE_CMOS">
        <rect x="0" y="-1.124" width="120" height="382.248" style="fill:#e6e6e6;fill-rule:nonzero;"/>
        <path d="M32.5,72.5L32.5,120.5" style="fill:none;fill-rule:nonzero;stroke:#007ba4;stroke-width:6px;"/>
        <path d="M32.5,122.885L88.5,91.75" style="fill:none;fill-rule:nonzero;stroke:#007ba4;stroke-width:6px;stroke-linecap:butt;"/>
        <path d="M88.5,91.75L88.5,139.75" style="fill:none;fill-rule:nonzero;stroke:#007ba4;stroke-width:6px;"/>
        <rect x="75.5" y="243.2" width="30" height="8.8" style="fill:#bebfbc;fill-rule:nonzero;"/>
        <path d="M4.45,287.602L115.974,287.602C117.645,287.602 119,288.945 119,290.602L119,326.31C119,327.966 117.645,329.31 115.974,329.31L4.45,329.31C2.779,329.31 1.425,327.966 1.425,326.31L1.425,290.602C1.425,288.945 2.779,287.602 4.45,287.602Z" style="fill:#bcbdba;fill-rule:nonzero;"/>
        <path d="M63.939,242.077L116.061,242.077C117.684,242.077 119,243.16 119,244.496L119,279.657C119,280.994 117.684,282.077 116.061,282.077L63.939,282.077C62.316,282.077 61,280.994 61,279.657L61,244.496C61,243.16 62.316,242.077 63.939,242.077Z" style="fill:#bcbdba;fill-rule:nonzero;"/>
        <path d="M3.939,222L56.061,222C57.684,222 59,223.083 59,224.419L59,259.581C59,260.917 57.684,262 56.061,262L3.939,262C2.316,262 1,260.917 1,259.581L1,224.419C1,223.083 2.316,222 3.939,222Z" style="fill:#fff;fill-rule:nonzero;"/>
        <path d="M12.775,315.5L108.901,315.5" style="fill:none;fill-rule:nonzero;stroke:#00799a;stroke-width:2px;"/>
        <path d="M74.108,267.546L110.734,267.454" style="fill:none;fill-rule:nonzero;stroke:#00799a;stroke-width:2px;"/>
        <path d="M14.343,245.546L50.969,245.454" style="fill:none;fill-rule:nonzero;stroke:#00799a;stroke-width:2px;"/>
        <path d="M101.594,291L97.402,296.602L96.109,296.602L100.306,291L101.594,291Z" style="fill-rule:nonzero;"/>
        <path d="M104.597,296.602L103.387,296.602L103.387,292.016L102.299,292.016L102.299,291L104.597,291L104.597,296.602Z" style="fill-rule:nonzero;"/>
        <path d="M107.103,293.289L110.309,293.289C110.479,293.289 110.662,293.314 110.858,293.365C111.054,293.416 111.237,293.498 111.407,293.611C111.577,293.724 111.718,293.872 111.831,294.055C111.944,294.237 112,294.46 112,294.723L112,295.176C112,295.272 111.987,295.373 111.961,295.48C111.934,295.587 111.893,295.694 111.836,295.799C111.779,295.904 111.706,296.005 111.618,296.102C111.53,296.198 111.423,296.283 111.298,296.357C111.173,296.432 111.028,296.491 110.865,296.535C110.701,296.58 110.516,296.602 110.309,296.602L108.127,296.602C107.978,296.602 107.82,296.588 107.652,296.559C107.483,296.53 107.317,296.484 107.154,296.42C106.99,296.356 106.832,296.275 106.679,296.178C106.526,296.08 106.393,295.961 106.278,295.822C106.164,295.683 106.072,295.522 106.003,295.34C105.933,295.157 105.898,294.952 105.898,294.723L105.898,292.883C105.898,292.654 105.933,292.448 106.003,292.266C106.072,292.083 106.164,291.922 106.278,291.783C106.393,291.644 106.526,291.525 106.679,291.426C106.832,291.327 106.99,291.245 107.154,291.182C107.317,291.118 107.483,291.072 107.652,291.043C107.82,291.014 107.978,291 108.127,291L111.148,291L111.148,292.016L108.127,292.016C107.972,292.026 107.833,292.053 107.708,292.098C107.583,292.142 107.475,292.2 107.386,292.273C107.296,292.346 107.226,292.434 107.177,292.537C107.128,292.64 107.103,292.755 107.103,292.883L107.103,293.289ZM107.103,294.312L107.103,294.723C107.103,294.856 107.13,294.975 107.184,295.08C107.238,295.185 107.311,295.276 107.404,295.352C107.497,295.427 107.606,295.485 107.731,295.525C107.856,295.566 107.991,295.586 108.136,295.586L110.309,295.586C110.464,295.586 110.582,295.547 110.663,295.469C110.745,295.391 110.786,295.293 110.786,295.176L110.786,294.723C110.786,294.59 110.746,294.488 110.666,294.418C110.585,294.347 110.463,294.312 110.3,294.312L107.103,294.312Z" style="fill-rule:nonzero;"/>
        <path d="M73.527,291L69.302,296.602L68,296.602L72.229,291L73.527,291Z" style="fill-rule:nonzero;"/>
        <path d="M80.343,295.176C80.343,295.272 80.33,295.373 80.303,295.48C80.276,295.587 80.234,295.694 80.177,295.799C80.119,295.904 80.045,296.005 79.955,296.102C79.865,296.198 79.757,296.283 79.631,296.357C79.505,296.432 79.359,296.491 79.194,296.535C79.029,296.58 78.844,296.602 78.639,296.602L75.894,296.602C75.726,296.602 75.542,296.577 75.343,296.527C75.144,296.478 74.959,296.396 74.79,296.283C74.62,296.17 74.478,296.023 74.365,295.842C74.252,295.661 74.195,295.439 74.195,295.176L74.195,294.723C74.195,294.624 74.208,294.519 74.234,294.41C74.261,294.301 74.303,294.193 74.36,294.086C74.418,293.979 74.492,293.878 74.582,293.781C74.672,293.685 74.781,293.602 74.909,293.531C74.853,293.422 74.811,293.311 74.783,293.199C74.755,293.087 74.741,292.982 74.741,292.883L74.741,292.426C74.741,292.165 74.798,291.944 74.911,291.762C75.025,291.579 75.167,291.432 75.336,291.32C75.505,291.208 75.69,291.127 75.889,291.076C76.088,291.025 76.272,291 76.44,291L78.083,291C78.292,291 78.479,291.022 78.646,291.066C78.812,291.111 78.958,291.17 79.085,291.244C79.211,291.318 79.318,291.403 79.407,291.5C79.496,291.597 79.568,291.698 79.624,291.803C79.68,291.908 79.721,292.015 79.747,292.123C79.774,292.231 79.787,292.332 79.787,292.426L79.787,292.883C79.787,293.138 79.733,293.36 79.624,293.547C79.723,293.602 79.817,293.666 79.904,293.74C79.991,293.815 80.067,293.9 80.133,293.996C80.198,294.093 80.25,294.201 80.287,294.322C80.324,294.443 80.343,294.577 80.343,294.723L80.343,295.176ZM78.573,292.434C78.573,292.296 78.531,292.192 78.447,292.121C78.363,292.051 78.242,292.016 78.083,292.016L76.449,292.016C76.284,292.016 76.162,292.051 76.083,292.121C76.004,292.192 75.964,292.293 75.964,292.426L75.964,292.883C75.964,293.018 76.005,293.12 76.088,293.188C76.17,293.255 76.287,293.289 76.44,293.289L78.083,293.289C78.248,293.289 78.371,293.255 78.452,293.186C78.533,293.117 78.573,293.016 78.573,292.883L78.573,292.434ZM79.115,294.723C79.115,294.592 79.072,294.491 78.986,294.42C78.901,294.348 78.785,294.312 78.639,294.312L75.894,294.312C75.745,294.312 75.626,294.351 75.539,294.43C75.452,294.508 75.408,294.606 75.408,294.723L75.408,295.176C75.408,295.301 75.454,295.4 75.546,295.475C75.638,295.549 75.754,295.586 75.894,295.586L78.639,295.586C78.794,295.586 78.912,295.547 78.993,295.469C79.074,295.391 79.115,295.293 79.115,295.176L79.115,294.723Z" style="fill-rule:nonzero;"/>
        <path d="M45.625,291L42.09,296.602L41,296.602L44.539,291L45.625,291Z" style="fill-rule:nonzero;"/>
        <path d="M51.508,296.602L50.484,296.602L50.484,294.312L46.875,294.312C46.802,294.312 46.735,294.298 46.672,294.271C46.609,294.244 46.555,294.207 46.51,294.162C46.464,294.117 46.428,294.063 46.402,294C46.376,293.937 46.363,293.871 46.363,293.801L46.363,291L47.379,291L47.379,293.289L50.484,293.289L50.484,291L51.508,291L51.508,296.602Z" style="fill-rule:nonzero;"/>
        <path d="M15.625,291L12.09,296.602L11,296.602L14.539,291L15.625,291Z" style="fill-rule:nonzero;"/>
        <path d="M21.426,296.602L16.281,296.602L16.281,294.723C16.281,294.626 16.292,294.524 16.314,294.416C16.337,294.308 16.371,294.201 16.418,294.094C16.465,293.987 16.525,293.886 16.6,293.789C16.674,293.693 16.764,293.608 16.869,293.533C16.974,293.459 17.096,293.4 17.234,293.355C17.372,293.311 17.528,293.289 17.703,293.289L19.992,293.289C20.13,293.289 20.232,293.255 20.299,293.186C20.365,293.117 20.398,293.016 20.398,292.883L20.398,292.434C20.398,292.296 20.364,292.192 20.297,292.121C20.229,292.051 20.13,292.016 20,292.016L16.738,292.016L16.738,291L20,291C20.172,291 20.327,291.022 20.465,291.066C20.603,291.111 20.725,291.17 20.83,291.244C20.935,291.318 21.026,291.403 21.102,291.5C21.177,291.597 21.239,291.698 21.287,291.803C21.335,291.908 21.37,292.015 21.393,292.123C21.415,292.231 21.426,292.332 21.426,292.426L21.426,292.883C21.426,293.146 21.378,293.368 21.283,293.549C21.188,293.73 21.069,293.877 20.926,293.99C20.783,294.103 20.628,294.185 20.463,294.236C20.298,294.287 20.143,294.312 20,294.312L17.703,294.312C17.62,294.312 17.553,294.324 17.504,294.348C17.455,294.371 17.416,294.402 17.389,294.441C17.362,294.48 17.341,294.525 17.328,294.574C17.315,294.623 17.305,294.673 17.297,294.723L17.297,295.586L21.426,295.586L21.426,296.602Z" style="fill-rule:nonzero;"/>
        <path d="M102.164,249.336C102.164,249.677 102.105,249.991 101.988,250.277C101.871,250.564 101.708,250.811 101.5,251.02C101.291,251.228 101.044,251.39 100.759,251.506C100.474,251.622 100.164,251.68 99.828,251.68L98.453,251.68C98.117,251.68 97.806,251.622 97.519,251.506C97.232,251.39 96.985,251.228 96.777,251.02C96.568,250.811 96.405,250.564 96.287,250.277C96.168,249.991 96.109,249.677 96.109,249.336L96.109,248.266C96.109,247.927 96.168,247.614 96.287,247.326C96.405,247.039 96.568,246.791 96.777,246.584C96.985,246.377 97.232,246.215 97.519,246.098C97.806,245.981 98.117,245.922 98.453,245.922L99.828,245.922C100.164,245.922 100.474,245.981 100.759,246.098C101.044,246.215 101.291,246.377 101.5,246.584C101.708,246.791 101.871,247.039 101.988,247.326C102.105,247.614 102.164,247.927 102.164,248.266L102.164,249.336ZM101.148,248.266C101.148,248.065 101.116,247.884 101.052,247.721C100.989,247.558 100.899,247.419 100.783,247.303C100.667,247.187 100.528,247.097 100.365,247.033C100.202,246.97 100.023,246.938 99.828,246.938L98.453,246.938C98.255,246.938 98.075,246.97 97.912,247.033C97.749,247.097 97.609,247.187 97.492,247.303C97.375,247.419 97.284,247.558 97.22,247.721C97.157,247.884 97.125,248.065 97.125,248.266L97.125,249.336C97.125,249.537 97.157,249.718 97.22,249.881C97.284,250.044 97.375,250.183 97.492,250.299C97.609,250.415 97.749,250.505 97.912,250.568C98.075,250.632 98.255,250.664 98.453,250.664L99.82,250.664C100.018,250.664 100.198,250.632 100.361,250.568C100.524,250.505 100.664,250.415 100.781,250.299C100.898,250.183 100.989,250.044 101.052,249.881C101.116,249.718 101.148,249.537 101.148,249.336L101.148,248.266Z" style="fill-rule:nonzero;"/>
        <path d="M108.656,251.09C108.656,251.163 108.643,251.23 108.617,251.293C108.591,251.356 108.554,251.41 108.507,251.455C108.46,251.5 108.406,251.536 108.343,251.562C108.281,251.589 108.215,251.602 108.144,251.602L105.855,251.602C105.639,251.602 105.42,251.578 105.199,251.531C104.978,251.484 104.763,251.412 104.556,251.314C104.349,251.217 104.155,251.092 103.972,250.941C103.79,250.79 103.631,250.611 103.494,250.404C103.357,250.197 103.25,249.96 103.171,249.693C103.093,249.426 103.054,249.129 103.054,248.801L103.054,246L104.07,246L104.07,248.801C104.07,249.087 104.11,249.329 104.189,249.527C104.268,249.725 104.369,249.89 104.492,250.023C104.614,250.156 104.748,250.261 104.894,250.336C105.04,250.411 105.179,250.467 105.31,250.504C105.441,250.541 105.557,250.563 105.658,250.572C105.758,250.581 105.824,250.586 105.855,250.586L107.64,250.586L107.64,246L108.656,246L108.656,251.09Z" style="fill-rule:nonzero;"/>
        <path d="M114.898,247.016L112.66,247.016L112.66,251.602L111.644,251.602L111.644,247.016L109.402,247.016L109.402,246L114.898,246L114.898,247.016Z" style="fill-rule:nonzero;"/>
        <path d="M68.569,249.953C68.569,250.154 68.544,250.334 68.493,250.494C68.442,250.654 68.375,250.795 68.292,250.918C68.209,251.041 68.111,251.145 67.999,251.23C67.887,251.316 67.771,251.386 67.651,251.441C67.531,251.496 67.409,251.536 67.286,251.562C67.162,251.589 67.045,251.602 66.936,251.602L63.018,251.602L63.018,250.586L66.936,250.586C67.131,250.586 67.283,250.529 67.391,250.414C67.5,250.299 67.554,250.146 67.554,249.953C67.554,249.859 67.54,249.773 67.511,249.695C67.482,249.617 67.441,249.549 67.387,249.492C67.334,249.435 67.269,249.39 67.192,249.359C67.115,249.328 67.03,249.312 66.936,249.312L64.6,249.312C64.436,249.312 64.259,249.283 64.069,249.225C63.879,249.166 63.703,249.072 63.54,248.941C63.377,248.811 63.242,248.641 63.134,248.43C63.025,248.219 62.971,247.961 62.971,247.656C62.971,247.351 63.025,247.094 63.134,246.885C63.242,246.675 63.377,246.504 63.54,246.373C63.703,246.242 63.879,246.147 64.069,246.088C64.259,246.029 64.436,246 64.6,246L68.057,246L68.057,247.016L64.6,247.016C64.407,247.016 64.257,247.074 64.149,247.191C64.041,247.308 63.987,247.463 63.987,247.656C63.987,247.851 64.041,248.006 64.149,248.119C64.257,248.232 64.407,248.289 64.6,248.289L66.944,248.289C67.053,248.292 67.169,248.307 67.292,248.334C67.414,248.361 67.536,248.404 67.657,248.461C67.778,248.518 67.894,248.591 68.003,248.678C68.112,248.765 68.209,248.87 68.294,248.992C68.379,249.115 68.446,249.255 68.495,249.414C68.544,249.573 68.569,249.752 68.569,249.953Z" style="fill-rule:nonzero;"/>
        <path d="M74.557,251.602L69.925,251.602C69.852,251.602 69.784,251.589 69.721,251.562C69.659,251.536 69.605,251.5 69.559,251.455C69.514,251.41 69.478,251.356 69.452,251.293C69.426,251.23 69.413,251.163 69.413,251.09L69.413,246L70.429,246L70.429,250.586L74.557,250.586L74.557,251.602Z" style="fill-rule:nonzero;"/>
        <path d="M79.886,249.312L76.679,249.312L76.679,248.289L79.886,248.289L79.886,249.312ZM80.343,251.602L76.679,251.602C76.538,251.602 76.385,251.577 76.218,251.527C76.051,251.478 75.897,251.396 75.755,251.283C75.613,251.17 75.494,251.023 75.399,250.842C75.304,250.661 75.257,250.439 75.257,250.176L75.257,246.512C75.257,246.441 75.27,246.375 75.296,246.312C75.322,246.25 75.358,246.195 75.403,246.148C75.448,246.101 75.502,246.065 75.565,246.039C75.628,246.013 75.695,246 75.768,246L80.343,246L80.343,247.016L76.272,247.016L76.272,250.176C76.272,250.309 76.307,250.41 76.378,250.48C76.448,250.551 76.551,250.586 76.686,250.586L80.343,250.586L80.343,251.602Z" style="fill-rule:nonzero;"/>
        <path d="M88.475,246L87.538,251.25C87.517,251.354 87.47,251.444 87.397,251.52C87.324,251.595 87.236,251.643 87.132,251.664C87.025,251.682 86.924,251.67 86.829,251.629C86.734,251.587 86.659,251.522 86.604,251.434L84.745,248.379L82.882,251.434C82.837,251.509 82.777,251.568 82.7,251.609C82.623,251.651 82.541,251.672 82.452,251.672C82.329,251.672 82.221,251.633 82.128,251.555C82.034,251.477 81.977,251.375 81.956,251.25L81.011,246L82.042,246L82.714,249.699L84.315,247.145C84.36,247.069 84.42,247.01 84.497,246.969C84.574,246.927 84.656,246.906 84.745,246.906C84.834,246.906 84.916,246.927 84.991,246.969C85.066,247.01 85.129,247.069 85.179,247.145L86.772,249.699L87.444,246L88.475,246Z" style="fill-rule:nonzero;"/>
        <rect x="39.031" y="224" width="1.016" height="5.602" style="fill-rule:nonzero;"/>
        <path d="M46.832,229.168C46.832,229.241 46.818,229.308 46.791,229.371C46.764,229.434 46.727,229.488 46.682,229.533C46.636,229.579 46.582,229.615 46.52,229.641C46.457,229.667 46.391,229.68 46.32,229.68C46.258,229.68 46.195,229.668 46.131,229.645C46.067,229.621 46.01,229.583 45.961,229.531L42.25,225.656L42.25,229.602L41.234,229.602L41.234,224.434C41.234,224.329 41.263,224.235 41.322,224.15C41.381,224.065 41.456,224.002 41.547,223.961C41.644,223.922 41.743,223.912 41.844,223.932C41.945,223.951 42.033,223.999 42.106,224.074L45.817,227.945L45.817,224L46.832,224L46.832,229.168Z" style="fill-rule:nonzero;"/>
        <path d="M52.981,229.602L47.836,229.602L47.836,227.723C47.836,227.626 47.847,227.524 47.869,227.416C47.891,227.308 47.926,227.201 47.973,227.094C48.02,226.987 48.08,226.886 48.154,226.789C48.229,226.693 48.319,226.608 48.424,226.533C48.529,226.459 48.651,226.4 48.789,226.355C48.927,226.311 49.083,226.289 49.258,226.289L51.547,226.289C51.685,226.289 51.787,226.255 51.854,226.186C51.92,226.117 51.953,226.016 51.953,225.883L51.953,225.434C51.953,225.296 51.919,225.192 51.852,225.121C51.784,225.051 51.685,225.016 51.555,225.016L48.293,225.016L48.293,224L51.555,224C51.727,224 51.882,224.022 52.02,224.066C52.158,224.111 52.28,224.17 52.385,224.244C52.49,224.318 52.581,224.403 52.656,224.5C52.732,224.597 52.794,224.698 52.842,224.803C52.89,224.908 52.925,225.015 52.947,225.123C52.97,225.231 52.981,225.332 52.981,225.426L52.981,225.883C52.981,226.146 52.933,226.368 52.838,226.549C52.743,226.73 52.624,226.877 52.481,226.99C52.338,227.103 52.183,227.185 52.018,227.236C51.853,227.287 51.698,227.312 51.555,227.312L49.258,227.312C49.175,227.312 49.108,227.324 49.059,227.348C49.009,227.371 48.97,227.402 48.943,227.441C48.916,227.48 48.896,227.525 48.883,227.574C48.87,227.623 48.859,227.673 48.852,227.723L48.852,228.586L52.981,228.586L52.981,229.602Z" style="fill-rule:nonzero;"/>
        <rect x="9.96" y="224" width="1.016" height="5.602" style="fill-rule:nonzero;"/>
        <path d="M17.761,229.168C17.761,229.241 17.747,229.308 17.72,229.371C17.693,229.434 17.656,229.488 17.611,229.533C17.565,229.579 17.511,229.615 17.448,229.641C17.386,229.667 17.32,229.68 17.249,229.68C17.186,229.68 17.123,229.668 17.06,229.645C16.996,229.621 16.939,229.583 16.89,229.531L13.179,225.656L13.179,229.602L12.163,229.602L12.163,224.434C12.163,224.329 12.192,224.235 12.251,224.15C12.31,224.065 12.385,224.002 12.476,223.961C12.572,223.922 12.671,223.912 12.773,223.932C12.874,223.951 12.961,223.999 13.034,224.074L16.745,227.945L16.745,224L17.761,224L17.761,229.168Z" style="fill-rule:nonzero;"/>
        <path d="M20.566,229.602L19.546,229.602L19.546,225.016L18.628,225.016L18.628,224L20.566,224L20.566,229.602Z" style="fill-rule:nonzero;"/>
        <path d="M35.434,166.736C35.434,166.937 35.409,167.117 35.358,167.277C35.307,167.438 35.24,167.579 35.157,167.701C35.074,167.824 34.976,167.928 34.864,168.014C34.752,168.1 34.636,168.17 34.516,168.225C34.396,168.28 34.274,168.32 34.151,168.346C34.027,168.372 33.91,168.385 33.801,168.385L29.883,168.385L29.883,167.369L33.801,167.369C33.996,167.369 34.148,167.312 34.256,167.197C34.364,167.083 34.418,166.929 34.418,166.736C34.418,166.643 34.404,166.557 34.375,166.479C34.347,166.4 34.306,166.333 34.252,166.276C34.199,166.219 34.134,166.174 34.057,166.143C33.98,166.112 33.895,166.096 33.801,166.096L31.465,166.096C31.301,166.096 31.124,166.067 30.934,166.008C30.744,165.949 30.568,165.855 30.405,165.725C30.242,165.594 30.107,165.424 29.999,165.213C29.89,165.002 29.836,164.745 29.836,164.44C29.836,164.135 29.89,163.878 29.999,163.668C30.107,163.459 30.242,163.288 30.405,163.156C30.568,163.025 30.744,162.93 30.934,162.871C31.124,162.812 31.301,162.783 31.465,162.783L34.922,162.783L34.922,163.799L31.465,163.799C31.272,163.799 31.122,163.858 31.014,163.975C30.906,164.092 30.852,164.247 30.852,164.44C30.852,164.635 30.906,164.789 31.014,164.902C31.122,165.015 31.272,165.072 31.465,165.072L33.809,165.072C33.918,165.075 34.034,165.09 34.157,165.117C34.279,165.144 34.401,165.187 34.522,165.244C34.643,165.301 34.759,165.374 34.868,165.461C34.977,165.548 35.074,165.653 35.159,165.776C35.244,165.898 35.311,166.038 35.36,166.197C35.409,166.356 35.434,166.536 35.434,166.736Z" style="fill-rule:nonzero;"/>
        <path d="M41.422,168.385L36.79,168.385C36.717,168.385 36.649,168.372 36.586,168.346C36.524,168.32 36.47,168.284 36.424,168.238C36.379,168.193 36.343,168.139 36.317,168.076C36.291,168.014 36.278,167.946 36.278,167.873L36.278,162.783L37.293,162.783L37.293,167.369L41.422,167.369L41.422,168.385Z" style="fill-rule:nonzero;"/>
        <path d="M46.75,166.096L43.543,166.096L43.543,165.072L46.75,165.072L46.75,166.096ZM47.208,168.385L43.543,168.385C43.403,168.385 43.25,168.36 43.083,168.311C42.916,168.261 42.762,168.18 42.62,168.067C42.478,167.954 42.359,167.806 42.264,167.625C42.169,167.444 42.122,167.222 42.122,166.959L42.122,163.295C42.122,163.225 42.135,163.159 42.161,163.096C42.187,163.033 42.223,162.979 42.268,162.932C42.313,162.885 42.367,162.848 42.43,162.822C42.493,162.796 42.56,162.783 42.633,162.783L47.208,162.783L47.208,163.799L43.137,163.799L43.137,166.959C43.137,167.092 43.172,167.193 43.243,167.264C43.313,167.334 43.416,167.369 43.551,167.369L47.208,167.369L47.208,168.385Z" style="fill-rule:nonzero;"/>
        <path d="M55.34,162.783L54.403,168.033C54.382,168.138 54.335,168.228 54.262,168.303C54.189,168.378 54.101,168.426 53.997,168.447C53.89,168.466 53.789,168.454 53.694,168.412C53.599,168.371 53.524,168.306 53.469,168.217L51.61,165.162L49.747,168.217C49.702,168.292 49.642,168.351 49.565,168.393C49.488,168.434 49.406,168.455 49.317,168.455C49.194,168.455 49.086,168.416 48.993,168.338C48.899,168.26 48.842,168.158 48.821,168.033L47.875,162.783L48.907,162.783L49.579,166.483L51.18,163.928C51.225,163.853 51.285,163.794 51.362,163.752C51.439,163.711 51.521,163.69 51.61,163.69C51.699,163.69 51.781,163.711 51.856,163.752C51.931,163.794 51.994,163.853 52.043,163.928L53.637,166.483L54.309,162.783L55.34,162.783Z" style="fill-rule:nonzero;"/>
        <path d="M103.807,116.783L100.133,122.385L99,122.385L102.678,116.783L103.807,116.783Z" style="fill-rule:nonzero;"/>
        <path d="M106.512,122.385L105.452,122.385L105.452,117.799L104.498,117.799L104.498,116.783L106.512,116.783L106.512,122.385Z" style="fill-rule:nonzero;"/>
        <path d="M108.708,119.072L111.518,119.072C111.667,119.072 111.827,119.098 111.999,119.149C112.171,119.2 112.331,119.282 112.48,119.395C112.629,119.508 112.753,119.656 112.852,119.838C112.951,120.02 113,120.243 113,120.506L113,120.959C113,121.056 112.988,121.157 112.965,121.264C112.942,121.371 112.906,121.477 112.856,121.582C112.806,121.687 112.742,121.788 112.665,121.885C112.588,121.981 112.494,122.066 112.385,122.141C112.275,122.215 112.148,122.274 112.005,122.318C111.862,122.363 111.699,122.385 111.518,122.385L109.606,122.385C109.476,122.385 109.337,122.371 109.19,122.342C109.042,122.313 108.896,122.267 108.753,122.203C108.61,122.14 108.471,122.059 108.337,121.961C108.203,121.864 108.086,121.745 107.986,121.606C107.886,121.467 107.805,121.306 107.744,121.123C107.683,120.941 107.653,120.735 107.653,120.506L107.653,118.666C107.653,118.437 107.683,118.231 107.744,118.049C107.805,117.867 107.886,117.706 107.986,117.567C108.086,117.428 108.203,117.308 108.337,117.209C108.471,117.11 108.61,117.029 108.753,116.965C108.896,116.901 109.042,116.855 109.19,116.826C109.337,116.797 109.476,116.783 109.606,116.783L112.253,116.783L112.253,117.799L109.606,117.799C109.471,117.81 109.348,117.837 109.238,117.881C109.129,117.925 109.035,117.984 108.956,118.057C108.877,118.13 108.816,118.217 108.773,118.32C108.73,118.423 108.708,118.539 108.708,118.666L108.708,119.072ZM108.708,120.096L108.708,120.506C108.708,120.639 108.732,120.758 108.78,120.863C108.827,120.969 108.891,121.06 108.972,121.135C109.053,121.21 109.149,121.268 109.259,121.309C109.368,121.349 109.487,121.369 109.614,121.369L111.518,121.369C111.653,121.369 111.757,121.33 111.829,121.252C111.9,121.174 111.936,121.076 111.936,120.959L111.936,120.506C111.936,120.373 111.901,120.272 111.831,120.201C111.76,120.131 111.653,120.096 111.51,120.096L108.708,120.096Z" style="fill-rule:nonzero;"/>
        <path d="M42.264,96L38.729,101.602L37.639,101.602L41.178,96L42.264,96Z" style="fill-rule:nonzero;"/>
        <path d="M48.147,101.602L47.124,101.602L47.124,99.312L43.514,99.312C43.441,99.312 43.374,99.298 43.311,99.271C43.248,99.244 43.194,99.207 43.149,99.162C43.104,99.117 43.068,99.063 43.042,99C43.015,98.937 43.002,98.871 43.002,98.801L43.002,96L44.018,96L44.018,98.289L47.124,98.289L47.124,96L48.147,96L48.147,101.602Z" style="fill-rule:nonzero;"/>
        <path d="M105.625,66L102.09,71.602L101,71.602L104.539,66L105.625,66Z" style="fill-rule:nonzero;"/>
        <path d="M111.339,70.176C111.339,70.272 111.328,70.373 111.306,70.48C111.283,70.587 111.248,70.694 111.2,70.799C111.152,70.904 111.09,71.005 111.015,71.102C110.939,71.198 110.848,71.283 110.743,71.357C110.638,71.432 110.516,71.491 110.378,71.535C110.24,71.58 110.085,71.602 109.913,71.602L107.616,71.602C107.475,71.602 107.322,71.577 107.155,71.527C106.988,71.478 106.834,71.396 106.692,71.283C106.55,71.17 106.432,71.023 106.337,70.842C106.242,70.661 106.194,70.439 106.194,70.176L106.194,69.723C106.194,69.624 106.205,69.519 106.227,69.41C106.25,69.301 106.285,69.193 106.333,69.086C106.381,68.979 106.443,68.878 106.518,68.781C106.594,68.685 106.685,68.602 106.792,68.531C106.745,68.422 106.71,68.311 106.686,68.199C106.663,68.087 106.651,67.982 106.651,67.883L106.651,67.426C106.651,67.165 106.699,66.944 106.794,66.762C106.889,66.579 107.007,66.432 107.149,66.32C107.291,66.208 107.445,66.127 107.612,66.076C107.779,66.025 107.932,66 108.073,66L109.448,66C109.623,66 109.78,66.022 109.919,66.066C110.058,66.111 110.181,66.17 110.286,66.244C110.391,66.318 110.481,66.403 110.556,66.5C110.63,66.597 110.69,66.698 110.737,66.803C110.784,66.908 110.819,67.015 110.841,67.123C110.863,67.231 110.874,67.332 110.874,67.426L110.874,67.883C110.874,68.138 110.828,68.36 110.737,68.547C110.82,68.602 110.899,68.666 110.972,68.74C111.045,68.815 111.108,68.9 111.163,68.996C111.218,69.093 111.261,69.201 111.292,69.322C111.323,69.443 111.339,69.577 111.339,69.723L111.339,70.176ZM109.858,67.434C109.858,67.296 109.823,67.192 109.753,67.121C109.682,67.051 109.581,67.016 109.448,67.016L108.081,67.016C107.943,67.016 107.841,67.051 107.774,67.121C107.708,67.192 107.675,67.293 107.675,67.426L107.675,67.883C107.675,68.018 107.709,68.12 107.778,68.188C107.847,68.255 107.946,68.289 108.073,68.289L109.448,68.289C109.586,68.289 109.689,68.255 109.757,68.186C109.824,68.117 109.858,68.016 109.858,67.883L109.858,67.434ZM110.311,69.723C110.311,69.592 110.275,69.491 110.204,69.42C110.133,69.348 110.036,69.312 109.913,69.312L107.616,69.312C107.491,69.312 107.392,69.351 107.319,69.43C107.246,69.508 107.21,69.606 107.21,69.723L107.21,70.176C107.21,70.301 107.248,70.4 107.325,70.475C107.402,70.549 107.499,70.586 107.616,70.586L109.913,70.586C110.043,70.586 110.142,70.547 110.21,70.469C110.277,70.391 110.311,70.293 110.311,70.176L110.311,69.723Z" style="fill-rule:nonzero;"/>
        <path d="M42.625,43L39.09,48.602L38,48.602L41.539,43L42.625,43Z" style="fill-rule:nonzero;"/>
        <path d="M48.284,48.602L43.139,48.602L43.139,46.723C43.139,46.626 43.15,46.524 43.173,46.416C43.195,46.308 43.229,46.201 43.276,46.094C43.323,45.987 43.384,45.886 43.458,45.789C43.532,45.693 43.622,45.608 43.727,45.533C43.833,45.459 43.955,45.4 44.093,45.355C44.231,45.311 44.387,45.289 44.561,45.289L46.85,45.289C46.988,45.289 47.09,45.255 47.157,45.186C47.224,45.117 47.257,45.016 47.257,44.883L47.257,44.434C47.257,44.296 47.223,44.192 47.155,44.121C47.088,44.051 46.989,44.016 46.858,44.016L43.597,44.016L43.597,43L46.858,43C47.03,43 47.185,43.022 47.323,43.066C47.461,43.111 47.583,43.17 47.688,43.244C47.794,43.318 47.885,43.403 47.96,43.5C48.035,43.597 48.097,43.698 48.145,43.803C48.194,43.908 48.229,44.015 48.251,44.123C48.273,44.231 48.284,44.332 48.284,44.426L48.284,44.883C48.284,45.146 48.236,45.368 48.141,45.549C48.046,45.73 47.927,45.877 47.784,45.99C47.641,46.103 47.486,46.185 47.321,46.236C47.156,46.287 47.001,46.312 46.858,46.312L44.561,46.312C44.478,46.312 44.411,46.324 44.362,46.348C44.313,46.371 44.274,46.402 44.247,46.441C44.22,46.48 44.199,46.525 44.186,46.574C44.173,46.623 44.163,46.673 44.155,46.723L44.155,47.586L48.284,47.586L48.284,48.602Z" style="fill-rule:nonzero;"/>
        <path d="M35.751,28.338C35.751,28.679 35.69,28.993 35.568,29.279C35.447,29.566 35.279,29.812 35.065,30.019C34.851,30.226 34.597,30.389 34.302,30.506C34.008,30.623 33.688,30.682 33.343,30.682L30.526,30.682C30.451,30.682 30.381,30.669 30.317,30.643C30.253,30.616 30.197,30.58 30.15,30.535C30.103,30.49 30.067,30.436 30.04,30.373C30.013,30.31 30,30.243 30,30.17L30,25.592C30,25.521 30.013,25.455 30.04,25.393C30.067,25.33 30.103,25.275 30.15,25.228C30.197,25.181 30.253,25.145 30.317,25.119C30.381,25.093 30.451,25.08 30.526,25.08L33.343,25.08C33.688,25.08 34.008,25.139 34.302,25.256C34.597,25.373 34.851,25.535 35.065,25.742C35.279,25.949 35.447,26.197 35.568,26.484C35.69,26.772 35.751,27.085 35.751,27.424L35.751,28.338ZM34.708,27.424C34.708,27.226 34.675,27.045 34.609,26.881C34.544,26.717 34.451,26.577 34.33,26.461C34.21,26.345 34.066,26.255 33.899,26.191C33.732,26.128 33.546,26.096 33.343,26.096L31.043,26.096L31.043,29.666L33.343,29.666C33.546,29.666 33.732,29.634 33.899,29.57C34.066,29.507 34.21,29.417 34.33,29.301C34.451,29.185 34.544,29.046 34.609,28.883C34.675,28.72 34.708,28.539 34.708,28.338L34.708,27.424Z" style="fill-rule:nonzero;"/>
        <rect x="36.783" y="25.08" width="1.043" height="5.602" style="fill-rule:nonzero;"/>
        <path d="M44.805,25.08L42.08,30.482C42.037,30.565 41.974,30.633 41.889,30.684C41.805,30.735 41.712,30.76 41.611,30.76C41.512,30.76 41.42,30.735 41.336,30.684C41.251,30.633 41.186,30.565 41.141,30.482L38.42,25.08L39.588,25.08L41.611,29.115L43.641,25.08L44.805,25.08Z" style="fill-rule:nonzero;"/>
        <rect x="45.403" y="25.08" width="1.044" height="5.602" style="fill-rule:nonzero;"/>
        <path d="M53.418,30.248C53.418,30.321 53.404,30.388 53.376,30.451C53.347,30.514 53.31,30.568 53.263,30.613C53.216,30.659 53.161,30.695 53.097,30.721C53.032,30.747 52.964,30.76 52.892,30.76C52.828,30.76 52.763,30.748 52.697,30.725C52.632,30.701 52.574,30.663 52.523,30.611L48.71,26.736L48.71,30.682L47.667,30.682L47.667,25.514C47.667,25.409 47.697,25.315 47.757,25.23C47.817,25.145 47.894,25.082 47.988,25.041C48.087,25.002 48.188,24.992 48.293,25.012C48.397,25.031 48.487,25.079 48.562,25.154L52.374,29.025L52.374,25.08L53.418,25.08L53.418,30.248Z" style="fill-rule:nonzero;"/>
        <path d="M59.361,28.393L56.066,28.393L56.066,27.369L59.361,27.369L59.361,28.393ZM59.831,30.682L56.066,30.682C55.922,30.682 55.764,30.657 55.593,30.607C55.422,30.558 55.263,30.476 55.117,30.363C54.972,30.25 54.85,30.103 54.752,29.922C54.655,29.741 54.606,29.519 54.606,29.256L54.606,25.592C54.606,25.521 54.619,25.455 54.646,25.393C54.673,25.33 54.709,25.275 54.756,25.228C54.803,25.181 54.858,25.145 54.923,25.119C54.987,25.093 55.056,25.08 55.131,25.08L59.831,25.08L59.831,26.096L55.649,26.096L55.649,29.256C55.649,29.389 55.685,29.49 55.757,29.56C55.83,29.631 55.935,29.666 56.074,29.666L59.831,29.666L59.831,30.682Z" style="fill-rule:nonzero;"/>
        <path d="M68.664,30.682L64.9,30.682C64.803,30.682 64.7,30.671 64.589,30.648C64.478,30.626 64.368,30.592 64.26,30.545C64.151,30.498 64.048,30.438 63.949,30.363C63.85,30.289 63.762,30.199 63.686,30.094C63.609,29.988 63.548,29.865 63.503,29.726C63.458,29.587 63.435,29.431 63.435,29.256L63.435,26.506C63.435,26.412 63.446,26.311 63.469,26.203C63.492,26.095 63.527,25.988 63.575,25.883C63.624,25.778 63.687,25.677 63.764,25.58C63.841,25.483 63.934,25.398 64.043,25.324C64.151,25.25 64.276,25.191 64.418,25.146C64.56,25.102 64.721,25.08 64.9,25.08L68.664,25.08L68.664,26.096L64.9,26.096C64.763,26.096 64.659,26.131 64.587,26.201C64.514,26.272 64.478,26.376 64.478,26.514L64.478,29.256C64.478,29.386 64.515,29.487 64.589,29.559C64.662,29.63 64.766,29.666 64.9,29.666L68.664,29.666L68.664,30.682Z" style="fill-rule:nonzero;"/>
        <path d="M76.35,30.682L75.298,30.682L75.298,27.346L73.448,30.514C73.403,30.595 73.339,30.656 73.257,30.697C73.176,30.739 73.088,30.76 72.995,30.76C72.904,30.76 72.819,30.739 72.74,30.697C72.661,30.656 72.598,30.595 72.553,30.514L70.695,27.346L70.695,30.682L69.652,30.682L69.652,25.514C69.652,25.397 69.687,25.292 69.758,25.201C69.829,25.11 69.922,25.049 70.037,25.018C70.093,25.005 70.149,25 70.205,25.004C70.262,25.008 70.316,25.02 70.368,25.039C70.42,25.058 70.467,25.086 70.51,25.121C70.553,25.156 70.59,25.199 70.619,25.248L72.995,29.268L75.37,25.248C75.432,25.149 75.517,25.079 75.625,25.037C75.734,24.996 75.847,24.989 75.964,25.018C76.077,25.049 76.169,25.11 76.241,25.201C76.314,25.292 76.35,25.397 76.35,25.514L76.35,30.682Z" style="fill-rule:nonzero;"/>
        <path d="M83.602,28.416C83.602,28.757 83.542,29.071 83.421,29.357C83.301,29.644 83.134,29.891 82.92,30.1C82.705,30.308 82.452,30.47 82.159,30.586C81.866,30.702 81.547,30.76 81.202,30.76L79.789,30.76C79.444,30.76 79.124,30.702 78.83,30.586C78.536,30.47 78.282,30.308 78.067,30.1C77.853,29.891 77.685,29.644 77.564,29.357C77.442,29.071 77.381,28.757 77.381,28.416L77.381,27.346C77.381,27.007 77.442,26.694 77.564,26.406C77.685,26.119 77.853,25.871 78.067,25.664C78.282,25.457 78.536,25.295 78.83,25.178C79.124,25.061 79.444,25.002 79.789,25.002L81.202,25.002C81.547,25.002 81.866,25.061 82.159,25.178C82.452,25.295 82.705,25.457 82.92,25.664C83.134,25.871 83.301,26.119 83.421,26.406C83.542,26.694 83.602,27.007 83.602,27.346L83.602,28.416ZM82.558,27.346C82.558,27.145 82.525,26.964 82.46,26.801C82.395,26.638 82.302,26.499 82.183,26.383C82.064,26.267 81.921,26.177 81.754,26.113C81.587,26.05 81.403,26.018 81.202,26.018L79.789,26.018C79.586,26.018 79.4,26.05 79.233,26.113C79.066,26.177 78.922,26.267 78.802,26.383C78.681,26.499 78.588,26.638 78.523,26.801C78.458,26.964 78.425,27.145 78.425,27.346L78.425,28.416C78.425,28.617 78.458,28.798 78.523,28.961C78.588,29.124 78.681,29.263 78.802,29.379C78.922,29.495 79.066,29.585 79.233,29.648C79.4,29.712 79.586,29.744 79.789,29.744L81.194,29.744C81.397,29.744 81.583,29.712 81.75,29.648C81.917,29.585 82.06,29.495 82.181,29.379C82.302,29.263 82.395,29.124 82.46,28.961C82.525,28.798 82.558,28.617 82.558,28.416L82.558,27.346Z" style="fill-rule:nonzero;"/>
        <path d="M90.164,29.033C90.164,29.234 90.138,29.414 90.085,29.574C90.033,29.734 89.964,29.875 89.879,29.998C89.793,30.121 89.693,30.225 89.578,30.31C89.463,30.396 89.343,30.466 89.22,30.521C89.097,30.576 88.972,30.616 88.845,30.643C88.718,30.669 88.599,30.682 88.486,30.682L84.461,30.682L84.461,29.666L88.486,29.666C88.687,29.666 88.843,29.609 88.954,29.494C89.065,29.379 89.12,29.226 89.12,29.033C89.12,28.94 89.105,28.854 89.076,28.775C89.047,28.697 89.005,28.629 88.95,28.572C88.895,28.515 88.828,28.47 88.749,28.439C88.67,28.408 88.582,28.393 88.486,28.393L86.086,28.393C85.917,28.393 85.735,28.364 85.54,28.305C85.345,28.246 85.163,28.152 84.996,28.021C84.829,27.891 84.69,27.721 84.579,27.51C84.468,27.299 84.412,27.041 84.412,26.736C84.412,26.431 84.468,26.174 84.579,25.965C84.69,25.755 84.829,25.584 84.996,25.453C85.163,25.322 85.345,25.227 85.54,25.168C85.735,25.109 85.917,25.08 86.086,25.08L89.638,25.08L89.638,26.096L86.086,26.096C85.888,26.096 85.734,26.154 85.623,26.271C85.512,26.388 85.456,26.543 85.456,26.736C85.456,26.931 85.512,27.086 85.623,27.199C85.734,27.312 85.888,27.369 86.086,27.369L88.494,27.369C88.607,27.372 88.726,27.387 88.851,27.414C88.977,27.441 89.102,27.484 89.226,27.541C89.351,27.598 89.469,27.671 89.582,27.758C89.694,27.845 89.794,27.95 89.881,28.072C89.968,28.195 90.036,28.335 90.087,28.494C90.138,28.653 90.164,28.832 90.164,29.033Z" style="fill-rule:nonzero;"/>
        <path d="M88.5,194.852C86.291,194.852 84.5,193.061 84.5,190.852C84.5,188.642 86.291,186.852 88.5,186.852C90.709,186.852 92.5,188.642 92.5,190.852C92.5,193.061 90.709,194.852 88.5,194.852Z" style="fill-opacity:0;fill-rule:nonzero;stroke:#000;stroke-width:0.25px;stroke-linecap:butt;"/>
        <g id="circle868">
            <path d="M28.156,245.5C28.156,252.117 22.86,257.481 16.328,257.481C9.796,257.481 4.5,252.117 4.5,245.5C4.5,238.883 9.796,233.519 16.328,233.519C22.86,233.519 28.156,238.883 28.156,245.5Z" style="fill:#fff;fill-rule:nonzero;"/>
            <path d="M28.156,245.5C28.156,252.117 22.86,257.481 16.328,257.481C9.796,257.481 4.5,252.117 4.5,245.5C4.5,238.883 9.796,233.519 16.328,233.519C22.86,233.519 28.156,238.883 28.156,245.5Z" style="fill-opacity:0;fill-rule:nonzero;stroke:#000;stroke-width:0.25px;stroke-linecap:butt;"/>
        </g>
        <g id="circle8681" serif:id="circle868">
            <path d="M58.156,245.5C58.156,252.117 52.86,257.481 46.328,257.481C39.796,257.481 34.5,252.117 34.5,245.5C34.5,238.883 39.796,233.519 46.328,233.519C52.86,233.519 58.156,238.883 58.156,245.5Z" style="fill:#fff;fill-rule:nonzero;"/>
            <path d="M58.156,245.5C58.156,252.117 52.86,257.481 46.328,257.481C39.796,257.481 34.5,252.117 34.5,245.5C34.5,238.883 39.796,233.519 46.328,233.519C52.86,233.519 58.156,238.883 58.156,245.5Z" style="fill-opacity:0;fill-rule:nonzero;stroke:#000;stroke-width:0.25px;stroke-linecap:butt;"/>
        </g>
        <g id="circle8682" serif:id="circle868">
            <path d="M86.156,267.719C86.156,274.336 80.86,279.7 74.328,279.7C67.796,279.7 62.5,274.336 62.5,267.719C62.5,261.102 67.796,255.738 74.328,255.738C80.86,255.738 86.156,261.102 86.156,267.719Z" style="fill:#fff;fill-rule:nonzero;"/>
            <path d="M86.156,267.719C86.156,274.336 80.86,279.7 74.328,279.7C67.796,279.7 62.5,274.336 62.5,267.719C62.5,261.102 67.796,255.738 74.328,255.738C80.86,255.738 86.156,261.102 86.156,267.719Z" style="fill-opacity:0;fill-rule:nonzero;stroke:#000;stroke-width:0.25px;stroke-linecap:butt;"/>
        </g>
        <g id="circle8683" serif:id="circle868">
            <path d="M116.156,267.5C116.156,274.117 110.86,279.481 104.328,279.481C97.796,279.481 92.5,274.117 92.5,267.5C92.5,260.883 97.796,255.519 104.328,255.519C110.86,255.519 116.156,260.883 116.156,267.5Z" style="fill:#fff;fill-rule:nonzero;"/>
            <path d="M116.156,267.5C116.156,274.117 110.86,279.481 104.328,279.481C97.796,279.481 92.5,274.117 92.5,267.5C92.5,260.883 97.796,255.519 104.328,255.519C110.86,255.519 116.156,260.883 116.156,267.5Z" style="fill-opacity:0;fill-rule:nonzero;stroke:#000;stroke-width:0.25px;stroke-linecap:butt;"/>
        </g>
        <g id="circle8684" serif:id="circle868">
            <path d="M28.156,315.719C28.156,322.336 22.86,327.7 16.328,327.7C9.796,327.7 4.5,322.336 4.5,315.719C4.5,309.102 9.796,303.738 16.328,303.738C22.86,303.738 28.156,309.102 28.156,315.719Z" style="fill:#fff;fill-rule:nonzero;"/>
            <path d="M28.156,315.719C28.156,322.336 22.86,327.7 16.328,327.7C9.796,327.7 4.5,322.336 4.5,315.719C4.5,309.102 9.796,303.738 16.328,303.738C22.86,303.738 28.156,309.102 28.156,315.719Z" style="fill-opacity:0;fill-rule:nonzero;stroke:#000;stroke-width:0.25px;stroke-linecap:butt;"/>
        </g>
        <g id="circle8685" serif:id="circle868">
            <path d="M58.156,315.519C58.156,322.136 52.86,327.5 46.328,327.5C39.796,327.5 34.5,322.136 34.5,315.519C34.5,308.902 39.796,303.538 46.328,303.538C52.86,303.538 58.156,308.902 58.156,315.519Z" style="fill:#fff;fill-rule:nonzero;"/>
            <path d="M58.156,315.519C58.156,322.136 52.86,327.5 46.328,327.5C39.796,327.5 34.5,322.136 34.5,315.519C34.5,308.902 39.796,303.538 46.328,303.538C52.86,303.538 58.156,308.902 58.156,315.519Z" style="fill-opacity:0;fill-rule:nonzero;stroke:#000;stroke-width:0.25px;stroke-linecap:butt;"/>
        </g>
        <g id="circle8686" serif:id="circle868">
            <path d="M86.156,315.519C86.156,322.136 80.86,327.5 74.328,327.5C67.796,327.5 62.5,322.136 62.5,315.519C62.5,308.902 67.796,303.538 74.328,303.538C80.86,303.538 86.156,308.902 86.156,315.519Z" style="fill:#fff;fill-rule:nonzero;"/>
            <path d="M86.156,315.519C86.156,322.136 80.86,327.5 74.328,327.5C67.796,327.5 62.5,322.136 62.5,315.519C62.5,308.902 67.796,303.538 74.328,303.538C80.86,303.538 86.156,308.902 86.156,315.519Z" style="fill-opacity:0;fill-rule:nonzero;stroke:#000;stroke-width:0.25px;stroke-linecap:butt;"/>
        </g>
        <g id="circle8687" serif:id="circle868">
            <path d="M116.156,315.319C116.156,321.936 110.86,327.3 104.328,327.3C97.796,327.3 92.5,321.936 92.5,315.319C92.5,308.702 97.796,303.338 104.328,303.338C110.86,303.338 116.156,308.702 116.156,315.319Z" style="fill:#fff;fill-rule:nonzero;"/>
            <path d="M116.156,315.319C116.156,321.936 110.86,327.3 104.328,327.3C97.796,327.3 92.5,321.936 92.5,315.319C92.5,308.702 97.796,303.338 104.328,303.338C110.86,303.338 116.156,308.702 116.156,315.319Z" style="fill-opacity:0;fill-rule:nonzero;stroke:#000;stroke-width:0.25px;stroke-linecap:butt;"/>
        </g>
        <path d="M55.298,365.35C55.298,365.459 55.277,365.561 55.236,365.654C55.195,365.748 55.141,365.829 55.072,365.897C55.004,365.966 54.923,366.02 54.829,366.059C54.735,366.098 54.635,366.117 54.53,366.117C54.437,366.117 54.342,366.099 54.246,366.064C54.151,366.029 54.066,365.973 53.991,365.895L48.425,360.082L48.425,366L46.901,366L46.901,358.248C46.901,358.092 46.945,357.95 47.033,357.823C47.121,357.696 47.233,357.602 47.37,357.539C47.515,357.48 47.663,357.466 47.815,357.495C47.968,357.524 48.099,357.596 48.208,357.709L53.774,363.516L53.774,357.598L55.298,357.598L55.298,365.35Z" style="fill-rule:nonzero;"/>
        <path d="M64.784,366L57.835,366C57.726,366 57.624,365.98 57.53,365.941C57.437,365.902 57.356,365.849 57.287,365.78C57.219,365.712 57.165,365.631 57.126,365.537C57.087,365.443 57.067,365.341 57.067,365.232L57.067,357.598L58.591,357.598L58.591,364.477L64.784,364.477L64.784,366Z" style="fill-rule:nonzero;"/>
        <path d="M73.427,366L67.931,366C67.79,366 67.639,365.983 67.477,365.95C67.314,365.917 67.154,365.865 66.996,365.795C66.838,365.724 66.687,365.633 66.542,365.522C66.397,365.411 66.269,365.276 66.158,365.118C66.047,364.96 65.958,364.776 65.892,364.567C65.825,364.358 65.792,364.123 65.792,363.861L65.792,359.736C65.792,359.595 65.809,359.444 65.842,359.282C65.875,359.12 65.927,358.96 65.997,358.802C66.068,358.643 66.159,358.492 66.272,358.348C66.385,358.203 66.521,358.075 66.68,357.964C66.838,357.853 67.021,357.764 67.228,357.697C67.435,357.631 67.669,357.598 67.931,357.598L73.427,357.598L73.427,359.121L67.931,359.121C67.732,359.121 67.579,359.174 67.474,359.279C67.368,359.385 67.315,359.541 67.315,359.748L67.315,363.861C67.315,364.056 67.369,364.208 67.477,364.315C67.584,364.423 67.736,364.477 67.931,364.477L73.427,364.477L73.427,366Z" style="fill-rule:nonzero;"/>
        <path d="M77.5,358.5L114.5,358.5" style="fill:none;fill-rule:nonzero;stroke:#007ba9;stroke-width:1px;"/>
        <path d="M6.5,358.5L43.5,358.5" style="fill:none;fill-rule:nonzero;stroke:#00799a;stroke-width:1px;"/>
        <path d="M90.664,20.5L114.5,20.5" style="fill:none;fill-rule:nonzero;stroke:#00799a;stroke-width:1px;"/>
        <path d="M6.5,20.5L30.5,20.5" style="fill:none;fill-rule:nonzero;stroke:#00799a;stroke-width:1px;"/>
        <path d="M40.746,16.484C40.746,16.996 40.657,17.467 40.479,17.896C40.302,18.326 40.057,18.696 39.744,19.007C39.431,19.318 39.06,19.561 38.631,19.736C38.201,19.912 37.734,20 37.23,20L33.117,20C33.008,20 32.906,19.98 32.812,19.941C32.719,19.902 32.638,19.849 32.569,19.78C32.501,19.712 32.447,19.631 32.408,19.537C32.369,19.443 32.35,19.341 32.35,19.232L32.35,12.365C32.35,12.26 32.369,12.16 32.408,12.066C32.447,11.973 32.501,11.891 32.569,11.82C32.638,11.75 32.719,11.695 32.812,11.656C32.906,11.617 33.008,11.598 33.117,11.598L37.23,11.598C37.734,11.598 38.201,11.686 38.631,11.861C39.06,12.037 39.431,12.28 39.744,12.591C40.057,12.902 40.302,13.273 40.479,13.704C40.657,14.136 40.746,14.606 40.746,15.113L40.746,16.484ZM39.223,15.113C39.223,14.816 39.175,14.545 39.079,14.299C38.984,14.053 38.848,13.843 38.672,13.669C38.496,13.495 38.286,13.36 38.042,13.265C37.798,13.169 37.527,13.121 37.23,13.121L33.873,13.121L33.873,18.477L37.23,18.477C37.527,18.477 37.798,18.429 38.042,18.333C38.286,18.237 38.496,18.102 38.672,17.929C38.848,17.755 38.984,17.546 39.079,17.302C39.175,17.058 39.223,16.785 39.223,16.484L39.223,15.113Z" style="fill-rule:nonzero;"/>
        <rect x="42.252" y="11.598" width="1.523" height="8.402" style="fill-rule:nonzero;"/>
        <path d="M53.965,11.598L49.986,19.701C49.924,19.826 49.831,19.927 49.708,20.003C49.585,20.079 49.449,20.117 49.301,20.117C49.156,20.117 49.022,20.079 48.899,20.003C48.776,19.927 48.682,19.826 48.615,19.701L44.643,11.598L46.348,11.598L49.301,17.65L52.266,11.598L53.965,11.598Z" style="fill-rule:nonzero;"/>
        <path d="M66.094,20L60.598,20C60.457,20 60.306,19.983 60.144,19.95C59.981,19.917 59.821,19.865 59.663,19.795C59.505,19.724 59.354,19.633 59.209,19.522C59.064,19.411 58.936,19.276 58.825,19.118C58.714,18.96 58.625,18.776 58.559,18.567C58.492,18.358 58.459,18.123 58.459,17.861L58.459,13.736C58.459,13.595 58.476,13.444 58.509,13.282C58.542,13.12 58.594,12.96 58.664,12.802C58.735,12.643 58.826,12.492 58.939,12.348C59.052,12.203 59.188,12.075 59.347,11.964C59.505,11.853 59.688,11.764 59.895,11.697C60.102,11.631 60.336,11.598 60.598,11.598L66.094,11.598L66.094,13.121L60.598,13.121C60.399,13.121 60.246,13.174 60.141,13.279C60.035,13.385 59.982,13.541 59.982,13.748L59.982,17.861C59.982,18.056 60.036,18.208 60.144,18.315C60.251,18.423 60.403,18.477 60.598,18.477L66.094,18.477L66.094,20Z" style="fill-rule:nonzero;"/>
        <path d="M77.314,20L75.779,20L75.779,14.996L73.078,19.748C73.012,19.869 72.919,19.961 72.8,20.023C72.681,20.086 72.553,20.117 72.416,20.117C72.283,20.117 72.159,20.086 72.044,20.023C71.929,19.961 71.838,19.869 71.771,19.748L69.059,14.996L69.059,20L67.535,20L67.535,12.248C67.535,12.072 67.587,11.916 67.69,11.779C67.794,11.642 67.93,11.551 68.098,11.504C68.18,11.485 68.262,11.478 68.344,11.483C68.426,11.489 68.505,11.507 68.581,11.536C68.657,11.565 68.726,11.606 68.789,11.659C68.852,11.712 68.904,11.775 68.947,11.85L72.416,17.879L75.885,11.85C75.975,11.701 76.099,11.596 76.257,11.533C76.415,11.47 76.58,11.461 76.752,11.504C76.916,11.551 77.051,11.642 77.156,11.779C77.261,11.916 77.314,12.072 77.314,12.248L77.314,20Z" style="fill-rule:nonzero;"/>
        <path d="M87.902,16.602C87.902,17.113 87.814,17.584 87.639,18.014C87.463,18.443 87.219,18.814 86.906,19.127C86.593,19.44 86.223,19.683 85.796,19.856C85.368,20.03 84.902,20.117 84.398,20.117L82.336,20.117C81.832,20.117 81.365,20.03 80.936,19.856C80.506,19.683 80.135,19.44 79.822,19.127C79.51,18.814 79.265,18.443 79.087,18.014C78.909,17.584 78.82,17.113 78.82,16.602L78.82,14.996C78.82,14.488 78.909,14.018 79.087,13.587C79.265,13.155 79.51,12.784 79.822,12.474C80.135,12.163 80.506,11.92 80.936,11.744C81.365,11.568 81.832,11.48 82.336,11.48L84.398,11.48C84.902,11.48 85.368,11.568 85.796,11.744C86.223,11.92 86.593,12.163 86.906,12.474C87.219,12.784 87.463,13.155 87.639,13.587C87.814,14.018 87.902,14.488 87.902,14.996L87.902,16.602ZM86.379,14.996C86.379,14.695 86.331,14.423 86.235,14.179C86.14,13.934 86.005,13.725 85.831,13.552C85.657,13.378 85.448,13.243 85.204,13.147C84.96,13.052 84.691,13.004 84.398,13.004L82.336,13.004C82.039,13.004 81.769,13.052 81.524,13.147C81.28,13.243 81.07,13.378 80.895,13.552C80.719,13.725 80.583,13.934 80.487,14.179C80.392,14.423 80.344,14.695 80.344,14.996L80.344,16.602C80.344,16.903 80.392,17.175 80.487,17.419C80.583,17.663 80.719,17.872 80.895,18.046C81.07,18.22 81.28,18.355 81.524,18.45C81.769,18.546 82.039,18.594 82.336,18.594L84.387,18.594C84.684,18.594 84.954,18.546 85.198,18.45C85.442,18.355 85.652,18.22 85.828,18.046C86.004,17.872 86.14,17.663 86.235,17.419C86.331,17.175 86.379,16.903 86.379,16.602L86.379,14.996Z" style="fill-rule:nonzero;"/>
        <g id="Knob_5">
            <g>
                <path d="M52.5,191.5C52.5,202.546 43.546,211.5 32.5,211.5C21.454,211.5 12.5,202.546 12.5,191.5C12.5,180.454 21.454,171.5 32.5,171.5C43.546,171.5 52.5,180.454 52.5,191.5Z" style="fill:#fff;fill-rule:nonzero;"/>
                <path d="M52.5,191.5C52.5,202.546 43.546,211.5 32.5,211.5C21.454,211.5 12.5,202.546 12.5,191.5C12.5,180.454 21.454,171.5 32.5,171.5C43.546,171.5 52.5,180.454 52.5,191.5Z" style="fill-opacity:0;fill-rule:nonzero;stroke:#000;stroke-width:1px;stroke-linecap:butt;"/>
            </g>
        </g>
        <g id="Knob_4">
            <g>
                <path d="M108.5,145.5C108.5,156.546 99.546,165.5 88.5,165.5C77.454,165.5 68.5,156.546 68.5,145.5C68.5,134.454 77.454,125.5 88.5,125.5C99.546,125.5 108.5,134.454 108.5,145.5Z" style="fill:#fff;fill-rule:nonzero;"/>
                <path d="M108.5,145.5C108.5,156.546 99.546,165.5 88.5,165.5C77.454,165.5 68.5,156.546 68.5,145.5C68.5,134.454 77.454,125.5 88.5,125.5C99.546,125.5 108.5,134.454 108.5,145.5Z" style="fill-opacity:0;fill-rule:nonzero;stroke:#000;stroke-width:1px;stroke-linecap:butt;"/>
            </g>
        </g>
        <g id="Knob_3">
            <g>
                <path d="M52.5,123.5C52.5,134.546 43.546,143.5 32.5,143.5C21.454,143.5 12.5,134.546 12.5,123.5C12.5,112.454 21.454,103.5 32.5,103.5C43.546,103.5 52.5,112.454 52.5,123.5Z" style="fill:#fff;fill-rule:nonzero;"/>
                <path d="M52.5,123.5C52.5,134.546 43.546,143.5 32.5,143.5C21.454,143.5 12.5,134.546 12.5,123.5C12.5,112.454 21.454,103.5 32.5,103.5C43.546,103.5 52.5,112.454 52.5,123.5Z" style="fill-opacity:0;fill-rule:nonzero;stroke:#000;stroke-width:1px;stroke-linecap:butt;"/>
            </g>
        </g>
        <g id="Knob_2">
            <g>
                <path d="M108.5,92.5C108.5,103.546 99.546,112.5 88.5,112.5C77.454,112.5 68.5,103.546 68.5,92.5C68.5,81.454 77.454,72.5 88.5,72.5C99.546,72.5 108.5,81.454 108.5,92.5Z" style="fill:#fff;fill-rule:nonzero;"/>
                <path d="M108.5,92.5C108.5,103.546 99.546,112.5 88.5,112.5C77.454,112.5 68.5,103.546 68.5,92.5C68.5,81.454 77.454,72.5 88.5,72.5C99.546,72.5 108.5,81.454 108.5,92.5Z" style="fill-opacity:0;fill-rule:nonzero;stroke:#000;stroke-width:1px;stroke-linecap:butt;"/>
            </g>
        </g>
        <g id="Knob_1">
            <g>
                <path d="M52.5,70.5C52.5,81.546 43.546,90.5 32.5,90.5C21.454,90.5 12.5,81.546 12.5,70.5C12.5,59.454 21.454,50.5 32.5,50.5C43.546,50.5 52.5,59.454 52.5,70.5Z" style="fill:#fff;fill-rule:nonzero;"/>
                <path d="M52.5,70.5C52.5,81.546 43.546,90.5 32.5,90.5C21.454,90.5 12.5,81.546 12.5,70.5C12.5,59.454 21.454,50.5 32.5,50.5C43.546,50.5 52.5,59.454 52.5,70.5Z" style="fill-opacity:0;fill-rule:nonzero;stroke:#000;stroke-width:1px;stroke-linecap:butt;"/>
            </g>
        </g>
    </g>
</svg>
