<?xml version="1.0" encoding="UTF-8" standalone="no"?>
<!DOCTYPE svg PUBLIC "-//W3C//DTD SVG 1.1//EN" "http://www.w3.org/Graphics/SVG/1.1/DTD/svg11.dtd">
<svg width="100%" height="100%" viewBox="0 0 300 380" version="1.1" xmlns="http://www.w3.org/2000/svg" xmlns:xlink="http://www.w3.org/1999/xlink" xml:space="preserve" xmlns:serif="http://www.serif.com/" style="fill-rule:evenodd;clip-rule:evenodd;stroke-linecap:round;">
    <g id="_8_BIT_CIPER" serif:id="8_BIT_CIPER">
        <rect x="0.179" y="0" width="300" height="380" style="fill:#e6e6e6;fill-rule:nonzero;"/>
        <path d="M167.409,299L279.881,299C281.566,299 282.933,300.343 282.933,302L282.933,337.708C282.933,339.365 281.566,340.708 279.881,340.708L167.409,340.708C165.723,340.708 164.357,339.365 164.357,337.708L164.357,302C164.357,300.343 165.723,299 167.409,299Z" style="fill:#bcbdba;fill-rule:nonzero;"/>
        <path d="M99.913,366.802L123.688,366.802" style="fill:none;fill-rule:nonzero;stroke:#00799a;stroke-width:1px;"/>
        <path d="M176.725,366.802L200.5,366.802" style="fill:none;fill-rule:nonzero;stroke:#00799a;stroke-width:1px;"/>
        <path d="M142.653,365.024C142.653,365.189 142.622,365.341 142.561,365.481C142.5,365.622 142.418,365.743 142.315,365.846C142.212,365.949 142.091,366.029 141.95,366.088C141.809,366.147 141.66,366.176 141.502,366.176C141.361,366.176 141.219,366.15 141.076,366.097C140.932,366.044 140.804,365.959 140.693,365.842L132.344,357.123L132.344,366L130.059,366L130.059,354.372C130.059,354.138 130.125,353.926 130.256,353.735C130.388,353.544 130.557,353.402 130.762,353.309C130.979,353.221 131.201,353.199 131.43,353.243C131.658,353.287 131.854,353.394 132.019,353.563L140.368,362.273L140.368,353.396L142.653,353.396L142.653,365.024Z" style="fill-rule:nonzero;"/>
        <path d="M156.883,366L146.459,366C146.295,366 146.143,365.971 146.002,365.912C145.861,365.853 145.74,365.773 145.637,365.67C145.534,365.568 145.454,365.447 145.395,365.306C145.337,365.165 145.308,365.013 145.308,364.849L145.308,353.396L147.593,353.396L147.593,363.715L156.883,363.715L156.883,366Z" style="fill-rule:nonzero;"/>
        <path d="M169.847,366L161.603,366C161.392,366 161.164,365.975 160.921,365.925C160.678,365.876 160.438,365.798 160.201,365.692C159.964,365.587 159.737,365.451 159.52,365.284C159.303,365.117 159.111,364.914 158.944,364.677C158.777,364.44 158.643,364.164 158.544,363.851C158.445,363.538 158.395,363.185 158.395,362.792L158.395,356.604C158.395,356.393 158.42,356.166 158.469,355.923C158.519,355.68 158.597,355.44 158.702,355.203C158.807,354.966 158.945,354.738 159.115,354.521C159.285,354.304 159.489,354.113 159.726,353.946C159.963,353.779 160.237,353.645 160.548,353.546C160.859,353.446 161.21,353.396 161.603,353.396L169.847,353.396L169.847,355.682L161.603,355.682C161.304,355.682 161.075,355.761 160.917,355.919C160.759,356.077 160.68,356.311 160.68,356.622L160.68,362.792C160.68,363.085 160.76,363.312 160.921,363.473C161.082,363.634 161.31,363.715 161.603,363.715L169.847,363.715L169.847,366Z" style="fill-rule:nonzero;"/>
        <g>
            <rect x="75.5" y="94.566" width="150" height="150" style="fill:#fff;fill-rule:nonzero;"/>
            <rect x="75.5" y="94.566" width="150" height="150" style="fill-opacity:0;fill-rule:nonzero;stroke:#0073ff;stroke-width:1px;stroke-linecap:butt;"/>
        </g>
        <g>
            <path d="M256.566,169.566L150.5,275.632L44.434,169.566L150.5,63.5L256.566,169.566Z" style="fill:#fff;fill-rule:nonzero;"/>
            <path d="M256.566,169.566L150.5,275.632L44.434,169.566L150.5,63.5L256.566,169.566Z" style="fill-opacity:0;fill-rule:nonzero;stroke:#0073ff;stroke-width:1px;stroke-linecap:butt;"/>
        </g>
        <rect x="75.5" y="94.5" width="150" height="150" style="fill-opacity:0;fill-rule:nonzero;stroke:#0073ff;stroke-width:1px;stroke-linecap:butt;"/>
        <g>
            <path d="M150.5,244.5C109.079,244.5 75.5,210.921 75.5,169.5C75.5,128.079 109.079,94.5 150.5,94.5C191.921,94.5 225.5,128.079 225.5,169.5C225.5,210.921 191.921,244.5 150.5,244.5Z" style="fill:#e6e6e6;fill-rule:nonzero;"/>
            <path d="M150.5,244.5C109.079,244.5 75.5,210.921 75.5,169.5C75.5,128.079 109.079,94.5 150.5,94.5C191.921,94.5 225.5,128.079 225.5,169.5C225.5,210.921 191.921,244.5 150.5,244.5Z" style="fill-opacity:0;fill-rule:nonzero;stroke:#007a9f;stroke-width:1px;stroke-linecap:butt;stroke-dasharray:2,2;"/>
        </g>
        <path d="M150.5,277C91.129,277 43,228.871 43,169.5C43,110.129 91.129,62 150.5,62C209.871,62 258,110.129 258,169.5C258,228.871 209.871,277 150.5,277Z" style="fill-opacity:0;fill-rule:nonzero;stroke:#007a9f;stroke-width:1px;stroke-linecap:butt;stroke-dasharray:2,2;"/>
        <path id="circle868" d="M163,169C163,176.18 157.179,182 150,182C142.821,182 137,176.18 137,169C137,161.82 142.821,156 150,156C157.179,156 163,161.82 163,169Z" style="fill:#00799a;fill-rule:nonzero;"/>
        <path id="circle8681" serif:id="circle868" d="M163,63C163,70.18 157.179,76 150,76C142.821,76 137,70.18 137,63C137,55.82 142.821,50 150,50C157.179,50 163,55.82 163,63Z" style="fill:#00799a;fill-rule:nonzero;"/>
        <path id="circle8682" serif:id="circle868" d="M238,94C238,101.18 232.179,107 225,107C217.821,107 212,101.18 212,94C212,86.82 217.821,81 225,81C232.179,81 238,86.82 238,94Z" style="fill:#00799a;fill-rule:nonzero;"/>
        <path id="circle8683" serif:id="circle868" d="M269,169C269,176.18 263.179,182 256,182C248.821,182 243,176.18 243,169C243,161.82 248.821,156 256,156C263.179,156 269,161.82 269,169Z" style="fill:#00799a;fill-rule:nonzero;"/>
        <path id="circle8684" serif:id="circle868" d="M238,244C238,251.18 232.179,257 225,257C217.821,257 212,251.18 212,244C212,236.82 217.821,231 225,231C232.179,231 238,236.82 238,244Z" style="fill:#00799a;fill-rule:nonzero;"/>
        <path id="circle8685" serif:id="circle868" d="M163,275C163,282.18 157.179,288 150,288C142.821,288 137,282.18 137,275C137,267.82 142.821,262 150,262C157.179,262 163,267.82 163,275Z" style="fill:#00799a;fill-rule:nonzero;"/>
        <path id="circle8686" serif:id="circle868" d="M88,244C88,251.18 82.179,257 75,257C67.821,257 62,251.18 62,244C62,236.82 67.821,231 75,231C82.179,231 88,236.82 88,244Z" style="fill:#00799a;fill-rule:nonzero;"/>
        <path id="circle8687" serif:id="circle868" d="M57,169C57,176.18 51.179,182 44,182C36.821,182 31,176.18 31,169C31,161.82 36.821,156 44,156C51.179,156 57,161.82 57,169Z" style="fill:#00799a;fill-rule:nonzero;"/>
        <path id="circle8688" serif:id="circle868" d="M88,94C88,101.18 82.179,107 75,107C67.821,107 62,101.18 62,94C62,86.82 67.821,81 75,81C82.179,81 88,86.82 88,94Z" style="fill:#00799a;fill-rule:nonzero;"/>
        <path d="M152.5,169.5L226.5,169.5" style="fill:none;fill-rule:nonzero;stroke:#00799a;stroke-width:1px;"/>
        <g id="LEDs">
            <g id="Led">
                <path d="M150.5,98.5C148.291,98.5 146.5,96.709 146.5,94.5C146.5,92.291 148.291,90.5 150.5,90.5C152.709,90.5 154.5,92.291 154.5,94.5C154.5,96.709 152.709,98.5 150.5,98.5Z" style="fill:#e6e6e6;fill-rule:nonzero;"/>
                <path d="M150.5,98.5C148.291,98.5 146.5,96.709 146.5,94.5C146.5,92.291 148.291,90.5 150.5,90.5C152.709,90.5 154.5,92.291 154.5,94.5C154.5,96.709 152.709,98.5 150.5,98.5Z" style="fill-opacity:0;fill-rule:nonzero;stroke:#000;stroke-width:0.25px;stroke-linecap:butt;"/>
            </g>
            <g id="Led1" serif:id="Led">
                <path d="M203.5,120.5C201.291,120.5 199.5,118.709 199.5,116.5C199.5,114.291 201.291,112.5 203.5,112.5C205.709,112.5 207.5,114.291 207.5,116.5C207.5,118.709 205.709,120.5 203.5,120.5Z" style="fill:#e6e6e6;fill-rule:nonzero;"/>
                <path d="M203.5,120.5C201.291,120.5 199.5,118.709 199.5,116.5C199.5,114.291 201.291,112.5 203.5,112.5C205.709,112.5 207.5,114.291 207.5,116.5C207.5,118.709 205.709,120.5 203.5,120.5Z" style="fill-opacity:0;fill-rule:nonzero;stroke:#000;stroke-width:0.25px;stroke-linecap:butt;"/>
            </g>
            <g id="Led2" serif:id="Led">
                <path d="M225.5,173.5C223.291,173.5 221.5,171.709 221.5,169.5C221.5,167.291 223.291,165.5 225.5,165.5C227.709,165.5 229.5,167.291 229.5,169.5C229.5,171.709 227.709,173.5 225.5,173.5Z" style="fill:#e6e6e6;fill-rule:nonzero;"/>
                <path d="M225.5,173.5C223.291,173.5 221.5,171.709 221.5,169.5C221.5,167.291 223.291,165.5 225.5,165.5C227.709,165.5 229.5,167.291 229.5,169.5C229.5,171.709 227.709,173.5 225.5,173.5Z" style="fill-opacity:0;fill-rule:nonzero;stroke:#000;stroke-width:0.25px;stroke-linecap:butt;"/>
            </g>
            <g id="Led3" serif:id="Led">
                <path d="M203.5,226.5C201.291,226.5 199.5,224.709 199.5,222.5C199.5,220.291 201.291,218.5 203.5,218.5C205.709,218.5 207.5,220.291 207.5,222.5C207.5,224.709 205.709,226.5 203.5,226.5Z" style="fill:#e6e6e6;fill-rule:nonzero;"/>
                <path d="M203.5,226.5C201.291,226.5 199.5,224.709 199.5,222.5C199.5,220.291 201.291,218.5 203.5,218.5C205.709,218.5 207.5,220.291 207.5,222.5C207.5,224.709 205.709,226.5 203.5,226.5Z" style="fill-opacity:0;fill-rule:nonzero;stroke:#000;stroke-width:0.25px;stroke-linecap:butt;"/>
            </g>
            <g id="Led4" serif:id="Led">
                <path d="M150.5,248.5C148.291,248.5 146.5,246.709 146.5,244.5C146.5,242.291 148.291,240.5 150.5,240.5C152.709,240.5 154.5,242.291 154.5,244.5C154.5,246.709 152.709,248.5 150.5,248.5Z" style="fill:#e6e6e6;fill-rule:nonzero;"/>
                <path d="M150.5,248.5C148.291,248.5 146.5,246.709 146.5,244.5C146.5,242.291 148.291,240.5 150.5,240.5C152.709,240.5 154.5,242.291 154.5,244.5C154.5,246.709 152.709,248.5 150.5,248.5Z" style="fill-opacity:0;fill-rule:nonzero;stroke:#000;stroke-width:0.25px;stroke-linecap:butt;"/>
            </g>
            <g id="Led5" serif:id="Led">
                <path d="M97.5,226.5C95.291,226.5 93.5,224.709 93.5,222.5C93.5,220.291 95.291,218.5 97.5,218.5C99.709,218.5 101.5,220.291 101.5,222.5C101.5,224.709 99.709,226.5 97.5,226.5Z" style="fill:#e6e6e6;fill-rule:nonzero;"/>
                <path d="M97.5,226.5C95.291,226.5 93.5,224.709 93.5,222.5C93.5,220.291 95.291,218.5 97.5,218.5C99.709,218.5 101.5,220.291 101.5,222.5C101.5,224.709 99.709,226.5 97.5,226.5Z" style="fill-opacity:0;fill-rule:nonzero;stroke:#000;stroke-width:0.25px;stroke-linecap:butt;"/>
            </g>
            <g id="Led6" serif:id="Led">
                <path d="M75.5,173.5C73.291,173.5 71.5,171.709 71.5,169.5C71.5,167.291 73.291,165.5 75.5,165.5C77.709,165.5 79.5,167.291 79.5,169.5C79.5,171.709 77.709,173.5 75.5,173.5Z" style="fill:#e6e6e6;fill-rule:nonzero;"/>
                <path d="M75.5,173.5C73.291,173.5 71.5,171.709 71.5,169.5C71.5,167.291 73.291,165.5 75.5,165.5C77.709,165.5 79.5,167.291 79.5,169.5C79.5,171.709 77.709,173.5 75.5,173.5Z" style="fill-opacity:0;fill-rule:nonzero;stroke:#000;stroke-width:0.25px;stroke-linecap:butt;"/>
            </g>
            <g id="Led7" serif:id="Led">
                <path d="M97.5,120.5C95.291,120.5 93.5,118.709 93.5,116.5C93.5,114.291 95.291,112.5 97.5,112.5C99.709,112.5 101.5,114.291 101.5,116.5C101.5,118.709 99.709,120.5 97.5,120.5Z" style="fill:#e6e6e6;fill-rule:nonzero;"/>
                <path d="M97.5,120.5C95.291,120.5 93.5,118.709 93.5,116.5C93.5,114.291 95.291,112.5 97.5,112.5C99.709,112.5 101.5,114.291 101.5,116.5C101.5,118.709 99.709,120.5 97.5,120.5Z" style="fill-opacity:0;fill-rule:nonzero;stroke:#000;stroke-width:0.25px;stroke-linecap:butt;"/>
            </g>
            <g id="Led8" serif:id="Led">
                <path d="M189.5,173.5C187.291,173.5 185.5,171.709 185.5,169.5C185.5,167.291 187.291,165.5 189.5,165.5C191.709,165.5 193.5,167.291 193.5,169.5C193.5,171.709 191.709,173.5 189.5,173.5Z" style="fill:#e6e6e6;fill-rule:nonzero;"/>
                <path d="M189.5,173.5C187.291,173.5 185.5,171.709 185.5,169.5C185.5,167.291 187.291,165.5 189.5,165.5C191.709,165.5 193.5,167.291 193.5,169.5C193.5,171.709 191.709,173.5 189.5,173.5Z" style="fill-opacity:0;fill-rule:nonzero;stroke:#000;stroke-width:0.25px;stroke-linecap:butt;"/>
            </g>
        </g>
        <path d="M139.992,191.352C139.992,191.552 139.967,191.732 139.916,191.893C139.865,192.053 139.798,192.194 139.715,192.316C139.632,192.439 139.534,192.543 139.422,192.629C139.31,192.715 139.194,192.785 139.074,192.84C138.955,192.895 138.833,192.935 138.709,192.961C138.585,192.987 138.468,193 138.359,193L134.441,193L134.441,191.984L138.359,191.984C138.554,191.984 138.706,191.927 138.814,191.812C138.923,191.698 138.977,191.545 138.977,191.352C138.977,191.258 138.963,191.172 138.934,191.094C138.905,191.016 138.864,190.948 138.811,190.891C138.757,190.834 138.692,190.789 138.615,190.758C138.538,190.727 138.453,190.711 138.359,190.711L136.023,190.711C135.859,190.711 135.682,190.682 135.492,190.623C135.302,190.564 135.126,190.47 134.963,190.34C134.8,190.21 134.665,190.039 134.557,189.828C134.449,189.617 134.395,189.36 134.395,189.055C134.395,188.75 134.449,188.493 134.557,188.283C134.665,188.074 134.8,187.903 134.963,187.771C135.126,187.64 135.302,187.545 135.492,187.486C135.682,187.427 135.859,187.398 136.023,187.398L139.48,187.398L139.48,188.414L136.023,188.414C135.83,188.414 135.68,188.473 135.572,188.59C135.464,188.707 135.41,188.862 135.41,189.055C135.41,189.25 135.464,189.405 135.572,189.518C135.68,189.631 135.83,189.688 136.023,189.688L138.367,189.688C138.476,189.69 138.592,189.705 138.715,189.732C138.837,189.759 138.959,189.802 139.08,189.859C139.201,189.916 139.317,189.989 139.426,190.076C139.535,190.163 139.632,190.268 139.717,190.391C139.802,190.513 139.869,190.653 139.918,190.812C139.967,190.971 139.992,191.151 139.992,191.352Z" style="fill-rule:nonzero;"/>
        <path d="M146.324,192.488C146.324,192.561 146.311,192.629 146.285,192.691C146.259,192.754 146.223,192.808 146.176,192.854C146.129,192.899 146.074,192.935 146.012,192.961C145.949,192.987 145.883,193 145.812,193L143.523,193C143.307,193 143.088,192.977 142.867,192.93C142.646,192.883 142.432,192.81 142.225,192.713C142.018,192.615 141.823,192.491 141.641,192.34C141.458,192.189 141.299,192.01 141.162,191.803C141.025,191.596 140.918,191.359 140.84,191.092C140.762,190.825 140.723,190.527 140.723,190.199L140.723,187.398L141.738,187.398L141.738,190.199C141.738,190.486 141.778,190.728 141.857,190.926C141.937,191.124 142.038,191.289 142.16,191.422C142.283,191.555 142.417,191.659 142.562,191.734C142.708,191.81 142.847,191.866 142.979,191.902C143.11,191.939 143.226,191.962 143.326,191.971C143.427,191.98 143.492,191.984 143.523,191.984L145.309,191.984L145.309,187.398L146.324,187.398L146.324,192.488Z" style="fill-rule:nonzero;"/>
        <path d="M153.086,189.742C153.086,189.974 153.057,190.181 153,190.363C152.943,190.546 152.865,190.707 152.768,190.846C152.67,190.985 152.557,191.104 152.43,191.203C152.302,191.302 152.168,191.383 152.029,191.445C151.89,191.508 151.749,191.553 151.607,191.582C151.466,191.611 151.332,191.625 151.207,191.625L148.91,191.625L148.91,190.609L151.207,190.609C151.337,190.599 151.455,190.572 151.561,190.529C151.666,190.486 151.757,190.428 151.832,190.355C151.907,190.282 151.966,190.195 152.008,190.092C152.049,189.989 152.07,189.873 152.07,189.742L152.07,189.281C152.057,189.154 152.03,189.037 151.988,188.93C151.947,188.823 151.89,188.732 151.818,188.656C151.747,188.581 151.66,188.522 151.559,188.479C151.457,188.436 151.34,188.414 151.207,188.414L148.918,188.414C148.783,188.414 148.68,188.449 148.609,188.52C148.539,188.59 148.504,188.691 148.504,188.824L148.504,193L147.488,193L147.488,188.824C147.488,188.564 147.536,188.343 147.631,188.16C147.726,187.978 147.844,187.831 147.986,187.719C148.128,187.607 148.282,187.526 148.449,187.475C148.616,187.424 148.769,187.398 148.91,187.398L151.207,187.398C151.436,187.398 151.642,187.427 151.824,187.486C152.007,187.545 152.168,187.623 152.307,187.721C152.446,187.818 152.565,187.931 152.662,188.059C152.76,188.186 152.841,188.32 152.904,188.459C152.968,188.598 153.014,188.739 153.043,188.881C153.072,189.023 153.086,189.156 153.086,189.281L153.086,189.742Z" style="fill-rule:nonzero;"/>
        <path d="M158.559,190.711L155.352,190.711L155.352,189.688L158.559,189.688L158.559,190.711ZM159.016,193L155.352,193C155.211,193 155.058,192.975 154.891,192.926C154.724,192.877 154.57,192.795 154.428,192.682C154.286,192.569 154.167,192.421 154.072,192.24C153.977,192.059 153.93,191.837 153.93,191.574L153.93,187.91C153.93,187.84 153.943,187.774 153.969,187.711C153.995,187.648 154.031,187.594 154.076,187.547C154.122,187.5 154.176,187.464 154.238,187.438C154.301,187.411 154.368,187.398 154.441,187.398L159.016,187.398L159.016,188.414L154.945,188.414L154.945,191.574C154.945,191.707 154.98,191.808 155.051,191.879C155.121,191.949 155.224,191.984 155.359,191.984L159.016,191.984L159.016,193Z" style="fill-rule:nonzero;"/>
        <path d="M165.594,189.281C165.594,189.513 165.565,189.72 165.508,189.902C165.451,190.085 165.373,190.246 165.275,190.385C165.178,190.524 165.065,190.643 164.938,190.742C164.81,190.841 164.676,190.923 164.537,190.986C164.398,191.05 164.257,191.096 164.115,191.125C163.973,191.154 163.84,191.168 163.715,191.168L165.836,193L164.266,193L162.148,191.168L161.418,191.168L161.418,190.152L163.715,190.152C163.842,190.142 163.959,190.115 164.064,190.072C164.17,190.029 164.261,189.971 164.338,189.898C164.415,189.825 164.474,189.738 164.516,189.635C164.557,189.532 164.578,189.414 164.578,189.281L164.578,188.641C164.578,188.584 164.571,188.54 164.557,188.51C164.542,188.48 164.524,188.458 164.502,188.443C164.48,188.429 164.457,188.421 164.432,188.418C164.407,188.415 164.384,188.414 164.363,188.414L161.012,188.414L161.012,193L159.996,193L159.996,187.91C159.996,187.84 160.009,187.774 160.035,187.711C160.061,187.648 160.097,187.594 160.143,187.547C160.188,187.5 160.242,187.464 160.305,187.438C160.367,187.411 160.435,187.398 160.508,187.398L164.363,187.398C164.59,187.398 164.781,187.439 164.938,187.521C165.094,187.604 165.221,187.707 165.318,187.83C165.416,187.954 165.486,188.087 165.529,188.23C165.572,188.373 165.594,188.508 165.594,188.633L165.594,189.281Z" style="fill-rule:nonzero;"/>
        <path d="M139.141,201.352C139.141,201.552 139.115,201.732 139.064,201.893C139.013,202.053 138.946,202.194 138.863,202.316C138.78,202.439 138.682,202.543 138.57,202.629C138.458,202.715 138.342,202.785 138.223,202.84C138.103,202.895 137.981,202.935 137.857,202.961C137.734,202.987 137.617,203 137.508,203L133.59,203L133.59,201.984L137.508,201.984C137.703,201.984 137.855,201.927 137.963,201.812C138.071,201.698 138.125,201.545 138.125,201.352C138.125,201.258 138.111,201.172 138.082,201.094C138.053,201.016 138.012,200.948 137.959,200.891C137.906,200.834 137.841,200.789 137.764,200.758C137.687,200.727 137.601,200.711 137.508,200.711L135.172,200.711C135.008,200.711 134.831,200.682 134.641,200.623C134.45,200.564 134.274,200.47 134.111,200.34C133.948,200.21 133.813,200.039 133.705,199.828C133.597,199.617 133.543,199.36 133.543,199.055C133.543,198.75 133.597,198.493 133.705,198.283C133.813,198.074 133.948,197.903 134.111,197.771C134.274,197.64 134.45,197.545 134.641,197.486C134.831,197.427 135.008,197.398 135.172,197.398L138.629,197.398L138.629,198.414L135.172,198.414C134.979,198.414 134.829,198.473 134.721,198.59C134.613,198.707 134.559,198.862 134.559,199.055C134.559,199.25 134.613,199.405 134.721,199.518C134.829,199.631 134.979,199.688 135.172,199.688L137.516,199.688C137.625,199.69 137.741,199.705 137.863,199.732C137.986,199.759 138.108,199.802 138.229,199.859C138.35,199.916 138.465,199.989 138.574,200.076C138.683,200.163 138.78,200.268 138.865,200.391C138.95,200.513 139.017,200.653 139.066,200.812C139.116,200.971 139.141,201.151 139.141,201.352Z" style="fill-rule:nonzero;"/>
        <path d="M144.59,200.711L141.383,200.711L141.383,199.688L144.59,199.688L144.59,200.711ZM145.047,203L141.383,203C141.242,203 141.089,202.975 140.922,202.926C140.755,202.877 140.601,202.795 140.459,202.682C140.317,202.569 140.199,202.421 140.104,202.24C140.009,202.059 139.961,201.837 139.961,201.574L139.961,197.91C139.961,197.84 139.974,197.774 140,197.711C140.026,197.648 140.062,197.594 140.107,197.547C140.153,197.5 140.207,197.464 140.27,197.438C140.332,197.411 140.4,197.398 140.473,197.398L145.047,197.398L145.047,198.414L140.977,198.414L140.977,201.574C140.977,201.707 141.012,201.808 141.082,201.879C141.153,201.949 141.256,201.984 141.391,201.984L145.047,201.984L145.047,203Z" style="fill-rule:nonzero;"/>
        <path d="M151.625,199.281C151.625,199.513 151.596,199.72 151.539,199.902C151.482,200.085 151.404,200.246 151.307,200.385C151.209,200.524 151.096,200.643 150.969,200.742C150.841,200.841 150.707,200.923 150.568,200.986C150.429,201.05 150.288,201.096 150.146,201.125C150.005,201.154 149.871,201.168 149.746,201.168L151.867,203L150.297,203L148.18,201.168L147.449,201.168L147.449,200.152L149.746,200.152C149.874,200.142 149.991,200.115 150.096,200.072C150.201,200.029 150.292,199.971 150.369,199.898C150.446,199.825 150.505,199.738 150.547,199.635C150.588,199.532 150.609,199.414 150.609,199.281L150.609,198.641C150.609,198.584 150.602,198.54 150.588,198.51C150.573,198.48 150.555,198.458 150.533,198.443C150.511,198.429 150.488,198.421 150.463,198.418C150.438,198.415 150.416,198.414 150.395,198.414L147.043,198.414L147.043,203L146.027,203L146.027,197.91C146.027,197.84 146.04,197.774 146.066,197.711C146.092,197.648 146.128,197.594 146.174,197.547C146.219,197.5 146.273,197.464 146.336,197.438C146.399,197.411 146.466,197.398 146.539,197.398L150.395,197.398C150.621,197.398 150.812,197.439 150.969,197.521C151.125,197.604 151.252,197.707 151.35,197.83C151.447,197.954 151.518,198.087 151.561,198.23C151.604,198.373 151.625,198.508 151.625,198.633L151.625,199.281Z" style="fill-rule:nonzero;"/>
        <rect x="152.652" y="197.398" width="1.016" height="5.602" style="fill-rule:nonzero;"/>
        <path d="M160.352,203L159.336,203L159.336,201.625L155.766,201.625L155.766,203L154.75,203L154.75,200.199C154.75,199.79 154.82,199.414 154.961,199.07C155.102,198.727 155.297,198.431 155.547,198.184C155.797,197.936 156.093,197.743 156.434,197.605C156.775,197.467 157.147,197.398 157.551,197.398L159.84,197.398C159.91,197.398 159.976,197.411 160.039,197.438C160.102,197.464 160.156,197.5 160.203,197.547C160.25,197.594 160.286,197.648 160.312,197.711C160.339,197.774 160.352,197.84 160.352,197.91L160.352,203ZM155.766,200.609L159.336,200.609L159.336,198.414L157.551,198.414C157.52,198.414 157.454,198.419 157.354,198.428C157.253,198.437 157.137,198.459 157.006,198.496C156.875,198.533 156.736,198.589 156.59,198.664C156.444,198.739 156.31,198.844 156.188,198.977C156.065,199.11 155.964,199.276 155.885,199.475C155.806,199.674 155.766,199.915 155.766,200.199L155.766,200.609Z" style="fill-rule:nonzero;"/>
        <path d="M166.676,203L162.043,203C161.97,203 161.903,202.987 161.84,202.961C161.777,202.935 161.723,202.899 161.678,202.854C161.632,202.808 161.596,202.754 161.57,202.691C161.544,202.629 161.531,202.561 161.531,202.488L161.531,197.398L162.547,197.398L162.547,201.984L166.676,201.984L166.676,203Z" style="fill-rule:nonzero;"/>
        <path d="M146.04,46.656C146.04,46.885 146.011,47.102 145.952,47.307C145.893,47.511 145.811,47.7 145.704,47.875C145.597,48.05 145.471,48.206 145.325,48.344C145.179,48.482 145.02,48.6 144.847,48.697C144.674,48.795 144.489,48.87 144.294,48.922C144.099,48.974 143.899,49 143.696,49L141.864,49C141.659,49 141.458,48.974 141.263,48.922C141.068,48.87 140.883,48.795 140.71,48.697C140.537,48.6 140.377,48.482 140.231,48.344C140.086,48.206 139.96,48.05 139.854,47.875C139.749,47.7 139.667,47.511 139.608,47.307C139.549,47.102 139.52,46.885 139.52,46.656L139.52,45.742C139.52,45.399 139.585,45.084 139.714,44.797C139.843,44.51 140.015,44.264 140.231,44.057C140.448,43.85 140.697,43.688 140.979,43.572C141.262,43.456 141.557,43.398 141.864,43.398L143.696,43.398C143.899,43.398 144.099,43.424 144.294,43.477C144.489,43.529 144.674,43.604 144.847,43.701C145.02,43.799 145.179,43.917 145.325,44.055C145.471,44.193 145.597,44.349 145.704,44.523C145.811,44.698 145.893,44.887 145.952,45.092C146.011,45.296 146.04,45.513 146.04,45.742L146.04,46.656ZM145.017,45.742C145.017,45.541 144.98,45.359 144.907,45.195C144.834,45.031 144.737,44.89 144.616,44.773C144.495,44.656 144.355,44.567 144.196,44.504C144.037,44.441 143.871,44.411 143.696,44.414L141.864,44.414C141.695,44.411 141.53,44.441 141.37,44.502C141.21,44.563 141.068,44.652 140.944,44.768C140.821,44.883 140.722,45.024 140.647,45.189C140.573,45.355 140.536,45.539 140.536,45.742L140.536,46.656C140.536,46.859 140.572,47.043 140.645,47.207C140.718,47.371 140.816,47.511 140.938,47.627C141.061,47.743 141.202,47.832 141.362,47.895C141.522,47.957 141.689,47.987 141.864,47.984L143.696,47.984C143.897,47.984 144.078,47.951 144.241,47.885C144.404,47.818 144.542,47.726 144.657,47.609C144.772,47.492 144.86,47.352 144.923,47.189C144.986,47.026 145.017,46.849 145.017,46.656L145.017,45.742ZM144.575,45C144.614,45.057 144.64,45.119 144.653,45.186C144.666,45.252 144.666,45.317 144.653,45.381C144.64,45.445 144.615,45.505 144.577,45.561C144.539,45.617 144.49,45.664 144.431,45.703L141.688,47.535C141.644,47.569 141.599,47.592 141.552,47.605C141.505,47.618 141.456,47.625 141.407,47.625C141.324,47.625 141.244,47.605 141.169,47.566C141.094,47.527 141.032,47.471 140.985,47.398C140.946,47.341 140.92,47.279 140.907,47.213C140.894,47.146 140.894,47.081 140.905,47.018C140.917,46.954 140.941,46.894 140.977,46.838C141.014,46.782 141.062,46.734 141.122,46.695L143.872,44.863C143.929,44.824 143.991,44.798 144.058,44.785C144.124,44.772 144.189,44.772 144.253,44.785C144.317,44.798 144.377,44.823 144.433,44.859C144.489,44.896 144.536,44.943 144.575,45Z" style="fill-rule:nonzero;"/>
        <path d="M153.442,46.656C153.442,46.885 153.413,47.102 153.354,47.307C153.296,47.511 153.213,47.7 153.106,47.875C152.999,48.05 152.873,48.206 152.727,48.344C152.582,48.482 152.422,48.6 152.249,48.697C152.076,48.795 151.891,48.87 151.696,48.922C151.501,48.974 151.302,49 151.099,49L149.267,49C149.061,49 148.86,48.974 148.665,48.922C148.47,48.87 148.285,48.795 148.112,48.697C147.939,48.6 147.779,48.482 147.634,48.344C147.488,48.206 147.362,48.05 147.257,47.875C147.152,47.7 147.07,47.511 147.011,47.307C146.952,47.102 146.923,46.885 146.923,46.656L146.923,45.742C146.923,45.399 146.987,45.084 147.116,44.797C147.245,44.51 147.418,44.264 147.634,44.057C147.85,43.85 148.099,43.688 148.382,43.572C148.665,43.456 148.96,43.398 149.267,43.398L151.099,43.398C151.302,43.398 151.501,43.424 151.696,43.477C151.891,43.529 152.076,43.604 152.249,43.701C152.422,43.799 152.582,43.917 152.727,44.055C152.873,44.193 152.999,44.349 153.106,44.523C153.213,44.698 153.296,44.887 153.354,45.092C153.413,45.296 153.442,45.513 153.442,45.742L153.442,46.656ZM152.419,45.742C152.419,45.541 152.383,45.359 152.31,45.195C152.237,45.031 152.139,44.89 152.018,44.773C151.897,44.656 151.758,44.567 151.599,44.504C151.44,44.441 151.273,44.411 151.099,44.414L149.267,44.414C149.098,44.411 148.933,44.441 148.772,44.502C148.612,44.563 148.47,44.652 148.347,44.768C148.223,44.883 148.124,45.024 148.05,45.189C147.975,45.355 147.938,45.539 147.938,45.742L147.938,46.656C147.938,46.859 147.975,47.043 148.048,47.207C148.121,47.371 148.218,47.511 148.341,47.627C148.463,47.743 148.604,47.832 148.765,47.895C148.925,47.957 149.092,47.987 149.267,47.984L151.099,47.984C151.299,47.984 151.48,47.951 151.643,47.885C151.806,47.818 151.945,47.726 152.06,47.609C152.174,47.492 152.262,47.352 152.325,47.189C152.388,47.026 152.419,46.849 152.419,46.656L152.419,45.742ZM151.977,45C152.016,45.057 152.043,45.119 152.056,45.186C152.069,45.252 152.069,45.317 152.056,45.381C152.043,45.445 152.017,45.505 151.979,45.561C151.942,45.617 151.893,45.664 151.833,45.703L149.091,47.535C149.046,47.569 149.001,47.592 148.954,47.605C148.907,47.618 148.859,47.625 148.81,47.625C148.727,47.625 148.647,47.605 148.571,47.566C148.496,47.527 148.435,47.471 148.388,47.398C148.349,47.341 148.323,47.279 148.31,47.213C148.297,47.146 148.296,47.081 148.308,47.018C148.319,46.954 148.343,46.894 148.38,46.838C148.417,46.782 148.465,46.734 148.524,46.695L151.274,44.863C151.331,44.824 151.393,44.798 151.46,44.785C151.527,44.772 151.592,44.772 151.655,44.785C151.719,44.798 151.779,44.823 151.835,44.859C151.891,44.896 151.938,44.943 151.977,45Z" style="fill-rule:nonzero;"/>
        <path d="M160.845,46.656C160.845,46.885 160.816,47.102 160.757,47.307C160.698,47.511 160.616,47.7 160.509,47.875C160.402,48.05 160.276,48.206 160.13,48.344C159.984,48.482 159.824,48.6 159.651,48.697C159.478,48.795 159.294,48.87 159.099,48.922C158.904,48.974 158.704,49 158.501,49L156.669,49C156.463,49 156.262,48.974 156.067,48.922C155.872,48.87 155.688,48.795 155.515,48.697C155.342,48.6 155.182,48.482 155.036,48.344C154.89,48.206 154.764,48.05 154.659,47.875C154.554,47.7 154.472,47.511 154.413,47.307C154.354,47.102 154.325,46.885 154.325,46.656L154.325,45.742C154.325,45.399 154.389,45.084 154.518,44.797C154.647,44.51 154.82,44.264 155.036,44.057C155.252,43.85 155.501,43.688 155.784,43.572C156.067,43.456 156.362,43.398 156.669,43.398L158.501,43.398C158.704,43.398 158.904,43.424 159.099,43.477C159.294,43.529 159.478,43.604 159.651,43.701C159.824,43.799 159.984,43.917 160.13,44.055C160.276,44.193 160.402,44.349 160.509,44.523C160.616,44.698 160.698,44.887 160.757,45.092C160.816,45.296 160.845,45.513 160.845,45.742L160.845,46.656ZM159.821,45.742C159.821,45.541 159.785,45.359 159.712,45.195C159.639,45.031 159.542,44.89 159.421,44.773C159.3,44.656 159.16,44.567 159.001,44.504C158.842,44.441 158.676,44.411 158.501,44.414L156.669,44.414C156.5,44.411 156.335,44.441 156.175,44.502C156.015,44.563 155.873,44.652 155.749,44.768C155.625,44.883 155.526,45.024 155.452,45.189C155.378,45.355 155.341,45.539 155.341,45.742L155.341,46.656C155.341,46.859 155.377,47.043 155.45,47.207C155.523,47.371 155.621,47.511 155.743,47.627C155.866,47.743 156.007,47.832 156.167,47.895C156.327,47.957 156.494,47.987 156.669,47.984L158.501,47.984C158.702,47.984 158.883,47.951 159.046,47.885C159.209,47.818 159.347,47.726 159.462,47.609C159.577,47.492 159.665,47.352 159.727,47.189C159.79,47.026 159.821,46.849 159.821,46.656L159.821,45.742ZM159.38,45C159.419,45.057 159.445,45.119 159.458,45.186C159.471,45.252 159.471,45.317 159.458,45.381C159.445,45.445 159.419,45.505 159.382,45.561C159.344,45.617 159.295,45.664 159.235,45.703L156.493,47.535C156.449,47.569 156.403,47.592 156.356,47.605C156.309,47.618 156.261,47.625 156.212,47.625C156.129,47.625 156.049,47.605 155.974,47.566C155.898,47.527 155.837,47.471 155.79,47.398C155.751,47.341 155.725,47.279 155.712,47.213C155.699,47.146 155.698,47.081 155.71,47.018C155.721,46.954 155.745,46.894 155.782,46.838C155.819,46.782 155.867,46.734 155.927,46.695L158.677,44.863C158.734,44.824 158.796,44.798 158.862,44.785C158.929,44.772 158.994,44.772 159.058,44.785C159.121,44.798 159.181,44.823 159.237,44.859C159.293,44.896 159.341,44.943 159.38,45Z" style="fill-rule:nonzero;"/>
        <path d="M236.022,76.656C236.022,76.885 235.993,77.102 235.935,77.307C235.876,77.511 235.793,77.7 235.686,77.875C235.579,78.05 235.453,78.206 235.308,78.344C235.162,78.482 235.002,78.6 234.829,78.697C234.656,78.795 234.471,78.87 234.276,78.922C234.081,78.974 233.882,79 233.679,79L231.847,79C231.641,79 231.44,78.974 231.245,78.922C231.05,78.87 230.865,78.795 230.692,78.697C230.519,78.6 230.36,78.482 230.214,78.344C230.068,78.206 229.942,78.05 229.837,77.875C229.732,77.7 229.65,77.511 229.591,77.307C229.532,77.102 229.503,76.885 229.503,76.656L229.503,75.742C229.503,75.399 229.567,75.084 229.696,74.797C229.825,74.51 229.998,74.264 230.214,74.057C230.43,73.85 230.679,73.688 230.962,73.572C231.245,73.456 231.54,73.398 231.847,73.398L233.679,73.398C233.882,73.398 234.081,73.424 234.276,73.477C234.471,73.529 234.656,73.604 234.829,73.701C235.002,73.799 235.162,73.917 235.308,74.055C235.453,74.193 235.579,74.349 235.686,74.523C235.793,74.698 235.876,74.887 235.935,75.092C235.993,75.296 236.022,75.513 236.022,75.742L236.022,76.656ZM234.999,75.742C234.999,75.541 234.963,75.359 234.89,75.195C234.817,75.031 234.72,74.89 234.599,74.773C234.478,74.656 234.338,74.567 234.179,74.504C234.02,74.441 233.853,74.411 233.679,74.414L231.847,74.414C231.678,74.411 231.513,74.441 231.352,74.502C231.192,74.563 231.05,74.652 230.927,74.768C230.803,74.883 230.704,75.024 230.63,75.189C230.555,75.355 230.518,75.539 230.518,75.742L230.518,76.656C230.518,76.859 230.555,77.043 230.628,77.207C230.701,77.371 230.798,77.511 230.921,77.627C231.043,77.743 231.184,77.832 231.345,77.895C231.505,77.957 231.672,77.987 231.847,77.984L233.679,77.984C233.879,77.984 234.061,77.951 234.224,77.885C234.387,77.818 234.525,77.726 234.64,77.609C234.754,77.492 234.842,77.352 234.905,77.189C234.968,77.026 234.999,76.849 234.999,76.656L234.999,75.742ZM234.558,75C234.597,75.057 234.623,75.119 234.636,75.186C234.649,75.252 234.649,75.317 234.636,75.381C234.623,75.445 234.597,75.505 234.56,75.561C234.522,75.617 234.473,75.664 234.413,75.703L231.671,77.535C231.626,77.569 231.581,77.592 231.534,77.605C231.487,77.618 231.439,77.625 231.39,77.625C231.307,77.625 231.227,77.605 231.151,77.566C231.076,77.527 231.015,77.471 230.968,77.398C230.929,77.341 230.903,77.279 230.89,77.213C230.877,77.146 230.876,77.081 230.888,77.018C230.899,76.954 230.923,76.894 230.96,76.838C230.997,76.782 231.045,76.734 231.104,76.695L233.854,74.863C233.911,74.824 233.973,74.798 234.04,74.785C234.107,74.772 234.172,74.772 234.235,74.785C234.299,74.798 234.359,74.823 234.415,74.859C234.471,74.896 234.519,74.943 234.558,75Z" style="fill-rule:nonzero;"/>
        <path d="M243.425,76.656C243.425,76.885 243.396,77.102 243.337,77.307C243.278,77.511 243.196,77.7 243.089,77.875C242.982,78.05 242.856,78.206 242.71,78.344C242.564,78.482 242.404,78.6 242.231,78.697C242.058,78.795 241.874,78.87 241.679,78.922C241.484,78.974 241.284,79 241.081,79L239.249,79C239.043,79 238.842,78.974 238.647,78.922C238.452,78.87 238.268,78.795 238.095,78.697C237.922,78.6 237.762,78.482 237.616,78.344C237.47,78.206 237.344,78.05 237.239,77.875C237.134,77.7 237.052,77.511 236.993,77.307C236.934,77.102 236.905,76.885 236.905,76.656L236.905,75.742C236.905,75.399 236.97,75.084 237.099,74.797C237.228,74.51 237.4,74.264 237.616,74.057C237.832,73.85 238.081,73.688 238.364,73.572C238.647,73.456 238.942,73.398 239.249,73.398L241.081,73.398C241.284,73.398 241.484,73.424 241.679,73.477C241.874,73.529 242.058,73.604 242.231,73.701C242.404,73.799 242.564,73.917 242.71,74.055C242.856,74.193 242.982,74.349 243.089,74.523C243.196,74.698 243.278,74.887 243.337,75.092C243.396,75.296 243.425,75.513 243.425,75.742L243.425,76.656ZM242.401,75.742C242.401,75.541 242.365,75.359 242.292,75.195C242.219,75.031 242.122,74.89 242.001,74.773C241.88,74.656 241.74,74.567 241.581,74.504C241.422,74.441 241.256,74.411 241.081,74.414L239.249,74.414C239.08,74.411 238.915,74.441 238.755,74.502C238.595,74.563 238.453,74.652 238.329,74.768C238.205,74.883 238.106,75.024 238.032,75.189C237.958,75.355 237.921,75.539 237.921,75.742L237.921,76.656C237.921,76.859 237.957,77.043 238.03,77.207C238.103,77.371 238.201,77.511 238.323,77.627C238.446,77.743 238.587,77.832 238.747,77.895C238.907,77.957 239.074,77.987 239.249,77.984L241.081,77.984C241.282,77.984 241.463,77.951 241.626,77.885C241.789,77.818 241.927,77.726 242.042,77.609C242.157,77.492 242.245,77.352 242.308,77.189C242.37,77.026 242.401,76.849 242.401,76.656L242.401,75.742ZM241.96,75C241.999,75.057 242.025,75.119 242.038,75.186C242.051,75.252 242.051,75.317 242.038,75.381C242.025,75.445 241.999,75.505 241.962,75.561C241.924,75.617 241.875,75.664 241.815,75.703L239.073,77.535C239.029,77.569 238.983,77.592 238.936,77.605C238.889,77.618 238.841,77.625 238.792,77.625C238.709,77.625 238.629,77.605 238.554,77.566C238.478,77.527 238.417,77.471 238.37,77.398C238.331,77.341 238.305,77.279 238.292,77.213C238.279,77.146 238.278,77.081 238.29,77.018C238.302,76.954 238.326,76.894 238.362,76.838C238.399,76.782 238.447,76.734 238.507,76.695L241.257,74.863C241.314,74.824 241.376,74.798 241.442,74.785C241.509,74.772 241.574,74.772 241.638,74.785C241.701,74.798 241.761,74.823 241.817,74.859C241.873,74.896 241.921,74.943 241.96,75Z" style="fill-rule:nonzero;"/>
        <path d="M248.679,79L247.659,79L247.659,74.414L246.741,74.414L246.741,73.398L248.679,73.398L248.679,79Z" style="fill-rule:nonzero;"/>
        <path d="M265.722,153.656C265.722,153.885 265.693,154.102 265.634,154.307C265.575,154.511 265.493,154.7 265.386,154.875C265.279,155.05 265.153,155.206 265.007,155.344C264.861,155.482 264.701,155.6 264.528,155.697C264.355,155.795 264.171,155.87 263.976,155.922C263.781,155.974 263.581,156 263.378,156L261.546,156C261.34,156 261.139,155.974 260.944,155.922C260.749,155.87 260.565,155.795 260.392,155.697C260.219,155.6 260.059,155.482 259.913,155.344C259.767,155.206 259.641,155.05 259.536,154.875C259.431,154.7 259.349,154.511 259.29,154.307C259.231,154.102 259.202,153.885 259.202,153.656L259.202,152.742C259.202,152.399 259.266,152.084 259.395,151.797C259.524,151.51 259.697,151.264 259.913,151.057C260.129,150.85 260.378,150.688 260.661,150.572C260.944,150.456 261.239,150.398 261.546,150.398L263.378,150.398C263.581,150.398 263.781,150.424 263.976,150.477C264.171,150.529 264.355,150.604 264.528,150.701C264.701,150.799 264.861,150.917 265.007,151.055C265.153,151.193 265.279,151.349 265.386,151.523C265.493,151.698 265.575,151.887 265.634,152.092C265.693,152.296 265.722,152.513 265.722,152.742L265.722,153.656ZM264.698,152.742C264.698,152.541 264.662,152.359 264.589,152.195C264.516,152.031 264.419,151.89 264.298,151.773C264.177,151.656 264.037,151.567 263.878,151.504C263.719,151.441 263.553,151.411 263.378,151.414L261.546,151.414C261.377,151.411 261.212,151.441 261.052,151.502C260.891,151.563 260.749,151.652 260.626,151.768C260.502,151.883 260.403,152.024 260.329,152.189C260.255,152.355 260.218,152.539 260.218,152.742L260.218,153.656C260.218,153.859 260.254,154.043 260.327,154.207C260.4,154.371 260.497,154.511 260.62,154.627C260.743,154.743 260.884,154.832 261.044,154.895C261.204,154.957 261.371,154.987 261.546,154.984L263.378,154.984C263.579,154.984 263.76,154.951 263.923,154.885C264.086,154.818 264.224,154.726 264.339,154.609C264.454,154.492 264.542,154.352 264.604,154.189C264.667,154.026 264.698,153.849 264.698,153.656L264.698,152.742ZM264.257,152C264.296,152.057 264.322,152.119 264.335,152.186C264.348,152.252 264.348,152.317 264.335,152.381C264.322,152.445 264.296,152.505 264.259,152.561C264.221,152.617 264.172,152.664 264.112,152.703L261.37,154.535C261.326,154.569 261.28,154.592 261.233,154.605C261.186,154.618 261.138,154.625 261.089,154.625C261.006,154.625 260.926,154.605 260.851,154.566C260.775,154.527 260.714,154.471 260.667,154.398C260.628,154.341 260.602,154.279 260.589,154.213C260.576,154.146 260.575,154.081 260.587,154.018C260.598,153.954 260.622,153.894 260.659,153.838C260.696,153.782 260.744,153.734 260.804,153.695L263.554,151.863C263.611,151.824 263.673,151.798 263.739,151.785C263.806,151.772 263.871,151.772 263.935,151.785C263.998,151.798 264.058,151.823 264.114,151.859C264.17,151.896 264.218,151.943 264.257,152Z" style="fill-rule:nonzero;"/>
        <path d="M270.976,156L269.956,156L269.956,151.414L269.038,151.414L269.038,150.398L270.976,150.398L270.976,156Z" style="fill-rule:nonzero;"/>
        <path d="M281.163,153.656C281.163,153.885 281.134,154.102 281.075,154.307C281.016,154.511 280.934,154.7 280.827,154.875C280.72,155.05 280.594,155.206 280.448,155.344C280.302,155.482 280.143,155.6 279.97,155.697C279.797,155.795 279.612,155.87 279.417,155.922C279.222,155.974 279.022,156 278.819,156L276.987,156C276.782,156 276.581,155.974 276.386,155.922C276.191,155.87 276.006,155.795 275.833,155.697C275.66,155.6 275.5,155.482 275.354,155.344C275.209,155.206 275.083,155.05 274.977,154.875C274.872,154.7 274.79,154.511 274.731,154.307C274.672,154.102 274.643,153.885 274.643,153.656L274.643,152.742C274.643,152.399 274.708,152.084 274.837,151.797C274.966,151.51 275.138,151.264 275.354,151.057C275.571,150.85 275.82,150.688 276.102,150.572C276.385,150.456 276.68,150.398 276.987,150.398L278.819,150.398C279.022,150.398 279.222,150.424 279.417,150.477C279.612,150.529 279.797,150.604 279.97,150.701C280.143,150.799 280.302,150.917 280.448,151.055C280.594,151.193 280.72,151.349 280.827,151.523C280.934,151.698 281.016,151.887 281.075,152.092C281.134,152.296 281.163,152.513 281.163,152.742L281.163,153.656ZM280.14,152.742C280.14,152.541 280.103,152.359 280.03,152.195C279.957,152.031 279.86,151.89 279.739,151.773C279.618,151.656 279.478,151.567 279.319,151.504C279.16,151.441 278.994,151.411 278.819,151.414L276.987,151.414C276.818,151.411 276.653,151.441 276.493,151.502C276.333,151.563 276.191,151.652 276.067,151.768C275.944,151.883 275.845,152.024 275.77,152.189C275.696,152.355 275.659,152.539 275.659,152.742L275.659,153.656C275.659,153.859 275.695,154.043 275.768,154.207C275.841,154.371 275.939,154.511 276.061,154.627C276.184,154.743 276.325,154.832 276.485,154.895C276.646,154.957 276.813,154.987 276.987,154.984L278.819,154.984C279.02,154.984 279.201,154.951 279.364,154.885C279.527,154.818 279.665,154.726 279.78,154.609C279.895,154.492 279.983,154.352 280.046,154.189C280.109,154.026 280.14,153.849 280.14,153.656L280.14,152.742ZM279.698,152C279.737,152.057 279.763,152.119 279.776,152.186C279.789,152.252 279.789,152.317 279.776,152.381C279.763,152.445 279.738,152.505 279.7,152.561C279.662,152.617 279.613,152.664 279.554,152.703L276.811,154.535C276.767,154.569 276.722,154.592 276.675,154.605C276.628,154.618 276.579,154.625 276.53,154.625C276.447,154.625 276.367,154.605 276.292,154.566C276.217,154.527 276.155,154.471 276.108,154.398C276.069,154.341 276.043,154.279 276.03,154.213C276.017,154.146 276.017,154.081 276.028,154.018C276.04,153.954 276.064,153.894 276.101,153.838C276.137,153.782 276.185,153.734 276.245,153.695L278.995,151.863C279.052,151.824 279.114,151.798 279.181,151.785C279.247,151.772 279.312,151.772 279.376,151.785C279.44,151.798 279.5,151.823 279.556,151.859C279.612,151.896 279.659,151.943 279.698,152Z" style="fill-rule:nonzero;"/>
        <path d="M238.005,261.656C238.005,261.885 237.976,262.102 237.917,262.307C237.858,262.511 237.776,262.7 237.669,262.875C237.562,263.05 237.436,263.206 237.29,263.344C237.144,263.482 236.984,263.6 236.811,263.697C236.638,263.795 236.454,263.87 236.259,263.922C236.064,263.974 235.864,264 235.661,264L233.829,264C233.623,264 233.422,263.974 233.227,263.922C233.032,263.87 232.848,263.795 232.675,263.697C232.502,263.6 232.342,263.482 232.196,263.344C232.05,263.206 231.924,263.05 231.819,262.875C231.714,262.7 231.632,262.511 231.573,262.307C231.514,262.102 231.485,261.885 231.485,261.656L231.485,260.742C231.485,260.399 231.55,260.084 231.679,259.797C231.808,259.51 231.98,259.264 232.196,259.057C232.412,258.85 232.661,258.688 232.944,258.572C233.227,258.456 233.522,258.398 233.829,258.398L235.661,258.398C235.864,258.398 236.064,258.424 236.259,258.477C236.454,258.529 236.638,258.604 236.811,258.701C236.984,258.799 237.144,258.917 237.29,259.055C237.436,259.193 237.562,259.349 237.669,259.523C237.776,259.698 237.858,259.887 237.917,260.092C237.976,260.296 238.005,260.513 238.005,260.742L238.005,261.656ZM236.981,260.742C236.981,260.541 236.945,260.359 236.872,260.195C236.799,260.031 236.702,259.89 236.581,259.773C236.46,259.656 236.32,259.567 236.161,259.504C236.002,259.441 235.836,259.411 235.661,259.414L233.829,259.414C233.66,259.411 233.495,259.441 233.335,259.502C233.175,259.563 233.033,259.652 232.909,259.768C232.786,259.883 232.687,260.024 232.612,260.189C232.538,260.355 232.501,260.539 232.501,260.742L232.501,261.656C232.501,261.859 232.537,262.043 232.61,262.207C232.683,262.371 232.781,262.511 232.903,262.627C233.026,262.743 233.167,262.832 233.327,262.895C233.487,262.957 233.654,262.987 233.829,262.984L235.661,262.984C235.862,262.984 236.043,262.951 236.206,262.885C236.369,262.818 236.507,262.726 236.622,262.609C236.737,262.492 236.825,262.352 236.888,262.189C236.95,262.026 236.981,261.849 236.981,261.656L236.981,260.742ZM236.54,260C236.579,260.057 236.605,260.119 236.618,260.186C236.631,260.252 236.631,260.317 236.618,260.381C236.605,260.445 236.58,260.505 236.542,260.561C236.504,260.617 236.455,260.664 236.395,260.703L233.653,262.535C233.609,262.569 233.564,262.592 233.517,262.605C233.47,262.618 233.421,262.625 233.372,262.625C233.289,262.625 233.209,262.605 233.134,262.566C233.058,262.527 232.997,262.471 232.95,262.398C232.911,262.341 232.885,262.279 232.872,262.213C232.859,262.146 232.858,262.081 232.87,262.018C232.882,261.954 232.906,261.894 232.942,261.838C232.979,261.782 233.027,261.734 233.087,261.695L235.837,259.863C235.894,259.824 235.956,259.798 236.022,259.785C236.089,259.772 236.154,259.772 236.218,259.785C236.281,259.798 236.341,259.823 236.397,259.859C236.453,259.896 236.501,259.943 236.54,260Z" style="fill-rule:nonzero;"/>
        <path d="M243.259,264L242.239,264L242.239,259.414L241.321,259.414L241.321,258.398L243.259,258.398L243.259,264Z" style="fill-rule:nonzero;"/>
        <path d="M248.696,264L247.677,264L247.677,259.414L246.759,259.414L246.759,258.398L248.696,258.398L248.696,264Z" style="fill-rule:nonzero;"/>
        <path d="M142.272,295L141.253,295L141.253,290.414L140.335,290.414L140.335,289.398L142.272,289.398L142.272,295Z" style="fill-rule:nonzero;"/>
        <path d="M152.46,292.656C152.46,292.885 152.431,293.102 152.372,293.307C152.313,293.511 152.231,293.7 152.124,293.875C152.017,294.05 151.891,294.206 151.745,294.344C151.599,294.482 151.44,294.6 151.267,294.697C151.094,294.795 150.909,294.87 150.714,294.922C150.519,294.974 150.319,295 150.116,295L148.284,295C148.079,295 147.878,294.974 147.683,294.922C147.488,294.87 147.303,294.795 147.13,294.697C146.957,294.6 146.797,294.482 146.651,294.344C146.506,294.206 146.38,294.05 146.274,293.875C146.169,293.7 146.087,293.511 146.028,293.307C145.969,293.102 145.94,292.885 145.94,292.656L145.94,291.742C145.94,291.399 146.005,291.084 146.134,290.797C146.263,290.51 146.435,290.264 146.651,290.057C146.868,289.85 147.117,289.688 147.399,289.572C147.682,289.456 147.977,289.398 148.284,289.398L150.116,289.398C150.319,289.398 150.519,289.424 150.714,289.477C150.909,289.529 151.094,289.604 151.267,289.701C151.44,289.799 151.599,289.917 151.745,290.055C151.891,290.193 152.017,290.349 152.124,290.523C152.231,290.698 152.313,290.887 152.372,291.092C152.431,291.296 152.46,291.513 152.46,291.742L152.46,292.656ZM151.436,291.742C151.436,291.541 151.4,291.359 151.327,291.195C151.254,291.031 151.157,290.89 151.036,290.773C150.915,290.656 150.775,290.567 150.616,290.504C150.457,290.441 150.291,290.411 150.116,290.414L148.284,290.414C148.115,290.411 147.95,290.441 147.79,290.502C147.63,290.563 147.488,290.652 147.364,290.768C147.241,290.883 147.142,291.024 147.067,291.189C146.993,291.355 146.956,291.539 146.956,291.742L146.956,292.656C146.956,292.859 146.992,293.043 147.065,293.207C147.138,293.371 147.236,293.511 147.358,293.627C147.481,293.743 147.622,293.832 147.782,293.895C147.942,293.957 148.109,293.987 148.284,293.984L150.116,293.984C150.317,293.984 150.498,293.951 150.661,293.885C150.824,293.818 150.962,293.726 151.077,293.609C151.192,293.492 151.28,293.352 151.343,293.189C151.405,293.026 151.436,292.849 151.436,292.656L151.436,291.742ZM150.995,291C151.034,291.057 151.06,291.119 151.073,291.186C151.086,291.252 151.086,291.317 151.073,291.381C151.06,291.445 151.035,291.505 150.997,291.561C150.959,291.617 150.91,291.664 150.851,291.703L148.108,293.535C148.064,293.569 148.019,293.592 147.972,293.605C147.925,293.618 147.876,293.625 147.827,293.625C147.744,293.625 147.664,293.605 147.589,293.566C147.514,293.527 147.452,293.471 147.405,293.398C147.366,293.341 147.34,293.279 147.327,293.213C147.314,293.146 147.314,293.081 147.325,293.018C147.337,292.954 147.361,292.894 147.397,292.838C147.434,292.782 147.482,292.734 147.542,292.695L150.292,290.863C150.349,290.824 150.411,290.798 150.477,290.785C150.544,290.772 150.609,290.772 150.673,290.785C150.736,290.798 150.796,290.823 150.852,290.859C150.908,290.896 150.956,290.943 150.995,291Z" style="fill-rule:nonzero;"/>
        <path d="M159.862,292.656C159.862,292.885 159.833,293.102 159.774,293.307C159.715,293.511 159.633,293.7 159.526,293.875C159.419,294.05 159.293,294.206 159.147,294.344C159.002,294.482 158.842,294.6 158.669,294.697C158.496,294.795 158.311,294.87 158.116,294.922C157.921,294.974 157.721,295 157.518,295L155.686,295C155.481,295 155.28,294.974 155.085,294.922C154.89,294.87 154.705,294.795 154.532,294.697C154.359,294.6 154.199,294.482 154.054,294.344C153.908,294.206 153.782,294.05 153.677,293.875C153.571,293.7 153.489,293.511 153.431,293.307C153.372,293.102 153.343,292.885 153.343,292.656L153.343,291.742C153.343,291.399 153.407,291.084 153.536,290.797C153.665,290.51 153.837,290.264 154.054,290.057C154.27,289.85 154.519,289.688 154.802,289.572C155.085,289.456 155.379,289.398 155.686,289.398L157.518,289.398C157.721,289.398 157.921,289.424 158.116,289.477C158.311,289.529 158.496,289.604 158.669,289.701C158.842,289.799 159.002,289.917 159.147,290.055C159.293,290.193 159.419,290.349 159.526,290.523C159.633,290.698 159.715,290.887 159.774,291.092C159.833,291.296 159.862,291.513 159.862,291.742L159.862,292.656ZM158.839,291.742C158.839,291.541 158.802,291.359 158.729,291.195C158.656,291.031 158.559,290.89 158.438,290.773C158.317,290.656 158.177,290.567 158.018,290.504C157.859,290.441 157.693,290.411 157.518,290.414L155.686,290.414C155.517,290.411 155.353,290.441 155.192,290.502C155.032,290.563 154.89,290.652 154.767,290.768C154.643,290.883 154.544,291.024 154.47,291.189C154.395,291.355 154.358,291.539 154.358,291.742L154.358,292.656C154.358,292.859 154.395,293.043 154.468,293.207C154.541,293.371 154.638,293.511 154.761,293.627C154.883,293.743 155.024,293.832 155.185,293.895C155.345,293.957 155.512,293.987 155.686,293.984L157.518,293.984C157.719,293.984 157.9,293.951 158.063,293.885C158.226,293.818 158.365,293.726 158.479,293.609C158.594,293.492 158.682,293.352 158.745,293.189C158.808,293.026 158.839,292.849 158.839,292.656L158.839,291.742ZM158.397,291C158.436,291.057 158.463,291.119 158.476,291.186C158.489,291.252 158.489,291.317 158.476,291.381C158.463,291.445 158.437,291.505 158.399,291.561C158.362,291.617 158.313,291.664 158.253,291.703L155.511,293.535C155.466,293.569 155.421,293.592 155.374,293.605C155.327,293.618 155.279,293.625 155.229,293.625C155.146,293.625 155.066,293.605 154.991,293.566C154.916,293.527 154.855,293.471 154.808,293.398C154.769,293.341 154.742,293.279 154.729,293.213C154.716,293.146 154.716,293.081 154.727,293.018C154.739,292.954 154.763,292.894 154.8,292.838C154.836,292.782 154.884,292.734 154.944,292.695L157.694,290.863C157.751,290.824 157.813,290.798 157.88,290.785C157.946,290.772 158.011,290.772 158.075,290.785C158.139,290.798 158.199,290.823 158.255,290.859C158.311,290.896 158.358,290.943 158.397,291Z" style="fill-rule:nonzero;"/>
        <path d="M53.898,264L52.878,264L52.878,259.414L51.96,259.414L51.96,258.398L53.898,258.398L53.898,264Z" style="fill-rule:nonzero;"/>
        <path d="M64.085,261.656C64.085,261.885 64.056,262.102 63.997,262.307C63.938,262.511 63.856,262.7 63.749,262.875C63.642,263.05 63.516,263.206 63.37,263.344C63.224,263.482 63.065,263.6 62.892,263.697C62.719,263.795 62.534,263.87 62.339,263.922C62.144,263.974 61.944,264 61.741,264L59.909,264C59.704,264 59.503,263.974 59.308,263.922C59.113,263.87 58.928,263.795 58.755,263.697C58.582,263.6 58.422,263.482 58.276,263.344C58.131,263.206 58.005,263.05 57.899,262.875C57.794,262.7 57.712,262.511 57.653,262.307C57.594,262.102 57.565,261.885 57.565,261.656L57.565,260.742C57.565,260.399 57.63,260.084 57.759,259.797C57.888,259.51 58.06,259.264 58.276,259.057C58.493,258.85 58.742,258.688 59.024,258.572C59.307,258.456 59.602,258.398 59.909,258.398L61.741,258.398C61.944,258.398 62.144,258.424 62.339,258.477C62.534,258.529 62.719,258.604 62.892,258.701C63.065,258.799 63.224,258.917 63.37,259.055C63.516,259.193 63.642,259.349 63.749,259.523C63.856,259.698 63.938,259.887 63.997,260.092C64.056,260.296 64.085,260.513 64.085,260.742L64.085,261.656ZM63.062,260.742C63.062,260.541 63.025,260.359 62.952,260.195C62.879,260.031 62.782,259.89 62.661,259.773C62.54,259.656 62.4,259.567 62.241,259.504C62.082,259.441 61.916,259.411 61.741,259.414L59.909,259.414C59.74,259.411 59.575,259.441 59.415,259.502C59.255,259.563 59.113,259.652 58.989,259.768C58.866,259.883 58.767,260.024 58.692,260.189C58.618,260.355 58.581,260.539 58.581,260.742L58.581,261.656C58.581,261.859 58.617,262.043 58.69,262.207C58.763,262.371 58.861,262.511 58.983,262.627C59.106,262.743 59.247,262.832 59.407,262.895C59.568,262.957 59.735,262.987 59.909,262.984L61.741,262.984C61.942,262.984 62.123,262.951 62.286,262.885C62.449,262.818 62.587,262.726 62.702,262.609C62.817,262.492 62.905,262.352 62.968,262.189C63.031,262.026 63.062,261.849 63.062,261.656L63.062,260.742ZM62.62,260C62.659,260.057 62.685,260.119 62.698,260.186C62.711,260.252 62.711,260.317 62.698,260.381C62.685,260.445 62.66,260.505 62.622,260.561C62.584,260.617 62.535,260.664 62.476,260.703L59.733,262.535C59.689,262.569 59.644,262.592 59.597,262.605C59.55,262.618 59.501,262.625 59.452,262.625C59.369,262.625 59.289,262.605 59.214,262.566C59.139,262.527 59.077,262.471 59.03,262.398C58.991,262.341 58.965,262.279 58.952,262.213C58.939,262.146 58.939,262.081 58.95,262.018C58.962,261.954 58.986,261.894 59.023,261.838C59.059,261.782 59.107,261.734 59.167,261.695L61.917,259.863C61.974,259.824 62.036,259.798 62.103,259.785C62.169,259.772 62.234,259.772 62.298,259.785C62.362,259.798 62.422,259.823 62.478,259.859C62.534,259.896 62.581,259.943 62.62,260Z" style="fill-rule:nonzero;"/>
        <path d="M69.339,264L68.319,264L68.319,259.414L67.401,259.414L67.401,258.398L69.339,258.398L69.339,264Z" style="fill-rule:nonzero;"/>
        <path d="M21.398,153L20.378,153L20.378,148.414L19.46,148.414L19.46,147.398L21.398,147.398L21.398,153Z" style="fill-rule:nonzero;"/>
        <path d="M26.835,153L25.815,153L25.815,148.414L24.898,148.414L24.898,147.398L26.835,147.398L26.835,153Z" style="fill-rule:nonzero;"/>
        <path d="M37.023,150.656C37.023,150.885 36.994,151.102 36.935,151.307C36.876,151.511 36.794,151.7 36.687,151.875C36.58,152.05 36.453,152.206 36.308,152.344C36.162,152.482 36.002,152.6 35.829,152.697C35.656,152.795 35.471,152.87 35.276,152.922C35.081,152.974 34.882,153 34.679,153L32.847,153C32.641,153 32.44,152.974 32.245,152.922C32.05,152.87 31.865,152.795 31.692,152.697C31.519,152.6 31.36,152.482 31.214,152.344C31.068,152.206 30.942,152.05 30.837,151.875C30.732,151.7 30.65,151.511 30.591,151.307C30.532,151.102 30.503,150.885 30.503,150.656L30.503,149.742C30.503,149.399 30.567,149.084 30.696,148.797C30.825,148.51 30.998,148.264 31.214,148.057C31.43,147.85 31.679,147.688 31.962,147.572C32.245,147.456 32.54,147.398 32.847,147.398L34.679,147.398C34.882,147.398 35.081,147.424 35.276,147.477C35.471,147.529 35.656,147.604 35.829,147.701C36.002,147.799 36.162,147.917 36.308,148.055C36.453,148.193 36.58,148.349 36.687,148.523C36.794,148.698 36.876,148.887 36.935,149.092C36.994,149.296 37.023,149.513 37.023,149.742L37.023,150.656ZM35.999,149.742C35.999,149.541 35.963,149.359 35.89,149.195C35.817,149.031 35.72,148.89 35.599,148.773C35.478,148.656 35.338,148.567 35.179,148.504C35.02,148.441 34.853,148.411 34.679,148.414L32.847,148.414C32.678,148.411 32.513,148.441 32.353,148.502C32.192,148.563 32.05,148.652 31.927,148.768C31.803,148.883 31.704,149.024 31.63,149.189C31.556,149.355 31.519,149.539 31.519,149.742L31.519,150.656C31.519,150.859 31.555,151.043 31.628,151.207C31.701,151.371 31.798,151.511 31.921,151.627C32.044,151.743 32.185,151.832 32.345,151.895C32.505,151.957 32.672,151.987 32.847,151.984L34.679,151.984C34.88,151.984 35.061,151.951 35.224,151.885C35.387,151.818 35.525,151.726 35.64,151.609C35.755,151.492 35.843,151.352 35.905,151.189C35.968,151.026 35.999,150.849 35.999,150.656L35.999,149.742ZM35.558,149C35.597,149.057 35.623,149.119 35.636,149.186C35.649,149.252 35.649,149.317 35.636,149.381C35.623,149.445 35.597,149.505 35.56,149.561C35.522,149.617 35.473,149.664 35.413,149.703L32.671,151.535C32.627,151.569 32.581,151.592 32.534,151.605C32.487,151.618 32.439,151.625 32.39,151.625C32.307,151.625 32.227,151.605 32.151,151.566C32.076,151.527 32.015,151.471 31.968,151.398C31.929,151.341 31.903,151.279 31.89,151.213C31.877,151.146 31.876,151.081 31.888,151.018C31.899,150.954 31.923,150.894 31.96,150.838C31.997,150.782 32.045,150.734 32.105,150.695L34.855,148.863C34.912,148.824 34.973,148.798 35.04,148.785C35.107,148.772 35.172,148.772 35.235,148.785C35.299,148.798 35.359,148.823 35.415,148.859C35.471,148.896 35.519,148.943 35.558,149Z" style="fill-rule:nonzero;"/>
        <path d="M70.538,79L69.518,79L69.518,74.414L68.601,74.414L68.601,73.398L70.538,73.398L70.538,79Z" style="fill-rule:nonzero;"/>
        <path d="M75.976,79L74.956,79L74.956,74.414L74.038,74.414L74.038,73.398L75.976,73.398L75.976,79Z" style="fill-rule:nonzero;"/>
        <path d="M81.413,79L80.393,79L80.393,74.414L79.476,74.414L79.476,73.398L81.413,73.398L81.413,79Z" style="fill-rule:nonzero;"/>
        <path d="M95.38,30.792C95.38,31.009 95.355,31.237 95.306,31.478C95.256,31.718 95.177,31.957 95.068,32.194C94.96,32.431 94.821,32.658 94.651,32.875C94.481,33.092 94.277,33.284 94.04,33.451C93.803,33.618 93.529,33.751 93.218,33.851C92.907,33.95 92.559,34 92.172,34L87.004,34C86.688,34 86.342,33.944 85.967,33.833C85.592,33.722 85.245,33.539 84.926,33.284C84.607,33.029 84.34,32.698 84.126,32.291C83.912,31.884 83.805,31.384 83.805,30.792L83.805,29.772C83.805,29.549 83.83,29.315 83.88,29.069C83.93,28.823 84.009,28.58 84.117,28.34C84.226,28.099 84.365,27.871 84.535,27.654C84.705,27.437 84.91,27.25 85.15,27.092C85.045,26.846 84.966,26.597 84.913,26.345C84.86,26.093 84.833,25.856 84.833,25.633L84.833,24.604C84.833,24.019 84.94,23.521 85.154,23.11C85.368,22.7 85.635,22.369 85.954,22.117C86.273,21.865 86.621,21.682 86.996,21.568C87.371,21.453 87.716,21.396 88.033,21.396L91.126,21.396C91.519,21.396 91.872,21.446 92.186,21.546C92.499,21.645 92.775,21.779 93.012,21.946C93.249,22.113 93.451,22.304 93.618,22.521C93.785,22.738 93.922,22.966 94.027,23.203C94.132,23.44 94.21,23.68 94.26,23.923C94.309,24.166 94.334,24.393 94.334,24.604L94.334,25.633C94.334,26.207 94.232,26.705 94.027,27.127C94.214,27.25 94.39,27.395 94.554,27.562C94.718,27.729 94.862,27.921 94.985,28.138C95.108,28.355 95.204,28.599 95.275,28.872C95.345,29.144 95.38,29.444 95.38,29.772L95.38,30.792ZM92.049,24.622C92.049,24.311 91.97,24.077 91.812,23.919C91.654,23.761 91.425,23.682 91.126,23.682L88.05,23.682C87.739,23.682 87.509,23.761 87.36,23.919C87.211,24.077 87.136,24.305 87.136,24.604L87.136,25.633C87.136,25.938 87.214,26.166 87.369,26.318C87.524,26.471 87.746,26.547 88.033,26.547L91.126,26.547C91.437,26.547 91.668,26.469 91.821,26.314C91.973,26.159 92.049,25.932 92.049,25.633L92.049,24.622ZM93.069,29.772C93.069,29.479 92.988,29.252 92.827,29.091C92.666,28.93 92.447,28.85 92.172,28.85L87.004,28.85C86.723,28.85 86.501,28.938 86.336,29.113C86.172,29.289 86.09,29.509 86.09,29.772L86.09,30.792C86.09,31.073 86.177,31.297 86.35,31.464C86.523,31.631 86.741,31.715 87.004,31.715L92.172,31.715C92.465,31.715 92.688,31.627 92.84,31.451C92.993,31.276 93.069,31.056 93.069,30.792L93.069,29.772Z" style="fill-rule:nonzero;"/>
        <path d="M116.061,31.231C116.061,31.512 116.013,31.814 115.916,32.137C115.819,32.459 115.661,32.758 115.441,33.033C115.222,33.308 114.936,33.538 114.584,33.723C114.233,33.908 113.802,34 113.292,34L104.618,34C104.454,34 104.302,33.971 104.161,33.912C104.02,33.853 103.899,33.773 103.796,33.67C103.693,33.568 103.613,33.447 103.554,33.306C103.495,33.165 103.466,33.013 103.466,32.849L103.466,22.548C103.466,22.39 103.495,22.241 103.554,22.1C103.613,21.959 103.693,21.836 103.796,21.73C103.899,21.625 104.02,21.543 104.161,21.484C104.302,21.425 104.454,21.396 104.618,21.396L112.264,21.396C112.545,21.396 112.847,21.446 113.169,21.546C113.492,21.645 113.792,21.805 114.07,22.025C114.349,22.244 114.58,22.53 114.765,22.882C114.95,23.233 115.042,23.664 115.042,24.174L115.042,24.604C115.042,25.009 114.974,25.444 114.839,25.91C114.704,26.375 114.488,26.816 114.189,27.232C114.447,27.391 114.689,27.581 114.914,27.804C115.139,28.027 115.337,28.284 115.507,28.577C115.677,28.87 115.812,29.201 115.912,29.57C116.011,29.939 116.061,30.347 116.061,30.792L116.061,31.231ZM113.776,30.792C113.776,30.493 113.729,30.225 113.635,29.988C113.542,29.751 113.41,29.547 113.24,29.377C113.07,29.207 112.865,29.077 112.625,28.986C112.384,28.895 112.115,28.85 111.816,28.85L106.666,28.85L106.666,26.547L110.788,26.547C111.087,26.547 111.356,26.502 111.596,26.411C111.837,26.32 112.042,26.189 112.211,26.02C112.381,25.85 112.512,25.646 112.603,25.409C112.694,25.172 112.739,24.903 112.739,24.604L112.739,24.174C112.739,23.846 112.581,23.682 112.264,23.682L105.751,23.682L105.751,31.715L113.292,31.715C113.333,31.715 113.383,31.712 113.442,31.706C113.501,31.7 113.553,31.682 113.6,31.653C113.647,31.624 113.688,31.574 113.723,31.504C113.758,31.433 113.776,31.337 113.776,31.214L113.776,30.792Z" style="fill-rule:nonzero;"/>
        <rect x="118.065" y="21.396" width="2.285" height="12.604" style="fill-rule:nonzero;"/>
        <path d="M134.413,23.682L129.376,23.682L129.376,34L127.091,34L127.091,23.682L122.046,23.682L122.046,21.396L134.413,21.396L134.413,23.682Z" style="fill-rule:nonzero;"/>
        <path d="M153.037,34L144.792,34C144.581,34 144.354,33.975 144.111,33.925C143.868,33.876 143.628,33.798 143.391,33.692C143.154,33.587 142.926,33.451 142.709,33.284C142.492,33.117 142.301,32.914 142.134,32.677C141.967,32.44 141.833,32.164 141.734,31.851C141.634,31.538 141.584,31.185 141.584,30.792L141.584,24.604C141.584,24.393 141.609,24.166 141.659,23.923C141.709,23.68 141.787,23.44 141.892,23.203C141.997,22.966 142.135,22.738 142.305,22.521C142.475,22.304 142.679,22.113 142.916,21.946C143.153,21.779 143.427,21.645 143.738,21.546C144.049,21.446 144.4,21.396 144.792,21.396L153.037,21.396L153.037,23.682L144.792,23.682C144.493,23.682 144.265,23.761 144.107,23.919C143.949,24.077 143.87,24.311 143.87,24.622L143.87,30.792C143.87,31.085 143.95,31.312 144.111,31.473C144.272,31.634 144.499,31.715 144.792,31.715L153.037,31.715L153.037,34Z" style="fill-rule:nonzero;"/>
        <rect x="155.216" y="21.396" width="2.285" height="12.604" style="fill-rule:nonzero;"/>
        <path d="M172.733,26.67C172.733,27.191 172.669,27.657 172.54,28.067C172.411,28.478 172.236,28.84 172.017,29.153C171.797,29.466 171.543,29.734 171.256,29.957C170.969,30.18 170.669,30.361 170.355,30.502C170.042,30.643 169.725,30.745 169.406,30.81C169.087,30.874 168.786,30.906 168.505,30.906L163.337,30.906L163.337,28.621L168.505,28.621C168.798,28.598 169.064,28.538 169.301,28.441C169.538,28.344 169.742,28.214 169.912,28.05C170.082,27.886 170.214,27.688 170.307,27.457C170.401,27.225 170.448,26.963 170.448,26.67L170.448,25.633C170.419,25.346 170.357,25.082 170.263,24.842C170.17,24.601 170.042,24.396 169.881,24.227C169.72,24.057 169.525,23.924 169.296,23.827C169.068,23.73 168.804,23.682 168.505,23.682L163.355,23.682C163.05,23.682 162.819,23.761 162.661,23.919C162.502,24.077 162.423,24.305 162.423,24.604L162.423,34L160.138,34L160.138,24.604C160.138,24.019 160.245,23.521 160.459,23.11C160.673,22.7 160.94,22.369 161.259,22.117C161.578,21.865 161.925,21.682 162.3,21.568C162.675,21.453 163.021,21.396 163.337,21.396L168.505,21.396C169.021,21.396 169.484,21.462 169.894,21.594C170.304,21.726 170.666,21.902 170.979,22.122C171.293,22.341 171.56,22.595 171.779,22.882C171.999,23.169 172.181,23.469 172.324,23.783C172.468,24.096 172.572,24.413 172.636,24.732C172.701,25.051 172.733,25.352 172.733,25.633L172.733,26.67Z" style="fill-rule:nonzero;"/>
        <path d="M176.987,26.547L185.011,26.547L185.011,21.396L187.296,21.396L187.296,34L185.011,34L185.011,28.85L176.987,28.85L176.987,34L174.702,34L174.702,21.396L176.987,21.396L176.987,26.547Z" style="fill-rule:nonzero;"/>
        <path d="M200.331,28.85L193.115,28.85L193.115,26.547L200.331,26.547L200.331,28.85ZM201.359,34L193.115,34C192.798,34 192.453,33.944 192.078,33.833C191.703,33.722 191.355,33.539 191.036,33.284C190.717,33.029 190.45,32.698 190.236,32.291C190.023,31.884 189.916,31.384 189.916,30.792L189.916,22.548C189.916,22.39 189.945,22.241 190.003,22.1C190.062,21.959 190.142,21.836 190.245,21.73C190.348,21.625 190.469,21.543 190.61,21.484C190.751,21.425 190.903,21.396 191.067,21.396L201.359,21.396L201.359,23.682L192.201,23.682L192.201,30.792C192.201,31.091 192.28,31.319 192.438,31.478C192.596,31.636 192.827,31.715 193.132,31.715L201.359,31.715L201.359,34Z" style="fill-rule:nonzero;"/>
        <path d="M216.16,25.633C216.16,26.154 216.095,26.62 215.966,27.03C215.837,27.441 215.663,27.803 215.443,28.116C215.224,28.429 214.97,28.697 214.683,28.92C214.396,29.143 214.095,29.326 213.782,29.469C213.469,29.613 213.152,29.717 212.833,29.781C212.514,29.846 212.213,29.878 211.932,29.878L216.705,34L213.171,34L208.408,29.878L206.764,29.878L206.764,27.593L211.932,27.593C212.219,27.57 212.482,27.51 212.719,27.413C212.956,27.316 213.161,27.186 213.334,27.021C213.507,26.857 213.64,26.659 213.734,26.428C213.828,26.197 213.875,25.932 213.875,25.633L213.875,24.191C213.875,24.062 213.859,23.964 213.826,23.897C213.794,23.83 213.753,23.78 213.703,23.748C213.653,23.715 213.6,23.696 213.545,23.69C213.489,23.685 213.438,23.682 213.391,23.682L205.85,23.682L205.85,34L203.565,34L203.565,22.548C203.565,22.39 203.594,22.241 203.653,22.1C203.712,21.959 203.792,21.836 203.895,21.73C203.997,21.625 204.118,21.543 204.259,21.484C204.4,21.425 204.552,21.396 204.716,21.396L213.391,21.396C213.901,21.396 214.332,21.488 214.683,21.673C215.034,21.858 215.32,22.089 215.54,22.368C215.76,22.646 215.918,22.946 216.015,23.269C216.112,23.591 216.16,23.893 216.16,24.174L216.16,25.633Z" style="fill-rule:nonzero;"/>
        <path d="M263.536,310L259.871,310C259.778,310 259.677,309.989 259.569,309.967C259.461,309.945 259.354,309.91 259.248,309.863C259.143,309.816 259.042,309.756 258.946,309.682C258.849,309.607 258.764,309.517 258.69,309.412C258.616,309.307 258.557,309.184 258.512,309.045C258.468,308.906 258.446,308.749 258.446,308.574L258.446,305.824C258.446,305.731 258.457,305.63 258.479,305.521C258.501,305.413 258.535,305.306 258.582,305.201C258.629,305.096 258.691,304.995 258.766,304.898C258.841,304.802 258.932,304.717 259.038,304.643C259.143,304.568 259.265,304.509 259.403,304.465C259.541,304.42 259.697,304.398 259.871,304.398L263.536,304.398L263.536,305.414L259.871,305.414C259.738,305.414 259.637,305.449 259.567,305.52C259.496,305.59 259.461,305.694 259.461,305.832L259.461,308.574C259.461,308.705 259.497,308.806 259.569,308.877C259.64,308.948 259.741,308.984 259.871,308.984L263.536,308.984L263.536,310Z" style="fill-rule:nonzero;"/>
        <path d="M270.102,304.398L267.45,309.801C267.408,309.884 267.346,309.951 267.264,310.002C267.182,310.053 267.092,310.078 266.993,310.078C266.896,310.078 266.807,310.053 266.725,310.002C266.643,309.951 266.58,309.884 266.536,309.801L263.887,304.398L265.024,304.398L266.993,308.434L268.969,304.398L270.102,304.398Z" style="fill-rule:nonzero;"/>
        <path d="M278.149,310L277.125,310L277.125,307.711L273.516,307.711C273.443,307.711 273.376,307.697 273.313,307.67C273.25,307.643 273.196,307.606 273.151,307.561C273.105,307.515 273.069,307.461 273.043,307.398C273.017,307.336 273.004,307.27 273.004,307.199L273.004,304.398L274.02,304.398L274.02,306.688L277.125,306.688L277.125,304.398L278.149,304.398L278.149,310Z" style="fill-rule:nonzero;"/>
        <path d="M233.852,310L230.188,310C230.095,310 229.994,309.989 229.886,309.967C229.777,309.945 229.67,309.91 229.565,309.863C229.46,309.816 229.359,309.756 229.262,309.682C229.166,309.607 229.081,309.517 229.007,309.412C228.932,309.307 228.873,309.184 228.829,309.045C228.784,308.906 228.762,308.749 228.762,308.574L228.762,305.824C228.762,305.731 228.773,305.63 228.796,305.521C228.818,305.413 228.852,305.306 228.899,305.201C228.946,305.096 229.008,304.995 229.083,304.898C229.158,304.802 229.249,304.717 229.354,304.643C229.459,304.568 229.581,304.509 229.72,304.465C229.858,304.42 230.014,304.398 230.188,304.398L233.852,304.398L233.852,305.414L230.188,305.414C230.055,305.414 229.954,305.449 229.884,305.52C229.813,305.59 229.778,305.694 229.778,305.832L229.778,308.574C229.778,308.705 229.814,308.806 229.886,308.877C229.957,308.948 230.058,308.984 230.188,308.984L233.852,308.984L233.852,310Z" style="fill-rule:nonzero;"/>
        <path d="M240.419,304.398L237.766,309.801C237.725,309.884 237.663,309.951 237.581,310.002C237.499,310.053 237.408,310.078 237.309,310.078C237.213,310.078 237.124,310.053 237.042,310.002C236.96,309.951 236.897,309.884 236.852,309.801L234.204,304.398L235.341,304.398L237.309,308.434L239.286,304.398L240.419,304.398Z" style="fill-rule:nonzero;"/>
        <path d="M248.106,308.574C248.106,308.837 248.059,309.059 247.964,309.24C247.869,309.421 247.75,309.569 247.608,309.682C247.466,309.795 247.312,309.877 247.145,309.926C246.978,309.975 246.823,310 246.68,310L243.423,310L243.423,308.984L246.68,308.984C246.818,308.984 246.92,308.949 246.987,308.879C247.054,308.808 247.087,308.707 247.087,308.574L247.087,307.711L243.423,307.711L243.423,306.688L247.087,306.688L247.087,305.832C247.087,305.553 246.951,305.414 246.68,305.414L243.423,305.414L243.423,304.398L246.68,304.398C246.855,304.398 247.011,304.42 247.149,304.465C247.287,304.509 247.409,304.568 247.514,304.643C247.62,304.717 247.711,304.802 247.786,304.898C247.861,304.995 247.923,305.096 247.97,305.201C248.017,305.306 248.051,305.413 248.073,305.521C248.095,305.63 248.106,305.731 248.106,305.824L248.106,308.574Z" style="fill-rule:nonzero;"/>
        <path d="M204.183,310L200.518,310C200.425,310 200.324,309.989 200.216,309.967C200.108,309.945 200.001,309.91 199.895,309.863C199.79,309.816 199.689,309.756 199.593,309.682C199.496,309.607 199.411,309.517 199.337,309.412C199.262,309.307 199.203,309.184 199.159,309.045C199.115,308.906 199.093,308.749 199.093,308.574L199.093,305.824C199.093,305.731 199.104,305.63 199.126,305.521C199.148,305.413 199.182,305.306 199.229,305.201C199.276,305.096 199.338,304.995 199.413,304.898C199.488,304.802 199.579,304.717 199.684,304.643C199.79,304.568 199.912,304.509 200.05,304.465C200.188,304.42 200.344,304.398 200.518,304.398L204.183,304.398L204.183,305.414L200.518,305.414C200.385,305.414 200.284,305.449 200.214,305.52C200.143,305.59 200.108,305.694 200.108,305.832L200.108,308.574C200.108,308.705 200.144,308.806 200.216,308.877C200.287,308.948 200.388,308.984 200.518,308.984L204.183,308.984L204.183,310Z" style="fill-rule:nonzero;"/>
        <path d="M210.749,304.398L208.097,309.801C208.055,309.884 207.993,309.951 207.911,310.002C207.829,310.053 207.739,310.078 207.64,310.078C207.543,310.078 207.454,310.053 207.372,310.002C207.29,309.951 207.227,309.884 207.183,309.801L204.534,304.398L205.671,304.398L207.64,308.434L209.616,304.398L210.749,304.398Z" style="fill-rule:nonzero;"/>
        <path d="M218.788,310L213.643,310L213.643,308.121C213.643,308.025 213.654,307.923 213.677,307.814C213.699,307.706 213.733,307.599 213.78,307.492C213.827,307.385 213.887,307.284 213.962,307.188C214.036,307.091 214.126,307.006 214.231,306.932C214.337,306.857 214.459,306.798 214.597,306.754C214.735,306.71 214.891,306.688 215.065,306.688L217.354,306.688C217.492,306.688 217.594,306.653 217.661,306.584C217.728,306.515 217.761,306.414 217.761,306.281L217.761,305.832C217.761,305.694 217.727,305.59 217.659,305.52C217.592,305.449 217.493,305.414 217.362,305.414L214.1,305.414L214.1,304.398L217.362,304.398C217.534,304.398 217.689,304.42 217.827,304.465C217.965,304.509 218.087,304.568 218.192,304.643C218.297,304.717 218.388,304.802 218.464,304.898C218.539,304.995 218.601,305.096 218.649,305.201C218.698,305.306 218.733,305.413 218.755,305.521C218.777,305.63 218.788,305.731 218.788,305.824L218.788,306.281C218.788,306.544 218.74,306.766 218.645,306.947C218.55,307.128 218.431,307.276 218.288,307.389C218.145,307.502 217.99,307.584 217.825,307.635C217.66,307.686 217.505,307.711 217.362,307.711L215.065,307.711C214.982,307.711 214.915,307.723 214.866,307.746C214.817,307.769 214.778,307.801 214.751,307.84C214.724,307.879 214.703,307.923 214.69,307.973C214.677,308.022 214.667,308.072 214.659,308.121L214.659,308.984L218.788,308.984L218.788,310Z" style="fill-rule:nonzero;"/>
        <path d="M176.111,310L172.447,310C172.354,310 172.253,309.989 172.145,309.967C172.036,309.945 171.929,309.91 171.824,309.863C171.719,309.816 171.618,309.756 171.521,309.682C171.425,309.607 171.34,309.517 171.266,309.412C171.191,309.307 171.132,309.184 171.088,309.045C171.043,308.906 171.021,308.749 171.021,308.574L171.021,305.824C171.021,305.731 171.032,305.63 171.055,305.521C171.077,305.413 171.111,305.306 171.158,305.201C171.205,305.096 171.267,304.995 171.342,304.898C171.417,304.802 171.508,304.717 171.613,304.643C171.718,304.568 171.84,304.509 171.979,304.465C172.117,304.42 172.273,304.398 172.447,304.398L176.111,304.398L176.111,305.414L172.447,305.414C172.314,305.414 172.213,305.449 172.143,305.52C172.072,305.59 172.037,305.694 172.037,305.832L172.037,308.574C172.037,308.705 172.073,308.806 172.145,308.877C172.216,308.948 172.317,308.984 172.447,308.984L176.111,308.984L176.111,310Z" style="fill-rule:nonzero;"/>
        <path d="M182.678,304.398L180.025,309.801C179.984,309.884 179.922,309.951 179.84,310.002C179.758,310.053 179.667,310.078 179.568,310.078C179.472,310.078 179.383,310.053 179.301,310.002C179.219,309.951 179.156,309.884 179.111,309.801L176.463,304.398L177.6,304.398L179.568,308.434L181.545,304.398L182.678,304.398Z" style="fill-rule:nonzero;"/>
        <path d="M187.373,310L186.354,310L186.354,305.414L185.436,305.414L185.436,304.398L187.373,304.398L187.373,310Z" style="fill-rule:nonzero;"/>
        <path d="M20.051,299L132.524,299C134.209,299 135.575,300.343 135.575,302L135.575,337.708C135.575,339.365 134.209,340.708 132.524,340.708L20.051,340.708C18.366,340.708 17,339.365 17,337.708L17,302C17,300.343 18.366,299 20.051,299Z" style="fill:#fff;fill-rule:nonzero;"/>
        <path d="M117.668,308.352C117.668,308.552 117.643,308.732 117.592,308.893C117.541,309.053 117.474,309.194 117.391,309.316C117.308,309.439 117.21,309.543 117.098,309.629C116.986,309.715 116.87,309.785 116.751,309.84C116.631,309.895 116.509,309.935 116.385,309.961C116.262,309.987 116.145,310 116.036,310L112.118,310L112.118,308.984L116.036,308.984C116.231,308.984 116.383,308.927 116.491,308.812C116.599,308.698 116.653,308.545 116.653,308.352C116.653,308.258 116.639,308.172 116.61,308.094C116.581,308.016 116.54,307.948 116.487,307.891C116.434,307.834 116.369,307.789 116.292,307.758C116.215,307.727 116.129,307.711 116.036,307.711L113.7,307.711C113.536,307.711 113.359,307.682 113.168,307.623C112.978,307.564 112.802,307.47 112.639,307.34C112.476,307.21 112.341,307.039 112.233,306.828C112.125,306.617 112.071,306.36 112.071,306.055C112.071,305.75 112.125,305.493 112.233,305.283C112.341,305.074 112.476,304.903 112.639,304.771C112.802,304.64 112.978,304.545 113.168,304.486C113.359,304.427 113.536,304.398 113.7,304.398L117.157,304.398L117.157,305.414L113.7,305.414C113.507,305.414 113.357,305.473 113.249,305.59C113.14,305.707 113.086,305.862 113.086,306.055C113.086,306.25 113.14,306.405 113.249,306.518C113.357,306.631 113.507,306.688 113.7,306.688L116.043,306.688C116.153,306.69 116.269,306.705 116.391,306.732C116.514,306.759 116.635,306.802 116.756,306.859C116.877,306.916 116.993,306.989 117.102,307.076C117.211,307.163 117.308,307.268 117.393,307.391C117.478,307.513 117.545,307.653 117.594,307.812C117.643,307.971 117.668,308.151 117.668,308.352Z" style="fill-rule:nonzero;"/>
        <path d="M123.516,305.414L121.278,305.414L121.278,310L120.262,310L120.262,305.414L118.02,305.414L118.02,304.398L123.516,304.398L123.516,305.414Z" style="fill-rule:nonzero;"/>
        <path d="M129.86,306.281C129.86,306.513 129.831,306.72 129.774,306.902C129.717,307.085 129.639,307.246 129.542,307.385C129.444,307.524 129.331,307.643 129.204,307.742C129.076,307.841 128.942,307.923 128.803,307.986C128.664,308.05 128.523,308.096 128.381,308.125C128.239,308.154 128.106,308.168 127.981,308.168L130.102,310L128.532,310L126.415,308.168L125.684,308.168L125.684,307.152L127.981,307.152C128.108,307.142 128.225,307.115 128.331,307.072C128.436,307.029 128.527,306.971 128.604,306.898C128.681,306.825 128.74,306.738 128.782,306.635C128.823,306.532 128.844,306.414 128.844,306.281L128.844,305.641C128.844,305.584 128.837,305.54 128.823,305.51C128.808,305.48 128.79,305.458 128.768,305.443C128.746,305.429 128.723,305.421 128.698,305.418C128.673,305.415 128.65,305.414 128.629,305.414L125.278,305.414L125.278,310L124.262,310L124.262,304.91C124.262,304.84 124.275,304.774 124.301,304.711C124.327,304.648 124.363,304.594 124.409,304.547C124.454,304.5 124.508,304.464 124.571,304.438C124.634,304.411 124.701,304.398 124.774,304.398L128.629,304.398C128.856,304.398 129.047,304.439 129.204,304.521C129.36,304.604 129.487,304.707 129.585,304.83C129.682,304.954 129.752,305.087 129.795,305.23C129.838,305.373 129.86,305.508 129.86,305.633L129.86,306.281Z" style="fill-rule:nonzero;"/>
        <path d="M89.669,307.656C89.669,307.997 89.61,308.311 89.491,308.598C89.372,308.884 89.209,309.131 89.001,309.338C88.792,309.545 88.545,309.707 88.259,309.824C87.972,309.941 87.661,310 87.325,310L84.583,310C84.51,310 84.443,309.987 84.38,309.961C84.317,309.935 84.263,309.899 84.218,309.854C84.172,309.808 84.136,309.754 84.11,309.691C84.084,309.629 84.071,309.561 84.071,309.488L84.071,304.91C84.071,304.84 84.084,304.774 84.11,304.711C84.136,304.648 84.172,304.594 84.218,304.547C84.263,304.5 84.317,304.464 84.38,304.438C84.443,304.411 84.51,304.398 84.583,304.398L87.325,304.398C87.661,304.398 87.972,304.457 88.259,304.574C88.545,304.691 88.792,304.854 89.001,305.061C89.209,305.268 89.372,305.515 89.491,305.803C89.61,306.09 89.669,306.403 89.669,306.742L89.669,307.656ZM88.653,306.742C88.653,306.544 88.621,306.363 88.558,306.199C88.494,306.035 88.403,305.895 88.286,305.779C88.169,305.663 88.029,305.573 87.866,305.51C87.703,305.446 87.523,305.414 87.325,305.414L85.087,305.414L85.087,308.984L87.325,308.984C87.523,308.984 87.703,308.952 87.866,308.889C88.029,308.825 88.169,308.735 88.286,308.619C88.403,308.503 88.494,308.364 88.558,308.201C88.621,308.038 88.653,307.857 88.653,307.656L88.653,306.742Z" style="fill-rule:nonzero;"/>
        <path d="M98.235,310L93.091,310L93.091,308.121C93.091,308.025 93.102,307.923 93.124,307.814C93.146,307.706 93.18,307.599 93.227,307.492C93.274,307.385 93.335,307.284 93.409,307.188C93.483,307.091 93.573,307.006 93.679,306.932C93.784,306.857 93.906,306.798 94.044,306.754C94.182,306.71 94.338,306.688 94.513,306.688L96.802,306.688C96.94,306.688 97.042,306.653 97.108,306.584C97.175,306.515 97.208,306.414 97.208,306.281L97.208,305.832C97.208,305.694 97.174,305.59 97.106,305.52C97.039,305.449 96.94,305.414 96.809,305.414L93.548,305.414L93.548,304.398L96.809,304.398C96.981,304.398 97.136,304.42 97.274,304.465C97.412,304.509 97.534,304.568 97.64,304.643C97.745,304.717 97.836,304.802 97.911,304.898C97.986,304.995 98.048,305.096 98.097,305.201C98.145,305.306 98.18,305.413 98.202,305.521C98.224,305.63 98.235,305.731 98.235,305.824L98.235,306.281C98.235,306.544 98.188,306.766 98.093,306.947C97.998,307.128 97.878,307.276 97.735,307.389C97.592,307.502 97.437,307.584 97.272,307.635C97.107,307.686 96.952,307.711 96.809,307.711L94.513,307.711C94.43,307.711 94.363,307.723 94.313,307.746C94.264,307.769 94.225,307.801 94.198,307.84C94.171,307.879 94.151,307.923 94.138,307.973C94.125,308.022 94.114,308.072 94.106,308.121L94.106,308.984L98.235,308.984L98.235,310Z" style="fill-rule:nonzero;"/>
        <path d="M61.724,307.656C61.724,307.997 61.665,308.311 61.546,308.598C61.427,308.884 61.264,309.131 61.056,309.338C60.847,309.545 60.6,309.707 60.314,309.824C60.027,309.941 59.716,310 59.38,310L56.638,310C56.565,310 56.497,309.987 56.435,309.961C56.372,309.935 56.318,309.899 56.272,309.854C56.227,309.808 56.191,309.754 56.165,309.691C56.139,309.629 56.126,309.561 56.126,309.488L56.126,304.91C56.126,304.84 56.139,304.774 56.165,304.711C56.191,304.648 56.227,304.594 56.272,304.547C56.318,304.5 56.372,304.464 56.435,304.438C56.497,304.411 56.565,304.398 56.638,304.398L59.38,304.398C59.716,304.398 60.027,304.457 60.314,304.574C60.6,304.691 60.847,304.854 61.056,305.061C61.264,305.268 61.427,305.515 61.546,305.803C61.665,306.09 61.724,306.403 61.724,306.742L61.724,307.656ZM60.708,306.742C60.708,306.544 60.676,306.363 60.612,306.199C60.549,306.035 60.458,305.895 60.341,305.779C60.224,305.663 60.084,305.573 59.921,305.51C59.758,305.446 59.578,305.414 59.38,305.414L57.142,305.414L57.142,308.984L59.38,308.984C59.578,308.984 59.758,308.952 59.921,308.889C60.084,308.825 60.224,308.735 60.341,308.619C60.458,308.503 60.549,308.364 60.612,308.201C60.676,308.038 60.708,307.857 60.708,307.656L60.708,306.742Z" style="fill-rule:nonzero;"/>
        <path d="M66.946,310L65.927,310L65.927,305.414L65.009,305.414L65.009,304.398L66.946,304.398L66.946,310Z" style="fill-rule:nonzero;"/>
        <path d="M28.311,310L24.647,310C24.553,310 24.452,309.989 24.344,309.967C24.236,309.945 24.129,309.91 24.024,309.863C23.918,309.816 23.817,309.756 23.721,309.682C23.624,309.607 23.539,309.517 23.465,309.412C23.391,309.307 23.332,309.184 23.287,309.045C23.243,308.906 23.221,308.749 23.221,308.574L23.221,305.824C23.221,305.731 23.232,305.63 23.254,305.521C23.276,305.413 23.311,305.306 23.358,305.201C23.405,305.096 23.466,304.995 23.541,304.898C23.616,304.802 23.707,304.717 23.813,304.643C23.918,304.568 24.04,304.509 24.178,304.465C24.316,304.42 24.472,304.398 24.647,304.398L28.311,304.398L28.311,305.414L24.647,305.414C24.514,305.414 24.412,305.449 24.342,305.52C24.271,305.59 24.236,305.694 24.236,305.832L24.236,308.574C24.236,308.705 24.272,308.806 24.344,308.877C24.415,308.948 24.516,308.984 24.647,308.984L28.311,308.984L28.311,310Z" style="fill-rule:nonzero;"/>
        <path d="M34.416,310L29.783,310C29.71,310 29.643,309.987 29.58,309.961C29.517,309.935 29.463,309.899 29.418,309.854C29.373,309.808 29.337,309.754 29.311,309.691C29.285,309.629 29.272,309.561 29.272,309.488L29.272,304.398L30.287,304.398L30.287,308.984L34.416,308.984L34.416,310Z" style="fill-rule:nonzero;"/>
        <path d="M41.033,310L39.592,310L37.307,307.711L36.592,307.711L36.592,306.688L37.307,306.688L39.592,304.398L41.033,304.398L38.154,307.199L41.033,310ZM36.186,310L35.17,310L35.17,304.398L36.186,304.398L36.186,310Z" style="fill-rule:nonzero;"/>
        <path d="M32.5,33.578L75.641,33.5" style="fill:none;fill-rule:nonzero;stroke:#00799a;stroke-width:1px;"/>
        <path d="M225.5,33.578L268.641,33.5" style="fill:none;fill-rule:nonzero;stroke:#00799a;stroke-width:1px;"/>
    </g>
</svg>
