<?xml version="1.0" encoding="UTF-8" standalone="no"?>
<!DOCTYPE svg PUBLIC "-//W3C//DTD SVG 1.1//EN" "http://www.w3.org/Graphics/SVG/1.1/DTD/svg11.dtd">
<svg width="100%" height="100%" viewBox="0 0 120 380" version="1.1" xmlns="http://www.w3.org/2000/svg" xmlns:xlink="http://www.w3.org/1999/xlink" xml:space="preserve" xmlns:serif="http://www.serif.com/" style="fill-rule:evenodd;clip-rule:evenodd;">
    <g id="DIVINE_CMOS">
        <rect x="0" y="-1.124" width="120" height="382.248" style="fill:#e6e6e6;fill-rule:nonzero;"/>
        <path d="M13.522,295.602L106.478,295.602C107.871,295.602 109,296.875 109,298.446L109,332.299C109,333.87 107.871,335.143 106.478,335.143L13.522,335.143C12.129,335.143 11,333.87 11,332.299L11,298.446C11,296.875 12.129,295.602 13.522,295.602Z" style="fill:#bcbdba;fill-rule:nonzero;"/>
        <path d="M13.522,219.002L106.478,219.002C107.871,219.002 109,221.244 109,224.011L109,283.634C109,286.4 107.871,288.643 106.478,288.643L13.522,288.643C12.129,288.643 11,286.4 11,283.634L11,224.011C11,221.244 12.129,219.002 13.522,219.002Z" style="fill:#fff;fill-rule:nonzero;"/>
        <path d="M26.5,77.252L26.5,262.918" style="fill:none;fill-rule:nonzero;stroke:#007a9f;stroke-width:4px;"/>
        <path d="M60.5,189.5L60.5,235.9" style="fill:none;fill-rule:nonzero;stroke:#007a9f;stroke-width:4px;"/>
        <path d="M94.5,77.252L94.5,262.918" style="fill:none;fill-rule:nonzero;stroke:#007a9f;stroke-width:4px;"/>
        <g id="circle868">
            <path d="M90.156,319.481C90.156,326.098 84.86,331.462 78.328,331.462C71.796,331.462 66.5,326.098 66.5,319.481C66.5,312.864 71.796,307.5 78.328,307.5C84.86,307.5 90.156,312.864 90.156,319.481Z" style="fill:#fff;fill-rule:nonzero;"/>
            <path d="M90.156,319.481C90.156,326.098 84.86,331.462 78.328,331.462C71.796,331.462 66.5,326.098 66.5,319.481C66.5,312.864 71.796,307.5 78.328,307.5C84.86,307.5 90.156,312.864 90.156,319.481Z" style="fill-opacity:0;fill-rule:nonzero;stroke:#000;stroke-width:0.25px;"/>
        </g>
        <g id="circle8681" serif:id="circle868">
            <path d="M55.156,319.481C55.156,326.098 49.86,331.462 43.328,331.462C36.796,331.462 31.5,326.098 31.5,319.481C31.5,312.864 36.796,307.5 43.328,307.5C49.86,307.5 55.156,312.864 55.156,319.481Z" style="fill:#fff;fill-rule:nonzero;"/>
            <path d="M55.156,319.481C55.156,326.098 49.86,331.462 43.328,331.462C36.796,331.462 31.5,326.098 31.5,319.481C31.5,312.864 36.796,307.5 43.328,307.5C49.86,307.5 55.156,312.864 55.156,319.481Z" style="fill-opacity:0;fill-rule:nonzero;stroke:#000;stroke-width:0.25px;"/>
        </g>
        <g id="circle8682" serif:id="circle868">
            <path d="M72.328,235.481C72.328,242.098 67.032,247.462 60.5,247.462C53.968,247.462 48.672,242.098 48.672,235.481C48.672,228.864 53.968,223.5 60.5,223.5C67.032,223.5 72.328,228.864 72.328,235.481Z" style="fill:#fff;fill-rule:nonzero;"/>
            <path d="M72.328,235.481C72.328,242.098 67.032,247.462 60.5,247.462C53.968,247.462 48.672,242.098 48.672,235.481C48.672,228.864 53.968,223.5 60.5,223.5C67.032,223.5 72.328,228.864 72.328,235.481Z" style="fill-opacity:0;fill-rule:nonzero;stroke:#000;stroke-width:0.25px;"/>
        </g>
        <g id="circle8683" serif:id="circle868">
            <path d="M106.156,264.481C106.156,271.098 100.86,276.462 94.328,276.462C87.796,276.462 82.5,271.098 82.5,264.481C82.5,257.864 87.796,252.5 94.328,252.5C100.86,252.5 106.156,257.864 106.156,264.481Z" style="fill:#fff;fill-rule:nonzero;"/>
            <path d="M106.156,264.481C106.156,271.098 100.86,276.462 94.328,276.462C87.796,276.462 82.5,271.098 82.5,264.481C82.5,257.864 87.796,252.5 94.328,252.5C100.86,252.5 106.156,257.864 106.156,264.481Z" style="fill-opacity:0;fill-rule:nonzero;stroke:#000;stroke-width:0.25px;"/>
        </g>
        <g id="circle8684" serif:id="circle868">
            <path d="M38.156,264.481C38.156,271.098 32.86,276.462 26.328,276.462C19.796,276.462 14.5,271.098 14.5,264.481C14.5,257.864 19.796,252.5 26.328,252.5C32.86,252.5 38.156,257.864 38.156,264.481Z" style="fill:#fff;fill-rule:nonzero;"/>
            <path d="M38.156,264.481C38.156,271.098 32.86,276.462 26.328,276.462C19.796,276.462 14.5,271.098 14.5,264.481C14.5,257.864 19.796,252.5 26.328,252.5C32.86,252.5 38.156,257.864 38.156,264.481Z" style="fill-opacity:0;fill-rule:nonzero;stroke:#000;stroke-width:0.25px;"/>
        </g>
        <path d="M37.055,301.336C37.055,301.677 36.996,301.991 36.879,302.277C36.762,302.564 36.599,302.811 36.391,303.02C36.182,303.228 35.935,303.39 35.65,303.506C35.365,303.622 35.055,303.68 34.719,303.68L33.344,303.68C33.008,303.68 32.697,303.622 32.41,303.506C32.123,303.39 31.876,303.228 31.668,303.02C31.459,302.811 31.296,302.564 31.178,302.277C31.059,301.991 31,301.677 31,301.336L31,300.266C31,299.927 31.059,299.614 31.178,299.326C31.296,299.039 31.459,298.791 31.668,298.584C31.876,298.377 32.123,298.215 32.41,298.098C32.697,297.981 33.008,297.922 33.344,297.922L34.719,297.922C35.055,297.922 35.365,297.981 35.65,298.098C35.935,298.215 36.182,298.377 36.391,298.584C36.599,298.791 36.762,299.039 36.879,299.326C36.996,299.614 37.055,299.927 37.055,300.266L37.055,301.336ZM36.039,300.266C36.039,300.065 36.007,299.884 35.943,299.721C35.88,299.558 35.79,299.419 35.674,299.303C35.558,299.187 35.419,299.097 35.256,299.033C35.093,298.97 34.914,298.938 34.719,298.938L33.344,298.938C33.146,298.938 32.966,298.97 32.803,299.033C32.64,299.097 32.5,299.187 32.383,299.303C32.266,299.419 32.175,299.558 32.111,299.721C32.048,299.884 32.016,300.065 32.016,300.266L32.016,301.336C32.016,301.537 32.048,301.718 32.111,301.881C32.175,302.044 32.266,302.183 32.383,302.299C32.5,302.415 32.64,302.505 32.803,302.568C32.966,302.632 33.146,302.664 33.344,302.664L34.711,302.664C34.909,302.664 35.089,302.632 35.252,302.568C35.415,302.505 35.555,302.415 35.672,302.299C35.789,302.183 35.88,302.044 35.943,301.881C36.007,301.718 36.039,301.537 36.039,301.336L36.039,300.266Z" style="fill-rule:nonzero;"/>
        <path d="M43.547,303.09C43.547,303.163 43.534,303.23 43.508,303.293C43.482,303.356 43.445,303.41 43.398,303.455C43.351,303.5 43.297,303.536 43.234,303.562C43.172,303.589 43.106,303.602 43.035,303.602L40.746,303.602C40.53,303.602 40.311,303.578 40.09,303.531C39.869,303.484 39.654,303.412 39.447,303.314C39.24,303.217 39.046,303.092 38.863,302.941C38.681,302.79 38.522,302.611 38.385,302.404C38.248,302.197 38.141,301.96 38.062,301.693C37.984,301.426 37.945,301.129 37.945,300.801L37.945,298L38.961,298L38.961,300.801C38.961,301.087 39.001,301.329 39.08,301.527C39.159,301.725 39.26,301.89 39.383,302.023C39.505,302.156 39.639,302.261 39.785,302.336C39.931,302.411 40.07,302.467 40.201,302.504C40.332,302.541 40.448,302.563 40.549,302.572C40.649,302.581 40.715,302.586 40.746,302.586L42.531,302.586L42.531,298L43.547,298L43.547,303.09Z" style="fill-rule:nonzero;"/>
        <path d="M49.789,299.016L47.551,299.016L47.551,303.602L46.535,303.602L46.535,299.016L44.293,299.016L44.293,298L49.789,298L49.789,299.016Z" style="fill-rule:nonzero;"/>
        <path d="M54.845,303.602L53.825,303.602L53.825,299.016L52.907,299.016L52.907,298L54.845,298L54.845,303.602Z" style="fill-rule:nonzero;"/>
        <path d="M70.055,301.336C70.055,301.677 69.996,301.991 69.879,302.277C69.762,302.564 69.599,302.811 69.391,303.02C69.182,303.228 68.935,303.39 68.65,303.506C68.365,303.622 68.055,303.68 67.719,303.68L66.344,303.68C66.008,303.68 65.697,303.622 65.41,303.506C65.123,303.39 64.876,303.228 64.668,303.02C64.459,302.811 64.296,302.564 64.178,302.277C64.059,301.991 64,301.677 64,301.336L64,300.266C64,299.927 64.059,299.614 64.178,299.326C64.296,299.039 64.459,298.791 64.668,298.584C64.876,298.377 65.123,298.215 65.41,298.098C65.697,297.981 66.008,297.922 66.344,297.922L67.719,297.922C68.055,297.922 68.365,297.981 68.65,298.098C68.935,298.215 69.182,298.377 69.391,298.584C69.599,298.791 69.762,299.039 69.879,299.326C69.996,299.614 70.055,299.927 70.055,300.266L70.055,301.336ZM69.039,300.266C69.039,300.065 69.007,299.884 68.943,299.721C68.88,299.558 68.79,299.419 68.674,299.303C68.558,299.187 68.419,299.097 68.256,299.033C68.093,298.97 67.914,298.938 67.719,298.938L66.344,298.938C66.146,298.938 65.966,298.97 65.803,299.033C65.64,299.097 65.5,299.187 65.383,299.303C65.266,299.419 65.175,299.558 65.111,299.721C65.048,299.884 65.016,300.065 65.016,300.266L65.016,301.336C65.016,301.537 65.048,301.718 65.111,301.881C65.175,302.044 65.266,302.183 65.383,302.299C65.5,302.415 65.64,302.505 65.803,302.568C65.966,302.632 66.146,302.664 66.344,302.664L67.711,302.664C67.909,302.664 68.089,302.632 68.252,302.568C68.415,302.505 68.555,302.415 68.672,302.299C68.789,302.183 68.88,302.044 68.943,301.881C69.007,301.718 69.039,301.537 69.039,301.336L69.039,300.266Z" style="fill-rule:nonzero;"/>
        <path d="M76.547,303.09C76.547,303.163 76.534,303.23 76.508,303.293C76.482,303.356 76.445,303.41 76.398,303.455C76.351,303.5 76.297,303.536 76.234,303.562C76.172,303.589 76.106,303.602 76.035,303.602L73.746,303.602C73.53,303.602 73.311,303.578 73.09,303.531C72.869,303.484 72.654,303.412 72.447,303.314C72.24,303.217 72.046,303.092 71.863,302.941C71.681,302.79 71.522,302.611 71.385,302.404C71.248,302.197 71.141,301.96 71.062,301.693C70.984,301.426 70.945,301.129 70.945,300.801L70.945,298L71.961,298L71.961,300.801C71.961,301.087 72.001,301.329 72.08,301.527C72.159,301.725 72.26,301.89 72.383,302.023C72.505,302.156 72.639,302.261 72.785,302.336C72.931,302.411 73.07,302.467 73.201,302.504C73.332,302.541 73.448,302.563 73.549,302.572C73.649,302.581 73.715,302.586 73.746,302.586L75.531,302.586L75.531,298L76.547,298L76.547,303.09Z" style="fill-rule:nonzero;"/>
        <path d="M82.789,299.016L80.551,299.016L80.551,303.602L79.535,303.602L79.535,299.016L77.293,299.016L77.293,298L82.789,298L82.789,299.016Z" style="fill-rule:nonzero;"/>
        <path d="M90.984,303.602L85.84,303.602L85.84,301.723C85.84,301.626 85.851,301.524 85.873,301.416C85.895,301.308 85.929,301.201 85.976,301.094C86.023,300.987 86.084,300.886 86.158,300.789C86.232,300.693 86.322,300.608 86.428,300.533C86.533,300.459 86.655,300.4 86.793,300.355C86.931,300.311 87.087,300.289 87.262,300.289L89.551,300.289C89.689,300.289 89.791,300.255 89.857,300.186C89.924,300.117 89.957,300.016 89.957,299.883L89.957,299.434C89.957,299.296 89.923,299.192 89.855,299.121C89.788,299.051 89.689,299.016 89.559,299.016L86.297,299.016L86.297,298L89.559,298C89.73,298 89.885,298.022 90.023,298.066C90.161,298.111 90.283,298.17 90.389,298.244C90.494,298.318 90.585,298.403 90.66,298.5C90.735,298.597 90.797,298.698 90.846,298.803C90.894,298.908 90.929,299.015 90.951,299.123C90.973,299.231 90.984,299.332 90.984,299.426L90.984,299.883C90.984,300.146 90.937,300.368 90.842,300.549C90.747,300.73 90.627,300.877 90.484,300.99C90.341,301.103 90.186,301.185 90.021,301.236C89.856,301.287 89.702,301.312 89.559,301.312L87.262,301.312C87.179,301.312 87.112,301.324 87.062,301.348C87.013,301.371 86.974,301.402 86.947,301.441C86.92,301.48 86.9,301.525 86.887,301.574C86.874,301.623 86.863,301.673 86.855,301.723L86.855,302.586L90.984,302.586L90.984,303.602Z" style="fill-rule:nonzero;"/>
        <path d="M60.277,256.418L56.613,256.418C56.52,256.418 56.419,256.407 56.311,256.385C56.202,256.363 56.095,256.328 55.99,256.281C55.885,256.234 55.784,256.174 55.687,256.1C55.591,256.026 55.506,255.936 55.432,255.83C55.357,255.725 55.298,255.602 55.254,255.463C55.209,255.324 55.187,255.167 55.187,254.992L55.187,252.242C55.187,252.149 55.198,252.048 55.221,251.94C55.243,251.832 55.277,251.725 55.324,251.619C55.371,251.514 55.433,251.413 55.508,251.317C55.583,251.22 55.674,251.135 55.779,251.061C55.884,250.986 56.006,250.927 56.145,250.883C56.283,250.839 56.439,250.817 56.613,250.817L60.277,250.817L60.277,251.832L56.613,251.832C56.48,251.832 56.379,251.867 56.309,251.938C56.238,252.008 56.203,252.112 56.203,252.25L56.203,254.992C56.203,255.123 56.239,255.224 56.311,255.295C56.382,255.367 56.483,255.403 56.613,255.403L60.277,255.403L60.277,256.418Z" style="fill-rule:nonzero;"/>
        <path d="M66.844,250.817L64.191,256.219C64.15,256.302 64.088,256.369 64.006,256.42C63.924,256.471 63.833,256.496 63.734,256.496C63.638,256.496 63.549,256.471 63.467,256.42C63.385,256.369 63.322,256.302 63.277,256.219L60.629,250.817L61.766,250.817L63.734,254.852L65.711,250.817L66.844,250.817Z" style="fill-rule:nonzero;"/>
        <path d="M59.09,168.418L55.426,168.418C55.332,168.418 55.231,168.407 55.123,168.385C55.015,168.363 54.908,168.329 54.803,168.282C54.698,168.235 54.597,168.174 54.5,168.1C54.403,168.026 54.318,167.936 54.244,167.83C54.17,167.725 54.111,167.602 54.066,167.463C54.022,167.324 54,167.167 54,166.992L54,164.242C54,164.149 54.011,164.048 54.033,163.94C54.055,163.832 54.09,163.725 54.137,163.619C54.184,163.514 54.245,163.413 54.32,163.317C54.396,163.22 54.487,163.135 54.592,163.061C54.697,162.986 54.819,162.927 54.957,162.883C55.095,162.839 55.251,162.817 55.426,162.817L59.09,162.817L59.09,163.832L55.426,163.832C55.293,163.832 55.192,163.867 55.121,163.938C55.051,164.008 55.016,164.112 55.016,164.25L55.016,166.992C55.016,167.123 55.052,167.224 55.123,167.295C55.194,167.367 55.295,167.403 55.426,167.403L59.09,167.403L59.09,168.418Z" style="fill-rule:nonzero;"/>
        <path d="M65.656,162.817L63.004,168.219C62.962,168.302 62.9,168.369 62.818,168.42C62.736,168.471 62.646,168.496 62.547,168.496C62.45,168.496 62.361,168.471 62.279,168.42C62.197,168.369 62.134,168.302 62.09,168.219L59.441,162.817L60.578,162.817L62.547,166.852L64.523,162.817L65.656,162.817Z" style="fill-rule:nonzero;"/>
        <rect x="44" y="106" width="1.055" height="5.602" style="fill-rule:nonzero;"/>
        <path d="M52.107,111.168C52.107,111.241 52.093,111.308 52.064,111.371C52.035,111.434 51.997,111.488 51.95,111.533C51.903,111.579 51.847,111.615 51.782,111.641C51.717,111.667 51.648,111.68 51.575,111.68C51.51,111.68 51.444,111.668 51.378,111.645C51.311,111.621 51.252,111.583 51.201,111.531L47.345,107.656L47.345,111.602L46.289,111.602L46.289,106.434C46.289,106.329 46.32,106.235 46.381,106.15C46.442,106.065 46.519,106.002 46.614,105.961C46.714,105.922 46.817,105.912 46.923,105.932C47.028,105.951 47.119,105.999 47.195,106.074L51.051,109.945L51.051,106L52.107,106L52.107,111.168Z" style="fill-rule:nonzero;"/>
        <rect x="53.341" y="106" width="1.055" height="5.602" style="fill-rule:nonzero;"/>
        <path d="M60.891,107.016L58.565,107.016L58.565,111.602L57.51,111.602L57.51,107.016L55.179,107.016L55.179,106L60.891,106L60.891,107.016Z" style="fill-rule:nonzero;"/>
        <rect x="61.598" y="106" width="1.055" height="5.602" style="fill-rule:nonzero;"/>
        <path d="M69.599,111.602L68.543,111.602L68.543,110.227L64.833,110.227L64.833,111.602L63.778,111.602L63.778,108.801C63.778,108.392 63.851,108.016 63.997,107.672C64.143,107.328 64.346,107.032 64.606,106.785C64.866,106.538 65.173,106.345 65.527,106.207C65.882,106.069 66.269,106 66.688,106L69.067,106C69.14,106 69.209,106.013 69.274,106.039C69.339,106.065 69.396,106.101 69.445,106.148C69.494,106.195 69.531,106.25 69.558,106.312C69.585,106.375 69.599,106.441 69.599,106.512L69.599,111.602ZM64.833,109.211L68.543,109.211L68.543,107.016L66.688,107.016C66.656,107.016 66.588,107.02 66.483,107.029C66.379,107.038 66.259,107.061 66.122,107.098C65.985,107.134 65.841,107.19 65.69,107.266C65.538,107.341 65.399,107.445 65.272,107.578C65.145,107.711 65.04,107.877 64.957,108.076C64.874,108.275 64.833,108.517 64.833,108.801L64.833,109.211Z" style="fill-rule:nonzero;"/>
        <path d="M76.171,111.602L71.357,111.602C71.281,111.602 71.21,111.589 71.145,111.562C71.08,111.536 71.024,111.5 70.977,111.455C70.93,111.41 70.892,111.356 70.865,111.293C70.838,111.23 70.825,111.163 70.825,111.09L70.825,106L71.88,106L71.88,110.586L76.171,110.586L76.171,111.602Z" style="fill-rule:nonzero;"/>
        <rect x="85" y="43.078" width="1.085" height="5.602" style="fill-rule:nonzero;"/>
        <path d="M93.332,48.246C93.332,48.319 93.318,48.386 93.289,48.449C93.26,48.512 93.221,48.566 93.172,48.611C93.123,48.657 93.066,48.693 92.999,48.719C92.932,48.745 92.861,48.758 92.786,48.758C92.719,48.758 92.652,48.746 92.583,48.723C92.515,48.7 92.455,48.662 92.402,48.609L88.438,44.734L88.438,48.68L87.353,48.68L87.353,43.512C87.353,43.407 87.384,43.313 87.447,43.229C87.51,43.144 87.59,43.081 87.687,43.039C87.79,43 87.895,42.99 88.004,43.01C88.113,43.029 88.206,43.077 88.284,43.152L92.248,47.023L92.248,43.078L93.332,43.078L93.332,48.246Z" style="fill-rule:nonzero;"/>
        <path d="M103,44.953C103,45.185 102.969,45.392 102.906,45.574C102.843,45.757 102.761,45.918 102.658,46.057C102.555,46.196 102.434,46.315 102.297,46.414C102.159,46.513 102.016,46.594 101.869,46.658C101.722,46.722 101.572,46.768 101.421,46.797C101.269,46.826 101.126,46.84 100.993,46.84L100.555,46.84L100.555,48.68L99.462,48.68L99.462,46.84L99.028,46.84C98.895,46.84 98.752,46.826 98.6,46.797C98.449,46.768 98.299,46.722 98.15,46.658C98.001,46.594 97.858,46.513 97.722,46.414C97.585,46.315 97.465,46.196 97.361,46.057C97.256,45.918 97.173,45.756 97.111,45.572C97.048,45.389 97.017,45.182 97.017,44.953L97.017,43.078L98.102,43.078L98.102,44.953C98.102,45.086 98.124,45.205 98.168,45.311C98.213,45.416 98.275,45.507 98.356,45.582C98.437,45.657 98.535,45.715 98.65,45.756C98.765,45.796 98.894,45.816 99.036,45.816L100.993,45.816C101.096,45.801 101.201,45.781 101.31,45.756C101.419,45.731 101.517,45.689 101.606,45.629C101.695,45.569 101.769,45.486 101.828,45.379C101.886,45.272 101.915,45.13 101.915,44.953L101.915,43.078L103,43.078L103,44.953Z" style="fill-rule:nonzero;"/>
        <rect x="17" y="43.078" width="1.063" height="5.602" style="fill-rule:nonzero;"/>
        <path d="M25.164,48.246C25.164,48.319 25.15,48.386 25.121,48.449C25.092,48.512 25.054,48.566 25.007,48.611C24.959,48.657 24.902,48.693 24.837,48.719C24.772,48.745 24.702,48.758 24.628,48.758C24.563,48.758 24.497,48.746 24.43,48.723C24.363,48.7 24.304,48.662 24.252,48.609L20.369,44.734L20.369,48.68L19.306,48.68L19.306,43.512C19.306,43.407 19.337,43.313 19.398,43.229C19.459,43.144 19.538,43.081 19.633,43.039C19.734,43 19.837,42.99 19.943,43.01C20.05,43.029 20.141,43.077 20.217,43.152L24.101,47.023L24.101,43.078L25.164,43.078L25.164,48.246Z" style="fill-rule:nonzero;"/>
        <path d="M31.758,45.078L33.549,43.078L35,43.078L32.478,45.887L34.984,48.68L33.541,48.68L31.758,46.695L29.984,48.68L28.537,48.68L31.039,45.887L28.529,43.078L29.968,43.078L31.758,45.078Z" style="fill-rule:nonzero;"/>
        <rect x="82.78" y="280" width="1.015" height="5.602" style="fill-rule:nonzero;"/>
        <path d="M90.58,285.168C90.58,285.241 90.566,285.308 90.539,285.371C90.512,285.434 90.475,285.488 90.43,285.533C90.385,285.579 90.331,285.615 90.268,285.641C90.205,285.667 90.139,285.68 90.069,285.68C90.006,285.68 89.943,285.668 89.879,285.645C89.816,285.621 89.759,285.583 89.709,285.531L85.998,281.656L85.998,285.602L84.983,285.602L84.983,280.434C84.983,280.329 85.012,280.235 85.071,280.15C85.13,280.065 85.204,280.002 85.295,279.961C85.392,279.922 85.491,279.912 85.592,279.932C85.693,279.951 85.781,279.999 85.854,280.074L89.565,283.945L89.565,280L90.58,280L90.58,285.168Z" style="fill-rule:nonzero;"/>
        <path d="M99.631,281.875C99.631,282.107 99.602,282.314 99.543,282.496C99.484,282.679 99.407,282.84 99.311,282.979C99.214,283.118 99.102,283.237 98.973,283.336C98.844,283.435 98.711,283.516 98.573,283.58C98.435,283.644 98.295,283.69 98.153,283.719C98.011,283.748 97.877,283.762 97.752,283.762L97.342,283.762L97.342,285.602L96.319,285.602L96.319,283.762L95.912,283.762C95.787,283.762 95.654,283.748 95.512,283.719C95.37,283.69 95.229,283.644 95.09,283.58C94.951,283.516 94.817,283.435 94.69,283.336C94.562,283.237 94.449,283.118 94.352,282.979C94.254,282.84 94.176,282.678 94.118,282.494C94.059,282.311 94.03,282.104 94.03,281.875L94.03,280L95.045,280L95.045,281.875C95.045,282.008 95.066,282.127 95.108,282.232C95.149,282.338 95.208,282.429 95.284,282.504C95.359,282.579 95.451,282.637 95.559,282.678C95.667,282.718 95.787,282.738 95.92,282.738L97.752,282.738C97.849,282.723 97.948,282.703 98.049,282.678C98.15,282.653 98.243,282.611 98.326,282.551C98.409,282.491 98.479,282.408 98.534,282.301C98.589,282.194 98.616,282.052 98.616,281.875L98.616,280L99.631,280L99.631,281.875Z" style="fill-rule:nonzero;"/>
        <rect x="22.105" y="280" width="1.016" height="5.602" style="fill-rule:nonzero;"/>
        <path d="M29.906,285.168C29.906,285.241 29.892,285.308 29.865,285.371C29.838,285.434 29.801,285.488 29.756,285.533C29.71,285.579 29.656,285.615 29.593,285.641C29.531,285.667 29.465,285.68 29.394,285.68C29.331,285.68 29.268,285.668 29.205,285.645C29.141,285.621 29.084,285.583 29.035,285.531L25.324,281.656L25.324,285.602L24.308,285.602L24.308,280.434C24.308,280.329 24.337,280.235 24.396,280.15C24.455,280.065 24.53,280.002 24.621,279.961C24.717,279.922 24.816,279.912 24.918,279.932C25.019,279.951 25.106,279.999 25.179,280.074L28.89,283.945L28.89,280L29.906,280L29.906,285.168Z" style="fill-rule:nonzero;"/>
        <path d="M36.207,282L37.918,280L39.304,280L36.894,282.809L39.289,285.602L37.91,285.602L36.207,283.617L34.511,285.602L33.129,285.602L35.519,282.809L33.121,280L34.496,280L36.207,282Z" style="fill-rule:nonzero;"/>
        <path d="M14.237,23.406L11.585,28.809C11.544,28.892 11.482,28.959 11.399,29.01C11.317,29.061 11.227,29.086 11.128,29.086C11.031,29.086 10.942,29.061 10.86,29.01C10.778,28.959 10.715,28.892 10.671,28.809L8.023,23.406L9.159,23.406L11.128,27.441L13.105,23.406L14.237,23.406Z" style="fill-rule:nonzero;"/>
        <path d="M19.015,27.582C19.015,27.757 18.993,27.914 18.948,28.053C18.904,28.192 18.846,28.315 18.773,28.42C18.7,28.525 18.615,28.615 18.519,28.689C18.422,28.764 18.321,28.824 18.216,28.871C18.111,28.918 18.004,28.952 17.896,28.975C17.787,28.997 17.685,29.008 17.589,29.008L15.757,29.008C15.616,29.008 15.463,28.983 15.296,28.934C15.129,28.884 14.975,28.802 14.833,28.689C14.691,28.576 14.573,28.429 14.478,28.248C14.383,28.067 14.335,27.845 14.335,27.582L14.335,26.207C14.335,25.946 14.383,25.726 14.478,25.545C14.573,25.364 14.691,25.217 14.833,25.104C14.975,24.991 15.129,24.909 15.296,24.859C15.463,24.81 15.616,24.785 15.757,24.785L17.589,24.785C17.85,24.785 18.071,24.832 18.253,24.926C18.435,25.019 18.582,25.137 18.694,25.279C18.806,25.421 18.888,25.575 18.939,25.742C18.99,25.909 19.015,26.064 19.015,26.207L19.015,27.582ZM17.999,26.215C17.999,26.074 17.964,25.97 17.894,25.902C17.823,25.835 17.722,25.801 17.589,25.801L15.765,25.801C15.63,25.801 15.527,25.835 15.456,25.904C15.386,25.973 15.351,26.074 15.351,26.207L15.351,27.582C15.351,27.715 15.386,27.816 15.456,27.887C15.527,27.957 15.63,27.992 15.765,27.992L17.589,27.992C17.727,27.992 17.83,27.957 17.898,27.887C17.965,27.816 17.999,27.715 17.999,27.582L17.999,26.215Z" style="fill-rule:nonzero;"/>
        <path d="M21.733,29.008L21.28,29.008C21.135,29.008 20.979,28.983 20.814,28.934C20.649,28.884 20.494,28.802 20.351,28.689C20.208,28.576 20.089,28.429 19.995,28.248C19.902,28.067 19.855,27.845 19.855,27.582L19.855,23L20.87,23L20.87,27.582C20.87,27.707 20.909,27.807 20.987,27.881C21.066,27.955 21.163,27.992 21.28,27.992L21.733,27.992L21.733,29.008Z" style="fill-rule:nonzero;"/>
        <path d="M26.073,25.801L24.3,25.801L24.3,29.008L23.273,29.008L23.273,25.801L21.952,25.801L21.952,24.785L23.273,24.785L23.273,23.406L24.3,23.406L24.3,24.785L26.073,24.785L26.073,25.801Z" style="fill-rule:nonzero;"/>
        <path d="M30.858,27.609C30.858,27.75 30.833,27.901 30.784,28.064C30.735,28.227 30.655,28.379 30.544,28.518C30.433,28.657 30.289,28.774 30.11,28.867C29.932,28.961 29.715,29.008 29.46,29.008L27.628,29.008C27.487,29.008 27.336,28.983 27.173,28.934C27.01,28.884 26.859,28.804 26.72,28.693C26.581,28.582 26.464,28.438 26.37,28.26C26.277,28.081 26.23,27.864 26.23,27.609C26.23,27.468 26.255,27.316 26.304,27.152C26.353,26.988 26.433,26.836 26.544,26.697C26.655,26.558 26.799,26.441 26.978,26.348C27.156,26.254 27.373,26.207 27.628,26.207L29.46,26.207L29.46,27.176L27.628,27.176C27.49,27.176 27.383,27.218 27.308,27.303C27.232,27.388 27.194,27.492 27.194,27.617C27.194,27.75 27.238,27.853 27.325,27.928C27.412,28.002 27.516,28.039 27.636,28.039L29.46,28.039C29.598,28.039 29.705,27.997 29.78,27.914C29.856,27.831 29.894,27.727 29.894,27.602L29.894,26.184C29.894,26.051 29.853,25.945 29.771,25.867C29.689,25.789 29.585,25.75 29.46,25.75L27.23,25.75L27.23,24.785L29.46,24.785C29.601,24.785 29.752,24.81 29.915,24.859C30.078,24.909 30.229,24.989 30.368,25.1C30.507,25.211 30.624,25.355 30.718,25.533C30.811,25.712 30.858,25.929 30.858,26.184L30.858,27.609Z" style="fill-rule:nonzero;"/>
        <path d="M36.319,29.414C36.319,29.589 36.297,29.746 36.253,29.885C36.209,30.024 36.15,30.147 36.077,30.252C36.004,30.357 35.92,30.447 35.823,30.521C35.727,30.596 35.626,30.656 35.521,30.703C35.415,30.75 35.308,30.784 35.2,30.807C35.092,30.829 34.99,30.84 34.894,30.84L33.062,30.84L33.062,29.824L34.894,29.824C35.032,29.824 35.135,29.789 35.202,29.719C35.27,29.648 35.304,29.547 35.304,29.414L35.304,26.207C35.304,26.074 35.27,25.973 35.202,25.904C35.135,25.835 35.032,25.801 34.894,25.801L33.062,25.801C32.937,25.801 32.838,25.839 32.765,25.916C32.692,25.993 32.655,26.09 32.655,26.207L32.655,27.582C32.655,27.715 32.69,27.816 32.761,27.887C32.831,27.957 32.934,27.992 33.069,27.992L34.894,27.992L34.894,29.008L33.062,29.008C32.965,29.008 32.864,28.997 32.757,28.975C32.65,28.952 32.544,28.918 32.439,28.871C32.333,28.824 32.232,28.764 32.136,28.689C32.039,28.615 31.955,28.525 31.882,28.42C31.809,28.315 31.751,28.192 31.706,28.053C31.662,27.914 31.64,27.757 31.64,27.582L31.64,26.207C31.64,26.11 31.651,26.009 31.673,25.902C31.695,25.795 31.729,25.689 31.776,25.584C31.823,25.479 31.884,25.378 31.958,25.281C32.032,25.185 32.122,25.1 32.228,25.027C32.333,24.954 32.455,24.896 32.593,24.852C32.731,24.807 32.887,24.785 33.062,24.785L34.894,24.785C34.99,24.785 35.092,24.796 35.2,24.818C35.308,24.841 35.415,24.875 35.521,24.922C35.626,24.969 35.727,25.029 35.823,25.104C35.92,25.178 36.004,25.268 36.077,25.373C36.15,25.478 36.209,25.6 36.253,25.738C36.297,25.876 36.319,26.032 36.319,26.207L36.319,29.414Z" style="fill-rule:nonzero;"/>
        <path d="M41.792,26.184C41.792,26.325 41.767,26.476 41.718,26.639C41.669,26.802 41.589,26.953 41.478,27.092C41.367,27.231 41.223,27.348 41.044,27.441C40.865,27.535 40.649,27.582 40.394,27.582L38.562,27.582L38.562,26.617L40.394,26.617C40.532,26.617 40.639,26.575 40.714,26.49C40.789,26.405 40.827,26.301 40.827,26.176C40.827,26.043 40.785,25.939 40.7,25.863C40.615,25.788 40.513,25.75 40.394,25.75L38.562,25.75C38.424,25.75 38.317,25.792 38.241,25.877C38.166,25.962 38.128,26.066 38.128,26.191L38.128,27.609C38.128,27.744 38.17,27.85 38.255,27.926C38.34,28.001 38.444,28.039 38.569,28.039L40.394,28.039L40.394,29.008L38.562,29.008C38.421,29.008 38.27,28.983 38.107,28.934C37.944,28.884 37.792,28.804 37.653,28.693C37.514,28.582 37.397,28.438 37.304,28.26C37.21,28.081 37.163,27.864 37.163,27.609L37.163,26.184C37.163,26.043 37.188,25.892 37.237,25.729C37.287,25.566 37.367,25.414 37.478,25.275C37.589,25.136 37.733,25.019 37.911,24.926C38.09,24.832 38.307,24.785 38.562,24.785L40.394,24.785C40.535,24.785 40.686,24.81 40.849,24.859C41.012,24.909 41.163,24.989 41.302,25.1C41.441,25.211 41.558,25.355 41.651,25.533C41.745,25.712 41.792,25.929 41.792,26.184Z" style="fill-rule:nonzero;"/>
        <path d="M50.206,29.008L46.542,29.008C46.448,29.008 46.347,28.997 46.239,28.975C46.131,28.952 46.024,28.918 45.919,28.871C45.814,28.824 45.713,28.764 45.616,28.689C45.52,28.615 45.435,28.525 45.36,28.42C45.286,28.315 45.227,28.192 45.183,28.053C45.138,27.914 45.116,27.757 45.116,27.582L45.116,24.832C45.116,24.738 45.127,24.637 45.149,24.529C45.172,24.421 45.206,24.314 45.253,24.209C45.3,24.104 45.361,24.003 45.437,23.906C45.512,23.81 45.603,23.725 45.708,23.65C45.813,23.576 45.935,23.517 46.073,23.473C46.211,23.428 46.367,23.406 46.542,23.406L50.206,23.406L50.206,24.422L46.542,24.422C46.409,24.422 46.308,24.457 46.237,24.527C46.167,24.598 46.132,24.702 46.132,24.84L46.132,27.582C46.132,27.712 46.168,27.813 46.239,27.885C46.311,27.956 46.412,27.992 46.542,27.992L50.206,27.992L50.206,29.008Z" style="fill-rule:nonzero;"/>
        <path d="M55.597,27.582C55.597,27.757 55.575,27.914 55.53,28.053C55.486,28.192 55.428,28.315 55.355,28.42C55.282,28.525 55.197,28.615 55.101,28.689C55.004,28.764 54.903,28.824 54.798,28.871C54.693,28.918 54.586,28.952 54.478,28.975C54.37,28.997 54.268,29.008 54.171,29.008L52.339,29.008C52.198,29.008 52.045,28.983 51.878,28.934C51.711,28.884 51.557,28.802 51.415,28.689C51.273,28.576 51.155,28.429 51.06,28.248C50.965,28.067 50.917,27.845 50.917,27.582L50.917,26.207C50.917,25.946 50.965,25.726 51.06,25.545C51.155,25.364 51.273,25.217 51.415,25.104C51.557,24.991 51.711,24.909 51.878,24.859C52.045,24.81 52.198,24.785 52.339,24.785L54.171,24.785C54.432,24.785 54.653,24.832 54.835,24.926C55.017,25.019 55.164,25.137 55.276,25.279C55.388,25.421 55.47,25.575 55.521,25.742C55.572,25.909 55.597,26.064 55.597,26.207L55.597,27.582ZM54.581,26.215C54.581,26.074 54.546,25.97 54.476,25.902C54.405,25.835 54.304,25.801 54.171,25.801L52.347,25.801C52.212,25.801 52.109,25.835 52.038,25.904C51.968,25.973 51.933,26.074 51.933,26.207L51.933,27.582C51.933,27.715 51.968,27.816 52.038,27.887C52.109,27.957 52.212,27.992 52.347,27.992L54.171,27.992C54.309,27.992 54.412,27.957 54.48,27.887C54.547,27.816 54.581,27.715 54.581,27.582L54.581,26.215Z" style="fill-rule:nonzero;"/>
        <path d="M61.14,29.008L60.124,29.008L60.124,26.664C60.124,26.531 60.101,26.412 60.056,26.307C60.01,26.201 59.948,26.11 59.87,26.035C59.792,25.96 59.7,25.902 59.595,25.861C59.49,25.821 59.376,25.801 59.253,25.801L57.476,25.801L57.476,29.008L56.46,29.008L56.46,25.289C56.46,25.219 56.473,25.153 56.499,25.092C56.525,25.031 56.561,24.977 56.608,24.932C56.655,24.886 56.71,24.85 56.773,24.824C56.835,24.798 56.901,24.785 56.972,24.785L59.261,24.785C59.388,24.785 59.523,24.799 59.665,24.828C59.807,24.857 59.948,24.903 60.087,24.967C60.226,25.03 60.359,25.111 60.485,25.209C60.612,25.306 60.724,25.425 60.821,25.564C60.919,25.703 60.997,25.864 61.054,26.047C61.111,26.229 61.14,26.435 61.14,26.664L61.14,29.008Z" style="fill-rule:nonzero;"/>
        <path d="M65.745,25.801L63.972,25.801L63.972,29.008L62.944,29.008L62.944,25.801L61.624,25.801L61.624,24.785L62.944,24.785L62.944,23.406L63.972,23.406L63.972,24.785L65.745,24.785L65.745,25.801Z" style="fill-rule:nonzero;"/>
        <path d="M70.085,25.801L67.8,25.801C67.662,25.801 67.558,25.835 67.487,25.904C67.417,25.973 67.382,26.074 67.382,26.207L67.382,29.008L66.366,29.008L66.366,26.207C66.366,26.032 66.388,25.876 66.433,25.738C66.477,25.6 66.536,25.478 66.61,25.373C66.685,25.268 66.77,25.178 66.866,25.104C66.963,25.029 67.064,24.969 67.169,24.922C67.274,24.875 67.381,24.841 67.489,24.818C67.597,24.796 67.698,24.785 67.792,24.785L70.085,24.785L70.085,25.801Z" style="fill-rule:nonzero;"/>
        <path d="M75.331,27.582C75.331,27.757 75.309,27.914 75.265,28.053C75.22,28.192 75.162,28.315 75.089,28.42C75.016,28.525 74.932,28.615 74.835,28.689C74.738,28.764 74.637,28.824 74.532,28.871C74.427,28.918 74.32,28.952 74.212,28.975C74.104,28.997 74.002,29.008 73.905,29.008L72.073,29.008C71.932,29.008 71.779,28.983 71.612,28.934C71.445,28.884 71.291,28.802 71.149,28.689C71.008,28.576 70.889,28.429 70.794,28.248C70.699,28.067 70.651,27.845 70.651,27.582L70.651,26.207C70.651,25.946 70.699,25.726 70.794,25.545C70.889,25.364 71.008,25.217 71.149,25.104C71.291,24.991 71.445,24.909 71.612,24.859C71.779,24.81 71.932,24.785 72.073,24.785L73.905,24.785C74.166,24.785 74.387,24.832 74.569,24.926C74.752,25.019 74.899,25.137 75.011,25.279C75.123,25.421 75.204,25.575 75.255,25.742C75.306,25.909 75.331,26.064 75.331,26.207L75.331,27.582ZM74.315,26.215C74.315,26.074 74.28,25.97 74.21,25.902C74.14,25.835 74.038,25.801 73.905,25.801L72.081,25.801C71.946,25.801 71.843,25.835 71.773,25.904C71.702,25.973 71.667,26.074 71.667,26.207L71.667,27.582C71.667,27.715 71.702,27.816 71.773,27.887C71.843,27.957 71.946,27.992 72.081,27.992L73.905,27.992C74.043,27.992 74.146,27.957 74.214,27.887C74.281,27.816 74.315,27.715 74.315,27.582L74.315,26.215Z" style="fill-rule:nonzero;"/>
        <path d="M78.05,29.008L77.597,29.008C77.451,29.008 77.295,28.983 77.13,28.934C76.965,28.884 76.81,28.802 76.667,28.689C76.524,28.576 76.405,28.429 76.312,28.248C76.218,28.067 76.171,27.845 76.171,27.582L76.171,23L77.187,23L77.187,27.582C77.187,27.707 77.226,27.807 77.304,27.881C77.382,27.955 77.48,27.992 77.597,27.992L78.05,27.992L78.05,29.008Z" style="fill-rule:nonzero;"/>
        <path d="M80.558,29.008L80.105,29.008C79.959,29.008 79.803,28.983 79.638,28.934C79.473,28.884 79.318,28.802 79.175,28.689C79.032,28.576 78.913,28.429 78.819,28.248C78.726,28.067 78.679,27.845 78.679,27.582L78.679,23L79.694,23L79.694,27.582C79.694,27.707 79.733,27.807 79.812,27.881C79.89,27.955 79.988,27.992 80.105,27.992L80.558,27.992L80.558,29.008Z" style="fill-rule:nonzero;"/>
        <path d="M85.753,26.184C85.753,26.325 85.728,26.476 85.679,26.639C85.63,26.802 85.55,26.953 85.439,27.092C85.328,27.231 85.184,27.348 85.005,27.441C84.826,27.535 84.61,27.582 84.355,27.582L82.523,27.582L82.523,26.617L84.355,26.617C84.493,26.617 84.6,26.575 84.675,26.49C84.75,26.405 84.788,26.301 84.788,26.176C84.788,26.043 84.746,25.939 84.661,25.863C84.576,25.788 84.474,25.75 84.355,25.75L82.523,25.75C82.384,25.75 82.277,25.792 82.202,25.877C82.127,25.962 82.089,26.066 82.089,26.191L82.089,27.609C82.089,27.744 82.131,27.85 82.216,27.926C82.301,28.001 82.405,28.039 82.53,28.039L84.355,28.039L84.355,29.008L82.523,29.008C82.382,29.008 82.23,28.983 82.067,28.934C81.904,28.884 81.753,28.804 81.614,28.693C81.475,28.582 81.358,28.438 81.265,28.26C81.171,28.081 81.124,27.864 81.124,27.609L81.124,26.184C81.124,26.043 81.149,25.892 81.198,25.729C81.248,25.566 81.328,25.414 81.439,25.275C81.55,25.136 81.694,25.019 81.872,24.926C82.051,24.832 82.268,24.785 82.523,24.785L84.355,24.785C84.495,24.785 84.647,24.81 84.81,24.859C84.973,24.909 85.124,24.989 85.263,25.1C85.402,25.211 85.519,25.355 85.612,25.533C85.706,25.712 85.753,25.929 85.753,26.184Z" style="fill-rule:nonzero;"/>
        <path d="M91.069,27.582C91.069,27.757 91.047,27.914 91.003,28.053C90.959,28.192 90.9,28.315 90.827,28.42C90.754,28.525 90.67,28.615 90.573,28.689C90.477,28.764 90.376,28.824 90.271,28.871C90.165,28.918 90.058,28.952 89.95,28.975C89.842,28.997 89.74,29.008 89.644,29.008L87.812,29.008C87.637,29.008 87.481,28.986 87.343,28.941C87.205,28.897 87.083,28.838 86.978,28.764C86.872,28.689 86.782,28.604 86.708,28.508C86.634,28.411 86.573,28.31 86.526,28.205C86.479,28.1 86.445,27.993 86.423,27.885C86.401,27.777 86.39,27.676 86.39,27.582L86.39,26.207C86.39,25.946 86.437,25.726 86.532,25.545C86.627,25.364 86.746,25.217 86.888,25.104C87.03,24.991 87.184,24.909 87.351,24.859C87.518,24.81 87.671,24.785 87.812,24.785L89.644,24.785L89.644,25.801L87.819,25.801C87.684,25.801 87.581,25.835 87.511,25.904C87.44,25.973 87.405,26.074 87.405,26.207L87.405,27.574C87.405,27.712 87.44,27.816 87.509,27.887C87.578,27.957 87.679,27.992 87.812,27.992L89.644,27.992C89.782,27.992 89.885,27.957 89.952,27.887C90.02,27.816 90.054,27.715 90.054,27.582L90.054,23L91.069,23L91.069,27.582Z" style="fill-rule:nonzero;"/>
        <path d="M100.249,29.008L99.233,29.008L99.233,27.633L95.663,27.633L95.663,29.008L94.648,29.008L94.648,26.207C94.648,25.798 94.718,25.422 94.858,25.078C94.999,24.734 95.194,24.438 95.444,24.191C95.694,23.944 95.99,23.751 96.331,23.613C96.672,23.475 97.045,23.406 97.448,23.406L99.737,23.406C99.808,23.406 99.874,23.419 99.937,23.445C99.999,23.471 100.054,23.508 100.101,23.555C100.148,23.602 100.184,23.656 100.21,23.719C100.236,23.781 100.249,23.847 100.249,23.918L100.249,29.008ZM95.663,26.617L99.233,26.617L99.233,24.422L97.448,24.422C97.417,24.422 97.351,24.427 97.251,24.436C97.151,24.445 97.035,24.467 96.903,24.504C96.772,24.541 96.633,24.597 96.487,24.672C96.342,24.747 96.208,24.851 96.085,24.984C95.962,25.117 95.861,25.283 95.782,25.482C95.703,25.681 95.663,25.923 95.663,26.207L95.663,26.617Z" style="fill-rule:nonzero;"/>
        <path d="M105.085,29.008L104.069,29.008L104.069,26.207C104.069,26.074 104.034,25.973 103.964,25.904C103.893,25.835 103.789,25.801 103.651,25.801L102.331,25.801L102.331,29.008L101.315,29.008L101.315,25.289C101.315,25.219 101.328,25.153 101.355,25.092C101.381,25.031 101.417,24.977 101.464,24.932C101.511,24.886 101.565,24.85 101.628,24.824C101.691,24.798 101.757,24.785 101.827,24.785L103.659,24.785C103.8,24.785 103.951,24.81 104.112,24.859C104.274,24.909 104.428,24.989 104.573,25.098L104.573,24.785L105.948,24.785C106.045,24.785 106.146,24.796 106.253,24.818C106.36,24.841 106.466,24.875 106.571,24.922C106.677,24.969 106.778,25.029 106.874,25.104C106.971,25.178 107.055,25.268 107.128,25.373C107.201,25.478 107.259,25.6 107.304,25.738C107.348,25.876 107.37,26.032 107.37,26.207L107.37,29.008L106.355,29.008L106.355,26.207C106.355,26.074 106.322,25.973 106.255,25.904C106.188,25.835 106.086,25.801 105.948,25.801L105.034,25.801C105.068,25.926 105.085,26.061 105.085,26.207L105.085,29.008Z" style="fill-rule:nonzero;"/>
        <path d="M112.96,27.582C112.96,27.757 112.938,27.914 112.894,28.053C112.849,28.192 112.791,28.315 112.718,28.42C112.645,28.525 112.56,28.615 112.464,28.689C112.367,28.764 112.266,28.824 112.161,28.871C112.056,28.918 111.95,28.952 111.843,28.975C111.736,28.997 111.635,29.008 111.538,29.008L109.706,29.008L109.706,27.992L111.538,27.992C111.673,27.992 111.775,27.957 111.843,27.887C111.91,27.816 111.944,27.715 111.944,27.582L111.944,26.215C111.944,26.074 111.91,25.97 111.841,25.902C111.772,25.835 111.671,25.801 111.538,25.801L109.714,25.801C109.576,25.801 109.472,25.835 109.401,25.904C109.331,25.973 109.296,26.074 109.296,26.207L109.296,30.328L108.28,30.328L108.28,26.207C108.28,26.032 108.302,25.876 108.347,25.738C108.391,25.6 108.45,25.478 108.524,25.373C108.599,25.268 108.684,25.178 108.78,25.104C108.877,25.029 108.978,24.969 109.083,24.922C109.188,24.875 109.295,24.841 109.403,24.818C109.511,24.796 109.612,24.785 109.706,24.785L111.538,24.785C111.713,24.785 111.869,24.807 112.007,24.852C112.145,24.896 112.267,24.954 112.372,25.027C112.477,25.1 112.567,25.185 112.642,25.281C112.716,25.378 112.776,25.479 112.823,25.584C112.87,25.689 112.905,25.795 112.927,25.902C112.949,26.009 112.96,26.11 112.96,26.207L112.96,27.582Z" style="fill-rule:nonzero;"/>
        <g>
            <path d="M80.5,195.5C80.5,206.546 71.546,215.5 60.5,215.5C49.454,215.5 40.5,206.546 40.5,195.5C40.5,184.454 49.454,175.5 60.5,175.5C71.546,175.5 80.5,184.454 80.5,195.5Z" style="fill:#fff;fill-rule:nonzero;"/>
            <path d="M80.5,195.5C80.5,206.546 71.546,215.5 60.5,215.5C49.454,215.5 40.5,206.546 40.5,195.5C40.5,184.454 49.454,175.5 60.5,175.5C71.546,175.5 80.5,184.454 80.5,195.5Z" style="fill-opacity:0;fill-rule:nonzero;stroke:#000;stroke-width:1px;"/>
        </g>
        <g>
            <path d="M80.5,136.5C80.5,147.546 71.546,156.5 60.5,156.5C49.454,156.5 40.5,147.546 40.5,136.5C40.5,125.454 49.454,116.5 60.5,116.5C71.546,116.5 80.5,125.454 80.5,136.5Z" style="fill:#fff;fill-rule:nonzero;"/>
            <path d="M80.5,136.5C80.5,147.546 71.546,156.5 60.5,156.5C49.454,156.5 40.5,147.546 40.5,136.5C40.5,125.454 49.454,116.5 60.5,116.5C71.546,116.5 80.5,125.454 80.5,136.5Z" style="fill-opacity:0;fill-rule:nonzero;stroke:#000;stroke-width:1px;"/>
        </g>
        <g>
            <path d="M114.5,71.5C114.5,82.546 105.546,91.5 94.5,91.5C83.454,91.5 74.5,82.546 74.5,71.5C74.5,60.454 83.454,51.5 94.5,51.5C105.546,51.5 114.5,60.454 114.5,71.5Z" style="fill:#fff;fill-rule:nonzero;"/>
            <path d="M114.5,71.5C114.5,82.546 105.546,91.5 94.5,91.5C83.454,91.5 74.5,82.546 74.5,71.5C74.5,60.454 83.454,51.5 94.5,51.5C105.546,51.5 114.5,60.454 114.5,71.5Z" style="fill-opacity:0;fill-rule:nonzero;stroke:#000;stroke-width:1px;"/>
        </g>
        <g>
            <path d="M46.5,71.5C46.5,82.546 37.546,91.5 26.5,91.5C15.454,91.5 6.5,82.546 6.5,71.5C6.5,60.454 15.454,51.5 26.5,51.5C37.546,51.5 46.5,60.454 46.5,71.5Z" style="fill:#fff;fill-rule:nonzero;"/>
            <path d="M46.5,71.5C46.5,82.546 37.546,91.5 26.5,91.5C15.454,91.5 6.5,82.546 6.5,71.5C6.5,60.454 15.454,51.5 26.5,51.5C37.546,51.5 46.5,60.454 46.5,71.5Z" style="fill-opacity:0;fill-rule:nonzero;stroke:#000;stroke-width:1px;"/>
        </g>
        <g transform="matrix(1,0,0,1,46.017,367)">
            <g transform="matrix(12,0,0,12,0,0)">
                <path d="M0.773,-0.054C0.773,-0.045 0.772,-0.037 0.768,-0.029C0.765,-0.021 0.76,-0.014 0.755,-0.009C0.749,-0.003 0.742,0.002 0.734,0.005C0.727,0.008 0.718,0.01 0.709,0.01C0.702,0.01 0.694,0.008 0.686,0.005C0.678,0.002 0.671,-0.002 0.665,-0.009L0.201,-0.493L0.201,-0L0.074,-0L0.074,-0.646C0.074,-0.659 0.077,-0.671 0.085,-0.681C0.092,-0.692 0.101,-0.7 0.113,-0.705C0.125,-0.71 0.137,-0.711 0.15,-0.709C0.163,-0.706 0.174,-0.7 0.183,-0.691L0.646,-0.207L0.646,-0.7L0.773,-0.7L0.773,-0.054Z" style="fill-rule:nonzero;"/>
            </g>
            <g transform="matrix(12,0,0,12,10.166,0)">
                <path d="M0.717,-0L0.138,-0C0.129,-0 0.12,-0.002 0.112,-0.005C0.104,-0.008 0.098,-0.013 0.092,-0.018C0.086,-0.024 0.082,-0.031 0.079,-0.039C0.075,-0.046 0.074,-0.055 0.074,-0.064L0.074,-0.7L0.201,-0.7L0.201,-0.127L0.717,-0.127L0.717,-0Z" style="fill-rule:nonzero;"/>
            </g>
            <g transform="matrix(12,0,0,12,19.002,0)">
                <path d="M0.701,-0L0.243,-0C0.231,-0 0.218,-0.001 0.205,-0.004C0.191,-0.007 0.178,-0.011 0.165,-0.017C0.152,-0.023 0.139,-0.031 0.127,-0.04C0.115,-0.049 0.104,-0.06 0.095,-0.073C0.086,-0.087 0.078,-0.102 0.073,-0.119C0.067,-0.137 0.064,-0.156 0.064,-0.178L0.064,-0.522C0.064,-0.534 0.066,-0.546 0.069,-0.56C0.071,-0.573 0.076,-0.587 0.082,-0.6C0.087,-0.613 0.095,-0.626 0.104,-0.638C0.114,-0.65 0.125,-0.66 0.138,-0.67C0.152,-0.679 0.167,-0.686 0.184,-0.692C0.201,-0.697 0.221,-0.7 0.243,-0.7L0.701,-0.7L0.701,-0.573L0.243,-0.573C0.226,-0.573 0.213,-0.569 0.205,-0.56C0.196,-0.551 0.191,-0.538 0.191,-0.521L0.191,-0.178C0.191,-0.162 0.196,-0.149 0.205,-0.14C0.214,-0.131 0.226,-0.127 0.243,-0.127L0.701,-0.127L0.701,-0Z" style="fill-rule:nonzero;"/>
            </g>
        </g>
        <path d="M77.5,359.5L114.5,359.5" style="fill:none;fill-rule:nonzero;stroke:#007ba9;stroke-width:1px;stroke-linecap:round;"/>
        <path d="M6.5,359.5L43.5,359.5" style="fill:none;fill-rule:nonzero;stroke:#00799a;stroke-width:1px;stroke-linecap:round;"/>
        <path d="M86.5,21.5L114.5,21.5" style="fill:none;fill-rule:nonzero;stroke:#00799a;stroke-width:1px;stroke-linecap:round;"/>
        <path d="M6.5,21.5L34.5,21.5" style="fill:none;fill-rule:nonzero;stroke:#00799a;stroke-width:1px;stroke-linecap:round;"/>
        <g transform="matrix(1,0,0,1,36.352,21)">
            <g transform="matrix(12,0,0,12,0,0)">
                <path d="M0.747,-0.206C0.747,-0.181 0.743,-0.158 0.737,-0.138C0.731,-0.118 0.722,-0.101 0.712,-0.085C0.701,-0.07 0.689,-0.057 0.675,-0.046C0.661,-0.036 0.647,-0.027 0.632,-0.02C0.617,-0.013 0.602,-0.008 0.586,-0.005C0.571,-0.002 0.556,-0 0.542,-0L0.053,-0L0.053,-0.127L0.542,-0.127C0.567,-0.127 0.586,-0.134 0.599,-0.148C0.613,-0.163 0.62,-0.182 0.62,-0.206C0.62,-0.218 0.618,-0.229 0.614,-0.238C0.611,-0.248 0.606,-0.257 0.599,-0.264C0.592,-0.271 0.584,-0.276 0.574,-0.28C0.565,-0.284 0.554,-0.286 0.542,-0.286L0.25,-0.286C0.23,-0.286 0.208,-0.29 0.184,-0.297C0.16,-0.304 0.138,-0.316 0.118,-0.333C0.098,-0.349 0.081,-0.37 0.067,-0.396C0.054,-0.423 0.047,-0.455 0.047,-0.493C0.047,-0.531 0.054,-0.563 0.067,-0.59C0.081,-0.616 0.098,-0.637 0.118,-0.654C0.138,-0.67 0.16,-0.682 0.184,-0.689C0.208,-0.697 0.23,-0.7 0.25,-0.7L0.683,-0.7L0.683,-0.573L0.25,-0.573C0.226,-0.573 0.208,-0.566 0.194,-0.551C0.181,-0.537 0.174,-0.517 0.174,-0.493C0.174,-0.469 0.181,-0.449 0.194,-0.435C0.208,-0.421 0.226,-0.414 0.25,-0.414L0.543,-0.414C0.557,-0.414 0.572,-0.412 0.587,-0.408C0.602,-0.405 0.617,-0.4 0.633,-0.393C0.648,-0.385 0.662,-0.376 0.676,-0.365C0.689,-0.355 0.702,-0.341 0.712,-0.326C0.723,-0.311 0.731,-0.293 0.737,-0.273C0.743,-0.254 0.747,-0.231 0.747,-0.206Z" style="fill-rule:nonzero;"/>
            </g>
            <g transform="matrix(12,0,0,12,9.33984,0)">
                <path d="M0.649,-0.286L0.249,-0.286L0.249,-0.414L0.649,-0.414L0.649,-0.286ZM0.707,-0L0.249,-0C0.231,-0 0.212,-0.003 0.191,-0.009C0.17,-0.015 0.151,-0.026 0.133,-0.04C0.115,-0.054 0.101,-0.072 0.089,-0.095C0.077,-0.118 0.071,-0.145 0.071,-0.178L0.071,-0.636C0.071,-0.645 0.072,-0.653 0.076,-0.661C0.079,-0.669 0.083,-0.676 0.089,-0.682C0.095,-0.688 0.102,-0.692 0.109,-0.695C0.117,-0.699 0.126,-0.7 0.135,-0.7L0.707,-0.7L0.707,-0.573L0.198,-0.573L0.198,-0.178C0.198,-0.162 0.202,-0.149 0.211,-0.14C0.22,-0.131 0.233,-0.127 0.25,-0.127L0.707,-0.127L0.707,-0Z" style="fill-rule:nonzero;"/>
            </g>
            <g transform="matrix(12,0,0,12,18.3516,0)">
                <path d="M0.765,-0.064C0.765,-0.055 0.763,-0.046 0.76,-0.039C0.757,-0.031 0.752,-0.024 0.746,-0.018C0.741,-0.013 0.734,-0.008 0.726,-0.005C0.718,-0.002 0.71,-0 0.701,-0L0.243,-0C0.231,-0 0.218,-0.001 0.205,-0.004C0.191,-0.007 0.178,-0.011 0.165,-0.017C0.152,-0.023 0.139,-0.031 0.127,-0.04C0.115,-0.049 0.104,-0.06 0.095,-0.073C0.086,-0.087 0.078,-0.102 0.073,-0.119C0.067,-0.137 0.064,-0.156 0.064,-0.178L0.064,-0.522C0.064,-0.534 0.066,-0.546 0.069,-0.56C0.071,-0.573 0.076,-0.587 0.082,-0.6C0.087,-0.613 0.095,-0.626 0.104,-0.638C0.114,-0.65 0.125,-0.66 0.138,-0.67C0.152,-0.679 0.167,-0.686 0.184,-0.692C0.201,-0.697 0.221,-0.7 0.243,-0.7L0.759,-0.7L0.759,-0.573L0.243,-0.573C0.226,-0.573 0.213,-0.569 0.205,-0.56C0.196,-0.551 0.191,-0.538 0.191,-0.521L0.191,-0.178C0.191,-0.162 0.196,-0.149 0.205,-0.14C0.214,-0.131 0.226,-0.127 0.243,-0.127L0.638,-0.127L0.638,-0.286L0.3,-0.286L0.3,-0.414L0.701,-0.414C0.71,-0.414 0.718,-0.412 0.726,-0.409C0.734,-0.406 0.741,-0.401 0.746,-0.395C0.752,-0.389 0.757,-0.382 0.76,-0.375C0.763,-0.367 0.765,-0.359 0.765,-0.35L0.765,-0.064Z" style="fill-rule:nonzero;"/>
            </g>
            <g transform="matrix(12,0,0,12,28.2305,0)">
                <path d="M0.76,-0.064C0.76,-0.055 0.758,-0.046 0.755,-0.039C0.752,-0.031 0.747,-0.024 0.741,-0.018C0.735,-0.013 0.729,-0.008 0.721,-0.005C0.713,-0.002 0.705,-0 0.696,-0L0.41,-0C0.383,-0 0.355,-0.003 0.328,-0.009C0.3,-0.015 0.273,-0.024 0.247,-0.036C0.221,-0.048 0.197,-0.064 0.174,-0.083C0.152,-0.101 0.132,-0.124 0.115,-0.15C0.097,-0.176 0.084,-0.205 0.074,-0.239C0.064,-0.272 0.06,-0.309 0.06,-0.35L0.06,-0.7L0.187,-0.7L0.187,-0.35C0.187,-0.314 0.191,-0.284 0.201,-0.259C0.211,-0.235 0.224,-0.214 0.239,-0.197C0.255,-0.181 0.271,-0.168 0.29,-0.158C0.308,-0.149 0.325,-0.142 0.342,-0.137C0.358,-0.133 0.372,-0.13 0.385,-0.129C0.398,-0.128 0.406,-0.127 0.41,-0.127L0.633,-0.127L0.633,-0.7L0.76,-0.7L0.76,-0.064Z" style="fill-rule:nonzero;"/>
            </g>
            <g transform="matrix(12,0,0,12,38.2324,0)">
                <path d="M0.649,-0.286L0.249,-0.286L0.249,-0.414L0.649,-0.414L0.649,-0.286ZM0.707,-0L0.249,-0C0.231,-0 0.212,-0.003 0.191,-0.009C0.17,-0.015 0.151,-0.026 0.133,-0.04C0.115,-0.054 0.101,-0.072 0.089,-0.095C0.077,-0.118 0.071,-0.145 0.071,-0.178L0.071,-0.636C0.071,-0.645 0.072,-0.653 0.076,-0.661C0.079,-0.669 0.083,-0.676 0.089,-0.682C0.095,-0.688 0.102,-0.692 0.109,-0.695C0.117,-0.699 0.126,-0.7 0.135,-0.7L0.707,-0.7L0.707,-0.573L0.198,-0.573L0.198,-0.178C0.198,-0.162 0.202,-0.149 0.211,-0.14C0.22,-0.131 0.233,-0.127 0.25,-0.127L0.707,-0.127L0.707,-0Z" style="fill-rule:nonzero;"/>
            </g>
        </g>
    </g>
</svg>
