<?xml version="1.0" encoding="utf-8"?>
<svg xmlns="http://www.w3.org/2000/svg" width="20.32mm" height="128.50mm" viewBox="0 0 20.32 128.50">
    <g id="PanelLayer">
        <rect id="border_rect" width="20.32" height="128.5" x="0" y="0" style="display:inline;fill:#e6e5e5;fill-opacity:1;fill-rule:nonzero;stroke:#e6e5e5;stroke-width:0.7;stroke-linecap:round;stroke-linejoin:round;stroke-dasharray:none;stroke-opacity:1;image-rendering:auto" />
        <g id="text_sloth" transform="matrix(0.42512425,0,0,0.37962349,-5.4519469,3.4394483)" style="fill:#5c3114;stroke:#5c3114;stroke-width:0.188976;stroke-linejoin:bevel">
            <path d="M 17.901689,18.098277 V 17.01755 q 1.256508,0.559895 2.408848,0.559895 1.790361,0 1.790361,-1.054685 0,-0.371093 -0.31901,-0.64453 -0.31901,-0.273436 -1.471351,-0.690102 -1.516923,-0.566405 -1.914057,-1.035154 -0.390624,-0.475259 -0.390624,-1.119788 0,-0.885415 0.722654,-1.386716 0.729165,-0.507811 2.011714,-0.507811 1.289059,0 2.402338,0.48177 l -0.390624,0.970049 Q 21.567045,12.12173 20.67512,12.12173 q -1.536455,0 -1.536455,0.865883 0,0.397134 0.32552,0.638019 0.332031,0.234374 1.516924,0.65755 1.373694,0.501301 1.822912,0.989581 0.455728,0.48177 0.455728,1.184893 0,0.97656 -0.761717,1.536455 -0.761717,0.553384 -2.154943,0.553384 -1.614579,0 -2.4414,-0.449218 z" />
            <path d="M 28.044893,9.218091 26.300106,9.0813726 V 8.2871038 h 2.93619 v 9.1991952 l 2.291661,0.130208 v 0.80078 h -5.722642 v -0.80078 l 2.239578,-0.130208 z" />
            <path d="m 36.553986,18.547495 q -1.406247,0 -2.317703,-1.009112 -0.904945,-1.015623 -0.904945,-2.708327 0,-1.712235 0.878904,-2.701816 0.885414,-0.989581 2.382806,-0.989581 1.419267,0 2.324213,1.009112 0.904946,1.009112 0.904946,2.682285 0,1.725256 -0.891925,2.721347 -0.891925,0.996092 -2.376296,0.996092 z m 0.02604,-0.983071 q 2.018224,0 2.018224,-2.734368 0,-2.708326 -2.031244,-2.708326 -2.011714,0 -2.011714,2.708326 0,2.734368 2.024734,2.734368 z" />
            <path d="m 47.224532,17.440727 v 0.898435 q -0.846352,0.208333 -1.640621,0.208333 -2.356765,0 -2.356765,-2.239578 v -4.147125 h -1.738277 v -0.611978 l 1.738277,-0.319009 0.501301,-1.8684852 h 0.683592 v 1.9075472 h 2.851555 v 0.891925 h -2.851555 v 4.147125 q 0,1.269528 1.249997,1.269528 0.605467,0 1.562496,-0.136718 z" />
            <path d="m 54.35993,18.417287 v -4.602853 q 0,-1.692704 -1.549475,-1.692704 -1.998693,0 -1.998693,2.591139 v 3.704418 H 49.626869 V 8.2871038 h 1.184893 v 3.0078052 l -0.05208,0.937497 h 0.0651 q 0.670571,-1.093747 2.187494,-1.093747 2.532546,0 2.532546,2.610671 v 4.667957 z" />
        </g>
        <g id="text_torpor" transform="translate(0,-2.6458334)" style="fill:#af5a20;stroke:#90491a;stroke-width:0.05;stroke-linejoin:bevel">
            <path d="m 5.592662,38.848952 v 0.237712 q -0.2239314,0.05512 -0.4340824,0.05512 -0.6235626,0 -0.6235626,-0.592557 V 37.451965 H 4.0750964 v -0.16192 l 0.4599206,-0.0844 0.1326362,-0.494371 h 0.1808677 v 0.504706 h 0.7544764 v 0.23599 H 4.8485209 v 1.097263 q 0,0.335897 0.3307293,0.335897 0.1601971,0 0.4134118,-0.03617 z" />
            <path d="m 7.0034294,39.141785 q -0.3720705,0 -0.6132274,-0.266995 -0.2394343,-0.268718 -0.2394343,-0.71658 0,-0.453031 0.2325441,-0.714858 0.2342667,-0.261827 0.6304529,-0.261827 0.3755157,0 0.61495,0.266995 0.2394343,0.266995 0.2394343,0.70969 0,0.456475 -0.2359892,0.720025 -0.2359892,0.26355 -0.6287304,0.26355 z m 0.00689,-0.260105 q 0.5339902,0 0.5339902,-0.72347 0,-0.716581 -0.5374353,-0.716581 -0.5322676,0 -0.5322676,0.716581 0,0.72347 0.5357127,0.72347 z" />
            <path d="m 9.8938664,37.259039 -0.084405,0.285943 q -0.2118735,-0.07751 -0.385851,-0.07751 -0.2807754,0 -0.4340823,0.160197 -0.1515843,0.158474 -0.1515843,0.45992 v 1.019749 H 8.52444 v -1.891359 h 0.2549373 l 0.037896,0.346233 h 0.01378 q 0.1309137,-0.204984 0.2807755,-0.292833 0.1498617,-0.08785 0.3686254,-0.08785 0.2032608,0 0.4134122,0.07751 z" />
            <path d="m 10.772366,38.8679 h -0.02067 q 0.02067,0.222209 0.02067,0.279053 v 0.807875 h -0.313504 v -2.738853 h 0.253215 l 0.04651,0.254938 h 0.01378 q 0.189481,-0.289388 0.554661,-0.289388 0.346232,0 0.542603,0.258382 0.198093,0.25666 0.198093,0.718303 0,0.465088 -0.198093,0.725193 -0.198093,0.258382 -0.542603,0.258382 -0.356568,0 -0.554661,-0.273885 z m 0,-0.780315 v 0.07062 q 0,0.391018 0.118856,0.558106 0.120579,0.165364 0.382406,0.165364 0.468533,0 0.468533,-0.726915 0,-0.713136 -0.471978,-0.713136 -0.261828,0 -0.377238,0.151585 -0.113689,0.151584 -0.120579,0.494371 z" />
            <path d="m 13.354467,39.141785 q -0.372071,0 -0.613227,-0.266995 -0.239435,-0.268718 -0.239435,-0.71658 0,-0.453031 0.232544,-0.714858 0.234267,-0.261827 0.630453,-0.261827 0.375516,0 0.61495,0.266995 0.239434,0.266995 0.239434,0.70969 0,0.456475 -0.235989,0.720025 -0.235989,0.26355 -0.62873,0.26355 z m 0.0069,-0.260105 q 0.53399,0 0.53399,-0.72347 0,-0.716581 -0.537435,-0.716581 -0.532268,0 -0.532268,0.716581 0,0.72347 0.535713,0.72347 z" />
            <path d="m 16.244903,37.259039 -0.08441,0.285943 q -0.211873,-0.07751 -0.38585,-0.07751 -0.280776,0 -0.434083,0.160197 -0.151584,0.158474 -0.151584,0.45992 v 1.019749 h -0.313504 v -1.891359 h 0.254937 l 0.0379,0.346233 h 0.01378 q 0.130913,-0.204984 0.280775,-0.292833 0.149862,-0.08785 0.368626,-0.08785 0.20326,0 0.413411,0.07751 z" />
        </g>
        <g id="text_big" transform="translate(0,-5.2916669)" style="fill:#854116;stroke:#5f2f10;stroke-width:0.05;stroke-linejoin:bevel">
            <path d="M 3.15711,98.843067 H 3.140574 L 3.089587,99.034615 H 2.9063073 V 96.890389 H 3.15711 v 0.518142 q 0,0.111621 -0.011024,0.311436 H 3.15711 q 0.14745,-0.225998 0.443728,-0.225998 0.2769855,0 0.4340817,0.206706 0.1584743,0.205327 0.1584743,0.574641 0,0.37207 -0.1584743,0.580154 -0.1584743,0.206705 -0.4340817,0.206705 -0.2852537,0 -0.443728,-0.219108 z m 0,-0.567751 q 0,0.312815 0.095085,0.446484 0.096463,0.132292 0.3059243,0.132292 0.3748261,0 0.3748261,-0.581532 0,-0.570507 -0.3775822,-0.570507 -0.2135958,0 -0.3059243,0.129535 -0.092329,0.129536 -0.092329,0.443728 z" />
            <path d="m 5.2544826,96.898657 q 0.146072,0 0.146072,0.157096 0,0.07993 -0.044097,0.119889 -0.042719,0.03858 -0.1019748,0.03858 -0.14745,0 -0.14745,-0.158474 0,-0.157096 0.14745,-0.157096 z m -0.1267794,0.82131 -0.370692,-0.02894 V 97.52153 H 5.378506 v 1.316025 l 0.485069,0.02756 v 0.169499 H 4.6536584 v -0.169499 l 0.4740448,-0.02756 z" />
            <path d="m 7.6274626,97.52153 v 0.155718 l -0.2700953,0.03721 q 0.089573,0.117133 0.089573,0.293522 0,0.221864 -0.14745,0.354155 -0.146072,0.130914 -0.407899,0.130914 -0.075792,0 -0.1185112,-0.0083 -0.1378037,0.07717 -0.1378037,0.183279 0,0.115755 0.221864,0.115755 h 0.2576929 q 0.2397785,0 0.3665579,0.106109 0.1267794,0.106109 0.1267794,0.303168 0,0.51952 -0.778591,0.51952 -0.3004121,0 -0.4575083,-0.111621 -0.1557182,-0.110243 -0.1557182,-0.310059 0,-0.292143 0.3307289,-0.37207 -0.1322916,-0.06477 -0.1322916,-0.212217 0,-0.15434 0.183279,-0.264583 -0.1226453,-0.05099 -0.1929252,-0.168121 -0.07028,-0.118511 -0.07028,-0.257693 0,-0.250803 0.1460719,-0.38585 0.14745,-0.136426 0.4189233,-0.136426 0.1185112,0 0.2067056,0.02756 z m -0.7331157,0.799261 q 0.3073022,0 0.3073022,-0.316948 0,-0.329351 -0.3100583,-0.329351 -0.3100584,0 -0.3100584,0.333485 0,0.312814 0.3128145,0.312814 z m 0.1350476,0.689019 h -0.259071 q -0.3169485,0 -0.3169485,0.272851 0,0.239779 0.373448,0.239779 0.5443247,0 0.5443247,-0.307303 0,-0.121267 -0.068902,-0.163986 -0.068902,-0.04134 -0.2728514,-0.04134 z" />
        </g>
        <g id="text_small" transform="translate(-0.03503753,-5.4001521)" style="fill:#dc7f41;stroke:#b15b21;stroke-width:0.05;stroke-linejoin:bevel">
            <path d="M 10.674858,99.121464 V 98.89271 q 0.265962,0.118511 0.509874,0.118511 0.37896,0 0.37896,-0.223242 0,-0.07855 -0.06752,-0.136426 -0.06752,-0.05788 -0.311436,-0.146072 -0.321083,-0.119889 -0.405143,-0.219108 -0.08268,-0.100596 -0.08268,-0.237022 0,-0.187413 0.152962,-0.293522 0.15434,-0.107487 0.425814,-0.107487 0.272851,0 0.508495,0.101975 l -0.08268,0.205327 q -0.250803,-0.09922 -0.439594,-0.09922 -0.325217,0 -0.325217,0.183279 0,0.08406 0.0689,0.135047 0.07028,0.04961 0.321083,0.139182 0.290766,0.106109 0.38585,0.209462 0.09646,0.101975 0.09646,0.250803 0,0.206705 -0.16123,0.325216 -0.161231,0.117133 -0.456131,0.117133 -0.341753,0 -0.516764,-0.09508 z" />
            <path d="m 13.435067,99.188988 v -0.974273 q 0,-0.201193 -0.03721,-0.279741 -0.03583,-0.07855 -0.121267,-0.07855 -0.11989,0 -0.175011,0.114377 -0.05374,0.114377 -0.05374,0.383094 v 0.835091 h -0.221864 v -0.974273 q 0,-0.358289 -0.172254,-0.358289 -0.115755,0 -0.165365,0.110243 -0.04961,0.108865 -0.04961,0.438216 v 0.784103 h -0.223242 v -1.513085 h 0.175011 l 0.03721,0.203949 h 0.01378 q 0.09233,-0.23151 0.276985,-0.23151 0.224621,0 0.293522,0.250803 h 0.0083 q 0.10473,-0.250803 0.30179,-0.250803 0.176389,0 0.256315,0.128158 0.07993,0.126779 0.07993,0.424435 v 0.988053 z" />
            <path d="m 15.015675,99.188988 -0.05099,-0.209462 h -0.01102 q -0.106109,0.13367 -0.21773,0.186035 -0.111621,0.05099 -0.28801,0.05099 -0.22462,0 -0.352777,-0.118511 -0.12678,-0.118511 -0.12678,-0.332107 0,-0.457508 0.702799,-0.479557 l 0.279742,-0.0096 v -0.09508 q 0,-0.325217 -0.336241,-0.325217 -0.202572,0 -0.451997,0.112999 l -0.08682,-0.188791 q 0.270095,-0.132292 0.527788,-0.132292 0.312815,0 0.451997,0.119889 0.140559,0.11989 0.140559,0.384473 v 1.036284 z m -0.06752,-0.740006 -0.223242,0.0096 q -0.270096,0.01102 -0.383095,0.08544 -0.112999,0.07304 -0.112999,0.22462 0,0.245291 0.275608,0.245291 0.202571,0 0.32246,-0.111621 0.121268,-0.112999 0.121268,-0.316949 z" />
            <path d="m 16.209056,97.241821 -0.369314,-0.02894 v -0.16812 h 0.621494 v 1.947166 l 0.485069,0.02756 v 0.169499 h -1.211294 v -0.169499 l 0.474045,-0.02756 z" />
            <path d="m 17.902663,97.241821 -0.369314,-0.02894 v -0.16812 h 0.621495 v 1.947166 l 0.485069,0.02756 v 0.169499 h -1.211294 v -0.169499 l 0.474044,-0.02756 z" />
        </g>
        <g id="nlc_logo" transform="scale(0.25) translate(-35,135)" style="fill:#5c3114;stroke:#5c3114;">
            <polyline points="87 351.05 87 339.53 94.75 351.05 94.75 339.53" style="fill:none;stroke-linecap:round;stroke-linejoin:round;stroke-width:1.56px" />
            <polyline points="94.75 339.53 94.75 351.05 102.49 351.05" style="fill:none;stroke-linecap:round;stroke-linejoin:round;stroke-width:1.56px" />
            <path d="M108.79,349.13a2,2,0,0,1-1.94,1.92H103a2,2,0,0,1-1.94-1.92v-7.68a1.91,1.91,0,0,1,1.94-1.92h3.87a1.91,1.91,0,0,1,1.94,1.92" style="fill:none;stroke-linecap:round;stroke-linejoin:round;stroke-width:1.56px" />
            <path d="M52.28,356.21a11.34,11.34,0,1,0,0-22.68,11.34,11.34,0,1,0,0,22.68" style="fill:none;stroke-linecap:round;stroke-linejoin:round;stroke-width:1.08px" />
            <line x1="63.89" y1="344.81" x2="81.2" y2="344.81" style="fill: none;stroke-linecap: round;stroke-linejoin: round;stroke-width: 1.44px" />
            <line x1="55.3" y1="334.01" x2="48.52" y2="342.29" style="fill: none;stroke-linecap: round;stroke-linejoin: round;stroke-width: 1.08px" />
            <line x1="56.63" y1="347.69" x2="49.86" y2="355.73" style="fill: none;stroke-linecap: round;stroke-linejoin: round;stroke-width: 1.08px" />
            <line x1="48.52" y1="342.29" x2="56.63" y2="347.69" style="fill: none;stroke-linecap: round;stroke-linejoin: round;stroke-width: 1.08px" />
            <polygon points="56.99 347.45 57.24 355.01 53.73 355.85 50.22 355.73 56.99 347.45" style="fill-rule: evenodd" />
            <polygon points="54.82 333.89 57.36 335.09 57.24 347.57 48.16 341.93 54.82 333.89" style="fill-rule: evenodd" />
            <polygon points="56.75 349.25 62.2 349.49 61.96 350.81 60.38 352.25 56.63 355.25 56.75 349.25" style="fill-rule: evenodd" />
            <polygon points="56.63 341.69 63.17 341.57 63.53 345.17 63.29 347.69 62.32 349.97 56.39 349.73 56.63 341.69" style="fill-rule: evenodd" />
            <polygon points="56.99 334.61 59.41 336.17 61.84 338.93 62.8 341.21 63.05 342.05 56.27 341.93 56.99 334.61" style="fill-rule: evenodd" />
        </g>
    </g>
</svg>
