<?xml version="1.0" encoding="utf-8"?>
<svg xmlns="http://www.w3.org/2000/svg" width="20.32mm" height="128.50mm" viewBox="0 0 20.32 128.50">
    <g id="PanelLayer">
        <rect id="border_rect" width="20.32" height="128.5" x="0" y="0" style="display:inline;fill:#e6e5e5;fill-opacity:1;fill-rule:nonzero;stroke:#e6e5e5;stroke-width:0.7;stroke-linecap:round;stroke-linejoin:round;stroke-dasharray:none;stroke-opacity:1;image-rendering:auto" />
        <path id="text_title" d="M1.82858 10.4288V10.0285Q2.29401 10.2359 2.72086 10.2359Q3.38404 10.2359 3.38404 9.84524Q3.38404 9.70778 3.26587 9.6065Q3.14771 9.50521 2.72086 9.35087Q2.15896 9.14107 2.01306 8.96623Q1.86716 8.79139 1.86716 8.55264Q1.86716 8.22467 2.13605 8.03777Q2.40494 7.85088 2.88002 7.85088Q3.35751 7.85088 3.76989 8.02933L3.6252 8.38866Q3.18629 8.21502 2.85591 8.21502Q2.28678 8.21502 2.28678 8.53576Q2.28678 8.68287 2.40856 8.77089Q2.53034 8.85891 2.96925 9.01566Q3.47809 9.20135 3.64569 9.38102Q3.8133 9.56068 3.8133 9.82113Q3.8133 10.1829 3.53114 10.3891Q3.24899 10.5952 2.73292 10.5952Q2.13485 10.5952 1.82858 10.4288ZM5.5858 7.13947 4.9395 7.08882V6.79461H6.02712V10.2022L6.87599 10.2504V10.547H4.75622V10.2504L5.5858 10.2022ZM8.73772 10.5952Q8.21682 10.5952 7.88041 10.2202Q7.54399 9.84524 7.54399 9.21824Q7.54399 8.58399 7.87076 8.21744Q8.19753 7.85088 8.75219 7.85088Q9.27791 7.85088 9.61312 8.22467Q9.94832 8.59846 9.94832 9.21824Q9.94832 9.8573 9.61794 10.2263Q9.28755 10.5952 8.73772 10.5952ZM8.74736 10.2311Q9.49495 10.2311 9.49495 9.21824Q9.49495 8.21502 8.74254 8.21502Q7.99737 8.21502 7.99737 9.21824Q7.99737 10.2311 8.74736 10.2311ZM12.6903 10.1853V10.5181Q12.3768 10.5952 12.0826 10.5952Q11.2096 10.5952 11.2096 9.76566V8.22949H10.5657V8.00281L11.2096 7.88464L11.3953 7.19252H11.6485V7.89911H12.7047V8.22949H11.6485V9.76566Q11.6485 10.2359 12.1115 10.2359Q12.3358 10.2359 12.6903 10.1853ZM15.3334 10.547V8.84203Q15.3334 8.21502 14.7594 8.21502Q14.019 8.21502 14.019 9.17483V10.547H13.5801V6.79461H14.019V7.90876L13.9998 8.25602H14.0239Q14.2723 7.85088 14.8342 7.85088Q15.7723 7.85088 15.7723 8.81792V10.547Z" transform="scale(1.15,1)" style="fill:#5c3114;stroke:#5c3114;stroke-width:0.1;stroke-linejoin:bevel;" />
        <path id="text_apathy" d="M5.35065 36.5479 5.28691 36.286H5.27313Q5.1405 36.4531 5.00097 36.5177Q4.86144 36.5823 4.64096 36.5823Q4.36018 36.5823 4.20085 36.4342Q4.04151 36.286 4.04151 36.019Q4.04151 35.4472 4.92001 35.4196L5.26969 35.4075V35.2887Q5.26969 34.8822 4.84939 34.8822Q4.59617 34.8822 4.28439 35.0234L4.17587 34.7874Q4.51349 34.6221 4.8356 34.6221Q5.22662 34.6221 5.40146 34.7719Q5.5763 34.9218 5.5763 35.2525V36.5479ZM5.26624 35.6229 4.98719 35.6349Q4.64957 35.6487 4.50832 35.7409Q4.36707 35.833 4.36707 36.0225Q4.36707 36.3291 4.71158 36.3291Q4.9648 36.3291 5.11552 36.1887Q5.26624 36.0483 5.26624 35.7934ZM6.51164 36.3084H6.49097Q6.51164 36.5306 6.51164 36.5875V37.3954H6.19814V34.6565H6.45135L6.49786 34.9114H6.51164Q6.70112 34.6221 7.0663 34.6221Q7.41254 34.6221 7.60977 34.8796Q7.807 35.1371 7.807 35.5987Q7.807 36.0638 7.60891 36.3231Q7.41081 36.5823 7.0663 36.5823Q6.70974 36.5823 6.51164 36.3084ZM6.51164 35.5281V35.5987Q6.51164 35.9898 6.63136 36.156Q6.75108 36.3222 7.01291 36.3222Q7.48144 36.3222 7.48144 35.5953Q7.48144 34.8822 7.00946 34.8822Q6.74763 34.8822 6.63308 35.0337Q6.51853 35.1853 6.51164 35.5281ZM9.58467 36.5479 9.52093 36.286H9.50715Q9.37452 36.4531 9.23499 36.5177Q9.09547 36.5823 8.87498 36.5823Q8.5942 36.5823 8.43487 36.4342Q8.27553 36.286 8.27553 36.019Q8.27553 35.4472 9.15403 35.4196L9.50371 35.4075V35.2887Q9.50371 34.8822 9.08341 34.8822Q8.83019 34.8822 8.51841 35.0234L8.40989 34.7874Q8.74751 34.6221 9.06963 34.6221Q9.46065 34.6221 9.63548 34.7719Q9.81032 34.9218 9.81032 35.2525V36.5479ZM9.50026 35.6229 9.22121 35.6349Q8.88359 35.6487 8.74234 35.7409Q8.60109 35.833 8.60109 36.0225Q8.60109 36.3291 8.9456 36.3291Q9.19882 36.3291 9.34954 36.1887Q9.50026 36.0483 9.50026 35.7934ZM11.917 36.2895V36.5272Q11.6931 36.5823 11.4829 36.5823Q10.8594 36.5823 10.8594 35.9898V34.8925H10.3994V34.7306L10.8594 34.6462L10.992 34.1518H11.1729V34.6565H11.9273V34.8925H11.1729V35.9898Q11.1729 36.3257 11.5036 36.3257Q11.6638 36.3257 11.917 36.2895ZM13.8049 36.5479V35.33Q13.8049 34.8822 13.3949 34.8822Q12.8661 34.8822 12.8661 35.5677V36.5479H12.5526V33.8676H12.8661V34.6634L12.8523 34.9114H12.8696Q13.047 34.6221 13.4483 34.6221Q14.1184 34.6221 14.1184 35.3128V36.5479ZM14.5353 34.6565H14.8591L15.3104 35.7831Q15.4517 36.1362 15.4637 36.2826H15.4741Q15.5137 36.0897 15.6291 35.7796L16.0408 34.6565H16.3663L15.5481 36.7942Q15.4327 37.0939 15.2794 37.2446Q15.1261 37.3954 14.8557 37.3954Q14.7075 37.3954 14.5663 37.3661V37.1163Q14.6731 37.137 14.8005 37.137Q14.9659 37.137 15.0581 37.0664Q15.1502 36.9957 15.2226 36.8235L15.3225 36.5651Z" style="fill:#af5a20;stroke:#90491a;stroke-width:0.05;stroke-linejoin:bevel" />
        <g id="text_big" transform="translate(0,-5.2916669)" style="fill:#854116;stroke:#5f2f10;stroke-width:0.05;stroke-linejoin:bevel">
            <path d="M 3.15711,98.843067 H 3.140574 L 3.089587,99.034615 H 2.9063073 V 96.890389 H 3.15711 v 0.518142 q 0,0.111621 -0.011024,0.311436 H 3.15711 q 0.14745,-0.225998 0.443728,-0.225998 0.2769855,0 0.4340817,0.206706 0.1584743,0.205327 0.1584743,0.574641 0,0.37207 -0.1584743,0.580154 -0.1584743,0.206705 -0.4340817,0.206705 -0.2852537,0 -0.443728,-0.219108 z m 0,-0.567751 q 0,0.312815 0.095085,0.446484 0.096463,0.132292 0.3059243,0.132292 0.3748261,0 0.3748261,-0.581532 0,-0.570507 -0.3775822,-0.570507 -0.2135958,0 -0.3059243,0.129535 -0.092329,0.129536 -0.092329,0.443728 z" />
            <path d="m 5.2544826,96.898657 q 0.146072,0 0.146072,0.157096 0,0.07993 -0.044097,0.119889 -0.042719,0.03858 -0.1019748,0.03858 -0.14745,0 -0.14745,-0.158474 0,-0.157096 0.14745,-0.157096 z m -0.1267794,0.82131 -0.370692,-0.02894 V 97.52153 H 5.378506 v 1.316025 l 0.485069,0.02756 v 0.169499 H 4.6536584 v -0.169499 l 0.4740448,-0.02756 z" />
            <path d="m 7.6274626,97.52153 v 0.155718 l -0.2700953,0.03721 q 0.089573,0.117133 0.089573,0.293522 0,0.221864 -0.14745,0.354155 -0.146072,0.130914 -0.407899,0.130914 -0.075792,0 -0.1185112,-0.0083 -0.1378037,0.07717 -0.1378037,0.183279 0,0.115755 0.221864,0.115755 h 0.2576929 q 0.2397785,0 0.3665579,0.106109 0.1267794,0.106109 0.1267794,0.303168 0,0.51952 -0.778591,0.51952 -0.3004121,0 -0.4575083,-0.111621 -0.1557182,-0.110243 -0.1557182,-0.310059 0,-0.292143 0.3307289,-0.37207 -0.1322916,-0.06477 -0.1322916,-0.212217 0,-0.15434 0.183279,-0.264583 -0.1226453,-0.05099 -0.1929252,-0.168121 -0.07028,-0.118511 -0.07028,-0.257693 0,-0.250803 0.1460719,-0.38585 0.14745,-0.136426 0.4189233,-0.136426 0.1185112,0 0.2067056,0.02756 z m -0.7331157,0.799261 q 0.3073022,0 0.3073022,-0.316948 0,-0.329351 -0.3100583,-0.329351 -0.3100584,0 -0.3100584,0.333485 0,0.312814 0.3128145,0.312814 z m 0.1350476,0.689019 h -0.259071 q -0.3169485,0 -0.3169485,0.272851 0,0.239779 0.373448,0.239779 0.5443247,0 0.5443247,-0.307303 0,-0.121267 -0.068902,-0.163986 -0.068902,-0.04134 -0.2728514,-0.04134 z" />
        </g>
        <g id="text_small" transform="translate(-0.03503753,-5.4001521)" style="fill:#dc7f41;stroke:#b15b21;stroke-width:0.05;stroke-linejoin:bevel">
            <path d="M 10.674858,99.121464 V 98.89271 q 0.265962,0.118511 0.509874,0.118511 0.37896,0 0.37896,-0.223242 0,-0.07855 -0.06752,-0.136426 -0.06752,-0.05788 -0.311436,-0.146072 -0.321083,-0.119889 -0.405143,-0.219108 -0.08268,-0.100596 -0.08268,-0.237022 0,-0.187413 0.152962,-0.293522 0.15434,-0.107487 0.425814,-0.107487 0.272851,0 0.508495,0.101975 l -0.08268,0.205327 q -0.250803,-0.09922 -0.439594,-0.09922 -0.325217,0 -0.325217,0.183279 0,0.08406 0.0689,0.135047 0.07028,0.04961 0.321083,0.139182 0.290766,0.106109 0.38585,0.209462 0.09646,0.101975 0.09646,0.250803 0,0.206705 -0.16123,0.325216 -0.161231,0.117133 -0.456131,0.117133 -0.341753,0 -0.516764,-0.09508 z" />
            <path d="m 13.435067,99.188988 v -0.974273 q 0,-0.201193 -0.03721,-0.279741 -0.03583,-0.07855 -0.121267,-0.07855 -0.11989,0 -0.175011,0.114377 -0.05374,0.114377 -0.05374,0.383094 v 0.835091 h -0.221864 v -0.974273 q 0,-0.358289 -0.172254,-0.358289 -0.115755,0 -0.165365,0.110243 -0.04961,0.108865 -0.04961,0.438216 v 0.784103 h -0.223242 v -1.513085 h 0.175011 l 0.03721,0.203949 h 0.01378 q 0.09233,-0.23151 0.276985,-0.23151 0.224621,0 0.293522,0.250803 h 0.0083 q 0.10473,-0.250803 0.30179,-0.250803 0.176389,0 0.256315,0.128158 0.07993,0.126779 0.07993,0.424435 v 0.988053 z" />
            <path d="m 15.015675,99.188988 -0.05099,-0.209462 h -0.01102 q -0.106109,0.13367 -0.21773,0.186035 -0.111621,0.05099 -0.28801,0.05099 -0.22462,0 -0.352777,-0.118511 -0.12678,-0.118511 -0.12678,-0.332107 0,-0.457508 0.702799,-0.479557 l 0.279742,-0.0096 v -0.09508 q 0,-0.325217 -0.336241,-0.325217 -0.202572,0 -0.451997,0.112999 l -0.08682,-0.188791 q 0.270095,-0.132292 0.527788,-0.132292 0.312815,0 0.451997,0.119889 0.140559,0.11989 0.140559,0.384473 v 1.036284 z m -0.06752,-0.740006 -0.223242,0.0096 q -0.270096,0.01102 -0.383095,0.08544 -0.112999,0.07304 -0.112999,0.22462 0,0.245291 0.275608,0.245291 0.202571,0 0.32246,-0.111621 0.121268,-0.112999 0.121268,-0.316949 z" />
            <path d="m 16.209056,97.241821 -0.369314,-0.02894 v -0.16812 h 0.621494 v 1.947166 l 0.485069,0.02756 v 0.169499 h -1.211294 v -0.169499 l 0.474045,-0.02756 z" />
            <path d="m 17.902663,97.241821 -0.369314,-0.02894 v -0.16812 h 0.621495 v 1.947166 l 0.485069,0.02756 v 0.169499 h -1.211294 v -0.169499 l 0.474044,-0.02756 z" />
        </g>
        <g id="nlc_logo" transform="scale(0.25) translate(-34.55,135)" style="fill:#5c3114;stroke:#5c3114;">
            <polyline points="87 351.05 87 339.53 94.75 351.05 94.75 339.53" style="fill:none;stroke-linecap:round;stroke-linejoin:round;stroke-width:1.56px" />
            <polyline points="94.75 339.53 94.75 351.05 102.49 351.05" style="fill:none;stroke-linecap:round;stroke-linejoin:round;stroke-width:1.56px" />
            <path d="M108.79,349.13a2,2,0,0,1-1.94,1.92H103a2,2,0,0,1-1.94-1.92v-7.68a1.91,1.91,0,0,1,1.94-1.92h3.87a1.91,1.91,0,0,1,1.94,1.92" style="fill:none;stroke-linecap:round;stroke-linejoin:round;stroke-width:1.56px" />
            <path d="M52.28,356.21a11.34,11.34,0,1,0,0-22.68,11.34,11.34,0,1,0,0,22.68" style="fill:none;stroke-linecap:round;stroke-linejoin:round;stroke-width:1.08px" />
            <line x1="63.89" y1="344.81" x2="81.20" y2="344.81" style="fill: none;stroke-linecap: round;stroke-linejoin: round;stroke-width: 1.44px" />
            <line x1="55.30" y1="334.01" x2="48.52" y2="342.29" style="fill: none;stroke-linecap: round;stroke-linejoin: round;stroke-width: 1.08px" />
            <line x1="56.63" y1="347.69" x2="49.86" y2="355.73" style="fill: none;stroke-linecap: round;stroke-linejoin: round;stroke-width: 1.08px" />
            <line x1="48.52" y1="342.29" x2="56.63" y2="347.69" style="fill: none;stroke-linecap: round;stroke-linejoin: round;stroke-width: 1.08px" />
            <polygon points="56.99 347.45 57.24 355.01 53.73 355.85 50.22 355.73 56.99 347.45" style="fill-rule: evenodd" />
            <polygon points="54.82 333.89 57.36 335.09 57.24 347.57 48.16 341.93 54.82 333.89" style="fill-rule: evenodd" />
            <polygon points="56.75 349.25 62.2 349.49 61.96 350.81 60.38 352.25 56.63 355.25 56.75 349.25" style="fill-rule: evenodd" />
            <polygon points="56.63 341.69 63.17 341.57 63.53 345.17 63.29 347.69 62.32 349.97 56.39 349.73 56.63 341.69" style="fill-rule: evenodd" />
            <polygon points="56.99 334.61 59.41 336.17 61.84 338.93 62.8 341.21 63.05 342.05 56.27 341.93 56.99 334.61" style="fill-rule: evenodd" />
        </g>
    </g>
</svg>
