<?xml version="1.0" encoding="utf-8"?>
<svg xmlns="http://www.w3.org/2000/svg" width="20.32mm" height="128.50mm" viewBox="0 0 20.32 128.50">
    <g id="PanelLayer">
        <rect id="border_rect" width="20.32" height="128.5" x="0" y="0" style="display:inline;fill:#e6e5e5;fill-opacity:1;fill-rule:nonzero;stroke:#e6e5e5;stroke-width:0.7;stroke-linecap:round;stroke-linejoin:round;stroke-dasharray:none;stroke-opacity:1;image-rendering:auto" />
        <path id="text_title" d="M1.82858 10.4288V10.0285Q2.29401 10.2359 2.72086 10.2359Q3.38404 10.2359 3.38404 9.84524Q3.38404 9.70778 3.26587 9.6065Q3.14771 9.50521 2.72086 9.35087Q2.15896 9.14107 2.01306 8.96623Q1.86716 8.79139 1.86716 8.55264Q1.86716 8.22467 2.13605 8.03777Q2.40494 7.85088 2.88002 7.85088Q3.35751 7.85088 3.76989 8.02933L3.6252 8.38866Q3.18629 8.21502 2.85591 8.21502Q2.28678 8.21502 2.28678 8.53576Q2.28678 8.68287 2.40856 8.77089Q2.53034 8.85891 2.96925 9.01566Q3.47809 9.20135 3.64569 9.38102Q3.8133 9.56068 3.8133 9.82113Q3.8133 10.1829 3.53114 10.3891Q3.24899 10.5952 2.73292 10.5952Q2.13485 10.5952 1.82858 10.4288ZM5.5858 7.13947 4.9395 7.08882V6.79461H6.02712V10.2022L6.87599 10.2504V10.547H4.75622V10.2504L5.5858 10.2022ZM8.73772 10.5952Q8.21682 10.5952 7.88041 10.2202Q7.54399 9.84524 7.54399 9.21824Q7.54399 8.58399 7.87076 8.21744Q8.19753 7.85088 8.75219 7.85088Q9.27791 7.85088 9.61312 8.22467Q9.94832 8.59846 9.94832 9.21824Q9.94832 9.8573 9.61794 10.2263Q9.28755 10.5952 8.73772 10.5952ZM8.74736 10.2311Q9.49495 10.2311 9.49495 9.21824Q9.49495 8.21502 8.74254 8.21502Q7.99737 8.21502 7.99737 9.21824Q7.99737 10.2311 8.74736 10.2311ZM12.6903 10.1853V10.5181Q12.3768 10.5952 12.0826 10.5952Q11.2096 10.5952 11.2096 9.76566V8.22949H10.5657V8.00281L11.2096 7.88464L11.3953 7.19252H11.6485V7.89911H12.7047V8.22949H11.6485V9.76566Q11.6485 10.2359 12.1115 10.2359Q12.3358 10.2359 12.6903 10.1853ZM15.3334 10.547V8.84203Q15.3334 8.21502 14.7594 8.21502Q14.019 8.21502 14.019 9.17483V10.547H13.5801V6.79461H14.019V7.90876L13.9998 8.25602H14.0239Q14.2723 7.85088 14.8342 7.85088Q15.7723 7.85088 15.7723 8.81792V10.547Z" transform="scale(1.15,1)" style="fill:#5c3114;stroke:#5c3114;stroke-width:0.1;stroke-linejoin:bevel;" />
        <path id="text_inertia" d="M3.84083 15.0727Q4.02342 15.0727 4.02342 15.2691Q4.02342 15.369 3.96916 15.4181Q3.9149 15.4672 3.84083 15.4672Q3.65652 15.4672 3.65652 15.2691Q3.65652 15.0727 3.84083 15.0727ZM3.68236 16.0994 3.21899 16.0632V15.8513H3.99586V17.4963L4.6022 17.5308V17.7427H3.0898V17.5308L3.68236 17.4963ZM6.39537 17.7427V16.5248Q6.39537 16.077 5.98541 16.077Q5.45658 16.077 5.45658 16.7625V17.7427H5.14308V15.8513H5.39629L5.4428 16.1062H5.46003Q5.63745 15.8169 6.0388 15.8169Q6.70888 15.8169 6.70888 16.5076V17.7427ZM8.8724 16.8573H7.53914Q7.55292 17.5032 8.1317 17.5032Q8.4676 17.5032 8.76904 17.3723V17.6479Q8.4831 17.7771 8.14204 17.7771Q7.72001 17.7771 7.4668 17.5196Q7.21358 17.2621 7.21358 16.8108Q7.21358 16.3526 7.44699 16.0847Q7.68039 15.8169 8.07141 15.8169Q8.43659 15.8169 8.65449 16.0477Q8.8724 16.2785 8.8724 16.6626ZM7.54603 16.6023H8.53305Q8.53305 16.077 8.06452 16.077Q7.59082 16.077 7.54603 16.6023ZM10.9257 15.8944 10.8413 16.1803Q10.6294 16.1028 10.4554 16.1028Q10.1746 16.1028 10.0222 16.2621Q9.86975 16.4215 9.86975 16.7229V17.7427H9.55625V15.8513H9.81118L9.84908 16.1975H9.86286Q9.99377 15.9926 10.1436 15.9047Q10.2935 15.8169 10.5123 15.8169Q10.7155 15.8169 10.9257 15.8944ZM12.9755 17.4843V17.722Q12.7516 17.7771 12.5414 17.7771Q11.9179 17.7771 11.9179 17.1846V16.0873H11.4579V15.9254L11.9179 15.841L12.0505 15.3466H12.2314V15.8513H12.9858V16.0873H12.2314V17.1846Q12.2314 17.5205 12.5621 17.5205Q12.7223 17.5205 12.9755 17.4843ZM14.4259 15.0727Q14.6085 15.0727 14.6085 15.2691Q14.6085 15.369 14.5542 15.4181Q14.5 15.4672 14.4259 15.4672Q14.2416 15.4672 14.2416 15.2691Q14.2416 15.0727 14.4259 15.0727ZM14.2674 16.0994 13.804 16.0632V15.8513H14.5809V17.4963L15.1873 17.5308V17.7427H13.6749V17.5308L14.2674 17.4963ZM16.9942 17.7427 16.9305 17.4808H16.9167Q16.7841 17.6479 16.6445 17.7125Q16.505 17.7771 16.2845 17.7771Q16.0037 17.7771 15.8444 17.629Q15.6851 17.4808 15.6851 17.2138Q15.6851 16.642 16.5636 16.6144L16.9132 16.6023V16.4835Q16.9132 16.077 16.4929 16.077Q16.2397 16.077 15.928 16.2182L15.8194 15.9822Q16.157 15.8169 16.4792 15.8169Q16.8702 15.8169 17.045 15.9667Q17.2199 16.1166 17.2199 16.4473V17.7427ZM16.9098 16.8177 16.6308 16.8297Q16.2931 16.8435 16.1519 16.9357Q16.0106 17.0278 16.0106 17.2173Q16.0106 17.5239 16.3551 17.5239Q16.6084 17.5239 16.7591 17.3835Q16.9098 17.2431 16.9098 16.9882Z" style="fill:#af5a20;stroke:#90491a;stroke-width:0.05;stroke-linejoin:bevel" />
        <g id="text_big" transform="translate(0,-8.79)" style="fill:#854116;stroke:#5f2f10;stroke-width:0.05;stroke-linejoin:bevel">
            <path d="M 3.15711,98.843067 H 3.140574 L 3.089587,99.034615 H 2.9063073 V 96.890389 H 3.15711 v 0.518142 q 0,0.111621 -0.011024,0.311436 H 3.15711 q 0.14745,-0.225998 0.443728,-0.225998 0.2769855,0 0.4340817,0.206706 0.1584743,0.205327 0.1584743,0.574641 0,0.37207 -0.1584743,0.580154 -0.1584743,0.206705 -0.4340817,0.206705 -0.2852537,0 -0.443728,-0.219108 z m 0,-0.567751 q 0,0.312815 0.095085,0.446484 0.096463,0.132292 0.3059243,0.132292 0.3748261,0 0.3748261,-0.581532 0,-0.570507 -0.3775822,-0.570507 -0.2135958,0 -0.3059243,0.129535 -0.092329,0.129536 -0.092329,0.443728 z" />
            <path d="m 5.2544826,96.898657 q 0.146072,0 0.146072,0.157096 0,0.07993 -0.044097,0.119889 -0.042719,0.03858 -0.1019748,0.03858 -0.14745,0 -0.14745,-0.158474 0,-0.157096 0.14745,-0.157096 z m -0.1267794,0.82131 -0.370692,-0.02894 V 97.52153 H 5.378506 v 1.316025 l 0.485069,0.02756 v 0.169499 H 4.6536584 v -0.169499 l 0.4740448,-0.02756 z" />
            <path d="m 7.6274626,97.52153 v 0.155718 l -0.2700953,0.03721 q 0.089573,0.117133 0.089573,0.293522 0,0.221864 -0.14745,0.354155 -0.146072,0.130914 -0.407899,0.130914 -0.075792,0 -0.1185112,-0.0083 -0.1378037,0.07717 -0.1378037,0.183279 0,0.115755 0.221864,0.115755 h 0.2576929 q 0.2397785,0 0.3665579,0.106109 0.1267794,0.106109 0.1267794,0.303168 0,0.51952 -0.778591,0.51952 -0.3004121,0 -0.4575083,-0.111621 -0.1557182,-0.110243 -0.1557182,-0.310059 0,-0.292143 0.3307289,-0.37207 -0.1322916,-0.06477 -0.1322916,-0.212217 0,-0.15434 0.183279,-0.264583 -0.1226453,-0.05099 -0.1929252,-0.168121 -0.07028,-0.118511 -0.07028,-0.257693 0,-0.250803 0.1460719,-0.38585 0.14745,-0.136426 0.4189233,-0.136426 0.1185112,0 0.2067056,0.02756 z m -0.7331157,0.799261 q 0.3073022,0 0.3073022,-0.316948 0,-0.329351 -0.3100583,-0.329351 -0.3100584,0 -0.3100584,0.333485 0,0.312814 0.3128145,0.312814 z m 0.1350476,0.689019 h -0.259071 q -0.3169485,0 -0.3169485,0.272851 0,0.239779 0.373448,0.239779 0.5443247,0 0.5443247,-0.307303 0,-0.121267 -0.068902,-0.163986 -0.068902,-0.04134 -0.2728514,-0.04134 z" />
        </g>
        <g id="text_small" transform="translate(-0.03503753,-8.9)" style="fill:#dc7f41;stroke:#b15b21;stroke-width:0.05;stroke-linejoin:bevel">
            <path d="M 10.674858,99.121464 V 98.89271 q 0.265962,0.118511 0.509874,0.118511 0.37896,0 0.37896,-0.223242 0,-0.07855 -0.06752,-0.136426 -0.06752,-0.05788 -0.311436,-0.146072 -0.321083,-0.119889 -0.405143,-0.219108 -0.08268,-0.100596 -0.08268,-0.237022 0,-0.187413 0.152962,-0.293522 0.15434,-0.107487 0.425814,-0.107487 0.272851,0 0.508495,0.101975 l -0.08268,0.205327 q -0.250803,-0.09922 -0.439594,-0.09922 -0.325217,0 -0.325217,0.183279 0,0.08406 0.0689,0.135047 0.07028,0.04961 0.321083,0.139182 0.290766,0.106109 0.38585,0.209462 0.09646,0.101975 0.09646,0.250803 0,0.206705 -0.16123,0.325216 -0.161231,0.117133 -0.456131,0.117133 -0.341753,0 -0.516764,-0.09508 z" />
            <path d="m 13.435067,99.188988 v -0.974273 q 0,-0.201193 -0.03721,-0.279741 -0.03583,-0.07855 -0.121267,-0.07855 -0.11989,0 -0.175011,0.114377 -0.05374,0.114377 -0.05374,0.383094 v 0.835091 h -0.221864 v -0.974273 q 0,-0.358289 -0.172254,-0.358289 -0.115755,0 -0.165365,0.110243 -0.04961,0.108865 -0.04961,0.438216 v 0.784103 h -0.223242 v -1.513085 h 0.175011 l 0.03721,0.203949 h 0.01378 q 0.09233,-0.23151 0.276985,-0.23151 0.224621,0 0.293522,0.250803 h 0.0083 q 0.10473,-0.250803 0.30179,-0.250803 0.176389,0 0.256315,0.128158 0.07993,0.126779 0.07993,0.424435 v 0.988053 z" />
            <path d="m 15.015675,99.188988 -0.05099,-0.209462 h -0.01102 q -0.106109,0.13367 -0.21773,0.186035 -0.111621,0.05099 -0.28801,0.05099 -0.22462,0 -0.352777,-0.118511 -0.12678,-0.118511 -0.12678,-0.332107 0,-0.457508 0.702799,-0.479557 l 0.279742,-0.0096 v -0.09508 q 0,-0.325217 -0.336241,-0.325217 -0.202572,0 -0.451997,0.112999 l -0.08682,-0.188791 q 0.270095,-0.132292 0.527788,-0.132292 0.312815,0 0.451997,0.119889 0.140559,0.11989 0.140559,0.384473 v 1.036284 z m -0.06752,-0.740006 -0.223242,0.0096 q -0.270096,0.01102 -0.383095,0.08544 -0.112999,0.07304 -0.112999,0.22462 0,0.245291 0.275608,0.245291 0.202571,0 0.32246,-0.111621 0.121268,-0.112999 0.121268,-0.316949 z" />
            <path d="m 16.209056,97.241821 -0.369314,-0.02894 v -0.16812 h 0.621494 v 1.947166 l 0.485069,0.02756 v 0.169499 h -1.211294 v -0.169499 l 0.474045,-0.02756 z" />
            <path d="m 17.902663,97.241821 -0.369314,-0.02894 v -0.16812 h 0.621495 v 1.947166 l 0.485069,0.02756 v 0.169499 h -1.211294 v -0.169499 l 0.474044,-0.02756 z" />
        </g>
        <g id="nlc_logo" transform="scale(0.25) translate(-34.55,135)" style="fill:#5c3114;stroke:#5c3114;">
            <polyline points="87 351.05 87 339.53 94.75 351.05 94.75 339.53" style="fill:none;stroke-linecap:round;stroke-linejoin:round;stroke-width:1.56px" />
            <polyline points="94.75 339.53 94.75 351.05 102.49 351.05" style="fill:none;stroke-linecap:round;stroke-linejoin:round;stroke-width:1.56px" />
            <path d="M108.79,349.13a2,2,0,0,1-1.94,1.92H103a2,2,0,0,1-1.94-1.92v-7.68a1.91,1.91,0,0,1,1.94-1.92h3.87a1.91,1.91,0,0,1,1.94,1.92" style="fill:none;stroke-linecap:round;stroke-linejoin:round;stroke-width:1.56px" />
            <path d="M52.28,356.21a11.34,11.34,0,1,0,0-22.68,11.34,11.34,0,1,0,0,22.68" style="fill:none;stroke-linecap:round;stroke-linejoin:round;stroke-width:1.08px" />
            <line x1="63.89" y1="344.81" x2="81.20" y2="344.81" style="fill: none;stroke-linecap: round;stroke-linejoin: round;stroke-width: 1.44px" />
            <line x1="55.30" y1="334.01" x2="48.52" y2="342.29" style="fill: none;stroke-linecap: round;stroke-linejoin: round;stroke-width: 1.08px" />
            <line x1="56.63" y1="347.69" x2="49.86" y2="355.73" style="fill: none;stroke-linecap: round;stroke-linejoin: round;stroke-width: 1.08px" />
            <line x1="48.52" y1="342.29" x2="56.63" y2="347.69" style="fill: none;stroke-linecap: round;stroke-linejoin: round;stroke-width: 1.08px" />
            <polygon points="56.99 347.45 57.24 355.01 53.73 355.85 50.22 355.73 56.99 347.45" style="fill-rule: evenodd" />
            <polygon points="54.82 333.89 57.36 335.09 57.24 347.57 48.16 341.93 54.82 333.89" style="fill-rule: evenodd" />
            <polygon points="56.75 349.25 62.2 349.49 61.96 350.81 60.38 352.25 56.63 355.25 56.75 349.25" style="fill-rule: evenodd" />
            <polygon points="56.63 341.69 63.17 341.57 63.53 345.17 63.29 347.69 62.32 349.97 56.39 349.73 56.63 341.69" style="fill-rule: evenodd" />
            <polygon points="56.99 334.61 59.41 336.17 61.84 338.93 62.8 341.21 63.05 342.05 56.27 341.93 56.99 334.61" style="fill-rule: evenodd" />
        </g>
    </g>
</svg>
