<?xml version="1.0" encoding="UTF-8" standalone="no"?>
<!DOCTYPE svg PUBLIC "-//W3C//DTD SVG 1.1//EN" "http://www.w3.org/Graphics/SVG/1.1/DTD/svg11.dtd">
<svg width="100%" height="100%" viewBox="0 0 60 380" version="1.1" xmlns="http://www.w3.org/2000/svg" xmlns:xlink="http://www.w3.org/1999/xlink" xml:space="preserve" xmlns:serif="http://www.serif.com/" style="fill-rule:evenodd;clip-rule:evenodd;stroke-linecap:round;stroke-linejoin:round;stroke-miterlimit:10;">
    <g id="MinMax" transform="matrix(1,0,0,1,-15,0)">
        <g transform="matrix(0.671779,0,0,1,14.5399,0)">
            <rect x="0" y="0" width="90" height="380" style="fill:rgb(240,240,240);"/>
        </g>
        <g transform="matrix(0.794549,1.47104e-18,-1.47104e-18,-0.782537,-62.0438,455.124)">
            <rect x="96.96" y="96" width="75.52" height="485.6"/>
        </g>
        <g transform="matrix(0,0.782537,-0.782537,0,36.7057,14.8995)">
            <circle cx="-7.68" cy="0" r="7.68" style="fill:rgb(193,163,119);"/>
        </g>
        <g transform="matrix(0,0.782537,-0.782537,0,36.7057,377.246)">
            <circle cx="-7.68" cy="0" r="7.68" style="fill:rgb(193,163,119);"/>
        </g>
        <g transform="matrix(0.782537,0,0,-0.782537,-61.3305,595.605)">
            <path d="M102.56,377.6L129.12,377.6L129.12,351.04L102.56,351.04L102.56,377.6ZM140.32,377.6L166.88,377.6L166.88,351.04L140.32,351.04L140.32,377.6ZM140.32,506.08L166.88,506.08L166.88,479.52L140.32,479.52L140.32,506.08ZM140.32,441.76L166.88,441.76L166.88,415.2L140.32,415.2L140.32,441.76Z" style="fill:rgb(193,163,119);"/>
        </g>
        <g transform="matrix(0.782537,0,0,-0.782537,-61.3305,812.962)">
            <path d="M140.32,559.84L140.32,575.04L150.56,559.84L150.56,575.04" style="fill:none;fill-rule:nonzero;stroke:rgb(193,163,119);stroke-width:1.99px;"/>
        </g>
        <g transform="matrix(0.782537,0,0,-0.782537,-61.3305,812.962)">
            <path d="M150.56,575.04L150.56,559.84L160.64,559.84" style="fill:none;fill-rule:nonzero;stroke:rgb(193,163,119);stroke-width:1.99px;"/>
        </g>
        <g transform="matrix(0.782537,0,0,-0.782537,70.8869,364.975)">
            <path d="M0,-10.08C0,-11.52 -1.12,-12.64 -2.56,-12.64L-7.52,-12.64C-8.96,-12.64 -10.08,-11.52 -10.08,-10.08L-10.08,0C-10.08,1.44 -8.96,2.56 -7.52,2.56L-2.56,2.56C-1.12,2.56 0,1.44 0,0" style="fill:none;fill-rule:nonzero;stroke:rgb(193,163,119);stroke-width:1.99px;"/>
        </g>
        <g transform="matrix(-0.782537,0,0,-0.782537,35.9545,333.048)">
            <path d="M-0.16,-30.24C8.32,-30.24 15.04,-23.36 15.04,-15.04C15.04,-6.72 8.32,0 -0.16,0C-8.48,0 -15.2,-6.72 -15.2,-15.04C-15.2,-23.36 -8.48,-30.24 -0.16,-30.24" style="fill:none;fill-rule:nonzero;stroke:rgb(193,163,119);stroke-width:1.38px;"/>
        </g>
        <g transform="matrix(0.782537,0,0,-0.782537,-61.3305,764.758)">
            <path d="M139.68,536.64L162.72,536.64" style="fill:none;fill-rule:nonzero;stroke:rgb(193,163,119);stroke-width:1.84px;"/>
        </g>
        <g transform="matrix(-0.49313,0.607608,-0.607608,-0.49313,417.319,522.876)">
            <path d="M116.731,527.76L130.949,527.76" style="fill:none;fill-rule:nonzero;stroke:rgb(193,163,119);stroke-width:1.38px;"/>
        </g>
        <g transform="matrix(-0.497464,0.604064,-0.604064,-0.497464,429.208,547.784)">
            <path d="M118.553,545.92L132.647,545.92" style="fill:none;fill-rule:nonzero;stroke:rgb(193,163,119);stroke-width:1.38px;"/>
        </g>
        <g transform="matrix(0.649616,0.436306,-0.436306,0.649616,189.492,-58.1771)">
            <path d="M118.263,536.88L131.177,536.88" style="fill:none;fill-rule:nonzero;stroke:rgb(193,163,119);stroke-width:1.38px;"/>
        </g>
        <g transform="matrix(0.782537,0,0,-0.782537,-61.3305,765.008)">
            <path d="M130.4,550.88C140.64,544.96 142.72,533.92 134.88,526.08C133.6,524.8 132.16,523.68 130.4,522.72L130.4,550.88Z" style="fill:rgb(193,163,119);"/>
        </g>
        <g transform="matrix(0.0244428,0.782155,-0.782155,0.0244428,461.303,239.935)">
            <path d="M120.698,541.345L130.943,541.345L131.917,546.017L131.452,550.645L120.698,541.345Z" style="fill:rgb(193,163,119);"/>
        </g>
        <g transform="matrix(0.699924,0.349957,-0.349957,0.699924,134.897,-74.9984)">
            <path d="M123.466,521.791L127.044,521.791L134.342,536.746L120.389,535.314L123.466,521.791Z" style="fill:rgb(193,163,119);"/>
        </g>
        <g transform="matrix(0.782537,0,0,-0.782537,-61.3305,595.73)">
            <rect x="102.56" y="415.36" width="26.56" height="26.56" style="fill:rgb(193,163,119);"/>
        </g>
        <g transform="matrix(0.782537,0,0,-0.782537,23.9347,26.7941)">
            <path d="M0,-0.16C0.96,-0.16 1.76,-0.96 1.76,-1.92L1.76,-3.84C1.76,-4.8 0.96,-5.6 0,-5.6L-3.68,-5.6C-4.64,-5.6 -5.6,-4.8 -5.6,-3.84M0,-0.16L-3.68,-0.16C-4.64,-0.16 -5.6,0.64 -5.6,1.76L-5.6,3.52C-5.6,4.48 -4.64,5.44 -3.68,5.44L0,5.44C0.96,5.44 1.76,4.48 1.76,3.52M5.6,5.44L5.6,-5.6M5.6,5.44L11.04,5.44C12,5.44 12.96,4.48 12.96,3.52L12.96,1.76C12.96,0.64 12,-0.16 11.04,-0.16L5.6,-0.16M16.64,5.44L16.64,-5.6L24,-5.6M29.44,5.44L33.12,5.44M31.36,5.44L31.36,-5.6M29.44,-5.6L33.12,-5.6M44.16,-0.16C45.28,-0.16 46.08,-0.96 46.08,-1.92L46.08,-3.84C46.08,-4.8 45.28,-5.6 44.16,-5.6L40.48,-5.6C39.52,-5.6 38.72,-4.8 38.72,-3.84M44.16,-0.16L40.48,-0.16C39.52,-0.16 38.72,0.64 38.72,1.76L38.72,3.52C38.72,4.48 39.52,5.44 40.48,5.44L44.16,5.44C45.28,5.44 46.08,4.48 46.08,3.52M49.76,5.44L49.76,-5.6M49.76,-0.16L57.12,-0.16M57.12,5.44L57.12,-5.6" style="fill:none;fill-rule:nonzero;stroke:rgb(193,163,119);stroke-width:1.38px;"/>
        </g>
        <g transform="matrix(0.782537,0,0,-0.782537,24.8111,92.5272)">
            <path d="M0,4.8L1.76,4.8M0.8,4.8L0.8,0M0,0L1.76,0M4.16,0L4.16,4.8L7.36,0L7.36,4.8M8.96,4C8.96,4.48 9.44,4.8 9.92,4.8L11.52,4.8C12,4.8 12.32,4.48 12.32,4L12.32,3.2C12.32,2.72 12,2.4 11.52,2.4L9.92,2.4M8.96,1.6C8.96,2.08 9.44,2.4 9.92,2.4M8.96,1.6L8.96,0L12.32,0" style="fill:none;fill-rule:nonzero;stroke:rgb(193,163,119);stroke-width:0.61px;"/>
        </g>
        <g transform="matrix(0.782537,0,0,-0.782537,24.8111,142.86)">
            <path d="M0,4.96L1.76,4.96M0.8,4.96L0.8,0M0,0L1.76,0M4.16,0L4.16,4.96L7.36,0L7.36,4.96M8.96,4.16C8.96,4.64 9.44,4.96 9.92,4.96L11.52,4.96C12,4.96 12.32,4.64 12.32,4.16L12.32,3.36C12.32,2.88 12,2.4 11.52,2.4L10.72,2.4M11.52,2.4C12,2.4 12.32,2.08 12.32,1.6L12.32,0.8C12.32,0.32 12,0 11.52,0L9.92,0C9.44,0 8.96,0.32 8.96,0.8" style="fill:none;fill-rule:nonzero;stroke:rgb(193,163,119);stroke-width:0.61px;"/>
        </g>
        <g transform="matrix(0.782537,0,0,-0.782537,49.9775,41.6936)">
            <path d="M0,3.36C0,3.84 0.32,4.16 0.8,4.16L2.4,4.16C2.88,4.16 3.2,3.84 3.2,3.36L3.2,2.56C3.2,2.08 2.88,1.76 2.4,1.76L0.8,1.76M0,0.96C0,1.28 0.32,1.76 0.8,1.76M0,0.96L0,-0.8L3.2,-0.8M4.96,-0.8L8.16,4.16M10.56,3.36L11.36,4.16L11.36,-0.8M10.56,-0.8L12.16,-0.8M14.72,3.36C14.72,3.84 15.04,4.16 15.52,4.16L17.12,4.16C17.6,4.16 17.92,3.84 17.92,3.36L17.92,2.56C17.92,2.08 17.6,1.76 17.12,1.76L16.32,1.76M17.12,1.76C17.6,1.76 17.92,1.28 17.92,0.96L17.92,-0C17.92,-0.32 17.6,-0.8 17.12,-0.8L15.52,-0.8C15.04,-0.8 14.72,-0.32 14.72,-0M19.52,1.76L22.88,1.76M21.12,3.36L21.12,-0" style="fill:none;fill-rule:nonzero;stroke:rgb(193,163,119);stroke-width:0.61px;"/>
        </g>
        <g transform="matrix(0,0.782537,-0.782537,0,29.256,170.092)">
            <ellipse cx="-13.28" cy="-0.08" rx="13.2" ry="13.28" style="fill:rgb(193,163,119);"/>
        </g>
        <g transform="matrix(0.782537,0,0,-0.782537,24.8111,42.3196)">
            <path d="M0,4.96L1.76,4.96M0.8,4.96L0.8,0M0,0L1.76,0M4.16,0L4.16,4.96L7.36,0L7.36,4.96M9.92,4.16L10.72,4.96L10.72,0M9.92,0L11.52,0" style="fill:none;fill-rule:nonzero;stroke:rgb(193,163,119);stroke-width:0.61px;"/>
        </g>
        <g transform="matrix(0.782537,0,0,-0.782537,-61.3305,394.524)">
            <rect x="140.32" y="286.88" width="26.56" height="26.4" style="fill:rgb(193,163,119);"/>
        </g>
        <g transform="matrix(0.782537,0,0,-0.782537,49.9775,91.9012)">
            <path d="M0,3.2C0,3.68 0.32,4 0.8,4L2.4,4C2.88,4 3.2,3.68 3.2,3.2L3.2,2.4C3.2,1.92 2.88,1.6 2.4,1.6L0.8,1.6M0,0.8C0,1.28 0.32,1.6 0.8,1.6M0,0.8L0,-0.8L3.2,-0.8M4.96,-0.8L8.16,4M10.56,3.2L11.36,4L11.36,-0.8M10.56,-0.8L12.16,-0.8M14.72,3.2C14.72,3.68 15.04,4 15.52,4L17.12,4C17.6,4 17.92,3.68 17.92,3.2L17.92,2.4C17.92,1.92 17.6,1.6 17.12,1.6L16.32,1.6M17.12,1.6C17.6,1.6 17.92,1.28 17.92,0.8L17.92,-0C17.92,-0.48 17.6,-0.8 17.12,-0.8L15.52,-0.8C15.04,-0.8 14.72,-0.48 14.72,-0M19.52,1.6L22.88,1.6" style="fill:none;fill-rule:nonzero;stroke:rgb(193,163,119);stroke-width:0.61px;"/>
        </g>
        <g transform="matrix(0,0.782537,-0.782537,0,29.3812,69.5519)">
            <ellipse cx="-13.28" cy="0.08" rx="13.2" ry="13.28" style="fill:rgb(193,163,119);"/>
        </g>
        <g transform="matrix(0.782537,0,0,-0.782537,-61.3305,243.776)">
            <path d="M140.32,184.96L166.88,184.96L166.88,158.4L140.32,158.4L140.32,184.96ZM140.32,249.12L166.88,249.12L166.88,222.72L140.32,222.72L140.32,249.12Z" style="fill:rgb(193,163,119);"/>
        </g>
        <g transform="matrix(0,0.782537,-0.782537,0,29.3186,119.822)">
            <circle cx="-13.28" cy="0" r="13.28" style="fill:rgb(193,163,119);"/>
        </g>
        <g transform="matrix(0.782537,0,0,-0.782537,21.055,242.774)">
            <path d="M0,3.36L0.8,4.16L0.8,-0.8M0,-0.8L1.6,-0.8M4,-0.8L7.36,4.16M8.96,3.36C8.96,3.68 9.28,4.16 9.76,4.16L11.36,4.16C11.84,4.16 12.16,3.68 12.16,3.36L12.16,2.4C12.16,2.08 11.84,1.6 11.36,1.6L9.76,1.6M8.96,0.8C8.96,1.28 9.28,1.6 9.76,1.6M8.96,0.8L8.96,-0.8L12.16,-0.8M13.76,3.36C13.76,3.68 14.24,4.16 14.72,4.16L16.32,4.16C16.8,4.16 17.12,3.68 17.12,3.36L17.12,2.4C17.12,2.08 16.8,1.6 16.32,1.6L15.52,1.6M16.32,1.6C16.8,1.6 17.12,1.28 17.12,0.8L17.12,-0C17.12,-0.48 16.8,-0.8 16.32,-0.8L14.72,-0.8C14.24,-0.8 13.76,-0.48 13.76,-0M18.72,1.6L21.92,1.6M20.32,3.36L20.32,-0" style="fill:none;fill-rule:nonzero;stroke:rgb(193,163,119);stroke-width:0.61px;"/>
        </g>
        <g transform="matrix(0.782537,0,0,-0.782537,21.055,293.107)">
            <path d="M0,3.36L0.8,4.16L0.8,-0.8M0,-0.8L1.6,-0.8M4,-0.8L7.36,4.16M8.96,3.36C8.96,3.84 9.28,4.16 9.76,4.16L11.36,4.16C11.84,4.16 12.16,3.84 12.16,3.36L12.16,2.56C12.16,2.08 11.84,1.76 11.36,1.76L9.76,1.76M8.96,0.96C8.96,1.28 9.28,1.76 9.76,1.76M8.96,0.96L8.96,-0.8L12.16,-0.8M13.76,3.36C13.76,3.84 14.24,4.16 14.72,4.16L16.32,4.16C16.8,4.16 17.12,3.84 17.12,3.36L17.12,2.56C17.12,2.08 16.8,1.76 16.32,1.76L15.52,1.76M16.32,1.76C16.8,1.76 17.12,1.28 17.12,0.96L17.12,0.16C17.12,-0.32 16.8,-0.8 16.32,-0.8L14.72,-0.8C14.24,-0.8 13.76,-0.32 13.76,0.16M18.72,1.76L21.92,1.76" style="fill:none;fill-rule:nonzero;stroke:rgb(193,163,119);stroke-width:0.61px;"/>
        </g>
        <g transform="matrix(0.782537,0,0,-0.782537,49.9775,192.442)">
            <path d="M0,3.2C0,3.68 0.32,4 0.8,4L2.4,4C2.88,4 3.2,3.68 3.2,3.2L3.2,2.4C3.2,1.92 2.88,1.6 2.4,1.6L1.6,1.6M2.4,1.6C2.88,1.6 3.2,1.28 3.2,0.8L3.2,-0C3.2,-0.48 2.88,-0.8 2.4,-0.8L0.8,-0.8C0.32,-0.8 0,-0.48 0,-0M4.96,-0.8L8.16,4M10.56,3.2L11.36,4L11.36,-0.8M10.56,-0.8L12.16,-0.8M14.72,3.2C14.72,3.68 15.04,4 15.52,4L17.12,4C17.6,4 17.92,3.68 17.92,3.2L17.92,2.4C17.92,1.92 17.6,1.6 17.12,1.6L15.52,1.6M14.72,0.8C14.72,1.28 15.04,1.6 15.52,1.6M14.72,0.8L14.72,-0.8L17.92,-0.8M19.52,1.6L22.88,1.6" style="fill:none;fill-rule:nonzero;stroke:rgb(193,163,119);stroke-width:0.61px;"/>
        </g>
        <g transform="matrix(0.782537,0,0,-0.782537,52.4817,293.107)">
            <path d="M0,3.36L0.8,4.16L0.8,-0.8M0,-0.8L1.76,-0.8M4.16,3.36C4.16,3.84 4.48,4.16 4.96,4.16L6.56,4.16C7.04,4.16 7.36,3.84 7.36,3.36L7.36,2.56C7.36,2.08 7.04,1.76 6.56,1.76L4.96,1.76M4.16,0.96C4.16,1.28 4.48,1.76 4.96,1.76M4.16,0.96L4.16,-0.8L7.36,-0.8M8.96,3.36C8.96,3.84 9.44,4.16 9.76,4.16L11.52,4.16C12,4.16 12.32,3.84 12.32,3.36L12.32,2.56C12.32,2.08 12,1.76 11.52,1.76L10.72,1.76M11.52,1.76C12,1.76 12.32,1.28 12.32,0.96L12.32,0.16C12.32,-0.32 12,-0.8 11.52,-0.8L9.76,-0.8C9.44,-0.8 8.96,-0.32 8.96,0.16M13.92,1.76L17.12,1.76" style="fill:none;fill-rule:nonzero;stroke:rgb(193,163,119);stroke-width:0.61px;"/>
        </g>
        <g transform="matrix(0.782537,0,0,-0.782537,49.9775,142.234)">
            <path d="M0,3.36C0,3.84 0.32,4.16 0.8,4.16L2.4,4.16C2.88,4.16 3.2,3.84 3.2,3.36L3.2,2.56C3.2,2.08 2.88,1.6 2.4,1.6L1.6,1.6M2.4,1.6C2.88,1.6 3.2,1.28 3.2,0.8L3.2,-0C3.2,-0.48 2.88,-0.8 2.4,-0.8L0.8,-0.8C0.32,-0.8 0,-0.48 0,-0M4.96,-0.8L8.16,4.16M10.56,3.36L11.36,4.16L11.36,-0.8M10.56,-0.8L12.16,-0.8M14.72,3.36C14.72,3.84 15.04,4.16 15.52,4.16L17.12,4.16C17.6,4.16 17.92,3.84 17.92,3.36L17.92,2.56C17.92,2.08 17.6,1.6 17.12,1.6L15.52,1.6M14.72,0.8C14.72,1.28 15.04,1.6 15.52,1.6M14.72,0.8L14.72,-0.8L17.92,-0.8M19.52,1.6L22.88,1.6M21.12,3.36L21.12,-0" style="fill:none;fill-rule:nonzero;stroke:rgb(193,163,119);stroke-width:0.61px;"/>
        </g>
        <g transform="matrix(0.782537,0,0,-0.782537,52.4817,242.774)">
            <path d="M0,3.36L0.8,4.16L0.8,-0.8M0,-0.8L1.76,-0.8M4.16,3.36C4.16,3.68 4.48,4.16 4.96,4.16L6.56,4.16C7.04,4.16 7.36,3.68 7.36,3.36L7.36,2.4C7.36,2.08 7.04,1.6 6.56,1.6L4.96,1.6M4.16,0.8C4.16,1.28 4.48,1.6 4.96,1.6M4.16,0.8L4.16,-0.8L7.36,-0.8M8.96,3.36C8.96,3.68 9.44,4.16 9.76,4.16L11.52,4.16C12,4.16 12.32,3.68 12.32,3.36L12.32,2.4C12.32,2.08 12,1.6 11.52,1.6L10.72,1.6M11.52,1.6C12,1.6 12.32,1.28 12.32,0.8L12.32,-0C12.32,-0.48 12,-0.8 11.52,-0.8L9.76,-0.8C9.44,-0.8 8.96,-0.48 8.96,-0M13.92,1.6L17.12,1.6M15.52,3.36L15.52,-0" style="fill:none;fill-rule:nonzero;stroke:rgb(193,163,119);stroke-width:0.61px;"/>
        </g>
        <g transform="matrix(0,0.782537,-0.782537,0,29.3186,201.206)">
            <circle cx="-7.68" cy="0" r="7.68" style="fill:rgb(193,163,119);"/>
        </g>
        <g transform="matrix(0,0.782537,-0.782537,0,29.3186,215.98)">
            <circle cx="-7.68" cy="0" r="7.68" style="fill:rgb(193,163,119);"/>
        </g>
        <g transform="matrix(0,0.782537,-0.782537,0,29.3186,230.755)">
            <circle cx="-7.68" cy="0" r="7.68" style="fill:rgb(193,163,119);"/>
        </g>
        <g transform="matrix(0,0.782537,-0.782537,0,36.7057,13.5222)">
            <path d="M-5.92,-6.08C-2.56,-6.08 0,-3.36 0,0C0,3.36 -2.56,5.92 -5.92,5.92C-9.28,5.92 -12,3.36 -12,0C-12,-3.36 -9.28,-6.08 -5.92,-6.08Z"/>
        </g>
        <g transform="matrix(0,0.782537,-0.782537,0,36.7057,375.868)">
            <path d="M-5.92,-6.08C-2.72,-6.08 0,-3.36 0,0C0,3.36 -2.72,5.92 -5.92,5.92C-9.28,5.92 -12,3.36 -12,0C-12,-3.36 -9.28,-6.08 -5.92,-6.08Z"/>
        </g>
        <g transform="matrix(0,0.782537,-0.782537,0,29.3812,319.964)">
            <path d="M-12.08,-11.92C-5.36,-11.92 0.08,-6.64 0.08,0.08C0.08,6.8 -5.36,12.08 -12.08,12.08C-18.64,12.08 -24.08,6.8 -24.08,0.08C-24.08,-6.64 -18.64,-11.92 -12.08,-11.92Z"/>
        </g>
        <g transform="matrix(0,0.782537,-0.782537,0,58.9924,320.026)">
            <circle cx="-12.08" cy="0.08" r="12.08"/>
        </g>
        <g transform="matrix(0,0.782537,-0.782537,0,58.9298,219.423)">
            <path d="M-12.08,-12.08C-5.36,-12.08 -0.08,-6.64 -0.08,0.08C-0.08,6.64 -5.36,12.08 -12.08,12.08C-18.64,12.08 -24.08,6.64 -24.08,0.08C-24.08,-6.64 -18.64,-12.08 -12.08,-12.08Z"/>
        </g>
        <g transform="matrix(0,0.782537,-0.782537,0,58.8672,269.694)">
            <circle cx="-12.08" cy="-0.08" r="12.08"/>
        </g>
        <g transform="matrix(0,0.782537,-0.782537,0,29.256,269.631)">
            <path d="M-11.92,-12.08C-5.36,-12.08 0.08,-6.8 0.08,-0.08C0.08,6.64 -5.36,11.92 -11.92,11.92C-18.64,11.92 -24.08,6.64 -24.08,-0.08C-24.08,-6.8 -18.64,-12.08 -11.92,-12.08Z"/>
        </g>
        <g transform="matrix(0,0.782537,-0.782537,0,29.256,169.091)">
            <path d="M-11.92,-12.08C-5.36,-12.08 0.08,-6.8 0.08,-0.08C0.08,6.64 -5.36,11.92 -11.92,11.92C-18.64,11.92 -24.08,6.64 -24.08,-0.08C-24.08,-6.8 -18.64,-12.08 -11.92,-12.08Z"/>
        </g>
        <g transform="matrix(0,0.782537,-0.782537,0,58.8672,169.153)">
            <circle cx="-12.08" cy="-0.08" r="12.08"/>
        </g>
        <g transform="matrix(0,0.782537,-0.782537,0,29.3812,68.5503)">
            <path d="M-12.08,-11.92C-5.36,-11.92 0.08,-6.64 0.08,0.08C0.08,6.8 -5.36,12.08 -12.08,12.08C-18.64,12.08 -24.08,6.8 -24.08,0.08C-24.08,-6.64 -18.64,-11.92 -12.08,-11.92Z"/>
        </g>
        <g transform="matrix(0,0.782537,-0.782537,0,58.9298,118.883)">
            <path d="M-12.08,-12.08C-5.36,-12.08 -0.08,-6.64 -0.08,0.08C-0.08,6.64 -5.36,12.08 -12.08,12.08C-18.8,12.08 -24.08,6.64 -24.08,0.08C-24.08,-6.64 -18.8,-12.08 -12.08,-12.08Z"/>
        </g>
        <g transform="matrix(0,0.782537,-0.782537,0,58.9924,68.6129)">
            <circle cx="-12.08" cy="0.08" r="12.08"/>
        </g>
        <g transform="matrix(0,0.782537,-0.782537,0,29.3186,118.82)">
            <path d="M-12,-12C-5.28,-12 0,-6.72 0,0C0,6.72 -5.28,12 -12,12C-18.72,12 -24,6.72 -24,0C-24,-6.72 -18.72,-12 -12,-12Z"/>
        </g>
        <g transform="matrix(0,0.782537,-0.782537,0,29.4438,199.954)">
            <path d="M-6.08,-5.92C-2.72,-5.92 0,-3.2 0,0.16C0,3.52 -2.72,6.08 -6.08,6.08C-9.44,6.08 -12,3.52 -12,0.16C-12,-3.2 -9.44,-5.92 -6.08,-5.92Z"/>
        </g>
        <g transform="matrix(0,0.782537,-0.782537,0,29.4438,214.728)">
            <path d="M-6.08,-5.92C-2.72,-5.92 0,-3.2 0,0.16C0,3.52 -2.72,6.08 -6.08,6.08C-9.44,6.08 -12,3.52 -12,0.16C-12,-3.2 -9.44,-5.92 -6.08,-5.92Z"/>
        </g>
        <g transform="matrix(0,0.782537,-0.782537,0,29.4438,229.502)">
            <path d="M-6.08,-5.92C-2.72,-5.92 0,-3.2 0,0.16C0,3.52 -2.72,6.08 -6.08,6.08C-9.28,6.08 -12,3.52 -12,0.16C-12,-3.2 -9.28,-5.92 -6.08,-5.92Z"/>
        </g>
    </g>
</svg>
