<?xml version="1.0" encoding="UTF-8" standalone="no"?>
<!DOCTYPE svg PUBLIC "-//W3C//DTD SVG 1.1//EN" "http://www.w3.org/Graphics/SVG/1.1/DTD/svg11.dtd">
<svg width="100%" height="100%" viewBox="0 0 121 380" version="1.1" xmlns="http://www.w3.org/2000/svg" xmlns:xlink="http://www.w3.org/1999/xlink" xml:space="preserve" xmlns:serif="http://www.serif.com/" style="fill-rule:evenodd;clip-rule:evenodd;stroke-linecap:round;stroke-miterlimit:10;">
    <g transform="matrix(1.04323,0,0,1.04323,0,0)">
        <rect x="0" y="0" width="115.2" height="364.25" style="fill:#e6e5e5;"/>
    </g>
    <g transform="matrix(1.04323,0,0,1.04323,0,0)">
        <path d="M45.64,88.56C51.35,90.56 52.64,112.9 57.64,129.51" style="fill:none;fill-rule:nonzero;stroke:#2c7896;stroke-width:0.75px;"/>
        <path d="M42.61,90.88C44.61,94.88 50.86,97.88 52.02,104.13" style="fill:none;fill-rule:nonzero;stroke:#2c7896;stroke-width:0.75px;"/>
        <path d="M50.58,82.71C54.39,86.76 49.28,94.62 50.74,98.46" style="fill:none;fill-rule:nonzero;stroke:#2c7896;stroke-width:0.75px;"/>
        <path d="M51.8,80.53C58.13,80.53 51.5,101.22 52.63,107.72" style="fill:none;fill-rule:nonzero;stroke:#2c7896;stroke-width:0.75px;"/>
    </g>
    <g transform="matrix(1.04323,0,0,1.04323,0,0)">
        <path d="M69.08,88.56C63.37,90.56 62.55,112.9 57.6,129.51" style="fill:none;fill-rule:nonzero;stroke:#2c7896;stroke-width:0.75px;"/>
        <path d="M72.1,90.88C70.1,94.88 63.85,97.88 62.69,104.13" style="fill:none;fill-rule:nonzero;stroke:#2c7896;stroke-width:0.75px;"/>
        <path d="M64.14,82.71C60.32,86.76 65.43,94.62 63.97,98.46" style="fill:none;fill-rule:nonzero;stroke:#2c7896;stroke-width:0.75px;"/>
        <path d="M62.91,80.53C56.59,80.53 63.22,101.22 62.08,107.72" style="fill:none;fill-rule:nonzero;stroke:#2c7896;stroke-width:0.75px;"/>
    </g>
    <g transform="matrix(1.04323,0,0,1.04323,0,0)">
        <path d="M57.6,129.51C57.6,129.51 67.72,185.62 100.94,234.09" style="fill:none;fill-rule:nonzero;stroke:#2c7896;stroke-width:0.75px;"/>
    </g>
    <g transform="matrix(1.04323,0,0,1.04323,0,0)">
        <path d="M72.86,15.22C72.907,14.741 72.734,14.266 72.39,13.93L69.51,10.93C68.956,10.379 68.677,9.608 68.75,8.83C68.802,8.038 69.197,7.308 69.83,6.83C70.454,6.374 71.246,6.21 72,6.38C72.779,6.53 73.455,7.012 73.85,7.7C73.901,7.788 73.929,7.887 73.929,7.989C73.929,8.198 73.814,8.391 73.63,8.49C73.545,8.538 73.45,8.564 73.353,8.564C73.147,8.564 72.958,8.451 72.86,8.27C72.641,7.87 72.25,7.593 71.8,7.52C71.352,7.421 70.882,7.527 70.52,7.81C70.147,8.067 69.92,8.488 69.91,8.94C69.862,9.39 70.02,9.839 70.34,10.16L73.22,13.16C73.774,13.733 74.058,14.515 74,15.31C73.888,16.778 72.65,17.926 71.178,17.926C70.991,17.926 70.804,17.907 70.62,17.87C69.826,17.712 69.137,17.22 68.73,16.52C68.578,16.245 68.671,15.893 68.94,15.73C69.214,15.572 69.57,15.667 69.73,15.94C69.964,16.362 70.375,16.656 70.85,16.74C71.317,16.842 71.806,16.728 72.18,16.43C72.582,16.154 72.834,15.707 72.86,15.22Z" style="fill:#1b1b19;fill-rule:nonzero;"/>
        <path d="M75.79,15.48L75.79,12C75.79,10.716 76.846,9.66 78.13,9.66L79.93,9.66C80.226,9.66 80.47,9.904 80.47,10.2L80.47,21C80.47,21.296 80.226,21.54 79.93,21.54C79.927,21.54 79.923,21.54 79.92,21.54C79.629,21.54 79.39,21.301 79.39,21.01C79.39,21.007 79.39,21.003 79.39,21L79.39,17.82L78.13,17.82C76.846,17.82 75.79,16.764 75.79,15.48ZM76.87,12L76.87,15.46C76.87,15.463 76.87,15.467 76.87,15.47C76.87,16.156 77.434,16.72 78.12,16.72C78.123,16.72 78.127,16.72 78.13,16.72L79.39,16.72L79.39,10.72L78.13,10.72C78.127,10.72 78.123,10.72 78.12,10.72C77.434,10.72 76.87,11.284 76.87,11.97C76.87,11.98 76.87,11.99 76.87,12Z" style="fill:#1b1b19;fill-rule:nonzero;"/>
        <path d="M82.85,15.48L82.85,10.15C82.85,10.147 82.85,10.143 82.85,10.14C82.85,9.849 83.089,9.61 83.38,9.61C83.383,9.61 83.387,9.61 83.39,9.61C83.393,9.61 83.397,9.61 83.4,9.61C83.691,9.61 83.93,9.849 83.93,10.14C83.93,10.143 83.93,10.147 83.93,10.15L83.93,15.48C83.93,15.483 83.93,15.487 83.93,15.49C83.93,16.176 84.494,16.74 85.18,16.74C85.183,16.74 85.187,16.74 85.19,16.74L86.45,16.74L86.45,10.15C86.45,10.147 86.45,10.143 86.45,10.14C86.45,9.849 86.689,9.61 86.98,9.61C86.987,9.61 86.993,9.61 87,9.61C87.003,9.61 87.007,9.61 87.01,9.61C87.301,9.61 87.54,9.849 87.54,10.14C87.54,10.143 87.54,10.147 87.54,10.15L87.54,17.28C87.54,17.576 87.296,17.82 87,17.82L85.2,17.82C85.197,17.82 85.193,17.82 85.19,17.82C83.906,17.82 82.85,16.764 82.85,15.48C82.85,15.48 82.85,15.48 82.85,15.48Z" style="fill:#1b1b19;fill-rule:nonzero;"/>
        <path d="M89.87,7.45C89.87,7.055 90.195,6.73 90.59,6.73C90.985,6.73 91.31,7.055 91.31,7.45C91.31,7.845 90.985,8.17 90.59,8.17C90.195,8.17 89.87,7.845 89.87,7.45L89.87,7.45ZM90.59,17.89C90.294,17.89 90.05,17.646 90.05,17.35L90.05,10.15C90.05,9.854 90.294,9.61 90.59,9.61C90.593,9.61 90.597,9.61 90.6,9.61C90.891,9.61 91.13,9.849 91.13,10.14C91.13,10.143 91.13,10.147 91.13,10.15L91.13,17.35C91.13,17.646 90.886,17.89 90.59,17.89Z" style="fill:#1b1b19;fill-rule:nonzero;"/>
        <path d="M93.43,15.48L93.43,12C93.43,10.716 94.486,9.66 95.77,9.66L97,9.66L97,6.55C97,6.546 97,6.543 97,6.539C97,6.243 97.244,5.999 97.54,5.999C97.55,5.999 97.56,5.999 97.57,6C97.868,6.005 98.11,6.252 98.11,6.55L98.11,17.28C98.11,17.576 97.866,17.82 97.57,17.82L95.77,17.82C94.486,17.82 93.43,16.764 93.43,15.48ZM94.51,12L94.51,15.46C94.51,15.463 94.51,15.467 94.51,15.47C94.51,16.156 95.074,16.72 95.76,16.72C95.763,16.72 95.767,16.72 95.77,16.72L97,16.72L97,10.72L95.77,10.72C95.767,10.72 95.763,10.72 95.76,10.72C95.074,10.72 94.51,11.284 94.51,11.97C94.51,11.98 94.51,11.99 94.51,12Z" style="fill:#1b1b19;fill-rule:nonzero;"/>
        <path d="M76.5,31.91C76.448,31.925 76.395,31.933 76.341,31.933C76.083,31.933 75.856,31.759 75.79,31.51C75.74,31.33 75.69,31.13 75.63,30.92C75.51,30.54 75.38,30.03 75.22,29.4L71.72,29.4C71.53,30.03 71.44,30.54 71.31,30.92C71.31,31.13 71.2,31.33 71.15,31.51C71.08,31.769 70.843,31.951 70.575,31.951C70.248,31.951 69.979,31.682 69.979,31.355C69.979,31.303 69.986,31.251 70,31.2L72.88,20.76C72.945,20.505 73.177,20.327 73.44,20.33C73.704,20.323 73.939,20.503 74,20.76L76.91,31.2C76.928,31.255 76.937,31.313 76.937,31.372C76.937,31.631 76.754,31.857 76.5,31.91ZM73.5,23.07C73.12,24.36 72.57,26.47 72.08,28.25L74.92,28.25C74.41,26.47 73.81,24.36 73.47,23.07L73.5,23.07Z" style="fill:#1b1b19;fill-rule:nonzero;"/>
        <path d="M78.11,31.1L80,27.68L78.2,24.42C78.157,24.338 78.134,24.247 78.134,24.155C78.134,23.845 78.39,23.589 78.7,23.589C78.909,23.589 79.102,23.705 79.2,23.89L80.66,26.56L82.14,23.89C82.229,23.716 82.408,23.606 82.603,23.606C82.697,23.606 82.789,23.632 82.87,23.68C83.047,23.773 83.158,23.958 83.158,24.158C83.158,24.249 83.135,24.34 83.09,24.42L81.29,27.68L83.1,31.1C83.146,31.179 83.171,31.268 83.171,31.359C83.171,31.556 83.057,31.736 82.88,31.82C82.799,31.867 82.707,31.892 82.613,31.892C82.421,31.892 82.243,31.788 82.15,31.62L80.6,28.81L79.07,31.62C78.974,31.788 78.795,31.893 78.601,31.893C78.506,31.893 78.412,31.868 78.33,31.82C78.154,31.732 78.043,31.552 78.043,31.355C78.043,31.266 78.066,31.178 78.11,31.1Z" style="fill:#1b1b19;fill-rule:nonzero;"/>
        <path d="M84.88,29.55L84.88,26C84.88,24.716 85.936,23.66 87.22,23.66C88.504,23.66 89.56,24.716 89.56,26L89.56,29.6C89.56,30.884 88.504,31.94 87.22,31.94C85.936,31.94 84.88,30.884 84.88,29.6L84.88,29.55ZM86,26L86,29.6C86,30.291 86.569,30.86 87.26,30.86C87.951,30.86 88.52,30.291 88.52,29.6L88.52,26C88.52,25.309 87.951,24.74 87.26,24.74C86.569,24.74 86,25.309 86,26Z" style="fill:#1b1b19;fill-rule:nonzero;"/>
        <path d="M91.87,31.35L91.87,24.22C91.87,24.217 91.87,24.213 91.87,24.21C91.87,23.919 92.109,23.68 92.4,23.68C92.403,23.68 92.407,23.68 92.41,23.68L94.21,23.68C95.486,23.68 96.539,24.724 96.55,26L96.55,36.35C96.545,36.644 96.304,36.885 96.01,36.89C96.007,36.89 96.003,36.89 96,36.89C95.709,36.89 95.47,36.651 95.47,36.36C95.47,36.357 95.47,36.353 95.47,36.35L95.47,26C95.47,25.997 95.47,25.993 95.47,25.99C95.47,25.304 94.906,24.74 94.22,24.74C94.217,24.74 94.213,24.74 94.21,24.74L93,24.74L93,31.33C92.995,31.624 92.754,31.865 92.46,31.87C92.44,31.872 92.42,31.873 92.4,31.873C92.112,31.873 91.874,31.638 91.87,31.35Z" style="fill:#1b1b19;fill-rule:nonzero;"/>
    </g>
    <g transform="matrix(1.04323,0,0,1.04323,0,0)">
        <g>
            <path d="M41.44,46.4C49.521,51.045 54.519,59.682 54.519,69.002C54.519,78.179 49.674,86.704 41.79,91.4" style="fill:none;fill-rule:nonzero;stroke:#2394b0;stroke-width:0.75px;"/>
            <path d="M15.41,91.56C7.341,86.915 2.352,78.286 2.352,68.975C2.352,59.784 7.214,51.248 15.12,46.56" style="fill:none;fill-rule:nonzero;stroke:#2394b0;stroke-width:0.75px;"/>
        </g>
        <circle cx="2.38" cy="68.99" r="1.42" style="fill:#2394b0;"/>
        <path d="M55.92,69C55.92,69.003 55.92,69.007 55.92,69.01C55.92,69.794 55.275,70.44 54.49,70.44C53.706,70.44 53.06,69.794 53.06,69.01C53.06,68.226 53.706,67.58 54.49,67.58C55.271,67.58 55.915,68.219 55.92,69Z" style="fill:#2394b0;fill-rule:nonzero;"/>
    </g>
    <g transform="matrix(1.04323,0,0,1.04323,0,0)">
        <g>
            <path d="M99.24,46.4C107.321,51.045 112.319,59.682 112.319,69.002C112.319,78.179 107.474,86.704 99.59,91.4" style="fill:none;fill-rule:nonzero;stroke:#2394b0;stroke-width:0.75px;"/>
            <path d="M73.21,91.56C65.141,86.915 60.152,78.286 60.152,68.975C60.152,59.784 65.014,51.248 72.92,46.56" style="fill:none;fill-rule:nonzero;stroke:#2394b0;stroke-width:0.75px;"/>
        </g>
        <circle cx="60.18" cy="68.99" r="1.42" style="fill:#2394b0;"/>
        <path d="M113.72,69C113.72,69.003 113.72,69.007 113.72,69.01C113.72,69.794 113.075,70.44 112.29,70.44C111.506,70.44 110.86,69.794 110.86,69.01C110.86,68.226 111.506,67.58 112.29,67.58C113.071,67.58 113.715,68.219 113.72,69Z" style="fill:#2394b0;fill-rule:nonzero;"/>
    </g>
    <g transform="matrix(1.04323,0,0,1.04323,0,0)">
        <path d="M91.88,7.43C91.88,8.094 91.334,8.64 90.67,8.64C90.006,8.64 89.46,8.094 89.46,7.43C89.46,6.766 90.006,6.22 90.67,6.22C91.334,6.22 91.88,6.766 91.88,7.43Z" style="fill:#ae076a;fill-rule:nonzero;"/>
    </g>
    <g transform="matrix(1.04323,0,0,1.04323,0,0)">
        <path d="M97.18,36.65C97.18,37.314 96.634,37.86 95.97,37.86C95.306,37.86 94.76,37.313 94.76,36.65C94.76,35.986 95.306,35.44 95.97,35.44C95.98,35.44 95.99,35.44 96,35.44C96.65,35.461 97.175,35.999 97.18,36.65Z" style="fill:#ae076a;fill-rule:nonzero;"/>
    </g>
    <g transform="matrix(1.04323,0,0,1.04323,0,0)">
        <path d="M69.81,15.33C69.81,15.999 69.259,16.55 68.59,16.55C67.921,16.55 67.37,15.999 67.37,15.33C67.37,14.661 67.921,14.11 68.59,14.11C69.259,14.11 69.81,14.661 69.81,15.33Z" style="fill:#ae076a;fill-rule:nonzero;"/>
    </g>
    <g transform="matrix(1.04323,0,0,1.04323,0,0)">
        <path d="M26,40.12C25.81,39.72 25.62,39.32 25.43,38.94L24.43,36.94L24.43,40C24.431,40.007 24.431,40.014 24.431,40.02C24.431,40.135 24.336,40.23 24.221,40.23C24.217,40.23 24.214,40.23 24.21,40.23C24.093,40.225 24,40.127 24,40.01C24,40.007 24,40.003 24,40L24,36C23.999,35.895 24.076,35.805 24.18,35.79C24.278,35.764 24.382,35.81 24.43,35.9L25,37.05L26,39.05L26,36C26,36 26,36 26,36C26,35.879 26.099,35.78 26.22,35.78C26.223,35.78 26.227,35.78 26.23,35.78C26.233,35.78 26.237,35.78 26.24,35.78C26.355,35.78 26.45,35.875 26.45,35.99C26.45,35.993 26.45,35.997 26.45,36L26.45,40C26.453,40.104 26.381,40.196 26.28,40.22C26.175,40.259 26.056,40.217 26,40.12Z" style="fill:#1b1b19;fill-rule:nonzero;"/>
        <path d="M27.29,39.18L27.29,36.8C27.343,36.254 27.807,35.833 28.355,35.833C28.903,35.833 29.367,36.254 29.42,36.8L29.42,39.18C29.423,39.214 29.425,39.249 29.425,39.283C29.425,39.87 28.942,40.353 28.355,40.353C27.768,40.353 27.285,39.87 27.285,39.283C27.285,39.249 27.287,39.214 27.29,39.18ZM27.74,36.8L27.74,39.18C27.74,39.183 27.74,39.187 27.74,39.19C27.74,39.525 28.015,39.8 28.35,39.8C28.35,39.8 28.35,39.8 28.35,39.8C28.69,39.8 28.97,39.52 28.97,39.18L28.97,36.8C28.965,36.464 28.686,36.19 28.35,36.19C28.015,36.19 27.74,36.465 27.74,36.8Z" style="fill:#1b1b19;fill-rule:nonzero;"/>
        <path d="M32.27,40.12L31.69,38.94L30.69,36.94L30.69,40C30.69,40.121 30.591,40.22 30.47,40.22C30.349,40.22 30.25,40.121 30.25,40L30.25,36C30.248,35.898 30.32,35.809 30.42,35.79C30.519,35.76 30.625,35.807 30.67,35.9L31.24,37.09L32.24,39.09L32.24,36C32.24,35.997 32.24,35.993 32.24,35.99C32.24,35.875 32.335,35.78 32.45,35.78C32.453,35.78 32.457,35.78 32.46,35.78C32.463,35.78 32.467,35.78 32.47,35.78C32.591,35.78 32.69,35.879 32.69,36L32.69,40C32.688,40.106 32.613,40.197 32.51,40.22C32.417,40.243 32.32,40.202 32.27,40.12Z" style="fill:#1b1b19;fill-rule:nonzero;"/>
        <path d="M21,47L21,43C21,42.997 21,42.993 21,42.99C21,42.875 21.095,42.78 21.21,42.78C21.213,42.78 21.217,42.78 21.22,42.78C21.341,42.78 21.44,42.879 21.44,43L21.44,46.81L22.6,46.81C22.616,46.807 22.632,46.805 22.648,46.805C22.774,46.805 22.878,46.909 22.878,47.035C22.878,47.161 22.774,47.265 22.648,47.265C22.632,47.265 22.616,47.263 22.6,47.26L21.2,47.26C21.086,47.258 20.994,47.164 20.994,47.05C20.994,47.033 20.996,47.016 21,47Z" style="fill:#1b1b19;fill-rule:nonzero;"/>
        <path d="M23.41,47L23.41,43C23.41,43 23.41,43 23.41,43C23.41,42.879 23.509,42.78 23.63,42.78C23.633,42.78 23.637,42.78 23.64,42.78C23.643,42.78 23.647,42.78 23.65,42.78C23.765,42.78 23.86,42.875 23.86,42.99C23.86,42.993 23.86,42.997 23.86,43L23.86,47C23.861,47.007 23.861,47.014 23.861,47.02C23.861,47.135 23.766,47.23 23.651,47.23C23.647,47.23 23.644,47.23 23.64,47.23C23.514,47.23 23.41,47.126 23.41,47Z" style="fill:#1b1b19;fill-rule:nonzero;"/>
        <path d="M26.79,47.12C26.6,46.72 26.41,46.32 26.22,45.94C25.9,45.29 25.52,44.48 25.22,43.94L25.22,47C25.221,47.007 25.221,47.014 25.221,47.02C25.221,47.135 25.126,47.23 25.011,47.23C25.007,47.23 25.004,47.23 25,47.23C24.997,47.23 24.993,47.23 24.99,47.23C24.869,47.23 24.77,47.131 24.77,47.01C24.77,47.007 24.77,47.003 24.77,47L24.77,43C24.769,42.895 24.846,42.805 24.95,42.79C25.048,42.764 25.152,42.81 25.2,42.9L25.77,44.09L26.77,46.09L26.77,43C26.77,42.996 26.77,42.993 26.77,42.989C26.77,42.874 26.865,42.779 26.98,42.779C26.986,42.779 26.993,42.779 27,42.78C27.003,42.78 27.007,42.78 27.01,42.78C27.125,42.78 27.22,42.875 27.22,42.99C27.22,42.993 27.22,42.997 27.22,43L27.22,47C27.223,47.104 27.151,47.196 27.05,47.22C26.951,47.249 26.844,47.208 26.79,47.12Z" style="fill:#1b1b19;fill-rule:nonzero;"/>
        <path d="M28.4,42.77L29.8,42.77C29.921,42.77 30.02,42.869 30.02,42.99C30.02,43.111 29.921,43.21 29.8,43.21L28.62,43.21L28.62,44.7L29.62,44.7C29.623,44.7 29.627,44.7 29.63,44.7C29.745,44.7 29.84,44.795 29.84,44.91C29.84,44.913 29.84,44.917 29.84,44.92C29.841,44.927 29.841,44.934 29.841,44.94C29.841,45.055 29.746,45.15 29.631,45.15C29.627,45.15 29.624,45.15 29.62,45.15L28.62,45.15L28.62,46.77L29.8,46.77C29.912,46.775 30.001,46.868 30.001,46.98C30.001,46.987 30.001,46.993 30,47C30,47.003 30,47.007 30,47.01C30,47.125 29.905,47.22 29.79,47.22C29.787,47.22 29.783,47.22 29.78,47.22L28.4,47.22C28.393,47.221 28.386,47.221 28.38,47.221C28.265,47.221 28.17,47.126 28.17,47.011C28.17,47.007 28.17,47.004 28.17,47L28.17,43C28.169,42.993 28.169,42.986 28.169,42.979C28.169,42.864 28.264,42.769 28.379,42.769C28.386,42.769 28.393,42.769 28.4,42.77Z" style="fill:#1b1b19;fill-rule:nonzero;"/>
        <path d="M33,47.24C32.979,47.247 32.956,47.251 32.934,47.251C32.837,47.251 32.753,47.184 32.73,47.09L32.67,46.86C32.62,46.71 32.57,46.51 32.5,46.27L31.11,46.27C31.03,46.51 30.99,46.71 30.95,46.86C30.91,47.01 30.9,47.02 30.88,47.09C30.859,47.185 30.773,47.254 30.675,47.254C30.649,47.254 30.624,47.249 30.6,47.24C30.506,47.217 30.439,47.133 30.439,47.036C30.439,47.014 30.443,46.991 30.45,46.97L31.57,42.91C31.59,42.806 31.685,42.733 31.79,42.74C31.892,42.738 31.981,42.81 32,42.91L33.12,47C33.143,47.098 33.092,47.199 33,47.24ZM31.79,43.8C31.64,44.31 31.42,45.13 31.23,45.8L32.34,45.8C32.15,45.13 31.92,44.31 31.79,43.8Z" style="fill:#1b1b19;fill-rule:nonzero;"/>
        <path d="M35.24,45.21L35.89,47C35.899,47.024 35.903,47.049 35.903,47.075C35.903,47.197 35.802,47.298 35.68,47.298C35.586,47.298 35.502,47.239 35.47,47.15L34.8,45.34L34.22,45.34L34.22,47C34.221,47.007 34.221,47.014 34.221,47.02C34.221,47.135 34.126,47.23 34.011,47.23C34.007,47.23 34.004,47.23 34,47.23C33.874,47.23 33.77,47.126 33.77,47L33.77,43C33.77,43 33.77,43 33.77,43C33.77,42.879 33.869,42.78 33.99,42.78C33.993,42.78 33.997,42.78 34,42.78L34.84,42.78C34.843,42.78 34.847,42.78 34.85,42.78C35.426,42.78 35.9,43.254 35.9,43.83C35.9,43.833 35.9,43.837 35.9,43.84L35.9,44.23C35.917,44.664 35.649,45.063 35.24,45.21ZM35.45,44.21L35.45,43.82C35.45,43.817 35.45,43.813 35.45,43.81C35.45,43.475 35.175,43.2 34.84,43.2C34.84,43.2 34.84,43.2 34.84,43.2L34.22,43.2L34.22,44.83L34.84,44.83C35.175,44.83 35.45,44.555 35.45,44.22L35.45,44.21Z" style="fill:#1b1b19;fill-rule:nonzero;"/>
    </g>
    <g transform="matrix(1.04323,0,0,1.04323,0,0)">
        <path d="M82.88,47L82.88,43C82.88,42.879 82.979,42.78 83.1,42.78C83.103,42.78 83.107,42.78 83.11,42.78C83.231,42.78 83.33,42.879 83.33,43L83.33,47C83.33,47.003 83.33,47.007 83.33,47.01C83.33,47.131 83.231,47.23 83.11,47.23C83.107,47.23 83.103,47.23 83.1,47.23C83.1,47.23 83.1,47.23 83.1,47.23C82.979,47.23 82.88,47.131 82.88,47.01C82.88,47.007 82.88,47.003 82.88,47Z" style="fill:#1b1b19;fill-rule:nonzero;"/>
        <path d="M86.26,47.12C86.06,46.72 85.87,46.32 85.69,45.94C85.37,45.29 84.99,44.48 84.69,43.94L84.69,47C84.69,47.003 84.69,47.007 84.69,47.01C84.69,47.131 84.591,47.23 84.47,47.23C84.467,47.23 84.463,47.23 84.46,47.23C84.456,47.23 84.453,47.23 84.449,47.23C84.334,47.23 84.239,47.135 84.239,47.02C84.239,47.014 84.239,47.007 84.24,47L84.24,43C84.238,42.898 84.31,42.809 84.41,42.79C84.509,42.76 84.615,42.807 84.66,42.9L85.23,44.09L86.23,46.09L86.23,43C86.23,42.997 86.23,42.993 86.23,42.99C86.23,42.875 86.325,42.78 86.44,42.78C86.443,42.78 86.447,42.78 86.45,42.78C86.457,42.779 86.464,42.779 86.47,42.779C86.585,42.779 86.68,42.874 86.68,42.989C86.68,42.993 86.68,42.996 86.68,43L86.68,47C86.682,47.107 86.605,47.201 86.5,47.22C86.407,47.243 86.31,47.202 86.26,47.12Z" style="fill:#1b1b19;fill-rule:nonzero;"/>
        <path d="M89.05,46.18L89.05,45.76C89.045,45.427 88.773,45.155 88.44,45.15C88.437,45.15 88.433,45.15 88.43,45.15C88.309,45.15 88.21,45.051 88.21,44.93C88.21,44.927 88.21,44.923 88.21,44.92C88.21,44.916 88.21,44.913 88.21,44.909C88.21,44.794 88.305,44.699 88.42,44.699C88.426,44.699 88.433,44.699 88.44,44.7C88.44,44.7 88.44,44.7 88.44,44.7C88.775,44.7 89.05,44.425 89.05,44.09C89.05,44.087 89.05,44.083 89.05,44.08L89.05,43.8C89.054,43.524 88.867,43.279 88.6,43.21C88.331,43.131 88.04,43.247 87.9,43.49C87.862,43.562 87.787,43.607 87.706,43.607C87.669,43.607 87.632,43.598 87.6,43.58C87.491,43.519 87.451,43.38 87.51,43.27C87.7,42.936 88.056,42.729 88.44,42.729C89.027,42.729 89.51,43.212 89.51,43.799L89.51,44.08C89.521,44.41 89.367,44.725 89.1,44.92C89.358,45.122 89.509,45.432 89.51,45.76L89.51,46.18C89.51,46.184 89.51,46.187 89.51,46.191C89.51,46.778 89.027,47.261 88.44,47.261C88.056,47.261 87.7,47.054 87.51,46.72C87.451,46.61 87.491,46.471 87.6,46.41C87.705,46.355 87.836,46.39 87.9,46.49C88.037,46.737 88.329,46.857 88.6,46.78C88.867,46.704 89.052,46.457 89.05,46.18Z" style="fill:#1b1b19;fill-rule:nonzero;"/>
    </g>
    <g transform="matrix(1.04323,0,0,1.04323,0,0)">
        <path d="M23.1,96L23.1,92C23.1,91.997 23.1,91.993 23.1,91.99C23.1,91.869 23.199,91.77 23.32,91.77L24.73,91.77C24.75,91.764 24.771,91.761 24.792,91.761C24.907,91.761 25.002,91.855 25.002,91.971C25.002,91.98 25.001,91.99 25,92C25,92.003 25,92.007 25,92.01C25,92.125 24.905,92.22 24.79,92.22C24.787,92.22 24.783,92.22 24.78,92.22L23.55,92.22L23.55,93.71L24.55,93.71C24.671,93.71 24.77,93.809 24.77,93.93C24.77,94.051 24.671,94.15 24.55,94.15L23.55,94.15L23.55,96C23.55,96.003 23.55,96.007 23.55,96.01C23.55,96.131 23.451,96.23 23.33,96.23C23.327,96.23 23.323,96.23 23.32,96.23C23.32,96.23 23.32,96.23 23.32,96.23C23.199,96.23 23.1,96.131 23.1,96.01C23.1,96.007 23.1,96.003 23.1,96Z" style="fill:#1b1b19;fill-rule:nonzero;"/>
        <path d="M27.75,92.8L27.75,95.12C27.75,95.707 27.267,96.19 26.68,96.19L25.84,96.19C25.836,96.19 25.833,96.19 25.829,96.19C25.714,96.19 25.619,96.095 25.619,95.98C25.619,95.974 25.619,95.967 25.62,95.96L25.62,92C25.619,91.993 25.619,91.986 25.619,91.98C25.619,91.865 25.714,91.77 25.829,91.77C25.833,91.77 25.836,91.77 25.84,91.77L26.68,91.77C27.252,91.77 27.729,92.228 27.75,92.8ZM26.68,92.18L26.07,92.18L26.07,95.74L26.68,95.74C26.683,95.74 26.687,95.74 26.69,95.74C27.025,95.74 27.3,95.465 27.3,95.13C27.3,95.127 27.3,95.123 27.3,95.12L27.3,92.8C27.3,92.46 27.02,92.18 26.68,92.18Z" style="fill:#1b1b19;fill-rule:nonzero;"/>
        <path d="M28.84,91.73L29.68,91.73C30.262,91.73 30.74,92.209 30.74,92.79C30.74,92.793 30.74,92.797 30.74,92.8L30.74,93.05C30.739,93.378 30.588,93.688 30.33,93.89C30.588,94.092 30.739,94.402 30.74,94.73L30.74,95.12C30.74,95.123 30.74,95.127 30.74,95.13C30.74,95.711 30.262,96.19 29.68,96.19C29.68,96.19 29.68,96.19 29.68,96.19L28.84,96.19C28.836,96.19 28.833,96.19 28.829,96.19C28.714,96.19 28.619,96.095 28.619,95.98C28.619,95.974 28.619,95.967 28.62,95.96L28.62,92C28.614,91.98 28.611,91.96 28.611,91.939C28.611,91.824 28.706,91.729 28.821,91.729C28.827,91.729 28.834,91.729 28.84,91.73ZM29.68,92.18L29.06,92.18L29.06,93.67L29.68,93.67C30.02,93.67 30.3,93.39 30.3,93.05L30.3,92.8C30.3,92.46 30.02,92.18 29.68,92.18ZM29.68,94.11L29.06,94.11L29.06,95.74L29.68,95.74C30.02,95.74 30.3,95.46 30.3,95.12L30.3,94.73C30.295,94.392 30.018,94.115 29.68,94.11Z" style="fill:#1b1b19;fill-rule:nonzero;"/>
        <path d="M33.75,96.19C33.72,96.206 33.686,96.214 33.652,96.214C33.569,96.214 33.494,96.166 33.46,96.09L32.46,94.01L32.07,94.56L32.07,96C32.071,96.007 32.071,96.014 32.071,96.02C32.071,96.135 31.976,96.23 31.861,96.23C31.857,96.23 31.854,96.23 31.85,96.23C31.724,96.23 31.62,96.126 31.62,96L31.62,91.93C31.62,91.93 31.62,91.93 31.62,91.93C31.62,91.809 31.719,91.71 31.84,91.71C31.843,91.71 31.847,91.71 31.85,91.71C31.853,91.71 31.857,91.71 31.86,91.71C31.975,91.71 32.07,91.805 32.07,91.92C32.07,91.923 32.07,91.927 32.07,91.93L32.07,93.79L33.48,91.79C33.522,91.746 33.579,91.721 33.64,91.721C33.701,91.721 33.758,91.746 33.8,91.79C33.861,91.828 33.897,91.895 33.897,91.967C33.897,92.016 33.881,92.063 33.85,92.1L32.76,93.63L33.87,95.93C33.904,96.034 33.851,96.149 33.75,96.19Z" style="fill:#1b1b19;fill-rule:nonzero;"/>
    </g>
    <g transform="matrix(1.04323,0,0,1.04323,0,0)">
        <path d="M81,96L81,92C81,91.874 81.104,91.77 81.23,91.77L82.63,91.77C82.634,91.77 82.637,91.77 82.641,91.77C82.756,91.77 82.851,91.865 82.851,91.98C82.851,91.986 82.851,91.993 82.85,92C82.85,92.003 82.85,92.007 82.85,92.01C82.85,92.125 82.755,92.22 82.64,92.22C82.637,92.22 82.633,92.22 82.63,92.22L81.43,92.22L81.43,93.71L82.43,93.71C82.551,93.71 82.65,93.809 82.65,93.93C82.65,94.051 82.551,94.15 82.43,94.15L81.43,94.15L81.43,96C81.431,96.007 81.431,96.014 81.431,96.02C81.431,96.135 81.336,96.23 81.221,96.23C81.217,96.23 81.214,96.23 81.21,96.23C81.091,96.22 81,96.119 81,96Z" style="fill:#1b1b19;fill-rule:nonzero;"/>
        <path d="M85.63,92.8L85.63,95.12C85.63,95.123 85.63,95.127 85.63,95.13C85.63,95.711 85.152,96.19 84.57,96.19C84.57,96.19 84.57,96.19 84.57,96.19L83.73,96.19C83.616,96.196 83.515,96.113 83.5,96L83.5,92C83.5,91.997 83.5,91.993 83.5,91.99C83.5,91.869 83.599,91.77 83.72,91.77C83.723,91.77 83.727,91.77 83.73,91.77L84.57,91.77C85.14,91.77 85.614,92.23 85.63,92.8ZM84.57,92.18L84,92.18L84,95.74L84.62,95.74C84.955,95.74 85.23,95.465 85.23,95.13C85.23,95.127 85.23,95.123 85.23,95.12L85.23,92.8C85.23,92.796 85.23,92.792 85.23,92.788C85.23,92.453 84.955,92.178 84.62,92.178C84.603,92.178 84.587,92.179 84.57,92.18Z" style="fill:#1b1b19;fill-rule:nonzero;"/>
        <path d="M86.72,91.73L87.56,91.73C88.147,91.73 88.63,92.213 88.63,92.8L88.63,93.05C88.63,93.38 88.474,93.692 88.21,93.89C88.474,94.088 88.63,94.4 88.63,94.73L88.63,95.12C88.63,95.707 88.147,96.19 87.56,96.19L86.72,96.19C86.608,96.196 86.511,96.111 86.5,96L86.5,92C86.494,91.98 86.491,91.96 86.491,91.939C86.491,91.824 86.586,91.729 86.701,91.729C86.707,91.729 86.714,91.729 86.72,91.73ZM87.56,92.18L87,92.18L87,93.67L87.61,93.67C87.95,93.67 88.23,93.39 88.23,93.05L88.23,92.8C88.23,92.799 88.23,92.799 88.23,92.798C88.23,92.458 87.95,92.178 87.61,92.178C87.593,92.178 87.577,92.179 87.56,92.18ZM87.56,94.11L87,94.11L87,95.74L87.61,95.74C87.95,95.74 88.23,95.46 88.23,95.12L88.23,94.73C88.225,94.388 87.942,94.109 87.6,94.109C87.587,94.109 87.573,94.109 87.56,94.11Z" style="fill:#1b1b19;fill-rule:nonzero;"/>
        <path d="M91.64,96.19C91.609,96.206 91.574,96.215 91.538,96.215C91.454,96.215 91.377,96.166 91.34,96.09L90.34,94.01L89.95,94.56L89.95,96C89.951,96.007 89.951,96.014 89.951,96.02C89.951,96.135 89.856,96.23 89.741,96.23C89.737,96.23 89.734,96.23 89.73,96.23C89.604,96.23 89.5,96.126 89.5,96L89.5,91.93C89.5,91.93 89.5,91.93 89.5,91.93C89.5,91.809 89.599,91.71 89.72,91.71C89.723,91.71 89.727,91.71 89.73,91.71C89.733,91.71 89.737,91.71 89.74,91.71C89.855,91.71 89.95,91.805 89.95,91.92C89.95,91.923 89.95,91.927 89.95,91.93L89.95,93.79L91.37,91.79C91.412,91.732 91.479,91.698 91.55,91.698C91.672,91.698 91.772,91.798 91.772,91.92C91.772,91.967 91.757,92.012 91.73,92.05L90.65,93.58L91.75,95.88C91.768,95.913 91.777,95.949 91.777,95.986C91.777,96.076 91.723,96.156 91.64,96.19Z" style="fill:#1b1b19;fill-rule:nonzero;"/>
    </g>
    <g transform="matrix(1.04323,0,0,1.04323,0,0)">
        <path d="M50.63,291.29C54.799,288.775 57.355,284.248 57.355,279.379C57.355,271.749 51.076,265.469 43.445,265.469C35.814,265.469 29.535,271.749 29.535,279.379C29.535,284.248 32.091,288.775 36.26,291.29" style="fill:none;fill-rule:nonzero;stroke:#2c7896;stroke-width:0.75px;"/>
        <circle cx="43.44" cy="279.4" r="16.81" style="fill:none;"/>
    </g>
    <g transform="matrix(1.04323,0,0,1.04323,0,0)">
        <path d="M79.11,291.29C83.276,288.774 85.83,284.249 85.83,279.382C85.83,271.752 79.551,265.472 71.92,265.472C64.289,265.472 58.01,271.752 58.01,279.382C58.01,284.249 60.564,288.774 64.73,291.29" style="fill:none;fill-rule:nonzero;stroke:#2c7896;stroke-width:0.75px;"/>
        <circle cx="71.92" cy="279.4" r="16.81" style="fill:none;"/>
    </g>
    <g transform="matrix(1.04323,0,0,1.04323,0,0)">
        <path d="M107.74,291.29C111.909,288.775 114.465,284.248 114.465,279.379C114.465,271.749 108.186,265.469 100.555,265.469C92.924,265.469 86.645,271.749 86.645,279.379C86.645,284.248 89.201,288.775 93.37,291.29" style="fill:none;fill-rule:nonzero;stroke:#2c7896;stroke-width:0.75px;"/>
    </g>
    <g transform="matrix(1.04323,0,0,1.04323,0,0)">
        <path d="M31.85,280.7C31.016,280.804 30.179,280.52 29.58,279.93L28.58,278.87C28.037,278.327 27.287,278.039 26.52,278.08" style="fill:none;fill-rule:nonzero;stroke:#2c7896;stroke-width:0.75px;"/>
        <path d="M26.47,280.72C27.237,280.757 27.985,280.47 28.53,279.93L29.53,278.87C30.126,278.276 30.966,277.992 31.8,278.1" style="fill:none;fill-rule:nonzero;stroke:#ae076a;stroke-width:0.75px;"/>
    </g>
    <g transform="matrix(1.04323,0,0,1.04323,0,0)">
        <path d="M60.39,280.7C59.556,280.805 58.718,280.521 58.12,279.93L57.06,278.87C56.521,278.327 55.774,278.04 55.01,278.08" style="fill:none;fill-rule:nonzero;stroke:#2c7896;stroke-width:0.75px;"/>
        <path d="M55,280.72C55.763,280.755 56.508,280.469 57.05,279.93L58.11,278.87C58.706,278.276 59.546,277.992 60.38,278.1" style="fill:none;fill-rule:nonzero;stroke:#ae076a;stroke-width:0.75px;"/>
    </g>
    <g transform="matrix(1.04323,0,0,1.04323,0,0)">
        <path d="M89,280.7C88.166,280.804 87.329,280.52 86.73,279.93L85.73,278.87C85.185,278.329 84.437,278.042 83.67,278.08" style="fill:none;fill-rule:nonzero;stroke:#2c7896;stroke-width:0.75px;"/>
        <path d="M83.64,280.72C84.406,280.756 85.154,280.469 85.7,279.93L86.7,278.87C87.303,278.267 88.156,277.982 89,278.1" style="fill:none;fill-rule:nonzero;stroke:#ae076a;stroke-width:0.75px;"/>
    </g>
    <g transform="matrix(1.04323,0,0,1.04323,0,0)">
        <g transform="matrix(1,0,0,1,0,10)">
            <path d="M66.35,347L65.7,345.65C65.34,344.9 64.9,343.98 64.6,343.37L64.6,346.89C64.6,346.894 64.6,346.897 64.6,346.901C64.6,347.033 64.492,347.141 64.36,347.141C64.353,347.141 64.347,347.141 64.34,347.14C64.337,347.14 64.333,347.14 64.33,347.14C64.198,347.14 64.09,347.032 64.09,346.9C64.09,346.897 64.09,346.893 64.09,346.89L64.09,342.25C64.088,342.13 64.172,342.024 64.29,342C64.407,341.978 64.525,342.035 64.58,342.14L65.22,343.49L66.33,345.77L66.33,342.25C66.327,342.233 66.325,342.216 66.325,342.199C66.325,342.057 66.442,341.939 66.585,341.939C66.728,341.939 66.845,342.057 66.845,342.199C66.845,342.216 66.843,342.233 66.84,342.25L66.84,346.89C66.842,347.008 66.756,347.11 66.64,347.13C66.525,347.161 66.403,347.107 66.35,347Z" style="fill:#1b1b19;fill-rule:nonzero;"/>
        </g>
        <g transform="matrix(1,0,0,1,0,10)">
            <path d="M67.85,346.05L67.85,344.45C67.85,343.879 68.319,343.41 68.89,343.41C69.461,343.41 69.93,343.879 69.93,344.45L69.93,346.05C69.93,346.621 69.461,347.09 68.89,347.09C68.319,347.09 67.85,346.621 67.85,346.05ZM68.33,344.45L68.33,346.05C68.33,346.357 68.583,346.61 68.89,346.61C69.197,346.61 69.45,346.357 69.45,346.05L69.45,344.45C69.45,344.143 69.197,343.89 68.89,343.89C68.583,343.89 68.33,344.143 68.33,344.45Z" style="fill:#1b1b19;fill-rule:nonzero;"/>
        </g>
        <g transform="matrix(1,0,0,1,0,10)">
            <path d="M71,346.85L71,343.68C71,343.548 71.108,343.44 71.24,343.44L72,343.44C72.549,343.44 73,343.891 73,344.44L73,346.81C73,346.942 72.892,347.05 72.76,347.05C72.628,347.05 72.52,346.942 72.52,346.81L72.52,344.44C72.52,344.133 72.267,343.88 71.96,343.88L71.4,343.88L71.4,346.81C71.4,346.942 71.292,347.05 71.16,347.05C71.028,347.05 70.92,346.942 70.92,346.81L71,346.85Z" style="fill:#1b1b19;fill-rule:nonzero;"/>
        </g>
        <g transform="matrix(1,0,0,1,0,10)">
            <path d="M74.06,346.29L74.06,342.05C74.06,341.918 74.168,341.81 74.3,341.81C74.303,341.81 74.307,341.81 74.31,341.81C74.436,341.81 74.54,341.914 74.54,342.04C74.54,342.043 74.54,342.047 74.54,342.05L74.54,346.29C74.537,346.435 74.614,346.57 74.74,346.64C74.818,346.679 74.867,346.759 74.867,346.845C74.867,346.89 74.854,346.933 74.83,346.97C74.79,347.043 74.712,347.089 74.628,347.089C74.583,347.089 74.538,347.076 74.5,347.05C74.232,346.89 74.065,346.602 74.06,346.29Z" style="fill:#1b1b19;fill-rule:nonzero;"/>
        </g>
        <g transform="matrix(1,0,0,1,0,10)">
            <path d="M75.61,342.45C75.61,342.443 75.609,342.436 75.609,342.429C75.609,342.265 75.745,342.129 75.909,342.129C75.916,342.129 75.923,342.13 75.93,342.13C75.933,342.13 75.937,342.13 75.94,342.13C76.11,342.13 76.25,342.27 76.25,342.44C76.25,342.443 76.25,342.447 76.25,342.45C76.25,342.626 76.106,342.77 75.93,342.77C75.927,342.77 75.923,342.77 75.92,342.77C75.75,342.77 75.61,342.63 75.61,342.46C75.61,342.457 75.61,342.453 75.61,342.45ZM75.93,347.09C75.798,347.09 75.69,346.982 75.69,346.85L75.69,343.65C75.69,343.518 75.798,343.41 75.93,343.41C76.062,343.41 76.17,343.518 76.17,343.65L76.17,346.85C76.17,346.982 76.062,347.09 75.93,347.09Z" style="fill:#1b1b19;fill-rule:nonzero;"/>
        </g>
        <g transform="matrix(1,0,0,1,0,10)">
            <path d="M77.29,346.85L77.29,343.68C77.29,343.677 77.29,343.673 77.29,343.67C77.29,343.544 77.394,343.44 77.52,343.44C77.523,343.44 77.527,343.44 77.53,343.44L78.33,343.44C78.879,343.44 79.33,343.891 79.33,344.44L79.33,346.81C79.325,346.94 79.22,347.045 79.09,347.05C78.958,347.05 78.85,346.942 78.85,346.81L78.85,344.44C78.85,344.133 78.597,343.88 78.29,343.88L77.73,343.88L77.73,346.81C77.73,346.942 77.622,347.05 77.49,347.05C77.387,347.034 77.306,346.953 77.29,346.85Z" style="fill:#1b1b19;fill-rule:nonzero;"/>
        </g>
        <g transform="matrix(1,0,0,1,0,10)">
            <path d="M80.33,346.05L80.33,344.45C80.33,343.879 80.799,343.41 81.37,343.41C81.941,343.41 82.41,343.879 82.41,344.45L82.41,345.25C82.41,345.382 82.302,345.49 82.17,345.49L80.81,345.49L80.81,346.05C80.805,346.276 80.941,346.484 81.15,346.57C81.359,346.654 81.599,346.607 81.76,346.45C81.802,346.399 81.864,346.37 81.93,346.37C81.996,346.37 82.058,346.399 82.1,346.45C82.148,346.489 82.174,346.549 82.17,346.61C82.173,346.674 82.147,346.736 82.1,346.78C81.91,347.013 81.625,347.148 81.325,347.148C80.777,347.148 80.325,346.696 80.325,346.148C80.325,346.115 80.327,346.082 80.33,346.05ZM80.81,344.45L80.81,345L81.93,345L81.93,344.44C81.93,344.437 81.93,344.433 81.93,344.43C81.93,344.128 81.682,343.88 81.38,343.88C81.377,343.88 81.373,343.88 81.37,343.88C81.367,343.88 81.363,343.88 81.36,343.88C81.058,343.88 80.81,344.128 80.81,344.43C80.81,344.437 80.81,344.443 80.81,344.45Z" style="fill:#1b1b19;fill-rule:nonzero;"/>
        </g>
        <g transform="matrix(1,0,0,1,0,10)">
            <path d="M84.65,344.43C84.649,344.21 84.514,344.011 84.31,343.93C84.109,343.838 83.869,343.886 83.72,344.05C83.671,344.095 83.607,344.12 83.54,344.12C83.408,344.12 83.3,344.012 83.3,343.88C83.3,343.816 83.325,343.755 83.37,343.71C83.66,343.411 84.108,343.323 84.49,343.49C84.877,343.639 85.133,344.015 85.13,344.43L85.13,346.81C85.13,346.942 85.022,347.05 84.89,347.05L84.09,347.05C83.519,347.05 83.05,346.581 83.05,346.01C83.05,345.439 83.519,344.97 84.09,344.97L84.65,344.97L84.65,344.43ZM84.09,346.57L84.65,346.57L84.65,345.45L84.09,345.45C83.783,345.45 83.53,345.703 83.53,346.01C83.53,346.013 83.53,346.017 83.53,346.02C83.53,346.322 83.778,346.57 84.08,346.57C84.083,346.57 84.087,346.57 84.09,346.57Z" style="fill:#1b1b19;fill-rule:nonzero;"/>
        </g>
        <g transform="matrix(1,0,0,1,0,10)">
            <path d="M86.18,346.85L86.18,343.68C86.18,343.548 86.288,343.44 86.42,343.44L87.22,343.44C87.403,343.438 87.583,343.487 87.74,343.58C87.83,343.617 87.89,343.705 87.89,343.802C87.89,343.934 87.781,344.042 87.65,344.042C87.595,344.042 87.542,344.024 87.5,343.99C87.415,343.942 87.318,343.918 87.22,343.92L86.66,343.92L86.66,346.85C86.66,346.982 86.552,347.09 86.42,347.09C86.288,347.09 86.18,346.982 86.18,346.85Z" style="fill:#1b1b19;fill-rule:nonzero;"/>
        </g>
        <g transform="matrix(1,0,0,1,0,10)">
            <path d="M88.4,346.05L88.4,344.45C88.371,344.014 88.632,343.606 89.04,343.45C89.426,343.292 89.871,343.379 90.17,343.67C90.213,343.72 90.238,343.784 90.24,343.85C90.238,343.91 90.213,343.967 90.17,344.01C90.125,344.055 90.064,344.08 90,344.08C89.937,344.078 89.876,344.053 89.83,344.01C89.724,343.873 89.56,343.793 89.387,343.793C89.08,343.793 88.827,344.045 88.827,344.353C88.827,344.372 88.828,344.391 88.83,344.41L88.83,346.01C88.828,346.029 88.827,346.048 88.827,346.067C88.827,346.375 89.08,346.627 89.387,346.627C89.56,346.627 89.724,346.547 89.83,346.41C89.873,346.36 89.935,346.331 90,346.33C90.066,346.328 90.129,346.358 90.17,346.41C90.214,346.451 90.24,346.509 90.24,346.57C90.238,346.633 90.213,346.694 90.17,346.74C89.98,346.973 89.695,347.108 89.395,347.108C88.847,347.108 88.395,346.656 88.395,346.108C88.395,346.075 88.397,346.042 88.4,346.01L88.4,346.05Z" style="fill:#1b1b19;fill-rule:nonzero;"/>
        </g>
        <g transform="matrix(1,0,0,1,0,10)">
            <path d="M91,342.45C91,342.443 90.999,342.436 90.999,342.429C90.999,342.265 91.135,342.129 91.299,342.129C91.306,342.129 91.313,342.13 91.32,342.13C91.323,342.13 91.327,342.13 91.33,342.13C91.5,342.13 91.64,342.27 91.64,342.44C91.64,342.443 91.64,342.447 91.64,342.45C91.64,342.626 91.496,342.77 91.32,342.77C91.317,342.77 91.313,342.77 91.31,342.77C91.14,342.77 91,342.63 91,342.46C91,342.457 91,342.453 91,342.45ZM91.32,347.09C91.188,347.09 91.08,346.982 91.08,346.85L91.08,343.65C91.08,343.518 91.188,343.41 91.32,343.41C91.452,343.41 91.56,343.518 91.56,343.65L91.56,346.85C91.562,346.968 91.476,347.07 91.36,347.09L91.32,347.09Z" style="fill:#1b1b19;fill-rule:nonzero;"/>
        </g>
        <g transform="matrix(1,0,0,1,0,10)">
            <path d="M92.72,346.85L92.72,343.68C92.72,343.677 92.72,343.673 92.72,343.67C92.72,343.544 92.824,343.44 92.95,343.44C92.953,343.44 92.957,343.44 92.96,343.44L93.76,343.44C93.942,343.443 94.121,343.491 94.28,343.58C94.355,343.62 94.402,343.698 94.402,343.783C94.402,343.824 94.391,343.865 94.37,343.9C94.334,343.991 94.245,344.051 94.147,344.051C94.094,344.051 94.042,344.033 94,344C93.914,343.953 93.818,343.929 93.72,343.93L93.2,343.93L93.2,346.86C93.2,346.992 93.092,347.1 92.96,347.1C92.96,347.1 92.96,347.1 92.96,347.1C92.828,347.1 92.72,346.992 92.72,346.86C92.72,346.857 92.72,346.853 92.72,346.85Z" style="fill:#1b1b19;fill-rule:nonzero;"/>
        </g>
        <g transform="matrix(1,0,0,1,0,10)">
            <path d="M94.93,346.05L94.93,344.45C94.901,344.014 95.162,343.606 95.57,343.45C95.96,343.293 96.407,343.379 96.71,343.67C96.75,343.721 96.772,343.785 96.77,343.85C96.771,343.909 96.75,343.966 96.71,344.01C96.661,344.055 96.597,344.08 96.53,344.08C96.47,344.078 96.413,344.053 96.37,344.01C96.211,343.848 95.968,343.8 95.76,343.89C95.545,343.971 95.404,344.18 95.41,344.41L95.41,346.01C95.41,346.238 95.549,346.444 95.76,346.53C95.969,346.614 96.209,346.567 96.37,346.41C96.409,346.361 96.467,346.331 96.53,346.33C96.599,346.328 96.665,346.358 96.71,346.41C96.752,346.452 96.774,346.511 96.77,346.57C96.772,346.632 96.75,346.693 96.71,346.74C96.417,347.048 95.957,347.137 95.57,346.96C95.193,346.815 94.939,346.454 94.93,346.05Z" style="fill:#1b1b19;fill-rule:nonzero;"/>
        </g>
        <g transform="matrix(1,0,0,1,0,10)">
            <path d="M97.59,346L97.59,343.64C97.59,343.508 97.698,343.4 97.83,343.4C97.962,343.4 98.07,343.508 98.07,343.64L98.07,346C98.07,346.003 98.07,346.007 98.07,346.01C98.07,346.312 98.318,346.56 98.62,346.56C98.623,346.56 98.627,346.56 98.63,346.56L99.19,346.56L99.19,343.64C99.19,343.508 99.298,343.4 99.43,343.4C99.562,343.4 99.67,343.508 99.67,343.64L99.67,346.8C99.67,346.803 99.67,346.807 99.67,346.81C99.67,346.936 99.566,347.04 99.44,347.04C99.437,347.04 99.433,347.04 99.43,347.04L98.63,347.04C98.616,347.041 98.603,347.041 98.589,347.041C98.041,347.041 97.589,346.589 97.589,346.041C97.589,346.027 97.589,346.014 97.59,346Z" style="fill:#1b1b19;fill-rule:nonzero;"/>
        </g>
        <g transform="matrix(1,0,0,1,0,10)">
            <path d="M100.71,342.45C100.71,342.274 100.854,342.13 101.03,342.13C101.206,342.13 101.35,342.274 101.35,342.45C101.35,342.626 101.206,342.77 101.03,342.77C100.854,342.77 100.71,342.626 100.71,342.45ZM101.03,347.09C100.898,347.09 100.79,346.982 100.79,346.85L100.79,343.65C100.79,343.518 100.898,343.41 101.03,343.41C101.033,343.41 101.037,343.41 101.04,343.41C101.166,343.41 101.27,343.514 101.27,343.64C101.27,343.643 101.27,343.647 101.27,343.65L101.27,346.85C101.27,346.851 101.27,346.851 101.27,346.852C101.27,346.984 101.162,347.092 101.03,347.092C101.02,347.092 101.01,347.091 101,347.09L101.03,347.09Z" style="fill:#1b1b19;fill-rule:nonzero;"/>
        </g>
        <g transform="matrix(1,0,0,1,0,10)">
            <path d="M102,343.68C102,343.677 102,343.673 102,343.67C102,343.544 102.104,343.44 102.23,343.44C102.233,343.44 102.237,343.44 102.24,343.44L102.64,343.44L102.64,342.05C102.64,342.047 102.64,342.043 102.64,342.04C102.64,341.914 102.744,341.81 102.87,341.81C102.873,341.81 102.877,341.81 102.88,341.81C103.012,341.81 103.12,341.918 103.12,342.05L103.12,343.44L103.68,343.44C103.812,343.44 103.92,343.548 103.92,343.68C103.92,343.812 103.812,343.92 103.68,343.92L103.12,343.92L103.12,346.05C103.12,346.357 103.373,346.61 103.68,346.61C103.812,346.61 103.92,346.718 103.92,346.85C103.92,346.982 103.812,347.09 103.68,347.09C103.131,347.09 102.68,346.639 102.68,346.09L102.68,343.96L102.28,343.96C102.261,343.965 102.242,343.967 102.223,343.967C102.097,343.967 101.993,343.863 101.993,343.737C101.993,343.718 101.995,343.699 102,343.68Z" style="fill:#1b1b19;fill-rule:nonzero;"/>
        </g>
        <g transform="matrix(1,0,0,1,0,10)">
            <path d="M106,346.06C105.995,345.907 105.916,345.766 105.79,345.68L105.04,345.15C104.81,344.979 104.664,344.716 104.64,344.43C104.612,344.138 104.728,343.851 104.95,343.66C105.166,343.47 105.455,343.383 105.74,343.42C106.027,343.469 106.28,343.64 106.43,343.89C106.451,343.927 106.462,343.968 106.462,344.01C106.462,344.143 106.353,344.252 106.22,344.252C106.133,344.252 106.053,344.205 106.01,344.13C105.942,344.002 105.814,343.916 105.67,343.9C105.527,343.869 105.377,343.91 105.27,344.01C105.163,344.11 105.108,344.254 105.12,344.4C105.125,344.545 105.199,344.679 105.32,344.76L106.07,345.28C106.312,345.456 106.462,345.731 106.48,346.03C106.511,346.33 106.391,346.626 106.16,346.82C105.942,347.023 105.645,347.118 105.35,347.08C105.052,347.032 104.79,346.852 104.64,346.59C104.614,346.552 104.601,346.507 104.601,346.462C104.601,346.378 104.647,346.3 104.72,346.26C104.757,346.239 104.798,346.227 104.841,346.227C104.927,346.227 105.008,346.274 105.05,346.35C105.13,346.484 105.266,346.575 105.42,346.6C105.572,346.622 105.727,346.574 105.84,346.47C105.959,346.369 106.02,346.215 106,346.06Z" style="fill:#1b1b19;fill-rule:nonzero;"/>
        </g>
    </g>
    <g transform="matrix(1.04323,0,0,1.04323,0,0)">
        <path d="M35.28,234.09C35.91,234.098 36.503,234.392 36.89,234.89L37.76,235.94C38.145,236.434 38.734,236.728 39.36,236.74" style="fill:none;fill-rule:nonzero;stroke:#ae076a;stroke-width:0.75px;"/>
        <path d="M27.4,234.11C27.926,234.193 28.401,234.472 28.73,234.89L29.6,235.94C30.028,236.495 30.712,236.794 31.41,236.73" style="fill:none;fill-rule:nonzero;stroke:#ae076a;stroke-width:0.75px;"/>
        <path d="M18.87,234.09C19.531,234.073 20.162,234.37 20.57,234.89L21.44,235.94C21.806,236.405 22.35,236.695 22.94,236.74" style="fill:none;fill-rule:nonzero;stroke:#ae076a;stroke-width:0.75px;"/>
        <path d="M43.44,236.74C42.814,236.728 42.225,236.434 41.84,235.94L41,234.89C40.623,234.383 40.027,234.083 39.395,234.083C38.763,234.083 38.167,234.383 37.79,234.89L36.92,235.94C36.543,236.447 35.947,236.747 35.315,236.747C34.683,236.747 34.087,236.447 33.71,235.94L32.84,234.89C32.463,234.383 31.867,234.083 31.235,234.083C30.603,234.083 30.007,234.383 29.63,234.89L28.76,235.94C28.383,236.447 27.787,236.747 27.155,236.747C26.523,236.747 25.927,236.447 25.55,235.94L24.67,234.89C24.293,234.387 23.699,234.09 23.07,234.09C22.441,234.09 21.847,234.387 21.47,234.89L20.6,235.94C20.223,236.447 19.627,236.747 18.995,236.747C18.363,236.747 17.767,236.447 17.39,235.94L16.52,234.89C16.132,234.395 15.539,234.1 14.91,234.09" style="fill:none;fill-rule:nonzero;stroke:#2c7896;stroke-width:0.75px;"/>
        <path d="M39.36,236.74C39.989,236.728 40.581,236.434 40.97,235.94L41.84,234.89C42.225,234.396 42.814,234.102 43.44,234.09" style="fill:none;fill-rule:nonzero;stroke:#ae076a;stroke-width:0.75px;"/>
        <path d="M31.41,236.73C31.961,236.659 32.464,236.375 32.81,235.94L33.68,234.89C34.062,234.393 34.653,234.098 35.28,234.09" style="fill:none;fill-rule:nonzero;stroke:#ae076a;stroke-width:0.75px;"/>
        <path d="M22.94,236.74C23.602,236.762 24.235,236.464 24.64,235.94L25.52,234.89C25.957,234.308 26.679,234.008 27.4,234.11" style="fill:none;fill-rule:nonzero;stroke:#ae076a;stroke-width:0.75px;"/>
        <path d="M14.88,236.74C15.509,236.73 16.102,236.435 16.49,235.94L17.36,234.89C17.726,234.421 18.276,234.129 18.87,234.09" style="fill:none;fill-rule:nonzero;stroke:#ae076a;stroke-width:0.75px;"/>
    </g>
    <g transform="matrix(1.04323,0,0,1.04323,0,0)">
        <path d="M64.12,236.68C64.746,236.668 65.335,236.374 65.72,235.88L66.59,234.88C66.978,234.385 67.571,234.09 68.2,234.08" style="fill:none;fill-rule:nonzero;stroke:#ae076a;stroke-width:0.75px;"/>
        <path d="M56.24,236.66C56.759,236.566 57.227,236.289 57.56,235.88L58.44,234.88C58.862,234.317 59.55,234.016 60.25,234.09" style="fill:none;fill-rule:nonzero;stroke:#ae076a;stroke-width:0.75px;"/>
        <path d="M47.7,236.68C48.362,236.702 48.995,236.404 49.4,235.88L50.27,234.88C50.636,234.415 51.18,234.125 51.77,234.08" style="fill:none;fill-rule:nonzero;stroke:#ae076a;stroke-width:0.75px;"/>
        <path d="M72.27,234C71.644,234.012 71.055,234.306 70.67,234.8L69.8,235.8C69.423,236.307 68.827,236.607 68.195,236.607C67.563,236.607 66.967,236.307 66.59,235.8L65.72,234.8C65.343,234.293 64.747,233.993 64.115,233.993C63.483,233.993 62.887,234.293 62.51,234.8L61.64,235.8C61.263,236.303 60.669,236.6 60.04,236.6C59.411,236.6 58.817,236.303 58.44,235.8L57.56,234.8C57.183,234.293 56.587,233.993 55.955,233.993C55.323,233.993 54.727,234.293 54.35,234.8L53.48,235.8C53.103,236.307 52.507,236.607 51.875,236.607C51.243,236.607 50.647,236.307 50.27,235.8L49.4,234.8C49.023,234.293 48.427,233.993 47.795,233.993C47.163,233.993 46.567,234.293 46.19,234.8L45.32,235.8C44.935,236.294 44.346,236.588 43.72,236.6" style="fill:none;fill-rule:nonzero;stroke:#2c7896;stroke-width:0.75px;"/>
        <path d="M68.2,234C68.826,234.012 69.415,234.306 69.8,234.8L70.67,235.8C71.055,236.294 71.644,236.588 72.27,236.6" style="fill:none;fill-rule:nonzero;stroke:#ae076a;stroke-width:0.75px;"/>
        <path d="M60.25,234C60.798,234.072 61.298,234.356 61.64,234.79L62.51,235.79C62.898,236.285 63.491,236.58 64.12,236.59" style="fill:none;fill-rule:nonzero;stroke:#ae076a;stroke-width:0.75px;"/>
        <path d="M51.77,234C52.435,233.976 53.072,234.274 53.48,234.8L54.35,235.8C54.796,236.377 55.517,236.675 56.24,236.58" style="fill:none;fill-rule:nonzero;stroke:#ae076a;stroke-width:0.75px;"/>
        <path d="M43.72,234C44.346,234.012 44.935,234.306 45.32,234.8L46.19,235.8C46.561,236.264 47.108,236.553 47.7,236.6" style="fill:none;fill-rule:nonzero;stroke:#ae076a;stroke-width:0.75px;"/>
    </g>
    <g transform="matrix(1.04323,0,0,1.04323,0,0)">
        <path d="M92.78,234.09C93.41,234.098 94.003,234.392 94.39,234.89L95.26,235.94C95.645,236.434 96.234,236.728 96.86,236.74" style="fill:none;fill-rule:nonzero;stroke:#ae076a;stroke-width:0.75px;"/>
        <path d="M84.9,234.11C85.426,234.193 85.901,234.472 86.23,234.89L87.1,235.94C87.528,236.495 88.212,236.794 88.91,236.73" style="fill:none;fill-rule:nonzero;stroke:#ae076a;stroke-width:0.75px;"/>
        <path d="M76.37,234.09C77.031,234.073 77.662,234.37 78.07,234.89L78.94,235.94C79.306,236.405 79.85,236.695 80.44,236.74" style="fill:none;fill-rule:nonzero;stroke:#ae076a;stroke-width:0.75px;"/>
        <path d="M100.94,236.74C100.314,236.728 99.725,236.434 99.34,235.94L98.47,234.89C98.093,234.383 97.497,234.083 96.865,234.083C96.233,234.083 95.637,234.383 95.26,234.89L94.39,235.94C94.013,236.447 93.417,236.747 92.785,236.747C92.153,236.747 91.557,236.447 91.18,235.94L90.31,234.89C89.933,234.383 89.337,234.083 88.705,234.083C88.073,234.083 87.477,234.383 87.1,234.89L86.23,235.94C85.853,236.447 85.257,236.747 84.625,236.747C83.993,236.747 83.397,236.447 83.02,235.94L82.14,234.89C81.763,234.387 81.169,234.09 80.54,234.09C79.911,234.09 79.317,234.387 78.94,234.89L78.07,235.94C77.693,236.447 77.097,236.747 76.465,236.747C75.833,236.747 75.237,236.447 74.86,235.94L74,234.89C73.612,234.395 73.019,234.1 72.39,234.09" style="fill:none;fill-rule:nonzero;stroke:#2c7896;stroke-width:0.75px;"/>
        <path d="M96.86,236.74C97.489,236.728 98.081,236.434 98.47,235.94L99.34,234.89C99.725,234.396 100.314,234.102 100.94,234.09" style="fill:none;fill-rule:nonzero;stroke:#ae076a;stroke-width:0.75px;"/>
        <path d="M88.91,236.73C89.461,236.659 89.964,236.375 90.31,235.94L91.18,234.89C91.562,234.393 92.153,234.098 92.78,234.09" style="fill:none;fill-rule:nonzero;stroke:#ae076a;stroke-width:0.75px;"/>
        <path d="M80.44,236.74C81.102,236.762 81.735,236.464 82.14,235.94L83.02,234.89C83.457,234.308 84.179,234.008 84.9,234.11" style="fill:none;fill-rule:nonzero;stroke:#ae076a;stroke-width:0.75px;"/>
        <path d="M72.38,236.74C73.009,236.73 73.602,236.435 73.99,235.94L74.86,234.89C75.226,234.421 75.776,234.129 76.37,234.09" style="fill:none;fill-rule:nonzero;stroke:#ae076a;stroke-width:0.75px;"/>
    </g>
    <g transform="matrix(1.04323,0,0,1.04323,0,0)">
        <path d="M8.37,220L8.37,217.62C8.37,217.62 8.37,217.619 8.37,217.619C8.37,217.032 8.853,216.549 9.44,216.549C9.824,216.549 10.18,216.756 10.37,217.09C10.426,217.198 10.391,217.332 10.29,217.4C10.18,217.459 10.041,217.419 9.98,217.31C9.868,217.125 9.666,217.012 9.45,217.012C9.114,217.012 8.836,217.284 8.83,217.62L8.83,220C8.83,220.28 9.019,220.528 9.29,220.6C9.559,220.68 9.849,220.558 9.98,220.31C10.024,220.259 10.087,220.23 10.154,220.23C10.281,220.23 10.384,220.334 10.384,220.46C10.384,220.487 10.38,220.514 10.37,220.54C10.18,220.874 9.824,221.081 9.44,221.081C8.853,221.081 8.37,220.598 8.37,220.011C8.37,220.007 8.37,220.004 8.37,220Z" style="fill:#1b1b19;fill-rule:nonzero;"/>
        <path d="M11.15,220.81L11.15,216.81C11.15,216.806 11.15,216.803 11.15,216.799C11.15,216.684 11.245,216.589 11.36,216.589C11.366,216.589 11.373,216.589 11.38,216.59C11.501,216.59 11.6,216.689 11.6,216.81L11.6,220.62L12.78,220.62C12.901,220.62 13,220.719 13,220.84C13,220.843 13,220.847 13,220.85C13,220.971 12.901,221.07 12.78,221.07L11.38,221.07C11.371,221.071 11.362,221.072 11.354,221.072C11.238,221.072 11.144,220.977 11.144,220.862C11.144,220.844 11.146,220.827 11.15,220.81Z" style="fill:#1b1b19;fill-rule:nonzero;"/>
        <path d="M13.5,220L13.5,217.62C13.553,217.074 14.017,216.653 14.565,216.653C15.113,216.653 15.577,217.074 15.63,217.62L15.63,220C15.633,220.034 15.635,220.069 15.635,220.103C15.635,220.69 15.152,221.173 14.565,221.173C13.978,221.173 13.495,220.69 13.495,220.103C13.495,220.069 13.497,220.034 13.5,220ZM13.95,217.62L13.95,220C13.947,220.026 13.945,220.052 13.945,220.079C13.945,220.419 14.225,220.699 14.565,220.699C14.905,220.699 15.185,220.419 15.185,220.079C15.185,220.052 15.183,220.026 15.18,220L15.18,217.62C15.141,217.312 14.876,217.079 14.565,217.079C14.254,217.079 13.989,217.312 13.95,217.62Z" style="fill:#1b1b19;fill-rule:nonzero;"/>
        <path d="M16.42,220L16.42,217.62C16.419,217.606 16.419,217.592 16.419,217.578C16.419,216.997 16.898,216.518 17.479,216.518C17.874,216.518 18.238,216.739 18.42,217.09C18.481,217.197 18.445,217.336 18.34,217.4C18.23,217.459 18.091,217.419 18.03,217.31C17.893,217.069 17.606,216.952 17.34,217.03C17.071,217.098 16.881,217.342 16.88,217.62L16.88,220C16.883,220.279 17.071,220.525 17.34,220.6C17.609,220.68 17.899,220.558 18.03,220.31C18.098,220.209 18.232,220.174 18.34,220.23C18.445,220.294 18.481,220.433 18.42,220.54C18.196,220.969 17.691,221.177 17.23,221.03C16.744,220.936 16.396,220.495 16.42,220Z" style="fill:#1b1b19;fill-rule:nonzero;"/>
        <path d="M21.34,221C21.227,221.05 21.094,221.001 21.04,220.89L20.04,218.81L19.64,219.36L19.64,220.79C19.641,220.797 19.641,220.804 19.641,220.81C19.641,220.925 19.546,221.02 19.431,221.02C19.427,221.02 19.424,221.02 19.42,221.02C19.42,221.02 19.42,221.02 19.42,221.02C19.299,221.02 19.2,220.921 19.2,220.8C19.2,220.797 19.2,220.793 19.2,220.79L19.2,216.73C19.2,216.609 19.299,216.51 19.42,216.51C19.423,216.51 19.427,216.51 19.43,216.51C19.545,216.51 19.64,216.605 19.64,216.72C19.64,216.723 19.64,216.727 19.64,216.73L19.64,218.59L21.06,216.59C21.1,216.546 21.156,216.522 21.215,216.522C21.274,216.522 21.33,216.546 21.37,216.59C21.431,216.631 21.468,216.7 21.468,216.773C21.468,216.823 21.451,216.871 21.42,216.91L20.34,218.43L21.44,220.74C21.473,220.839 21.431,220.948 21.34,221Z" style="fill:#1b1b19;fill-rule:nonzero;"/>
    </g>
    <g transform="matrix(1.04323,0,0,1.04323,0,0)">
        <path d="M40.08,220.83L40.08,216.77C40.08,216.77 40.08,216.77 40.08,216.77C40.08,216.649 40.179,216.55 40.3,216.55C40.303,216.55 40.307,216.55 40.31,216.55C40.313,216.55 40.317,216.55 40.32,216.55C40.435,216.55 40.53,216.645 40.53,216.76C40.53,216.763 40.53,216.767 40.53,216.77L40.53,220.83C40.531,220.837 40.531,220.844 40.531,220.85C40.531,220.965 40.436,221.06 40.321,221.06C40.317,221.06 40.314,221.06 40.31,221.06C40.184,221.06 40.08,220.956 40.08,220.83Z" style="fill:#1b1b19;fill-rule:nonzero;"/>
        <path d="M43.46,220.93C43.27,220.53 43.08,220.13 42.89,219.75L41.89,217.75L41.89,220.83C41.891,220.837 41.891,220.844 41.891,220.85C41.891,220.965 41.796,221.06 41.681,221.06C41.677,221.06 41.674,221.06 41.67,221.06C41.667,221.06 41.663,221.06 41.66,221.06C41.539,221.06 41.44,220.961 41.44,220.84C41.44,220.837 41.44,220.833 41.44,220.83L41.44,216.77C41.439,216.665 41.516,216.575 41.62,216.56C41.718,216.534 41.822,216.58 41.87,216.67L42.44,217.86L43.44,219.86L43.44,216.78C43.44,216.78 43.44,216.78 43.44,216.78C43.44,216.659 43.539,216.56 43.66,216.56C43.663,216.56 43.667,216.56 43.67,216.56C43.673,216.56 43.677,216.56 43.68,216.56C43.795,216.56 43.89,216.655 43.89,216.77C43.89,216.773 43.89,216.777 43.89,216.78L43.89,220.84C43.893,220.944 43.821,221.036 43.72,221.06C43.614,221.084 43.505,221.029 43.46,220.93Z" style="fill:#1b1b19;fill-rule:nonzero;"/>
        <path d="M45.15,217.84C45.15,217.84 45.15,217.84 45.15,217.84C45.029,217.84 44.93,217.741 44.93,217.62C44.93,217.617 44.93,217.613 44.93,217.61C44.931,217.551 44.952,217.495 44.99,217.45L45.83,216.61C45.898,216.549 45.994,216.53 46.08,216.56C46.166,216.594 46.222,216.678 46.22,216.77L46.22,220.83C46.22,220.956 46.116,221.06 45.99,221.06C45.986,221.06 45.983,221.06 45.979,221.06C45.864,221.06 45.769,220.965 45.769,220.85C45.769,220.844 45.769,220.837 45.77,220.83L45.77,217.31L45.31,217.77C45.269,217.815 45.211,217.841 45.15,217.84Z" style="fill:#1b1b19;fill-rule:nonzero;"/>
    </g>
    <g transform="matrix(1.04323,0,0,1.04323,0,0)">
        <path d="M68.76,220.83L68.76,216.77C68.76,216.77 68.76,216.77 68.76,216.77C68.76,216.649 68.859,216.55 68.98,216.55C68.983,216.55 68.987,216.55 68.99,216.55C68.993,216.55 68.997,216.55 69,216.55C69.115,216.55 69.21,216.645 69.21,216.76C69.21,216.763 69.21,216.767 69.21,216.77L69.21,220.83C69.211,220.837 69.211,220.844 69.211,220.85C69.211,220.965 69.116,221.06 69.001,221.06C68.997,221.06 68.994,221.06 68.99,221.06C68.864,221.06 68.76,220.956 68.76,220.83Z" style="fill:#1b1b19;fill-rule:nonzero;"/>
        <path d="M72.14,220.93C71.95,220.53 71.76,220.13 71.57,219.75C71.25,219.1 70.87,218.29 70.57,217.75L70.57,220.83C70.571,220.837 70.571,220.844 70.571,220.85C70.571,220.965 70.476,221.06 70.361,221.06C70.357,221.06 70.354,221.06 70.35,221.06C70.347,221.06 70.343,221.06 70.34,221.06C70.219,221.06 70.12,220.961 70.12,220.84C70.12,220.837 70.12,220.833 70.12,220.83L70.12,216.77C70.119,216.665 70.196,216.575 70.3,216.56C70.398,216.534 70.502,216.58 70.55,216.67L71.12,217.86L72.12,219.86L72.12,216.78C72.12,216.776 72.12,216.773 72.12,216.769C72.12,216.654 72.215,216.559 72.33,216.559C72.336,216.559 72.343,216.559 72.35,216.56C72.353,216.56 72.357,216.56 72.36,216.56C72.475,216.56 72.57,216.655 72.57,216.77C72.57,216.773 72.57,216.777 72.57,216.78L72.57,220.84C72.573,220.944 72.501,221.036 72.4,221.06C72.294,221.084 72.185,221.029 72.14,220.93Z" style="fill:#1b1b19;fill-rule:nonzero;"/>
        <path d="M73.49,217.08C73.625,216.834 73.858,216.656 74.13,216.59C74.398,216.514 74.686,216.546 74.93,216.68C75.175,216.808 75.356,217.033 75.43,217.3C75.522,217.568 75.497,217.862 75.36,218.11L74.81,219.11L74.06,220.54L75.26,220.54C75.381,220.54 75.48,220.639 75.48,220.76C75.48,220.763 75.48,220.767 75.48,220.77C75.48,220.891 75.381,220.99 75.26,220.99L73.69,220.99C73.613,220.996 73.538,220.957 73.5,220.89C73.454,220.82 73.454,220.73 73.5,220.66L75,217.9C75.081,217.761 75.099,217.593 75.05,217.44C75.004,217.281 74.896,217.148 74.75,217.07C74.602,217.015 74.438,217.015 74.29,217.07C74.136,217.109 74.006,217.211 73.93,217.35C73.869,217.459 73.73,217.499 73.62,217.44C73.518,217.415 73.445,217.322 73.445,217.217C73.445,217.167 73.461,217.12 73.49,217.08Z" style="fill:#1b1b19;fill-rule:nonzero;"/>
    </g>
    <g transform="matrix(1.04323,0,0,1.04323,0,0)">
        <path d="M97.68,220.83L97.68,216.77C97.68,216.77 97.68,216.77 97.68,216.77C97.68,216.649 97.779,216.55 97.9,216.55C97.903,216.55 97.907,216.55 97.91,216.55C97.913,216.55 97.917,216.55 97.92,216.55C98.035,216.55 98.13,216.645 98.13,216.76C98.13,216.763 98.13,216.767 98.13,216.77L98.13,220.83C98.131,220.837 98.131,220.844 98.131,220.85C98.131,220.965 98.036,221.06 97.921,221.06C97.917,221.06 97.914,221.06 97.91,221.06C97.784,221.06 97.68,220.956 97.68,220.83Z" style="fill:#1b1b19;fill-rule:nonzero;"/>
        <path d="M101.06,220.93C100.87,220.53 100.68,220.13 100.49,219.75C100.17,219.1 99.79,218.29 99.49,217.75L99.49,220.83C99.491,220.837 99.491,220.844 99.491,220.85C99.491,220.965 99.396,221.06 99.281,221.06C99.277,221.06 99.274,221.06 99.27,221.06C99.267,221.06 99.263,221.06 99.26,221.06C99.139,221.06 99.04,220.961 99.04,220.84C99.04,220.837 99.04,220.833 99.04,220.83L99.04,216.77C99.039,216.665 99.116,216.575 99.22,216.56C99.318,216.534 99.422,216.58 99.47,216.67L100.04,217.86L101.04,219.86L101.04,216.78C101.04,216.776 101.04,216.773 101.04,216.769C101.04,216.654 101.135,216.559 101.25,216.559C101.256,216.559 101.263,216.559 101.27,216.56C101.273,216.56 101.277,216.56 101.28,216.56C101.395,216.56 101.49,216.655 101.49,216.77C101.49,216.773 101.49,216.777 101.49,216.78L101.49,220.84C101.493,220.944 101.421,221.036 101.32,221.06C101.214,221.084 101.105,221.029 101.06,220.93Z" style="fill:#1b1b19;fill-rule:nonzero;"/>
        <path d="M103.86,220L103.86,219.58C103.855,219.244 103.576,218.97 103.24,218.97C103.236,218.97 103.233,218.97 103.229,218.97C103.114,218.97 103.019,218.875 103.019,218.76C103.019,218.754 103.019,218.747 103.02,218.74C103.02,218.737 103.02,218.733 103.02,218.73C103.02,218.615 103.115,218.52 103.23,218.52C103.233,218.52 103.237,218.52 103.24,218.52C103.58,218.52 103.86,218.24 103.86,217.9L103.86,217.62C103.854,217.284 103.576,217.012 103.24,217.012C103.024,217.012 102.822,217.125 102.71,217.31C102.649,217.419 102.51,217.459 102.4,217.4C102.295,217.336 102.259,217.197 102.32,217.09C102.557,216.674 103.047,216.468 103.51,216.59C103.967,216.709 104.294,217.118 104.31,217.59L104.31,217.87C104.31,218.2 104.154,218.512 103.89,218.71C104.151,218.911 104.305,219.221 104.31,219.55L104.31,220C104.298,220.474 103.969,220.884 103.51,221C103.049,221.147 102.544,220.939 102.32,220.51C102.259,220.403 102.295,220.264 102.4,220.2C102.508,220.144 102.642,220.179 102.71,220.28C102.841,220.528 103.131,220.65 103.4,220.57C103.66,220.501 103.847,220.269 103.86,220Z" style="fill:#1b1b19;fill-rule:nonzero;"/>
    </g>
    <g transform="matrix(1.04323,0,0,1.04323,0,0)">
        <path d="M9.49,262.74L9.49,260.36C9.487,260.326 9.485,260.291 9.485,260.257C9.485,259.67 9.968,259.187 10.555,259.187C11.142,259.187 11.625,259.67 11.625,260.257C11.625,260.291 11.623,260.326 11.62,260.36L11.62,262.74C11.567,263.286 11.103,263.707 10.555,263.707C10.007,263.707 9.543,263.286 9.49,262.74ZM9.94,260.36L9.94,262.74C9.94,263.075 10.215,263.35 10.55,263.35C10.553,263.35 10.557,263.35 10.56,263.35C10.895,263.35 11.17,263.075 11.17,262.74C11.17,262.74 11.17,262.74 11.17,262.74L11.17,260.36C11.17,260.02 10.89,259.74 10.55,259.74C10.55,259.74 10.55,259.74 10.55,259.74C10.215,259.74 9.94,260.015 9.94,260.35C9.94,260.353 9.94,260.357 9.94,260.36Z" style="fill:#1b1b19;fill-rule:nonzero;"/>
        <path d="M13.49,263.35C13.493,263.35 13.497,263.35 13.5,263.35C13.835,263.35 14.11,263.075 14.11,262.74C14.11,262.74 14.11,262.74 14.11,262.74L14.11,259.52C14.109,259.513 14.109,259.506 14.109,259.5C14.109,259.385 14.204,259.29 14.319,259.29C14.323,259.29 14.326,259.29 14.33,259.29C14.456,259.29 14.56,259.394 14.56,259.52L14.56,262.74C14.507,263.286 14.043,263.707 13.495,263.707C12.947,263.707 12.483,263.286 12.43,262.74L12.43,259.52C12.429,259.513 12.429,259.506 12.429,259.5C12.429,259.385 12.524,259.29 12.639,259.29C12.643,259.29 12.646,259.29 12.65,259.29C12.776,259.29 12.88,259.394 12.88,259.52L12.88,262.74C12.88,263.075 13.155,263.35 13.49,263.35Z" style="fill:#1b1b19;fill-rule:nonzero;"/>
        <path d="M17.44,259.54C17.441,259.547 17.441,259.554 17.441,259.56C17.441,259.675 17.346,259.77 17.231,259.77C17.227,259.77 17.224,259.77 17.22,259.77L16.53,259.77L16.53,263.58C16.53,263.583 16.53,263.587 16.53,263.59C16.53,263.705 16.435,263.8 16.32,263.8C16.317,263.8 16.313,263.8 16.31,263.8C16.307,263.8 16.303,263.8 16.3,263.8C16.179,263.8 16.08,263.701 16.08,263.58C16.08,263.58 16.08,263.58 16.08,263.58L16.08,259.77L15.4,259.77C15.384,259.773 15.368,259.775 15.352,259.775C15.226,259.775 15.122,259.671 15.122,259.545C15.122,259.419 15.226,259.315 15.352,259.315C15.368,259.315 15.384,259.317 15.4,259.32L17.22,259.32C17.223,259.32 17.227,259.32 17.23,259.32C17.345,259.32 17.44,259.415 17.44,259.53C17.44,259.533 17.44,259.537 17.44,259.54Z" style="fill:#1b1b19;fill-rule:nonzero;"/>
        <path d="M18.42,260.58C18.417,260.58 18.413,260.58 18.41,260.58C18.295,260.58 18.2,260.485 18.2,260.37C18.2,260.367 18.2,260.363 18.2,260.36C18.199,260.301 18.22,260.244 18.26,260.2L19.1,259.36C19.165,259.295 19.264,259.275 19.35,259.31C19.44,259.338 19.499,259.426 19.49,259.52L19.49,263.58C19.49,263.701 19.391,263.8 19.27,263.8C19.267,263.8 19.263,263.8 19.26,263.8C19.257,263.8 19.253,263.8 19.25,263.8C19.135,263.8 19.04,263.705 19.04,263.59C19.04,263.587 19.04,263.583 19.04,263.58L19.04,260.06L18.58,260.52C18.536,260.56 18.479,260.581 18.42,260.58Z" style="fill:#1b1b19;fill-rule:nonzero;"/>
    </g>
    <g transform="matrix(1.04323,0,0,1.04323,0,0)">
        <path d="M38.11,262.74L38.11,260.36C38.107,260.326 38.105,260.291 38.105,260.257C38.105,259.67 38.588,259.187 39.175,259.187C39.762,259.187 40.245,259.67 40.245,260.257C40.245,260.291 40.243,260.326 40.24,260.36L40.24,262.74C40.187,263.286 39.723,263.707 39.175,263.707C38.627,263.707 38.163,263.286 38.11,262.74ZM38.56,260.36L38.56,262.74C38.56,263.075 38.835,263.35 39.17,263.35C39.173,263.35 39.177,263.35 39.18,263.35C39.515,263.35 39.79,263.075 39.79,262.74C39.79,262.74 39.79,262.74 39.79,262.74L39.79,260.36C39.79,260.02 39.51,259.74 39.17,259.74C39.17,259.74 39.17,259.74 39.17,259.74C38.835,259.74 38.56,260.015 38.56,260.35C38.56,260.353 38.56,260.357 38.56,260.36Z" style="fill:#1b1b19;fill-rule:nonzero;"/>
        <path d="M42.11,263.35C42.113,263.35 42.117,263.35 42.12,263.35C42.455,263.35 42.73,263.075 42.73,262.74C42.73,262.74 42.73,262.74 42.73,262.74L42.73,259.52C42.729,259.513 42.729,259.506 42.729,259.5C42.729,259.385 42.824,259.29 42.939,259.29C42.943,259.29 42.946,259.29 42.95,259.29C43.076,259.29 43.18,259.394 43.18,259.52L43.18,262.74C43.127,263.286 42.663,263.707 42.115,263.707C41.567,263.707 41.103,263.286 41.05,262.74L41.05,259.52C41.049,259.513 41.049,259.506 41.049,259.5C41.049,259.385 41.144,259.29 41.259,259.29C41.263,259.29 41.266,259.29 41.27,259.29C41.396,259.29 41.5,259.394 41.5,259.52L41.5,262.74C41.5,263.075 41.775,263.35 42.11,263.35Z" style="fill:#1b1b19;fill-rule:nonzero;"/>
        <path d="M46.06,259.54C46.061,259.547 46.061,259.554 46.061,259.56C46.061,259.675 45.966,259.77 45.851,259.77C45.847,259.77 45.844,259.77 45.84,259.77L45.15,259.77L45.15,263.58C45.15,263.583 45.15,263.587 45.15,263.59C45.15,263.705 45.055,263.8 44.94,263.8C44.937,263.8 44.933,263.8 44.93,263.8C44.927,263.8 44.923,263.8 44.92,263.8C44.799,263.8 44.7,263.701 44.7,263.58C44.7,263.58 44.7,263.58 44.7,263.58L44.7,259.77L44,259.77C43.984,259.773 43.968,259.775 43.952,259.775C43.826,259.775 43.722,259.671 43.722,259.545C43.722,259.419 43.826,259.315 43.952,259.315C43.968,259.315 43.984,259.317 44,259.32L45.82,259.32C45.83,259.319 45.84,259.318 45.85,259.318C45.966,259.318 46.06,259.413 46.06,259.528C46.06,259.532 46.06,259.536 46.06,259.54Z" style="fill:#1b1b19;fill-rule:nonzero;"/>
        <path d="M46.7,259.82C46.835,259.574 47.068,259.396 47.34,259.33C47.609,259.257 47.897,259.293 48.14,259.43C48.389,259.556 48.574,259.781 48.65,260.05C48.729,260.317 48.701,260.604 48.57,260.85L48.02,261.85L47.27,263.28L48.47,263.28C48.591,263.28 48.69,263.379 48.69,263.5C48.69,263.621 48.591,263.72 48.47,263.72L46.9,263.72C46.899,263.72 46.897,263.72 46.896,263.72C46.775,263.72 46.676,263.621 46.676,263.5C46.676,263.465 46.684,263.431 46.7,263.4L48.18,260.59C48.24,260.443 48.24,260.277 48.18,260.13C48.133,259.974 48.025,259.844 47.88,259.77C47.741,259.69 47.575,259.669 47.42,259.71C47.266,259.754 47.136,259.858 47.06,260C47.019,260.071 46.942,260.116 46.86,260.116C46.733,260.116 46.629,260.012 46.629,259.885C46.629,259.845 46.64,259.805 46.66,259.77L46.7,259.82Z" style="fill:#1b1b19;fill-rule:nonzero;"/>
    </g>
    <g transform="matrix(1.04323,0,0,1.04323,0,0)">
        <path d="M66.79,262.74L66.79,260.36C66.787,260.326 66.785,260.291 66.785,260.257C66.785,259.67 67.268,259.187 67.855,259.187C68.442,259.187 68.925,259.67 68.925,260.257C68.925,260.291 68.923,260.326 68.92,260.36L68.92,262.74C68.867,263.286 68.403,263.707 67.855,263.707C67.307,263.707 66.843,263.286 66.79,262.74ZM67.24,260.36L67.24,262.74C67.24,263.075 67.515,263.35 67.85,263.35C67.853,263.35 67.857,263.35 67.86,263.35C68.195,263.35 68.47,263.075 68.47,262.74C68.47,262.74 68.47,262.74 68.47,262.74L68.47,260.36C68.47,260.02 68.19,259.74 67.85,259.74C67.85,259.74 67.85,259.74 67.85,259.74C67.515,259.74 67.24,260.015 67.24,260.35C67.24,260.353 67.24,260.357 67.24,260.36Z" style="fill:#1b1b19;fill-rule:nonzero;"/>
        <path d="M70.79,263.35C70.793,263.35 70.797,263.35 70.8,263.35C71.135,263.35 71.41,263.075 71.41,262.74C71.41,262.74 71.41,262.74 71.41,262.74L71.41,259.52C71.409,259.513 71.409,259.506 71.409,259.5C71.409,259.385 71.504,259.29 71.619,259.29C71.623,259.29 71.626,259.29 71.63,259.29C71.756,259.29 71.86,259.394 71.86,259.52L71.86,262.74C71.855,263.323 71.373,263.8 70.79,263.8C70.787,263.8 70.783,263.8 70.78,263.8C70.204,263.8 69.73,263.326 69.73,262.75C69.73,262.747 69.73,262.743 69.73,262.74L69.73,259.52C69.729,259.513 69.729,259.506 69.729,259.5C69.729,259.385 69.824,259.29 69.939,259.29C69.943,259.29 69.946,259.29 69.95,259.29C70.076,259.29 70.18,259.394 70.18,259.52L70.18,262.74C70.18,263.075 70.455,263.35 70.79,263.35Z" style="fill:#1b1b19;fill-rule:nonzero;"/>
        <path d="M74.74,259.54C74.741,259.547 74.741,259.554 74.741,259.56C74.741,259.675 74.646,259.77 74.531,259.77C74.527,259.77 74.524,259.77 74.52,259.77L73.83,259.77L73.83,263.58C73.83,263.583 73.83,263.587 73.83,263.59C73.83,263.705 73.735,263.8 73.62,263.8C73.617,263.8 73.613,263.8 73.61,263.8C73.607,263.8 73.603,263.8 73.6,263.8C73.479,263.8 73.38,263.701 73.38,263.58C73.38,263.58 73.38,263.58 73.38,263.58L73.38,259.77L72.7,259.77C72.684,259.773 72.668,259.775 72.652,259.775C72.526,259.775 72.422,259.671 72.422,259.545C72.422,259.419 72.526,259.315 72.652,259.315C72.668,259.315 72.684,259.317 72.7,259.32L74.52,259.32C74.523,259.32 74.527,259.32 74.53,259.32C74.645,259.32 74.74,259.415 74.74,259.53C74.74,259.533 74.74,259.537 74.74,259.54Z" style="fill:#1b1b19;fill-rule:nonzero;"/>
        <path d="M76.83,262.74L76.83,262.32C76.83,261.98 76.55,261.7 76.21,261.7C76.207,261.7 76.203,261.7 76.2,261.7C76.085,261.7 75.99,261.605 75.99,261.49C75.99,261.487 75.99,261.483 75.99,261.48C75.989,261.473 75.989,261.466 75.989,261.46C75.989,261.345 76.084,261.25 76.199,261.25L76.22,261.25C76.555,261.25 76.83,260.975 76.83,260.64C76.83,260.64 76.83,260.64 76.83,260.64L76.83,260.36C76.827,260.081 76.639,259.835 76.37,259.76C76.101,259.68 75.811,259.802 75.68,260.05C75.616,260.155 75.477,260.191 75.37,260.13C75.3,260.091 75.256,260.017 75.256,259.937C75.256,259.896 75.268,259.855 75.29,259.82C75.514,259.391 76.019,259.183 76.48,259.33C76.947,259.43 77.281,259.852 77.27,260.33L77.27,260.61C77.269,260.938 77.118,261.248 76.86,261.45C77.119,261.651 77.271,261.962 77.27,262.29L77.27,262.71C77.271,262.724 77.271,262.738 77.271,262.752C77.271,263.333 76.792,263.812 76.211,263.812C75.816,263.812 75.452,263.591 75.27,263.24C75.248,263.205 75.236,263.164 75.236,263.123C75.236,263.043 75.28,262.969 75.35,262.93C75.461,262.876 75.596,262.915 75.66,263.02C75.797,263.261 76.084,263.378 76.35,263.3C76.617,263.242 76.814,263.012 76.83,262.74Z" style="fill:#1b1b19;fill-rule:nonzero;"/>
    </g>
    <g transform="matrix(1.04323,0,0,1.04323,0,0)">
        <path d="M95.71,262.74L95.71,260.36C95.707,260.326 95.705,260.291 95.705,260.257C95.705,259.67 96.188,259.187 96.775,259.187C97.362,259.187 97.845,259.67 97.845,260.257C97.845,260.291 97.843,260.326 97.84,260.36L97.84,262.74C97.787,263.286 97.323,263.707 96.775,263.707C96.227,263.707 95.763,263.286 95.71,262.74ZM96.16,260.36L96.16,262.74C96.16,263.075 96.435,263.35 96.77,263.35C96.773,263.35 96.777,263.35 96.78,263.35C97.115,263.35 97.39,263.075 97.39,262.74C97.39,262.74 97.39,262.74 97.39,262.74L97.39,260.36C97.39,260.02 97.11,259.74 96.77,259.74C96.77,259.74 96.77,259.74 96.77,259.74C96.435,259.74 96.16,260.015 96.16,260.35C96.16,260.353 96.16,260.357 96.16,260.36Z" style="fill:#1b1b19;fill-rule:nonzero;"/>
        <path d="M99.71,263.35C99.713,263.35 99.717,263.35 99.72,263.35C100.055,263.35 100.33,263.075 100.33,262.74C100.33,262.74 100.33,262.74 100.33,262.74L100.33,259.52C100.329,259.513 100.329,259.506 100.329,259.5C100.329,259.385 100.424,259.29 100.539,259.29C100.543,259.29 100.546,259.29 100.55,259.29C100.676,259.29 100.78,259.394 100.78,259.52L100.78,262.74C100.775,263.323 100.293,263.8 99.71,263.8C99.707,263.8 99.703,263.8 99.7,263.8C99.124,263.8 98.65,263.326 98.65,262.75C98.65,262.747 98.65,262.743 98.65,262.74L98.65,259.52C98.649,259.513 98.649,259.506 98.649,259.5C98.649,259.385 98.744,259.29 98.859,259.29C98.863,259.29 98.866,259.29 98.87,259.29C98.996,259.29 99.1,259.394 99.1,259.52L99.1,262.74C99.1,263.075 99.375,263.35 99.71,263.35Z" style="fill:#1b1b19;fill-rule:nonzero;"/>
        <path d="M103.66,259.54C103.661,259.547 103.661,259.554 103.661,259.56C103.661,259.675 103.566,259.77 103.451,259.77C103.447,259.77 103.444,259.77 103.44,259.77L102.75,259.77L102.75,263.58C102.75,263.583 102.75,263.587 102.75,263.59C102.75,263.705 102.655,263.8 102.54,263.8C102.537,263.8 102.533,263.8 102.53,263.8C102.527,263.8 102.523,263.8 102.52,263.8C102.399,263.8 102.3,263.701 102.3,263.58C102.3,263.58 102.3,263.58 102.3,263.58L102.3,259.77L101.62,259.77C101.604,259.773 101.588,259.775 101.572,259.775C101.446,259.775 101.342,259.671 101.342,259.545C101.342,259.419 101.446,259.315 101.572,259.315C101.588,259.315 101.604,259.317 101.62,259.32L103.44,259.32C103.443,259.32 103.447,259.32 103.45,259.32C103.565,259.32 103.66,259.415 103.66,259.53C103.66,259.533 103.66,259.537 103.66,259.54Z" style="fill:#1b1b19;fill-rule:nonzero;"/>
        <path d="M105.78,263.8C105.773,263.801 105.766,263.801 105.76,263.801C105.645,263.801 105.55,263.706 105.55,263.591C105.55,263.587 105.55,263.584 105.55,263.58L105.55,262.82L104.37,262.82C104.299,262.819 104.233,262.786 104.19,262.73C104.154,262.668 104.154,262.592 104.19,262.53L105.19,259.45C105.219,259.36 105.304,259.298 105.399,259.298C105.423,259.298 105.447,259.302 105.47,259.31C105.568,259.33 105.637,259.42 105.63,259.52C105.623,259.62 105.63,259.57 105.63,259.59L105.24,260.81C105.04,261.44 104.81,262.14 104.74,262.37L105.61,262.37L105.61,261.62C105.61,261.617 105.61,261.613 105.61,261.61C105.61,261.489 105.709,261.39 105.83,261.39C105.833,261.39 105.837,261.39 105.84,261.39C105.844,261.39 105.847,261.39 105.851,261.39C105.966,261.39 106.061,261.485 106.061,261.6C106.061,261.606 106.061,261.613 106.06,261.62L106.06,262.37L106.4,262.37C106.521,262.37 106.62,262.469 106.62,262.59C106.62,262.593 106.62,262.597 106.62,262.6C106.62,262.603 106.62,262.607 106.62,262.61C106.62,262.725 106.525,262.82 106.41,262.82C106.407,262.82 106.403,262.82 106.4,262.82L106,262.82" style="fill:#1b1b19;fill-rule:nonzero;"/>
    </g>
    <g transform="matrix(1.04323,0,0,1.04323,0,0)">
        <path d="M22.07,291.29C26.239,288.775 28.795,284.248 28.795,279.379C28.795,271.749 22.516,265.469 14.885,265.469C7.254,265.469 0.975,271.749 0.975,279.379C0.975,284.248 3.531,288.775 7.7,291.29" style="fill:none;fill-rule:nonzero;stroke:#2c7896;stroke-width:0.75px;"/>
    </g>
</svg>
