<svg id="Layer_2" data-name="Layer 2" xmlns="http://www.w3.org/2000/svg" width="40.64mm" height="128.5mm" viewBox="0 0 115.2 364.25">
  <title>squid-axon-papernoise-panel</title>
  <rect width="115.2" height="364.25" style="fill: #e6e5e5"/>
  <g>
    <path d="M45.26,79.88c5.71,2.4,7.39,29.7,12.34,49.63" transform="translate(0 0)" style="fill: none;stroke: #2c7896;stroke-linecap: round;stroke-miterlimit: 10;stroke-width: 0.75px"/>
    <path d="M42.61,83.15c2,4.75,7.66,5.95,8.82,13.43" transform="translate(0 0)" style="fill: none;stroke: #2c7896;stroke-linecap: round;stroke-miterlimit: 10;stroke-width: 0.75px"/>
    <path d="M47.79,74.1c3.82,4.86.6,10.49,2.06,15.09" transform="translate(0 0)" style="fill: none;stroke: #2c7896;stroke-linecap: round;stroke-miterlimit: 10;stroke-width: 0.75px"/>
    <path d="M48.48,69c6.32,0,3,26.58,4.15,34.38" transform="translate(0 0)" style="fill: none;stroke: #2c7896;stroke-linecap: round;stroke-miterlimit: 10;stroke-width: 0.75px"/>
  </g>
  <g>
    <path d="M69.34,79.88c-5.71,2.4-6.79,29.7-11.74,49.63,0,0,10.12,56.11,43.34,104.58" transform="translate(0 0)" style="fill: none;stroke: #2c7896;stroke-linecap: round;stroke-miterlimit: 10;stroke-width: 0.75px"/>
    <path d="M72,83.15c-2,4.75-7.66,7.57-8.82,15" transform="translate(0 0)" style="fill: none;stroke: #2c7896;stroke-linecap: round;stroke-miterlimit: 10;stroke-width: 0.75px"/>
    <path d="M66.81,74.1C63,79,66.56,83.79,65.1,88.39" transform="translate(0 0)" style="fill: none;stroke: #2c7896;stroke-linecap: round;stroke-miterlimit: 10;stroke-width: 0.75px"/>
    <path d="M66.12,69c-6.32,0-2.84,27.91-4,35.71" transform="translate(0 0)" style="fill: none;stroke: #2c7896;stroke-linecap: round;stroke-miterlimit: 10;stroke-width: 0.75px"/>
  </g>
  <g>
    <path d="M72.86,15.22a1.59,1.59,0,0,0-.47-1.29l-2.88-3a2.62,2.62,0,0,1-.76-2.1,2.73,2.73,0,0,1,1.08-2A2.68,2.68,0,0,1,72,6.38,2.73,2.73,0,0,1,73.85,7.7a.57.57,0,0,1-.22.79.56.56,0,0,1-.77-.22,1.48,1.48,0,0,0-1.06-.75,1.54,1.54,0,0,0-1.28.29,1.41,1.41,0,0,0-.61,1.13,1.5,1.5,0,0,0,.43,1.22l2.88,3A2.8,2.8,0,0,1,74,15.31a2.83,2.83,0,0,1-3.38,2.56,2.82,2.82,0,0,1-1.89-1.35.59.59,0,0,1,.21-.79.58.58,0,0,1,.79.21,1.6,1.6,0,0,0,1.12.8,1.59,1.59,0,0,0,1.33-.31A1.57,1.57,0,0,0,72.86,15.22Z" transform="translate(0 0)" style="fill: #1b1b19"/>
    <path d="M75.79,15.48V12a2.34,2.34,0,0,1,2.34-2.34h1.8a.54.54,0,0,1,.54.54V21a.54.54,0,0,1-.54.54.53.53,0,0,1-.54-.54V17.82H78.13A2.34,2.34,0,0,1,75.79,15.48ZM76.87,12v3.46a1.25,1.25,0,0,0,1.26,1.26h1.26v-6H78.13A1.25,1.25,0,0,0,76.87,12Z" transform="translate(0 0)" style="fill: #1b1b19"/>
    <path d="M82.85,15.48V10.15a.53.53,0,0,1,.54-.54.53.53,0,0,1,.54.54v5.33a1.25,1.25,0,0,0,1.26,1.26h1.26V10.15A.53.53,0,0,1,87,9.61a.53.53,0,0,1,.54.54v7.13a.54.54,0,0,1-.54.54h-1.8A2.34,2.34,0,0,1,82.85,15.48Z" transform="translate(0 0)" style="fill: #1b1b19"/>
    <path d="M89.87,7.45a.72.72,0,0,1,1.44,0,.72.72,0,1,1-1.44,0Zm.72,10.44a.54.54,0,0,1-.54-.54v-7.2a.54.54,0,0,1,.54-.54.53.53,0,0,1,.54.54v7.2A.54.54,0,0,1,90.59,17.89Z" transform="translate(0 0)" style="fill: #1b1b19"/>
    <path d="M93.43,15.48V12a2.34,2.34,0,0,1,2.34-2.34H97V6.55A.54.54,0,0,1,97.57,6a.55.55,0,0,1,.54.55V17.28a.54.54,0,0,1-.54.54h-1.8A2.34,2.34,0,0,1,93.43,15.48ZM94.51,12v3.46a1.25,1.25,0,0,0,1.26,1.26H97v-6H95.77A1.25,1.25,0,0,0,94.51,12Z" transform="translate(0 0)" style="fill: #1b1b19"/>
    <path d="M76.5,31.91a.57.57,0,0,1-.71-.4c-.05-.18-.1-.38-.16-.59-.12-.38-.25-.89-.41-1.52h-3.5c-.19.63-.28,1.14-.41,1.52,0,.21-.11.41-.16.59A.58.58,0,0,1,70,31.2l2.88-10.44a.57.57,0,0,1,.56-.43.56.56,0,0,1,.56.43L76.91,31.2A.55.55,0,0,1,76.5,31.91Zm-3-8.84c-.38,1.29-.93,3.4-1.42,5.18h2.84C74.41,26.47,73.81,24.36,73.47,23.07Z" transform="translate(0 0)" style="fill: #1b1b19"/>
    <path d="M78.11,31.1,80,27.68l-1.8-3.26a.54.54,0,0,1,1-.53l1.46,2.67,1.48-2.67a.52.52,0,0,1,.73-.21.54.54,0,0,1,.22.74l-1.8,3.26L83.1,31.1a.51.51,0,0,1-.22.72.53.53,0,0,1-.73-.2L80.6,28.81l-1.53,2.81a.54.54,0,0,1-.74.2A.52.52,0,0,1,78.11,31.1Z" transform="translate(0 0)" style="fill: #1b1b19"/>
    <path d="M84.88,29.55V26a2.34,2.34,0,0,1,4.68,0v3.6a2.34,2.34,0,0,1-4.68,0ZM86,26v3.6a1.26,1.26,0,1,0,2.52,0V26A1.26,1.26,0,0,0,86,26Z" transform="translate(0 0)" style="fill: #1b1b19"/>
    <path d="M91.87,31.35V24.22a.53.53,0,0,1,.54-.54h1.8A2.34,2.34,0,0,1,96.55,26V36.35a.55.55,0,0,1-.54.54.53.53,0,0,1-.54-.54V26a1.25,1.25,0,0,0-1.26-1.26H93v6.59a.55.55,0,0,1-.54.54A.53.53,0,0,1,91.87,31.35Z" transform="translate(0 0)" style="fill: #1b1b19"/>
  </g>
  <g>
    <g>
      <path d="M54.4,69a26,26,0,1,1-26-26A26,26,0,0,1,54.4,69Z" transform="translate(0 0)" style="fill: none"/>
      <path d="M38.44,51.62a20.05,20.05,0,0,1,.27,34.59" transform="translate(0 0)" style="fill: none;stroke: #2394b0;stroke-linecap: round;stroke-miterlimit: 10;stroke-width: 0.75px"/>
      <path d="M18.41,86.35a20,20,0,0,1-.22-34.59" transform="translate(0 0)" style="fill: none;stroke: #2394b0;stroke-linecap: round;stroke-miterlimit: 10;stroke-width: 0.75px"/>
    </g>
    <circle cx="8.39" cy="68.99" r="1.09" style="fill: #2394b0"/>
    <path d="M49.57,69a1.09,1.09,0,1,1-1.09-1.09A1.09,1.09,0,0,1,49.57,69Z" transform="translate(0 0)" style="fill: #2394b0"/>
  </g>
  <g>
    <g>
      <path d="M112.2,69a26,26,0,1,1-26-26A26,26,0,0,1,112.2,69Z" transform="translate(0 0)" style="fill: none"/>
      <path d="M96.24,51.62a20.05,20.05,0,0,1,.27,34.59" transform="translate(0 0)" style="fill: none;stroke: #2394b0;stroke-linecap: round;stroke-miterlimit: 10;stroke-width: 0.75px"/>
      <path d="M76.21,86.35A20,20,0,0,1,76,51.76" transform="translate(0 0)" style="fill: none;stroke: #2394b0;stroke-linecap: round;stroke-miterlimit: 10;stroke-width: 0.75px"/>
    </g>
    <circle cx="66.19" cy="68.99" r="1.09" style="fill: #2394b0"/>
    <path d="M107.37,69a1.09,1.09,0,1,1-1.09-1.09A1.09,1.09,0,0,1,107.37,69Z" transform="translate(0 0)" style="fill: #2394b0"/>
  </g>
  <path d="M91.88,7.43a1.21,1.21,0,1,1-1.21-1.21A1.21,1.21,0,0,1,91.88,7.43Z" transform="translate(0 0)" style="fill: #ae076a"/>
  <path d="M97.18,36.65A1.21,1.21,0,1,1,96,35.44,1.22,1.22,0,0,1,97.18,36.65Z" transform="translate(0 0)" style="fill: #ae076a"/>
  <path d="M69.81,15.33a1.22,1.22,0,1,1-1.22-1.22A1.22,1.22,0,0,1,69.81,15.33Z" transform="translate(0 0)" style="fill: #ae076a"/>
  <g>
    <path d="M26,46.12c-.19-.4-.38-.8-.57-1.18l-1-2V46a.21.21,0,0,1-.22.23A.22.22,0,0,1,24,46V42a.21.21,0,0,1,.18-.21.22.22,0,0,1,.25.11L25,43.05l1,2V42a.22.22,0,0,1,.23-.22.21.21,0,0,1,.22.22V46a.22.22,0,0,1-.17.22A.23.23,0,0,1,26,46.12Z" transform="translate(0 0)" style="fill: #1b1b19"/>
    <path d="M27.29,45.18V42.8a1.07,1.07,0,0,1,2.13,0v2.38a1.07,1.07,0,1,1-2.13,0Zm.45-2.38v2.38a.61.61,0,0,0,.61.62.62.62,0,0,0,.62-.62V42.8a.62.62,0,0,0-.62-.61A.61.61,0,0,0,27.74,42.8Z" transform="translate(0 0)" style="fill: #1b1b19"/>
    <path d="M32.27,46.12l-.58-1.18-1-2V46a.22.22,0,1,1-.44,0V42a.21.21,0,0,1,.17-.21.21.21,0,0,1,.25.11l.57,1.19,1,2V42a.21.21,0,0,1,.22-.22.22.22,0,0,1,.23.22V46a.23.23,0,0,1-.18.22A.22.22,0,0,1,32.27,46.12Z" transform="translate(0 0)" style="fill: #1b1b19"/>
    <path d="M21,53V49a.21.21,0,0,1,.22-.22.22.22,0,0,1,.22.22v3.81H22.6a.23.23,0,1,1,0,.45H21.2A.21.21,0,0,1,21,53Z" transform="translate(0 0)" style="fill: #1b1b19"/>
    <path d="M23.41,53V49a.22.22,0,0,1,.23-.22.21.21,0,0,1,.22.22V53a.21.21,0,0,1-.22.23A.23.23,0,0,1,23.41,53Z" transform="translate(0 0)" style="fill: #1b1b19"/>
    <path d="M26.79,53.12c-.19-.4-.38-.8-.57-1.18-.32-.65-.7-1.46-1-2V53a.21.21,0,0,1-.22.23.22.22,0,0,1-.23-.23V49a.21.21,0,0,1,.18-.21.22.22,0,0,1,.25.11l.57,1.19,1,2V49a.21.21,0,0,1,.23-.22.21.21,0,0,1,.22.22V53a.22.22,0,0,1-.17.22A.23.23,0,0,1,26.79,53.12Z" transform="translate(0 0)" style="fill: #1b1b19"/>
    <path d="M28.4,48.77h1.4a.22.22,0,1,1,0,.44H28.62V50.7h1a.21.21,0,0,1,.22.22.21.21,0,0,1-.22.23h-1v1.62H29.8A.21.21,0,0,1,30,53a.21.21,0,0,1-.22.22H28.4a.21.21,0,0,1-.23-.22V49A.21.21,0,0,1,28.4,48.77Z" transform="translate(0 0)" style="fill: #1b1b19"/>
    <path d="M33,53.24a.21.21,0,0,1-.27-.15l-.06-.23c-.05-.15-.1-.35-.17-.59H31.11c-.08.24-.12.44-.16.59s-.05.16-.07.23a.21.21,0,0,1-.28.15.21.21,0,0,1-.15-.27l1.12-4.06a.21.21,0,0,1,.22-.17.21.21,0,0,1,.21.17L33.12,53A.21.21,0,0,1,33,53.24ZM31.79,49.8c-.15.51-.37,1.33-.56,2h1.11C32.15,51.13,31.92,50.31,31.79,49.8Z" transform="translate(0 0)" style="fill: #1b1b19"/>
    <path d="M35.24,51.21,35.89,53a.22.22,0,0,1-.42.15l-.67-1.81h-.58V53a.21.21,0,0,1-.22.23.23.23,0,0,1-.23-.23V49a.22.22,0,0,1,.23-.22h.84a1.05,1.05,0,0,1,1.06,1.06v.39A1,1,0,0,1,35.24,51.21Zm.21-1v-.39a.61.61,0,0,0-.61-.62h-.62v1.63h.62A.61.61,0,0,0,35.45,50.22Z" transform="translate(0 0)" style="fill: #1b1b19"/>
  </g>
  <g>
    <path d="M82.88,53V49a.22.22,0,0,1,.22-.22.22.22,0,0,1,.23.22V53a.22.22,0,0,1-.23.23A.22.22,0,0,1,82.88,53Z" transform="translate(0 0)" style="fill: #1b1b19"/>
    <path d="M86.26,53.12c-.2-.4-.39-.8-.57-1.18-.32-.65-.7-1.46-1-2V53a.22.22,0,0,1-.23.23.21.21,0,0,1-.22-.23V49a.21.21,0,0,1,.17-.21.21.21,0,0,1,.25.11l.57,1.19,1,2V49a.21.21,0,0,1,.22-.22.21.21,0,0,1,.23.22V53a.22.22,0,0,1-.18.22A.22.22,0,0,1,86.26,53.12Z" transform="translate(0 0)" style="fill: #1b1b19"/>
    <path d="M89.05,52.18v-.42a.62.62,0,0,0-.61-.61.22.22,0,0,1-.23-.23.21.21,0,0,1,.23-.22.61.61,0,0,0,.61-.62V49.8a.6.6,0,0,0-.45-.59.61.61,0,0,0-.7.28.22.22,0,0,1-.3.09.23.23,0,0,1-.09-.31,1.07,1.07,0,0,1,2,.53v.28a1,1,0,0,1-.41.84,1.07,1.07,0,0,1,.41.84v.42a1.07,1.07,0,0,1-2,.54.23.23,0,0,1,.09-.31.23.23,0,0,1,.3.08.61.61,0,0,0,.7.29A.62.62,0,0,0,89.05,52.18Z" transform="translate(0 0)" style="fill: #1b1b19"/>
  </g>
  <g>
    <path d="M23.1,89V85a.22.22,0,0,1,.22-.23h1.41A.21.21,0,0,1,25,85a.21.21,0,0,1-.22.22H23.55v1.49h1a.22.22,0,1,1,0,.44h-1V89a.22.22,0,0,1-.23.23A.22.22,0,0,1,23.1,89Z" transform="translate(0 0)" style="fill: #1b1b19"/>
    <path d="M27.75,85.8v2.32a1.07,1.07,0,0,1-1.07,1.07h-.84a.21.21,0,0,1-.22-.23V85a.21.21,0,0,1,.22-.23h.84A1.07,1.07,0,0,1,27.75,85.8Zm-1.07-.62h-.61v3.56h.61a.61.61,0,0,0,.62-.62V85.8A.62.62,0,0,0,26.68,85.18Z" transform="translate(0 0)" style="fill: #1b1b19"/>
    <path d="M28.84,84.73h.84a1.06,1.06,0,0,1,1.06,1.07v.25a1.07,1.07,0,0,1-.41.84,1.07,1.07,0,0,1,.41.84v.39a1.06,1.06,0,0,1-1.06,1.07h-.84a.21.21,0,0,1-.22-.23V85A.21.21,0,0,1,28.84,84.73Zm.84.45h-.62v1.49h.62a.62.62,0,0,0,.62-.62V85.8A.62.62,0,0,0,29.68,85.18Zm0,1.93h-.62v1.63h.62a.62.62,0,0,0,.62-.62v-.39A.63.63,0,0,0,29.68,87.11Z" transform="translate(0 0)" style="fill: #1b1b19"/>
    <path d="M33.75,89.19a.21.21,0,0,1-.29-.1l-1-2.08-.39.55V89a.21.21,0,0,1-.22.23.23.23,0,0,1-.23-.23V84.93a.22.22,0,0,1,.23-.22.21.21,0,0,1,.22.22v1.86l1.41-2a.22.22,0,0,1,.32,0,.21.21,0,0,1,.05.31l-1.09,1.53,1.11,2.3A.21.21,0,0,1,33.75,89.19Z" transform="translate(0 0)" style="fill: #1b1b19"/>
  </g>
  <g>
    <path d="M81,89V85a.23.23,0,0,1,.23-.23h1.4a.21.21,0,0,1,.22.23.21.21,0,0,1-.22.22H81.43v1.49h1a.22.22,0,0,1,0,.44h-1V89a.21.21,0,0,1-.22.23A.23.23,0,0,1,81,89Z" transform="translate(0 0)" style="fill: #1b1b19"/>
    <path d="M85.63,85.8v2.32a1.06,1.06,0,0,1-1.06,1.07h-.84A.22.22,0,0,1,83.5,89V85a.22.22,0,0,1,.23-.23h.84A1.06,1.06,0,0,1,85.63,85.8Zm-1.06-.62H84v3.56h.62a.61.61,0,0,0,.61-.62V85.8A.61.61,0,0,0,84.57,85.18Z" transform="translate(0 0)" style="fill: #1b1b19"/>
    <path d="M86.72,84.73h.84a1.07,1.07,0,0,1,1.07,1.07v.25a1.05,1.05,0,0,1-.42.84,1.05,1.05,0,0,1,.42.84v.39a1.07,1.07,0,0,1-1.07,1.07h-.84A.21.21,0,0,1,86.5,89V85A.21.21,0,0,1,86.72,84.73Zm.84.45H87v1.49h.61a.62.62,0,0,0,.62-.62V85.8A.62.62,0,0,0,87.56,85.18Zm0,1.93H87v1.63h.61a.62.62,0,0,0,.62-.62v-.39A.63.63,0,0,0,87.56,87.11Z" transform="translate(0 0)" style="fill: #1b1b19"/>
    <path d="M91.64,89.19a.22.22,0,0,1-.3-.1l-1-2.08-.39.55V89a.21.21,0,0,1-.22.23.23.23,0,0,1-.23-.23V84.93a.22.22,0,0,1,.23-.22.21.21,0,0,1,.22.22v1.86l1.42-2a.22.22,0,1,1,.36.26l-1.08,1.53,1.1,2.3A.22.22,0,0,1,91.64,89.19Z" transform="translate(0 0)" style="fill: #1b1b19"/>
  </g>
  <path d="M20.87,289.21a11.59,11.59,0,1,0-12,0" transform="translate(0 0)" style="fill: none;stroke: #2c7896;stroke-linecap: round;stroke-miterlimit: 10;stroke-width: 0.75px"/>
  <g>
    <path d="M49.43,289.31a11.59,11.59,0,1,0-12,0" transform="translate(0 0)" style="fill: none;stroke: #2c7896;stroke-linecap: round;stroke-miterlimit: 10;stroke-width: 0.75px"/>
    <circle cx="43.44" cy="279.4" r="14" style="fill: none"/>
  </g>
  <g>
    <path d="M78.11,289.31a11.59,11.59,0,1,0-12,0" transform="translate(0 0)" style="fill: none;stroke: #2c7896;stroke-linecap: round;stroke-miterlimit: 10;stroke-width: 0.75px"/>
    <circle cx="72.12" cy="279.4" r="14" style="fill: none"/>
  </g>
  <g>
    <path d="M106.55,289.31a11.59,11.59,0,1,0-12,0" transform="translate(0 0)" style="fill: none;stroke: #2c7896;stroke-linecap: round;stroke-miterlimit: 10;stroke-width: 0.75px"/>
    <circle cx="100.56" cy="279.4" r="14" style="fill: none"/>
  </g>
  <g>
    <path d="M31.85,278.1" transform="translate(0 0)" style="fill: none;stroke: #ae076a;stroke-linecap: round;stroke-miterlimit: 10;stroke-width: 0.75px"/>
    <path d="M26.47,280.72" transform="translate(0 0)" style="fill: none;stroke: #ae076a;stroke-linecap: round;stroke-miterlimit: 10;stroke-width: 0.75px"/>
    <path d="M26.47,278.08" transform="translate(0 0)" style="fill: none;stroke: #2c7896;stroke-linecap: round;stroke-miterlimit: 10;stroke-width: 0.75px"/>
    <path d="M31.85,280.7a2.75,2.75,0,0,1-2.27-.77l-1-1.06a2.71,2.71,0,0,0-2.06-.79" transform="translate(0 0)" style="fill: none;stroke: #2c7896;stroke-linecap: round;stroke-miterlimit: 10;stroke-width: 0.75px"/>
    <path d="M31.85,280.7" transform="translate(0 0)" style="fill: none;stroke: #2c7896;stroke-linecap: round;stroke-miterlimit: 10;stroke-width: 0.75px"/>
    <path d="M26.47,280.72a2.74,2.74,0,0,0,2.06-.79l1-1.06a2.72,2.72,0,0,1,2.27-.77" transform="translate(0 0)" style="fill: none;stroke: #ae076a;stroke-linecap: round;stroke-miterlimit: 10;stroke-width: 0.75px"/>
  </g>
  <g>
    <path d="M60.39,278.1" transform="translate(0 0)" style="fill: none;stroke: #ae076a;stroke-linecap: round;stroke-miterlimit: 10;stroke-width: 0.75px"/>
    <path d="M55,280.72" transform="translate(0 0)" style="fill: none;stroke: #ae076a;stroke-linecap: round;stroke-miterlimit: 10;stroke-width: 0.75px"/>
    <path d="M55,278.08" transform="translate(0 0)" style="fill: none;stroke: #2c7896;stroke-linecap: round;stroke-miterlimit: 10;stroke-width: 0.75px"/>
    <path d="M60.39,280.7a2.74,2.74,0,0,1-2.27-.77l-1.06-1.06a2.69,2.69,0,0,0-2.05-.79" transform="translate(0 0)" style="fill: none;stroke: #2c7896;stroke-linecap: round;stroke-miterlimit: 10;stroke-width: 0.75px"/>
    <path d="M60.39,280.7" transform="translate(0 0)" style="fill: none;stroke: #2c7896;stroke-linecap: round;stroke-miterlimit: 10;stroke-width: 0.75px"/>
    <path d="M55,280.72a2.73,2.73,0,0,0,2.05-.79l1.06-1.06a2.72,2.72,0,0,1,2.27-.77" transform="translate(0 0)" style="fill: none;stroke: #ae076a;stroke-linecap: round;stroke-miterlimit: 10;stroke-width: 0.75px"/>
  </g>
  <g>
    <path d="M89,278.1" transform="translate(0 0)" style="fill: none;stroke: #ae076a;stroke-linecap: round;stroke-miterlimit: 10;stroke-width: 0.75px"/>
    <path d="M83.64,280.72" transform="translate(0 0)" style="fill: none;stroke: #ae076a;stroke-linecap: round;stroke-miterlimit: 10;stroke-width: 0.75px"/>
    <path d="M83.64,278.08" transform="translate(0 0)" style="fill: none;stroke: #2c7896;stroke-linecap: round;stroke-miterlimit: 10;stroke-width: 0.75px"/>
    <path d="M89,280.7a2.75,2.75,0,0,1-2.27-.77l-1-1.06a2.73,2.73,0,0,0-2.06-.79" transform="translate(0 0)" style="fill: none;stroke: #2c7896;stroke-linecap: round;stroke-miterlimit: 10;stroke-width: 0.75px"/>
    <path d="M89,280.7" transform="translate(0 0)" style="fill: none;stroke: #2c7896;stroke-linecap: round;stroke-miterlimit: 10;stroke-width: 0.75px"/>
    <path d="M83.64,280.72a2.75,2.75,0,0,0,2.06-.79l1-1.06A2.72,2.72,0,0,1,89,278.1" transform="translate(0 0)" style="fill: none;stroke: #ae076a;stroke-linecap: round;stroke-miterlimit: 10;stroke-width: 0.75px"/>
  </g>
  <g>
    <path d="M66.35,347l-.65-1.35c-.36-.75-.8-1.67-1.1-2.28v3.52a.24.24,0,0,1-.26.25.24.24,0,0,1-.25-.25v-4.64a.25.25,0,0,1,.2-.25.27.27,0,0,1,.29.14l.64,1.35,1.11,2.28v-3.52a.26.26,0,1,1,.51,0v4.64a.24.24,0,0,1-.2.24A.25.25,0,0,1,66.35,347Z" transform="translate(0 0)" style="fill: #1b1b19"/>
    <path d="M67.85,346.05v-1.6a1,1,0,0,1,2.08,0v1.6a1,1,0,0,1-2.08,0Zm.48-1.6v1.6a.56.56,0,1,0,1.12,0v-1.6a.56.56,0,1,0-1.12,0Z" transform="translate(0 0)" style="fill: #1b1b19"/>
    <path d="M71,346.85v-3.17a.24.24,0,0,1,.24-.24H72a1,1,0,0,1,1,1v2.37a.24.24,0,1,1-.48,0v-2.37a.56.56,0,0,0-.56-.56h-.56v2.93a.24.24,0,0,1-.48,0Z" transform="translate(0 0)" style="fill: #1b1b19"/>
    <path d="M74.06,346.29v-4.24a.24.24,0,0,1,.24-.24.23.23,0,0,1,.24.24v4.24a.39.39,0,0,0,.2.35.23.23,0,0,1,.09.33.23.23,0,0,1-.33.08A.9.9,0,0,1,74.06,346.29Z" transform="translate(0 0)" style="fill: #1b1b19"/>
    <path d="M75.61,342.45a.3.3,0,0,1,.32-.32.31.31,0,0,1,.32.32.32.32,0,0,1-.32.32A.31.31,0,0,1,75.61,342.45Zm.32,4.64a.24.24,0,0,1-.24-.24v-3.2a.24.24,0,1,1,.48,0v3.2A.24.24,0,0,1,75.93,347.09Z" transform="translate(0 0)" style="fill: #1b1b19"/>
    <path d="M77.29,346.85v-3.17a.23.23,0,0,1,.24-.24h.8a1,1,0,0,1,1,1v2.37a.25.25,0,0,1-.24.24.24.24,0,0,1-.24-.24v-2.37a.56.56,0,0,0-.56-.56h-.56v2.93a.24.24,0,0,1-.24.24A.24.24,0,0,1,77.29,346.85Z" transform="translate(0 0)" style="fill: #1b1b19"/>
    <path d="M80.33,346.05v-1.6a1,1,0,0,1,2.08,0v.8a.24.24,0,0,1-.24.24H80.81v.56a.55.55,0,0,0,.34.52.57.57,0,0,0,.61-.12.22.22,0,0,1,.34,0,.19.19,0,0,1,.07.16.22.22,0,0,1-.07.17,1,1,0,0,1-1.77-.73Zm.48-1.6V345h1.12v-.56a.55.55,0,0,0-.56-.56A.55.55,0,0,0,80.81,344.45Z" transform="translate(0 0)" style="fill: #1b1b19"/>
    <path d="M84.65,344.43a.54.54,0,0,0-.34-.5.51.51,0,0,0-.59.12.27.27,0,0,1-.18.07.24.24,0,0,1-.24-.24.24.24,0,0,1,.07-.17,1,1,0,0,1,1.12-.22,1,1,0,0,1,.64.94v2.38a.24.24,0,0,1-.24.24h-.8a1,1,0,1,1,0-2.08h.56Zm-.56,2.14h.56v-1.12h-.56a.56.56,0,0,0-.56.56A.55.55,0,0,0,84.09,346.57Z" transform="translate(0 0)" style="fill: #1b1b19"/>
    <path d="M86.18,346.85v-3.17a.24.24,0,0,1,.24-.24h.8a1,1,0,0,1,.52.14.24.24,0,1,1-.24.41.55.55,0,0,0-.28-.07h-.56v2.93a.24.24,0,0,1-.24.24A.24.24,0,0,1,86.18,346.85Z" transform="translate(0 0)" style="fill: #1b1b19"/>
    <path d="M88.4,346.05v-1.6a1,1,0,0,1,.64-1,1.05,1.05,0,0,1,1.13.22.29.29,0,0,1,.07.18.24.24,0,0,1-.07.16.24.24,0,0,1-.17.07.26.26,0,0,1-.17-.07.56.56,0,0,0-1,.4v1.6a.56.56,0,0,0,1,.4.23.23,0,0,1,.17-.08.21.21,0,0,1,.17.08.22.22,0,0,1,.07.16.26.26,0,0,1-.07.17,1,1,0,0,1-1.77-.73Z" transform="translate(0 0)" style="fill: #1b1b19"/>
    <path d="M91,342.45a.3.3,0,0,1,.32-.32.31.31,0,0,1,.32.32.32.32,0,0,1-.32.32A.31.31,0,0,1,91,342.45Zm.32,4.64a.24.24,0,0,1-.24-.24v-3.2a.24.24,0,0,1,.48,0v3.2A.24.24,0,0,1,91.36,347.09Z" transform="translate(0 0)" style="fill: #1b1b19"/>
    <path d="M92.72,346.85v-3.17a.23.23,0,0,1,.24-.24h.8a1.1,1.1,0,0,1,.52.14.23.23,0,0,1,.09.32A.24.24,0,0,1,94,344a.58.58,0,0,0-.28-.07H93.2v2.93a.24.24,0,0,1-.24.24A.24.24,0,0,1,92.72,346.85Z" transform="translate(0 0)" style="fill: #1b1b19"/>
    <path d="M94.93,346.05v-1.6a1,1,0,0,1,.64-1,1.07,1.07,0,0,1,1.14.22.28.28,0,0,1,.06.18.23.23,0,0,1-.06.16.27.27,0,0,1-.18.07.24.24,0,0,1-.16-.07.55.55,0,0,0-.61-.12.54.54,0,0,0-.35.52v1.6a.56.56,0,0,0,.35.52.57.57,0,0,0,.61-.12.21.21,0,0,1,.16-.08.23.23,0,0,1,.18.08.21.21,0,0,1,.06.16.25.25,0,0,1-.06.17,1,1,0,0,1-1.14.22A1,1,0,0,1,94.93,346.05Z" transform="translate(0 0)" style="fill: #1b1b19"/>
    <path d="M97.59,346v-2.36a.24.24,0,0,1,.48,0V346a.55.55,0,0,0,.56.56h.56v-2.92a.24.24,0,1,1,.48,0v3.16a.23.23,0,0,1-.24.24h-.8A1,1,0,0,1,97.59,346Z" transform="translate(0 0)" style="fill: #1b1b19"/>
    <path d="M100.71,342.45a.32.32,0,0,1,.64,0,.32.32,0,0,1-.64,0Zm.32,4.64a.24.24,0,0,1-.24-.24v-3.2a.24.24,0,0,1,.24-.24.23.23,0,0,1,.24.24v3.2A.24.24,0,0,1,101,347.09Z" transform="translate(0 0)" style="fill: #1b1b19"/>
    <path d="M102,343.68a.23.23,0,0,1,.24-.24h.4v-1.39a.23.23,0,0,1,.24-.24.24.24,0,0,1,.24.24v1.39h.56a.24.24,0,0,1,0,.48h-.56v2.13a.56.56,0,0,0,.56.56.24.24,0,0,1,.24.24.24.24,0,0,1-.24.24,1,1,0,0,1-1-1v-2.13h-.4A.23.23,0,0,1,102,343.68Z" transform="translate(0 0)" style="fill: #1b1b19"/>
    <path d="M106,346.06a.48.48,0,0,0-.21-.38l-.75-.53a1,1,0,0,1-.4-.72.9.9,0,0,1,.31-.77,1,1,0,0,1,.79-.24,1,1,0,0,1,.69.47.24.24,0,0,1-.42.24.44.44,0,0,0-.34-.23.45.45,0,0,0-.4.11.48.48,0,0,0-.15.39.45.45,0,0,0,.2.36l.75.52a1,1,0,0,1,.41.75.91.91,0,0,1-.32.79,1,1,0,0,1-.81.26,1,1,0,0,1-.71-.49.23.23,0,0,1,.08-.33.24.24,0,0,1,.33.09.53.53,0,0,0,.37.25.51.51,0,0,0,.42-.13A.46.46,0,0,0,106,346.06Z" transform="translate(0 0)" style="fill: #1b1b19"/>
  </g>
  <g>
    <path d="M35.28,234.09a2.07,2.07,0,0,1,1.61.8l.87,1.05a2.08,2.08,0,0,0,1.6.8" transform="translate(0 0)" style="fill: none;stroke: #ae076a;stroke-linecap: round;stroke-miterlimit: 10;stroke-width: 0.75px"/>
    <path d="M27.4,234.11a2.11,2.11,0,0,1,1.33.78l.87,1.05a2.05,2.05,0,0,0,1.81.79" transform="translate(0 0)" style="fill: none;stroke: #ae076a;stroke-linecap: round;stroke-miterlimit: 10;stroke-width: 0.75px"/>
    <path d="M18.87,234.09a2.09,2.09,0,0,1,1.7.8l.87,1.05a2.11,2.11,0,0,0,1.5.8" transform="translate(0 0)" style="fill: none;stroke: #ae076a;stroke-linecap: round;stroke-miterlimit: 10;stroke-width: 0.75px"/>
    <path d="M14.88,234.09" transform="translate(0 0)" style="fill: none;stroke: #2c7896;stroke-linecap: round;stroke-miterlimit: 10;stroke-width: 0.75px"/>
    <path d="M43.44,236.74a2.08,2.08,0,0,1-1.6-.8L41,234.89a2,2,0,0,0-3.21,0l-.87,1.05a2,2,0,0,1-3.21,0l-.87-1.05a2,2,0,0,0-3.21,0l-.87,1.05a2,2,0,0,1-3.21,0l-.88-1.05a2,2,0,0,0-3.2,0l-.87,1.05a2,2,0,0,1-3.21,0l-.87-1.05a2.09,2.09,0,0,0-1.61-.8" transform="translate(0 0)" style="fill: none;stroke: #2c7896;stroke-linecap: round;stroke-miterlimit: 10;stroke-width: 0.75px"/>
    <path d="M39.36,236.74a2.1,2.1,0,0,0,1.61-.8l.87-1.05a2.08,2.08,0,0,1,1.6-.8" transform="translate(0 0)" style="fill: none;stroke: #ae076a;stroke-linecap: round;stroke-miterlimit: 10;stroke-width: 0.75px"/>
    <path d="M31.41,236.73a2.14,2.14,0,0,0,1.4-.79l.87-1.05a2.05,2.05,0,0,1,1.6-.8" transform="translate(0 0)" style="fill: none;stroke: #ae076a;stroke-linecap: round;stroke-miterlimit: 10;stroke-width: 0.75px"/>
    <path d="M22.94,236.74a2.06,2.06,0,0,0,1.7-.8l.88-1.05a2,2,0,0,1,1.88-.78" transform="translate(0 0)" style="fill: none;stroke: #ae076a;stroke-linecap: round;stroke-miterlimit: 10;stroke-width: 0.75px"/>
    <path d="M14.88,236.74a2.09,2.09,0,0,0,1.61-.8l.87-1.05a2.09,2.09,0,0,1,1.51-.8" transform="translate(0 0)" style="fill: none;stroke: #ae076a;stroke-linecap: round;stroke-miterlimit: 10;stroke-width: 0.75px"/>
  </g>
  <g>
    <path d="M64.12,236.68a2.08,2.08,0,0,0,1.6-.8l.87-1a2.09,2.09,0,0,1,1.61-.8" transform="translate(0 0)" style="fill: none;stroke: #ae076a;stroke-linecap: round;stroke-miterlimit: 10;stroke-width: 0.75px"/>
    <path d="M56.24,236.66a2.21,2.21,0,0,0,1.32-.78l.88-1a2,2,0,0,1,1.81-.79" transform="translate(0 0)" style="fill: none;stroke: #ae076a;stroke-linecap: round;stroke-miterlimit: 10;stroke-width: 0.75px"/>
    <path d="M47.7,236.68a2.06,2.06,0,0,0,1.7-.8l.87-1a2.11,2.11,0,0,1,1.5-.8" transform="translate(0 0)" style="fill: none;stroke: #ae076a;stroke-linecap: round;stroke-miterlimit: 10;stroke-width: 0.75px"/>
    <path d="M43.72,236.68" transform="translate(0 0)" style="fill: none;stroke: #2c7896;stroke-linecap: round;stroke-miterlimit: 10;stroke-width: 0.75px"/>
    <path d="M72.27,234a2.08,2.08,0,0,0-1.6.8l-.87,1a2,2,0,0,1-3.21,0l-.87-1a2,2,0,0,0-3.21,0l-.87,1a2,2,0,0,1-3.2,0l-.88-1a2,2,0,0,0-3.21,0l-.87,1a2,2,0,0,1-3.21,0l-.87-1a2,2,0,0,0-3.21,0l-.87,1a2.08,2.08,0,0,1-1.6.8" transform="translate(0 0)" style="fill: none;stroke: #2c7896;stroke-linecap: round;stroke-miterlimit: 10;stroke-width: 0.75px"/>
    <path d="M68.2,234a2.08,2.08,0,0,1,1.6.8l.87,1a2.08,2.08,0,0,0,1.6.8" transform="translate(0 0)" style="fill: none;stroke: #ae076a;stroke-linecap: round;stroke-miterlimit: 10;stroke-width: 0.75px"/>
    <path d="M60.25,234a2.12,2.12,0,0,1,1.39.79l.87,1a2.09,2.09,0,0,0,1.61.8" transform="translate(0 0)" style="fill: none;stroke: #ae076a;stroke-linecap: round;stroke-miterlimit: 10;stroke-width: 0.75px"/>
    <path d="M51.77,234a2.07,2.07,0,0,1,1.71.8l.87,1a2.05,2.05,0,0,0,1.89.78" transform="translate(0 0)" style="fill: none;stroke: #ae076a;stroke-linecap: round;stroke-miterlimit: 10;stroke-width: 0.75px"/>
    <path d="M43.72,234a2.08,2.08,0,0,1,1.6.8l.87,1a2.15,2.15,0,0,0,1.51.8" transform="translate(0 0)" style="fill: none;stroke: #ae076a;stroke-linecap: round;stroke-miterlimit: 10;stroke-width: 0.75px"/>
  </g>
  <g>
    <path d="M92.78,234.09a2.07,2.07,0,0,1,1.61.8l.87,1.05a2.08,2.08,0,0,0,1.6.8" transform="translate(0 0)" style="fill: none;stroke: #ae076a;stroke-linecap: round;stroke-miterlimit: 10;stroke-width: 0.75px"/>
    <path d="M84.9,234.11a2.11,2.11,0,0,1,1.33.78l.87,1.05a2.05,2.05,0,0,0,1.81.79" transform="translate(0 0)" style="fill: none;stroke: #ae076a;stroke-linecap: round;stroke-miterlimit: 10;stroke-width: 0.75px"/>
    <path d="M76.37,234.09a2.09,2.09,0,0,1,1.7.8l.87,1.05a2.11,2.11,0,0,0,1.5.8" transform="translate(0 0)" style="fill: none;stroke: #ae076a;stroke-linecap: round;stroke-miterlimit: 10;stroke-width: 0.75px"/>
    <path d="M72.38,234.09" transform="translate(0 0)" style="fill: none;stroke: #2c7896;stroke-linecap: round;stroke-miterlimit: 10;stroke-width: 0.75px"/>
    <path d="M100.94,236.74a2.08,2.08,0,0,1-1.6-.8l-.87-1.05a2,2,0,0,0-3.21,0l-.87,1.05a2,2,0,0,1-3.21,0l-.87-1.05a2,2,0,0,0-3.21,0l-.87,1.05a2,2,0,0,1-3.21,0l-.88-1.05a2,2,0,0,0-3.2,0l-.87,1.05a2,2,0,0,1-3.21,0L74,234.89a2.09,2.09,0,0,0-1.61-.8" transform="translate(0 0)" style="fill: none;stroke: #2c7896;stroke-linecap: round;stroke-miterlimit: 10;stroke-width: 0.75px"/>
    <path d="M96.86,236.74a2.1,2.1,0,0,0,1.61-.8l.87-1.05a2.08,2.08,0,0,1,1.6-.8" transform="translate(0 0)" style="fill: none;stroke: #ae076a;stroke-linecap: round;stroke-miterlimit: 10;stroke-width: 0.75px"/>
    <path d="M88.91,236.73a2.14,2.14,0,0,0,1.4-.79l.87-1.05a2.05,2.05,0,0,1,1.6-.8" transform="translate(0 0)" style="fill: none;stroke: #ae076a;stroke-linecap: round;stroke-miterlimit: 10;stroke-width: 0.75px"/>
    <path d="M80.44,236.74a2.06,2.06,0,0,0,1.7-.8l.88-1.05a2,2,0,0,1,1.88-.78" transform="translate(0 0)" style="fill: none;stroke: #ae076a;stroke-linecap: round;stroke-miterlimit: 10;stroke-width: 0.75px"/>
    <path d="M72.38,236.74a2.09,2.09,0,0,0,1.61-.8l.87-1.05a2.09,2.09,0,0,1,1.51-.8" transform="translate(0 0)" style="fill: none;stroke: #ae076a;stroke-linecap: round;stroke-miterlimit: 10;stroke-width: 0.75px"/>
  </g>
  <g>
    <path d="M8.37,220v-2.38a1.07,1.07,0,0,1,2-.53.24.24,0,0,1-.08.31.23.23,0,0,1-.31-.09.62.62,0,0,0-1.15.31V220a.62.62,0,0,0,.46.6.59.59,0,0,0,.69-.29.23.23,0,0,1,.39.23,1.07,1.07,0,0,1-2-.54Z" transform="translate(0 0)" style="fill: #1b1b19"/>
    <path d="M11.15,220.81v-4a.21.21,0,0,1,.23-.22.22.22,0,0,1,.22.22v3.81h1.18a.22.22,0,0,1,.22.23.22.22,0,0,1-.22.22h-1.4A.21.21,0,0,1,11.15,220.81Z" transform="translate(0 0)" style="fill: #1b1b19"/>
    <path d="M13.5,220v-2.38a1.07,1.07,0,0,1,2.13,0V220a1.07,1.07,0,1,1-2.13,0Zm.45-2.38V220a.62.62,0,1,0,1.23,0v-2.38a.62.62,0,0,0-1.23,0Z" transform="translate(0 0)" style="fill: #1b1b19"/>
    <path d="M16.42,220v-2.38a1.06,1.06,0,0,1,2-.53.23.23,0,0,1-.08.31.23.23,0,0,1-.31-.09.6.6,0,0,0-.69-.28.61.61,0,0,0-.46.59V220a.63.63,0,0,0,.46.6.59.59,0,0,0,.69-.29.24.24,0,0,1,.31-.08.23.23,0,0,1,.08.31,1,1,0,0,1-1.19.49A1,1,0,0,1,16.42,220Z" transform="translate(0 0)" style="fill: #1b1b19"/>
    <path d="M21.34,221a.23.23,0,0,1-.3-.11l-1-2.08-.4.55v1.43a.21.21,0,0,1-.22.23.22.22,0,0,1-.22-.23v-4.06a.22.22,0,0,1,.22-.22.21.21,0,0,1,.22.22v1.86l1.42-2a.21.21,0,0,1,.31,0,.22.22,0,0,1,.05.32l-1.08,1.52,1.1,2.31A.22.22,0,0,1,21.34,221Z" transform="translate(0 0)" style="fill: #1b1b19"/>
  </g>
  <g>
    <path d="M40.08,220.83v-4.06a.22.22,0,0,1,.23-.22.21.21,0,0,1,.22.22v4.06a.21.21,0,0,1-.22.23A.23.23,0,0,1,40.08,220.83Z" transform="translate(0 0)" style="fill: #1b1b19"/>
    <path d="M43.46,220.93c-.19-.4-.38-.8-.57-1.18l-1-2v3.08a.21.21,0,0,1-.22.23.22.22,0,0,1-.23-.23v-4.06a.21.21,0,0,1,.18-.21.22.22,0,0,1,.25.11l.57,1.19,1,2v-3.08a.22.22,0,0,1,.23-.22.21.21,0,0,1,.22.22v4.06a.22.22,0,0,1-.17.22A.23.23,0,0,1,43.46,220.93Z" transform="translate(0 0)" style="fill: #1b1b19"/>
    <path d="M45.15,217.84a.22.22,0,0,1-.22-.23.25.25,0,0,1,.06-.16l.84-.84a.25.25,0,0,1,.25-.05.22.22,0,0,1,.14.21v4.06a.23.23,0,0,1-.23.23.21.21,0,0,1-.22-.23v-3.52l-.46.46A.21.21,0,0,1,45.15,217.84Z" transform="translate(0 0)" style="fill: #1b1b19"/>
  </g>
  <g>
    <path d="M68.76,220.83v-4.06a.22.22,0,0,1,.23-.22.21.21,0,0,1,.22.22v4.06a.21.21,0,0,1-.22.23A.23.23,0,0,1,68.76,220.83Z" transform="translate(0 0)" style="fill: #1b1b19"/>
    <path d="M72.14,220.93c-.19-.4-.38-.8-.57-1.18-.32-.65-.7-1.46-1-2v3.08a.21.21,0,0,1-.22.23.22.22,0,0,1-.23-.23v-4.06a.21.21,0,0,1,.18-.21.22.22,0,0,1,.25.11l.57,1.19,1,2v-3.08a.21.21,0,0,1,.23-.22.21.21,0,0,1,.22.22v4.06a.22.22,0,0,1-.17.22A.23.23,0,0,1,72.14,220.93Z" transform="translate(0 0)" style="fill: #1b1b19"/>
    <path d="M73.49,217.08a1,1,0,0,1,.64-.49,1.06,1.06,0,0,1,.8.09,1,1,0,0,1,.5.62,1,1,0,0,1-.07.81l-.55,1-.75,1.43h1.2a.22.22,0,0,1,.22.23.22.22,0,0,1-.22.22H73.69a.2.2,0,0,1-.19-.1.21.21,0,0,1,0-.23L75,217.9a.57.57,0,0,0,.05-.46.61.61,0,0,0-.3-.37.66.66,0,0,0-.46,0,.57.57,0,0,0-.36.28.23.23,0,0,1-.31.09A.23.23,0,0,1,73.49,217.08Z" transform="translate(0 0)" style="fill: #1b1b19"/>
  </g>
  <g>
    <path d="M97.68,220.83v-4.06a.22.22,0,0,1,.23-.22.21.21,0,0,1,.22.22v4.06a.21.21,0,0,1-.22.23A.23.23,0,0,1,97.68,220.83Z" transform="translate(0 0)" style="fill: #1b1b19"/>
    <path d="M101.06,220.93c-.19-.4-.38-.8-.57-1.18-.32-.65-.7-1.46-1-2v3.08a.21.21,0,0,1-.22.23.22.22,0,0,1-.23-.23v-4.06a.21.21,0,0,1,.18-.21.22.22,0,0,1,.25.11l.57,1.19,1,2v-3.08a.21.21,0,0,1,.23-.22.21.21,0,0,1,.22.22v4.06a.22.22,0,0,1-.17.22A.23.23,0,0,1,101.06,220.93Z" transform="translate(0 0)" style="fill: #1b1b19"/>
    <path d="M103.86,220v-.42a.62.62,0,0,0-.62-.61.21.21,0,0,1-.22-.23.21.21,0,0,1,.22-.22.62.62,0,0,0,.62-.62v-.28a.62.62,0,0,0-1.15-.31.23.23,0,0,1-.31.09.23.23,0,0,1-.08-.31,1.06,1.06,0,0,1,1.19-.5,1.07,1.07,0,0,1,.8,1v.28a1.05,1.05,0,0,1-.42.84,1.08,1.08,0,0,1,.42.84V220a1.06,1.06,0,0,1-.8,1,1,1,0,0,1-1.19-.49.23.23,0,0,1,.08-.31.24.24,0,0,1,.31.08.59.59,0,0,0,.69.29A.62.62,0,0,0,103.86,220Z" transform="translate(0 0)" style="fill: #1b1b19"/>
  </g>
  <g>
    <path d="M9.49,262.74v-2.38a1.07,1.07,0,1,1,2.13,0v2.38a1.07,1.07,0,0,1-2.13,0Zm.45-2.38v2.38a.61.61,0,0,0,.61.61.61.61,0,0,0,.62-.61v-2.38a.62.62,0,0,0-.62-.62A.61.61,0,0,0,9.94,260.36Z" transform="translate(0 0)" style="fill: #1b1b19"/>
    <path d="M13.49,263.35a.61.61,0,0,0,.62-.61v-3.22a.21.21,0,0,1,.22-.23.23.23,0,0,1,.23.23v3.22a1.07,1.07,0,0,1-2.13,0v-3.22a.21.21,0,0,1,.22-.23.23.23,0,0,1,.23.23v3.22A.61.61,0,0,0,13.49,263.35Z" transform="translate(0 0)" style="fill: #1b1b19"/>
    <path d="M17.44,259.54a.21.21,0,0,1-.22.23h-.69v3.81a.21.21,0,0,1-.22.22.22.22,0,0,1-.23-.22v-3.81H15.4a.23.23,0,1,1,0-.45h1.82A.21.21,0,0,1,17.44,259.54Z" transform="translate(0 0)" style="fill: #1b1b19"/>
    <path d="M18.42,260.58a.21.21,0,0,1-.22-.22.23.23,0,0,1,.06-.16l.84-.84a.23.23,0,0,1,.25-.05.2.2,0,0,1,.14.21v4.06a.22.22,0,0,1-.23.22.21.21,0,0,1-.22-.22v-3.52l-.46.46A.23.23,0,0,1,18.42,260.58Z" transform="translate(0 0)" style="fill: #1b1b19"/>
  </g>
  <g>
    <path d="M38.11,262.74v-2.38a1.07,1.07,0,1,1,2.13,0v2.38a1.07,1.07,0,0,1-2.13,0Zm.45-2.38v2.38a.61.61,0,0,0,.61.61.61.61,0,0,0,.62-.61v-2.38a.62.62,0,0,0-.62-.62A.61.61,0,0,0,38.56,260.36Z" transform="translate(0 0)" style="fill: #1b1b19"/>
    <path d="M42.11,263.35a.61.61,0,0,0,.62-.61v-3.22a.21.21,0,0,1,.22-.23.23.23,0,0,1,.23.23v3.22a1.07,1.07,0,0,1-2.13,0v-3.22a.21.21,0,0,1,.22-.23.23.23,0,0,1,.23.23v3.22A.61.61,0,0,0,42.11,263.35Z" transform="translate(0 0)" style="fill: #1b1b19"/>
    <path d="M46.06,259.54a.21.21,0,0,1-.22.23h-.69v3.81a.21.21,0,0,1-.22.22.22.22,0,0,1-.23-.22v-3.81H44a.23.23,0,1,1,0-.45h1.82A.21.21,0,0,1,46.06,259.54Z" transform="translate(0 0)" style="fill: #1b1b19"/>
    <path d="M46.7,259.82a1,1,0,0,1,.64-.49,1.06,1.06,0,0,1,.8.1,1,1,0,0,1,.51.62,1.06,1.06,0,0,1-.08.8l-.55,1-.75,1.43h1.2a.22.22,0,0,1,0,.44H46.9a.22.22,0,0,1-.2-.32l1.48-2.81a.61.61,0,0,0,0-.46.6.6,0,0,0-.3-.36.61.61,0,0,0-.46-.06.59.59,0,0,0-.36.29.23.23,0,0,1-.4-.23Z" transform="translate(0 0)" style="fill: #1b1b19"/>
  </g>
  <g>
    <path d="M66.79,262.74v-2.38a1.07,1.07,0,1,1,2.13,0v2.38a1.07,1.07,0,0,1-2.13,0Zm.45-2.38v2.38a.61.61,0,0,0,.61.61.61.61,0,0,0,.62-.61v-2.38a.62.62,0,0,0-.62-.62A.61.61,0,0,0,67.24,260.36Z" transform="translate(0 0)" style="fill: #1b1b19"/>
    <path d="M70.79,263.35a.61.61,0,0,0,.62-.61v-3.22a.21.21,0,0,1,.22-.23.23.23,0,0,1,.23.23v3.22a1.07,1.07,0,0,1-1.07,1.06,1.05,1.05,0,0,1-1.06-1.06v-3.22a.21.21,0,0,1,.22-.23.23.23,0,0,1,.23.23v3.22A.61.61,0,0,0,70.79,263.35Z" transform="translate(0 0)" style="fill: #1b1b19"/>
    <path d="M74.74,259.54a.21.21,0,0,1-.22.23h-.69v3.81a.21.21,0,0,1-.22.22.22.22,0,0,1-.23-.22v-3.81H72.7a.23.23,0,1,1,0-.45h1.82A.21.21,0,0,1,74.74,259.54Z" transform="translate(0 0)" style="fill: #1b1b19"/>
    <path d="M76.83,262.74v-.42a.62.62,0,0,0-.62-.62.21.21,0,0,1-.22-.22.21.21,0,0,1,.22-.23.61.61,0,0,0,.62-.61v-.28a.63.63,0,0,0-.46-.6.59.59,0,0,0-.69.29.23.23,0,0,1-.31.08.22.22,0,0,1-.08-.31,1,1,0,0,1,1.19-.49,1,1,0,0,1,.79,1v.28a1.07,1.07,0,0,1-.41.84,1.06,1.06,0,0,1,.41.84v.42a1.06,1.06,0,0,1-2,.53.22.22,0,0,1,.08-.31.24.24,0,0,1,.31.09.6.6,0,0,0,.69.28A.61.61,0,0,0,76.83,262.74Z" transform="translate(0 0)" style="fill: #1b1b19"/>
  </g>
  <g>
    <path d="M95.71,262.74v-2.38a1.07,1.07,0,1,1,2.13,0v2.38a1.07,1.07,0,0,1-2.13,0Zm.45-2.38v2.38a.61.61,0,0,0,.61.61.61.61,0,0,0,.62-.61v-2.38a.62.62,0,0,0-.62-.62A.61.61,0,0,0,96.16,260.36Z" transform="translate(0 0)" style="fill: #1b1b19"/>
    <path d="M99.71,263.35a.61.61,0,0,0,.62-.61v-3.22a.21.21,0,0,1,.22-.23.23.23,0,0,1,.23.23v3.22a1.07,1.07,0,0,1-1.07,1.06,1.05,1.05,0,0,1-1.06-1.06v-3.22a.21.21,0,0,1,.22-.23.23.23,0,0,1,.23.23v3.22A.61.61,0,0,0,99.71,263.35Z" transform="translate(0 0)" style="fill: #1b1b19"/>
    <path d="M103.66,259.54a.21.21,0,0,1-.22.23h-.69v3.81a.21.21,0,0,1-.22.22.22.22,0,0,1-.23-.22v-3.81h-.68a.23.23,0,1,1,0-.45h1.82A.21.21,0,0,1,103.66,259.54Z" transform="translate(0 0)" style="fill: #1b1b19"/>
    <path d="M104.19,262.73a.2.2,0,0,1,0-.2l1-3.08a.22.22,0,0,1,.28-.14.2.2,0,0,1,.16.21s0,.05,0,.07l-.39,1.22c-.2.63-.43,1.33-.5,1.56h.87v-.75a.22.22,0,0,1,.23-.23.21.21,0,0,1,.22.23v.75h.34a.22.22,0,0,1,.22.23.21.21,0,0,1-.22.22H106v.76a.21.21,0,0,1-.22.22.21.21,0,0,1-.23-.22v-.76h-1.18A.23.23,0,0,1,104.19,262.73Z" transform="translate(0 0)" style="fill: #1b1b19"/>
  </g>
</svg>
