<?xml version="1.0" encoding="utf-8"?>
<svg xmlns="http://www.w3.org/2000/svg" width="40.64mm" height="128.50mm" viewBox="0 0 40.64 128.50">
    <g id="PanelLayer">
        <rect id="border_rect" width="40.64" height="128.5" x="0" y="0" style="display:inline;fill:#e6e5e5;fill-opacity:1;fill-rule:nonzero;stroke:#e6e5e5;stroke-width:0.7;stroke-linecap:round;stroke-linejoin:round;stroke-dasharray:none;stroke-opacity:1;image-rendering:auto" />
        <g id="artwork" style="stroke:#c1a377;stroke-width:1.5;stroke-linecap:round;">
            <line x1="8.34" y1="23.13" x2="8.34" y2="95.24" />
            <line x1="20.32" y1="50.22" x2="20.32" y2="95.24" />
            <line x1="32.30" y1="23.13" x2="32.30" y2="95.24" />
            <line x1="8.34" y1="95.24" x2="14.33" y2="110.25" />
            <line x1="20.32" y1="95.24" x2="14.33" y2="110.25" />
            <line x1="20.32" y1="95.24" x2="26.31" y2="110.25" />
            <line x1="32.30" y1="95.24" x2="26.31" y2="110.25" />
            <line x1="14.33" y1="110.25" x2="26.31" y2="110.25" />
        </g>
        <path id="text_title" d="M2.78704 10.1853V10.5181Q2.47354 10.5952 2.17933 10.5952Q1.30634 10.5952 1.30634 9.76566V8.22949H0.662453V8.00281L1.30634 7.88464L1.49203 7.19252H1.74525V7.89911H2.80151V8.22949H1.74525V9.76566Q1.74525 10.2359 2.20827 10.2359Q2.43254 10.2359 2.78704 10.1853ZM5.84491 7.9594 5.72674 8.35972Q5.43012 8.2512 5.18655 8.2512Q4.79347 8.2512 4.58004 8.47427Q4.36662 8.69734 4.36662 9.11936V10.547H3.92771V7.89911H4.28463L4.33768 8.38383H4.35697Q4.54025 8.09686 4.75006 7.97387Q4.95987 7.85088 5.26613 7.85088Q5.5507 7.85088 5.84491 7.9594ZM7.7814 6.80908Q8.03702 6.80908 8.03702 7.084Q8.03702 7.22387 7.96106 7.2926Q7.8851 7.36133 7.7814 7.36133Q7.52336 7.36133 7.52336 7.084Q7.52336 6.80908 7.7814 6.80908ZM7.55953 8.24637 6.91082 8.19573V7.89911H7.99844V10.2022L8.84731 10.2504V10.547H6.72996V10.2504L7.55953 10.2022ZM10.0386 10.2118H10.0097Q10.0386 10.5229 10.0386 10.6025V11.7335H9.59972V7.89911H9.95422L10.0193 8.25602H10.0386Q10.3039 7.85088 10.8151 7.85088Q11.2999 7.85088 11.576 8.21141Q11.8521 8.57194 11.8521 9.21824Q11.8521 9.86936 11.5748 10.2323Q11.2975 10.5952 10.8151 10.5952Q10.316 10.5952 10.0386 10.2118ZM10.0386 9.11936V9.21824Q10.0386 9.76566 10.2062 9.99838Q10.3738 10.2311 10.7404 10.2311Q11.3963 10.2311 11.3963 9.21341Q11.3963 8.21502 10.7356 8.21502Q10.369 8.21502 10.2086 8.42724Q10.0483 8.63946 10.0386 9.11936ZM13.4655 7.13947 12.8192 7.08882V6.79461H13.9068V10.2022L14.7557 10.2504V10.547H12.6359V10.2504L13.4655 10.2022ZM17.7894 9.30746H15.9228Q15.9421 10.2118 16.7524 10.2118Q17.2227 10.2118 17.6447 10.0285V10.4144Q17.2444 10.5952 16.7669 10.5952Q16.1761 10.5952 15.8216 10.2347Q15.4671 9.87418 15.4671 9.24235Q15.4671 8.60087 15.7938 8.22588Q16.1206 7.85088 16.668 7.85088Q17.1793 7.85088 17.4843 8.17403Q17.7894 8.49718 17.7894 9.03496ZM15.9325 8.95055H17.3143Q17.3143 8.21502 16.6584 8.21502Q15.9952 8.21502 15.9325 8.95055ZM20.246 10.4288V10.0285Q20.7114 10.2359 21.1383 10.2359Q21.8014 10.2359 21.8014 9.84524Q21.8014 9.70778 21.6833 9.6065Q21.5651 9.50521 21.1383 9.35087Q20.5764 9.14107 20.4305 8.96623Q20.2846 8.79139 20.2846 8.55264Q20.2846 8.22467 20.5535 8.03777Q20.8223 7.85088 21.2974 7.85088Q21.7749 7.85088 22.1873 8.02933L22.0426 8.38866Q21.6037 8.21502 21.2733 8.21502Q20.7042 8.21502 20.7042 8.53576Q20.7042 8.68287 20.826 8.77089Q20.9477 8.85891 21.3867 9.01566Q21.8955 9.20135 22.0631 9.38102Q22.2307 9.56068 22.2307 9.82113Q22.2307 10.1829 21.9486 10.3891Q21.6664 10.5952 21.1503 10.5952Q20.5523 10.5952 20.246 10.4288ZM24.0032 7.13947 23.3569 7.08882V6.79461H24.4445V10.2022L25.2934 10.2504V10.547H23.1736V10.2504L24.0032 10.2022ZM27.1551 10.5952Q26.6342 10.5952 26.2978 10.2202Q25.9614 9.84524 25.9614 9.21824Q25.9614 8.58399 26.2882 8.21744Q26.6149 7.85088 27.1696 7.85088Q27.6953 7.85088 28.0305 8.22467Q28.3657 8.59846 28.3657 9.21824Q28.3657 9.8573 28.0353 10.2263Q27.705 10.5952 27.1551 10.5952ZM27.1648 10.2311Q27.9124 10.2311 27.9124 9.21824Q27.9124 8.21502 27.1599 8.21502Q26.4148 8.21502 26.4148 9.21824Q26.4148 10.2311 27.1648 10.2311ZM31.1077 10.1853V10.5181Q30.7942 10.5952 30.5 10.5952Q29.627 10.5952 29.627 9.76566V8.22949H28.9831V8.00281L29.627 7.88464L29.8127 7.19252H30.0659V7.89911H31.1222V8.22949H30.0659V9.76566Q30.0659 10.2359 30.5289 10.2359Q30.7532 10.2359 31.1077 10.1853ZM33.7508 10.547V8.84203Q33.7508 8.21502 33.1768 8.21502Q32.4365 8.21502 32.4365 9.17483V10.547H31.9975V6.79461H32.4365V7.90876L32.4172 8.25602H32.4413Q32.6897 7.85088 33.2516 7.85088Q34.1897 7.85088 34.1897 8.81792V10.547Z" transform="scale(1.15,1)" style="fill:#5c3114;stroke:#5c3114;stroke-width:0.1;stroke-linejoin:bevel;" />
        <path id="text_apathy" d="M3.52706 17.6399 3.46332 17.378H3.44954Q3.31691 17.5451 3.17738 17.6097Q3.03785 17.6743 2.81737 17.6743Q2.53659 17.6743 2.37726 17.5262Q2.21792 17.378 2.21792 17.111Q2.21792 16.5392 3.09642 16.5116L3.4461 16.4995V16.3807Q3.4461 15.9742 3.0258 15.9742Q2.77258 15.9742 2.4608 16.1154L2.35228 15.8794Q2.6899 15.7141 3.01202 15.7141Q3.40303 15.7141 3.57787 15.8639Q3.75271 16.0138 3.75271 16.3445V17.6399ZM3.44265 16.7149 3.1636 16.7269Q2.82598 16.7407 2.68473 16.8329Q2.54348 16.925 2.54348 17.1145Q2.54348 17.4211 2.88799 17.4211Q3.14121 17.4211 3.29193 17.2807Q3.44265 17.1403 3.44265 16.8854ZM4.68805 17.4004H4.66738Q4.68805 17.6226 4.68805 17.6795V18.4874H4.37455V15.7485H4.62776L4.67427 16.0034H4.68805Q4.87753 15.7141 5.24271 15.7141Q5.58895 15.7141 5.78618 15.9716Q5.98341 16.2291 5.98341 16.6907Q5.98341 17.1558 5.78532 17.4151Q5.58722 17.6743 5.24271 17.6743Q4.88615 17.6743 4.68805 17.4004ZM4.68805 16.6201V16.6907Q4.68805 17.0818 4.80777 17.248Q4.92749 17.4142 5.18932 17.4142Q5.65785 17.4142 5.65785 16.6873Q5.65785 15.9742 5.18587 15.9742Q4.92404 15.9742 4.80949 16.1257Q4.69494 16.2773 4.68805 16.6201ZM7.76108 17.6399 7.69735 17.378H7.68356Q7.55093 17.5451 7.4114 17.6097Q7.27188 17.6743 7.05139 17.6743Q6.77061 17.6743 6.61128 17.5262Q6.45194 17.378 6.45194 17.111Q6.45194 16.5392 7.33044 16.5116L7.68012 16.4995V16.3807Q7.68012 15.9742 7.25982 15.9742Q7.0066 15.9742 6.69482 16.1154L6.5863 15.8794Q6.92392 15.7141 7.24604 15.7141Q7.63706 15.7141 7.81189 15.8639Q7.98673 16.0138 7.98673 16.3445V17.6399ZM7.67667 16.7149 7.39762 16.7269Q7.06 16.7407 6.91875 16.8329Q6.7775 16.925 6.7775 17.1145Q6.7775 17.4211 7.12201 17.4211Q7.37523 17.4211 7.52595 17.2807Q7.67667 17.1403 7.67667 16.8854ZM10.0934 17.3815V17.6192Q9.86948 17.6743 9.65933 17.6743Q9.03576 17.6743 9.03576 17.0818V15.9845H8.57584V15.8226L9.03576 15.7382L9.1684 15.2438H9.34927V15.7485H10.1037V15.9845H9.34927V17.0818Q9.34927 17.4177 9.68 17.4177Q9.84019 17.4177 10.0934 17.3815ZM11.9813 17.6399V16.422Q11.9813 15.9742 11.5714 15.9742Q11.0425 15.9742 11.0425 16.6597V17.6399H10.729V14.9596H11.0425V15.7554L11.0288 16.0034H11.046Q11.2234 15.7141 11.6248 15.7141Q12.2948 15.7141 12.2948 16.4048V17.6399ZM12.7117 15.7485H13.0355L13.4868 16.8751Q13.6281 17.2282 13.6401 17.3746H13.6505Q13.6901 17.1817 13.8055 16.8716L14.2172 15.7485H14.5427L13.7245 17.8862Q13.6091 18.1859 13.4558 18.3366Q13.3025 18.4874 13.0321 18.4874Q12.8839 18.4874 12.7427 18.4581V18.2083Q12.8495 18.229 12.977 18.229Q13.1423 18.229 13.2345 18.1584Q13.3266 18.0877 13.399 17.9155L13.4989 17.6571Z" style="fill:#af5a20;stroke:#90491a;stroke-width:0.05;stroke-linejoin:bevel" />
        <path id="text_torpor" d="M27.7096 17.3815V17.6192Q27.4856 17.6743 27.2755 17.6743Q26.6519 17.6743 26.6519 17.0818V15.9845H26.192V15.8226L26.6519 15.7382L26.7845 15.2438H26.9654V15.7485H27.7199V15.9845H26.9654V17.0818Q26.9654 17.4177 27.2961 17.4177Q27.4563 17.4177 27.7096 17.3815ZM29.1203 17.6743Q28.7483 17.6743 28.508 17.4065Q28.2677 17.1386 28.2677 16.6907Q28.2677 16.2377 28.5011 15.9759Q28.7345 15.7141 29.1307 15.7141Q29.5062 15.7141 29.7456 15.9811Q29.985 16.248 29.985 16.6907Q29.985 17.1472 29.7491 17.4108Q29.5131 17.6743 29.1203 17.6743ZM29.1272 17.4142Q29.6612 17.4142 29.6612 16.6907Q29.6612 15.9742 29.1238 15.9742Q28.5915 15.9742 28.5915 16.6907Q28.5915 17.4142 29.1272 17.4142ZM32.0108 15.7916 31.9264 16.0775Q31.7145 16 31.5405 16Q31.2597 16 31.1073 16.1593Q30.9548 16.3187 30.9548 16.6201V17.6399H30.6413V15.7485H30.8963L30.9342 16.0947H30.9479Q31.0789 15.8898 31.2287 15.8019Q31.3786 15.7141 31.5973 15.7141Q31.8006 15.7141 32.0108 15.7916ZM32.8893 17.4004H32.8686Q32.8893 17.6226 32.8893 17.6795V18.4874H32.5758V15.7485H32.829L32.8755 16.0034H32.8893Q33.0787 15.7141 33.4439 15.7141Q33.7901 15.7141 33.9874 15.9716Q34.1846 16.2291 34.1846 16.6907Q34.1846 17.1558 33.9865 17.4151Q33.7884 17.6743 33.4439 17.6743Q33.0873 17.6743 32.8893 17.4004ZM32.8893 16.6201V16.6907Q32.8893 17.0818 33.009 17.248Q33.1287 17.4142 33.3905 17.4142Q33.8591 17.4142 33.8591 16.6873Q33.8591 15.9742 33.3871 15.9742Q33.1252 15.9742 33.0107 16.1257Q32.8961 16.2773 32.8893 16.6201ZM35.4714 17.6743Q35.0993 17.6743 34.859 17.4065Q34.6187 17.1386 34.6187 16.6907Q34.6187 16.2377 34.8521 15.9759Q35.0855 15.7141 35.4817 15.7141Q35.8572 15.7141 36.0966 15.9811Q36.3361 16.248 36.3361 16.6907Q36.3361 17.1472 36.1001 17.4108Q35.8641 17.6743 35.4714 17.6743ZM35.4782 17.4142Q36.0122 17.4142 36.0122 16.6907Q36.0122 15.9742 35.4748 15.9742Q34.9425 15.9742 34.9425 16.6907Q34.9425 17.4142 35.4782 17.4142ZM38.3618 15.7916 38.2774 16.0775Q38.0655 16 37.8915 16Q37.6108 16 37.4583 16.1593Q37.3059 16.3187 37.3059 16.6201V17.6399H36.9924V15.7485H37.2473L37.2852 16.0947H37.299Q37.4299 15.8898 37.5798 15.8019Q37.7296 15.7141 37.9484 15.7141Q38.1516 15.7141 38.3618 15.7916Z" style="fill:#af5a20;stroke:#90491a;stroke-width:0.05;stroke-linejoin:bevel" />
        <path id="text_inertia" d="M14.0008 44.6277Q14.1834 44.6277 14.1834 44.8241Q14.1834 44.924 14.1292 44.9731Q14.0749 45.0222 14.0008 45.0222Q13.8165 45.0222 13.8165 44.8241Q13.8165 44.6277 14.0008 44.6277ZM13.8424 45.6544 13.379 45.6182V45.4063H14.1559V47.0513L14.7622 47.0858V47.2977H13.2498V47.0858L13.8424 47.0513ZM16.5554 47.2977V46.0798Q16.5554 45.632 16.1454 45.632Q15.6166 45.632 15.6166 46.3175V47.2977H15.3031V45.4063H15.5563L15.6028 45.6612H15.62Q15.7975 45.3719 16.1988 45.3719Q16.8689 45.3719 16.8689 46.0626V47.2977ZM19.0324 46.4123H17.6991Q17.7129 47.0582 18.2917 47.0582Q18.6276 47.0582 18.929 46.9273V47.2029Q18.6431 47.3321 18.302 47.3321Q17.88 47.3321 17.6268 47.0746Q17.3736 46.8171 17.3736 46.3658Q17.3736 45.9076 17.607 45.6397Q17.8404 45.3719 18.2314 45.3719Q18.5966 45.3719 18.8145 45.6027Q19.0324 45.8335 19.0324 46.2176ZM17.706 46.1573H18.6931Q18.6931 45.632 18.2245 45.632Q17.7508 45.632 17.706 46.1573ZM21.0857 45.4494 21.0013 45.7353Q20.7894 45.6578 20.6154 45.6578Q20.3346 45.6578 20.1822 45.8171Q20.0298 45.9765 20.0298 46.2779V47.2977H19.7162V45.4063H19.9712L20.0091 45.7525H20.0229Q20.1538 45.5476 20.3036 45.4597Q20.4535 45.3719 20.6723 45.3719Q20.8755 45.3719 21.0857 45.4494ZM23.1355 47.0393V47.277Q22.9116 47.3321 22.7014 47.3321Q22.0779 47.3321 22.0779 46.7396V45.6423H21.6179V45.4804L22.0779 45.396L22.2105 44.9016H22.3914V45.4063H23.1458V45.6423H22.3914V46.7396Q22.3914 47.0755 22.7221 47.0755Q22.8823 47.0755 23.1355 47.0393ZM24.5859 44.6277Q24.7685 44.6277 24.7685 44.8241Q24.7685 44.924 24.7142 44.9731Q24.66 45.0222 24.5859 45.0222Q24.4016 45.0222 24.4016 44.8241Q24.4016 44.6277 24.5859 44.6277ZM24.4274 45.6544 23.964 45.6182V45.4063H24.7409V47.0513L25.3473 47.0858V47.2977H23.8349V47.0858L24.4274 47.0513ZM27.1542 47.2977 27.0905 47.0358H27.0767Q26.9441 47.2029 26.8045 47.2675Q26.665 47.3321 26.4445 47.3321Q26.1637 47.3321 26.0044 47.184Q25.8451 47.0358 25.8451 46.7688Q25.8451 46.197 26.7236 46.1694L27.0732 46.1573V46.0385Q27.0732 45.632 26.6529 45.632Q26.3997 45.632 26.088 45.7732L25.9794 45.5372Q26.317 45.3719 26.6392 45.3719Q27.0302 45.3719 27.205 45.5217Q27.3799 45.6716 27.3799 46.0023V47.2977ZM27.0698 46.3727 26.7908 46.3847Q26.4531 46.3985 26.3119 46.4907Q26.1706 46.5828 26.1706 46.7723Q26.1706 47.0789 26.5151 47.0789Q26.7684 47.0789 26.9191 46.9385Q27.0698 46.7981 27.0698 46.5432Z" style="fill:#af5a20;stroke:#90491a;stroke-width:0.05;stroke-linejoin:bevel" />
        <g id="nlc_logo" transform="scale(0.25) translate(6.09,135)" style="fill:#5c3114;stroke:#5c3114;">
            <polyline points="87 351.05 87 339.53 94.75 351.05 94.75 339.53" style="fill:none;stroke-linecap:round;stroke-linejoin:round;stroke-width:1.56px" />
            <polyline points="94.75 339.53 94.75 351.05 102.49 351.05" style="fill:none;stroke-linecap:round;stroke-linejoin:round;stroke-width:1.56px" />
            <path d="M108.79,349.13a2,2,0,0,1-1.94,1.92H103a2,2,0,0,1-1.94-1.92v-7.68a1.91,1.91,0,0,1,1.94-1.92h3.87a1.91,1.91,0,0,1,1.94,1.92" style="fill:none;stroke-linecap:round;stroke-linejoin:round;stroke-width:1.56px" />
            <path d="M52.28,356.21a11.34,11.34,0,1,0,0-22.68,11.34,11.34,0,1,0,0,22.68" style="fill:none;stroke-linecap:round;stroke-linejoin:round;stroke-width:1.08px" />
            <line x1="63.89" y1="344.81" x2="81.20" y2="344.81" style="fill: none;stroke-linecap: round;stroke-linejoin: round;stroke-width: 1.44px" />
            <line x1="55.30" y1="334.01" x2="48.52" y2="342.29" style="fill: none;stroke-linecap: round;stroke-linejoin: round;stroke-width: 1.08px" />
            <line x1="56.63" y1="347.69" x2="49.86" y2="355.73" style="fill: none;stroke-linecap: round;stroke-linejoin: round;stroke-width: 1.08px" />
            <line x1="48.52" y1="342.29" x2="56.63" y2="347.69" style="fill: none;stroke-linecap: round;stroke-linejoin: round;stroke-width: 1.08px" />
            <polygon points="56.99 347.45 57.24 355.01 53.73 355.85 50.22 355.73 56.99 347.45" style="fill-rule: evenodd" />
            <polygon points="54.82 333.89 57.36 335.09 57.24 347.57 48.16 341.93 54.82 333.89" style="fill-rule: evenodd" />
            <polygon points="56.75 349.25 62.2 349.49 61.96 350.81 60.38 352.25 56.63 355.25 56.75 349.25" style="fill-rule: evenodd" />
            <polygon points="56.63 341.69 63.17 341.57 63.53 345.17 63.29 347.69 62.32 349.97 56.39 349.73 56.63 341.69" style="fill-rule: evenodd" />
            <polygon points="56.99 334.61 59.41 336.17 61.84 338.93 62.8 341.21 63.05 342.05 56.27 341.93 56.99 334.61" style="fill-rule: evenodd" />
        </g>
    </g>
</svg>
