<?xml version="1.0" encoding="utf-8"?>
<svg xmlns="http://www.w3.org/2000/svg" width="40.64mm" height="128.50mm" viewBox="0 0 40.64 128.50">
    <g id="PanelLayer">
        <rect id="border_rect" width="40.64" height="128.5" x="0" y="0" style="display:inline;fill:#e6e5e5;fill-opacity:1;fill-rule:nonzero;stroke:#e6e5e5;stroke-width:0.7;stroke-linecap:round;stroke-linejoin:round;stroke-dasharray:none;stroke-opacity:1;image-rendering:auto" />
        <path id="text_title" d="M2.78704 10.1853V10.5181Q2.47354 10.5952 2.17933 10.5952Q1.30634 10.5952 1.30634 9.76566V8.22949H0.662453V8.00281L1.30634 7.88464L1.49203 7.19252H1.74525V7.89911H2.80151V8.22949H1.74525V9.76566Q1.74525 10.2359 2.20827 10.2359Q2.43254 10.2359 2.78704 10.1853ZM5.84491 7.9594 5.72674 8.35972Q5.43012 8.2512 5.18655 8.2512Q4.79347 8.2512 4.58004 8.47427Q4.36662 8.69734 4.36662 9.11936V10.547H3.92771V7.89911H4.28463L4.33768 8.38383H4.35697Q4.54025 8.09686 4.75006 7.97387Q4.95987 7.85088 5.26613 7.85088Q5.5507 7.85088 5.84491 7.9594ZM7.7814 6.80908Q8.03702 6.80908 8.03702 7.084Q8.03702 7.22387 7.96106 7.2926Q7.8851 7.36133 7.7814 7.36133Q7.52336 7.36133 7.52336 7.084Q7.52336 6.80908 7.7814 6.80908ZM7.55953 8.24637 6.91082 8.19573V7.89911H7.99844V10.2022L8.84731 10.2504V10.547H6.72996V10.2504L7.55953 10.2022ZM10.0386 10.2118H10.0097Q10.0386 10.5229 10.0386 10.6025V11.7335H9.59972V7.89911H9.95422L10.0193 8.25602H10.0386Q10.3039 7.85088 10.8151 7.85088Q11.2999 7.85088 11.576 8.21141Q11.8521 8.57194 11.8521 9.21824Q11.8521 9.86936 11.5748 10.2323Q11.2975 10.5952 10.8151 10.5952Q10.316 10.5952 10.0386 10.2118ZM10.0386 9.11936V9.21824Q10.0386 9.76566 10.2062 9.99838Q10.3738 10.2311 10.7404 10.2311Q11.3963 10.2311 11.3963 9.21341Q11.3963 8.21502 10.7356 8.21502Q10.369 8.21502 10.2086 8.42724Q10.0483 8.63946 10.0386 9.11936ZM13.4655 7.13947 12.8192 7.08882V6.79461H13.9068V10.2022L14.7557 10.2504V10.547H12.6359V10.2504L13.4655 10.2022ZM17.7894 9.30746H15.9228Q15.9421 10.2118 16.7524 10.2118Q17.2227 10.2118 17.6447 10.0285V10.4144Q17.2444 10.5952 16.7669 10.5952Q16.1761 10.5952 15.8216 10.2347Q15.4671 9.87418 15.4671 9.24235Q15.4671 8.60087 15.7938 8.22588Q16.1206 7.85088 16.668 7.85088Q17.1793 7.85088 17.4843 8.17403Q17.7894 8.49718 17.7894 9.03496ZM15.9325 8.95055H17.3143Q17.3143 8.21502 16.6584 8.21502Q15.9952 8.21502 15.9325 8.95055ZM20.246 10.4288V10.0285Q20.7114 10.2359 21.1383 10.2359Q21.8014 10.2359 21.8014 9.84524Q21.8014 9.70778 21.6833 9.6065Q21.5651 9.50521 21.1383 9.35087Q20.5764 9.14107 20.4305 8.96623Q20.2846 8.79139 20.2846 8.55264Q20.2846 8.22467 20.5535 8.03777Q20.8223 7.85088 21.2974 7.85088Q21.7749 7.85088 22.1873 8.02933L22.0426 8.38866Q21.6037 8.21502 21.2733 8.21502Q20.7042 8.21502 20.7042 8.53576Q20.7042 8.68287 20.826 8.77089Q20.9477 8.85891 21.3867 9.01566Q21.8955 9.20135 22.0631 9.38102Q22.2307 9.56068 22.2307 9.82113Q22.2307 10.1829 21.9486 10.3891Q21.6664 10.5952 21.1503 10.5952Q20.5523 10.5952 20.246 10.4288ZM24.0032 7.13947 23.3569 7.08882V6.79461H24.4445V10.2022L25.2934 10.2504V10.547H23.1736V10.2504L24.0032 10.2022ZM27.1551 10.5952Q26.6342 10.5952 26.2978 10.2202Q25.9614 9.84524 25.9614 9.21824Q25.9614 8.58399 26.2882 8.21744Q26.6149 7.85088 27.1696 7.85088Q27.6953 7.85088 28.0305 8.22467Q28.3657 8.59846 28.3657 9.21824Q28.3657 9.8573 28.0353 10.2263Q27.705 10.5952 27.1551 10.5952ZM27.1648 10.2311Q27.9124 10.2311 27.9124 9.21824Q27.9124 8.21502 27.1599 8.21502Q26.4148 8.21502 26.4148 9.21824Q26.4148 10.2311 27.1648 10.2311ZM31.1077 10.1853V10.5181Q30.7942 10.5952 30.5 10.5952Q29.627 10.5952 29.627 9.76566V8.22949H28.9831V8.00281L29.627 7.88464L29.8127 7.19252H30.0659V7.89911H31.1222V8.22949H30.0659V9.76566Q30.0659 10.2359 30.5289 10.2359Q30.7532 10.2359 31.1077 10.1853ZM33.7508 10.547V8.84203Q33.7508 8.21502 33.1768 8.21502Q32.4365 8.21502 32.4365 9.17483V10.547H31.9975V6.79461H32.4365V7.90876L32.4172 8.25602H32.4413Q32.6897 7.85088 33.2516 7.85088Q34.1897 7.85088 34.1897 8.81792V10.547Z" transform="scale(1.15,1)" style="fill:#5c3114;stroke:#5c3114;stroke-width:0.1;stroke-linejoin:bevel" />
        <g id="nlc_logo" transform="scale(0.25) translate(6.09,135)" style="fill:#5c3114;stroke:#5c3114;">
            <polyline points="87 351.05 87 339.53 94.75 351.05 94.75 339.53" style="fill:none;stroke-linecap:round;stroke-linejoin:round;stroke-width:1.56px" />
            <polyline points="94.75 339.53 94.75 351.05 102.49 351.05" style="fill:none;stroke-linecap:round;stroke-linejoin:round;stroke-width:1.56px" />
            <path d="M108.79,349.13a2,2,0,0,1-1.94,1.92H103a2,2,0,0,1-1.94-1.92v-7.68a1.91,1.91,0,0,1,1.94-1.92h3.87a1.91,1.91,0,0,1,1.94,1.92" style="fill:none;stroke-linecap:round;stroke-linejoin:round;stroke-width:1.56px" />
            <path d="M52.28,356.21a11.34,11.34,0,1,0,0-22.68,11.34,11.34,0,1,0,0,22.68" style="fill:none;stroke-linecap:round;stroke-linejoin:round;stroke-width:1.08px" />
            <line x1="63.89" y1="344.81" x2="81.2" y2="344.81" style="fill: none;stroke-linecap: round;stroke-linejoin: round;stroke-width: 1.44px" />
            <line x1="55.3" y1="334.01" x2="48.52" y2="342.29" style="fill: none;stroke-linecap: round;stroke-linejoin: round;stroke-width: 1.08px" />
            <line x1="56.63" y1="347.69" x2="49.86" y2="355.73" style="fill: none;stroke-linecap: round;stroke-linejoin: round;stroke-width: 1.08px" />
            <line x1="48.52" y1="342.29" x2="56.63" y2="347.69" style="fill: none;stroke-linecap: round;stroke-linejoin: round;stroke-width: 1.08px" />
            <polygon points="56.99 347.45 57.24 355.01 53.73 355.85 50.22 355.73 56.99 347.45" style="fill-rule: evenodd" />
            <polygon points="54.82 333.89 57.36 335.09 57.24 347.57 48.16 341.93 54.82 333.89" style="fill-rule: evenodd" />
            <polygon points="56.75 349.25 62.2 349.49 61.96 350.81 60.38 352.25 56.63 355.25 56.75 349.25" style="fill-rule: evenodd" />
            <polygon points="56.63 341.69 63.17 341.57 63.53 345.17 63.29 347.69 62.32 349.97 56.39 349.73 56.63 341.69" style="fill-rule: evenodd" />
            <polygon points="56.99 334.61 59.41 336.17 61.84 338.93 62.8 341.21 63.05 342.05 56.27 341.93 56.99 334.61" style="fill-rule: evenodd" />
        </g>
    </g>
</svg>
