<?xml version="1.0" encoding="utf-8"?>
<svg xmlns="http://www.w3.org/2000/svg" width="40.64mm" height="128.50mm" viewBox="0 0 40.64 128.50">
    <g id="PanelLayer">
        <rect id="border_rect" width="40.64" height="128.5" x="0" y="0" style="display:inline;fill:#e6e5e5;fill-opacity:1;fill-rule:nonzero;stroke:#e6e5e5;stroke-width:0.7;stroke-linecap:round;stroke-linejoin:round;stroke-dasharray:none;stroke-opacity:1;image-rendering:auto" />
        <g id="artwork" style="stroke:#c1a377;stroke-width:1.5;stroke-linecap:round;">
            <line x1="8.34" y1="38.14" x2="8.34" y2="95.24" />
            <line x1="20.32" y1="50.22" x2="20.32" y2="95.24" />
            <line x1="32.30" y1="38.14" x2="32.30" y2="95.24" />
            <line x1="8.34" y1="95.24" x2="14.33" y2="110.25" />
            <line x1="20.32" y1="95.24" x2="14.33" y2="110.25" />
            <line x1="20.32" y1="95.24" x2="26.31" y2="110.25" />
            <line x1="32.30" y1="95.24" x2="26.31" y2="110.25" />
            <line x1="14.33" y1="110.25" x2="26.31" y2="110.25" />
        </g>
        <path id="text_title" d="M2.78704 10.1853V10.5181Q2.47354 10.5952 2.17933 10.5952Q1.30634 10.5952 1.30634 9.76566V8.22949H0.662453V8.00281L1.30634 7.88464L1.49203 7.19252H1.74525V7.89911H2.80151V8.22949H1.74525V9.76566Q1.74525 10.2359 2.20827 10.2359Q2.43254 10.2359 2.78704 10.1853ZM5.84491 7.9594 5.72674 8.35972Q5.43012 8.2512 5.18655 8.2512Q4.79347 8.2512 4.58004 8.47427Q4.36662 8.69734 4.36662 9.11936V10.547H3.92771V7.89911H4.28463L4.33768 8.38383H4.35697Q4.54025 8.09686 4.75006 7.97387Q4.95987 7.85088 5.26613 7.85088Q5.5507 7.85088 5.84491 7.9594ZM7.7814 6.80908Q8.03702 6.80908 8.03702 7.084Q8.03702 7.22387 7.96106 7.2926Q7.8851 7.36133 7.7814 7.36133Q7.52336 7.36133 7.52336 7.084Q7.52336 6.80908 7.7814 6.80908ZM7.55953 8.24637 6.91082 8.19573V7.89911H7.99844V10.2022L8.84731 10.2504V10.547H6.72996V10.2504L7.55953 10.2022ZM10.0386 10.2118H10.0097Q10.0386 10.5229 10.0386 10.6025V11.7335H9.59972V7.89911H9.95422L10.0193 8.25602H10.0386Q10.3039 7.85088 10.8151 7.85088Q11.2999 7.85088 11.576 8.21141Q11.8521 8.57194 11.8521 9.21824Q11.8521 9.86936 11.5748 10.2323Q11.2975 10.5952 10.8151 10.5952Q10.316 10.5952 10.0386 10.2118ZM10.0386 9.11936V9.21824Q10.0386 9.76566 10.2062 9.99838Q10.3738 10.2311 10.7404 10.2311Q11.3963 10.2311 11.3963 9.21341Q11.3963 8.21502 10.7356 8.21502Q10.369 8.21502 10.2086 8.42724Q10.0483 8.63946 10.0386 9.11936ZM13.4655 7.13947 12.8192 7.08882V6.79461H13.9068V10.2022L14.7557 10.2504V10.547H12.6359V10.2504L13.4655 10.2022ZM17.7894 9.30746H15.9228Q15.9421 10.2118 16.7524 10.2118Q17.2227 10.2118 17.6447 10.0285V10.4144Q17.2444 10.5952 16.7669 10.5952Q16.1761 10.5952 15.8216 10.2347Q15.4671 9.87418 15.4671 9.24235Q15.4671 8.60087 15.7938 8.22588Q16.1206 7.85088 16.668 7.85088Q17.1793 7.85088 17.4843 8.17403Q17.7894 8.49718 17.7894 9.03496ZM15.9325 8.95055H17.3143Q17.3143 8.21502 16.6584 8.21502Q15.9952 8.21502 15.9325 8.95055ZM20.246 10.4288V10.0285Q20.7114 10.2359 21.1383 10.2359Q21.8014 10.2359 21.8014 9.84524Q21.8014 9.70778 21.6833 9.6065Q21.5651 9.50521 21.1383 9.35087Q20.5764 9.14107 20.4305 8.96623Q20.2846 8.79139 20.2846 8.55264Q20.2846 8.22467 20.5535 8.03777Q20.8223 7.85088 21.2974 7.85088Q21.7749 7.85088 22.1873 8.02933L22.0426 8.38866Q21.6037 8.21502 21.2733 8.21502Q20.7042 8.21502 20.7042 8.53576Q20.7042 8.68287 20.826 8.77089Q20.9477 8.85891 21.3867 9.01566Q21.8955 9.20135 22.0631 9.38102Q22.2307 9.56068 22.2307 9.82113Q22.2307 10.1829 21.9486 10.3891Q21.6664 10.5952 21.1503 10.5952Q20.5523 10.5952 20.246 10.4288ZM24.0032 7.13947 23.3569 7.08882V6.79461H24.4445V10.2022L25.2934 10.2504V10.547H23.1736V10.2504L24.0032 10.2022ZM27.1551 10.5952Q26.6342 10.5952 26.2978 10.2202Q25.9614 9.84524 25.9614 9.21824Q25.9614 8.58399 26.2882 8.21744Q26.6149 7.85088 27.1696 7.85088Q27.6953 7.85088 28.0305 8.22467Q28.3657 8.59846 28.3657 9.21824Q28.3657 9.8573 28.0353 10.2263Q27.705 10.5952 27.1551 10.5952ZM27.1648 10.2311Q27.9124 10.2311 27.9124 9.21824Q27.9124 8.21502 27.1599 8.21502Q26.4148 8.21502 26.4148 9.21824Q26.4148 10.2311 27.1648 10.2311ZM31.1077 10.1853V10.5181Q30.7942 10.5952 30.5 10.5952Q29.627 10.5952 29.627 9.76566V8.22949H28.9831V8.00281L29.627 7.88464L29.8127 7.19252H30.0659V7.89911H31.1222V8.22949H30.0659V9.76566Q30.0659 10.2359 30.5289 10.2359Q30.7532 10.2359 31.1077 10.1853ZM33.7508 10.547V8.84203Q33.7508 8.21502 33.1768 8.21502Q32.4365 8.21502 32.4365 9.17483V10.547H31.9975V6.79461H32.4365V7.90876L32.4172 8.25602H32.4413Q32.6897 7.85088 33.2516 7.85088Q34.1897 7.85088 34.1897 8.81792V10.547Z" transform="scale(1.15,1)" style="fill:#5c3114;stroke:#5c3114;stroke-width:0.1;stroke-linejoin:bevel;" />
        <path id="text_apathy" d="M3.52706 18.2567 3.46332 17.9948H3.44954Q3.31691 18.1619 3.17738 18.2265Q3.03785 18.2911 2.81737 18.2911Q2.53659 18.2911 2.37726 18.143Q2.21792 17.9948 2.21792 17.7278Q2.21792 17.156 3.09642 17.1284L3.4461 17.1163V16.9975Q3.4461 16.591 3.0258 16.591Q2.77258 16.591 2.4608 16.7322L2.35228 16.4962Q2.6899 16.3309 3.01202 16.3309Q3.40303 16.3309 3.57787 16.4807Q3.75271 16.6306 3.75271 16.9613V18.2567ZM3.44265 17.3317 3.1636 17.3437Q2.82598 17.3575 2.68473 17.4497Q2.54348 17.5418 2.54348 17.7313Q2.54348 18.0379 2.88799 18.0379Q3.14121 18.0379 3.29193 17.8975Q3.44265 17.7571 3.44265 17.5022ZM4.68805 18.0172H4.66738Q4.68805 18.2394 4.68805 18.2963V19.1042H4.37455V16.3653H4.62776L4.67427 16.6202H4.68805Q4.87753 16.3309 5.24271 16.3309Q5.58895 16.3309 5.78618 16.5884Q5.98341 16.8459 5.98341 17.3075Q5.98341 17.7726 5.78532 18.0319Q5.58722 18.2911 5.24271 18.2911Q4.88615 18.2911 4.68805 18.0172ZM4.68805 17.2369V17.3075Q4.68805 17.6986 4.80777 17.8648Q4.92749 18.031 5.18932 18.031Q5.65785 18.031 5.65785 17.3041Q5.65785 16.591 5.18587 16.591Q4.92404 16.591 4.80949 16.7425Q4.69494 16.8941 4.68805 17.2369ZM7.76108 18.2567 7.69735 17.9948H7.68356Q7.55093 18.1619 7.4114 18.2265Q7.27188 18.2911 7.05139 18.2911Q6.77061 18.2911 6.61128 18.143Q6.45194 17.9948 6.45194 17.7278Q6.45194 17.156 7.33044 17.1284L7.68012 17.1163V16.9975Q7.68012 16.591 7.25982 16.591Q7.0066 16.591 6.69482 16.7322L6.5863 16.4962Q6.92392 16.3309 7.24604 16.3309Q7.63706 16.3309 7.81189 16.4807Q7.98673 16.6306 7.98673 16.9613V18.2567ZM7.67667 17.3317 7.39762 17.3437Q7.06 17.3575 6.91875 17.4497Q6.7775 17.5418 6.7775 17.7313Q6.7775 18.0379 7.12201 18.0379Q7.37523 18.0379 7.52595 17.8975Q7.67667 17.7571 7.67667 17.5022ZM10.0934 17.9983V18.236Q9.86948 18.2911 9.65933 18.2911Q9.03576 18.2911 9.03576 17.6986V16.6013H8.57584V16.4394L9.03576 16.355L9.1684 15.8606H9.34927V16.3653H10.1037V16.6013H9.34927V17.6986Q9.34927 18.0345 9.68 18.0345Q9.84019 18.0345 10.0934 17.9983ZM11.9813 18.2567V17.0388Q11.9813 16.591 11.5714 16.591Q11.0425 16.591 11.0425 17.2765V18.2567H10.729V15.5764H11.0425V16.3722L11.0288 16.6202H11.046Q11.2234 16.3309 11.6248 16.3309Q12.2948 16.3309 12.2948 17.0216V18.2567ZM12.7117 16.3653H13.0355L13.4868 17.4919Q13.6281 17.845 13.6401 17.9914H13.6505Q13.6901 17.7985 13.8055 17.4884L14.2172 16.3653H14.5427L13.7245 18.503Q13.6091 18.8027 13.4558 18.9534Q13.3025 19.1042 13.0321 19.1042Q12.8839 19.1042 12.7427 19.0749V18.8251Q12.8495 18.8458 12.977 18.8458Q13.1423 18.8458 13.2345 18.7752Q13.3266 18.7045 13.399 18.5323L13.4989 18.2739Z" style="fill:#af5a20;stroke:#90491a;stroke-width:0.05;stroke-linejoin:bevel" />
        <path id="text_torpor" d="M27.7096 17.9983V18.236Q27.4856 18.2911 27.2755 18.2911Q26.6519 18.2911 26.6519 17.6986V16.6013H26.192V16.4394L26.6519 16.355L26.7845 15.8606H26.9654V16.3653H27.7199V16.6013H26.9654V17.6986Q26.9654 18.0345 27.2961 18.0345Q27.4563 18.0345 27.7096 17.9983ZM29.1203 18.2911Q28.7483 18.2911 28.508 18.0233Q28.2677 17.7554 28.2677 17.3075Q28.2677 16.8545 28.5011 16.5927Q28.7345 16.3309 29.1307 16.3309Q29.5062 16.3309 29.7456 16.5979Q29.985 16.8648 29.985 17.3075Q29.985 17.764 29.7491 18.0276Q29.5131 18.2911 29.1203 18.2911ZM29.1272 18.031Q29.6612 18.031 29.6612 17.3075Q29.6612 16.591 29.1238 16.591Q28.5915 16.591 28.5915 17.3075Q28.5915 18.031 29.1272 18.031ZM32.0108 16.4084 31.9264 16.6943Q31.7145 16.6168 31.5405 16.6168Q31.2597 16.6168 31.1073 16.7761Q30.9548 16.9355 30.9548 17.2369V18.2567H30.6413V16.3653H30.8963L30.9342 16.7115H30.9479Q31.0789 16.5066 31.2287 16.4187Q31.3786 16.3309 31.5973 16.3309Q31.8006 16.3309 32.0108 16.4084ZM32.8893 18.0172H32.8686Q32.8893 18.2394 32.8893 18.2963V19.1042H32.5758V16.3653H32.829L32.8755 16.6202H32.8893Q33.0787 16.3309 33.4439 16.3309Q33.7901 16.3309 33.9874 16.5884Q34.1846 16.8459 34.1846 17.3075Q34.1846 17.7726 33.9865 18.0319Q33.7884 18.2911 33.4439 18.2911Q33.0873 18.2911 32.8893 18.0172ZM32.8893 17.2369V17.3075Q32.8893 17.6986 33.009 17.8648Q33.1287 18.031 33.3905 18.031Q33.8591 18.031 33.8591 17.3041Q33.8591 16.591 33.3871 16.591Q33.1252 16.591 33.0107 16.7425Q32.8961 16.8941 32.8893 17.2369ZM35.4714 18.2911Q35.0993 18.2911 34.859 18.0233Q34.6187 17.7554 34.6187 17.3075Q34.6187 16.8545 34.8521 16.5927Q35.0855 16.3309 35.4817 16.3309Q35.8572 16.3309 36.0966 16.5979Q36.3361 16.8648 36.3361 17.3075Q36.3361 17.764 36.1001 18.0276Q35.8641 18.2911 35.4714 18.2911ZM35.4782 18.031Q36.0122 18.031 36.0122 17.3075Q36.0122 16.591 35.4748 16.591Q34.9425 16.591 34.9425 17.3075Q34.9425 18.031 35.4782 18.031ZM38.3618 16.4084 38.2774 16.6943Q38.0655 16.6168 37.8915 16.6168Q37.6108 16.6168 37.4583 16.7761Q37.3059 16.9355 37.3059 17.2369V18.2567H36.9924V16.3653H37.2473L37.2852 16.7115H37.299Q37.4299 16.5066 37.5798 16.4187Q37.7296 16.3309 37.9484 16.3309Q38.1516 16.3309 38.3618 16.4084Z" style="fill:#af5a20;stroke:#90491a;stroke-width:0.05;stroke-linejoin:bevel" />
        <path id="text_inertia" d="M14.0008 43.0857Q14.1834 43.0857 14.1834 43.2821Q14.1834 43.382 14.1292 43.4311Q14.0749 43.4802 14.0008 43.4802Q13.8165 43.4802 13.8165 43.2821Q13.8165 43.0857 14.0008 43.0857ZM13.8424 44.1124 13.379 44.0762V43.8643H14.1559V45.5093L14.7622 45.5438V45.7557H13.2498V45.5438L13.8424 45.5093ZM16.5554 45.7557V44.5378Q16.5554 44.09 16.1454 44.09Q15.6166 44.09 15.6166 44.7755V45.7557H15.3031V43.8643H15.5563L15.6028 44.1192H15.62Q15.7975 43.8299 16.1988 43.8299Q16.8689 43.8299 16.8689 44.5206V45.7557ZM19.0324 44.8703H17.6991Q17.7129 45.5162 18.2917 45.5162Q18.6276 45.5162 18.929 45.3853V45.6609Q18.6431 45.7901 18.302 45.7901Q17.88 45.7901 17.6268 45.5326Q17.3736 45.2751 17.3736 44.8238Q17.3736 44.3656 17.607 44.0977Q17.8404 43.8299 18.2314 43.8299Q18.5966 43.8299 18.8145 44.0607Q19.0324 44.2915 19.0324 44.6756ZM17.706 44.6153H18.6931Q18.6931 44.09 18.2245 44.09Q17.7508 44.09 17.706 44.6153ZM21.0857 43.9074 21.0013 44.1933Q20.7894 44.1158 20.6154 44.1158Q20.3346 44.1158 20.1822 44.2751Q20.0298 44.4345 20.0298 44.7359V45.7557H19.7162V43.8643H19.9712L20.0091 44.2105H20.0229Q20.1538 44.0056 20.3036 43.9177Q20.4535 43.8299 20.6723 43.8299Q20.8755 43.8299 21.0857 43.9074ZM23.1355 45.4973V45.735Q22.9116 45.7901 22.7014 45.7901Q22.0779 45.7901 22.0779 45.1976V44.1003H21.6179V43.9384L22.0779 43.854L22.2105 43.3596H22.3914V43.8643H23.1458V44.1003H22.3914V45.1976Q22.3914 45.5335 22.7221 45.5335Q22.8823 45.5335 23.1355 45.4973ZM24.5859 43.0857Q24.7685 43.0857 24.7685 43.2821Q24.7685 43.382 24.7142 43.4311Q24.66 43.4802 24.5859 43.4802Q24.4016 43.4802 24.4016 43.2821Q24.4016 43.0857 24.5859 43.0857ZM24.4274 44.1124 23.964 44.0762V43.8643H24.7409V45.5093L25.3473 45.5438V45.7557H23.8349V45.5438L24.4274 45.5093ZM27.1542 45.7557 27.0905 45.4938H27.0767Q26.9441 45.6609 26.8045 45.7255Q26.665 45.7901 26.4445 45.7901Q26.1637 45.7901 26.0044 45.642Q25.8451 45.4938 25.8451 45.2268Q25.8451 44.655 26.7236 44.6274L27.0732 44.6153V44.4965Q27.0732 44.09 26.6529 44.09Q26.3997 44.09 26.088 44.2312L25.9794 43.9952Q26.317 43.8299 26.6392 43.8299Q27.0302 43.8299 27.205 43.9797Q27.3799 44.1296 27.3799 44.4603V45.7557ZM27.0698 44.8307 26.7908 44.8427Q26.4531 44.8565 26.3119 44.9487Q26.1706 45.0408 26.1706 45.2303Q26.1706 45.5369 26.5151 45.5369Q26.7684 45.5369 26.9191 45.3965Q27.0698 45.2561 27.0698 45.0012Z" style="fill:#af5a20;stroke:#90491a;stroke-width:0.05;stroke-linejoin:bevel" />
        <path id="text_cvleft" d="M2.18183 38.6434V38.8946Q1.95549 38.986 1.62683 38.986Q1.14779 38.986 0.893541 38.6822Q0.639293 38.3783 0.639293 37.8187Q0.639293 37.2823 0.916796 36.9691Q1.1943 36.6559 1.67489 36.6559Q2.01595 36.6559 2.26865 36.7893L2.14773 37.0311Q1.90898 36.9102 1.67489 36.9102Q1.34158 36.9102 1.14314 37.1559Q0.944701 37.4016 0.944701 37.8218Q0.944701 38.2667 1.13074 38.5Q1.31677 38.7333 1.67489 38.7333Q1.87643 38.7333 2.18183 38.6434ZM3.89026 36.6885H4.19877L3.44067 38.955H3.15077L2.39578 36.6885H2.69963L3.15697 38.1256Q3.22053 38.3225 3.29339 38.6434Q3.34145 38.4186 3.43757 38.1163Z" style="fill:#af5a20;stroke:#90491a;stroke-width:0.05;stroke-linejoin:bevel" />
        <path id="text_cvright" d="M38.1326 38.6434V38.8946Q37.9063 38.986 37.5776 38.986Q37.0986 38.986 36.8443 38.6822Q36.5901 38.3783 36.5901 37.8187Q36.5901 37.2823 36.8676 36.9691Q37.1451 36.6559 37.6257 36.6559Q37.9667 36.6559 38.2194 36.7893L38.0985 37.0311Q37.8598 36.9102 37.6257 36.9102Q37.2923 36.9102 37.0939 37.1559Q36.8955 37.4016 36.8955 37.8218Q36.8955 38.2667 37.0815 38.5Q37.2675 38.7333 37.6257 38.7333Q37.8272 38.7333 38.1326 38.6434ZM39.841 36.6885H40.1495L39.3914 38.955H39.1015L38.3465 36.6885H38.6504L39.1077 38.1256Q39.1713 38.3225 39.2442 38.6434Q39.2922 38.4186 39.3883 38.1163Z" style="fill:#af5a20;stroke:#90491a;stroke-width:0.05;stroke-linejoin:bevel" />
        <path id="text_xleft" d="M3.212 66.0428H2.88489L2.33454 65.0584L1.76713 66.0428H1.47413L2.17641 64.8584L1.52218 63.7763H1.83069L2.34384 64.6429L2.86164 63.7763H3.15774L2.50352 64.8491Z" style="fill:#af5a20;stroke:#90491a;stroke-width:0.05;stroke-linejoin:bevel" />
        <path id="text_yleft" d="M2.34074 79.9308 2.9314 78.7851H3.24301L2.48802 80.1695V81.0516H2.19811V80.185L1.44312 78.7851H1.75783Z" style="fill:#af5a20;stroke:#90491a;stroke-width:0.05;stroke-linejoin:bevel" />
        <path id="text_zleft" d="M3.13449 96.0604H1.55009V95.8356L2.77947 94.0512H1.58265V93.7939H3.10348V94.0187L1.8741 95.8031H3.13449Z" style="fill:#af5a20;stroke:#90491a;stroke-width:0.05;stroke-linejoin:bevel" />
        <path id="text_xright" d="M39.1628 66.0428H38.8357L38.2853 65.0584L37.7179 66.0428H37.4249L38.1272 64.8584L37.473 63.7763H37.7815L38.2946 64.6429L38.8124 63.7763H39.1085L38.4543 64.8491Z" style="fill:#af5a20;stroke:#90491a;stroke-width:0.05;stroke-linejoin:bevel" />
        <path id="text_yright" d="M38.2915 79.9308 38.8822 78.7851H39.1938L38.4388 80.1695V81.0516H38.1489V80.185L37.3939 78.7851H37.7086Z" style="fill:#af5a20;stroke:#90491a;stroke-width:0.05;stroke-linejoin:bevel" />
        <path id="text_zright" d="M39.0853 96.0604H37.5009V95.8356L38.7302 94.0512H37.5334V93.7939H39.0543V94.0187L37.8249 95.8031H39.0853Z" style="fill:#af5a20;stroke:#90491a;stroke-width:0.05;stroke-linejoin:bevel" />
        <g id="nlc_logo" transform="scale(0.25) translate(6.09,135)" style="fill:#5c3114;stroke:#5c3114;">
            <polyline points="87 351.05 87 339.53 94.75 351.05 94.75 339.53" style="fill:none;stroke-linecap:round;stroke-linejoin:round;stroke-width:1.56px" />
            <polyline points="94.75 339.53 94.75 351.05 102.49 351.05" style="fill:none;stroke-linecap:round;stroke-linejoin:round;stroke-width:1.56px" />
            <path d="M108.79,349.13a2,2,0,0,1-1.94,1.92H103a2,2,0,0,1-1.94-1.92v-7.68a1.91,1.91,0,0,1,1.94-1.92h3.87a1.91,1.91,0,0,1,1.94,1.92" style="fill:none;stroke-linecap:round;stroke-linejoin:round;stroke-width:1.56px" />
            <path d="M52.28,356.21a11.34,11.34,0,1,0,0-22.68,11.34,11.34,0,1,0,0,22.68" style="fill:none;stroke-linecap:round;stroke-linejoin:round;stroke-width:1.08px" />
            <line x1="63.89" y1="344.81" x2="81.20" y2="344.81" style="fill: none;stroke-linecap: round;stroke-linejoin: round;stroke-width: 1.44px" />
            <line x1="55.30" y1="334.01" x2="48.52" y2="342.29" style="fill: none;stroke-linecap: round;stroke-linejoin: round;stroke-width: 1.08px" />
            <line x1="56.63" y1="347.69" x2="49.86" y2="355.73" style="fill: none;stroke-linecap: round;stroke-linejoin: round;stroke-width: 1.08px" />
            <line x1="48.52" y1="342.29" x2="56.63" y2="347.69" style="fill: none;stroke-linecap: round;stroke-linejoin: round;stroke-width: 1.08px" />
            <polygon points="56.99 347.45 57.24 355.01 53.73 355.85 50.22 355.73 56.99 347.45" style="fill-rule: evenodd" />
            <polygon points="54.82 333.89 57.36 335.09 57.24 347.57 48.16 341.93 54.82 333.89" style="fill-rule: evenodd" />
            <polygon points="56.75 349.25 62.2 349.49 61.96 350.81 60.38 352.25 56.63 355.25 56.75 349.25" style="fill-rule: evenodd" />
            <polygon points="56.63 341.69 63.17 341.57 63.53 345.17 63.29 347.69 62.32 349.97 56.39 349.73 56.63 341.69" style="fill-rule: evenodd" />
            <polygon points="56.99 334.61 59.41 336.17 61.84 338.93 62.8 341.21 63.05 342.05 56.27 341.93 56.99 334.61" style="fill-rule: evenodd" />
        </g>
    </g>
</svg>
